<?xml version="1.0" standalone="no"?>
<!DOCTYPE svg PUBLIC "-//W3C//DTD SVG 20010904//EN"
 "http://www.w3.org/TR/2001/REC-SVG-20010904/DTD/svg10.dtd">
<svg version="1.0" xmlns="http://www.w3.org/2000/svg"
 width="48.000000pt" height="48.000000pt" viewBox="0 0 48.000000 48.000000"
 preserveAspectRatio="xMidYMid meet">
<metadata>
Created by potrace 1.16, written by Peter Selinger 2001-2019
</metadata>
<g transform="translate(0.000000,48.000000) scale(0.100000,-0.100000)"
fill="currentColor" stroke="currentColor" stroke-width="6" stroke-linejoin="round">
<path d="M83 469 c-12 -4 -25 -19 -29 -33 -6 -25 10 -66 26 -66 21 0 8 -62
-31 -143 -43 -89 -50 -133 -29 -171 34 -64 136 -64 170 0 21 38 14 82 -29 171
-46 95 -50 124 -21 153 45 45 2 111 -57 89z m52 -49 c0 -20 -6 -26 -28 -28
-29 -4 -44 16 -33 44 4 10 15 14 33 12 22 -2 28 -8 28 -28z m11 -206 c19 -41
34 -91 34 -110 0 -45 -29 -74 -75 -74 -46 0 -75 29 -75 74 0 33 62 186 75 186
3 0 22 -34 41 -76z M95 100 c-4 -6 -3 -16 3 -22 6 -6 12 -6 17 2 4 6 3 16 -3
22 -6 6 -12 6 -17 -2z M353 469 c-12 -4 -25 -19 -29 -33 -6 -25 10 -66 26 -66
21 0 8 -62 -31 -143 -43 -89 -50 -133 -29 -171 34 -64 136 -64 170 0 21 38 14
82 -29 171 -46 95 -50 124 -21 153 45 45 2 111 -57 89z m52 -49 c0 -20 -6 -26
-28 -28 -18 -2 -29 2 -33 12 -11 28 4 48 33 44 22 -2 28 -8 28 -28z m11 -206
c19 -41 34 -91 34 -110 0 -45 -29 -74 -75 -74 -46 0 -75 29 -75 74 0 33 62
186 75 186 3 0 22 -34 41 -76z M365 100 c-4 -6 -3 -16 3 -22 6 -6 12 -6 17 2
4 6 3 16 -3 22 -6 6 -12 6 -17 -2z"/>
</g>
</svg>

