<?xml version="1.0" standalone="no"?>
<!DOCTYPE svg PUBLIC "-//W3C//DTD SVG 20010904//EN"
 "http://www.w3.org/TR/2001/REC-SVG-20010904/DTD/svg10.dtd">
<svg version="1.0" xmlns="http://www.w3.org/2000/svg"
 width="48.000000pt" height="48.000000pt" viewBox="0 0 48.000000 48.000000"
 preserveAspectRatio="xMidYMid meet">
<metadata>
Created by potrace 1.16, written by Peter Selinger 2001-2019
</metadata>
<g transform="translate(0.000000,48.000000) scale(0.100000,-0.100000)"
fill="currentColor" stroke="none">
<path d="M149 447 c-18 -12 -44 -38 -57 -57 -25 -37 -25 -32 -6 -189 4 -34 2
-62 -6 -76 -19 -36 -9 -60 25 -60 24 0 31 5 33 24 2 13 -1 28 -7 34 -6 6 -11
22 -11 35 0 22 4 21 55 -23 48 -41 53 -49 40 -62 -28 -27 -14 -63 25 -63 39 0
53 36 25 63 -13 13 -8 21 40 62 51 44 55 45 55 23 0 -13 -5 -29 -11 -35 -6 -6
-9 -21 -7 -34 2 -19 9 -24 33 -24 34 0 44 24 25 60 -8 14 -10 42 -6 76 19 157
19 152 -6 189 -38 56 -82 80 -148 80 -43 0 -65 -6 -91 -23z m198 -39 c47 -48
57 -118 24 -172 -22 -35 -116 -126 -131 -126 -15 0 -109 91 -131 126 -30 50
-23 123 17 166 40 41 59 48 127 45 51 -3 62 -8 94 -39z m-227 -313 c0 -8 -7
-15 -15 -15 -8 0 -15 7 -15 15 0 8 7 15 15 15 8 0 15 -7 15 -15z m270 0 c0 -8
-7 -15 -15 -15 -8 0 -15 7 -15 15 0 8 7 15 15 15 8 0 15 -7 15 -15z m-130 -50
c0 -8 -9 -15 -20 -15 -11 0 -20 7 -20 15 0 8 9 15 20 15 11 0 20 -7 20 -15z"/>
</g>
</svg>

