<?xml version="1.0" standalone="no"?>
<!DOCTYPE svg PUBLIC "-//W3C//DTD SVG 20010904//EN"
 "http://www.w3.org/TR/2001/REC-SVG-20010904/DTD/svg10.dtd">
<svg version="1.0" xmlns="http://www.w3.org/2000/svg"
 width="48.000000pt" height="48.000000pt" viewBox="0 0 48.000000 48.000000"
 preserveAspectRatio="xMidYMid meet">
<metadata>
Created by potrace 1.16, written by Peter Selinger 2001-2019
</metadata>
<g transform="translate(0.000000,48.000000) scale(0.100000,-0.100000)"
fill="currentColor" stroke="none">
<path d="M90 468 c-81 -14 -85 -24 -85 -213 0 -151 2 -166 20 -185 22 -21 104
-41 136 -33 33 9 9 23 -39 23 -57 0 -92 21 -92 57 0 21 3 23 14 14 21 -17 121
-26 130 -12 5 7 -6 11 -34 11 -62 0 -110 23 -110 54 0 22 3 24 23 17 44 -17
132 -17 122 -1 -3 5 -27 10 -53 10 -57 0 -92 21 -92 57 0 21 3 23 14 14 21
-17 121 -26 130 -12 5 7 -6 11 -34 11 -62 0 -110 23 -110 54 0 24 2 25 28 15
34 -13 119 -13 153 0 23 8 28 7 32 -11 4 -12 10 -17 17 -13 18 11 6 94 -17
116 -24 24 -96 37 -153 27z m128 -34 c51 -35 8 -74 -83 -74 -91 0 -134 39 -83
74 30 21 136 21 166 0z M285 284 c-11 -3 -31 -13 -45 -24 -23 -18 -25 -25 -25
-109 0 -77 3 -93 20 -111 42 -41 178 -42 219 -1 14 14 21 38 24 80 6 85 -4
126 -35 146 -25 17 -119 28 -158 19z m130 -28 c70 -29 23 -86 -70 -86 -53 0
-105 25 -105 50 0 43 106 64 175 36z m-70 -101 c46 0 78 5 88 14 15 12 17 10
17 -13 0 -49 -101 -73 -175 -42 -28 12 -35 21 -35 42 0 23 2 25 17 13 10 -9
42 -14 88 -14z m0 -70 c46 0 78 5 88 14 15 12 17 11 17 -12 0 -39 -34 -57
-105 -57 -71 0 -105 18 -105 57 0 23 2 24 17 12 10 -9 42 -14 88 -14z"/>
</g>
</svg>

