<?xml version="1.0" standalone="no"?>
<!DOCTYPE svg PUBLIC "-//W3C//DTD SVG 20010904//EN"
 "http://www.w3.org/TR/2001/REC-SVG-20010904/DTD/svg10.dtd">
<svg version="1.0" xmlns="http://www.w3.org/2000/svg"
 width="48.000000pt" height="48.000000pt" viewBox="0 0 48.000000 48.000000"
 preserveAspectRatio="xMidYMid meet">
<metadata>
Created by potrace 1.16, written by Peter Selinger 2001-2019
</metadata>
<g transform="translate(0.000000,48.000000) scale(0.100000,-0.100000)"
fill="currentColor" stroke="currentColor" stroke-width="6" stroke-linejoin="round">
<path d="M100 450 c0 -6 53 -10 140 -10 87 0 140 4 140 10 0 6 -53 10 -140 10
-87 0 -140 -4 -140 -10z M40 390 c0 -6 73 -10 200 -10 127 0 200 4 200 10 0 6
-73 10 -200 10 -127 0 -200 -4 -200 -10z M20 330 c-22 -14 -22 -286 0 -300 20
-13 420 -13 440 0 12 7 15 36 15 150 0 114 -3 143 -15 150 -8 5 -107 10 -220
10 -113 0 -212 -5 -220 -10z m430 -150 l0 -140 -210 0 -210 0 0 140 0 140 210
0 210 0 0 -140z M75 261 c-7 -12 12 -24 25 -16 11 7 4 25 -10 25 -5 0 -11 -4
-15 -9z M192 227 c-28 -30 -28 -68 1 -95 30 -28 68 -28 95 1 28 30 28 68 -1
95 -30 28 -68 28 -95 -1z m80 -14 c22 -20 23 -41 1 -65 -20 -22 -41 -23 -65
-1 -22 20 -23 41 -1 65 20 22 41 23 65 1z M375 111 c-7 -12 12 -24 25 -16 11
7 4 25 -10 25 -5 0 -11 -4 -15 -9z"/>
</g>
</svg>

