<?xml version="1.0" standalone="no"?>
<!DOCTYPE svg PUBLIC "-//W3C//DTD SVG 20010904//EN"
 "http://www.w3.org/TR/2001/REC-SVG-20010904/DTD/svg10.dtd">
<svg version="1.0" xmlns="http://www.w3.org/2000/svg"
 width="48.000000pt" height="48.000000pt" viewBox="0 0 48.000000 48.000000"
 preserveAspectRatio="xMidYMid meet">
<metadata>
Created by potrace 1.16, written by Peter Selinger 2001-2019
</metadata>
<g transform="translate(0.000000,48.000000) scale(0.100000,-0.100000)"
fill="currentColor" stroke="none">
<path d="M110 473 c-26 -10 -30 -26 -30 -123 l0 -96 -27 1 -28 0 -3 -110 c-1
-60 2 -117 8 -125 8 -13 43 -15 210 -15 167 0 202 2 210 15 6 8 9 65 8 125
l-3 110 -27 0 -28 -1 0 96 c0 52 -5 102 -10 110 -7 12 -36 15 -137 17 -70 1
-135 -1 -143 -4z m270 -135 l-1 -113 -61 -48 c-33 -26 -69 -47 -78 -47 -9 0
-45 21 -78 47 l-61 48 -1 113 0 112 140 0 140 0 0 -112z m-280 -136 l49 -39
-27 -26 c-14 -15 -23 -30 -19 -34 4 -4 19 5 33 19 l26 25 39 -21 39 -21 39 21
39 21 26 -25 c14 -14 29 -23 33 -19 4 4 -5 19 -19 34 l-27 26 49 39 c26 21 51
38 54 38 3 0 6 -47 6 -105 l0 -105 -200 0 -200 0 0 105 c0 58 3 105 6 105 3 0
28 -17 54 -38z M251 386 c-30 -31 -21 -63 21 -74 18 -4 33 -13 36 -20 5 -17
-28 -27 -48 -14 -29 18 -32 1 -5 -24 l25 -23 25 23 c40 38 30 66 -28 80 -41
10 -28 31 18 30 l37 -1 -26 23 c-14 13 -26 24 -28 23 -2 0 -14 -11 -27 -23z
M140 390 c0 -5 11 -10 25 -10 14 0 25 5 25 10 0 6 -11 10 -25 10 -14 0 -25 -4
-25 -10z M140 330 c0 -5 11 -10 25 -10 14 0 25 5 25 10 0 6 -11 10 -25 10 -14
0 -25 -4 -25 -10z M140 270 c0 -5 11 -10 25 -10 14 0 25 5 25 10 0 6 -11 10
-25 10 -14 0 -25 -4 -25 -10z"/>
</g>
</svg>

