<?xml version="1.0" standalone="no"?>
<!DOCTYPE svg PUBLIC "-//W3C//DTD SVG 20010904//EN"
 "http://www.w3.org/TR/2001/REC-SVG-20010904/DTD/svg10.dtd">
<svg version="1.0" xmlns="http://www.w3.org/2000/svg"
 width="48.000000pt" height="48.000000pt" viewBox="0 0 48.000000 48.000000"
 preserveAspectRatio="xMidYMid meet">
<metadata>
Created by potrace 1.16, written by Peter Selinger 2001-2019
</metadata>
<g transform="translate(0.000000,48.000000) scale(0.100000,-0.100000)"
fill="currentColor" stroke="none">
<path d="M281 469 c-162 -34 -163 -272 0 -308 99 -22 191 52 191 154 0 101
-92 175 -191 154z m130 -58 c36 -36 39 -43 39 -96 0 -53 -3 -60 -39 -96 -36
-36 -43 -39 -96 -39 -53 0 -60 3 -96 39 -36 36 -39 43 -39 96 0 53 3 60 39 96
36 36 43 39 96 39 53 0 60 -3 96 -39z M292 385 c-33 -34 -29 -61 13 -76 40
-15 47 -39 11 -39 -32 0 -40 -14 -18 -33 16 -14 19 -14 40 8 30 31 25 56 -15
75 -38 18 -43 40 -9 40 32 0 40 14 18 33 -16 14 -19 14 -40 -8z M55 277 c-65
-65 -65 -159 -1 -223 70 -70 189 -60 242 21 27 41 10 39 -33 -5 -38 -37 -44
-40 -98 -40 -53 0 -60 3 -96 39 -36 36 -39 43 -39 96 0 54 3 60 40 97 22 22
40 42 40 44 0 13 -27 -1 -55 -29z M122 193 c2 -10 18 -25 35 -33 38 -18 43
-40 10 -40 -33 0 -40 -10 -21 -31 16 -18 18 -18 40 4 34 32 30 52 -22 86 -37
25 -45 28 -42 14z"/>
</g>
</svg>

