<?xml version="1.0" standalone="no"?>
<!DOCTYPE svg PUBLIC "-//W3C//DTD SVG 20010904//EN"
 "http://www.w3.org/TR/2001/REC-SVG-20010904/DTD/svg10.dtd">
<svg version="1.0" xmlns="http://www.w3.org/2000/svg"
 width="48.000000pt" height="48.000000pt" viewBox="0 0 48.000000 48.000000"
 preserveAspectRatio="xMidYMid meet">
<metadata>
Created by potrace 1.16, written by Peter Selinger 2001-2019
</metadata>
<g transform="translate(0.000000,48.000000) scale(0.100000,-0.100000)"
fill="currentColor" stroke="none">
<path d="M27 452 c-16 -18 -16 -20 1 -35 18 -16 20 -16 35 1 16 18 16 20 -1
35 -18 16 -20 16 -35 -1z M106 374 c-9 -8 -16 -29 -16 -45 0 -17 -7 -37 -15
-45 -20 -20 -19 -68 1 -88 8 -9 29 -16 45 -16 26 0 29 -3 29 -31 0 -17 -7 -37
-15 -45 -20 -20 -19 -68 1 -88 12 -13 38 -16 119 -16 116 0 135 9 135 61 0 17
7 37 15 45 20 20 19 68 -1 88 -8 9 -29 16 -45 16 -26 0 -29 3 -29 31 0 17 7
37 15 45 20 20 19 68 -1 88 -12 13 -38 16 -119 16 -81 0 -107 -3 -119 -16z
m224 -44 l0 -30 -105 0 -105 0 0 30 0 30 105 0 105 0 0 -30z m-30 -90 l0 -30
-105 0 -105 0 0 30 0 30 105 0 105 0 0 -30z m90 -90 l0 -30 -105 0 -105 0 0
30 0 30 105 0 105 0 0 -30z m-30 -90 l0 -30 -105 0 -105 0 0 30 0 30 105 0
105 0 0 -30z M417 319 c-16 -18 -16 -21 1 -39 18 -19 18 -19 35 1 16 18 16 21
-1 39 -18 19 -18 19 -35 -1z"/>
</g>
</svg>

