<?xml version="1.0" standalone="no"?>
<!DOCTYPE svg PUBLIC "-//W3C//DTD SVG 20010904//EN"
 "http://www.w3.org/TR/2001/REC-SVG-20010904/DTD/svg10.dtd">
<svg version="1.0" xmlns="http://www.w3.org/2000/svg"
 width="48.000000pt" height="48.000000pt" viewBox="0 0 48.000000 48.000000"
 preserveAspectRatio="xMidYMid meet">
<metadata>
Created by potrace 1.16, written by Peter Selinger 2001-2019
</metadata>
<g transform="translate(0.000000,48.000000) scale(0.100000,-0.100000)"
fill="currentColor" stroke="currentColor" stroke-width="6" stroke-linejoin="round">
<path d="M33 470 c-25 -10 -36 -52 -31 -120 5 -71 23 -52 26 28 l3 72 209 0
210 0 0 -135 0 -134 -65 -3 c-37 -2 -64 -7 -63 -13 4 -15 125 -12 140 3 18 18
18 276 0 294 -16 16 -394 23 -429 8z M74 399 c-10 -17 13 -36 27 -22 12 12 4
33 -11 33 -5 0 -12 -5 -16 -11z M210 377 c-14 -7 -26 -21 -28 -31 -3 -16 -1
-16 27 5 29 21 31 21 56 5 22 -14 26 -24 23 -47 -3 -18 -1 -28 6 -26 19 6 18
53 -1 74 -24 28 -53 35 -83 20z M90 278 c-71 -12 -85 -34 -85 -133 0 -71 3
-88 20 -105 42 -42 178 -42 220 0 17 17 20 33 20 105 0 71 -3 88 -20 105 -26
25 -97 38 -155 28z m128 -34 c51 -35 8 -74 -83 -74 -39 0 -69 6 -83 16 -51 35
-8 74 83 74 39 0 69 -6 83 -16z m-83 -95 c28 0 62 4 78 10 24 9 27 8 27 -9 0
-32 -38 -50 -105 -50 -67 0 -105 18 -105 50 0 17 3 18 28 9 15 -6 50 -10 77
-10z m0 -70 c28 0 62 4 78 10 24 9 27 8 27 -9 0 -32 -38 -50 -105 -50 -67 0
-105 18 -105 50 0 17 3 18 28 9 15 -6 50 -10 77 -10z M374 249 c-10 -17 13
-36 27 -22 12 12 4 33 -11 33 -5 0 -12 -5 -16 -11z"/>
</g>
</svg>

