<?xml version="1.0" standalone="no"?>
<!DOCTYPE svg PUBLIC "-//W3C//DTD SVG 20010904//EN"
 "http://www.w3.org/TR/2001/REC-SVG-20010904/DTD/svg10.dtd">
<svg version="1.0" xmlns="http://www.w3.org/2000/svg"
 width="48.000000pt" height="48.000000pt" viewBox="0 0 48.000000 48.000000"
 preserveAspectRatio="xMidYMid meet">
<metadata>
Created by potrace 1.16, written by Peter Selinger 2001-2019
</metadata>
<g transform="translate(0.000000,48.000000) scale(0.100000,-0.100000)"
fill="currentColor" stroke="none">
<path d="M63 470 c-31 -12 -35 -46 -31 -257 2 -133 7 -186 16 -195 19 -19 365
-19 384 0 9 9 14 56 16 159 l4 145 -79 79 -79 79 -105 -1 c-57 0 -114 -4 -126
-9z m209 -80 c2 -33 10 -66 16 -72 6 -6 39 -14 72 -16 l60 -4 0 -134 0 -134
-180 0 -180 0 0 210 0 210 104 0 104 0 4 -60z m93 0 l59 -60 -62 0 -62 0 0 60
c0 33 1 60 3 60 1 0 29 -27 62 -60z M131 356 c-30 -31 -21 -63 21 -74 18 -4
33 -13 36 -20 5 -17 -28 -27 -48 -14 -29 18 -32 1 -5 -24 l25 -23 25 23 c40
38 30 66 -28 80 -41 10 -28 31 18 30 l37 -1 -26 23 c-14 13 -26 24 -28 23 -2
0 -14 -11 -27 -23z M230 180 c0 -6 30 -10 70 -10 40 0 70 4 70 10 0 6 -30 10
-70 10 -40 0 -70 -4 -70 -10z M130 90 c0 -6 47 -10 120 -10 73 0 120 4 120 10
0 6 -47 10 -120 10 -73 0 -120 -4 -120 -10z"/>
</g>
</svg>

