<?xml version="1.0" standalone="no"?>
<!DOCTYPE svg PUBLIC "-//W3C//DTD SVG 20010904//EN"
 "http://www.w3.org/TR/2001/REC-SVG-20010904/DTD/svg10.dtd">
<svg version="1.0" xmlns="http://www.w3.org/2000/svg"
 width="48.000000pt" height="48.000000pt" viewBox="0 0 48.000000 48.000000"
 preserveAspectRatio="xMidYMid meet">
<metadata>
Created by potrace 1.16, written by Peter Selinger 2001-2019
</metadata>
<g transform="translate(0.000000,48.000000) scale(0.100000,-0.100000)"
fill="currentColor" stroke="currentColor" stroke-width="6" stroke-linejoin="round">
<path d="M10 421 c-11 -21 -14 -110 -4 -135 7 -17 44 -22 44 -6 0 6 -4 10 -10
10 -6 0 -10 28 -10 65 l0 65 210 0 210 0 0 -65 c0 -63 -1 -65 -25 -65 -14 0
-25 -4 -25 -10 0 -17 67 -12 74 6 10 25 7 114 -4 135 -10 18 -23 19 -230 19
-207 0 -220 -1 -230 -19z M116 318 c-37 -64 -72 -147 -86 -207 -10 -44 -10
-55 1 -62 17 -11 259 -12 275 -1 6 4 14 45 17 92 3 47 15 114 26 150 12 36 21
66 21 68 0 1 -52 2 -115 2 l-114 0 -25 -42z m219 5 c-13 -35 -35 -166 -35
-214 l0 -49 -130 0 c-75 0 -130 4 -130 9 0 27 54 172 80 219 l30 52 96 0 c88
0 96 -2 89 -17z M220 292 c0 -4 -10 -12 -22 -17 -33 -15 -34 -49 -2 -74 35
-27 26 -49 -18 -44 -30 4 -31 3 -15 -10 9 -8 17 -19 17 -25 0 -17 58 20 64 41
3 12 -6 28 -25 44 -37 33 -33 49 12 45 29 -2 32 -1 18 10 -9 7 -14 19 -12 26
3 6 0 12 -6 12 -6 0 -11 -3 -11 -8z"/>
</g>
</svg>

