<?xml version="1.0" standalone="no"?>
<!DOCTYPE svg PUBLIC "-//W3C//DTD SVG 20010904//EN"
 "http://www.w3.org/TR/2001/REC-SVG-20010904/DTD/svg10.dtd">
<svg version="1.0" xmlns="http://www.w3.org/2000/svg"
 width="48.000000pt" height="48.000000pt" viewBox="0 0 48.000000 48.000000"
 preserveAspectRatio="xMidYMid meet">
<metadata>
Created by potrace 1.16, written by Peter Selinger 2001-2019
</metadata>
<g transform="translate(0.000000,48.000000) scale(0.100000,-0.100000)"
fill="currentColor" stroke="currentColor" stroke-width="6" stroke-linejoin="round">
<path d="M191 469 c-245 -47 -243 -412 2 -458 168 -31 307 108 276 275 -17 88
-90 167 -168 180 -20 3 -43 7 -51 9 -8 1 -35 -1 -59 -6z m170 -54 c64 -45 91
-104 87 -187 -4 -82 -39 -139 -108 -176 -38 -20 -56 -23 -112 -20 -82 4 -139
39 -176 108 -20 38 -23 56 -20 112 4 82 39 139 108 176 38 20 56 23 112 20 55
-3 75 -9 109 -33z M213 380 c-14 -6 -24 -21 -28 -44 -6 -29 -12 -35 -41 -41
-41 -7 -59 -40 -44 -79 6 -18 20 -27 44 -31 29 -6 35 -12 41 -41 12 -67 98
-67 110 0 6 29 12 35 41 41 67 12 67 98 0 110 -29 6 -35 12 -41 41 -4 25 -13
38 -31 44 -14 6 -26 10 -27 9 -1 0 -12 -4 -24 -9z m57 -53 c0 -42 15 -57 57
-57 30 0 33 -3 33 -30 0 -27 -3 -30 -33 -30 -42 0 -57 -15 -57 -57 0 -30 -3
-33 -30 -33 -27 0 -30 3 -30 33 0 42 -15 57 -57 57 -30 0 -33 3 -33 30 0 27 3
30 33 30 18 0 38 5 45 12 7 7 12 27 12 45 0 30 3 33 30 33 27 0 30 -3 30 -33z"/>
</g>
</svg>

