<?xml version="1.0" standalone="no"?>
<!DOCTYPE svg PUBLIC "-//W3C//DTD SVG 20010904//EN"
 "http://www.w3.org/TR/2001/REC-SVG-20010904/DTD/svg10.dtd">
<svg version="1.0" xmlns="http://www.w3.org/2000/svg"
 width="48.000000pt" height="48.000000pt" viewBox="0 0 48.000000 48.000000"
 preserveAspectRatio="xMidYMid meet">
<metadata>
Created by potrace 1.16, written by Peter Selinger 2001-2019
</metadata>
<g transform="translate(0.000000,48.000000) scale(0.100000,-0.100000)"
fill="currentColor" stroke="currentColor" stroke-width="6" stroke-linejoin="round">
<path d="M200 468 c-31 -17 -50 -53 -50 -99 0 -36 0 -36 -51 -41 -65 -7 -94
-33 -94 -88 0 -55 29 -81 93 -88 l50 -4 4 -50 c7 -64 33 -93 88 -93 55 0 81
29 88 93 l4 50 50 4 c64 7 93 33 93 88 0 55 -29 81 -93 88 l-50 4 -4 50 c-3
30 -13 57 -24 69 -25 25 -73 33 -104 17z m88 -30 c7 -7 12 -35 12 -63 0 -28 5
-56 12 -63 7 -7 35 -12 63 -12 60 0 75 -12 75 -60 0 -48 -15 -60 -75 -60 -28
0 -56 -5 -63 -12 -7 -7 -12 -35 -12 -63 0 -60 -12 -75 -60 -75 -48 0 -60 15
-60 75 0 28 -5 56 -12 63 -7 7 -35 12 -63 12 -60 0 -75 12 -75 60 0 48 15 60
75 60 28 0 56 5 63 12 7 7 12 35 12 63 0 60 12 75 60 75 20 0 41 -5 48 -12z"/>
</g>
</svg>

