<?xml version="1.0" standalone="no"?>
<!DOCTYPE svg PUBLIC "-//W3C//DTD SVG 20010904//EN"
 "http://www.w3.org/TR/2001/REC-SVG-20010904/DTD/svg10.dtd">
<svg version="1.0" xmlns="http://www.w3.org/2000/svg"
 width="48.000000pt" height="48.000000pt" viewBox="0 0 48.000000 48.000000"
 preserveAspectRatio="xMidYMid meet">
<metadata>
Created by potrace 1.16, written by Peter Selinger 2001-2019
</metadata>
<g transform="translate(0.000000,48.000000) scale(0.100000,-0.100000)"
fill="currentColor" stroke="currentColor" stroke-width="6" stroke-linejoin="round">
<path d="M54 435 c-21 -19 -33 -34 -26 -35 15 0 82 51 82 63 0 15 -18 6 -56
-28z M370 463 c0 -12 67 -63 82 -63 7 1 -5 16 -26 35 -38 34 -56 43 -56 28z
M147 389 c-20 -11 -48 -37 -62 -58 -49 -74 -45 -153 11 -226 29 -38 33 -49 23
-66 -14 -27 -1 -39 17 -15 12 17 27 19 104 19 77 0 92 -2 104 -19 18 -24 31
-12 17 15 -10 17 -6 28 23 66 56 73 60 152 11 226 -49 75 -164 102 -248 58z
m184 -22 c39 -26 79 -97 79 -142 0 -45 -40 -116 -79 -142 -48 -32 -135 -32
-182 0 -44 30 -79 92 -79 142 0 50 35 112 79 142 47 32 134 32 182 0z M230
291 c0 -49 -1 -50 -32 -53 -45 -4 -37 -23 10 -23 l37 0 3 63 c2 38 -1 62 -8
62 -5 0 -10 -22 -10 -49z"/>
</g>
</svg>

