<?xml version="1.0" standalone="no"?>
<!DOCTYPE svg PUBLIC "-//W3C//DTD SVG 20010904//EN"
 "http://www.w3.org/TR/2001/REC-SVG-20010904/DTD/svg10.dtd">
<svg version="1.0" xmlns="http://www.w3.org/2000/svg"
 width="48.000000pt" height="48.000000pt" viewBox="0 0 48.000000 48.000000"
 preserveAspectRatio="xMidYMid meet">
<metadata>
Created by potrace 1.16, written by Peter Selinger 2001-2019
</metadata>
<g transform="translate(0.000000,48.000000) scale(0.100000,-0.100000)"
fill="currentColor" stroke="none">
<path d="M230 452 c0 -13 -12 -22 -39 -31 -22 -6 -53 -27 -70 -46 -31 -35 -36
-54 -45 -163 -3 -35 -11 -72 -16 -83 -6 -11 -8 -24 -5 -29 6 -10 357 -15 367
-4 3 3 -1 26 -8 51 -8 25 -14 70 -14 100 0 29 -6 68 -14 86 -17 41 -66 83
-106 92 -21 5 -30 13 -30 26 0 10 -4 19 -10 19 -5 0 -10 -8 -10 -18z m78 -62
c48 -30 72 -75 72 -140 0 -30 4 -72 9 -92 l9 -38 -160 0 c-158 0 -159 0 -153
21 4 12 10 56 14 99 7 85 24 120 74 150 41 25 93 25 135 0z M190 42 c0 -31 68
-44 90 -17 18 21 6 29 -19 13 -17 -10 -25 -10 -41 0 -23 14 -30 15 -30 4z"/>
</g>
</svg>

