<?xml version="1.0" standalone="no"?>
<!DOCTYPE svg PUBLIC "-//W3C//DTD SVG 20010904//EN"
 "http://www.w3.org/TR/2001/REC-SVG-20010904/DTD/svg10.dtd">
<svg version="1.0" xmlns="http://www.w3.org/2000/svg"
 width="48.000000pt" height="48.000000pt" viewBox="0 0 48.000000 48.000000"
 preserveAspectRatio="xMidYMid meet">
<metadata>
Created by potrace 1.16, written by Peter Selinger 2001-2019
</metadata>
<g transform="translate(0.000000,48.000000) scale(0.100000,-0.100000)"
fill="currentColor" stroke="none">
<path d="M67 401 l-67 -69 0 -92 0 -92 67 -69 66 -69 107 0 107 0 66 69 67 69
0 92 0 92 -67 69 -66 69 -107 0 -107 0 -66 -69z m325 -8 l58 -57 0 -95 0 -95
-57 -58 -57 -58 -96 0 -96 0 -57 58 -57 58 0 94 0 94 57 58 57 58 95 0 95 0
58 -57z M206 374 c-9 -8 -16 -24 -16 -35 0 -26 40 -119 51 -119 8 0 49 102 49
124 0 17 -33 46 -53 46 -8 0 -23 -7 -31 -16z m54 -19 c9 -11 9 -22 0 -49 -16
-50 -25 -51 -40 -6 -19 58 7 95 40 55z M210 165 c-26 -32 13 -81 48 -59 22 14
27 41 12 59 -16 19 -44 19 -60 0z m46 -16 c10 -17 -13 -36 -27 -22 -12 12 -4
33 11 33 5 0 12 -5 16 -11z"/>
</g>
</svg>

