<?xml version="1.0" standalone="no"?>
<!DOCTYPE svg PUBLIC "-//W3C//DTD SVG 20010904//EN"
 "http://www.w3.org/TR/2001/REC-SVG-20010904/DTD/svg10.dtd">
<svg version="1.0" xmlns="http://www.w3.org/2000/svg"
 width="48.000000pt" height="48.000000pt" viewBox="0 0 48.000000 48.000000"
 preserveAspectRatio="xMidYMid meet">
<metadata>
Created by potrace 1.16, written by Peter Selinger 2001-2019
</metadata>
<g transform="translate(0.000000,48.000000) scale(0.100000,-0.100000)"
fill="currentColor" stroke="none">
<path d="M112 367 c-74 -74 -102 -109 -102 -127 0 -36 194 -230 230 -230 36 0
230 194 230 230 0 36 -195 230 -230 230 -19 0 -52 -27 -128 -103z m240 -14
c54 -54 98 -104 98 -113 0 -19 -190 -210 -210 -210 -19 0 -210 190 -210 210 0
19 190 210 210 210 8 0 59 -44 112 -97z M230 285 c0 -50 4 -85 10 -85 6 0 10
35 10 85 0 50 -4 85 -10 85 -6 0 -10 -35 -10 -85z M227 154 c-13 -13 -7 -24
14 -24 11 0 19 5 17 12 -5 14 -22 21 -31 12z"/>
</g>
</svg>

