<?xml version="1.0" standalone="no"?>
<!DOCTYPE svg PUBLIC "-//W3C//DTD SVG 20010904//EN"
 "http://www.w3.org/TR/2001/REC-SVG-20010904/DTD/svg10.dtd">
<svg version="1.0" xmlns="http://www.w3.org/2000/svg"
 width="48.000000pt" height="48.000000pt" viewBox="0 0 48.000000 48.000000"
 preserveAspectRatio="xMidYMid meet">
<metadata>
Created by potrace 1.16, written by Peter Selinger 2001-2019
</metadata>
<g transform="translate(0.000000,48.000000) scale(0.100000,-0.100000)"
fill="currentColor" stroke="currentColor" stroke-width="6" stroke-linejoin="round">
<path d="M210 451 c0 -12 -10 -21 -27 -26 -76 -19 -122 -90 -123 -190 -1 -33
-7 -77 -14 -98 -11 -29 -11 -39 -2 -43 6 -2 90 -3 186 -2 149 3 175 5 173 18
-7 61 -27 140 -35 140 -10 0 -4 -69 8 -112 5 -17 -7 -18 -156 -18 -109 0 -159
3 -155 10 4 6 10 51 15 101 5 54 15 100 25 115 26 40 75 65 122 62 49 -2 67 8
29 18 -17 4 -26 13 -26 25 0 10 -4 19 -10 19 -5 0 -10 -9 -10 -19z M327 412
c-27 -29 -22 -77 10 -102 64 -50 143 29 93 93 -26 33 -78 37 -103 9z m87 -18
c21 -21 20 -40 -4 -64 -24 -24 -29 -24 -58 -4 -24 17 -29 53 -10 72 17 17 54
15 72 -4z M180 30 c7 -13 21 -20 39 -20 29 0 60 25 46 38 -4 4 -10 1 -12 -5
-6 -15 -49 -17 -58 -3 -12 20 -26 10 -15 -10z"/>
</g>
</svg>

