<?xml version="1.0" standalone="no"?>
<!DOCTYPE svg PUBLIC "-//W3C//DTD SVG 20010904//EN"
 "http://www.w3.org/TR/2001/REC-SVG-20010904/DTD/svg10.dtd">
<svg version="1.0" xmlns="http://www.w3.org/2000/svg"
 width="48.000000pt" height="48.000000pt" viewBox="0 0 48.000000 48.000000"
 preserveAspectRatio="xMidYMid meet">
<metadata>
Created by potrace 1.16, written by Peter Selinger 2001-2019
</metadata>
<g transform="translate(0.000000,48.000000) scale(0.100000,-0.100000)"
fill="currentColor" stroke="none">
<path d="M161 439 c-26 -25 -31 -39 -31 -76 0 -38 5 -50 34 -79 48 -48 104
-48 152 0 22 22 34 44 34 61 0 15 -4 24 -10 20 -5 -3 -10 -14 -10 -24 0 -10
-12 -30 -26 -45 -58 -58 -154 -17 -154 66 0 54 35 88 90 88 22 0 40 5 40 10 0
6 -20 10 -44 10 -36 0 -50 -6 -75 -31z M275 380 c-15 -22 -30 -40 -33 -40 -3
0 -14 7 -24 17 -25 22 -36 8 -13 -17 28 -30 48 -24 83 24 34 47 38 56 23 56
-4 0 -21 -18 -36 -40z M154 201 c-53 -24 -101 -83 -113 -140 -5 -25 -8 -47 -6
-49 10 -10 25 12 25 36 0 36 30 84 76 118 33 25 46 29 104 29 58 0 71 -4 104
-29 46 -34 76 -82 76 -118 0 -24 15 -46 25 -36 2 2 -1 24 -6 49 -26 123 -168
193 -285 140z"/>
</g>
</svg>

