<?xml version="1.0" standalone="no"?>
<!DOCTYPE svg PUBLIC "-//W3C//DTD SVG 20010904//EN"
 "http://www.w3.org/TR/2001/REC-SVG-20010904/DTD/svg10.dtd">
<svg version="1.0" xmlns="http://www.w3.org/2000/svg"
 width="48.000000pt" height="48.000000pt" viewBox="0 0 48.000000 48.000000"
 preserveAspectRatio="xMidYMid meet">
<metadata>
Created by potrace 1.16, written by Peter Selinger 2001-2019
</metadata>
<g transform="translate(0.000000,48.000000) scale(0.100000,-0.100000)"
fill="currentColor" stroke="none">
<path d="M189 455 c-33 -18 -54 -66 -45 -102 11 -41 76 -133 94 -133 18 0 74
75 91 121 14 37 2 76 -31 104 -33 28 -70 31 -109 10z m97 -28 c38 -33 36 -74
-7 -137 -19 -27 -37 -50 -41 -50 -13 0 -78 115 -78 138 0 30 43 72 74 72 14 0
37 -11 52 -23z M230 380 c0 -5 5 -10 10 -10 6 0 10 5 10 10 0 6 -4 10 -10 10
-5 0 -10 -4 -10 -10z M72 203 c-24 -8 -41 -20 -39 -26 2 -7 49 -29 104 -51
l101 -38 103 38 c56 22 104 44 106 50 4 11 -95 50 -104 40 -8 -7 -7 -8 36 -27
l34 -15 -88 -32 -88 -32 -85 32 -85 33 37 16 c71 31 48 40 -32 12z M40 110
c-22 -13 -8 -22 102 -64 l96 -37 99 37 c111 42 125 51 103 64 -21 14 -42 12
-37 -2 2 -8 -27 -25 -81 -45 l-84 -32 -82 32 c-53 20 -81 37 -79 45 5 14 -16
16 -37 2z"/>
</g>
</svg>

