<?xml version="1.0" standalone="no"?>
<!DOCTYPE svg PUBLIC "-//W3C//DTD SVG 20010904//EN"
 "http://www.w3.org/TR/2001/REC-SVG-20010904/DTD/svg10.dtd">
<svg version="1.0" xmlns="http://www.w3.org/2000/svg"
 width="48.000000pt" height="48.000000pt" viewBox="0 0 48.000000 48.000000"
 preserveAspectRatio="xMidYMid meet">
<metadata>
Created by potrace 1.16, written by Peter Selinger 2001-2019
</metadata>
<g transform="translate(0.000000,48.000000) scale(0.100000,-0.100000)"
fill="currentColor" stroke="none">
<path d="M72 470 c-12 -5 -27 -22 -32 -37 -6 -16 -14 -35 -19 -44 -5 -9 -6
-20 -1 -25 5 -5 10 -80 12 -166 4 -200 -2 -192 151 -196 78 -2 120 1 137 10
25 14 40 48 21 48 -6 0 -11 -7 -11 -15 0 -13 -22 -15 -135 -15 l-135 0 0 165
0 164 68 3 c37 2 67 8 67 13 0 6 -30 11 -67 13 -68 3 -68 3 -68 32 l0 30 135
0 134 0 3 -77 c3 -78 20 -107 26 -45 3 30 6 32 39 32 36 0 36 0 18 -20 -29
-32 -8 -36 25 -5 37 36 37 44 0 80 -33 31 -54 27 -25 -5 18 -20 18 -20 -17
-20 -31 0 -36 4 -44 32 -6 19 -20 38 -34 45 -29 15 -213 17 -248 3z M141 195
c-26 -68 -28 -101 -4 -67 21 29 68 30 76 1 3 -12 10 -18 16 -15 15 10 -30 130
-51 134 -12 2 -22 -12 -37 -53z m42 -23 c-21 -5 -25 2 -17 34 l7 29 13 -30
c10 -25 10 -31 -3 -33z M270 179 c0 -44 4 -68 10 -64 6 3 10 15 10 26 0 13 7
19 24 19 27 0 56 24 56 45 0 24 -31 45 -66 45 l-34 0 0 -71z m75 26 c0 -14 -8
-21 -27 -23 -24 -3 -28 0 -28 23 0 23 4 26 28 23 19 -2 27 -9 27 -23z M400
240 c0 -5 5 -10 10 -10 6 0 10 -22 10 -50 0 -27 -4 -50 -10 -50 -5 0 -10 -4
-10 -10 0 -5 16 -10 35 -10 19 0 35 5 35 10 0 6 -4 10 -10 10 -5 0 -10 23 -10
50 0 28 5 50 10 50 6 0 10 5 10 10 0 6 -16 10 -35 10 -19 0 -35 -4 -35 -10z"/>
</g>
</svg>

