<?xml version="1.0" standalone="no"?>
<!DOCTYPE svg PUBLIC "-//W3C//DTD SVG 20010904//EN"
 "http://www.w3.org/TR/2001/REC-SVG-20010904/DTD/svg10.dtd">
<svg version="1.0" xmlns="http://www.w3.org/2000/svg"
 width="48.000000pt" height="48.000000pt" viewBox="0 0 48.000000 48.000000"
 preserveAspectRatio="xMidYMid meet">
<metadata>
Created by potrace 1.16, written by Peter Selinger 2001-2019
</metadata>
<g transform="translate(0.000000,48.000000) scale(0.100000,-0.100000)"
fill="currentColor" stroke="none">
<path d="M222 454 c-31 -22 -52 -66 -52 -113 0 -41 -20 -71 -46 -71 -8 0 -14
-4 -14 -10 0 -13 16 -13 41 1 16 8 25 5 47 -19 50 -53 117 -54 167 -2 23 24
31 27 47 19 11 -6 27 -8 36 -4 13 5 10 9 -15 20 -28 12 -33 19 -33 49 0 49
-27 112 -55 130 -31 20 -94 20 -123 0z m46 -30 c-2 -20 -12 -29 -40 -39 -32
-11 -36 -10 -31 4 9 25 45 61 60 61 10 0 13 -9 11 -26z m77 1 c30 -29 32 -48
5 -41 -11 3 -29 9 -40 12 -13 3 -20 14 -20 30 0 31 24 31 55 -1z m-7 -61 l37
-15 -29 -16 c-32 -17 -119 -14 -138 5 -9 9 -2 15 23 26 44 19 61 19 107 0z
m-58 -59 c30 0 66 4 78 8 22 8 23 7 17 -15 -4 -12 -20 -36 -37 -52 -26 -24
-37 -27 -67 -22 -40 6 -81 45 -81 78 0 16 4 18 18 12 9 -5 42 -9 72 -9z M64
221 c-33 -14 -54 -51 -54 -94 0 -71 78 -120 139 -87 14 7 23 5 36 -10 10 -11
25 -20 33 -20 11 0 8 8 -11 28 -19 20 -24 31 -17 42 18 28 11 87 -12 115 -25
28 -79 40 -114 26z m90 -32 c37 -29 37 -89 0 -118 -56 -44 -124 -10 -124 60 0
42 35 79 75 79 12 0 34 -9 49 -21z M236 171 c-3 -5 7 -19 23 -30 28 -20 28
-20 46 -1 12 13 31 20 57 20 36 0 49 -12 28 -25 -6 -4 2 -20 20 -41 16 -19 33
-46 36 -59 3 -14 10 -25 15 -25 19 0 8 38 -22 80 -22 30 -28 45 -20 53 6 6 11
17 11 24 0 19 -95 17 -126 -3 -23 -15 -26 -15 -43 0 -11 10 -21 13 -25 7z
M270 70 c0 -13 5 -20 13 -17 6 2 12 10 12 17 0 7 -6 15 -12 18 -8 2 -13 -5
-13 -18z"/>
</g>
</svg>

