<?xml version="1.0" standalone="no"?>
<!DOCTYPE svg PUBLIC "-//W3C//DTD SVG 20010904//EN"
 "http://www.w3.org/TR/2001/REC-SVG-20010904/DTD/svg10.dtd">
<svg version="1.0" xmlns="http://www.w3.org/2000/svg"
 width="48.000000pt" height="48.000000pt" viewBox="0 0 48.000000 48.000000"
 preserveAspectRatio="xMidYMid meet">
<metadata>
Created by potrace 1.16, written by Peter Selinger 2001-2019
</metadata>
<g transform="translate(0.000000,48.000000) scale(0.100000,-0.100000)"
fill="currentColor" stroke="none">
<path d="M208 447 c-56 -52 -62 -156 -12 -208 52 -54 137 -47 175 15 37 60 19
164 -33 200 -34 24 -100 21 -130 -7z m62 -20 c0 -19 -9 -28 -40 -40 -35 -13
-40 -13 -40 -1 0 20 45 64 65 64 9 0 15 -9 15 -23z m67 1 c11 -13 23 -30 26
-39 5 -14 1 -15 -31 -4 -28 10 -38 19 -40 39 -4 33 17 34 45 4z m-10 -63 c27
-11 34 -18 25 -27 -19 -19 -106 -22 -138 -5 l-29 16 35 15 c45 19 62 20 107 1z
m-47 -60 c30 0 63 4 73 9 25 12 23 -24 -3 -57 -43 -55 -136 -40 -159 24 -14
42 -15 42 12 32 12 -4 47 -8 77 -8z M64 221 c-33 -14 -54 -51 -54 -94 0 -72
78 -120 142 -86 16 9 24 7 44 -12 13 -12 26 -20 29 -17 3 2 -4 13 -15 23 -17
15 -19 26 -13 74 5 50 3 60 -18 84 -26 30 -80 43 -115 28z m90 -32 c54 -42 21
-139 -48 -139 -71 0 -105 96 -50 139 15 12 37 21 49 21 12 0 34 -9 49 -21z
M236 171 c-3 -5 7 -19 23 -30 28 -20 28 -20 46 -1 12 13 31 20 57 20 36 0 49
-12 28 -25 -6 -4 2 -20 20 -41 16 -19 33 -46 36 -59 3 -14 10 -25 15 -25 19 0
8 38 -22 80 -22 30 -28 45 -20 53 6 6 11 17 11 24 0 20 -109 17 -132 -4 -17
-15 -19 -15 -37 1 -11 10 -21 13 -25 7z M270 65 c0 -8 7 -15 15 -15 8 0 15 7
15 15 0 8 -7 15 -15 15 -8 0 -15 -7 -15 -15z"/>
</g>
</svg>

