<?xml version="1.0" standalone="no"?>
<!DOCTYPE svg PUBLIC "-//W3C//DTD SVG 20010904//EN"
 "http://www.w3.org/TR/2001/REC-SVG-20010904/DTD/svg10.dtd">
<svg version="1.0" xmlns="http://www.w3.org/2000/svg"
 width="48.000000pt" height="48.000000pt" viewBox="0 0 48.000000 48.000000"
 preserveAspectRatio="xMidYMid meet">
<metadata>
Created by potrace 1.16, written by Peter Selinger 2001-2019
</metadata>
<g transform="translate(0.000000,48.000000) scale(0.100000,-0.100000)"
fill="currentColor" stroke="currentColor" stroke-width="6" stroke-linejoin="round">
<path d="M92 393 c-40 -20 -82 -72 -82 -102 0 -28 43 -68 82 -76 l30 -7 -28
-29 c-18 -19 -38 -29 -56 -29 -15 0 -28 -4 -28 -10 0 -6 52 -10 135 -10 83 0
135 4 135 10 0 6 -16 10 -35 10 l-36 0 23 30 c16 23 30 30 55 30 18 0 33 5 33
10 0 6 -15 10 -33 10 -20 0 -39 8 -50 20 -17 20 -47 27 -47 11 0 -5 9 -11 20
-14 50 -13 -11 -97 -71 -97 -36 0 -37 9 -4 40 33 31 32 40 -7 40 -42 0 -98 34
-98 59 0 27 45 77 80 90 28 9 32 8 40 -14 9 -24 10 -24 44 -10 20 8 61 15 93
15 104 0 163 -58 163 -162 0 -45 -5 -62 -22 -82 -29 -32 -67 -41 -92 -23 -26
19 -13 57 20 57 13 0 24 5 24 10 0 17 -46 11 -63 -8 -25 -27 -21 -59 9 -79 23
-15 30 -15 67 -2 52 18 78 60 79 127 0 62 -25 115 -70 150 -27 20 -49 27 -98
30 -35 2 -78 -1 -95 -7 -28 -10 -35 -8 -51 9 -22 24 -24 24 -66 3z M97 324
c-9 -10 2 -24 19 -24 8 0 14 7 14 15 0 15 -21 21 -33 9z"/>
</g>
</svg>

