<?xml version="1.0" standalone="no"?>
<!DOCTYPE svg PUBLIC "-//W3C//DTD SVG 20010904//EN"
 "http://www.w3.org/TR/2001/REC-SVG-20010904/DTD/svg10.dtd">
<svg version="1.0" xmlns="http://www.w3.org/2000/svg"
 width="48.000000pt" height="48.000000pt" viewBox="0 0 48.000000 48.000000"
 preserveAspectRatio="xMidYMid meet">
<metadata>
Created by potrace 1.16, written by Peter Selinger 2001-2019
</metadata>
<g transform="translate(0.000000,48.000000) scale(0.100000,-0.100000)"
fill="currentColor" stroke="none">
<path d="M20 400 c-18 -18 -20 -33 -20 -160 0 -192 -16 -180 240 -180 256 0
240 -12 240 180 0 192 16 180 -240 180 -187 0 -201 -1 -220 -20z m430 -160 l0
-150 -210 0 -210 0 0 150 0 150 210 0 210 0 0 -150z M356 260 c-21 -33 -41
-60 -45 -60 -4 0 -18 11 -31 25 l-24 25 -28 -27 c-15 -14 -29 -25 -31 -22 -2
2 -14 23 -27 47 -13 23 -28 41 -34 39 -16 -5 -68 -96 -63 -109 2 -7 17 9 34
35 l30 49 28 -47 27 -47 27 26 c34 32 38 32 72 0 l27 -26 41 61 c46 67 58 91
45 91 -5 0 -26 -27 -48 -60z"/>
</g>
</svg>

