<?xml version="1.0" standalone="no"?>
<!DOCTYPE svg PUBLIC "-//W3C//DTD SVG 20010904//EN"
 "http://www.w3.org/TR/2001/REC-SVG-20010904/DTD/svg10.dtd">
<svg version="1.0" xmlns="http://www.w3.org/2000/svg"
 width="48.000000pt" height="48.000000pt" viewBox="0 0 48.000000 48.000000"
 preserveAspectRatio="xMidYMid meet">
<metadata>
Created by potrace 1.16, written by Peter Selinger 2001-2019
</metadata>
<g transform="translate(0.000000,48.000000) scale(0.100000,-0.100000)"
fill="currentColor" stroke="none">
<path d="M401 448 c-5 -13 -18 -31 -29 -41 -44 -40 -159 -44 -169 -6 -10 35
-73 35 -73 0 0 -21 -67 -86 -97 -96 -30 -8 -33 -61 -4 -70 32 -10 51 5 51 39
0 22 9 40 28 58 23 22 35 25 90 24 54 -1 66 -5 81 -24 24 -33 65 -27 69 10 4
32 45 61 87 62 27 1 30 4 30 31 0 25 -4 30 -27 33 -22 3 -30 -2 -37 -20z m49
-13 c0 -8 -7 -15 -15 -15 -8 0 -15 7 -15 15 0 8 7 15 15 15 8 0 15 -7 15 -15z
m-270 -45 c0 -11 -7 -20 -15 -20 -8 0 -15 9 -15 20 0 11 7 20 15 20 8 0 15 -9
15 -20z m150 -45 c0 -8 -7 -15 -15 -15 -8 0 -15 7 -15 15 0 8 7 15 15 15 8 0
15 -7 15 -15z m-270 -75 c0 -11 -7 -20 -15 -20 -8 0 -15 9 -15 20 0 11 7 20
15 20 8 0 15 -9 15 -20z M196 264 c-13 -12 -16 -39 -16 -125 0 -90 -3 -109
-15 -109 -11 0 -15 11 -15 39 0 47 -20 71 -60 71 -39 0 -60 -24 -60 -70 0 -21
-5 -42 -10 -45 -31 -19 21 -25 220 -25 199 0 251 6 220 25 -5 3 -10 37 -10 75
0 78 -13 100 -60 100 -47 0 -60 -22 -60 -101 0 -55 -3 -69 -15 -69 -12 0 -15
19 -15 109 0 121 -8 141 -60 141 -16 0 -36 -7 -44 -16z m74 -124 l0 -110 -30
0 -30 0 0 110 0 110 30 0 30 0 0 -110z m150 -40 l0 -70 -30 0 -30 0 0 70 0 70
30 0 30 0 0 -70z m-300 -30 c0 -38 -2 -40 -30 -40 -28 0 -30 2 -30 40 0 38 2
40 30 40 28 0 30 -2 30 -40z"/>
</g>
</svg>

