<?xml version="1.0" standalone="no"?>
<!DOCTYPE svg PUBLIC "-//W3C//DTD SVG 20010904//EN"
 "http://www.w3.org/TR/2001/REC-SVG-20010904/DTD/svg10.dtd">
<svg version="1.0" xmlns="http://www.w3.org/2000/svg"
 width="48.000000pt" height="48.000000pt" viewBox="0 0 48.000000 48.000000"
 preserveAspectRatio="xMidYMid meet">
<metadata>
Created by potrace 1.16, written by Peter Selinger 2001-2019
</metadata>
<g transform="translate(0.000000,48.000000) scale(0.100000,-0.100000)"
fill="currentColor" stroke="none">
<path d="M196 434 c-13 -13 -16 -45 -16 -195 0 -152 -2 -179 -15 -179 -12 0
-15 17 -15 89 0 100 -10 121 -60 121 -49 0 -60 -21 -60 -120 0 -49 -5 -92 -10
-95 -31 -19 21 -25 220 -25 199 0 251 6 220 25 -6 4 -10 60 -10 140 0 147 -6
165 -60 165 -54 0 -60 -17 -60 -166 0 -112 -2 -134 -15 -134 -13 0 -15 27 -15
179 0 198 -4 211 -60 211 -16 0 -36 -7 -44 -16z m74 -194 l0 -180 -30 0 -30 0
0 180 0 180 30 0 30 0 0 -180z m150 -45 l0 -135 -30 0 -30 0 0 135 0 135 30 0
30 0 0 -135z m-300 -45 l0 -90 -30 0 -30 0 0 90 0 90 30 0 30 0 0 -90z"/>
</g>
</svg>

