<?xml version="1.0" standalone="no"?>
<!DOCTYPE svg PUBLIC "-//W3C//DTD SVG 20010904//EN"
 "http://www.w3.org/TR/2001/REC-SVG-20010904/DTD/svg10.dtd">
<svg version="1.0" xmlns="http://www.w3.org/2000/svg"
 width="48.000000pt" height="48.000000pt" viewBox="0 0 48.000000 48.000000"
 preserveAspectRatio="xMidYMid meet">
<metadata>
Created by potrace 1.16, written by Peter Selinger 2001-2019
</metadata>
<g transform="translate(0.000000,48.000000) scale(0.100000,-0.100000)"
fill="currentColor" stroke="none">
<path d="M340 451 c-16 -31 -13 -403 4 -426 18 -25 74 -25 92 0 17 23 20 395
4 426 -8 14 -21 19 -50 19 -29 0 -42 -5 -50 -19z m80 -16 c0 -10 -10 -15 -30
-15 -20 0 -30 5 -30 15 0 10 10 15 30 15 20 0 30 -5 30 -15z m0 -219 c0 -154
-2 -185 -15 -190 -8 -3 -22 -3 -30 0 -13 5 -15 36 -15 190 l0 184 30 0 30 0 0
-184z M190 361 c-16 -31 -13 -313 4 -336 18 -25 74 -25 92 0 17 23 20 305 4
336 -8 14 -21 19 -50 19 -29 0 -42 -5 -50 -19z m80 -16 c0 -10 -10 -15 -30
-15 -20 0 -30 5 -30 15 0 10 10 15 30 15 20 0 30 -5 30 -15z m0 -174 c0 -114
-3 -140 -15 -145 -40 -15 -45 0 -45 145 l0 139 30 0 30 0 0 -139z M40 271
c-15 -30 -13 -223 4 -246 18 -25 74 -25 92 0 17 23 19 216 4 246 -15 27 -85
27 -100 0z m80 -16 c0 -10 -10 -15 -30 -15 -20 0 -30 5 -30 15 0 10 10 15 30
15 20 0 30 -5 30 -15z m0 -129 c0 -74 -3 -95 -15 -100 -37 -14 -45 3 -45 100
l0 94 30 0 30 0 0 -94z"/>
</g>
</svg>

