<?xml version="1.0" standalone="no"?>
<!DOCTYPE svg PUBLIC "-//W3C//DTD SVG 20010904//EN"
 "http://www.w3.org/TR/2001/REC-SVG-20010904/DTD/svg10.dtd">
<svg version="1.0" xmlns="http://www.w3.org/2000/svg"
 width="48.000000pt" height="48.000000pt" viewBox="0 0 48.000000 48.000000"
 preserveAspectRatio="xMidYMid meet">
<metadata>
Created by potrace 1.16, written by Peter Selinger 2001-2019
</metadata>
<g transform="translate(0.000000,48.000000) scale(0.100000,-0.100000)"
fill="currentColor" stroke="currentColor" stroke-width="6" stroke-linejoin="round">
<path d="M145 451 c-3 -10 -4 -23 -3 -29 2 -5 -14 -32 -35 -60 -25 -34 -47
-51 -67 -56 -25 -5 -30 -10 -30 -35 0 -31 20 -45 51 -36 13 4 19 16 19 34 0
44 73 127 118 135 45 7 202 -38 202 -59 0 -17 31 -28 54 -19 24 9 21 61 -4 69
-10 3 -27 2 -37 -3 -27 -14 -191 35 -198 59 -9 26 -61 26 -70 0z m55 -16 c0
-8 -9 -15 -20 -15 -11 0 -20 7 -20 15 0 8 9 15 20 15 11 0 20 -7 20 -15z m250
-75 c0 -11 -7 -20 -15 -20 -8 0 -15 9 -15 20 0 11 7 20 15 20 8 0 15 -9 15
-20z m-390 -90 c0 -11 -7 -20 -15 -20 -8 0 -15 9 -15 20 0 11 7 20 15 20 8 0
15 -9 15 -20z M196 304 c-13 -12 -16 -41 -16 -145 0 -108 -2 -129 -15 -129
-11 0 -15 12 -15 49 0 57 -18 81 -60 81 -42 0 -60 -24 -60 -80 0 -27 -5 -52
-10 -55 -31 -19 21 -25 220 -25 199 0 251 6 220 25 -5 3 -10 42 -10 85 0 88
-12 110 -60 110 -48 0 -60 -22 -60 -111 0 -64 -3 -79 -15 -79 -13 0 -15 21
-15 129 0 143 -7 161 -60 161 -16 0 -36 -7 -44 -16z m74 -144 l0 -130 -30 0
-30 0 0 130 0 130 30 0 30 0 0 -130z m150 -50 l0 -80 -30 0 -30 0 0 80 0 80
30 0 30 0 0 -80z m-300 -30 c0 -49 -1 -50 -30 -50 -29 0 -30 1 -30 50 0 49 1
50 30 50 29 0 30 -1 30 -50z"/>
</g>
</svg>

