<?xml version="1.0" standalone="no"?>
<!DOCTYPE svg PUBLIC "-//W3C//DTD SVG 20010904//EN"
 "http://www.w3.org/TR/2001/REC-SVG-20010904/DTD/svg10.dtd">
<svg version="1.0" xmlns="http://www.w3.org/2000/svg"
 width="48.000000pt" height="48.000000pt" viewBox="0 0 48.000000 48.000000"
 preserveAspectRatio="xMidYMid meet">
<metadata>
Created by potrace 1.16, written by Peter Selinger 2001-2019
</metadata>
<g transform="translate(0.000000,48.000000) scale(0.100000,-0.100000)"
fill="currentColor" stroke="currentColor" stroke-width="6" stroke-linejoin="round">
<path d="M6 463 c-3 -3 -6 -104 -6 -223 0 -173 3 -220 14 -229 18 -15 451 -11
451 4 0 6 -81 11 -217 13 l-218 2 0 25 0 25 179 0 c200 0 211 3 211 65 0 53
-20 65 -106 65 l-74 0 0 35 c0 30 3 35 24 35 34 0 56 25 56 65 0 59 -15 65
-161 65 l-129 0 0 24 c0 26 -12 40 -24 29z m284 -118 l0 -35 -130 0 -130 0 0
35 0 35 130 0 130 0 0 -35z m-80 -100 l0 -35 -90 0 -90 0 0 35 0 35 90 0 90 0
0 -35z m180 -100 l0 -35 -180 0 -180 0 0 35 0 35 180 0 180 0 0 -35z"/>
</g>
</svg>

