<?xml version="1.0" standalone="no"?>
<!DOCTYPE svg PUBLIC "-//W3C//DTD SVG 20010904//EN"
 "http://www.w3.org/TR/2001/REC-SVG-20010904/DTD/svg10.dtd">
<svg version="1.0" xmlns="http://www.w3.org/2000/svg"
 width="48.000000pt" height="48.000000pt" viewBox="0 0 48.000000 48.000000"
 preserveAspectRatio="xMidYMid meet">
<metadata>
Created by potrace 1.16, written by Peter Selinger 2001-2019
</metadata>
<g transform="translate(0.000000,48.000000) scale(0.100000,-0.100000)"
fill="currentColor" stroke="none">
<path d="M262 373 l3 -98 95 0 95 0 -1 37 c-2 76 -87 158 -164 158 l-31 0 3
-97z m98 54 c34 -22 62 -62 75 -104 6 -23 5 -23 -74 -23 l-81 0 0 75 c0 72 1
75 24 75 12 0 38 -10 56 -23z M117 359 c-91 -48 -123 -179 -64 -267 50 -76
153 -105 238 -67 21 10 39 21 39 25 0 5 -25 40 -55 78 l-55 71 0 90 0 91 -32
0 c-18 -1 -50 -10 -71 -21z m83 -88 c0 -50 4 -92 9 -95 4 -3 28 -31 52 -62 41
-54 42 -57 24 -70 -31 -23 -126 -18 -166 9 -39 26 -79 97 -79 142 0 71 77 165
136 165 23 0 24 -2 24 -89z M265 230 c-3 -6 22 -44 56 -86 l63 -77 27 31 c31
34 55 102 46 126 -5 13 -24 16 -96 16 -49 0 -93 -5 -96 -10z m170 -47 c-3 -15
-16 -40 -27 -56 l-22 -30 -33 39 c-63 73 -63 74 18 74 l71 0 -7 -27z"/>
</g>
</svg>

