<?xml version="1.0" standalone="no"?>
<!DOCTYPE svg PUBLIC "-//W3C//DTD SVG 20010904//EN"
 "http://www.w3.org/TR/2001/REC-SVG-20010904/DTD/svg10.dtd">
<svg version="1.0" xmlns="http://www.w3.org/2000/svg"
 width="48.000000pt" height="48.000000pt" viewBox="0 0 48.000000 48.000000"
 preserveAspectRatio="xMidYMid meet">
<metadata>
Created by potrace 1.16, written by Peter Selinger 2001-2019
</metadata>
<g transform="translate(0.000000,48.000000) scale(0.100000,-0.100000)"
fill="currentColor" stroke="none">
<path d="M117 372 c-101 -102 -120 -135 -106 -186 18 -62 90 -106 143 -87 36
14 33 24 -6 19 -72 -11 -118 30 -118 103 0 39 6 47 93 135 77 78 98 94 123 94
38 0 64 -27 64 -65 0 -21 -19 -47 -82 -111 -80 -82 -112 -100 -125 -68 -4 11
20 41 77 99 45 45 78 85 73 88 -12 7 -173 -155 -173 -172 0 -7 5 -21 10 -32
21 -38 52 -22 148 74 81 82 92 96 92 128 0 46 -33 79 -81 79 -30 0 -46 -12
-132 -98z M312 263 c-13 -2 -38 -20 -57 -39 -30 -29 -35 -42 -35 -80 0 -83 47
-134 125 -134 76 0 128 54 127 133 -1 80 -76 136 -160 120z m116 -58 c34 -40
31 -108 -7 -146 -24 -24 -38 -29 -76 -29 -38 0 -52 5 -76 29 -56 57 -31 159
44 179 42 11 87 -2 115 -33z M334 181 c-5 -24 -12 -31 -30 -31 -13 0 -24 -4
-24 -10 0 -5 11 -10 24 -10 19 0 25 -6 28 -27 2 -16 8 -28 13 -28 6 0 11 12
13 28 3 21 9 27 28 27 13 0 24 5 24 10 0 6 -11 10 -25 10 -20 0 -25 5 -25 24
0 37 -19 42 -26 7z"/>
</g>
</svg>

