<?xml version="1.0" standalone="no"?>
<!DOCTYPE svg PUBLIC "-//W3C//DTD SVG 20010904//EN"
 "http://www.w3.org/TR/2001/REC-SVG-20010904/DTD/svg10.dtd">
<svg version="1.0" xmlns="http://www.w3.org/2000/svg"
 width="48.000000pt" height="48.000000pt" viewBox="0 0 48.000000 48.000000"
 preserveAspectRatio="xMidYMid meet">
<metadata>
Created by potrace 1.16, written by Peter Selinger 2001-2019
</metadata>
<g transform="translate(0.000000,48.000000) scale(0.100000,-0.100000)"
fill="currentColor" stroke="currentColor" stroke-width="6" stroke-linejoin="round">
<path d="M157 473 c-22 -6 -37 -42 -37 -91 0 -58 8 -76 46 -101 19 -13 34 -27
34 -32 0 -5 -15 -15 -34 -23 -39 -16 -45 -30 -42 -104 1 -53 20 -82 52 -82 6
0 17 -7 24 -15 16 -19 64 -19 80 0 7 8 18 15 24 15 32 0 51 29 52 82 3 74 -3
88 -42 104 -19 8 -34 18 -34 23 0 5 16 19 35 32 24 16 37 34 41 57 8 41 -1
111 -16 126 -11 11 -151 19 -183 9z m73 -119 l0 -95 -40 28 c-39 28 -40 28
-40 96 l0 67 40 0 40 0 0 -96z m100 29 c0 -68 -1 -68 -40 -96 l-40 -28 0 95 0
96 40 0 40 0 0 -67z m-60 -157 c6 -8 21 -16 32 -18 29 -4 46 -33 32 -56 -8
-12 -8 -22 0 -35 14 -22 -3 -51 -32 -55 -11 -2 -26 -10 -32 -18 -16 -18 -44
-18 -60 0 -6 8 -21 16 -32 18 -29 4 -46 33 -32 56 8 12 8 22 0 35 -14 22 3 51
32 55 11 2 26 10 32 18 7 8 20 14 30 14 10 0 23 -6 30 -14z M225 141 c-7 -12
12 -24 25 -16 11 7 4 25 -10 25 -5 0 -11 -4 -15 -9z"/>
</g>
</svg>

