<?xml version="1.0" standalone="no"?>
<!DOCTYPE svg PUBLIC "-//W3C//DTD SVG 20010904//EN"
 "http://www.w3.org/TR/2001/REC-SVG-20010904/DTD/svg10.dtd">
<svg version="1.0" xmlns="http://www.w3.org/2000/svg"
 width="48.000000pt" height="48.000000pt" viewBox="0 0 48.000000 48.000000"
 preserveAspectRatio="xMidYMid meet">
<metadata>
Created by potrace 1.16, written by Peter Selinger 2001-2019
</metadata>
<g transform="translate(0.000000,48.000000) scale(0.100000,-0.100000)"
fill="currentColor" stroke="none">
<path d="M149 447 c-18 -12 -44 -38 -57 -57 -21 -31 -23 -43 -19 -107 4 -71 3
-74 -30 -112 -18 -22 -33 -44 -33 -49 0 -6 17 -14 37 -19 31 -7 38 -14 51 -51
7 -23 18 -42 22 -42 5 0 25 27 46 60 34 56 39 60 74 60 35 0 40 -4 74 -60 21
-33 41 -60 46 -60 4 0 15 19 22 42 13 37 20 44 51 51 20 5 37 13 37 19 0 5
-15 27 -33 49 -33 38 -34 41 -30 112 4 64 2 76 -19 107 -38 56 -82 80 -148 80
-43 0 -65 -6 -91 -23z m198 -39 c31 -31 37 -45 41 -91 5 -60 -9 -96 -53 -137
-23 -22 -36 -25 -95 -25 -59 0 -72 3 -95 25 -44 41 -58 77 -53 137 4 42 11 60
34 84 40 42 59 49 127 46 51 -3 62 -7 94 -39z m-177 -270 c9 -3 3 -19 -17 -51
l-30 -48 -15 41 c-13 32 -21 40 -42 40 -32 0 -32 5 0 47 l26 34 33 -29 c18
-17 39 -32 45 -34z m270 -10 c0 -4 -12 -8 -26 -8 -21 0 -29 -8 -42 -40 l-15
-41 -30 48 c-21 33 -26 48 -17 51 7 3 27 17 44 33 l31 29 28 -32 c15 -18 27
-36 27 -40z M215 386 c-9 -13 -29 -26 -45 -30 -35 -7 -38 -21 -10 -51 18 -19
19 -26 9 -49 -19 -40 1 -56 41 -33 29 17 31 17 60 0 40 -23 60 -7 41 33 -10
23 -9 30 9 49 28 30 25 44 -10 51 -16 4 -36 17 -45 30 -8 13 -20 24 -25 24 -5
0 -17 -11 -25 -24z m40 -26 c3 -11 17 -23 31 -26 23 -6 24 -7 8 -25 -13 -15
-14 -24 -6 -49 l11 -30 -30 15 c-26 14 -32 14 -58 0 l-30 -15 11 30 c8 25 7
34 -6 49 -16 18 -15 19 8 25 14 3 28 15 31 26 3 11 10 20 15 20 5 0 12 -9 15
-20z"/>
</g>
</svg>

