<?xml version="1.0" standalone="no"?>
<!DOCTYPE svg PUBLIC "-//W3C//DTD SVG 20010904//EN"
 "http://www.w3.org/TR/2001/REC-SVG-20010904/DTD/svg10.dtd">
<svg version="1.0" xmlns="http://www.w3.org/2000/svg"
 width="48.000000pt" height="48.000000pt" viewBox="0 0 48.000000 48.000000"
 preserveAspectRatio="xMidYMid meet">
<metadata>
Created by potrace 1.16, written by Peter Selinger 2001-2019
</metadata>
<g transform="translate(0.000000,48.000000) scale(0.100000,-0.100000)"
fill="currentColor" stroke="currentColor" stroke-width="6" stroke-linejoin="round">
<path d="M37 473 c-19 -5 -41 -49 -31 -64 8 -14 24 0 24 21 0 11 8 20 20 22
12 2 21 7 21 13 1 12 -10 14 -34 8z M377 474 c-10 -11 3 -24 23 -24 12 0 20
-8 22 -22 2 -13 8 -21 13 -18 11 5 9 40 -3 51 -12 11 -48 20 -55 13z M65 368
c-9 -24 -1 -143 10 -143 13 0 19 135 6 148 -7 7 -12 5 -16 -5z M125 368 c-9
-23 -2 -83 10 -83 14 0 19 75 6 88 -7 7 -12 5 -16 -5z M185 368 c-9 -23 -2
-83 10 -83 14 0 19 75 6 88 -7 7 -12 5 -16 -5z M244 367 c-7 -20 -2 -47 11
-50 14 -3 19 43 6 56 -7 7 -12 6 -17 -6z M304 366 c-8 -21 3 -49 16 -41 5 3
10 15 10 25 0 25 -18 36 -26 16z M364 367 c-7 -20 -2 -47 11 -50 14 -3 19 43
6 56 -7 7 -12 6 -17 -6z M258 264 c-15 -8 -35 -28 -43 -44 -51 -99 48 -205
150 -158 23 10 29 8 60 -22 45 -44 59 -30 15 15 -30 31 -32 37 -22 60 47 102
-62 203 -160 149z m126 -34 c30 -30 29 -102 -2 -132 -29 -30 -100 -32 -131 -4
-45 40 -34 126 19 154 33 17 88 8 114 -18z M135 231 c-7 -12 12 -24 25 -16 11
7 4 25 -10 25 -5 0 -11 -4 -15 -9z M6 191 c-18 -28 38 -82 66 -65 13 8 -1 24
-23 24 -12 0 -19 7 -19 19 0 22 -16 36 -24 22z"/>
</g>
</svg>

