<?xml version="1.0" standalone="no"?>
<!DOCTYPE svg PUBLIC "-//W3C//DTD SVG 20010904//EN"
 "http://www.w3.org/TR/2001/REC-SVG-20010904/DTD/svg10.dtd">
<svg version="1.0" xmlns="http://www.w3.org/2000/svg"
 width="48.000000pt" height="48.000000pt" viewBox="0 0 48.000000 48.000000"
 preserveAspectRatio="xMidYMid meet">
<metadata>
Created by potrace 1.16, written by Peter Selinger 2001-2019
</metadata>
<g transform="translate(0.000000,48.000000) scale(0.100000,-0.100000)"
fill="currentColor" stroke="none">
<path d="M27 474 c-11 -11 -8 -74 3 -74 6 0 10 11 10 24 0 19 6 25 28 28 15 2
27 8 27 13 0 12 -57 19 -68 9z M387 474 c-11 -12 3 -24 29 -24 19 0 24 -5 24
-25 0 -14 5 -25 11 -25 6 0 9 16 7 38 -3 33 -6 37 -33 40 -17 2 -34 0 -38 -4z
M110 225 c0 -57 4 -95 10 -95 6 0 10 38 10 95 0 57 -4 95 -10 95 -6 0 -10 -38
-10 -95z M170 270 c0 -27 5 -50 10 -50 6 0 10 23 10 50 0 28 -4 50 -10 50 -5
0 -10 -22 -10 -50z M230 270 c0 -27 5 -50 10 -50 6 0 10 23 10 50 0 28 -4 50
-10 50 -5 0 -10 -22 -10 -50z M290 270 c0 -27 5 -50 10 -50 6 0 10 23 10 50 0
28 -4 50 -10 50 -5 0 -10 -22 -10 -50z M350 225 c0 -57 4 -95 10 -95 6 0 10
38 10 95 0 57 -4 95 -10 95 -6 0 -10 -38 -10 -95z M175 170 c-3 -5 0 -13 8
-16 23 -9 122 0 122 11 0 14 -122 19 -130 5z M22 43 c3 -36 5 -38 36 -38 38 0
44 19 7 23 -19 3 -25 9 -25 28 0 13 -5 24 -11 24 -6 0 -9 -16 -7 -37z M440 56
c0 -19 -6 -25 -27 -28 -39 -4 -30 -23 10 -23 30 0 32 2 35 38 2 21 -1 37 -7
37 -6 0 -11 -11 -11 -24z"/>
</g>
</svg>

