<?xml version="1.0" standalone="no"?>
<!DOCTYPE svg PUBLIC "-//W3C//DTD SVG 20010904//EN"
 "http://www.w3.org/TR/2001/REC-SVG-20010904/DTD/svg10.dtd">
<svg version="1.0" xmlns="http://www.w3.org/2000/svg"
 width="48.000000pt" height="48.000000pt" viewBox="0 0 48.000000 48.000000"
 preserveAspectRatio="xMidYMid meet">
<metadata>
Created by potrace 1.16, written by Peter Selinger 2001-2019
</metadata>
<g transform="translate(0.000000,48.000000) scale(0.100000,-0.100000)"
fill="currentColor" stroke="currentColor" stroke-width="6" stroke-linejoin="round">
<path d="M73 465 c-52 -22 -69 -78 -37 -123 12 -18 13 -29 5 -55 -12 -40 -35
-267 -27 -275 11 -11 14 4 26 123 7 66 18 136 24 156 11 31 10 39 -6 59 -36
44 -10 100 47 100 39 0 52 -14 33 -37 -12 -15 -10 -16 12 -8 32 11 148 11 180
0 22 -8 24 -7 12 8 -19 23 -6 37 33 37 57 0 83 -56 47 -100 -16 -20 -17 -28
-6 -59 6 -20 17 -90 24 -156 12 -119 15 -134 26 -123 7 8 -14 235 -27 274 -7
23 -5 38 7 62 31 63 -9 126 -78 124 -16 0 -37 -7 -47 -15 -18 -17 -138 -21
-156 -7 -27 22 -62 28 -92 15z M160 295 c0 -8 7 -15 15 -15 8 0 15 7 15 15 0
8 -7 15 -15 15 -8 0 -15 -7 -15 -15z M290 295 c0 -8 7 -15 15 -15 8 0 15 7 15
15 0 8 -7 15 -15 15 -8 0 -15 -7 -15 -15z M192 228 c-12 -16 1 -53 24 -66 20
-11 12 -42 -11 -42 -8 0 -15 -4 -15 -9 0 -5 23 -9 50 -9 51 0 67 11 30 21 -24
6 -27 32 -5 41 21 8 35 48 23 64 -6 6 -27 12 -48 12 -21 0 -42 -6 -48 -12z
m76 -30 c-6 -17 -50 -17 -55 0 -3 8 6 12 27 12 21 0 30 -4 28 -12z"/>
</g>
</svg>

