<?xml version="1.0" standalone="no"?>
<!DOCTYPE svg PUBLIC "-//W3C//DTD SVG 20010904//EN"
 "http://www.w3.org/TR/2001/REC-SVG-20010904/DTD/svg10.dtd">
<svg version="1.0" xmlns="http://www.w3.org/2000/svg"
 width="48.000000pt" height="48.000000pt" viewBox="0 0 48.000000 48.000000"
 preserveAspectRatio="xMidYMid meet">
<metadata>
Created by potrace 1.16, written by Peter Selinger 2001-2019
</metadata>
<g transform="translate(0.000000,48.000000) scale(0.100000,-0.100000)"
fill="currentColor" stroke="currentColor" stroke-width="6" stroke-linejoin="round">
<path d="M258 454 c-36 -19 -58 -63 -58 -115 0 -33 6 -47 34 -75 29 -29 41
-34 83 -34 55 0 86 17 108 60 56 108 -61 222 -167 164z m105 -15 c96 -49 64
-189 -43 -189 -102 0 -141 136 -52 184 33 18 66 20 95 5z M298 405 c-25 -34
-22 -51 12 -65 36 -15 39 -30 5 -30 -29 0 -31 -6 -10 -26 12 -13 17 -12 35 3
29 25 25 53 -10 66 -34 13 -35 30 -2 35 26 4 27 8 8 28 -18 18 -18 18 -38 -11z
M17 244 c-14 -15 7 -24 52 -24 32 0 64 -8 95 -25 30 -16 63 -25 92 -25 38 0
45 -3 42 -17 -3 -15 -16 -19 -76 -21 -88 -4 -96 -22 -9 -22 42 -1 88 8 144 27
81 27 101 27 90 0 -8 -20 -184 -107 -217 -107 -23 0 -147 34 -207 57 -7 3 -13
0 -13 -5 0 -13 179 -72 219 -72 16 0 76 24 132 53 91 45 104 56 107 80 4 35
-17 43 -71 28 -23 -7 -49 -14 -58 -17 -11 -3 -18 3 -22 16 -4 17 -13 20 -55
20 -33 0 -64 8 -93 24 -44 23 -139 42 -152 30z"/>
</g>
</svg>

