<?xml version="1.0" standalone="no"?>
<!DOCTYPE svg PUBLIC "-//W3C//DTD SVG 20010904//EN"
 "http://www.w3.org/TR/2001/REC-SVG-20010904/DTD/svg10.dtd">
<svg version="1.0" xmlns="http://www.w3.org/2000/svg"
 width="48.000000pt" height="48.000000pt" viewBox="0 0 48.000000 48.000000"
 preserveAspectRatio="xMidYMid meet">
<metadata>
Created by potrace 1.16, written by Peter Selinger 2001-2019
</metadata>
<g transform="translate(0.000000,48.000000) scale(0.100000,-0.100000)"
fill="currentColor" stroke="currentColor" stroke-width="6" stroke-linejoin="round">
<path d="M221 464 c-61 -14 -68 -19 -73 -54 -2 -20 -11 -26 -48 -33 -46 -9
-78 -27 -47 -27 17 0 337 66 370 76 9 3 15 9 12 14 -3 4 -29 3 -59 -4 -50 -12
-55 -11 -59 5 -8 29 -37 37 -96 23z m76 -30 c5 -15 -14 -22 -78 -30 -46 -6
-51 -5 -47 12 5 29 116 45 125 18z M117 324 c-4 -4 -7 -70 -7 -146 0 -179 -1
-178 139 -178 55 0 111 4 126 10 l26 10 -3 152 -3 153 -136 3 c-74 1 -138 -1
-142 -4z m263 -159 l0 -136 -122 3 -123 3 -3 133 -3 132 126 0 125 0 0 -135z
M200 165 c0 -37 4 -65 10 -65 6 0 10 28 10 65 0 37 -4 65 -10 65 -6 0 -10 -28
-10 -65z M290 165 c0 -37 4 -65 10 -65 6 0 10 28 10 65 0 37 -4 65 -10 65 -6
0 -10 -28 -10 -65z"/>
</g>
</svg>

