<?xml version="1.0" standalone="no"?>
<!DOCTYPE svg PUBLIC "-//W3C//DTD SVG 20010904//EN"
 "http://www.w3.org/TR/2001/REC-SVG-20010904/DTD/svg10.dtd">
<svg version="1.0" xmlns="http://www.w3.org/2000/svg"
 width="48.000000pt" height="48.000000pt" viewBox="0 0 48.000000 48.000000"
 preserveAspectRatio="xMidYMid meet">
<metadata>
Created by potrace 1.16, written by Peter Selinger 2001-2019
</metadata>
<g transform="translate(0.000000,48.000000) scale(0.100000,-0.100000)"
fill="currentColor" stroke="none">
<path d="M6 434 c-3 -9 -6 -87 -6 -174 0 -114 3 -160 12 -167 7 -6 41 -13 74
-16 34 -2 82 -14 108 -25 l46 -21 46 21 c26 11 74 23 108 25 33 3 67 10 74 16
9 7 12 53 12 167 0 87 -3 165 -6 174 -11 30 -177 10 -221 -26 -9 -7 -17 -7
-25 0 -45 36 -211 56 -222 26z m183 -30 l41 -16 0 -163 0 -162 -52 18 c-29 10
-74 18 -100 19 l-48 0 0 166 0 167 59 -6 c33 -4 78 -14 100 -23z m261 -139 l0
-165 -47 0 c-27 -1 -72 -9 -100 -19 l-53 -18 0 163 0 162 43 16 c54 19 73 23
120 25 l37 1 0 -165z M70 281 c0 -11 17 -17 79 -26 30 -5 41 -4 37 4 -4 5 -23
13 -44 16 -20 4 -45 9 -54 12 -10 2 -18 0 -18 -6z M70 191 c0 -4 19 -11 43
-14 24 -3 51 -9 60 -13 9 -3 17 -2 17 4 0 6 -14 15 -31 21 -38 13 -89 14 -89
2z M351 279 c-63 -12 -81 -33 -21 -24 62 9 80 15 80 26 0 10 2 10 -59 -2z
M318 188 c-16 -5 -28 -14 -28 -20 0 -6 8 -7 17 -4 9 4 36 10 60 13 24 3 43 10
43 14 0 12 -58 10 -92 -3z"/>
</g>
</svg>

