<?xml version="1.0" standalone="no"?>
<!DOCTYPE svg PUBLIC "-//W3C//DTD SVG 20010904//EN"
 "http://www.w3.org/TR/2001/REC-SVG-20010904/DTD/svg10.dtd">
<svg version="1.0" xmlns="http://www.w3.org/2000/svg"
 width="48.000000pt" height="48.000000pt" viewBox="0 0 48.000000 48.000000"
 preserveAspectRatio="xMidYMid meet">
<metadata>
Created by potrace 1.16, written by Peter Selinger 2001-2019
</metadata>
<g transform="translate(0.000000,48.000000) scale(0.100000,-0.100000)"
fill="currentColor" stroke="currentColor" stroke-width="6" stroke-linejoin="round">
<path d="M75 463 c6 -5 26 -16 45 -23 19 -8 51 -24 70 -37 43 -29 57 -29 100
0 19 13 51 29 70 37 51 19 62 34 20 26 -19 -3 -57 -20 -83 -36 -27 -17 -52
-30 -57 -30 -5 0 -30 13 -57 30 -46 28 -130 54 -108 33z M19 384 c-15 -19 -26
-190 -15 -249 6 -31 11 -35 74 -54 37 -11 89 -34 115 -52 l47 -31 47 31 c26
18 78 41 114 52 51 16 68 26 73 42 11 42 6 221 -7 247 -22 41 -82 30 -195 -36
-31 -19 -33 -19 -65 0 -104 61 -165 78 -188 50z m81 -19 c14 -4 49 -21 78 -38
l52 -31 0 -133 0 -133 -46 30 c-26 16 -71 35 -100 41 l-54 12 0 127 c0 70 3
130 7 133 4 4 14 5 22 3 9 -2 27 -7 41 -11z m348 -122 l3 -130 -54 -12 c-30
-6 -75 -25 -101 -41 l-46 -30 0 133 0 132 45 29 c46 29 122 57 140 52 6 -2 11
-57 13 -133z"/>
</g>
</svg>

