<?xml version="1.0" standalone="no"?>
<!DOCTYPE svg PUBLIC "-//W3C//DTD SVG 20010904//EN"
 "http://www.w3.org/TR/2001/REC-SVG-20010904/DTD/svg10.dtd">
<svg version="1.0" xmlns="http://www.w3.org/2000/svg"
 width="48.000000pt" height="48.000000pt" viewBox="0 0 48.000000 48.000000"
 preserveAspectRatio="xMidYMid meet">
<metadata>
Created by potrace 1.16, written by Peter Selinger 2001-2019
</metadata>
<g transform="translate(0.000000,48.000000) scale(0.100000,-0.100000)"
fill="currentColor" stroke="currentColor" stroke-width="6" stroke-linejoin="round">
<path d="M50 460 c-20 -20 -21 -29 -19 -178 1 -110 -2 -157 -10 -160 -20 -7
-13 -60 9 -67 11 -3 20 -15 20 -26 0 -10 5 -19 10 -19 6 0 10 9 10 20 0 19 7
20 170 20 163 0 170 -1 170 -20 0 -11 5 -20 10 -20 6 0 10 9 10 19 0 11 9 23
20 26 23 7 28 60 7 68 -9 3 -20 49 -31 134 -10 70 -20 138 -23 151 -7 30 -33
43 -69 33 -24 -6 -33 -3 -52 17 -20 20 -29 23 -65 18 -52 -7 -52 -7 -104 0
-34 5 -45 2 -63 -16z m100 -170 l0 -160 -45 0 -45 0 0 160 0 160 45 0 45 0 0
-160z m120 0 l0 -160 -45 0 -45 0 0 160 0 160 45 0 45 0 0 -160z m110 118 c16
-40 42 -260 32 -270 -5 -5 -20 -8 -33 -6 -25 3 -26 8 -63 246 -4 27 -1 35 17
42 33 13 37 12 47 -12z m-51 -255 c1 -17 -5 -23 -20 -23 -15 0 -19 4 -15 16 3
9 6 52 7 97 l1 82 13 -75 c8 -41 14 -85 14 -97z m121 -63 c0 -19 -7 -20 -210
-20 -203 0 -210 1 -210 20 0 19 7 20 210 20 203 0 210 -1 210 -20z"/>
</g>
</svg>

