<?xml version="1.0" standalone="no"?>
<!DOCTYPE svg PUBLIC "-//W3C//DTD SVG 20010904//EN"
 "http://www.w3.org/TR/2001/REC-SVG-20010904/DTD/svg10.dtd">
<svg version="1.0" xmlns="http://www.w3.org/2000/svg"
 width="48.000000pt" height="48.000000pt" viewBox="0 0 48.000000 48.000000"
 preserveAspectRatio="xMidYMid meet">
<metadata>
Created by potrace 1.16, written by Peter Selinger 2001-2019
</metadata>
<g transform="translate(0.000000,48.000000) scale(0.100000,-0.100000)"
fill="currentColor" stroke="currentColor" stroke-width="6" stroke-linejoin="round">
<path d="M103 473 c-48 -9 -53 -33 -53 -238 0 -149 3 -195 14 -211 13 -17 30
-19 181 -22 107 -2 171 0 178 7 7 7 5 12 -6 17 -22 8 -23 69 -2 78 13 4 15 34
15 180 0 163 -1 176 -19 186 -19 10 -261 12 -308 3z m307 -188 l0 -165 -147 0
c-82 0 -158 -3 -170 -6 l-23 -6 0 159 c0 110 4 163 12 171 8 8 60 12 170 12
l158 0 0 -165z m-30 -225 l0 -30 -150 0 c-125 0 -152 3 -156 15 -4 8 -4 22 0
30 4 12 31 15 156 15 l150 0 0 -30z M186 358 c-19 -27 -20 -58 -3 -82 12 -16
10 -22 -16 -47 -18 -19 -27 -37 -25 -51 3 -22 7 -23 98 -23 91 0 95 1 98 23 2
14 -7 32 -25 51 -26 25 -28 31 -16 47 17 24 16 55 -3 82 -11 16 -25 22 -54 22
-29 0 -43 -6 -54 -22z m92 -10 c7 -7 12 -21 12 -33 0 -28 -19 -45 -50 -45 -31
0 -50 17 -50 45 0 28 19 45 50 45 14 0 31 -5 38 -12z m22 -135 l22 -28 -41 -3
c-23 -2 -59 -2 -82 0 l-41 3 22 28 c17 21 30 27 60 27 30 0 43 -6 60 -27z"/>
</g>
</svg>

