<?xml version="1.0" standalone="no"?>
<!DOCTYPE svg PUBLIC "-//W3C//DTD SVG 20010904//EN"
 "http://www.w3.org/TR/2001/REC-SVG-20010904/DTD/svg10.dtd">
<svg version="1.0" xmlns="http://www.w3.org/2000/svg"
 width="48.000000pt" height="48.000000pt" viewBox="0 0 48.000000 48.000000"
 preserveAspectRatio="xMidYMid meet">
<metadata>
Created by potrace 1.16, written by Peter Selinger 2001-2019
</metadata>
<g transform="translate(0.000000,48.000000) scale(0.100000,-0.100000)"
fill="currentColor" stroke="currentColor" stroke-width="6" stroke-linejoin="round">
<path d="M106 434 c-13 -13 -16 -45 -16 -198 0 -225 1 -227 89 -165 l61 43 61
-43 c88 -62 89 -59 89 158 0 232 7 221 -150 221 -94 0 -122 -3 -134 -16z m258
-20 c10 -27 7 -354 -4 -354 -5 0 -32 16 -59 35 -26 19 -54 35 -61 35 -7 0 -35
-16 -61 -35 -27 -19 -54 -35 -59 -35 -11 0 -14 352 -3 363 3 4 59 7 124 7 97
0 118 -3 123 -16z"/>
</g>
</svg>

