<?xml version="1.0" standalone="no"?>
<!DOCTYPE svg PUBLIC "-//W3C//DTD SVG 20010904//EN"
 "http://www.w3.org/TR/2001/REC-SVG-20010904/DTD/svg10.dtd">
<svg version="1.0" xmlns="http://www.w3.org/2000/svg"
 width="48.000000pt" height="48.000000pt" viewBox="0 0 48.000000 48.000000"
 preserveAspectRatio="xMidYMid meet">
<metadata>
Created by potrace 1.16, written by Peter Selinger 2001-2019
</metadata>
<g transform="translate(0.000000,48.000000) scale(0.100000,-0.100000)"
fill="currentColor" stroke="currentColor" stroke-width="6" stroke-linejoin="round">
<path d="M5 457 c-4 -8 -5 -101 -3 -205 3 -186 4 -191 27 -216 31 -33 89 -36
116 -6 l18 20 22 -20 c13 -12 35 -20 57 -20 22 0 41 7 53 20 l18 20 22 -20
c31 -29 85 -27 116 6 24 25 24 28 24 222 0 123 -4 198 -10 200 -6 1 -12 -31
-15 -75 -5 -72 -7 -78 -32 -93 -25 -13 -31 -13 -55 0 -26 15 -28 21 -33 93 -3
42 -9 77 -15 77 -5 0 -12 -35 -15 -77 -5 -72 -7 -78 -32 -93 -25 -13 -31 -13
-55 0 -26 15 -28 21 -33 93 -3 42 -9 77 -15 77 -5 0 -12 -35 -15 -77 -5 -72
-7 -78 -33 -93 -24 -13 -30 -13 -55 0 -25 15 -27 21 -30 90 -3 74 -15 109 -27
77z m115 -190 l30 11 0 -108 c0 -120 -8 -140 -60 -140 -52 0 -60 20 -60 140
l0 108 30 -11 c22 -8 38 -8 60 0z m150 0 l30 11 0 -108 c0 -120 -8 -140 -60
-140 -52 0 -60 20 -60 140 l0 108 30 -11 c22 -8 38 -8 60 0z m150 0 l30 11 0
-108 c0 -120 -8 -140 -60 -140 -52 0 -60 20 -60 140 l0 108 30 -11 c22 -8 38
-8 60 0z M80 395 c0 -43 4 -75 10 -75 6 0 10 32 10 75 0 43 -4 75 -10 75 -6 0
-10 -32 -10 -75z M230 395 c0 -43 4 -75 10 -75 6 0 10 32 10 75 0 43 -4 75
-10 75 -6 0 -10 -32 -10 -75z M380 395 c0 -43 4 -75 10 -75 6 0 10 32 10 75 0
43 -4 75 -10 75 -6 0 -10 -32 -10 -75z"/>
</g>
</svg>

