<?xml version="1.0" standalone="no"?>
<!DOCTYPE svg PUBLIC "-//W3C//DTD SVG 20010904//EN"
 "http://www.w3.org/TR/2001/REC-SVG-20010904/DTD/svg10.dtd">
<svg version="1.0" xmlns="http://www.w3.org/2000/svg"
 width="48.000000pt" height="48.000000pt" viewBox="0 0 48.000000 48.000000"
 preserveAspectRatio="xMidYMid meet">
<metadata>
Created by potrace 1.16, written by Peter Selinger 2001-2019
</metadata>
<g transform="translate(0.000000,48.000000) scale(0.100000,-0.100000)"
fill="currentColor" stroke="none">
<path d="M7 445 c-4 -9 -7 -88 -7 -175 0 -128 3 -162 15 -174 8 -8 15 -23 15
-33 0 -10 4 -22 8 -28 4 -6 83 -10 200 -10 l192 0 0 33 c0 25 4 32 19 32 10 0
22 7 25 16 9 25 7 327 -3 343 -13 21 -108 8 -176 -23 l-55 -25 -56 26 c-72 33
-168 43 -177 18z m171 -36 l52 -21 0 -164 c0 -90 -2 -164 -4 -164 -3 0 -21 9
-40 21 -21 12 -62 23 -96 26 l-60 6 0 165 0 165 48 -7 c26 -3 71 -16 100 -27z
m272 -133 l0 -163 -60 -6 c-34 -3 -75 -14 -96 -26 -19 -12 -37 -21 -40 -21 -2
0 -4 74 -4 164 l0 164 53 20 c59 24 81 29 120 31 l27 1 0 -164z m-295 -205
l40 -19 -30 -1 c-16 -1 -47 -4 -67 -7 -36 -6 -38 -5 -38 20 0 22 4 26 28 26
15 0 45 -9 67 -19z m255 -7 c0 -24 -3 -26 -31 -20 -17 3 -46 6 -63 7 l-31 1
40 19 c59 27 85 25 85 -7z"/>
</g>
</svg>

