<?xml version="1.0" standalone="no"?>
<!DOCTYPE svg PUBLIC "-//W3C//DTD SVG 20010904//EN"
 "http://www.w3.org/TR/2001/REC-SVG-20010904/DTD/svg10.dtd">
<svg version="1.0" xmlns="http://www.w3.org/2000/svg"
 width="48.000000pt" height="48.000000pt" viewBox="0 0 48.000000 48.000000"
 preserveAspectRatio="xMidYMid meet">
<metadata>
Created by potrace 1.16, written by Peter Selinger 2001-2019
</metadata>
<g transform="translate(0.000000,48.000000) scale(0.100000,-0.100000)"
fill="currentColor" stroke="none">
<path d="M147 442 c-21 -14 -40 -36 -43 -49 -4 -13 -14 -23 -24 -23 -26 0 -43
-26 -37 -58 4 -21 1 -31 -14 -40 -10 -7 -19 -23 -19 -37 0 -14 9 -30 19 -37
15 -9 18 -19 14 -40 -6 -31 10 -58 36 -58 9 0 23 -15 31 -33 12 -26 21 -32 47
-32 18 0 38 -6 44 -12 17 -17 61 -17 78 -1 6 7 26 13 44 13 26 0 35 6 47 32 8
18 22 33 31 33 26 0 42 27 36 58 -4 21 -1 31 14 40 25 16 25 58 0 74 -15 9
-18 19 -14 40 6 32 -11 58 -37 58 -10 0 -20 10 -24 23 -3 13 -23 35 -45 49
-54 35 -131 35 -184 0z m153 -11 c0 -10 -13 -30 -30 -46 l-30 -29 -30 29 c-49
47 -41 63 30 63 50 0 60 -3 60 -17z m-130 -36 c10 -19 11 -28 2 -37 -25 -25
-65 19 -42 47 17 21 25 19 40 -10z m180 10 c23 -28 -17 -72 -42 -47 -9 9 -8
18 2 37 15 29 23 31 40 10z m-94 -63 c14 13 19 13 49 -1 19 -9 34 -21 35 -28
0 -6 7 -19 17 -28 22 -23 23 -82 1 -102 -10 -9 -18 -24 -18 -35 0 -11 -7 -18
-18 -18 -10 0 -23 -5 -30 -12 -16 -16 -90 -17 -104 -1 -6 7 -19 13 -29 13 -12
0 -19 7 -19 18 0 11 -8 26 -17 35 -23 20 -22 79 0 102 10 9 17 22 17 28 0 7
15 19 33 27 28 14 34 14 50 1 16 -13 19 -13 33 1z m-141 -22 c0 -18 -6 -26
-23 -28 -24 -4 -38 18 -28 44 3 9 15 14 28 12 17 -2 23 -10 23 -28z m300 0 c0
-18 -6 -26 -23 -28 -13 -2 -25 3 -28 12 -10 26 4 48 28 44 17 -2 23 -10 23
-28z m-341 -56 c21 -8 21 -50 0 -58 -32 -12 -57 27 -32 52 14 14 12 14 32 6z
m370 -17 c8 -12 7 -21 -5 -32 -21 -21 -49 -9 -49 20 0 36 34 44 54 12z m-336
-76 c21 -13 10 -46 -16 -49 -24 -4 -38 18 -28 43 6 17 24 19 44 6z m307 -21
c0 -20 -5 -25 -25 -25 -28 0 -41 32 -18 46 23 15 43 5 43 -21z m-232 -52 c6
-18 -11 -48 -27 -48 -20 0 -39 27 -32 45 7 18 52 20 59 3z m172 -12 c0 -10 -8
-24 -18 -30 -14 -9 -21 -7 -32 7 -19 27 -8 49 24 45 18 -2 26 -9 26 -22z m-97
-5 c23 -14 10 -46 -18 -46 -16 0 -26 6 -28 19 -3 16 12 36 28 36 3 0 11 -4 18
-9z"/>
</g>
</svg>

