<?xml version="1.0" standalone="no"?>
<!DOCTYPE svg PUBLIC "-//W3C//DTD SVG 20010904//EN"
 "http://www.w3.org/TR/2001/REC-SVG-20010904/DTD/svg10.dtd">
<svg version="1.0" xmlns="http://www.w3.org/2000/svg"
 width="48.000000pt" height="48.000000pt" viewBox="0 0 48.000000 48.000000"
 preserveAspectRatio="xMidYMid meet">
<metadata>
Created by potrace 1.16, written by Peter Selinger 2001-2019
</metadata>
<g transform="translate(0.000000,48.000000) scale(0.100000,-0.100000)"
fill="currentColor" stroke="currentColor" stroke-width="6" stroke-linejoin="round">
<path d="M173 448 c-6 -7 -15 -26 -20 -43 -12 -36 -48 -46 -68 -18 -13 17 -14
17 -20 1 -4 -10 -16 -18 -26 -18 -32 0 -41 -45 -37 -193 2 -109 6 -140 18
-147 8 -5 111 -10 228 -10 l212 0 10 26 c11 28 14 255 4 292 -4 12 -17 25 -29
28 -13 3 -26 13 -30 22 -6 16 -8 15 -20 -1 -20 -28 -56 -18 -68 18 -16 49 -26
55 -87 55 -34 0 -62 -5 -67 -12z m127 -34 c16 -42 13 -44 -60 -44 -73 0 -76 2
-60 44 8 23 15 26 60 26 45 0 52 -3 60 -26z m150 -219 l0 -155 -210 0 -210 0
0 155 0 155 210 0 210 0 0 -155z M105 260 c-3 -5 0 -13 7 -15 25 -10 258 0
258 10 0 14 -256 19 -265 5z M105 140 c-3 -5 0 -13 7 -15 25 -10 258 0 258 10
0 14 -256 19 -265 5z"/>
</g>
</svg>

