<?xml version="1.0" standalone="no"?>
<!DOCTYPE svg PUBLIC "-//W3C//DTD SVG 20010904//EN"
 "http://www.w3.org/TR/2001/REC-SVG-20010904/DTD/svg10.dtd">
<svg version="1.0" xmlns="http://www.w3.org/2000/svg"
 width="48.000000pt" height="48.000000pt" viewBox="0 0 48.000000 48.000000"
 preserveAspectRatio="xMidYMid meet">
<metadata>
Created by potrace 1.16, written by Peter Selinger 2001-2019
</metadata>
<g transform="translate(0.000000,48.000000) scale(0.100000,-0.100000)"
fill="currentColor" stroke="currentColor" stroke-width="6" stroke-linejoin="round">
<path d="M230 420 c0 -22 5 -40 10 -40 6 0 10 18 10 40 0 22 -4 40 -10 40 -5
0 -10 -18 -10 -40z M87 392 c-8 -11 40 -58 50 -48 4 3 -5 18 -19 32 -14 14
-28 22 -31 16z M360 375 c-32 -34 -16 -46 16 -13 14 14 22 28 16 31 -5 4 -20
-5 -32 -18z M191 326 c-87 -48 -50 -186 49 -186 51 0 100 49 100 99 0 75 -83
124 -149 87z m104 -31 c33 -32 33 -78 0 -110 -49 -50 -135 -15 -135 55 0 19 9
40 25 55 15 16 36 25 55 25 19 0 40 -9 55 -25z M20 240 c0 -5 18 -10 40 -10
22 0 40 5 40 10 0 6 -18 10 -40 10 -22 0 -40 -4 -40 -10z M380 240 c0 -5 18
-10 40 -10 22 0 40 5 40 10 0 6 -18 10 -40 10 -22 0 -40 -4 -40 -10z M102 117
c-12 -13 -19 -27 -15 -30 7 -8 53 31 53 45 0 15 -16 8 -38 -15z M340 132 c0
-14 46 -53 53 -45 4 3 -3 17 -15 30 -22 23 -38 30 -38 15z M230 60 c0 -22 5
-40 10 -40 6 0 10 18 10 40 0 22 -4 40 -10 40 -5 0 -10 -18 -10 -40z"/>
</g>
</svg>

