<?xml version="1.0" standalone="no"?>
<!DOCTYPE svg PUBLIC "-//W3C//DTD SVG 20010904//EN"
 "http://www.w3.org/TR/2001/REC-SVG-20010904/DTD/svg10.dtd">
<svg version="1.0" xmlns="http://www.w3.org/2000/svg"
 width="48.000000pt" height="48.000000pt" viewBox="0 0 48.000000 48.000000"
 preserveAspectRatio="xMidYMid meet">
<metadata>
Created by potrace 1.16, written by Peter Selinger 2001-2019
</metadata>
<g transform="translate(0.000000,48.000000) scale(0.100000,-0.100000)"
fill="currentColor" stroke="currentColor" stroke-width="6" stroke-linejoin="round">
<path d="M212 446 c-32 -31 -25 -58 18 -72 19 -6 36 -16 38 -23 5 -16 -28 -26
-48 -13 -29 18 -32 1 -5 -24 l25 -23 25 23 c40 37 30 66 -27 80 -16 4 -28 13
-28 22 0 14 7 15 43 10 l42 -7 -27 26 c-15 14 -28 25 -30 24 -2 0 -14 -11 -26
-23z M36 388 c-36 -51 -7 -108 54 -108 29 0 43 6 54 22 36 51 7 108 -54 108
-29 0 -43 -6 -54 -22z m92 -10 c15 -15 15 -51 0 -66 -15 -15 -61 -15 -76 0
-15 15 -15 51 0 66 7 7 24 12 38 12 14 0 31 -5 38 -12z M336 388 c-36 -51 -7
-108 54 -108 29 0 43 6 54 22 36 51 7 108 -54 108 -29 0 -43 -6 -54 -22z m92
-10 c7 -7 12 -21 12 -33 0 -28 -19 -45 -50 -45 -31 0 -50 17 -50 45 0 28 19
45 50 45 14 0 31 -5 38 -12z M33 238 c-12 -13 -24 -39 -28 -59 -5 -30 -3 -39
12 -50 13 -9 22 -31 26 -62 9 -62 12 -67 47 -67 35 0 38 5 47 67 4 31 13 53
26 62 15 11 17 20 12 50 -4 20 -16 46 -28 59 -28 30 -86 30 -114 0z m101 -14
c20 -20 21 -68 1 -84 -8 -7 -15 -24 -15 -39 0 -44 -11 -71 -30 -71 -19 0 -30
27 -30 76 0 19 -6 34 -15 38 -20 7 -19 60 1 80 8 9 28 16 44 16 16 0 36 -7 44
-16z M333 238 c-12 -13 -24 -39 -28 -59 -5 -30 -3 -39 12 -50 13 -9 22 -31 26
-62 9 -62 12 -67 47 -67 35 0 38 5 47 67 4 31 13 53 26 62 15 11 17 20 12 50
-9 52 -40 81 -85 81 -25 0 -43 -7 -57 -22z m101 -14 c20 -20 21 -68 1 -84 -8
-7 -15 -24 -15 -39 0 -44 -11 -71 -30 -71 -19 0 -30 27 -30 76 0 19 -6 34 -15
38 -20 7 -19 60 1 80 8 9 28 16 44 16 16 0 36 -7 44 -16z"/>
</g>
</svg>

