<?xml version="1.0" standalone="no"?>
<!DOCTYPE svg PUBLIC "-//W3C//DTD SVG 20010904//EN"
 "http://www.w3.org/TR/2001/REC-SVG-20010904/DTD/svg10.dtd">
<svg version="1.0" xmlns="http://www.w3.org/2000/svg"
 width="48.000000pt" height="48.000000pt" viewBox="0 0 48.000000 48.000000"
 preserveAspectRatio="xMidYMid meet">
<metadata>
Created by potrace 1.16, written by Peter Selinger 2001-2019
</metadata>
<g transform="translate(0.000000,48.000000) scale(0.100000,-0.100000)"
fill="currentColor" stroke="currentColor" stroke-width="6" stroke-linejoin="round">
<path d="M83 469 c-34 -12 -47 -45 -33 -80 7 -16 17 -29 23 -29 6 0 0 -8 -13
-17 -37 -26 -50 -45 -47 -73 2 -22 7 -25 51 -28 27 -2 61 0 75 3 39 10 6 25
-56 25 -58 0 -64 9 -32 41 21 21 69 23 112 5 27 -13 20 8 -10 26 -16 10 -23
18 -17 18 6 0 17 13 24 30 21 51 -25 98 -77 79z m57 -34 c25 -30 -11 -72 -51
-60 -43 14 -30 75 16 75 12 0 28 -7 35 -15z M320 451 c0 -6 6 -13 13 -18 7 -5
-2 -10 -26 -13 -50 -7 -52 -24 -4 -28 32 -3 36 -6 26 -18 -21 -25 0 -28 26 -4
31 29 31 41 2 68 -25 24 -37 28 -37 13z M226 295 c-22 -21 -25 -28 -16 -45 6
-12 24 -23 41 -27 36 -7 43 -17 24 -33 -12 -10 -21 -10 -40 -2 -31 14 -32 2
-2 -26 l23 -22 27 28 c33 34 27 60 -14 69 -37 7 -58 30 -35 39 9 3 27 3 41 0
32 -8 32 7 1 27 -23 15 -26 15 -50 -8z M366 233 c-12 -12 -6 -23 13 -23 25 0
44 -25 36 -49 -8 -25 -38 -35 -64 -22 -30 17 -36 13 -16 -9 10 -11 14 -20 8
-20 -23 0 -64 -54 -61 -79 3 -26 4 -26 93 -26 89 0 90 0 93 26 3 24 -38 79
-60 79 -5 0 2 14 14 31 21 28 21 32 8 56 -15 26 -53 47 -64 36z m64 -163 c33
-33 24 -40 -55 -40 -79 0 -88 7 -55 40 27 27 83 27 110 0z M122 107 c-28 -30
-28 -38 3 -67 26 -24 47 -21 26 4 -10 12 -6 15 26 18 48 4 46 21 -4 28 -24 3
-33 8 -25 13 14 9 16 27 4 27 -5 0 -18 -10 -30 -23z"/>
</g>
</svg>

