<?xml version="1.0" standalone="no"?>
<!DOCTYPE svg PUBLIC "-//W3C//DTD SVG 20010904//EN"
 "http://www.w3.org/TR/2001/REC-SVG-20010904/DTD/svg10.dtd">
<svg version="1.0" xmlns="http://www.w3.org/2000/svg"
 width="48.000000pt" height="48.000000pt" viewBox="0 0 48.000000 48.000000"
 preserveAspectRatio="xMidYMid meet">
<metadata>
Created by potrace 1.16, written by Peter Selinger 2001-2019
</metadata>
<g transform="translate(0.000000,48.000000) scale(0.100000,-0.100000)"
fill="currentColor" stroke="currentColor" stroke-width="6" stroke-linejoin="round">
<path d="M245 368 c-11 -7 -34 -11 -51 -10 -17 1 -48 -5 -69 -14 -35 -14 -39
-14 -47 0 -10 17 -68 22 -68 6 0 -5 11 -10 25 -10 24 0 25 -2 25 -75 0 -73 -1
-75 -25 -75 -14 0 -25 -4 -25 -10 0 -14 26 -13 68 2 34 13 35 12 74 -35 22
-26 47 -47 55 -47 8 0 35 17 60 37 45 37 48 38 124 37 44 0 79 3 79 8 0 4 -11
8 -25 8 -24 0 -25 2 -25 75 0 73 1 75 25 75 14 0 25 5 25 11 0 8 -14 10 -44 6
-30 -4 -57 -1 -80 8 -42 18 -74 19 -101 3z m98 -24 l47 -16 0 -64 c0 -49 -3
-64 -14 -64 -8 0 -22 -3 -30 -6 -12 -4 -15 -2 -11 8 4 9 -5 29 -20 46 -15 17
-23 37 -19 46 5 14 1 14 -41 -1 -39 -13 -49 -13 -55 -2 -12 18 -5 26 38 49 46
24 48 24 105 4z m-163 -19 c-15 -18 -4 -52 19 -60 10 -3 29 -1 43 4 21 8 28 5
51 -24 l27 -34 -52 -45 c-29 -25 -56 -46 -60 -46 -4 0 -24 20 -45 45 -20 25
-45 45 -55 45 -15 0 -18 9 -18 49 0 47 1 49 38 64 50 21 69 22 52 2z"/>
</g>
</svg>

