<?xml version="1.0" standalone="no"?>
<!DOCTYPE svg PUBLIC "-//W3C//DTD SVG 20010904//EN"
 "http://www.w3.org/TR/2001/REC-SVG-20010904/DTD/svg10.dtd">
<svg version="1.0" xmlns="http://www.w3.org/2000/svg"
 width="48.000000pt" height="48.000000pt" viewBox="0 0 48.000000 48.000000"
 preserveAspectRatio="xMidYMid meet">
<metadata>
Created by potrace 1.16, written by Peter Selinger 2001-2019
</metadata>
<g transform="translate(0.000000,48.000000) scale(0.100000,-0.100000)"
fill="currentColor" stroke="currentColor" stroke-width="6" stroke-linejoin="round">
<path d="M187 435 c-54 -14 -112 -63 -133 -112 -18 -42 -18 -124 0 -168 14
-33 14 -34 -12 -37 -42 -5 -32 -23 14 -26 50 -4 66 13 62 65 -4 45 -21 50 -28
9 l-5 -30 -13 28 c-6 15 -12 50 -12 78 0 66 32 122 88 155 37 22 52 25 107 21
86 -5 88 8 5 25 -14 3 -47 -1 -73 -8z M371 376 c-14 -17 -11 -91 4 -90 6 0 12
13 15 29 l5 29 13 -28 c6 -15 12 -50 12 -78 0 -66 -32 -122 -88 -155 -37 -22
-52 -25 -107 -21 -66 4 -88 -7 -37 -18 15 -3 32 -7 39 -9 7 -2 35 2 63 9 58
15 114 62 136 113 18 42 18 124 0 168 -14 33 -14 34 12 37 42 5 32 23 -14 26
-27 2 -45 -2 -53 -12z"/>
</g>
</svg>

