<?xml version="1.0" standalone="no"?>
<!DOCTYPE svg PUBLIC "-//W3C//DTD SVG 20010904//EN"
 "http://www.w3.org/TR/2001/REC-SVG-20010904/DTD/svg10.dtd">
<svg version="1.0" xmlns="http://www.w3.org/2000/svg"
 width="48.000000pt" height="48.000000pt" viewBox="0 0 48.000000 48.000000"
 preserveAspectRatio="xMidYMid meet">
<metadata>
Created by potrace 1.16, written by Peter Selinger 2001-2019
</metadata>
<g transform="translate(0.000000,48.000000) scale(0.100000,-0.100000)"
fill="currentColor" stroke="none">
<path d="M191 469 c-245 -47 -243 -412 2 -458 168 -31 307 108 276 275 -17 88
-90 167 -168 180 -20 3 -43 7 -51 9 -8 1 -35 -1 -59 -6z m170 -54 c64 -45 91
-104 87 -187 -4 -82 -39 -139 -108 -176 -38 -20 -56 -23 -112 -20 -82 4 -139
39 -176 108 -20 38 -23 56 -20 112 4 82 39 139 108 176 38 20 56 23 112 20 55
-3 75 -9 109 -33z M192 344 c-20 -14 -22 -24 -22 -104 0 -80 2 -90 22 -104 26
-18 36 -14 108 53 l55 51 -55 51 c-72 67 -82 71 -108 53z m85 -59 l48 -45 -48
-45 c-27 -25 -57 -45 -68 -45 -17 0 -19 8 -19 90 0 82 2 90 19 90 11 0 41 -20
68 -45z"/>
</g>
</svg>

