<?xml version="1.0" standalone="no"?>
<!DOCTYPE svg PUBLIC "-//W3C//DTD SVG 20010904//EN"
 "http://www.w3.org/TR/2001/REC-SVG-20010904/DTD/svg10.dtd">
<svg version="1.0" xmlns="http://www.w3.org/2000/svg"
 width="48.000000pt" height="48.000000pt" viewBox="0 0 48.000000 48.000000"
 preserveAspectRatio="xMidYMid meet">
<metadata>
Created by potrace 1.16, written by Peter Selinger 2001-2019
</metadata>
<g transform="translate(0.000000,48.000000) scale(0.100000,-0.100000)"
fill="currentColor" stroke="currentColor" stroke-width="6" stroke-linejoin="round">
<path d="M126 463 c-3 -3 -6 -14 -6 -23 0 -13 -11 -19 -46 -23 -25 -2 -51 -10
-57 -16 -18 -18 -17 -365 1 -383 19 -19 425 -19 444 0 18 18 19 365 1 383 -6
6 -32 14 -57 16 -34 4 -46 10 -48 25 -4 25 -22 24 -26 -2 -3 -18 -11 -20 -93
-20 -81 0 -89 2 -89 19 0 21 -13 34 -24 24z m-6 -87 c0 -24 21 -30 27 -7 5 19
12 21 94 21 71 0 89 -3 89 -14 0 -24 21 -30 27 -7 4 17 13 21 49 21 l44 0 0
-45 0 -45 -210 0 -210 0 0 45 0 45 45 0 c33 0 45 -4 45 -14z m330 -226 l0
-120 -210 0 -210 0 0 120 0 120 210 0 210 0 0 -120z M100 205 c0 -8 7 -15 15
-15 8 0 15 7 15 15 0 8 -7 15 -15 15 -8 0 -15 -7 -15 -15z M227 214 c-13 -13
-7 -24 14 -24 11 0 19 5 17 12 -5 14 -22 21 -31 12z M350 205 c0 -8 7 -15 15
-15 8 0 15 7 15 15 0 8 -7 15 -15 15 -8 0 -15 -7 -15 -15z M100 95 c0 -8 7
-15 15 -15 8 0 15 7 15 15 0 8 -7 15 -15 15 -8 0 -15 -7 -15 -15z M223 98 c2
-7 10 -13 17 -13 7 0 15 6 18 13 2 7 -5 12 -18 12 -13 0 -20 -5 -17 -12z M350
95 c0 -8 7 -15 15 -15 8 0 15 7 15 15 0 8 -7 15 -15 15 -8 0 -15 -7 -15 -15z"/>
</g>
</svg>

