<?xml version="1.0" standalone="no"?>
<!DOCTYPE svg PUBLIC "-//W3C//DTD SVG 20010904//EN"
 "http://www.w3.org/TR/2001/REC-SVG-20010904/DTD/svg10.dtd">
<svg version="1.0" xmlns="http://www.w3.org/2000/svg"
 width="48.000000pt" height="48.000000pt" viewBox="0 0 48.000000 48.000000"
 preserveAspectRatio="xMidYMid meet">
<metadata>
Created by potrace 1.16, written by Peter Selinger 2001-2019
</metadata>
<g transform="translate(0.000000,48.000000) scale(0.100000,-0.100000)"
fill="currentColor" stroke="none">
<path d="M126 463 c-3 -3 -6 -15 -6 -25 0 -14 -8 -18 -40 -18 -27 0 -47 -7
-60 -20 -18 -18 -20 -33 -20 -190 0 -227 -20 -210 240 -210 260 0 240 -17 240
210 0 157 -2 172 -20 190 -13 13 -33 20 -59 20 -32 0 -40 4 -43 20 -2 12 -7
21 -13 21 -5 0 -11 -9 -13 -21 -3 -18 -11 -20 -93 -20 -81 0 -89 2 -89 19 0
21 -13 34 -24 24z m-6 -87 c0 -24 21 -30 27 -7 5 19 12 21 94 21 71 0 89 -3
89 -14 0 -24 21 -30 27 -7 4 17 13 21 49 21 l44 0 0 -45 0 -45 -210 0 -210 0
0 45 0 45 45 0 c33 0 45 -4 45 -14z m330 -226 l0 -120 -210 0 -210 0 0 120 0
120 210 0 210 0 0 -120z M210 212 c-30 -24 -22 -47 25 -69 42 -20 41 -37 -3
-41 -37 -4 -42 -17 -10 -25 28 -8 70 19 66 41 -2 9 -20 26 -41 37 -43 23 -43
39 1 43 18 2 32 7 32 13 0 5 -4 9 -9 9 -5 0 -16 2 -24 5 -7 3 -24 -3 -37 -13z"/>
</g>
</svg>

