<?xml version="1.0" standalone="no"?>
<!DOCTYPE svg PUBLIC "-//W3C//DTD SVG 20010904//EN"
 "http://www.w3.org/TR/2001/REC-SVG-20010904/DTD/svg10.dtd">
<svg version="1.0" xmlns="http://www.w3.org/2000/svg"
 width="48.000000pt" height="48.000000pt" viewBox="0 0 48.000000 48.000000"
 preserveAspectRatio="xMidYMid meet">
<metadata>
Created by potrace 1.16, written by Peter Selinger 2001-2019
</metadata>
<g transform="translate(0.000000,48.000000) scale(0.100000,-0.100000)"
fill="currentColor" stroke="currentColor" stroke-width="6" stroke-linejoin="round">
<path d="M96 462 c-3 -5 -22 -13 -41 -16 -27 -5 -39 -14 -46 -34 -15 -39 -8
-258 9 -274 15 -15 136 -18 140 -3 1 6 -26 11 -63 13 l-65 3 0 89 0 90 149 0
c91 0 152 -4 156 -10 11 -19 25 1 25 35 0 56 -15 82 -52 90 -18 4 -38 12 -45
17 -7 6 -14 5 -18 -2 -8 -13 -118 -13 -132 1 -7 7 -13 7 -17 1z m0 -53 c4 -8
9 -8 17 0 14 14 124 14 133 0 4 -8 9 -8 17 0 6 6 24 11 39 11 24 0 28 -4 28
-30 l0 -30 -150 0 -150 0 0 30 c0 27 3 30 29 30 17 0 33 -5 37 -11z M317 262
c-15 -2 -43 -19 -62 -37 -53 -53 -53 -127 0 -180 53 -53 127 -53 179 0 54 53
54 126 1 179 -33 33 -66 44 -118 38z m104 -51 c24 -24 29 -38 29 -76 0 -66
-39 -105 -105 -105 -66 0 -105 39 -105 105 0 66 39 105 105 105 38 0 52 -5 76
-29z M364 143 c-15 -21 -29 -40 -31 -42 -1 -2 -12 4 -23 14 -11 10 -23 15 -27
12 -9 -10 27 -47 46 -47 14 1 81 79 81 95 0 15 -21 1 -46 -32z"/>
</g>
</svg>

