<?xml version="1.0" standalone="no"?>
<!DOCTYPE svg PUBLIC "-//W3C//DTD SVG 20010904//EN"
 "http://www.w3.org/TR/2001/REC-SVG-20010904/DTD/svg10.dtd">
<svg version="1.0" xmlns="http://www.w3.org/2000/svg"
 width="48.000000pt" height="48.000000pt" viewBox="0 0 48.000000 48.000000"
 preserveAspectRatio="xMidYMid meet">
<metadata>
Created by potrace 1.16, written by Peter Selinger 2001-2019
</metadata>
<g transform="translate(0.000000,48.000000) scale(0.100000,-0.100000)"
fill="currentColor" stroke="currentColor" stroke-width="6" stroke-linejoin="round">
<path d="M96 462 c-3 -5 -22 -13 -41 -16 -27 -5 -39 -14 -46 -34 -15 -38 -8
-258 9 -274 8 -8 39 -13 85 -13 99 0 103 19 5 23 l-78 3 0 89 0 90 149 0 c91
0 152 -4 156 -10 11 -19 25 1 25 35 0 56 -15 82 -52 90 -18 4 -38 12 -45 17
-7 6 -14 5 -18 -2 -8 -13 -118 -13 -132 1 -7 7 -13 7 -17 1z m0 -53 c4 -8 9
-8 17 0 14 14 124 14 133 0 4 -8 9 -8 17 0 6 6 24 11 39 11 24 0 28 -4 28 -30
l0 -30 -150 0 -150 0 0 30 c0 27 3 30 29 30 17 0 33 -5 37 -11z M318 182 c-79
-78 -90 -92 -95 -131 l-6 -44 44 7 c38 6 56 18 127 89 62 62 82 88 82 109 0
25 -30 58 -54 58 -5 0 -49 -39 -98 -88z m116 62 c34 -13 16 -49 -61 -126 -84
-83 -133 -108 -133 -68 0 15 30 53 87 111 48 49 88 89 89 89 1 0 9 -3 18 -6z"/>
</g>
</svg>

