<?xml version="1.0" standalone="no"?>
<!DOCTYPE svg PUBLIC "-//W3C//DTD SVG 20010904//EN"
 "http://www.w3.org/TR/2001/REC-SVG-20010904/DTD/svg10.dtd">
<svg version="1.0" xmlns="http://www.w3.org/2000/svg"
 width="48.000000pt" height="48.000000pt" viewBox="0 0 48.000000 48.000000"
 preserveAspectRatio="xMidYMid meet">
<metadata>
Created by potrace 1.16, written by Peter Selinger 2001-2019
</metadata>
<g transform="translate(0.000000,48.000000) scale(0.100000,-0.100000)"
fill="currentColor" stroke="none">
<path d="M198 422 c-25 -11 -108 -89 -108 -103 0 -7 -16 -27 -35 -46 -60 -58
-59 -140 2 -194 33 -28 41 -31 90 -27 63 5 98 32 115 90 6 21 12 38 14 38 1 0
15 -5 29 -10 20 -8 43 -5 96 11 38 11 69 25 69 30 0 13 -10 11 -75 -11 l-59
-20 -58 22 c-40 16 -57 28 -55 38 3 16 4 16 55 6 27 -5 38 -1 58 19 30 31 30
50 -1 80 -36 37 -103 35 -147 -4 -18 -15 -43 -31 -55 -35 -44 -14 -23 24 41
73 36 29 45 31 118 31 67 0 84 -4 119 -26 22 -14 46 -23 52 -21 7 2 -10 18
-38 35 -46 29 -57 32 -130 31 -44 0 -87 -3 -97 -7z m126 -91 c19 -21 15 -56
-8 -64 -8 -3 -31 -1 -52 4 -33 7 -41 6 -56 -12 -21 -25 -15 -43 19 -58 22 -10
25 -16 19 -44 -9 -48 -57 -87 -107 -87 -33 0 -47 6 -75 34 -40 40 -45 83 -14
133 19 32 77 57 106 46 8 -3 14 1 14 8 0 7 12 23 28 36 35 29 102 31 126 4z
M111 239 c-30 -28 -23 -50 22 -72 40 -19 41 -37 2 -37 -13 0 -27 -5 -30 -10
-3 -5 0 -10 9 -10 8 0 16 -6 19 -12 3 -9 13 -3 30 15 32 33 26 53 -20 72 -42
18 -39 38 8 45 33 5 33 6 12 18 -28 15 -25 16 -52 -9z"/>
</g>
</svg>

