<?xml version="1.0" standalone="no"?>
<!DOCTYPE svg PUBLIC "-//W3C//DTD SVG 20010904//EN"
 "http://www.w3.org/TR/2001/REC-SVG-20010904/DTD/svg10.dtd">
<svg version="1.0" xmlns="http://www.w3.org/2000/svg"
 width="48.000000pt" height="48.000000pt" viewBox="0 0 48.000000 48.000000"
 preserveAspectRatio="xMidYMid meet">
<metadata>
Created by potrace 1.16, written by Peter Selinger 2001-2019
</metadata>
<g transform="translate(0.000000,48.000000) scale(0.100000,-0.100000)"
fill="currentColor" stroke="none">
<path d="M183 470 c-13 -5 -23 -17 -23 -27 0 -13 3 -14 12 -5 8 8 55 12 145
12 l133 0 0 -135 0 -135 -35 0 c-26 0 -45 -9 -75 -36 -40 -36 -40 -36 -40 -11
0 30 -26 55 -41 40 -8 -8 -7 -13 0 -17 6 -4 11 -22 11 -41 0 -50 17 -52 63 -7
29 27 54 41 81 45 22 4 44 11 50 17 17 17 15 275 -2 292 -16 16 -245 22 -279
8z M290 390 c-14 -17 -25 -35 -24 -40 1 -6 2 -14 3 -20 0 -5 19 -14 41 -20 57
-15 54 -40 -5 -40 -25 0 -45 -4 -45 -10 0 -5 7 -10 16 -10 9 0 23 -8 30 -17
12 -17 13 -17 19 0 4 9 13 17 20 17 19 0 29 38 15 55 -6 8 -27 19 -46 25 -44
15 -39 34 9 38 20 2 37 7 37 13 0 5 -5 9 -11 9 -7 0 -17 7 -23 15 -9 13 -15
11 -36 -15z M62 384 c-31 -21 -31 -87 0 -108 51 -36 108 -7 108 54 0 42 -26
70 -65 70 -11 0 -31 -7 -43 -16z m76 -16 c15 -15 15 -61 0 -76 -15 -15 -51
-15 -66 0 -7 7 -12 24 -12 38 0 31 17 50 45 50 12 0 26 -5 33 -12z M47 230
c-44 -35 -63 -138 -27 -147 15 -4 20 -14 20 -39 0 -19 5 -34 10 -34 17 0 12
80 -5 86 -10 4 -15 20 -15 49 0 36 5 48 28 65 l27 22 5 -56 c3 -31 10 -56 15
-56 6 0 12 25 15 56 l5 56 28 -22 c22 -17 27 -29 27 -65 0 -29 -5 -45 -15 -49
-17 -6 -22 -86 -5 -86 6 0 10 15 10 34 0 25 5 35 20 39 23 6 26 32 10 89 -20
71 -98 101 -153 58z"/>
</g>
</svg>

