<?xml version="1.0" standalone="no"?>
<!DOCTYPE svg PUBLIC "-//W3C//DTD SVG 20010904//EN"
 "http://www.w3.org/TR/2001/REC-SVG-20010904/DTD/svg10.dtd">
<svg version="1.0" xmlns="http://www.w3.org/2000/svg"
 width="48.000000pt" height="48.000000pt" viewBox="0 0 48.000000 48.000000"
 preserveAspectRatio="xMidYMid meet">
<metadata>
Created by potrace 1.16, written by Peter Selinger 2001-2019
</metadata>
<g transform="translate(0.000000,48.000000) scale(0.100000,-0.100000)"
fill="currentColor" stroke="none">
<path d="M182 471 c-11 -7 -11 -24 0 -103 14 -92 14 -96 -6 -121 -19 -23 -26
-24 -75 -20 -39 4 -52 3 -47 -6 4 -6 18 -11 32 -11 24 0 24 -1 24 -90 0 -89 0
-90 -24 -90 -32 0 -42 -17 -16 -25 27 -8 60 3 60 21 0 18 15 18 45 -2 51 -33
209 -30 219 4 15 49 26 165 16 177 -8 9 -7 39 3 101 8 49 13 92 10 97 -2 4
-42 7 -89 7 l-84 0 1 -27 c0 -16 3 -58 8 -95 4 -38 3 -68 -1 -68 -4 0 -8 -4
-8 -10 0 -5 33 -10 73 -12 82 -3 77 6 62 -110 l-6 -58 -88 0 c-75 0 -93 3
-122 23 -32 21 -34 27 -37 85 -2 51 0 62 13 62 8 0 23 9 32 19 9 11 22 17 29
14 18 -7 17 16 -11 184 l-6 32 78 3 c43 2 78 7 78 13 0 13 -145 18 -163 6z
m217 -133 c-5 -29 -12 -68 -15 -85 -5 -32 -7 -33 -50 -33 -51 0 -50 -2 -59 98
l-6 72 69 0 69 0 -8 -52z M320 300 c0 -13 5 -20 13 -17 6 2 12 10 12 17 0 7
-6 15 -12 18 -8 2 -13 -5 -13 -18z"/>
</g>
</svg>

