<?xml version="1.0" standalone="no"?>
<!DOCTYPE svg PUBLIC "-//W3C//DTD SVG 20010904//EN"
 "http://www.w3.org/TR/2001/REC-SVG-20010904/DTD/svg10.dtd">
<svg version="1.0" xmlns="http://www.w3.org/2000/svg"
 width="48.000000pt" height="48.000000pt" viewBox="0 0 48.000000 48.000000"
 preserveAspectRatio="xMidYMid meet">
<metadata>
Created by potrace 1.16, written by Peter Selinger 2001-2019
</metadata>
<g transform="translate(0.000000,48.000000) scale(0.100000,-0.100000)"
fill="currentColor" stroke="currentColor" stroke-width="6" stroke-linejoin="round">
<path d="M300 468 c-72 -13 -85 -33 -85 -138 0 -76 3 -92 20 -110 42 -42 178
-42 220 0 17 18 20 33 20 110 0 76 -3 92 -20 110 -26 25 -97 38 -155 28z m128
-34 c51 -35 8 -74 -83 -74 -62 0 -105 18 -105 45 0 42 139 64 188 29z m-83
-95 c28 0 62 4 78 10 25 10 27 9 27 -15 0 -47 -102 -70 -175 -40 -27 12 -35
21 -35 40 0 24 2 25 28 15 15 -6 50 -10 77 -10z m0 -74 c46 0 78 5 88 14 15
12 17 11 17 -12 0 -39 -34 -57 -105 -57 -71 0 -105 18 -105 57 0 23 2 24 17
12 10 -9 42 -14 88 -14z M7 193 c-9 -8 -9 -168 0 -176 3 -4 11 -2 18 3 6 5 81
11 166 12 147 3 154 4 157 24 4 29 -29 55 -80 61 -29 4 -50 14 -64 31 -17 21
-31 25 -95 29 -40 3 -79 9 -85 14 -6 5 -14 6 -17 2z m182 -57 c10 -12 7 -15
-21 -18 -66 -6 -32 -23 54 -26 61 -2 90 -7 98 -17 11 -13 -7 -15 -139 -15
l-151 0 0 45 0 45 74 0 c52 0 77 -4 85 -14z"/>
</g>
</svg>

