<?xml version="1.0" standalone="no"?>
<!DOCTYPE svg PUBLIC "-//W3C//DTD SVG 20010904//EN"
 "http://www.w3.org/TR/2001/REC-SVG-20010904/DTD/svg10.dtd">
<svg version="1.0" xmlns="http://www.w3.org/2000/svg"
 width="48.000000pt" height="48.000000pt" viewBox="0 0 48.000000 48.000000"
 preserveAspectRatio="xMidYMid meet">
<metadata>
Created by potrace 1.16, written by Peter Selinger 2001-2019
</metadata>
<g transform="translate(0.000000,48.000000) scale(0.100000,-0.100000)"
fill="currentColor" stroke="currentColor" stroke-width="6" stroke-linejoin="round">
<path d="M233 473 c-18 -7 -16 -34 3 -62 16 -22 16 -24 0 -33 -48 -27 -87
-102 -73 -140 5 -15 11 -3 22 45 6 30 36 65 70 84 19 11 19 13 2 47 l-17 36
75 0 76 0 -16 -30 c-20 -39 -20 -43 15 -63 64 -38 80 -134 35 -202 -31 -45
-26 -58 8 -21 65 70 46 196 -38 243 -17 10 -17 12 -1 34 20 30 21 55 0 63 -18
7 -143 7 -161 -1z M283 315 c-38 -37 -27 -65 30 -79 15 -4 27 -13 27 -22 0
-14 -7 -15 -42 -10 l-43 7 28 -26 27 -26 26 24 c34 32 28 59 -16 73 -19 6 -36
16 -38 23 -5 16 28 26 48 13 29 -18 32 -1 4 25 -14 12 -26 23 -27 22 -1 -1
-12 -11 -24 -24z M7 193 c-9 -8 -9 -168 0 -176 3 -4 11 -2 18 3 6 5 81 11 166
12 147 3 154 4 157 24 4 29 -29 55 -80 61 -29 4 -50 14 -64 31 -17 21 -31 25
-95 29 -40 3 -79 9 -85 14 -6 5 -14 6 -17 2z m182 -57 c10 -12 7 -15 -21 -18
-66 -6 -32 -23 54 -26 61 -2 90 -7 98 -17 11 -13 -7 -15 -139 -15 l-151 0 0
45 0 45 74 0 c52 0 77 -4 85 -14z"/>
</g>
</svg>

