<?xml version="1.0" standalone="no"?>
<!DOCTYPE svg PUBLIC "-//W3C//DTD SVG 20010904//EN"
 "http://www.w3.org/TR/2001/REC-SVG-20010904/DTD/svg10.dtd">
<svg version="1.0" xmlns="http://www.w3.org/2000/svg"
 width="48.000000pt" height="48.000000pt" viewBox="0 0 48.000000 48.000000"
 preserveAspectRatio="xMidYMid meet">
<metadata>
Created by potrace 1.16, written by Peter Selinger 2001-2019
</metadata>
<g transform="translate(0.000000,48.000000) scale(0.100000,-0.100000)"
fill="currentColor" stroke="currentColor" stroke-width="6" stroke-linejoin="round">
<path d="M9 423 c-6 -17 -9 -97 -7 -201 2 -140 6 -175 18 -182 8 -5 111 -10
228 -10 l212 0 11 27 c6 17 9 97 7 201 -2 140 -6 175 -18 182 -8 5 -111 10
-228 10 l-212 0 -11 -27z m441 -28 l0 -35 -210 0 -210 0 0 35 0 35 210 0 210
0 0 -35z m0 -200 l0 -145 -210 0 -210 0 0 145 0 145 210 0 210 0 0 -145z M183
268 c-29 -22 -53 -45 -53 -49 0 -5 50 -9 110 -9 61 0 110 4 110 9 0 8 -102 91
-111 91 -2 0 -28 -19 -56 -42z m97 -13 l23 -25 -63 0 -63 0 23 25 c13 14 31
25 40 25 9 0 27 -11 40 -25z M160 145 c0 -24 -5 -35 -15 -35 -8 0 -15 -4 -15
-10 0 -6 43 -10 110 -10 67 0 110 4 110 10 0 6 -7 10 -15 10 -10 0 -15 11 -15
35 0 19 -4 35 -10 35 -5 0 -10 -16 -10 -35 0 -31 -3 -35 -25 -35 -22 0 -25 4
-25 35 0 19 -4 35 -10 35 -5 0 -10 -16 -10 -35 0 -31 -3 -35 -25 -35 -22 0
-25 4 -25 35 0 19 -4 35 -10 35 -5 0 -10 -16 -10 -35z"/>
</g>
</svg>

