<?xml version="1.0" standalone="no"?>
<!DOCTYPE svg PUBLIC "-//W3C//DTD SVG 20010904//EN"
 "http://www.w3.org/TR/2001/REC-SVG-20010904/DTD/svg10.dtd">
<svg version="1.0" xmlns="http://www.w3.org/2000/svg"
 width="48.000000pt" height="48.000000pt" viewBox="0 0 48.000000 48.000000"
 preserveAspectRatio="xMidYMid meet">
<metadata>
Created by potrace 1.16, written by Peter Selinger 2001-2019
</metadata>
<g transform="translate(0.000000,48.000000) scale(0.100000,-0.100000)"
fill="currentColor" stroke="currentColor" stroke-width="6" stroke-linejoin="round">
<path d="M62 448 c-15 -15 -16 -148 -2 -148 6 0 10 14 10 30 l0 30 190 0 191
0 -3 -127 -3 -128 -52 -3 c-65 -4 -71 -22 -7 -22 85 0 84 -2 84 190 0 157 -1
170 -19 180 -29 15 -374 13 -389 -2z m386 -40 l3 -28 -190 0 -191 0 0 23 c0
13 3 27 7 31 4 3 88 5 187 4 l181 -3 3 -27z M72 239 c-34 -28 -59 -55 -56 -60
7 -12 264 -12 264 1 0 11 -121 110 -135 110 -5 -1 -38 -23 -73 -51z m138 -18
l35 -30 -92 -1 c-51 0 -93 3 -93 8 1 4 20 21 42 39 46 35 49 34 108 -16z M50
85 c0 -39 -3 -45 -21 -45 -11 0 -17 -4 -14 -10 4 -6 60 -10 136 -10 79 0 129
4 129 10 0 6 -6 10 -14 10 -10 0 -16 14 -18 43 -2 23 -7 42 -13 42 -5 0 -11
-19 -13 -42 -3 -40 -5 -43 -33 -43 -27 0 -29 2 -29 39 0 55 -18 61 -22 9 -3
-40 -5 -43 -35 -46 -33 -3 -33 -3 -33 42 0 25 -4 46 -10 46 -5 0 -10 -20 -10
-45z"/>
</g>
</svg>

