<?xml version="1.0" standalone="no"?>
<!DOCTYPE svg PUBLIC "-//W3C//DTD SVG 20010904//EN"
 "http://www.w3.org/TR/2001/REC-SVG-20010904/DTD/svg10.dtd">
<svg version="1.0" xmlns="http://www.w3.org/2000/svg"
 width="48.000000pt" height="48.000000pt" viewBox="0 0 48.000000 48.000000"
 preserveAspectRatio="xMidYMid meet">
<metadata>
Created by potrace 1.16, written by Peter Selinger 2001-2019
</metadata>
<g transform="translate(0.000000,48.000000) scale(0.100000,-0.100000)"
fill="currentColor" stroke="currentColor" stroke-width="6" stroke-linejoin="round">
<path d="M331 466 c-65 -21 -94 -104 -57 -161 49 -74 164 -59 192 26 29 86
-49 164 -135 135z m96 -38 c31 -29 32 -92 1 -125 -29 -31 -92 -32 -125 -1 -31
29 -32 92 -1 125 29 31 92 32 125 1z M343 386 l-21 -22 22 -21 22 -21 21 22
21 22 -22 21 -22 21 -21 -22z M24 366 c-17 -13 -19 -27 -19 -124 0 -129 2
-132 107 -193 98 -57 138 -49 138 29 0 26 4 31 34 36 41 8 58 26 59 65 3 44
-17 42 -21 -1 -3 -36 -5 -38 -38 -38 -33 0 -34 1 -34 39 0 69 -18 99 -76 133
-30 16 -57 34 -60 39 -3 5 20 9 50 9 31 0 56 5 56 10 0 16 -173 13 -196 -4z
m139 -71 c59 -34 67 -53 67 -155 0 -90 -5 -110 -29 -110 -19 0 -152 76 -163
93 -4 7 -8 60 -8 119 0 118 5 127 55 98 17 -10 52 -30 78 -45z M147 174 c-9
-10 4 -34 19 -34 8 0 14 9 14 20 0 19 -19 27 -33 14z"/>
</g>
</svg>

