<?xml version="1.0" standalone="no"?>
<!DOCTYPE svg PUBLIC "-//W3C//DTD SVG 20010904//EN"
 "http://www.w3.org/TR/2001/REC-SVG-20010904/DTD/svg10.dtd">
<svg version="1.0" xmlns="http://www.w3.org/2000/svg"
 width="48.000000pt" height="48.000000pt" viewBox="0 0 48.000000 48.000000"
 preserveAspectRatio="xMidYMid meet">
<metadata>
Created by potrace 1.16, written by Peter Selinger 2001-2019
</metadata>
<g transform="translate(0.000000,48.000000) scale(0.100000,-0.100000)"
fill="currentColor" stroke="none">
<path d="M219 363 c-87 -88 -108 -116 -117 -151 -5 -23 -6 -44 -1 -48 5 -2 28
0 51 6 34 9 64 32 140 108 77 76 100 94 110 84 9 -9 4 -20 -25 -50 -53 -54
-46 -75 8 -22 47 46 55 69 31 90 -8 6 -12 18 -9 26 7 20 -35 64 -61 64 -14 0
-60 -39 -127 -107z m162 65 c9 -17 5 -26 -22 -54 -38 -39 -49 -41 -74 -14 -18
20 -18 21 19 59 40 41 59 43 77 9z m-103 -91 l22 -23 -58 -57 c-37 -36 -69
-59 -90 -63 -32 -7 -33 -6 -26 22 6 25 108 144 124 144 4 0 16 -10 28 -23z
M33 290 c-28 -11 -36 -53 -32 -169 3 -56 9 -95 17 -103 19 -19 425 -19 444 0
17 17 24 206 9 245 -6 15 -18 27 -28 27 -13 0 -14 -3 -5 -12 8 -8 12 -52 12
-130 l0 -118 -210 0 -210 0 0 119 c0 113 1 120 20 123 12 2 21 7 21 13 1 13
-12 15 -38 5z M265 170 c-3 -5 0 -13 8 -16 23 -8 127 0 130 11 3 14 -129 19
-138 5z M200 90 c0 -6 42 -10 105 -10 63 0 105 4 105 10 0 6 -42 10 -105 10
-63 0 -105 -4 -105 -10z"/>
</g>
</svg>

