<?xml version="1.0" standalone="no"?>
<!DOCTYPE svg PUBLIC "-//W3C//DTD SVG 20010904//EN"
 "http://www.w3.org/TR/2001/REC-SVG-20010904/DTD/svg10.dtd">
<svg version="1.0" xmlns="http://www.w3.org/2000/svg"
 width="48.000000pt" height="48.000000pt" viewBox="0 0 48.000000 48.000000"
 preserveAspectRatio="xMidYMid meet">
<metadata>
Created by potrace 1.16, written by Peter Selinger 2001-2019
</metadata>
<g transform="translate(0.000000,48.000000) scale(0.100000,-0.100000)"
fill="currentColor" stroke="none">
<path d="M127 433 c-23 -6 -37 -43 -37 -98 0 -42 -2 -46 -40 -65 -22 -11 -40
-25 -40 -30 0 -13 6 -13 41 5 16 9 37 14 47 13 15 -3 17 8 20 74 l3 77 47 3
c26 2 47 8 47 13 0 11 -59 16 -88 8z M378 434 c-14 -13 3 -24 38 -24 l34 0 0
-100 0 -100 -95 0 c-57 0 -95 -4 -95 -10 0 -5 16 -10 36 -10 l36 0 -7 -48 c-8
-55 -11 -62 -31 -62 -9 0 -14 11 -14 33 0 48 -9 51 -47 16 -26 -26 -34 -29
-38 -17 -4 9 1 32 9 53 21 50 20 72 -4 85 -16 8 -32 4 -80 -20 -33 -17 -60
-35 -60 -40 0 -14 4 -13 71 20 49 25 60 28 65 16 3 -9 -4 -29 -15 -45 -23 -32
-135 -111 -157 -111 -8 0 -14 -4 -14 -10 0 -5 5 -10 10 -10 18 0 105 47 119
64 17 20 31 21 31 1 0 -25 34 -36 58 -19 21 14 23 14 32 -10 7 -18 17 -26 34
-26 30 0 42 19 51 82 l7 48 47 0 c73 0 76 5 76 119 0 59 -4 104 -11 111 -14
14 -77 24 -86 14z M262 406 c-32 -31 -25 -58 18 -72 19 -6 36 -16 38 -23 5
-16 -28 -26 -48 -13 -29 18 -32 1 -5 -24 l25 -23 25 23 c40 37 30 66 -27 80
-16 4 -28 13 -28 22 0 14 7 15 43 10 l42 -7 -27 26 c-15 14 -28 25 -30 24 -2
0 -14 -11 -26 -23z"/>
</g>
</svg>

