<?xml version="1.0" standalone="no"?>
<!DOCTYPE svg PUBLIC "-//W3C//DTD SVG 20010904//EN"
 "http://www.w3.org/TR/2001/REC-SVG-20010904/DTD/svg10.dtd">
<svg version="1.0" xmlns="http://www.w3.org/2000/svg"
 width="48.000000pt" height="48.000000pt" viewBox="0 0 48.000000 48.000000"
 preserveAspectRatio="xMidYMid meet">
<metadata>
Created by potrace 1.16, written by Peter Selinger 2001-2019
</metadata>
<g transform="translate(0.000000,48.000000) scale(0.100000,-0.100000)"
fill="currentColor" stroke="none">
<path d="M127 443 c-20 -5 -41 -49 -31 -64 8 -14 24 0 24 21 0 17 9 19 68 22
38 2 66 7 65 13 -3 11 -95 17 -126 8z M388 444 c-13 -12 3 -24 33 -24 l29 0 0
-105 0 -105 -125 0 c-77 0 -125 -4 -125 -10 0 -6 26 -10 59 -10 l60 0 -16 -37
c-8 -21 -20 -41 -27 -45 -6 -4 -53 -8 -105 -8 -82 0 -99 -3 -128 -23 -31 -21
-42 -37 -25 -37 4 0 21 9 37 20 24 16 47 20 118 20 49 0 97 5 109 11 11 6 29
31 39 55 20 44 20 44 72 44 80 0 82 3 82 124 0 59 -5 110 -10 115 -14 14 -68
24 -77 15z M280 394 c-30 -29 -20 -54 28 -69 33 -10 42 -32 18 -41 -8 -3 -24
-1 -35 6 -27 14 -27 2 0 -26 l21 -22 24 21 c35 30 32 66 -6 73 -38 8 -59 31
-36 40 9 3 27 3 41 0 32 -8 32 7 0 28 -29 19 -25 20 -55 -10z M125 330 c-56
-22 -124 -74 -112 -86 4 -4 17 2 30 14 24 23 128 72 152 72 8 0 15 -7 15 -15
0 -8 -3 -15 -8 -15 -19 0 -72 -61 -72 -83 0 -18 -8 -28 -30 -37 -28 -12 -41
-30 -20 -30 30 0 61 26 70 59 6 22 24 47 45 64 25 20 35 35 33 50 -4 29 -39
32 -103 7z"/>
</g>
</svg>

