<?xml version="1.0" standalone="no"?>
<!DOCTYPE svg PUBLIC "-//W3C//DTD SVG 20010904//EN"
 "http://www.w3.org/TR/2001/REC-SVG-20010904/DTD/svg10.dtd">
<svg version="1.0" xmlns="http://www.w3.org/2000/svg"
 width="48.000000pt" height="48.000000pt" viewBox="0 0 48.000000 48.000000"
 preserveAspectRatio="xMidYMid meet">
<metadata>
Created by potrace 1.16, written by Peter Selinger 2001-2019
</metadata>
<g transform="translate(0.000000,48.000000) scale(0.100000,-0.100000)"
fill="currentColor" stroke="none">
<path d="M203 473 c-7 -2 -13 -17 -13 -33 0 -42 -21 -54 -58 -33 -25 15 -34
15 -44 5 -10 -10 -8 -14 10 -18 20 -6 22 -13 22 -64 0 -50 -3 -58 -21 -63 -12
-3 -18 -10 -14 -16 9 -16 45 -13 51 4 7 17 13 18 34 5 12 -8 11 -12 -7 -32
-12 -13 -29 -40 -38 -60 -41 -99 5 -159 123 -159 132 -1 181 61 133 166 -10
22 -25 46 -33 52 -13 11 -12 20 5 72 21 65 18 90 -13 98 -24 6 -23 5 -8 38 10
22 9 28 -3 36 -15 9 -105 11 -126 2z m107 -29 c0 -3 -5 -14 -10 -25 -16 -29
-64 -25 -78 6 -12 25 -11 25 38 25 28 0 50 -3 50 -6z m-23 -64 c69 0 68 1 52
-66 l-11 -44 -64 0 c-88 0 -114 14 -114 59 0 29 6 39 28 52 15 9 31 12 37 8 5
-5 37 -9 72 -9z m63 -193 c59 -103 26 -157 -95 -157 -114 0 -151 50 -105 141
34 66 47 74 113 71 l58 -4 29 -51z M232 206 c-32 -31 -25 -58 18 -72 19 -6 36
-16 38 -23 5 -16 -28 -26 -48 -13 -29 18 -32 1 -5 -24 l25 -23 25 23 c40 37
30 66 -27 80 -16 4 -28 13 -28 22 0 14 7 15 43 10 l42 -7 -27 26 c-15 14 -28
25 -30 24 -2 0 -14 -11 -26 -23z"/>
</g>
</svg>

