<?xml version="1.0" standalone="no"?>
<!DOCTYPE svg PUBLIC "-//W3C//DTD SVG 20010904//EN"
 "http://www.w3.org/TR/2001/REC-SVG-20010904/DTD/svg10.dtd">
<svg version="1.0" xmlns="http://www.w3.org/2000/svg"
 width="48.000000pt" height="48.000000pt" viewBox="0 0 48.000000 48.000000"
 preserveAspectRatio="xMidYMid meet">
<metadata>
Created by potrace 1.16, written by Peter Selinger 2001-2019
</metadata>
<g transform="translate(0.000000,48.000000) scale(0.100000,-0.100000)"
fill="currentColor" stroke="none">
<path d="M53 470 c-30 -13 -35 -48 -31 -242 2 -120 7 -171 16 -180 9 -9 48
-13 128 -14 75 0 118 -4 126 -12 21 -21 31 -13 14 13 -9 13 -16 37 -16 53 0
19 -14 47 -40 80 -62 78 -52 95 21 37 24 -19 46 -30 48 -24 1 6 -4 16 -14 23
-12 8 -16 23 -13 51 l3 39 38 -33 c34 -31 37 -37 37 -89 0 -45 6 -66 32 -109
18 -29 36 -53 40 -53 13 0 9 14 -16 50 -17 26 -24 53 -28 104 -4 69 -5 70 -55
115 -49 44 -51 48 -55 109 -2 34 -10 68 -17 75 -15 15 -186 21 -218 7z m207
-125 c0 -100 -1 -105 -19 -94 -25 16 -51 5 -51 -22 0 -11 16 -39 35 -62 25
-29 35 -50 35 -74 l0 -33 -105 0 -105 0 0 195 0 195 105 0 105 0 0 -105z M84
406 c-4 -10 -2 -22 4 -28 8 -8 13 -7 18 6 4 10 2 22 -4 28 -8 8 -13 7 -18 -6z
M106 305 c-40 -40 -19 -114 33 -115 8 0 4 10 -13 25 -29 26 -31 37 -16 66 8
14 21 19 51 19 24 0 38 4 34 10 -10 15 -72 12 -89 -5z M205 120 c-4 -6 -3 -16
3 -22 6 -6 12 -6 17 2 4 6 3 16 -3 22 -6 6 -12 6 -17 -2z"/>
</g>
</svg>

