<?xml version="1.0" standalone="no"?>
<!DOCTYPE svg PUBLIC "-//W3C//DTD SVG 20010904//EN"
 "http://www.w3.org/TR/2001/REC-SVG-20010904/DTD/svg10.dtd">
<svg version="1.0" xmlns="http://www.w3.org/2000/svg"
 width="48.000000pt" height="48.000000pt" viewBox="0 0 48.000000 48.000000"
 preserveAspectRatio="xMidYMid meet">
<metadata>
Created by potrace 1.16, written by Peter Selinger 2001-2019
</metadata>
<g transform="translate(0.000000,48.000000) scale(0.100000,-0.100000)"
fill="currentColor" stroke="none">
<path d="M198 445 c-17 -37 -92 -77 -124 -65 -19 8 -28 6 -44 -10 -25 -25 -25
-42 0 -65 28 -25 28 -104 0 -128 -23 -20 -25 -36 -7 -61 10 -14 22 -17 48 -13
43 6 105 -26 125 -65 20 -39 68 -39 88 0 20 39 82 71 128 65 33 -5 39 -2 49
21 11 23 9 29 -9 49 -29 31 -30 97 -2 135 23 31 19 57 -11 73 -13 6 -25 6 -38
0 -25 -14 -103 28 -119 64 -16 35 -68 35 -84 0z m68 -6 c3 -6 -1 -18 -10 -27
-15 -15 -17 -15 -32 0 -19 19 -11 38 16 38 10 0 22 -5 26 -11z m-46 -51 c16
-10 24 -10 40 0 16 10 27 8 65 -10 26 -13 45 -29 45 -38 0 -9 9 -25 20 -35 28
-25 28 -105 0 -130 -11 -10 -20 -26 -20 -35 0 -9 -19 -25 -45 -38 -38 -18 -49
-20 -65 -10 -16 10 -24 10 -40 0 -16 -10 -27 -8 -65 10 -25 12 -45 27 -45 34
0 6 -9 23 -20 37 -27 34 -27 100 0 134 11 14 20 31 20 37 0 9 65 50 88 55 1 1
11 -5 22 -11z m-130 -47 c0 -5 -7 -14 -16 -21 -12 -11 -18 -10 -31 3 -23 22 0
52 28 36 10 -5 19 -13 19 -18z m360 0 c0 -5 -7 -14 -16 -21 -12 -11 -18 -10
-31 3 -23 22 0 52 28 36 10 -5 19 -13 19 -18z m-370 -186 c15 -18 5 -35 -20
-35 -23 0 -32 13 -24 34 8 20 28 21 44 1z m364 -1 c8 -21 -1 -34 -24 -34 -10
0 -21 4 -24 9 -10 16 5 41 24 41 10 0 21 -7 24 -16z m-184 -89 c6 -8 9 -19 5
-25 -8 -13 -42 -13 -50 0 -7 11 12 40 25 40 4 0 13 -7 20 -15z M212 306 c-32
-31 -25 -58 18 -72 19 -6 36 -16 38 -23 6 -17 -28 -26 -49 -13 -28 18 -31 -3
-4 -26 l25 -22 25 22 c41 35 29 72 -25 80 -14 1 -25 10 -25 18 0 11 10 14 40
13 l40 -3 -27 25 c-15 14 -28 25 -30 24 -2 0 -14 -11 -26 -23z"/>
</g>
</svg>

