<?xml version="1.0" standalone="no"?>
<!DOCTYPE svg PUBLIC "-//W3C//DTD SVG 20010904//EN"
 "http://www.w3.org/TR/2001/REC-SVG-20010904/DTD/svg10.dtd">
<svg version="1.0" xmlns="http://www.w3.org/2000/svg"
 width="48.000000pt" height="48.000000pt" viewBox="0 0 48.000000 48.000000"
 preserveAspectRatio="xMidYMid meet">
<metadata>
Created by potrace 1.16, written by Peter Selinger 2001-2019
</metadata>
<g transform="translate(0.000000,48.000000) scale(0.100000,-0.100000)"
fill="currentColor" stroke="currentColor" stroke-width="6" stroke-linejoin="round">
<path d="M253 450 c-87 -52 -83 -198 6 -245 98 -50 211 16 211 123 0 85 -56
142 -140 142 -27 0 -58 -8 -77 -20z m163 -34 c30 -30 34 -40 34 -86 0 -46 -4
-56 -34 -86 -30 -30 -40 -34 -86 -34 -46 0 -56 4 -86 34 -50 50 -50 122 0 172
30 30 40 34 86 34 46 0 56 -4 86 -34z M303 397 c-35 -34 -29 -56 17 -74 47
-19 47 -37 2 -41 -31 -3 -46 -22 -18 -22 8 0 16 -5 18 -12 6 -17 58 32 58 55
0 13 -13 24 -40 34 -47 19 -47 37 -2 41 32 3 46 22 17 22 -8 0 -15 5 -15 10 0
16 -13 11 -37 -13z M7 193 c-9 -8 -9 -168 0 -176 3 -4 11 -2 18 3 6 5 81 11
166 12 147 3 154 4 157 24 4 29 -29 55 -80 61 -29 4 -50 14 -64 31 -17 21 -31
25 -95 29 -40 3 -79 9 -85 14 -6 5 -14 6 -17 2z m182 -57 c10 -12 7 -15 -21
-18 -66 -6 -32 -23 54 -26 61 -2 90 -7 98 -17 11 -13 -7 -15 -139 -15 l-151 0
0 45 0 45 74 0 c52 0 77 -4 85 -14z"/>
</g>
</svg>

