<?xml version="1.0" standalone="no"?>
<!DOCTYPE svg PUBLIC "-//W3C//DTD SVG 20010904//EN"
 "http://www.w3.org/TR/2001/REC-SVG-20010904/DTD/svg10.dtd">
<svg version="1.0" xmlns="http://www.w3.org/2000/svg"
 width="48.000000pt" height="48.000000pt" viewBox="0 0 48.000000 48.000000"
 preserveAspectRatio="xMidYMid meet">
<metadata>
Created by potrace 1.16, written by Peter Selinger 2001-2019
</metadata>
<g transform="translate(0.000000,48.000000) scale(0.100000,-0.100000)"
fill="currentColor" stroke="none">
<path d="M110 460 c-17 -17 -20 -33 -20 -110 0 -131 -1 -130 195 -130 196 0
195 -1 195 130 0 131 1 130 -195 130 -142 0 -157 -2 -175 -20z m340 -110 l0
-100 -165 0 -165 0 0 100 0 100 165 0 165 0 0 -100z M150 400 c0 -5 11 -10 25
-10 14 0 25 5 25 10 0 6 -11 10 -25 10 -14 0 -25 -4 -25 -10z M262 399 c-41
-16 -38 -90 6 -101 29 -8 61 9 68 36 12 48 -27 82 -74 65z m53 -49 c0 -20 -6
-26 -28 -28 -18 -2 -29 2 -33 12 -11 28 4 48 33 44 22 -2 28 -8 28 -28z M370
300 c0 -5 11 -10 25 -10 14 0 25 5 25 10 0 6 -11 10 -25 10 -14 0 -25 -4 -25
-10z M7 193 c-9 -8 -9 -168 0 -176 3 -4 11 -2 18 3 6 5 81 11 166 12 147 3
154 4 157 24 4 29 -29 55 -80 61 -29 4 -50 14 -64 31 -17 21 -31 25 -95 29
-40 3 -79 9 -85 14 -6 5 -14 6 -17 2z m182 -57 c10 -12 7 -15 -21 -18 -66 -6
-32 -23 54 -26 61 -2 90 -7 98 -17 11 -13 -7 -15 -139 -15 l-151 0 0 45 0 45
74 0 c52 0 77 -4 85 -14z"/>
</g>
</svg>

