<?xml version="1.0" standalone="no"?>
<!DOCTYPE svg PUBLIC "-//W3C//DTD SVG 20010904//EN"
 "http://www.w3.org/TR/2001/REC-SVG-20010904/DTD/svg10.dtd">
<svg version="1.0" xmlns="http://www.w3.org/2000/svg"
 width="48.000000pt" height="48.000000pt" viewBox="0 0 48.000000 48.000000"
 preserveAspectRatio="xMidYMid meet">
<metadata>
Created by potrace 1.16, written by Peter Selinger 2001-2019
</metadata>
<g transform="translate(0.000000,48.000000) scale(0.100000,-0.100000)"
fill="currentColor" stroke="currentColor" stroke-width="6" stroke-linejoin="round">
<path d="M12 468 c-18 -18 -17 -322 2 -337 17 -14 205 -11 209 4 1 6 -11 11
-28 13 -21 2 -50 23 -97 70 -38 37 -68 73 -68 82 0 9 30 46 68 83 l68 67 74 0
c74 0 75 0 117 -42 51 -50 72 -43 23 7 l-34 35 51 0 52 0 3 -35 c4 -46 22 -46
26 0 6 64 4 65 -237 65 -155 0 -220 -3 -229 -12z m118 -21 c0 -1 -22 -25 -50
-52 l-50 -49 0 52 0 52 50 0 c28 0 50 -1 50 -3z m-45 -247 l49 -50 -52 0 -52
0 0 50 c0 28 1 50 3 50 1 0 25 -22 52 -50z M353 322 c-29 -4 -73 -49 -74 -76
-2 -37 3 -59 18 -82 11 -18 13 -38 8 -89 -7 -61 -6 -65 13 -65 11 0 25 7 32
15 7 8 18 15 25 15 7 0 18 -7 25 -15 7 -8 21 -15 32 -15 19 0 20 4 13 65 -5
51 -3 71 8 89 52 78 -7 172 -100 158z m77 -42 c12 -12 20 -33 20 -55 0 -46
-29 -75 -75 -75 -46 0 -75 29 -75 75 0 22 8 43 20 55 12 12 33 20 55 20 22 0
43 -8 55 -20z m-5 -197 c8 -55 2 -63 -28 -35 l-23 22 -22 -22 c-28 -29 -35
-20 -27 35 l7 45 43 0 43 0 7 -45z M360 225 c0 -8 7 -15 15 -15 8 0 15 7 15
15 0 8 -7 15 -15 15 -8 0 -15 -7 -15 -15z"/>
</g>
</svg>

