<?xml version="1.0" standalone="no"?>
<!DOCTYPE svg PUBLIC "-//W3C//DTD SVG 20010904//EN"
 "http://www.w3.org/TR/2001/REC-SVG-20010904/DTD/svg10.dtd">
<svg version="1.0" xmlns="http://www.w3.org/2000/svg"
 width="48.000000pt" height="48.000000pt" viewBox="0 0 48.000000 48.000000"
 preserveAspectRatio="xMidYMid meet">
<metadata>
Created by potrace 1.16, written by Peter Selinger 2001-2019
</metadata>
<g transform="translate(0.000000,48.000000) scale(0.100000,-0.100000)"
fill="currentColor" stroke="currentColor" stroke-width="6" stroke-linejoin="round">
<path d="M353 444 c-6 -18 -20 -30 -43 -38 -28 -9 -37 -18 -44 -47 -8 -31 -15
-39 -48 -48 -31 -10 -40 -18 -45 -41 -6 -34 -17 -45 -55 -54 -21 -5 -30 -15
-38 -45 -8 -31 -16 -40 -40 -45 -17 -3 -30 -10 -30 -16 0 -6 10 -8 25 -4 20 5
25 2 25 -13 0 -25 19 -43 38 -36 12 5 14 1 8 -20 -9 -37 10 -34 23 3 6 19 17
30 28 30 29 0 61 28 68 59 5 22 14 31 35 36 33 7 49 23 59 61 5 19 16 30 35
35 38 10 53 25 59 58 4 20 14 31 32 35 14 4 25 11 25 17 0 6 -9 8 -20 4 -15
-5 -20 -2 -20 13 0 26 -23 44 -45 36 -15 -6 -17 -3 -11 19 8 35 -10 35 -21 1z
m55 -55 c-2 -12 -13 -26 -25 -30 -20 -7 -23 -5 -23 16 0 21 10 29 43 34 5 0 7
-9 5 -20z m-68 -24 c0 -25 8 -29 42 -26 18 2 16 -20 -5 -46 -11 -15 -51 -18
-43 -4 11 18 -6 41 -31 41 -21 0 -23 3 -17 23 13 42 54 52 54 12z m-27 -72
c-12 -34 -43 -44 -43 -15 0 23 8 32 31 32 13 0 17 -5 12 -17z m-35 -47 c20 1
22 -3 17 -25 -8 -30 -5 -27 -32 -35 -18 -6 -22 -3 -25 21 -2 20 -9 29 -25 31
-36 5 -26 46 12 54 15 3 21 -3 25 -22 4 -18 12 -25 28 -24z m-60 -48 c-2 -15
-11 -24 -25 -26 -27 -4 -30 10 -7 32 22 23 36 20 32 -6z m-62 -20 c-1 -18 5
-24 27 -26 24 -3 27 -7 21 -25 -8 -27 -4 -24 -37 -32 -24 -6 -27 -5 -27 19 0
23 -9 31 -32 27 -13 -2 -9 47 5 52 28 12 44 7 43 -15z m-36 -73 c0 -18 -5 -25
-20 -25 -25 0 -26 25 -2 39 23 14 22 14 22 -14z"/>
</g>
</svg>

