<?xml version="1.0" standalone="no"?>
<!DOCTYPE svg PUBLIC "-//W3C//DTD SVG 20010904//EN"
 "http://www.w3.org/TR/2001/REC-SVG-20010904/DTD/svg10.dtd">
<svg version="1.0" xmlns="http://www.w3.org/2000/svg"
 width="48.000000pt" height="48.000000pt" viewBox="0 0 48.000000 48.000000"
 preserveAspectRatio="xMidYMid meet">
<metadata>
Created by potrace 1.16, written by Peter Selinger 2001-2019
</metadata>
<g transform="translate(0.000000,48.000000) scale(0.100000,-0.100000)"
fill="currentColor" stroke="none">
<path d="M431 446 c-19 -20 -28 -23 -47 -16 -35 14 -62 -1 -117 -58 -52 -56
-53 -60 -33 -88 13 -16 12 -21 -1 -36 -11 -13 -21 -15 -39 -8 -35 14 -62 -1
-117 -58 -52 -56 -53 -60 -33 -88 13 -17 12 -22 -11 -46 -34 -36 -21 -49 15
-16 21 20 32 24 50 17 31 -12 60 2 103 48 43 46 51 65 39 97 -12 33 13 58 46
46 32 -12 51 -4 97 39 47 43 60 73 47 105 -7 19 -4 28 16 47 24 23 31 39 16
39 -5 0 -19 -11 -31 -24z m-57 -32 c13 -5 14 -9 5 -20 -15 -19 -4 -30 15 -15
18 15 30 -12 17 -37 -14 -26 -74 -80 -91 -82 -38 -5 -44 0 -25 20 23 25 12 39
-14 16 -17 -15 -19 -15 -32 0 -11 14 -6 23 43 70 61 58 59 57 82 48z m-189
-190 c14 -6 14 -8 -1 -25 -22 -25 -10 -37 15 -15 17 15 19 15 25 1 8 -21 -4
-42 -46 -82 -32 -30 -47 -37 -77 -34 -11 1 -11 4 -1 16 16 19 5 32 -13 16 -11
-9 -17 -8 -28 5 -11 14 -6 23 43 70 61 58 59 57 83 48z"/>
</g>
</svg>

