<?xml version="1.0" standalone="no"?>
<!DOCTYPE svg PUBLIC "-//W3C//DTD SVG 20010904//EN"
 "http://www.w3.org/TR/2001/REC-SVG-20010904/DTD/svg10.dtd">
<svg version="1.0" xmlns="http://www.w3.org/2000/svg"
 width="48.000000pt" height="48.000000pt" viewBox="0 0 48.000000 48.000000"
 preserveAspectRatio="xMidYMid meet">
<metadata>
Created by potrace 1.16, written by Peter Selinger 2001-2019
</metadata>
<g transform="translate(0.000000,48.000000) scale(0.100000,-0.100000)"
fill="currentColor" stroke="none">
<path d="M368 428 c-8 -7 -50 -60 -93 -117 l-77 -103 -48 47 c-33 32 -57 48
-74 48 -37 0 -66 -30 -66 -67 0 -26 14 -46 83 -113 45 -45 89 -83 97 -84 42
-8 68 15 173 156 88 119 107 151 107 179 0 54 -61 86 -102 54z m63 -18 c38
-21 23 -57 -88 -206 -88 -118 -112 -144 -133 -144 -31 0 -180 144 -180 175 0
59 56 59 119 0 26 -25 51 -45 54 -45 4 0 41 46 83 103 99 132 106 137 145 117z"/>
</g>
</svg>

