<?xml version="1.0" standalone="no"?>
<!DOCTYPE svg PUBLIC "-//W3C//DTD SVG 20010904//EN"
 "http://www.w3.org/TR/2001/REC-SVG-20010904/DTD/svg10.dtd">
<svg version="1.0" xmlns="http://www.w3.org/2000/svg"
 width="48.000000pt" height="48.000000pt" viewBox="0 0 48.000000 48.000000"
 preserveAspectRatio="xMidYMid meet">
<metadata>
Created by potrace 1.16, written by Peter Selinger 2001-2019
</metadata>
<g transform="translate(0.000000,48.000000) scale(0.100000,-0.100000)"
fill="currentColor" stroke="none">
<path d="M20 460 c-19 -19 -20 -33 -20 -220 0 -187 1 -201 20 -220 19 -19 33
-20 220 -20 187 0 201 1 220 20 19 19 20 33 20 220 0 187 -1 201 -20 220 -19
19 -33 20 -220 20 -187 0 -201 -1 -220 -20z m430 -220 l0 -210 -210 0 -210 0
0 210 0 210 210 0 210 0 0 -210z M199 353 c-19 -26 -37 -51 -41 -57 -4 -7 -19
0 -37 18 -43 41 -52 23 -11 -19 19 -19 37 -35 40 -35 7 0 100 125 100 134 0
17 -20 1 -51 -41z M285 320 c-3 -5 0 -13 8 -16 23 -8 82 0 82 11 0 14 -82 19
-90 5z M199 173 c-19 -26 -37 -51 -41 -57 -4 -7 -19 0 -37 18 -43 41 -52 23
-11 -19 19 -19 37 -35 40 -35 7 0 100 125 100 134 0 17 -20 1 -51 -41z M285
140 c-3 -5 0 -13 8 -16 23 -8 82 0 82 11 0 14 -82 19 -90 5z"/>
</g>
</svg>

