<?xml version="1.0" standalone="no"?>
<!DOCTYPE svg PUBLIC "-//W3C//DTD SVG 20010904//EN"
 "http://www.w3.org/TR/2001/REC-SVG-20010904/DTD/svg10.dtd">
<svg version="1.0" xmlns="http://www.w3.org/2000/svg"
 width="48.000000pt" height="48.000000pt" viewBox="0 0 48.000000 48.000000"
 preserveAspectRatio="xMidYMid meet">
<metadata>
Created by potrace 1.16, written by Peter Selinger 2001-2019
</metadata>
<g transform="translate(0.000000,48.000000) scale(0.100000,-0.100000)"
fill="currentColor" stroke="none">
<path d="M112 423 c-6 -2 -15 -22 -18 -44 -5 -28 -11 -39 -24 -39 -30 0 -62
-33 -58 -60 3 -25 3 -25 18 5 l15 30 95 0 95 0 0 -30 c0 -27 -4 -30 -38 -35
-28 -4 -41 -12 -50 -30 -9 -18 -22 -26 -45 -28 -39 -4 -43 -22 -4 -22 32 0 72
25 72 46 0 9 10 14 28 14 39 0 65 21 65 55 0 39 -27 55 -90 55 l-53 0 0 35 0
35 165 0 165 0 0 -35 0 -35 -70 0 c-40 0 -70 -4 -70 -10 0 -6 30 -10 70 -10
l70 0 0 -65 0 -65 -130 0 c-80 0 -130 -4 -130 -10 0 -6 35 -10 85 -10 47 0 85
-4 85 -8 0 -22 -29 -32 -97 -32 -42 0 -73 -4 -73 -10 0 -5 25 -10 56 -10 47 0
55 -3 52 -17 -3 -16 -18 -18 -122 -21 -100 -2 -122 0 -137 14 -11 10 -22 14
-27 10 -4 -4 4 -16 17 -27 20 -16 40 -19 138 -19 115 0 153 9 153 35 0 7 14
23 30 35 17 12 30 28 30 36 0 9 11 14 33 14 58 0 62 8 62 130 0 88 -3 113 -15
120 -15 10 -325 13 -348 3z M340 270 c0 -5 16 -10 35 -10 19 0 35 5 35 10 0 6
-16 10 -35 10 -19 0 -35 -4 -35 -10z"/>
</g>
</svg>

