<?xml version="1.0" standalone="no"?>
<!DOCTYPE svg PUBLIC "-//W3C//DTD SVG 20010904//EN"
 "http://www.w3.org/TR/2001/REC-SVG-20010904/DTD/svg10.dtd">
<svg version="1.0" xmlns="http://www.w3.org/2000/svg"
 width="48.000000pt" height="48.000000pt" viewBox="0 0 48.000000 48.000000"
 preserveAspectRatio="xMidYMid meet">
<metadata>
Created by potrace 1.16, written by Peter Selinger 2001-2019
</metadata>
<g transform="translate(0.000000,48.000000) scale(0.100000,-0.100000)"
fill="currentColor" stroke="none">
<path d="M257 450 c-14 -11 -28 -29 -32 -39 -5 -16 -13 -18 -45 -14 -50 7
-117 -25 -147 -70 -43 -63 -27 -168 32 -211 16 -12 17 -16 6 -30 -7 -9 -24
-16 -37 -16 -13 0 -24 -4 -24 -10 0 -5 9 -10 20 -10 13 0 20 -7 20 -20 0 -11
5 -20 10 -20 6 0 10 11 10 23 0 36 30 58 68 51 18 -4 53 -1 77 6 41 11 48 11
65 -5 11 -10 20 -28 20 -41 0 -30 20 -42 27 -15 3 12 13 21 24 21 11 0 19 5
19 10 0 6 -12 10 -27 10 -15 0 -37 10 -49 21 l-23 21 24 37 c14 20 26 53 27
74 2 26 8 37 19 37 23 0 69 38 80 67 7 18 14 23 29 18 26 -8 26 7 -1 23 -20
13 -20 13 3 32 13 10 20 22 16 26 -4 4 -14 1 -23 -6 -12 -10 -20 -7 -46 19
-38 38 -101 43 -142 11z m128 -25 c35 -34 33 -78 -4 -116 -38 -37 -82 -39
-116 -4 -33 32 -34 89 -3 122 30 32 90 32 123 -2z m-178 -57 c6 -7 13 -26 17
-41 4 -17 20 -36 41 -49 28 -16 35 -26 35 -51 0 -65 -66 -127 -135 -127 -15 0
-43 8 -62 17 -97 46 -98 198 -2 246 40 20 93 22 106 5z M320 385 c0 -8 7 -15
15 -15 8 0 15 7 15 15 0 8 -7 15 -15 15 -8 0 -15 -7 -15 -15z M80 231 c0 -11
10 -32 23 -46 32 -38 92 -38 124 0 22 25 31 65 16 65 -5 0 -15 -15 -23 -33
-13 -28 -20 -32 -54 -32 -29 0 -42 6 -53 23 -15 21 -14 22 16 22 17 0 31 5 31
10 0 6 -18 10 -40 10 -33 0 -40 -3 -40 -19z"/>
</g>
</svg>

