<?xml version="1.0" standalone="no"?>
<!DOCTYPE svg PUBLIC "-//W3C//DTD SVG 20010904//EN"
 "http://www.w3.org/TR/2001/REC-SVG-20010904/DTD/svg10.dtd">
<svg version="1.0" xmlns="http://www.w3.org/2000/svg"
 width="48.000000pt" height="48.000000pt" viewBox="0 0 48.000000 48.000000"
 preserveAspectRatio="xMidYMid meet">
<metadata>
Created by potrace 1.16, written by Peter Selinger 2001-2019
</metadata>
<g transform="translate(0.000000,48.000000) scale(0.100000,-0.100000)"
fill="currentColor" stroke="none">
<path d="M10 334 c0 -3 9 -19 21 -35 20 -29 20 -31 3 -50 -22 -25 -10 -38 15
-15 18 16 21 16 55 -8 20 -13 42 -26 48 -28 8 -3 8 -10 -1 -25 -7 -15 -8 -24
-1 -28 6 -3 14 4 19 16 7 21 15 23 71 24 56 1 63 -1 71 -23 5 -13 13 -20 19
-17 7 4 6 14 -1 28 -9 15 -9 22 -1 25 6 2 28 15 48 28 34 24 37 24 55 8 25
-23 37 -10 15 15 -17 19 -17 21 4 51 36 50 14 47 -31 -4 -106 -121 -251 -121
-357 -1 -37 42 -52 53 -52 39z"/>
</g>
</svg>

