<?xml version="1.0" standalone="no"?>
<!DOCTYPE svg PUBLIC "-//W3C//DTD SVG 20010904//EN"
 "http://www.w3.org/TR/2001/REC-SVG-20010904/DTD/svg10.dtd">
<svg version="1.0" xmlns="http://www.w3.org/2000/svg"
 width="48.000000pt" height="48.000000pt" viewBox="0 0 48.000000 48.000000"
 preserveAspectRatio="xMidYMid meet">
<metadata>
Created by potrace 1.16, written by Peter Selinger 2001-2019
</metadata>
<g transform="translate(0.000000,48.000000) scale(0.100000,-0.100000)"
fill="currentColor" stroke="none">
<path d="M10 463 c0 -4 48 -56 107 -115 l108 -108 -110 -110 c-60 -60 -106
-113 -102 -117 4 -4 57 42 117 102 l110 110 110 -110 c60 -60 113 -106 117
-102 4 4 -42 57 -102 117 l-110 110 110 110 c60 60 106 113 102 117 -4 4 -57
-42 -117 -102 l-110 -110 -108 108 c-100 100 -122 118 -122 100z"/>
</g>
</svg>

