<?xml version="1.0" standalone="no"?>
<!DOCTYPE svg PUBLIC "-//W3C//DTD SVG 20010904//EN"
 "http://www.w3.org/TR/2001/REC-SVG-20010904/DTD/svg10.dtd">
<svg version="1.0" xmlns="http://www.w3.org/2000/svg"
 width="48.000000pt" height="48.000000pt" viewBox="0 0 48.000000 48.000000"
 preserveAspectRatio="xMidYMid meet">
<metadata>
Created by potrace 1.16, written by Peter Selinger 2001-2019
</metadata>
<g transform="translate(0.000000,48.000000) scale(0.100000,-0.100000)"
fill="currentColor" stroke="none">
<path d="M191 469 c-245 -47 -243 -412 2 -458 168 -31 307 108 276 275 -17 88
-90 167 -168 180 -20 3 -43 7 -51 9 -8 1 -35 -1 -59 -6z m170 -54 c64 -45 91
-104 87 -187 -4 -82 -39 -139 -108 -176 -38 -20 -56 -23 -112 -20 -82 4 -139
39 -176 108 -20 38 -23 56 -20 112 4 82 39 139 108 176 38 20 56 23 112 20 55
-3 75 -9 109 -33z M174 382 c-7 -4 -14 -18 -15 -32 -3 -19 -11 -26 -34 -30
-36 -6 -44 -33 -19 -61 16 -18 16 -20 0 -38 -25 -28 -17 -55 19 -61 24 -4 31
-11 35 -35 6 -36 33 -44 61 -19 18 16 20 16 38 0 28 -25 55 -17 61 19 4 24 11
31 35 35 36 6 44 33 19 61 -16 18 -16 20 0 38 25 28 17 55 -19 61 -24 4 -31
11 -35 35 -6 36 -33 44 -61 19 -18 -16 -20 -16 -37 -1 -20 19 -31 21 -48 9z
m38 -29 c16 -14 22 -14 46 -2 15 7 30 15 35 17 4 2 7 -7 7 -20 0 -30 17 -48
47 -48 27 0 28 -3 7 -35 -15 -23 -15 -27 0 -50 21 -32 20 -35 -7 -35 -29 0
-47 -18 -47 -47 0 -27 -3 -28 -35 -7 -23 15 -27 15 -50 0 -32 -21 -35 -20 -35
7 0 29 -18 47 -47 47 -27 0 -28 3 -7 35 15 23 15 27 0 50 -21 32 -20 35 7 35
29 0 47 18 47 47 0 27 7 29 32 6z M202 278 c-15 -15 -15 -61 0 -76 15 -15 61
-15 76 0 15 15 15 61 0 76 -7 7 -24 12 -38 12 -14 0 -31 -5 -38 -12z m63 -38
c0 -18 -6 -26 -23 -28 -13 -2 -25 3 -28 12 -10 26 4 48 28 44 17 -2 23 -10 23
-28z"/>
</g>
</svg>

