<?xml version="1.0" standalone="no"?>
<!DOCTYPE svg PUBLIC "-//W3C//DTD SVG 20010904//EN"
 "http://www.w3.org/TR/2001/REC-SVG-20010904/DTD/svg10.dtd">
<svg version="1.0" xmlns="http://www.w3.org/2000/svg"
 width="48.000000pt" height="48.000000pt" viewBox="0 0 48.000000 48.000000"
 preserveAspectRatio="xMidYMid meet">
<metadata>
Created by potrace 1.16, written by Peter Selinger 2001-2019
</metadata>
<g transform="translate(0.000000,48.000000) scale(0.100000,-0.100000)"
fill="currentColor" stroke="currentColor" stroke-width="6" stroke-linejoin="round">
<path d="M314 446 c-3 -15 -15 -27 -30 -30 -26 -7 -32 -34 -11 -55 6 -6 12
-26 12 -44 0 -29 3 -32 31 -32 17 0 38 -6 47 -14 21 -17 47 -7 47 18 0 12 9
21 25 25 33 8 42 32 22 54 -9 10 -15 31 -14 47 2 27 -1 30 -30 30 -18 0 -38 6
-44 13 -21 20 -48 14 -55 -12z m47 -12 c9 -11 22 -14 41 -10 31 6 33 3 18 -23
-7 -14 -5 -23 10 -36 22 -20 18 -35 -10 -35 -13 0 -22 -9 -26 -25 -7 -29 -19
-32 -28 -9 -5 12 -14 15 -37 10 -29 -6 -30 -5 -24 23 4 19 1 32 -10 41 -21 18
-19 28 8 32 14 2 23 11 25 26 4 26 14 28 33 6z M347 374 c-9 -10 2 -24 19 -24
8 0 14 7 14 15 0 15 -21 21 -33 9z M92 318 c-7 -7 -12 -22 -12 -34 0 -17 -7
-23 -26 -26 -40 -5 -52 -31 -31 -67 15 -26 15 -30 1 -42 -8 -7 -14 -24 -12
-38 2 -20 10 -27 33 -31 24 -4 31 -11 35 -35 6 -35 41 -46 69 -21 17 15 19 15
31 1 8 -9 25 -15 39 -13 20 2 27 10 31 33 4 23 11 31 34 35 42 7 55 33 31 60
-18 20 -18 22 -2 50 22 36 13 58 -27 68 -24 6 -32 14 -34 35 -4 33 -36 45 -61
23 -22 -20 -35 -20 -51 -1 -15 18 -32 19 -48 3z m75 -38 c11 0 26 7 33 15 18
22 30 18 30 -8 0 -29 18 -47 46 -47 31 0 39 -17 20 -39 -20 -23 -20 -50 0 -73
18 -19 14 -23 -31 -30 -13 -2 -24 -15 -30 -36 -10 -35 -25 -41 -45 -17 -7 8
-18 15 -25 15 -7 0 -18 -7 -25 -15 -19 -22 -40 -18 -40 8 0 29 -18 47 -47 47
-27 0 -29 12 -7 46 16 23 15 26 -1 44 -22 25 -13 50 19 50 20 0 27 7 32 28 10
41 14 45 33 28 10 -9 27 -16 38 -16z M139 201 c-44 -35 1 -98 51 -71 20 11 26
45 12 66 -14 21 -41 23 -63 5z m49 -35 c-2 -13 -10 -21 -23 -21 -23 0 -33 34
-14 45 20 13 40 -1 37 -24z"/>
</g>
</svg>

