<?xml version="1.0" standalone="no"?>
<!DOCTYPE svg PUBLIC "-//W3C//DTD SVG 20010904//EN"
 "http://www.w3.org/TR/2001/REC-SVG-20010904/DTD/svg10.dtd">
<svg version="1.0" xmlns="http://www.w3.org/2000/svg"
 width="48.000000pt" height="48.000000pt" viewBox="0 0 48.000000 48.000000"
 preserveAspectRatio="xMidYMid meet">
<metadata>
Created by potrace 1.16, written by Peter Selinger 2001-2019
</metadata>
<g transform="translate(0.000000,48.000000) scale(0.100000,-0.100000)"
fill="currentColor" stroke="currentColor" stroke-width="6" stroke-linejoin="round">
<path d="M33 470 c-30 -12 -35 -48 -31 -228 2 -106 7 -155 16 -164 15 -15 125
-18 132 -3 3 6 -20 11 -57 13 l-63 3 0 179 0 180 123 0 c121 0 124 0 149 -27
16 -17 28 -42 30 -63 3 -40 21 -43 26 -5 3 20 -8 38 -46 76 l-49 49 -104 -1
c-57 0 -114 -4 -126 -9z M75 350 c-3 -5 0 -13 8 -15 24 -10 202 -1 202 10 0
14 -201 19 -210 5z M75 260 c-3 -5 0 -13 8 -16 23 -9 112 0 110 11 -4 14 -110
19 -118 5z M317 262 c-15 -2 -43 -19 -62 -37 -53 -53 -53 -127 0 -180 53 -53
127 -53 179 0 54 53 54 126 1 179 -33 33 -66 44 -118 38z m83 -32 c12 -8 0
-24 -63 -87 -85 -86 -97 -87 -97 -5 0 61 41 102 102 102 24 0 50 -5 58 -10z
m44 -46 c3 -9 6 -34 6 -56 0 -57 -42 -98 -102 -98 -81 0 -81 11 2 95 41 41 78
75 81 75 4 0 10 -7 13 -16z M75 170 c-3 -5 0 -13 9 -16 21 -8 71 -1 71 11 0
14 -72 19 -80 5z"/>
</g>
</svg>

