<?xml version="1.0" standalone="no"?>
<!DOCTYPE svg PUBLIC "-//W3C//DTD SVG 20010904//EN"
 "http://www.w3.org/TR/2001/REC-SVG-20010904/DTD/svg10.dtd">
<svg version="1.0" xmlns="http://www.w3.org/2000/svg"
 width="48.000000pt" height="48.000000pt" viewBox="0 0 48.000000 48.000000"
 preserveAspectRatio="xMidYMid meet">
<metadata>
Created by potrace 1.16, written by Peter Selinger 2001-2019
</metadata>
<g transform="translate(0.000000,48.000000) scale(0.100000,-0.100000)"
fill="currentColor" stroke="currentColor" stroke-width="6" stroke-linejoin="round">
<path d="M33 470 c-30 -12 -35 -48 -31 -228 2 -107 7 -155 16 -164 15 -15 135
-18 142 -3 3 6 -22 11 -62 13 l-68 3 0 179 0 180 123 0 c121 0 124 0 149 -27
17 -18 28 -42 30 -66 4 -47 22 -53 26 -9 3 29 -4 41 -46 83 l-49 49 -104 -1
c-57 0 -114 -4 -126 -9z M317 262 c-15 -2 -43 -19 -62 -37 -53 -53 -53 -127 0
-180 53 -53 127 -53 179 0 54 53 54 126 1 179 -33 33 -66 44 -118 38z m104
-51 c24 -24 29 -38 29 -76 0 -66 -39 -105 -105 -105 -66 0 -105 39 -105 105 0
66 39 105 105 105 38 0 52 -5 76 -29z M364 143 c-15 -21 -29 -40 -31 -42 -1
-2 -12 4 -23 14 -11 10 -23 15 -27 12 -9 -10 27 -47 46 -47 14 1 81 79 81 95
0 15 -21 1 -46 -32z"/>
</g>
</svg>

