<?xml version="1.0" standalone="no"?>
<!DOCTYPE svg PUBLIC "-//W3C//DTD SVG 20010904//EN"
 "http://www.w3.org/TR/2001/REC-SVG-20010904/DTD/svg10.dtd">
<svg version="1.0" xmlns="http://www.w3.org/2000/svg"
 width="48.000000pt" height="48.000000pt" viewBox="0 0 48.000000 48.000000"
 preserveAspectRatio="xMidYMid meet">
<metadata>
Created by potrace 1.16, written by Peter Selinger 2001-2019
</metadata>
<g transform="translate(0.000000,48.000000) scale(0.100000,-0.100000)"
fill="currentColor" stroke="currentColor" stroke-width="6" stroke-linejoin="round">
<path d="M33 470 c-30 -12 -35 -48 -31 -228 2 -106 7 -155 16 -164 15 -15 125
-18 132 -3 3 6 -20 11 -57 13 l-63 3 0 179 0 180 123 0 c121 0 124 0 149 -27
16 -17 28 -42 30 -63 3 -40 21 -43 26 -5 3 20 -8 38 -46 76 l-49 49 -104 -1
c-57 0 -114 -4 -126 -9z M75 350 c-3 -5 0 -13 8 -15 24 -10 202 -1 202 10 0
14 -201 19 -210 5z M75 260 c-3 -5 0 -13 8 -16 23 -9 112 0 110 11 -4 14 -110
19 -118 5z M317 262 c-15 -2 -43 -19 -62 -37 -53 -53 -53 -127 0 -180 53 -53
127 -53 179 0 54 53 54 126 1 179 -33 33 -66 44 -118 38z m104 -51 c24 -24 29
-38 29 -76 0 -66 -39 -105 -105 -105 -66 0 -105 39 -105 105 0 66 39 105 105
105 38 0 52 -5 76 -29z M364 143 c-15 -21 -29 -40 -31 -42 -1 -2 -12 4 -23 14
-11 10 -23 15 -27 12 -9 -10 27 -47 46 -47 14 1 81 79 81 95 0 15 -21 1 -46
-32z M75 170 c-3 -5 0 -13 9 -16 21 -8 71 -1 71 11 0 14 -72 19 -80 5z"/>
</g>
</svg>

