<?xml version="1.0" standalone="no"?>
<!DOCTYPE svg PUBLIC "-//W3C//DTD SVG 20010904//EN"
 "http://www.w3.org/TR/2001/REC-SVG-20010904/DTD/svg10.dtd">
<svg version="1.0" xmlns="http://www.w3.org/2000/svg"
 width="48.000000pt" height="48.000000pt" viewBox="0 0 48.000000 48.000000"
 preserveAspectRatio="xMidYMid meet">
<metadata>
Created by potrace 1.16, written by Peter Selinger 2001-2019
</metadata>
<g transform="translate(0.000000,48.000000) scale(0.100000,-0.100000)"
fill="currentColor" stroke="currentColor" stroke-width="6" stroke-linejoin="round">
<path d="M110 400 c-18 -18 -20 -33 -20 -160 0 -127 2 -142 20 -160 11 -11 29
-20 40 -20 11 0 29 9 40 20 18 18 20 33 20 160 0 127 -2 142 -20 160 -11 11
-29 20 -40 20 -11 0 -29 -9 -40 -20z m70 -160 l0 -150 -30 0 -30 0 0 150 0
150 30 0 30 0 0 -150z M290 400 c-18 -18 -20 -33 -20 -160 0 -127 2 -142 20
-160 11 -11 29 -20 40 -20 11 0 29 9 40 20 18 18 20 33 20 160 0 127 -2 142
-20 160 -11 11 -29 20 -40 20 -11 0 -29 -9 -40 -20z m70 -160 l0 -150 -30 0
-30 0 0 150 0 150 30 0 30 0 0 -150z"/>
</g>
</svg>

