<?xml version="1.0" standalone="no"?>
<!DOCTYPE svg PUBLIC "-//W3C//DTD SVG 20010904//EN"
 "http://www.w3.org/TR/2001/REC-SVG-20010904/DTD/svg10.dtd">
<svg version="1.0" xmlns="http://www.w3.org/2000/svg"
 width="48.000000pt" height="48.000000pt" viewBox="0 0 48.000000 48.000000"
 preserveAspectRatio="xMidYMid meet">
<metadata>
Created by potrace 1.16, written by Peter Selinger 2001-2019
</metadata>
<g transform="translate(0.000000,48.000000) scale(0.100000,-0.100000)"
fill="currentColor" stroke="none">
<path d="M115 466 c-10 -7 -16 -20 -12 -28 4 -12 -4 -17 -35 -21 -22 -3 -46
-11 -52 -17 -17 -17 -15 -365 2 -382 15 -15 135 -18 142 -3 3 6 -22 11 -62 13
l-68 3 0 179 0 180 43 0 c23 0 51 -7 61 -15 26 -20 126 -20 152 0 10 8 38 15
61 15 41 0 42 -1 45 -35 4 -45 23 -42 22 3 -2 42 -12 52 -62 59 -31 4 -39 9
-35 21 11 27 -26 42 -107 42 -48 0 -83 -5 -95 -14z m174 -46 c-11 -29 -12 -30
-79 -30 -67 0 -68 1 -79 30 l-10 30 89 0 89 0 -10 -30z M222 258 c-17 -17 -17
-229 0 -246 17 -17 229 -17 246 0 17 17 17 229 0 246 -17 17 -229 17 -246 0z
m228 -123 l0 -105 -105 0 -105 0 0 105 0 105 105 0 105 0 0 -105z M285 200
c-3 -5 0 -13 8 -16 23 -9 112 0 110 11 -4 14 -110 19 -118 5z M285 140 c-3 -5
0 -13 8 -16 23 -9 112 0 110 11 -4 14 -110 19 -118 5z M285 80 c-8 -13 20 -24
41 -16 20 8 9 26 -16 26 -10 0 -22 -5 -25 -10z"/>
</g>
</svg>

