<?xml version="1.0" standalone="no"?>
<!DOCTYPE svg PUBLIC "-//W3C//DTD SVG 20010904//EN"
 "http://www.w3.org/TR/2001/REC-SVG-20010904/DTD/svg10.dtd">
<svg version="1.0" xmlns="http://www.w3.org/2000/svg"
 width="48.000000pt" height="48.000000pt" viewBox="0 0 48.000000 48.000000"
 preserveAspectRatio="xMidYMid meet">
<metadata>
Created by potrace 1.16, written by Peter Selinger 2001-2019
</metadata>
<g transform="translate(0.000000,48.000000) scale(0.100000,-0.100000)"
fill="currentColor" stroke="currentColor" stroke-width="6" stroke-linejoin="round">
<path d="M33 470 c-29 -12 -36 -52 -31 -184 2 -69 7 -110 16 -118 15 -15 136
-18 140 -3 1 6 -26 11 -63 13 l-65 3 0 89 0 90 179 0 c179 0 180 0 183 -22 2
-13 8 -21 13 -18 15 7 12 127 -3 142 -16 16 -334 23 -369 8z m357 -50 l0 -30
-180 0 -180 0 0 30 0 30 180 0 180 0 0 -30z M70 300 c0 -6 28 -10 65 -10 37 0
65 4 65 10 0 6 -28 10 -65 10 -37 0 -65 -4 -65 -10z M317 262 c-15 -2 -43 -19
-62 -37 -53 -53 -53 -127 0 -180 53 -53 127 -53 179 0 54 53 54 126 1 179 -33
33 -66 44 -118 38z m104 -51 c24 -24 29 -38 29 -76 0 -66 -39 -105 -105 -105
-66 0 -105 39 -105 105 0 66 39 105 105 105 38 0 52 -5 76 -29z M323 203 c-36
-24 -30 -59 12 -74 40 -15 47 -39 11 -39 -32 0 -42 -16 -18 -29 13 -7 24 -5
41 8 31 23 24 52 -16 71 -38 18 -43 40 -9 40 31 0 42 16 19 28 -13 7 -25 5
-40 -5z M70 240 c0 -5 16 -10 35 -10 19 0 35 5 35 10 0 6 -16 10 -35 10 -19 0
-35 -4 -35 -10z"/>
</g>
</svg>

