<?xml version="1.0" standalone="no"?>
<!DOCTYPE svg PUBLIC "-//W3C//DTD SVG 20010904//EN"
 "http://www.w3.org/TR/2001/REC-SVG-20010904/DTD/svg10.dtd">
<svg version="1.0" xmlns="http://www.w3.org/2000/svg"
 width="48.000000pt" height="48.000000pt" viewBox="0 0 48.000000 48.000000"
 preserveAspectRatio="xMidYMid meet">
<metadata>
Created by potrace 1.16, written by Peter Selinger 2001-2019
</metadata>
<g transform="translate(0.000000,48.000000) scale(0.100000,-0.100000)"
fill="currentColor" stroke="none">
<path d="M20 400 c-18 -18 -20 -33 -20 -160 0 -192 -16 -180 240 -180 256 0
240 -12 240 180 0 192 16 180 -240 180 -187 0 -201 -1 -220 -20z m430 -40 l0
-30 -210 0 -210 0 0 30 0 30 210 0 210 0 0 -30z m0 -165 l0 -105 -210 0 -210
0 0 105 0 105 210 0 210 0 0 -105z M105 230 c-3 -5 0 -13 8 -16 24 -9 162 0
162 11 0 14 -161 19 -170 5z M105 170 c-3 -5 0 -13 8 -16 23 -8 102 0 102 11
0 14 -102 19 -110 5z"/>
</g>
</svg>

