<?xml version="1.0" standalone="no"?>
<!DOCTYPE svg PUBLIC "-//W3C//DTD SVG 20010904//EN"
 "http://www.w3.org/TR/2001/REC-SVG-20010904/DTD/svg10.dtd">
<svg version="1.0" xmlns="http://www.w3.org/2000/svg"
 width="48.000000pt" height="48.000000pt" viewBox="0 0 48.000000 48.000000"
 preserveAspectRatio="xMidYMid meet">
<metadata>
Created by potrace 1.16, written by Peter Selinger 2001-2019
</metadata>
<g transform="translate(0.000000,48.000000) scale(0.100000,-0.100000)"
fill="currentColor" stroke="currentColor" stroke-width="6" stroke-linejoin="round">
<path d="M33 470 c-29 -12 -36 -52 -31 -184 2 -69 7 -110 16 -118 15 -15 136
-18 140 -3 1 6 -26 11 -63 13 l-65 3 0 89 0 90 179 0 c179 0 180 0 183 -22 2
-13 8 -21 13 -18 15 7 12 127 -3 142 -16 16 -334 23 -369 8z m357 -50 l0 -30
-180 0 -180 0 0 30 0 30 180 0 180 0 0 -30z M70 300 c0 -6 28 -10 65 -10 37 0
65 4 65 10 0 6 -28 10 -65 10 -37 0 -65 -4 -65 -10z M317 262 c-15 -2 -43 -19
-62 -37 -53 -53 -53 -127 0 -180 53 -53 127 -53 179 0 54 53 54 126 1 179 -33
33 -66 44 -118 38z m83 -32 c12 -8 0 -24 -63 -87 -85 -86 -97 -87 -97 -5 0 61
41 102 102 102 24 0 50 -5 58 -10z m44 -46 c3 -9 6 -34 6 -56 0 -57 -42 -98
-102 -98 -81 0 -81 11 2 95 41 41 78 75 81 75 4 0 10 -7 13 -16z M70 240 c0
-5 16 -10 35 -10 19 0 35 5 35 10 0 6 -16 10 -35 10 -19 0 -35 -4 -35 -10z"/>
</g>
</svg>

