<?xml version="1.0" standalone="no"?>
<!DOCTYPE svg PUBLIC "-//W3C//DTD SVG 20010904//EN"
 "http://www.w3.org/TR/2001/REC-SVG-20010904/DTD/svg10.dtd">
<svg version="1.0" xmlns="http://www.w3.org/2000/svg"
 width="48.000000pt" height="48.000000pt" viewBox="0 0 48.000000 48.000000"
 preserveAspectRatio="xMidYMid meet">
<metadata>
Created by potrace 1.16, written by Peter Selinger 2001-2019
</metadata>
<g transform="translate(0.000000,48.000000) scale(0.100000,-0.100000)"
fill="currentColor" stroke="none">
<path d="M182 388 c-7 -7 -12 -17 -13 -22 -1 -20 -108 -96 -134 -96 -14 0 -25
-4 -25 -10 0 -5 14 -10 32 -10 24 0 43 10 74 41 39 39 44 41 83 34 48 -8 50
-27 5 -35 -26 -5 -29 -9 -32 -47 -2 -31 -9 -45 -28 -57 -23 -16 -33 -36 -16
-36 4 0 20 11 35 25 19 19 27 36 27 60 0 30 3 35 24 35 13 0 29 7 36 15 9 11
35 15 106 15 l94 0 0 -60 0 -59 -107 -3 c-121 -3 -143 -20 -37 -28 l66 -5 -22
-20 c-26 -24 -141 -32 -258 -17 -67 8 -97 3 -73 -13 6 -3 68 -8 139 -12 141
-7 189 2 220 41 10 13 33 27 51 31 43 9 53 39 49 143 -2 60 -7 85 -18 92 -23
15 -263 13 -278 -2z m268 -34 l0 -26 -120 4 c-69 2 -125 9 -131 15 -25 25 4
33 127 33 l124 0 0 -26z M375 261 c-7 -12 12 -24 25 -16 11 7 4 25 -10 25 -5
0 -11 -4 -15 -9z"/>
</g>
</svg>

