<?xml version="1.0" standalone="no"?>
<!DOCTYPE svg PUBLIC "-//W3C//DTD SVG 20010904//EN"
 "http://www.w3.org/TR/2001/REC-SVG-20010904/DTD/svg10.dtd">
<svg version="1.0" xmlns="http://www.w3.org/2000/svg"
 width="48.000000pt" height="48.000000pt" viewBox="0 0 48.000000 48.000000"
 preserveAspectRatio="xMidYMid meet">
<metadata>
Created by potrace 1.16, written by Peter Selinger 2001-2019
</metadata>
<g transform="translate(0.000000,48.000000) scale(0.100000,-0.100000)"
fill="currentColor" stroke="currentColor" stroke-width="6" stroke-linejoin="round">
<path d="M20 400 c-18 -18 -20 -33 -20 -160 0 -192 -16 -180 240 -180 256 0
240 -12 240 180 0 192 16 180 -240 180 -187 0 -201 -1 -220 -20z m430 -160 l0
-150 -210 0 -210 0 0 150 0 150 210 0 210 0 0 -150z M65 301 c-9 -16 7 -91 25
-113 l17 -22 16 25 c19 28 27 103 12 107 -5 1 -11 -10 -13 -25 -1 -15 -5 -39
-8 -52 -8 -35 -24 -8 -24 41 0 36 -13 57 -25 39z M185 298 c-10 -24 -1 -123
10 -121 14 4 19 113 6 126 -7 7 -12 5 -16 -5z M242 298 c-18 -18 -15 -34 13
-64 27 -29 25 -44 -6 -44 -10 0 -19 -5 -19 -11 0 -16 52 -6 64 13 8 14 5 23
-17 46 -34 35 -34 52 -2 52 14 0 25 5 25 10 0 14 -43 13 -58 -2z M351 301
c-18 -12 -28 -116 -11 -126 7 -4 13 1 17 14 7 27 29 27 36 0 4 -13 10 -18 17
-14 17 10 7 114 -11 126 -18 11 -30 11 -48 0z m39 -36 c0 -16 -6 -25 -15 -25
-9 0 -15 9 -15 25 0 16 6 25 15 25 9 0 15 -9 15 -25z"/>
</g>
</svg>

