<?xml version="1.0" standalone="no"?>
<!DOCTYPE svg PUBLIC "-//W3C//DTD SVG 20010904//EN"
 "http://www.w3.org/TR/2001/REC-SVG-20010904/DTD/svg10.dtd">
<svg version="1.0" xmlns="http://www.w3.org/2000/svg"
 width="48.000000pt" height="48.000000pt" viewBox="0 0 48.000000 48.000000"
 preserveAspectRatio="xMidYMid meet">
<metadata>
Created by potrace 1.16, written by Peter Selinger 2001-2019
</metadata>
<g transform="translate(0.000000,48.000000) scale(0.100000,-0.100000)"
fill="currentColor" stroke="currentColor" stroke-width="6" stroke-linejoin="round">
<path d="M352 459 c-21 -8 -23 -14 -20 -70 3 -52 6 -63 24 -70 12 -4 31 -2 45
5 20 10 24 20 26 63 2 64 -25 90 -75 72z m53 -39 c0 -8 -10 -16 -22 -18 -18
-3 -23 2 -23 18 0 16 5 21 23 18 12 -2 22 -10 22 -18z m0 -60 c0 -8 -10 -16
-22 -18 -18 -3 -23 2 -23 18 0 16 5 21 23 18 12 -2 22 -10 22 -18z M54 379
c-16 -18 -19 -40 -22 -133 -4 -160 3 -172 128 -209 150 -43 180 -38 180 34 0
36 2 39 29 39 48 0 73 28 74 85 2 64 -17 71 -21 8 -3 -52 -20 -73 -59 -73 -22
0 -23 4 -23 70 0 94 -13 107 -150 146 l-105 29 103 3 c138 4 133 22 -6 22 -98
0 -111 -2 -128 -21z m116 -49 c105 -29 129 -40 140 -61 6 -10 10 -65 10 -124
0 -90 -2 -107 -17 -112 -20 -8 -188 33 -220 53 -22 14 -23 21 -23 145 0 119 1
130 18 125 9 -2 51 -14 92 -26z M210 175 c-15 -18 -10 -45 13 -59 34 -22 73
27 47 59 -16 19 -44 19 -60 0z m46 -16 c10 -17 -13 -36 -27 -22 -12 12 -4 33
11 33 5 0 12 -5 16 -11z"/>
</g>
</svg>

