<?xml version="1.0" standalone="no"?>
<!DOCTYPE svg PUBLIC "-//W3C//DTD SVG 20010904//EN"
 "http://www.w3.org/TR/2001/REC-SVG-20010904/DTD/svg10.dtd">
<svg version="1.0" xmlns="http://www.w3.org/2000/svg"
 width="48.000000pt" height="48.000000pt" viewBox="0 0 48.000000 48.000000"
 preserveAspectRatio="xMidYMid meet">
<metadata>
Created by potrace 1.16, written by Peter Selinger 2001-2019
</metadata>
<g transform="translate(0.000000,48.000000) scale(0.100000,-0.100000)"
fill="currentColor" stroke="currentColor" stroke-width="6" stroke-linejoin="round">
<path d="M175 470 c-68 -15 -125 -84 -125 -152 0 -43 40 -122 65 -126 14 -3
13 2 -10 32 -75 98 -15 226 105 226 80 0 140 -60 140 -139 0 -17 5 -31 10 -31
18 0 10 72 -12 112 -35 62 -105 94 -173 78z M200 390 c0 -5 -6 -10 -14 -10
-16 0 -31 -34 -21 -50 4 -6 22 -17 41 -25 42 -17 44 -35 5 -35 -38 0 -48 -16
-19 -31 16 -9 23 -9 26 0 2 6 10 11 17 11 16 0 26 25 18 45 -3 9 -21 22 -39
30 -42 17 -44 35 -5 35 37 0 48 15 22 29 -25 14 -31 14 -31 1z M357 234 c-12
-13 4 -24 36 -24 l31 0 -35 -36 c-51 -54 -61 -57 -128 -39 -94 24 -99 22 -176
-55 -38 -39 -65 -70 -59 -70 5 0 36 27 69 60 66 67 73 69 171 43 l64 -17 55
54 55 54 0 -37 c0 -20 5 -37 11 -37 6 0 9 21 7 53 l-3 52 -45 3 c-25 2 -49 0
-53 -4z"/>
</g>
</svg>

