<?xml version="1.0" standalone="no"?>
<!DOCTYPE svg PUBLIC "-//W3C//DTD SVG 20010904//EN"
 "http://www.w3.org/TR/2001/REC-SVG-20010904/DTD/svg10.dtd">
<svg version="1.0" xmlns="http://www.w3.org/2000/svg"
 width="48.000000pt" height="48.000000pt" viewBox="0 0 48.000000 48.000000"
 preserveAspectRatio="xMidYMid meet">
<metadata>
Created by potrace 1.16, written by Peter Selinger 2001-2019
</metadata>
<g transform="translate(0.000000,48.000000) scale(0.100000,-0.100000)"
fill="currentColor" stroke="currentColor" stroke-width="6" stroke-linejoin="round">
<path d="M191 469 c-245 -47 -243 -412 2 -458 168 -31 307 108 276 275 -17 88
-90 167 -168 180 -20 3 -43 7 -51 9 -8 1 -35 -1 -59 -6z m170 -54 c64 -45 91
-104 87 -187 -4 -82 -39 -139 -108 -176 -38 -20 -56 -23 -112 -20 -82 4 -139
39 -176 108 -20 38 -23 56 -20 112 4 82 39 139 108 176 38 20 56 23 112 20 55
-3 75 -9 109 -33z M230 370 c0 -16 -7 -20 -30 -20 l-30 0 0 -110 0 -110 30 0
c20 0 30 -5 30 -15 0 -8 5 -15 10 -15 6 0 10 6 10 14 0 8 11 17 25 20 34 9 52
48 37 81 -9 19 -9 31 0 50 15 33 -3 72 -37 81 -16 4 -25 13 -25 25 0 10 -4 19
-10 19 -5 0 -10 -9 -10 -20z m0 -80 c0 -33 -3 -40 -20 -40 -17 0 -20 7 -20 40
0 33 3 40 20 40 17 0 20 -7 20 -40z m64 18 c13 -21 -2 -51 -28 -56 -13 -3 -16
5 -16 38 0 33 3 41 16 38 9 -2 22 -11 28 -20z m-64 -118 c0 -33 -3 -40 -20
-40 -17 0 -20 7 -20 40 0 33 3 40 20 40 17 0 20 -7 20 -40z m64 18 c13 -21 -2
-51 -28 -56 -13 -3 -16 5 -16 38 0 33 3 41 16 38 9 -2 22 -11 28 -20z"/>
</g>
</svg>

