<?xml version="1.0" standalone="no"?>
<!DOCTYPE svg PUBLIC "-//W3C//DTD SVG 20010904//EN"
 "http://www.w3.org/TR/2001/REC-SVG-20010904/DTD/svg10.dtd">
<svg version="1.0" xmlns="http://www.w3.org/2000/svg"
 width="48.000000pt" height="48.000000pt" viewBox="0 0 48.000000 48.000000"
 preserveAspectRatio="xMidYMid meet">
<metadata>
Created by potrace 1.16, written by Peter Selinger 2001-2019
</metadata>
<g transform="translate(0.000000,48.000000) scale(0.100000,-0.100000)"
fill="currentColor" stroke="currentColor" stroke-width="6" stroke-linejoin="round">
<path d="M220 455 c0 -23 -3 -25 -50 -25 l-50 0 0 -190 0 -190 50 0 c47 0 50
-2 50 -25 0 -14 5 -25 10 -25 6 0 10 11 10 25 0 19 5 25 20 25 52 0 100 49
100 101 0 25 -25 75 -42 83 -11 5 -11 7 0 12 17 8 42 58 42 83 0 52 -48 101
-100 101 -15 0 -20 6 -20 25 0 14 -4 25 -10 25 -5 0 -10 -11 -10 -25z m0 -125
l0 -80 -40 0 -40 0 0 80 0 80 40 0 40 0 0 -80z m95 55 c33 -32 33 -78 0 -110
-13 -14 -36 -25 -50 -25 -25 0 -25 1 -25 80 0 79 0 80 25 80 14 0 37 -11 50
-25z m-95 -235 l0 -80 -40 0 -40 0 0 80 0 80 40 0 40 0 0 -80z m95 55 c33 -32
33 -78 0 -110 -13 -14 -36 -25 -50 -25 -25 0 -25 1 -25 80 0 79 0 80 25 80 14
0 37 -11 50 -25z"/>
</g>
</svg>

