<?xml version="1.0" standalone="no"?>
<!DOCTYPE svg PUBLIC "-//W3C//DTD SVG 20010904//EN"
 "http://www.w3.org/TR/2001/REC-SVG-20010904/DTD/svg10.dtd">
<svg version="1.0" xmlns="http://www.w3.org/2000/svg"
 width="48.000000pt" height="48.000000pt" viewBox="0 0 48.000000 48.000000"
 preserveAspectRatio="xMidYMid meet">
<metadata>
Created by potrace 1.16, written by Peter Selinger 2001-2019
</metadata>
<g transform="translate(0.000000,48.000000) scale(0.100000,-0.100000)"
fill="currentColor" stroke="currentColor" stroke-width="6" stroke-linejoin="round">
<path d="M185 450 c-10 -11 -31 -20 -47 -20 -38 0 -88 -48 -88 -85 0 -15 -9
-38 -20 -52 -27 -35 -26 -84 4 -112 16 -15 22 -29 18 -46 -6 -34 46 -85 86
-85 16 0 37 -9 47 -20 25 -27 88 -27 115 0 11 11 29 20 40 20 51 0 90 41 90
95 0 14 4 25 10 25 15 0 33 41 32 73 0 16 -10 39 -21 51 -12 12 -21 35 -21 50
0 38 -49 86 -88 86 -16 0 -37 9 -47 20 -12 13 -31 20 -55 20 -24 0 -43 -7 -55
-20z m106 -24 c13 -15 28 -22 42 -19 35 7 79 -33 75 -68 -2 -19 5 -35 20 -49
29 -27 29 -73 0 -102 -14 -14 -21 -32 -19 -49 3 -37 -31 -71 -68 -68 -17 2
-35 -5 -49 -19 -30 -30 -75 -29 -99 2 -14 18 -26 22 -49 19 -25 -4 -35 1 -53
23 -14 18 -20 36 -17 50 4 14 -2 28 -19 44 -33 31 -33 72 0 99 20 15 24 25 19
45 -8 35 36 80 73 73 20 -4 32 1 46 19 25 32 70 32 98 0z M230 360 c0 -13 -7
-20 -19 -20 -26 0 -44 -26 -37 -52 3 -13 30 -39 59 -58 70 -47 68 -64 -5 -68
-59 -3 -83 -22 -28 -22 23 0 30 -4 30 -20 0 -11 5 -20 10 -20 6 0 10 9 10 19
0 12 9 21 24 25 33 8 43 42 20 67 -9 10 -37 30 -61 45 -63 36 -56 58 20 62 58
3 82 22 27 22 -23 0 -30 4 -30 20 0 11 -4 20 -10 20 -5 0 -10 -9 -10 -20z"/>
</g>
</svg>

