<?xml version="1.0" standalone="no"?>
<!DOCTYPE svg PUBLIC "-//W3C//DTD SVG 20010904//EN"
 "http://www.w3.org/TR/2001/REC-SVG-20010904/DTD/svg10.dtd">
<svg version="1.0" xmlns="http://www.w3.org/2000/svg"
 width="48.000000pt" height="48.000000pt" viewBox="0 0 48.000000 48.000000"
 preserveAspectRatio="xMidYMid meet">
<metadata>
Created by potrace 1.16, written by Peter Selinger 2001-2019
</metadata>
<g transform="translate(0.000000,48.000000) scale(0.100000,-0.100000)"
fill="currentColor" stroke="currentColor" stroke-width="6" stroke-linejoin="round">
<path d="M133 454 c-7 -18 22 -84 37 -84 13 0 12 10 -5 40 -20 36 -18 41 11
28 20 -9 30 -9 45 0 15 10 23 10 38 0 15 -9 25 -9 45 0 30 14 31 11 10 -29
-18 -36 -9 -53 12 -24 38 52 26 98 -21 77 -20 -9 -30 -9 -45 0 -16 10 -24 10
-40 0 -15 -9 -26 -10 -40 -2 -26 14 -40 13 -47 -6z M137 323 c-4 -3 -3 -11 3
-18 6 -7 -5 -28 -35 -64 -53 -65 -63 -108 -38 -158 32 -65 61 -78 173 -78 112
0 141 13 173 78 25 50 15 93 -38 158 -30 36 -41 57 -35 64 6 7 7 15 3 18 -8 9
-198 9 -206 0z m207 -76 c57 -67 68 -95 55 -141 -17 -62 -47 -76 -159 -76
-112 0 -142 14 -159 76 -13 46 -2 74 55 141 45 53 46 53 104 53 58 0 59 0 104
-53z M200 215 c-7 -8 -10 -22 -6 -30 3 -9 0 -15 -9 -15 -8 0 -15 -4 -15 -10 0
-5 17 -10 38 -10 20 0 43 -4 51 -9 21 -13 4 -31 -30 -31 -16 0 -29 -4 -29 -10
0 -16 66 -12 80 5 7 8 10 22 6 30 -3 9 0 15 9 15 8 0 15 5 15 10 0 6 -17 10
-37 10 -21 0 -44 4 -52 9 -21 13 -4 31 30 31 16 0 29 5 29 10 0 16 -66 12 -80
-5z"/>
</g>
</svg>

