<?xml version="1.0" standalone="no"?>
<!DOCTYPE svg PUBLIC "-//W3C//DTD SVG 20010904//EN"
 "http://www.w3.org/TR/2001/REC-SVG-20010904/DTD/svg10.dtd">
<svg version="1.0" xmlns="http://www.w3.org/2000/svg"
 width="48.000000pt" height="48.000000pt" viewBox="0 0 48.000000 48.000000"
 preserveAspectRatio="xMidYMid meet">
<metadata>
Created by potrace 1.16, written by Peter Selinger 2001-2019
</metadata>
<g transform="translate(0.000000,48.000000) scale(0.100000,-0.100000)"
fill="currentColor" stroke="currentColor" stroke-width="6" stroke-linejoin="round">
<path d="M175 470 c-46 -10 -79 -35 -103 -79 -22 -40 -30 -111 -12 -111 6 0
10 14 10 31 0 79 60 139 140 139 120 0 180 -128 105 -226 -23 -30 -24 -35 -10
-32 25 4 65 83 65 126 0 95 -100 174 -195 152z M200 390 c0 -5 -6 -10 -14 -10
-16 0 -31 -34 -21 -50 4 -6 22 -17 41 -25 42 -17 44 -35 5 -35 -38 0 -48 -16
-19 -31 16 -9 23 -9 26 0 2 6 10 11 17 11 16 0 26 25 18 45 -3 9 -21 22 -39
30 -42 17 -44 35 -5 35 37 0 48 15 22 29 -25 14 -31 14 -31 1z M85 160 c77
-77 84 -79 175 -55 30 8 58 15 63 15 4 0 28 -19 54 -43 l46 -42 -32 -5 c-49
-8 -37 -25 17 -25 l47 0 3 52 c2 32 -1 53 -7 53 -6 0 -11 -17 -11 -37 l0 -37
-55 54 -55 54 -64 -17 c-98 -26 -105 -24 -171 43 -33 33 -64 60 -69 60 -6 0
21 -31 59 -70z"/>
</g>
</svg>

