<?xml version="1.0" standalone="no"?>
<!DOCTYPE svg PUBLIC "-//W3C//DTD SVG 20010904//EN"
 "http://www.w3.org/TR/2001/REC-SVG-20010904/DTD/svg10.dtd">
<svg version="1.0" xmlns="http://www.w3.org/2000/svg"
 width="48.000000pt" height="48.000000pt" viewBox="0 0 48.000000 48.000000"
 preserveAspectRatio="xMidYMid meet">
<metadata>
Created by potrace 1.16, written by Peter Selinger 2001-2019
</metadata>
<g transform="translate(0.000000,48.000000) scale(0.100000,-0.100000)"
fill="currentColor" stroke="none">
<path d="M125 461 c-58 -24 -76 -102 -35 -146 31 -33 71 -40 110 -20 61 31 65
120 7 155 -34 21 -51 23 -82 11z m80 -36 c14 -13 25 -36 25 -50 0 -30 -41 -75
-68 -75 -11 0 -31 9 -46 21 -36 28 -36 80 0 108 35 27 59 26 89 -4z M85 252
c-37 -23 -60 -56 -69 -100 -10 -45 8 -40 22 6 7 21 23 49 36 61 33 31 102 39
145 16 39 -20 49 -15 21 10 -30 27 -117 31 -155 7z M311 214 c-15 -19 -21 -41
-21 -76 0 -34 -4 -50 -15 -54 -8 -4 -15 -10 -15 -15 0 -10 193 -12 203 -2 4 3
-2 12 -13 20 -15 11 -20 26 -20 64 0 36 -5 54 -20 69 -29 29 -74 26 -99 -6z
m87 -6 c5 -7 12 -39 14 -71 l3 -57 -52 0 -53 0 0 54 c0 36 5 60 16 70 19 19
58 21 72 4z M335 20 c3 -5 17 -10 31 -10 13 0 24 5 24 10 0 6 -14 10 -31 10
-17 0 -28 -4 -24 -10z"/>
</g>
</svg>

