<?xml version="1.0" standalone="no"?>
<!DOCTYPE svg PUBLIC "-//W3C//DTD SVG 20010904//EN"
 "http://www.w3.org/TR/2001/REC-SVG-20010904/DTD/svg10.dtd">
<svg version="1.0" xmlns="http://www.w3.org/2000/svg"
 width="48.000000pt" height="48.000000pt" viewBox="0 0 48.000000 48.000000"
 preserveAspectRatio="xMidYMid meet">
<metadata>
Created by potrace 1.16, written by Peter Selinger 2001-2019
</metadata>
<g transform="translate(0.000000,48.000000) scale(0.100000,-0.100000)"
fill="currentColor" stroke="currentColor" stroke-width="6" stroke-linejoin="round">
<path d="M145 446 c-60 -28 -87 -56 -114 -116 -37 -81 -18 -185 45 -251 l25
-26 -27 -7 c-16 -4 -23 -11 -18 -16 10 -10 84 6 84 18 0 26 -23 81 -31 76 -5
-3 -7 -15 -4 -27 5 -18 1 -17 -24 10 -75 80 -65 214 22 290 46 41 98 57 158
50 47 -6 66 4 33 17 -33 13 -101 5 -149 -18z M373 449 c-37 -11 -37 -10 -22
-62 5 -21 15 -35 20 -31 5 3 7 15 4 27 -5 18 -1 17 24 -10 123 -131 5 -361
-175 -340 -44 5 -68 -6 -38 -17 55 -21 174 14 221 65 34 37 63 110 63 159 0
51 -30 123 -66 161 l-25 26 26 7 c14 4 23 11 20 16 -7 11 -9 11 -52 -1z M212
374 c-55 -23 -56 -107 -2 -127 34 -13 39 -27 11 -27 -24 0 -81 -47 -81 -66 0
-21 9 -17 37 16 36 43 100 43 136 0 28 -33 37 -37 37 -16 0 19 -57 66 -81 66
-10 0 -19 5 -19 10 0 6 6 10 14 10 18 0 56 47 56 70 0 23 -35 66 -58 72 -11 3
-33 0 -50 -8z m72 -30 c34 -33 8 -84 -43 -84 -15 0 -32 5 -39 12 -15 15 -15
61 0 76 17 17 64 15 82 -4z"/>
</g>
</svg>

