<?xml version="1.0" standalone="no"?>
<!DOCTYPE svg PUBLIC "-//W3C//DTD SVG 20010904//EN"
 "http://www.w3.org/TR/2001/REC-SVG-20010904/DTD/svg10.dtd">
<svg version="1.0" xmlns="http://www.w3.org/2000/svg"
 width="48.000000pt" height="48.000000pt" viewBox="0 0 48.000000 48.000000"
 preserveAspectRatio="xMidYMid meet">
<metadata>
Created by potrace 1.16, written by Peter Selinger 2001-2019
</metadata>
<g transform="translate(0.000000,48.000000) scale(0.100000,-0.100000)"
fill="currentColor" stroke="none">
<path d="M191 470 c-35 -8 -100 -64 -88 -76 3 -4 22 7 42 25 29 25 44 31 83
31 28 0 57 -7 71 -17 l24 -16 -23 -9 c-33 -12 -11 -30 31 -26 32 3 34 5 37 46
2 25 -1 42 -7 42 -6 0 -11 -12 -11 -26 l0 -26 -31 26 c-17 14 -39 26 -49 26
-10 0 -24 2 -32 4 -7 2 -28 0 -47 -4z M73 345 c-33 -14 -43 -32 -43 -75 0 -30
44 -75 62 -64 5 3 -3 15 -17 26 -27 21 -34 65 -13 86 7 7 27 12 45 12 26 0 36
-6 45 -25 11 -25 28 -34 28 -14 0 44 -59 74 -107 54z M320 330 c-20 -20 -27
-50 -12 -50 5 0 14 11 20 25 9 19 19 25 45 25 18 0 38 -5 45 -12 21 -21 14
-65 -13 -86 -14 -11 -22 -23 -17 -26 6 -3 21 4 36 15 55 43 23 129 -49 129
-22 0 -43 -8 -55 -20z M152 226 c-34 -32 -37 -38 -37 -91 0 -53 3 -59 37 -91
33 -29 45 -34 88 -34 43 0 55 5 88 34 34 32 37 38 37 91 0 53 -3 59 -37 91
-33 29 -45 34 -88 34 -43 0 -55 -5 -88 -34z m167 -21 c22 -25 31 -46 31 -70 0
-24 -9 -45 -31 -70 -27 -31 -37 -35 -78 -35 -65 1 -111 44 -111 105 0 61 46
104 111 105 41 0 51 -4 78 -35z M230 210 c0 -5 -6 -10 -14 -10 -17 0 -27 -24
-19 -45 3 -9 21 -22 39 -30 42 -17 44 -35 5 -35 -38 0 -48 -16 -19 -31 16 -9
23 -9 26 0 2 6 10 11 17 11 16 0 29 35 20 50 -4 6 -22 17 -41 25 -42 17 -44
35 -5 35 37 0 48 15 22 29 -25 14 -31 14 -31 1z M27 162 c-27 -29 -20 -33 18
-11 19 12 35 23 35 25 0 12 -39 1 -53 -14z M400 176 c0 -2 16 -13 35 -25 37
-22 47 -15 17 12 -16 15 -52 24 -52 13z"/>
</g>
</svg>

