<?xml version="1.0" standalone="no"?>
<!DOCTYPE svg PUBLIC "-//W3C//DTD SVG 20010904//EN"
 "http://www.w3.org/TR/2001/REC-SVG-20010904/DTD/svg10.dtd">
<svg version="1.0" xmlns="http://www.w3.org/2000/svg"
 width="48.000000pt" height="48.000000pt" viewBox="0 0 48.000000 48.000000"
 preserveAspectRatio="xMidYMid meet">
<metadata>
Created by potrace 1.16, written by Peter Selinger 2001-2019
</metadata>
<g transform="translate(0.000000,48.000000) scale(0.100000,-0.100000)"
fill="currentColor" stroke="none">
<path d="M70 350 c0 -73 4 -120 10 -120 6 0 10 43 10 110 l0 110 117 0 c106 0
119 -2 140 -22 13 -12 26 -18 30 -14 5 4 -5 19 -20 32 -27 23 -35 24 -158 24
l-129 0 0 -120z M180 375 c-7 -9 -21 -13 -31 -10 -23 8 -25 -8 -4 -25 13 -11
20 -9 40 10 14 13 25 27 25 32 0 13 -17 9 -30 -7z M360 333 c-40 -39 -61 -69
-65 -92 l-7 -34 33 7 c38 7 149 109 149 136 0 20 -19 40 -38 40 -8 0 -40 -26
-72 -57z m87 21 c2 -6 -25 -37 -59 -70 -51 -48 -63 -56 -66 -40 -3 12 14 37
49 72 51 52 69 60 76 38z M240 350 c0 -5 11 -10 25 -10 14 0 25 5 25 10 0 6
-11 10 -25 10 -14 0 -25 -4 -25 -10z M180 275 c-7 -9 -21 -13 -31 -10 -23 8
-25 -8 -4 -25 13 -11 20 -9 40 10 14 13 25 27 25 32 0 13 -17 9 -30 -7z M47
172 c-21 -23 -22 -66 -2 -85 13 -13 12 -17 -10 -31 -14 -9 -25 -23 -25 -32 0
-13 5 -12 26 5 34 27 78 27 104 1 25 -25 25 -25 50 0 11 11 33 20 50 20 17 0
39 -9 50 -20 11 -11 22 -20 25 -20 3 0 14 9 25 20 26 26 70 26 104 -1 21 -17
26 -18 26 -5 0 9 -11 23 -25 32 -22 14 -23 18 -10 31 35 34 6 103 -43 103 -48
0 -82 -71 -47 -100 21 -17 19 -25 -7 -37 -16 -7 -30 -7 -45 0 -27 12 -29 20
-8 37 37 31 5 100 -47 100 -48 0 -79 -70 -43 -100 21 -17 19 -25 -10 -38 -20
-9 -30 -9 -45 0 -24 15 -25 22 -5 38 35 29 1 100 -48 100 -13 0 -31 -8 -40
-18z m77 -24 c16 -26 -4 -53 -40 -53 -23 0 -30 5 -32 23 -7 47 47 69 72 30z
m146 7 c26 -32 -13 -81 -47 -59 -10 6 -19 19 -21 28 -8 38 43 61 68 31z m150
1 c6 -8 10 -25 8 -38 -6 -42 -78 -32 -78 11 0 37 46 55 70 27z"/>
</g>
</svg>

