<?xml version="1.0" standalone="no"?>
<!DOCTYPE svg PUBLIC "-//W3C//DTD SVG 20010904//EN"
 "http://www.w3.org/TR/2001/REC-SVG-20010904/DTD/svg10.dtd">
<svg version="1.0" xmlns="http://www.w3.org/2000/svg"
 width="48.000000pt" height="48.000000pt" viewBox="0 0 48.000000 48.000000"
 preserveAspectRatio="xMidYMid meet">
<metadata>
Created by potrace 1.16, written by Peter Selinger 2001-2019
</metadata>
<g transform="translate(0.000000,48.000000) scale(0.100000,-0.100000)"
fill="currentColor" stroke="none">
<path d="M192 470 c-33 -14 -43 -52 -40 -157 4 -136 22 -122 26 20 2 94 5 117
17 117 12 0 15 -24 17 -120 4 -159 22 -159 26 0 l3 120 104 0 105 0 0 -140 0
-139 -102 -3 c-130 -4 -130 -23 -1 -23 128 0 128 0 128 165 0 168 3 164 -148
167 -62 2 -122 -2 -135 -7z M310 375 c-7 -8 -10 -27 -7 -41 3 -18 -2 -33 -15
-46 -10 -10 -18 -29 -16 -41 3 -20 9 -22 73 -22 64 0 70 2 73 22 2 12 -6 31
-16 41 -13 13 -18 28 -15 46 6 32 -12 56 -42 56 -12 0 -28 -7 -35 -15z m60
-30 c0 -20 -5 -25 -25 -25 -20 0 -25 5 -25 25 0 20 5 25 25 25 20 0 25 -5 25
-25z m18 -67 c22 -22 13 -28 -43 -28 -30 0 -55 4 -55 8 0 17 25 32 55 32 17 0
36 -5 43 -12z M7 193 c-9 -8 -9 -168 0 -176 3 -4 11 -2 18 3 6 5 74 11 151 12
132 3 139 4 142 24 4 29 -29 55 -80 61 -29 4 -50 14 -63 30 -16 19 -33 25 -80
30 -33 3 -65 10 -71 14 -6 5 -14 6 -17 2z m152 -57 c10 -12 8 -15 -14 -18 -14
-2 -27 -7 -28 -13 -1 -6 32 -11 80 -13 56 -2 85 -7 93 -17 11 -13 -5 -15 -124
-15 l-136 0 0 45 0 45 59 0 c38 0 63 -5 70 -14z"/>
</g>
</svg>

