<?xml version="1.0" standalone="no"?>
<!DOCTYPE svg PUBLIC "-//W3C//DTD SVG 20010904//EN"
 "http://www.w3.org/TR/2001/REC-SVG-20010904/DTD/svg10.dtd">
<svg version="1.0" xmlns="http://www.w3.org/2000/svg"
 width="48.000000pt" height="48.000000pt" viewBox="0 0 48.000000 48.000000"
 preserveAspectRatio="xMidYMid meet">
<metadata>
Created by potrace 1.16, written by Peter Selinger 2001-2019
</metadata>
<g transform="translate(0.000000,48.000000) scale(0.100000,-0.100000)"
fill="currentColor" stroke="none">
<path d="M62 427 c-29 -31 -28 -72 3 -102 30 -30 64 -32 99 -4 33 26 36 79 6
109 -28 28 -81 26 -108 -3z m96 -9 c28 -28 1 -98 -37 -98 -50 0 -79 61 -45 94
18 19 65 21 82 4z M247 403 c-12 -12 -7 -22 8 -17 13 5 15 -7 15 -74 0 -44 7
-116 15 -159 20 -103 20 -103 -15 -103 -43 0 -106 34 -127 70 -9 16 -21 30
-25 30 -30 0 29 -77 77 -100 112 -54 237 -1 270 115 26 91 -12 177 -97 219
-49 25 -107 34 -121 19z m134 -48 c45 -29 69 -79 69 -142 0 -79 -8 -82 -89
-32 l-71 44 0 76 c0 41 3 79 7 82 9 10 42 -1 84 -28z m-15 -201 c55 -35 55
-36 37 -56 -16 -18 -64 -48 -76 -48 -3 0 -8 21 -12 48 -3 26 -9 57 -12 70 -3
12 -3 22 1 22 3 0 31 -16 62 -36z M66 275 c-16 -9 -35 -23 -42 -33 -29 -38
-19 -42 96 -42 61 0 110 3 110 8 0 16 -33 53 -60 67 -37 19 -67 19 -104 0z
m111 -30 l28 -24 -82 -1 c-87 0 -102 9 -55 34 40 22 77 19 109 -9z"/>
</g>
</svg>

