<?xml version="1.0" standalone="no"?>
<!DOCTYPE svg PUBLIC "-//W3C//DTD SVG 20010904//EN"
 "http://www.w3.org/TR/2001/REC-SVG-20010904/DTD/svg10.dtd">
<svg version="1.0" xmlns="http://www.w3.org/2000/svg"
 width="48.000000pt" height="48.000000pt" viewBox="0 0 48.000000 48.000000"
 preserveAspectRatio="xMidYMid meet">
<metadata>
Created by potrace 1.16, written by Peter Selinger 2001-2019
</metadata>
<g transform="translate(0.000000,48.000000) scale(0.100000,-0.100000)"
fill="currentColor" stroke="none">
<path d="M186 448 c-36 -51 -7 -108 54 -108 29 0 43 6 54 22 36 51 7 108 -54
108 -29 0 -43 -6 -54 -22z m95 -14 c11 -14 8 -15 -26 -12 -21 2 -40 9 -43 16
-6 18 53 15 69 -4z m-29 -34 c21 0 38 -4 38 -8 0 -16 -25 -32 -50 -32 -31 0
-50 17 -50 44 0 16 3 17 12 8 7 -7 29 -12 50 -12z M169 290 c-20 -19 -29 -38
-27 -52 3 -22 7 -23 98 -23 91 0 95 1 98 23 2 14 -7 33 -27 52 -42 42 -100 42
-142 0z m61 -10 c0 -11 5 -20 10 -20 6 0 10 9 10 20 0 28 25 25 50 -7 l22 -28
-41 -3 c-23 -2 -59 -2 -82 0 l-41 3 22 28 c25 32 50 35 50 7z M35 190 l-29
-30 29 -30 c31 -33 50 -33 20 0 -18 20 -18 20 78 20 l97 0 0 -57 c0 -56 0 -56
-20 -38 -33 30 -33 11 0 -20 l30 -29 30 29 c33 31 33 50 0 20 -20 -18 -20 -18
-20 38 l0 57 97 0 c96 0 96 0 78 -20 -30 -33 -11 -33 20 0 l29 30 -29 30 c-31
33 -50 33 -20 0 18 -20 18 -20 -185 -20 -203 0 -203 0 -185 20 30 33 11 33
-20 0z"/>
</g>
</svg>

