<?xml version="1.0" standalone="no"?>
<!DOCTYPE svg PUBLIC "-//W3C//DTD SVG 20010904//EN"
 "http://www.w3.org/TR/2001/REC-SVG-20010904/DTD/svg10.dtd">
<svg version="1.0" xmlns="http://www.w3.org/2000/svg"
 width="48.000000pt" height="48.000000pt" viewBox="0 0 48.000000 48.000000"
 preserveAspectRatio="xMidYMid meet">
<metadata>
Created by potrace 1.16, written by Peter Selinger 2001-2019
</metadata>
<g transform="translate(0.000000,48.000000) scale(0.100000,-0.100000)"
fill="currentColor" stroke="none">
<path d="M187 452 c-23 -25 -22 -85 1 -105 26 -24 85 -22 107 3 23 26 23 74 0
100 -24 26 -85 27 -108 2z m99 -27 c15 -23 15 -27 0 -50 -18 -27 -63 -34 -84
-13 -15 15 -15 61 0 76 21 21 66 14 84 -13z M225 313 c-37 -7 -67 -27 -81 -55
-19 -36 -9 -36 26 2 22 24 36 30 70 30 33 0 48 -6 72 -30 16 -16 31 -30 34
-30 11 0 2 21 -18 45 -24 27 -70 44 -103 38z M10 235 c-22 -59 -7 -149 35
-200 33 -41 44 -24 11 19 -23 30 -26 44 -26 110 0 61 3 76 15 76 11 0 15 -11
15 -40 0 -44 21 -103 41 -115 9 -6 10 -3 6 11 -19 63 -19 64 -4 64 23 0 40
-36 47 -95 5 -51 22 -68 28 -28 7 50 -34 138 -68 145 -8 2 -20 19 -25 38 -8
27 -16 36 -38 38 -21 3 -29 -2 -37 -23z M400 234 c-6 -14 -10 -32 -10 -40 0
-8 -4 -12 -10 -9 -27 17 -86 -94 -78 -146 6 -39 23 -23 28 26 7 59 24 95 47
95 11 0 14 -6 9 -20 -3 -11 -9 -30 -13 -42 -4 -15 -3 -19 6 -13 20 12 41 71
41 115 0 29 4 40 15 40 12 0 15 -15 15 -76 0 -66 -3 -80 -26 -110 -33 -43 -22
-60 11 -19 41 51 57 141 35 199 -7 19 -17 26 -35 26 -18 0 -28 -7 -35 -26z"/>
</g>
</svg>

