<?xml version="1.0" standalone="no"?>
<!DOCTYPE svg PUBLIC "-//W3C//DTD SVG 20010904//EN"
 "http://www.w3.org/TR/2001/REC-SVG-20010904/DTD/svg10.dtd">
<svg version="1.0" xmlns="http://www.w3.org/2000/svg"
 width="48.000000pt" height="48.000000pt" viewBox="0 0 48.000000 48.000000"
 preserveAspectRatio="xMidYMid meet">
<metadata>
Created by potrace 1.16, written by Peter Selinger 2001-2019
</metadata>
<g transform="translate(0.000000,48.000000) scale(0.100000,-0.100000)"
fill="currentColor" stroke="none">
<path d="M57 403 c-29 -64 -31 -76 -35 -206 -3 -114 -1 -142 12 -162 l16 -25
190 0 190 0 16 25 c13 20 15 47 12 162 -4 129 -6 142 -36 206 l-31 67 -151 0
-151 0 -32 -67z m173 -3 l0 -50 -85 0 c-47 0 -85 2 -85 4 0 2 9 25 20 50 l19
46 66 0 65 0 0 -50z m170 4 c11 -25 20 -48 20 -50 0 -2 -38 -4 -85 -4 l-85 0
0 50 0 50 65 0 66 0 19 -46z m-312 -119 c18 -38 26 -45 51 -45 25 0 30 -5 35
-35 4 -19 11 -35 16 -35 12 0 12 7 1 47 -8 28 -7 33 10 38 10 4 19 11 19 17 0
6 -9 8 -22 3 -64 -20 -76 -18 -92 13 -9 17 -16 33 -16 37 0 3 77 5 170 5 l170
0 0 -150 0 -150 -190 0 -190 0 0 150 c0 83 4 150 8 150 4 0 18 -20 30 -45z
M275 110 c-4 -6 15 -10 49 -10 31 0 56 5 56 10 0 6 -22 10 -49 10 -28 0 -53
-4 -56 -10z"/>
</g>
</svg>

