<?xml version="1.0" standalone="no"?>
<!DOCTYPE svg PUBLIC "-//W3C//DTD SVG 20010904//EN"
 "http://www.w3.org/TR/2001/REC-SVG-20010904/DTD/svg10.dtd">
<svg version="1.0" xmlns="http://www.w3.org/2000/svg"
 width="48.000000pt" height="48.000000pt" viewBox="0 0 48.000000 48.000000"
 preserveAspectRatio="xMidYMid meet">
<metadata>
Created by potrace 1.16, written by Peter Selinger 2001-2019
</metadata>
<g transform="translate(0.000000,48.000000) scale(0.100000,-0.100000)"
fill="currentColor" stroke="none">
<path d="M33 470 c-30 -12 -35 -48 -31 -228 2 -107 7 -155 16 -164 8 -8 41
-13 92 -13 107 0 109 19 3 23 l-83 3 0 179 0 180 123 0 c121 0 124 0 149 -27
16 -17 28 -42 30 -63 3 -40 21 -43 26 -5 3 20 -8 38 -46 76 l-49 49 -104 -1
c-57 0 -114 -4 -126 -9z M156 343 c-3 -3 -6 -35 -6 -70 0 -48 -3 -63 -14 -63
-10 0 -16 13 -18 35 -4 46 -22 50 -26 5 -2 -19 -8 -40 -13 -46 -15 -18 2 -24
71 -24 82 0 92 9 88 82 -4 66 -22 65 -26 -2 -2 -36 -7 -50 -18 -50 -11 0 -14
15 -14 64 0 60 -8 84 -24 69z M355 260 c-25 -10 -40 -27 -50 -60 -4 -14 -13
-28 -19 -32 -13 -8 -15 -142 -3 -155 11 -11 173 -11 184 0 13 13 10 147 -4
155 -6 4 -14 19 -18 34 -11 44 -54 71 -90 58z m53 -32 c7 -7 12 -20 12 -30 0
-15 -8 -18 -45 -18 -37 0 -45 3 -45 18 0 24 19 42 45 42 12 0 26 -5 33 -12z
m42 -138 l0 -60 -75 0 -75 0 0 60 0 60 75 0 75 0 0 -60z M366 103 c-12 -12 -6
-33 9 -33 8 0 15 6 15 14 0 17 -14 28 -24 19z"/>
</g>
</svg>

