<?xml version="1.0" standalone="no"?>
<!DOCTYPE svg PUBLIC "-//W3C//DTD SVG 20010904//EN"
 "http://www.w3.org/TR/2001/REC-SVG-20010904/DTD/svg10.dtd">
<svg version="1.0" xmlns="http://www.w3.org/2000/svg"
 width="48.000000pt" height="48.000000pt" viewBox="0 0 48.000000 48.000000"
 preserveAspectRatio="xMidYMid meet">
<metadata>
Created by potrace 1.16, written by Peter Selinger 2001-2019
</metadata>
<g transform="translate(0.000000,48.000000) scale(0.100000,-0.100000)"
fill="currentColor" stroke="none">
<path d="M33 470 c-30 -12 -35 -48 -31 -228 2 -106 7 -155 16 -164 15 -15 125
-18 132 -3 3 6 -20 11 -57 13 l-63 3 0 179 0 180 123 0 c121 0 124 0 150 -27
19 -21 27 -41 29 -76 4 -60 22 -66 26 -9 3 41 0 47 -46 93 l-49 49 -104 -1
c-57 0 -114 -4 -126 -9z M156 343 c-3 -3 -6 -35 -6 -70 0 -48 -3 -63 -14 -63
-10 0 -16 13 -18 35 -4 46 -22 50 -26 5 -2 -19 -8 -40 -13 -46 -13 -16 0 -24
41 -24 51 0 60 14 60 91 0 63 -8 88 -24 72z M215 310 c-4 -6 -3 -16 3 -22 6
-6 12 -6 17 2 4 6 3 16 -3 22 -6 6 -12 6 -17 -2z M265 184 c-31 -28 -46 -47
-39 -52 6 -4 14 -29 16 -55 3 -27 11 -54 17 -60 16 -16 156 -16 172 0 6 6 14
33 17 60 2 26 10 51 16 55 19 13 -84 97 -119 97 -21 0 -44 -13 -80 -45z m128
1 c24 -22 27 -31 27 -90 0 -75 -20 -90 -36 -27 -8 32 -13 37 -39 37 -26 0 -31
-5 -39 -37 -16 -63 -36 -48 -36 27 0 59 3 68 28 90 34 31 60 31 95 0z m-33
-125 c0 -20 -5 -30 -15 -30 -10 0 -15 10 -15 30 0 20 5 30 15 30 10 0 15 -10
15 -30z"/>
</g>
</svg>

