<?xml version="1.0" standalone="no"?>
<!DOCTYPE svg PUBLIC "-//W3C//DTD SVG 20010904//EN"
 "http://www.w3.org/TR/2001/REC-SVG-20010904/DTD/svg10.dtd">
<svg version="1.0" xmlns="http://www.w3.org/2000/svg"
 width="48.000000pt" height="48.000000pt" viewBox="0 0 48.000000 48.000000"
 preserveAspectRatio="xMidYMid meet">
<metadata>
Created by potrace 1.16, written by Peter Selinger 2001-2019
</metadata>
<g transform="translate(0.000000,48.000000) scale(0.100000,-0.100000)"
fill="currentColor" stroke="none">
<path d="M33 470 c-30 -12 -35 -48 -31 -228 2 -106 7 -155 16 -164 15 -15 125
-18 132 -3 3 6 -20 11 -57 13 l-63 3 0 179 0 180 123 0 c121 0 124 0 149 -27
17 -18 28 -42 30 -66 4 -47 22 -53 26 -9 3 29 -4 41 -46 83 l-49 49 -104 -1
c-57 0 -114 -4 -126 -9z M156 343 c-3 -3 -6 -35 -6 -70 0 -48 -3 -63 -14 -63
-10 0 -16 13 -18 35 -4 46 -22 50 -26 5 -2 -19 -8 -40 -13 -46 -16 -19 2 -24
86 -24 84 0 102 5 86 24 -6 6 -11 34 -13 61 -4 64 -22 61 -26 -5 -2 -36 -7
-50 -18 -50 -11 0 -14 15 -14 64 0 60 -8 84 -24 69z M312 177 c-73 -73 -84
-90 -89 -127 l-6 -43 43 6 c37 5 54 16 127 89 84 84 100 117 71 146 -29 29
-62 13 -146 -71z m136 38 c4 -26 -142 -171 -182 -181 -28 -7 -29 -6 -22 22 10
40 155 186 181 182 11 -2 21 -12 23 -23z"/>
</g>
</svg>

