<?xml version="1.0" standalone="no"?>
<!DOCTYPE svg PUBLIC "-//W3C//DTD SVG 20010904//EN"
 "http://www.w3.org/TR/2001/REC-SVG-20010904/DTD/svg10.dtd">
<svg version="1.0" xmlns="http://www.w3.org/2000/svg"
 width="48.000000pt" height="48.000000pt" viewBox="0 0 48.000000 48.000000"
 preserveAspectRatio="xMidYMid meet">
<metadata>
Created by potrace 1.16, written by Peter Selinger 2001-2019
</metadata>
<g transform="translate(0.000000,48.000000) scale(0.100000,-0.100000)"
fill="currentColor" stroke="none">
<path d="M33 470 c-30 -12 -35 -48 -31 -228 2 -106 7 -155 16 -164 15 -15 125
-18 132 -3 3 6 -20 11 -57 13 l-63 3 0 179 0 180 123 0 c121 0 124 0 149 -27
16 -17 28 -42 30 -63 3 -40 21 -43 26 -5 3 20 -8 38 -46 76 l-49 49 -104 -1
c-57 0 -114 -4 -126 -9z M66 343 c-3 -3 -6 -43 -6 -88 0 -95 8 -108 67 -103
49 4 49 22 1 26 -32 3 -38 7 -38 26 0 12 13 35 30 51 28 27 31 27 48 12 25
-23 59 -21 72 3 12 22 1 27 -18 8 -10 -10 -19 -8 -43 6 -30 18 -32 18 -60 -3
l-29 -22 0 40 c0 38 -10 57 -24 44z M317 262 c-15 -2 -43 -19 -62 -37 -53 -53
-53 -127 0 -180 53 -53 127 -53 179 0 54 53 54 126 1 179 -33 33 -66 44 -118
38z m104 -51 c24 -24 29 -38 29 -76 0 -66 -39 -105 -105 -105 -66 0 -105 39
-105 105 0 66 39 105 105 105 38 0 52 -5 76 -29z M336 193 c-3 -3 -6 -14 -6
-24 0 -11 -9 -19 -22 -21 -29 -4 -30 -22 -1 -26 14 -2 23 -11 25 -25 4 -27 22
-25 26 2 2 11 12 21 25 23 27 4 25 22 -3 26 -12 2 -20 11 -20 22 0 20 -13 33
-24 23z"/>
</g>
</svg>

