<?xml version="1.0" standalone="no"?>
<!DOCTYPE svg PUBLIC "-//W3C//DTD SVG 20010904//EN"
 "http://www.w3.org/TR/2001/REC-SVG-20010904/DTD/svg10.dtd">
<svg version="1.0" xmlns="http://www.w3.org/2000/svg"
 width="48.000000pt" height="48.000000pt" viewBox="0 0 48.000000 48.000000"
 preserveAspectRatio="xMidYMid meet">
<metadata>
Created by potrace 1.16, written by Peter Selinger 2001-2019
</metadata>
<g transform="translate(0.000000,48.000000) scale(0.100000,-0.100000)"
fill="currentColor" stroke="none">
<path d="M33 470 c-30 -12 -35 -48 -31 -228 2 -106 7 -155 16 -164 15 -15 125
-18 132 -3 3 6 -20 11 -57 13 l-63 3 0 179 0 180 123 0 c121 0 124 0 149 -27
16 -17 28 -42 30 -63 3 -40 21 -43 26 -5 3 20 -8 38 -46 76 l-49 49 -104 -1
c-57 0 -114 -4 -126 -9z M156 343 c-3 -3 -6 -35 -6 -70 0 -48 -3 -63 -14 -63
-10 0 -16 13 -18 35 -4 46 -22 50 -26 5 -2 -19 -8 -40 -13 -46 -13 -16 0 -24
41 -24 51 0 60 14 60 91 0 63 -8 88 -24 72z M215 308 c-9 -22 -2 -68 10 -71
14 -3 19 63 6 76 -7 7 -12 5 -16 -5z M382 248 c-7 -7 -12 -22 -12 -34 0 -32
-40 -54 -84 -47 -22 3 -42 1 -51 -7 -18 -15 -20 -61 -3 -78 15 -15 60 -16 74
-2 16 16 64 -5 64 -28 0 -25 20 -42 50 -42 33 0 50 17 50 50 0 14 -5 31 -12
38 -15 15 -60 16 -74 2 -14 -14 -64 5 -64 24 0 25 45 46 84 39 43 -7 66 9 66
46 0 34 -17 51 -50 51 -14 0 -31 -5 -38 -12z m63 -38 c0 -18 -6 -26 -23 -28
-13 -2 -25 3 -28 12 -10 26 4 48 28 44 17 -2 23 -10 23 -28z m-150 -90 c0 -18
-6 -26 -23 -28 -24 -4 -38 18 -28 44 3 9 15 14 28 12 17 -2 23 -10 23 -28z
m150 -60 c0 -18 -6 -26 -23 -28 -24 -4 -38 18 -28 44 3 9 15 14 28 12 17 -2
23 -10 23 -28z"/>
</g>
</svg>

