<?xml version="1.0" standalone="no"?>
<!DOCTYPE svg PUBLIC "-//W3C//DTD SVG 20010904//EN"
 "http://www.w3.org/TR/2001/REC-SVG-20010904/DTD/svg10.dtd">
<svg version="1.0" xmlns="http://www.w3.org/2000/svg"
 width="48.000000pt" height="48.000000pt" viewBox="0 0 48.000000 48.000000"
 preserveAspectRatio="xMidYMid meet">
<metadata>
Created by potrace 1.16, written by Peter Selinger 2001-2019
</metadata>
<g transform="translate(0.000000,48.000000) scale(0.100000,-0.100000)"
fill="currentColor" stroke="none">
<path d="M33 470 c-30 -12 -35 -48 -31 -228 2 -106 7 -155 16 -164 15 -15 125
-18 132 -3 3 6 -20 11 -57 13 l-63 3 0 179 0 180 123 0 c121 0 124 0 149 -27
16 -17 28 -42 30 -63 3 -40 21 -43 26 -5 3 20 -8 38 -46 76 l-49 49 -104 -1
c-57 0 -114 -4 -126 -9z M156 343 c-3 -3 -6 -35 -6 -70 0 -48 -3 -63 -14 -63
-10 0 -16 13 -18 35 -4 46 -22 50 -26 5 -2 -19 -8 -40 -13 -46 -13 -16 0 -24
41 -24 51 0 60 14 60 91 0 63 -8 88 -24 72z M215 310 c-4 -6 -3 -16 3 -22 6
-6 12 -6 17 2 4 6 3 16 -3 22 -6 6 -12 6 -17 -2z M270 232 c-31 -10 -50 -36
-50 -68 0 -26 12 -45 56 -93 31 -34 62 -61 69 -61 7 0 38 27 69 61 44 48 56
67 56 93 0 54 -49 84 -96 60 -23 -12 -33 -13 -54 -3 -33 17 -33 17 -50 11z
m56 -36 c17 -12 22 -12 39 0 23 17 57 18 73 2 25 -25 13 -59 -41 -115 l-53
-55 -52 56 c-52 55 -64 90 -40 114 16 16 49 15 74 -2z"/>
</g>
</svg>

