<?xml version="1.0" standalone="no"?>
<!DOCTYPE svg PUBLIC "-//W3C//DTD SVG 20010904//EN"
 "http://www.w3.org/TR/2001/REC-SVG-20010904/DTD/svg10.dtd">
<svg version="1.0" xmlns="http://www.w3.org/2000/svg"
 width="48.000000pt" height="48.000000pt" viewBox="0 0 48.000000 48.000000"
 preserveAspectRatio="xMidYMid meet">
<metadata>
Created by potrace 1.16, written by Peter Selinger 2001-2019
</metadata>
<g transform="translate(0.000000,48.000000) scale(0.100000,-0.100000)"
fill="currentColor" stroke="none">
<path d="M33 470 c-30 -12 -35 -48 -31 -228 2 -106 7 -155 16 -164 15 -15 125
-18 132 -3 3 6 -20 11 -57 13 l-63 3 0 179 0 180 123 0 c121 0 124 0 149 -27
16 -17 28 -42 30 -63 3 -40 21 -43 26 -5 3 20 -8 38 -46 76 l-49 49 -104 -1
c-57 0 -114 -4 -126 -9z M156 343 c-3 -3 -6 -35 -6 -70 0 -48 -3 -63 -14 -63
-10 0 -16 13 -18 35 -4 46 -22 50 -26 5 -2 -19 -8 -40 -13 -46 -13 -16 0 -24
41 -24 51 0 60 14 60 91 0 63 -8 88 -24 72z M215 310 c-4 -6 -3 -16 3 -22 6
-6 12 -6 17 2 4 6 3 16 -3 22 -6 6 -12 6 -17 -2z M321 262 c-36 -6 -70 -31
-88 -65 -45 -87 16 -189 112 -189 48 0 119 41 102 59 -3 3 -18 -4 -33 -16 -42
-33 -108 -29 -145 8 -24 24 -29 38 -29 76 0 38 5 52 29 76 37 37 104 41 145 8
33 -26 33 -37 1 -41 -38 -4 -35 -22 3 -26 44 -4 62 12 62 59 0 42 -18 63 -27
30 -5 -18 -7 -19 -28 -5 -30 20 -74 31 -104 26z"/>
</g>
</svg>

