<?xml version="1.0" standalone="no"?>
<!DOCTYPE svg PUBLIC "-//W3C//DTD SVG 20010904//EN"
 "http://www.w3.org/TR/2001/REC-SVG-20010904/DTD/svg10.dtd">
<svg version="1.0" xmlns="http://www.w3.org/2000/svg"
 width="48.000000pt" height="48.000000pt" viewBox="0 0 48.000000 48.000000"
 preserveAspectRatio="xMidYMid meet">
<metadata>
Created by potrace 1.16, written by Peter Selinger 2001-2019
</metadata>
<g transform="translate(0.000000,48.000000) scale(0.100000,-0.100000)"
fill="currentColor" stroke="none">
<path d="M9 443 c-6 -16 -9 -55 -7 -87 5 -73 28 -96 94 -96 l44 0 0 -96 c0
-92 1 -97 29 -125 41 -41 101 -41 142 0 28 28 29 33 29 125 l0 96 44 0 c66 0
89 23 94 96 5 77 -9 114 -43 114 -29 0 -45 -30 -45 -86 0 -49 -24 -43 -36 9
-8 38 -12 42 -39 42 -26 0 -31 -5 -39 -37 -10 -40 -1 -62 14 -38 6 8 10 25 10
38 0 13 6 22 15 22 9 0 15 -10 15 -26 0 -39 18 -64 45 -64 30 0 45 26 45 79 0
30 4 41 15 41 12 0 15 -15 15 -75 0 -63 -3 -76 -19 -85 -30 -15 -107 -12 -121
5 -17 21 -123 21 -140 0 -14 -17 -91 -20 -121 -5 -16 9 -19 22 -19 85 0 60 3
75 15 75 11 0 15 -11 15 -41 0 -53 15 -79 45 -79 27 0 45 25 45 64 0 16 6 26
15 26 9 0 15 -9 15 -22 0 -13 4 -30 10 -38 15 -24 24 -2 14 38 -8 32 -13 37
-39 37 -27 0 -31 -4 -39 -42 -12 -52 -36 -58 -36 -9 0 56 -16 86 -45 86 -19 0
-28 -7 -36 -27z m293 -170 c15 -13 18 -32 18 -106 0 -79 -3 -94 -22 -114 -28
-30 -83 -31 -115 -1 -21 19 -23 30 -23 111 0 110 11 127 78 127 28 0 52 -6 64
-17z M190 205 c0 -8 7 -15 15 -15 8 0 15 7 15 15 0 8 -7 15 -15 15 -8 0 -15
-7 -15 -15z M260 205 c0 -8 7 -15 15 -15 8 0 15 7 15 15 0 8 -7 15 -15 15 -8
0 -15 -7 -15 -15z M225 81 c-7 -12 12 -24 25 -16 11 7 4 25 -10 25 -5 0 -11
-4 -15 -9z"/>
</g>
</svg>

