<?xml version="1.0" standalone="no"?>
<!DOCTYPE svg PUBLIC "-//W3C//DTD SVG 20010904//EN"
 "http://www.w3.org/TR/2001/REC-SVG-20010904/DTD/svg10.dtd">
<svg version="1.0" xmlns="http://www.w3.org/2000/svg"
 width="48.000000pt" height="48.000000pt" viewBox="0 0 48.000000 48.000000"
 preserveAspectRatio="xMidYMid meet">
<metadata>
Created by potrace 1.16, written by Peter Selinger 2001-2019
</metadata>
<g transform="translate(0.000000,48.000000) scale(0.100000,-0.100000)"
fill="currentColor" stroke="none">
<path d="M17 463 c-4 -3 -7 -79 -7 -169 0 -138 2 -163 16 -168 26 -10 182 -7
189 4 4 6 -28 10 -89 10 l-96 0 0 155 0 155 113 0 c106 0 115 -2 135 -23 18
-19 22 -35 22 -95 0 -41 4 -72 10 -72 6 0 10 32 10 76 0 72 -2 77 -31 105 -31
29 -33 29 -148 29 -65 0 -121 -3 -124 -7z M80 390 c0 -6 28 -10 65 -10 37 0
65 4 65 10 0 6 -28 10 -65 10 -37 0 -65 -4 -65 -10z M80 310 c0 -6 35 -10 85
-10 50 0 85 4 85 10 0 6 -35 10 -85 10 -50 0 -85 -4 -85 -10z M325 200 c-4
-14 -15 -20 -36 -20 -16 0 -29 -4 -29 -10 0 -5 4 -10 9 -10 5 0 13 -26 16 -57
11 -96 8 -93 79 -93 l63 0 7 38 c3 20 6 49 6 64 0 15 7 33 15 42 22 22 19 26
-19 26 -25 0 -35 5 -39 20 -4 14 -14 20 -35 20 -22 0 -32 -6 -37 -20z m55 -10
c0 -5 -9 -10 -20 -10 -11 0 -20 5 -20 10 0 6 9 10 20 10 11 0 20 -4 20 -10z
m45 -57 c-2 -16 -7 -45 -10 -65 -6 -37 -7 -38 -50 -38 -24 0 -46 3 -48 8 -3 4
-8 33 -11 65 l-7 57 65 0 66 0 -5 -27z"/>
</g>
</svg>

