<?xml version="1.0" standalone="no"?>
<!DOCTYPE svg PUBLIC "-//W3C//DTD SVG 20010904//EN"
 "http://www.w3.org/TR/2001/REC-SVG-20010904/DTD/svg10.dtd">
<svg version="1.0" xmlns="http://www.w3.org/2000/svg"
 width="48.000000pt" height="48.000000pt" viewBox="0 0 48.000000 48.000000"
 preserveAspectRatio="xMidYMid meet">
<metadata>
Created by potrace 1.16, written by Peter Selinger 2001-2019
</metadata>
<g transform="translate(0.000000,48.000000) scale(0.100000,-0.100000)"
fill="currentColor" stroke="none">
<path d="M16 464 c-12 -11 -16 -36 -16 -94 0 -103 7 -110 110 -110 58 0 83 4
94 16 12 11 16 36 16 94 0 103 -7 110 -110 110 -58 0 -83 -4 -94 -16z m174
-94 l0 -80 -80 0 -80 0 0 80 0 80 80 0 80 0 0 -80z M97 392 c-18 -20 -23 -52
-8 -52 5 0 11 9 14 21 3 11 15 23 26 26 12 3 21 9 21 14 0 16 -36 9 -53 -9z
M317 324 c-10 -11 3 -24 24 -24 18 0 19 -8 19 -105 l0 -105 -59 0 c-57 0 -59
1 -70 31 -6 18 -11 33 -11 34 0 2 9 5 20 8 14 3 20 14 20 31 0 35 -30 46 -125
46 -93 0 -125 -11 -125 -44 0 -14 4 -27 9 -30 5 -4 3 -19 -6 -36 -15 -32 -11
-66 7 -55 5 3 10 17 10 29 0 37 22 47 97 44 67 -3 68 -4 84 -37 18 -39 37 -49
89 -50 27 -1 38 -7 45 -23 15 -35 75 -32 93 4 7 16 17 28 23 28 5 0 9 11 9 25
0 29 -40 75 -65 75 -27 0 -16 18 16 25 56 12 58 81 3 98 -16 5 -43 15 -61 23
-35 16 -37 16 -46 8z m123 -79 c0 -20 -5 -25 -25 -25 -20 0 -25 5 -25 25 0 20
5 25 25 25 20 0 25 -5 25 -25z m-200 -50 c0 -12 -18 -15 -105 -15 -87 0 -105
3 -105 15 0 12 18 15 105 15 87 0 105 -3 105 -15z m188 -61 c32 -22 28 -44 -8
-44 -27 0 -30 3 -30 30 0 34 6 36 38 14z m-10 -86 c-3 -7 -15 -13 -28 -13 -13
0 -25 6 -27 13 -3 8 6 12 27 12 21 0 30 -4 28 -12z M82 98 c-15 -15 -15 -61 0
-76 15 -15 61 -15 76 0 15 15 15 61 0 76 -7 7 -24 12 -38 12 -14 0 -31 -5 -38
-12z m63 -38 c0 -18 -6 -26 -23 -28 -13 -2 -25 3 -28 12 -10 26 4 48 28 44 17
-2 23 -10 23 -28z"/>
</g>
</svg>

