<?xml version="1.0" standalone="no"?>
<!DOCTYPE svg PUBLIC "-//W3C//DTD SVG 20010904//EN"
 "http://www.w3.org/TR/2001/REC-SVG-20010904/DTD/svg10.dtd">
<svg version="1.0" xmlns="http://www.w3.org/2000/svg"
 width="48.000000pt" height="48.000000pt" viewBox="0 0 48.000000 48.000000"
 preserveAspectRatio="xMidYMid meet">
<metadata>
Created by potrace 1.16, written by Peter Selinger 2001-2019
</metadata>
<g transform="translate(0.000000,48.000000) scale(0.100000,-0.100000)"
fill="currentColor" stroke="none">
<path d="M22 458 c-15 -15 -15 -61 0 -76 7 -7 24 -12 38 -12 33 0 50 17 50 50
0 33 -17 50 -50 50 -14 0 -31 -5 -38 -12z m63 -38 c0 -18 -6 -26 -23 -28 -13
-2 -25 3 -28 12 -10 26 4 48 28 44 17 -2 23 -10 23 -28z M202 458 c-15 -15
-15 -61 0 -76 7 -7 24 -12 38 -12 33 0 50 17 50 50 0 33 -17 50 -50 50 -14 0
-31 -5 -38 -12z m63 -38 c0 -18 -6 -26 -23 -28 -13 -2 -25 3 -28 12 -10 26 4
48 28 44 17 -2 23 -10 23 -28z M382 458 c-7 -7 -12 -24 -12 -38 0 -33 17 -50
50 -50 14 0 31 5 38 12 7 7 12 24 12 38 0 33 -17 50 -50 50 -14 0 -31 -5 -38
-12z m63 -38 c0 -18 -6 -26 -23 -28 -13 -2 -25 3 -28 12 -10 26 4 48 28 44 17
-2 23 -10 23 -28z M22 278 c-15 -15 -15 -61 0 -76 15 -15 61 -15 76 0 15 15
15 61 0 76 -15 15 -61 15 -76 0z m63 -38 c0 -18 -6 -26 -23 -28 -24 -4 -38 18
-28 44 3 9 15 14 28 12 17 -2 23 -10 23 -28z M202 278 c-15 -15 -15 -61 0 -76
15 -15 61 -15 76 0 15 15 15 61 0 76 -7 7 -24 12 -38 12 -14 0 -31 -5 -38 -12z
m63 -38 c0 -18 -6 -26 -23 -28 -13 -2 -25 3 -28 12 -10 26 4 48 28 44 17 -2
23 -10 23 -28z M382 278 c-7 -7 -12 -24 -12 -38 0 -33 17 -50 50 -50 33 0 50
17 50 50 0 14 -5 31 -12 38 -7 7 -24 12 -38 12 -14 0 -31 -5 -38 -12z m63 -38
c0 -18 -6 -26 -23 -28 -24 -4 -38 18 -28 44 3 9 15 14 28 12 17 -2 23 -10 23
-28z M202 98 c-15 -15 -15 -61 0 -76 15 -15 61 -15 76 0 15 15 15 61 0 76 -7
7 -24 12 -38 12 -14 0 -31 -5 -38 -12z m63 -38 c0 -18 -6 -26 -23 -28 -13 -2
-25 3 -28 12 -10 26 4 48 28 44 17 -2 23 -10 23 -28z"/>
</g>
</svg>

