<?xml version="1.0" standalone="no"?>
<!DOCTYPE svg PUBLIC "-//W3C//DTD SVG 20010904//EN"
 "http://www.w3.org/TR/2001/REC-SVG-20010904/DTD/svg10.dtd">
<svg version="1.0" xmlns="http://www.w3.org/2000/svg"
 width="48.000000pt" height="48.000000pt" viewBox="0 0 48.000000 48.000000"
 preserveAspectRatio="xMidYMid meet">
<metadata>
Created by potrace 1.16, written by Peter Selinger 2001-2019
</metadata>
<g transform="translate(0.000000,48.000000) scale(0.100000,-0.100000)"
fill="currentColor" stroke="none">
<path d="M86 415 c-13 -14 -36 -43 -51 -65 -33 -47 -38 -36 89 -190 94 -113
108 -125 131 -113 21 12 215 245 215 259 0 7 -20 39 -45 73 l-45 61 -135 0
c-132 0 -137 -1 -159 -25z m102 -41 l-33 -46 -17 39 c-9 21 -17 41 -17 46 -1
4 22 7 50 7 l50 0 -33 -46z m166 24 c-13 -42 -25 -71 -27 -67 -2 2 -18 23 -36
47 l-33 42 52 0 c49 0 51 -1 44 -22z m-240 -22 c3 -13 9 -31 12 -40 5 -13 -2
-16 -41 -16 l-46 0 28 40 c33 46 39 48 47 16z m160 -10 c14 -19 26 -37 26 -40
0 -3 -27 -6 -60 -6 -33 0 -60 3 -60 6 0 10 52 74 60 74 4 0 19 -15 34 -34z
m139 -6 l28 -40 -46 0 c-39 0 -46 3 -41 16 3 9 9 27 12 40 8 32 14 30 47 -16z
m-231 -175 c22 -60 35 -105 30 -100 -10 11 -139 170 -161 198 -14 17 -11 18
39 15 l53 -3 39 -110z m100 11 c-20 -58 -40 -102 -43 -98 -9 10 -69 176 -69
190 0 8 24 12 74 12 l75 0 -37 -104z m152 92 c-8 -12 -146 -182 -166 -203 -7
-8 35 116 67 198 6 13 19 17 57 17 37 0 47 -3 42 -12z"/>
</g>
</svg>

