<?xml version="1.0" standalone="no"?>
<!DOCTYPE svg PUBLIC "-//W3C//DTD SVG 20010904//EN"
 "http://www.w3.org/TR/2001/REC-SVG-20010904/DTD/svg10.dtd">
<svg version="1.0" xmlns="http://www.w3.org/2000/svg"
 width="48.000000pt" height="48.000000pt" viewBox="0 0 48.000000 48.000000"
 preserveAspectRatio="xMidYMid meet">
<metadata>
Created by potrace 1.16, written by Peter Selinger 2001-2019
</metadata>
<g transform="translate(0.000000,48.000000) scale(0.100000,-0.100000)"
fill="currentColor" stroke="currentColor" stroke-width="6" stroke-linejoin="round">
<path d="M119 428 c-27 -29 -49 -57 -49 -63 0 -12 157 -155 170 -155 14 0 170
141 170 154 0 6 -22 35 -49 64 l-48 52 -73 0 -73 0 -48 -52z m169 15 c-25 -51
-34 -63 -48 -63 -14 0 -23 12 -48 63 -2 4 20 7 48 7 28 0 50 -3 48 -7z m-104
-28 c9 -13 16 -27 16 -30 0 -3 -21 -5 -46 -5 l-45 0 21 30 c26 36 33 37 54 5z
m166 -2 l22 -28 -42 -3 c-23 -2 -44 -1 -47 2 -6 6 27 56 37 56 5 0 18 -12 30
-27z m-120 -119 l0 -55 -60 53 c-33 29 -60 54 -60 55 0 2 27 3 60 3 l60 0 0
-56z m140 53 c0 -1 -27 -26 -60 -55 l-60 -53 0 55 0 56 60 0 c33 0 60 -1 60
-3z M10 235 c-22 -59 -7 -149 35 -200 33 -41 44 -24 11 19 -23 30 -26 44 -26
110 0 61 3 76 15 76 11 0 15 -12 15 -47 0 -32 8 -60 22 -83 21 -36 38 -28 19
9 -15 27 -14 41 4 41 21 0 38 -37 45 -95 5 -51 22 -68 28 -28 7 50 -34 138
-68 145 -8 2 -20 19 -25 38 -8 27 -16 36 -38 38 -21 3 -29 -2 -37 -23z M400
234 c-6 -14 -10 -32 -10 -40 0 -8 -4 -12 -10 -9 -27 17 -86 -94 -78 -146 6
-39 23 -23 28 26 7 59 24 95 47 95 11 0 14 -6 9 -20 -3 -11 -9 -30 -13 -42 -4
-15 -3 -19 6 -13 20 12 41 71 41 115 0 29 4 40 15 40 12 0 15 -15 15 -76 0
-66 -3 -80 -26 -110 -33 -43 -22 -60 11 -19 41 51 57 141 35 199 -7 19 -17 26
-35 26 -18 0 -28 -7 -35 -26z"/>
</g>
</svg>

