<?xml version="1.0" standalone="no"?>
<!DOCTYPE svg PUBLIC "-//W3C//DTD SVG 20010904//EN"
 "http://www.w3.org/TR/2001/REC-SVG-20010904/DTD/svg10.dtd">
<svg version="1.0" xmlns="http://www.w3.org/2000/svg"
 width="48.000000pt" height="48.000000pt" viewBox="0 0 48.000000 48.000000"
 preserveAspectRatio="xMidYMid meet">
<metadata>
Created by potrace 1.16, written by Peter Selinger 2001-2019
</metadata>
<g transform="translate(0.000000,48.000000) scale(0.100000,-0.100000)"
fill="currentColor" stroke="none">
<path d="M181 446 c-17 -18 -22 -34 -20 -64 3 -34 -1 -44 -29 -67 -45 -37 -64
-79 -64 -136 1 -101 70 -169 172 -169 102 0 171 68 172 169 0 57 -19 99 -64
136 -28 23 -32 33 -29 67 4 53 -27 88 -79 88 -26 0 -43 -7 -59 -24z m103 -12
c20 -20 20 -68 0 -88 -8 -9 -28 -16 -44 -16 -36 0 -60 24 -60 60 0 36 24 60
60 60 16 0 36 -7 44 -16z m69 -152 c30 -30 32 -37 32 -102 0 -67 -1 -71 -38
-107 -36 -37 -40 -38 -107 -38 -67 0 -71 2 -106 36 -28 28 -37 47 -41 82 -7
60 1 90 36 130 29 32 31 33 110 32 78 -1 83 -2 114 -33z M212 418 c-12 -12
-17 -38 -7 -38 3 0 14 9 25 20 11 11 20 22 20 25 0 10 -26 5 -38 -7z M157 256
c-45 -48 -43 -109 5 -156 42 -43 114 -43 156 0 48 47 50 108 5 156 -31 33 -42
24 -14 -12 51 -65 11 -154 -69 -154 -80 0 -120 89 -69 154 28 36 17 45 -14 12z
M417 452 c-16 -18 -16 -20 1 -35 18 -16 20 -16 35 1 16 18 16 20 -1 35 -18 16
-20 16 -35 -1z M27 362 c-16 -18 -16 -20 1 -35 18 -16 20 -16 35 1 16 18 16
20 -1 35 -18 16 -20 16 -35 -1z"/>
</g>
</svg>

