<?xml version="1.0" standalone="no"?>
<!DOCTYPE svg PUBLIC "-//W3C//DTD SVG 20010904//EN"
 "http://www.w3.org/TR/2001/REC-SVG-20010904/DTD/svg10.dtd">
<svg version="1.0" xmlns="http://www.w3.org/2000/svg"
 width="48.000000pt" height="48.000000pt" viewBox="0 0 48.000000 48.000000"
 preserveAspectRatio="xMidYMid meet">
<metadata>
Created by potrace 1.16, written by Peter Selinger 2001-2019
</metadata>
<g transform="translate(0.000000,48.000000) scale(0.100000,-0.100000)"
fill="currentColor" stroke="none">
<path d="M62 473 c-14 -5 -52 -75 -52 -95 0 -24 145 -172 161 -166 21 8 149
152 149 167 0 22 -39 88 -55 95 -20 7 -184 7 -203 -1z m49 -60 l21 -33 -51 0
c-28 0 -51 2 -51 5 0 4 7 20 16 36 19 37 38 34 65 -8z m87 2 c-13 -19 -27 -35
-33 -35 -5 0 -20 16 -33 35 l-22 35 55 0 55 0 -22 -35z m86 4 c10 -17 16 -33
13 -35 -3 -3 -25 -4 -51 -2 l-45 3 20 33 c26 40 40 40 63 1z m-134 -116 l0
-57 -50 49 c-27 27 -50 53 -50 57 0 4 23 8 50 8 l50 0 0 -57z m130 49 c0 -4
-25 -32 -55 -62 l-55 -54 0 62 0 62 55 0 c30 0 55 -4 55 -8z M417 452 c-16
-18 -16 -20 1 -35 18 -16 20 -16 35 1 16 18 16 20 -1 35 -18 16 -20 16 -35 -1z
M360 354 c0 -4 19 -23 43 -44 l42 -38 5 -126 c6 -160 25 -171 24 -13 0 83 -5
120 -17 143 -23 45 -97 104 -97 78z M320 294 c0 -3 9 -17 20 -31 26 -34 25
-65 -3 -91 -13 -12 -26 -22 -30 -22 -3 0 -22 14 -41 31 -74 65 -106 1 -37 -74
22 -24 45 -55 50 -70 6 -15 15 -27 21 -27 12 0 12 2 1 33 -5 14 -30 48 -56 77
-43 48 -50 70 -21 70 7 0 25 -13 41 -30 36 -37 49 -38 86 -1 35 35 38 77 8
115 -19 24 -39 34 -39 20z M27 199 c-16 -18 -16 -21 1 -39 18 -19 18 -19 35 1
16 18 16 21 -1 39 -18 19 -18 19 -35 -1z"/>
</g>
</svg>

