<?xml version="1.0" standalone="no"?>
<!DOCTYPE svg PUBLIC "-//W3C//DTD SVG 20010904//EN"
 "http://www.w3.org/TR/2001/REC-SVG-20010904/DTD/svg10.dtd">
<svg version="1.0" xmlns="http://www.w3.org/2000/svg"
 width="48.000000pt" height="48.000000pt" viewBox="0 0 48.000000 48.000000"
 preserveAspectRatio="xMidYMid meet">
<metadata>
Created by potrace 1.16, written by Peter Selinger 2001-2019
</metadata>
<g transform="translate(0.000000,48.000000) scale(0.100000,-0.100000)"
fill="currentColor" stroke="currentColor" stroke-width="6" stroke-linejoin="round">
<path d="M172 407 l-62 -63 0 -105 0 -105 65 -64 65 -64 65 64 65 64 0 106 0
106 -63 62 c-34 34 -65 62 -68 62 -2 0 -33 -28 -67 -63z m58 -7 l0 -40 -42 0
-42 0 39 40 c21 22 40 40 42 40 2 0 3 -18 3 -40z m65 0 l39 -40 -42 0 -42 0 0
40 c0 22 1 40 3 40 2 0 21 -18 42 -40z m-65 -160 l0 -90 -50 0 -50 0 0 90 0
90 50 0 50 0 0 -90z m120 0 l0 -90 -50 0 -50 0 0 90 0 90 50 0 50 0 0 -90z
m-120 -160 c0 -22 -1 -40 -3 -40 -2 0 -21 18 -42 40 l-39 40 42 0 42 0 0 -40z
m100 37 c0 -2 -18 -21 -40 -42 l-40 -39 0 42 0 42 40 0 c22 0 40 -1 40 -3z
M40 431 c0 -13 29 -35 37 -28 7 8 -15 37 -28 37 -5 0 -9 -4 -9 -9z M410 425
c-7 -9 -10 -18 -7 -22 8 -7 37 15 37 28 0 14 -16 11 -30 -6z M10 240 c0 -5 13
-10 30 -10 17 0 30 5 30 10 0 6 -13 10 -30 10 -17 0 -30 -4 -30 -10z M410 240
c0 -5 14 -10 30 -10 17 0 30 5 30 10 0 6 -13 10 -30 10 -16 0 -30 -4 -30 -10z
M50 65 c-7 -9 -10 -18 -7 -22 8 -7 37 15 37 28 0 14 -16 11 -30 -6z M400 71
c0 -13 29 -35 37 -28 7 8 -15 37 -28 37 -5 0 -9 -4 -9 -9z"/>
</g>
</svg>

