<?xml version="1.0" standalone="no"?>
<!DOCTYPE svg PUBLIC "-//W3C//DTD SVG 20010904//EN"
 "http://www.w3.org/TR/2001/REC-SVG-20010904/DTD/svg10.dtd">
<svg version="1.0" xmlns="http://www.w3.org/2000/svg"
 width="48.000000pt" height="48.000000pt" viewBox="0 0 48.000000 48.000000"
 preserveAspectRatio="xMidYMid meet">
<metadata>
Created by potrace 1.16, written by Peter Selinger 2001-2019
</metadata>
<g transform="translate(0.000000,48.000000) scale(0.100000,-0.100000)"
fill="currentColor" stroke="none">
<path d="M191 469 c-124 -24 -204 -146 -180 -276 46 -247 412 -247 458 0 31
168 -109 308 -278 276z m170 -54 c64 -45 91 -104 87 -187 -4 -82 -39 -139
-108 -176 -38 -20 -56 -23 -112 -20 -82 4 -139 39 -176 108 -20 38 -23 56 -20
112 4 82 39 139 108 176 38 20 56 23 112 20 55 -3 75 -9 109 -33z M174 386
c-38 -17 -82 -72 -90 -114 -9 -42 4 -102 22 -109 17 -6 214 182 214 205 0 30
-92 41 -146 18z m113 -14 c9 -5 -17 -37 -81 -101 l-95 -94 -6 36 c-12 62 19
121 80 155 23 13 84 15 102 4z M256 221 c-107 -107 -113 -125 -52 -137 119
-22 218 80 190 195 -5 20 -16 37 -24 39 -8 1 -60 -42 -114 -97z m124 19 c0
-69 -69 -140 -137 -140 -72 0 -70 8 28 106 98 98 109 101 109 34z"/>
</g>
</svg>

