<?xml version="1.0" standalone="no"?>
<!DOCTYPE svg PUBLIC "-//W3C//DTD SVG 20010904//EN"
 "http://www.w3.org/TR/2001/REC-SVG-20010904/DTD/svg10.dtd">
<svg version="1.0" xmlns="http://www.w3.org/2000/svg"
 width="48.000000pt" height="48.000000pt" viewBox="0 0 48.000000 48.000000"
 preserveAspectRatio="xMidYMid meet">
<metadata>
Created by potrace 1.16, written by Peter Selinger 2001-2019
</metadata>
<g transform="translate(0.000000,48.000000) scale(0.100000,-0.100000)"
fill="currentColor" stroke="none">
<path d="M84 440 c-48 -18 -62 -77 -26 -112 26 -26 68 -26 94 0 50 49 -3 136
-68 112z m54 -32 c28 -28 7 -78 -33 -78 -40 0 -61 50 -33 78 7 7 21 12 33 12
12 0 26 -5 33 -12z M230 245 c-107 -107 -191 -198 -187 -202 8 -7 397 375 397
389 0 20 -28 -5 -210 -187z M354 170 c-48 -18 -62 -77 -26 -112 59 -60 154 29
98 91 -21 23 -46 30 -72 21z m54 -32 c28 -28 7 -78 -33 -78 -40 0 -61 50 -33
78 15 15 51 15 66 0z"/>
</g>
</svg>

