<?xml version="1.0" standalone="no"?>
<!DOCTYPE svg PUBLIC "-//W3C//DTD SVG 20010904//EN"
 "http://www.w3.org/TR/2001/REC-SVG-20010904/DTD/svg10.dtd">
<svg version="1.0" xmlns="http://www.w3.org/2000/svg"
 width="48.000000pt" height="48.000000pt" viewBox="0 0 48.000000 48.000000"
 preserveAspectRatio="xMidYMid meet">
<metadata>
Created by potrace 1.16, written by Peter Selinger 2001-2019
</metadata>
<g transform="translate(0.000000,48.000000) scale(0.100000,-0.100000)"
fill="currentColor" stroke="currentColor" stroke-width="6" stroke-linejoin="round">
<path d="M185 450 c-10 -11 -31 -20 -47 -20 -38 0 -88 -48 -88 -85 0 -15 -9
-38 -20 -52 -27 -35 -26 -84 4 -112 16 -15 22 -29 18 -46 -6 -34 46 -85 86
-85 16 0 37 -9 47 -20 25 -27 88 -27 115 0 11 11 29 20 40 20 51 0 90 41 90
95 0 14 4 25 10 25 15 0 33 41 32 73 0 16 -10 39 -21 51 -12 12 -21 35 -21 50
0 38 -49 86 -88 86 -16 0 -37 9 -47 20 -12 13 -31 20 -55 20 -24 0 -43 -7 -55
-20z m106 -24 c13 -15 28 -22 42 -19 35 7 79 -33 75 -68 -2 -19 5 -35 20 -49
29 -27 29 -73 0 -102 -14 -14 -21 -32 -19 -49 3 -37 -31 -71 -68 -68 -17 2
-35 -5 -49 -19 -30 -30 -75 -29 -99 2 -14 18 -26 22 -49 19 -25 -4 -35 1 -53
23 -14 18 -20 36 -17 50 4 14 -2 28 -19 44 -33 31 -33 72 0 99 20 15 24 25 19
45 -8 35 36 80 73 73 20 -4 32 1 46 19 25 32 70 32 98 0z M152 338 c-27 -27
-7 -78 29 -78 21 0 49 26 49 45 0 35 -53 58 -78 33z m51 -20 c6 -19 -3 -38
-18 -38 -18 0 -28 17 -21 35 7 18 33 20 39 3z M240 245 c-46 -46 -81 -88 -77
-92 8 -7 177 155 177 169 0 19 -21 3 -100 -77z M282 208 c-27 -27 -7 -78 29
-78 21 0 49 26 49 45 0 35 -53 58 -78 33z m51 -20 c6 -19 -3 -38 -18 -38 -18
0 -28 17 -21 35 7 18 33 20 39 3z"/>
</g>
</svg>

