<?xml version="1.0" standalone="no"?>
<!DOCTYPE svg PUBLIC "-//W3C//DTD SVG 20010904//EN"
 "http://www.w3.org/TR/2001/REC-SVG-20010904/DTD/svg10.dtd">
<svg version="1.0" xmlns="http://www.w3.org/2000/svg"
 width="48.000000pt" height="48.000000pt" viewBox="0 0 48.000000 48.000000"
 preserveAspectRatio="xMidYMid meet">
<metadata>
Created by potrace 1.16, written by Peter Selinger 2001-2019
</metadata>
<g transform="translate(0.000000,48.000000) scale(0.100000,-0.100000)"
fill="currentColor" stroke="currentColor" stroke-width="6" stroke-linejoin="round">
<path d="M21 401 c-7 -5 -15 -29 -18 -54 -5 -42 -3 -46 23 -59 24 -11 29 -20
29 -48 0 -28 -5 -37 -29 -48 -26 -13 -28 -17 -23 -59 3 -25 11 -49 18 -54 18
-11 420 -11 438 0 7 5 15 29 18 54 5 42 3 46 -23 59 -24 11 -29 20 -29 48 0
28 5 37 29 48 26 13 28 17 23 59 -3 25 -11 49 -18 54 -8 5 -106 9 -219 9 -113
0 -211 -4 -219 -9z m429 -50 c0 -30 -5 -42 -25 -55 -36 -24 -36 -88 0 -112 20
-13 25 -25 25 -55 l0 -39 -210 0 -210 0 0 39 c0 30 5 42 25 55 20 13 25 25 25
56 0 31 -5 43 -25 56 -20 13 -25 25 -25 55 l0 39 210 0 210 0 0 -39z M153 333
c-21 -8 -16 -61 6 -68 30 -9 51 5 51 35 0 33 -24 47 -57 33z m37 -33 c0 -11
-7 -20 -15 -20 -8 0 -15 9 -15 20 0 11 7 20 15 20 8 0 15 -9 15 -20z M230 245
c-41 -41 -71 -78 -67 -82 8 -7 157 135 157 149 0 18 -20 4 -90 -67z M290 205
c-26 -32 13 -81 48 -59 22 14 27 41 12 59 -16 19 -44 19 -60 0z m46 -16 c10
-17 -13 -36 -27 -22 -12 12 -4 33 11 33 5 0 12 -5 16 -11z"/>
</g>
</svg>

