<?xml version="1.0" standalone="no"?>
<!DOCTYPE svg PUBLIC "-//W3C//DTD SVG 20010904//EN"
 "http://www.w3.org/TR/2001/REC-SVG-20010904/DTD/svg10.dtd">
<svg version="1.0" xmlns="http://www.w3.org/2000/svg"
 width="48.000000pt" height="48.000000pt" viewBox="0 0 48.000000 48.000000"
 preserveAspectRatio="xMidYMid meet">
<metadata>
Created by potrace 1.16, written by Peter Selinger 2001-2019
</metadata>
<g transform="translate(0.000000,48.000000) scale(0.100000,-0.100000)"
fill="currentColor" stroke="none">
<path d="M172 450 c-62 -38 -88 -114 -60 -175 14 -31 32 -34 21 -2 -4 12 -8
41 -8 65 0 34 7 48 33 75 28 27 39 32 82 32 43 0 54 -5 82 -32 26 -27 33 -41
33 -75 0 -24 -4 -53 -8 -65 -11 -32 7 -29 21 2 28 61 2 137 -60 175 -42 25
-94 25 -136 0z M217 394 c-22 -30 -16 -51 18 -64 36 -14 32 -34 -5 -26 l-31 6
18 -25 c22 -30 24 -30 46 1 22 30 16 51 -18 64 -36 14 -32 34 5 26 l31 -6 -18
25 c-22 30 -24 30 -46 -1z M41 212 c-28 -44 -31 -57 -31 -125 0 -45 4 -77 10
-77 6 0 10 30 10 70 l0 70 210 0 210 0 0 -70 c0 -40 4 -70 10 -70 6 0 10 32
10 77 0 68 -3 81 -31 125 -17 26 -35 48 -40 48 -15 0 -11 -13 16 -53 l26 -37
-201 0 -201 0 26 37 c27 40 31 53 16 53 -5 0 -23 -22 -40 -48z M120 220 c0 -6
47 -10 120 -10 73 0 120 4 120 10 0 6 -47 10 -120 10 -73 0 -120 -4 -120 -10z"/>
</g>
</svg>

