<?xml version="1.0" standalone="no"?>
<!DOCTYPE svg PUBLIC "-//W3C//DTD SVG 20010904//EN"
 "http://www.w3.org/TR/2001/REC-SVG-20010904/DTD/svg10.dtd">
<svg version="1.0" xmlns="http://www.w3.org/2000/svg"
 width="48.000000pt" height="48.000000pt" viewBox="0 0 48.000000 48.000000"
 preserveAspectRatio="xMidYMid meet">
<metadata>
Created by potrace 1.16, written by Peter Selinger 2001-2019
</metadata>
<g transform="translate(0.000000,48.000000) scale(0.100000,-0.100000)"
fill="currentColor" stroke="none">
<path d="M187 465 c-107 -28 -175 -150 -143 -253 14 -42 22 -22 18 42 -4 54 0
71 19 106 68 120 246 121 316 2 22 -37 25 -52 21 -107 -4 -66 7 -88 18 -37 3
15 7 32 9 39 2 7 -2 35 -9 63 -29 111 -139 175 -249 145z M140 335 c0 -8 7
-15 15 -15 8 0 15 7 15 15 0 8 -7 15 -15 15 -8 0 -15 -7 -15 -15z M310 335 c0
-8 7 -15 15 -15 8 0 15 7 15 15 0 8 -7 15 -15 15 -8 0 -15 -7 -15 -15z M119
234 c-14 -15 -18 -29 -14 -47 4 -15 0 -37 -10 -57 -24 -46 -13 -76 36 -101 57
-29 161 -29 218 0 49 25 60 55 36 101 -10 19 -14 42 -10 59 4 20 0 32 -15 46
-17 16 -37 19 -121 19 -90 1 -102 -1 -120 -20z m56 -3 c11 -5 30 -5 42 0 13 5
33 5 45 0 13 -5 34 -4 47 0 34 14 53 -6 45 -47 -4 -22 0 -42 12 -62 9 -16 14
-37 11 -46 -23 -60 -251 -60 -274 0 -3 9 2 30 12 46 11 20 15 40 11 60 -3 18
-1 37 5 44 13 16 16 16 44 5z M190 183 c0 -19 11 -43 21 -43 13 0 11 14 -6 36
-8 10 -15 14 -15 7z M270 169 c-13 -24 -4 -41 10 -19 10 16 13 40 5 40 -2 0
-9 -9 -15 -21z"/>
</g>
</svg>

