<?xml version="1.0" standalone="no"?>
<!DOCTYPE svg PUBLIC "-//W3C//DTD SVG 20010904//EN"
 "http://www.w3.org/TR/2001/REC-SVG-20010904/DTD/svg10.dtd">
<svg version="1.0" xmlns="http://www.w3.org/2000/svg"
 width="48.000000pt" height="48.000000pt" viewBox="0 0 48.000000 48.000000"
 preserveAspectRatio="xMidYMid meet">
<metadata>
Created by potrace 1.16, written by Peter Selinger 2001-2019
</metadata>
<g transform="translate(0.000000,48.000000) scale(0.100000,-0.100000)"
fill="currentColor" stroke="none">
<path d="M28 474 c-10 -3 -20 -19 -24 -38 -8 -43 -1 -282 8 -292 11 -11 72
-10 78 1 3 6 -10 11 -27 13 l-33 3 0 145 0 144 144 0 145 0 3 -32 c2 -18 8
-31 13 -28 11 6 12 67 1 78 -9 8 -282 13 -308 6z M158 344 c-10 -3 -20 -19
-24 -38 -8 -46 -1 -283 9 -293 11 -11 313 -11 324 0 11 11 11 313 0 324 -9 9
-281 15 -309 7z m292 -169 l0 -145 -145 0 -145 0 0 145 0 145 145 0 145 0 0
-145z"/>
</g>
</svg>

