<?xml version="1.0" standalone="no"?>
<!DOCTYPE svg PUBLIC "-//W3C//DTD SVG 20010904//EN"
 "http://www.w3.org/TR/2001/REC-SVG-20010904/DTD/svg10.dtd">
<svg version="1.0" xmlns="http://www.w3.org/2000/svg"
 width="48.000000pt" height="48.000000pt" viewBox="0 0 48.000000 48.000000"
 preserveAspectRatio="xMidYMid meet">
<metadata>
Created by potrace 1.16, written by Peter Selinger 2001-2019
</metadata>
<g transform="translate(0.000000,48.000000) scale(0.100000,-0.100000)"
fill="currentColor" stroke="none">
<path d="M50 467 c-42 -21 -51 -52 -48 -164 3 -91 6 -105 26 -125 20 -21 32
-23 120 -23 129 0 134 19 5 23 -53 1 -103 8 -110 14 -17 14 -18 229 -1 246 17
17 379 17 396 0 15 -15 17 -234 2 -243 -5 -3 -10 -14 -10 -23 0 -14 4 -13 23
6 20 21 22 32 22 137 0 164 7 159 -223 163 -129 2 -184 -1 -202 -11z M80 315
l0 -85 29 0 c40 0 49 16 49 85 0 69 -9 85 -49 85 l-29 0 0 -85z m58 37 c3 -17
-2 -22 -17 -22 -16 0 -21 6 -21 26 0 33 33 30 38 -4z m0 -74 c-5 -34 -38 -37
-38 -4 0 20 5 26 21 26 15 0 20 -5 17 -22z M202 324 c2 -60 7 -79 21 -88 12
-8 22 -8 35 0 13 9 18 28 20 88 2 46 -1 76 -7 76 -6 0 -11 -33 -13 -72 -2 -57
-6 -73 -18 -73 -12 0 -16 16 -18 73 -2 39 -7 72 -13 72 -6 0 -9 -30 -7 -76z
M320 366 c0 -19 7 -41 15 -50 8 -8 15 -31 15 -50 0 -20 5 -36 10 -36 6 0 10
16 10 36 0 19 7 42 15 50 17 17 21 84 5 84 -5 0 -10 -16 -10 -35 0 -28 -4 -35
-20 -35 -16 0 -20 7 -20 35 0 19 -4 35 -10 35 -5 0 -10 -15 -10 -34z M320 150
c0 -19 52 -140 61 -140 4 0 13 9 20 21 l11 21 24 -23 c31 -29 44 -16 15 15
l-23 24 21 11 c12 7 21 16 21 20 0 9 -121 61 -140 61 -6 0 -10 -4 -10 -10z
m99 -45 c24 -12 24 -13 3 -19 -11 -4 -24 -17 -28 -28 -6 -21 -7 -21 -19 3 -7
13 -16 35 -20 47 -6 22 -5 23 17 17 12 -4 34 -13 47 -20z"/>
</g>
</svg>

