<?xml version="1.0" standalone="no"?>
<!DOCTYPE svg PUBLIC "-//W3C//DTD SVG 20010904//EN"
 "http://www.w3.org/TR/2001/REC-SVG-20010904/DTD/svg10.dtd">
<svg version="1.0" xmlns="http://www.w3.org/2000/svg"
 width="48.000000pt" height="48.000000pt" viewBox="0 0 48.000000 48.000000"
 preserveAspectRatio="xMidYMid meet">
<metadata>
Created by potrace 1.16, written by Peter Selinger 2001-2019
</metadata>
<g transform="translate(0.000000,48.000000) scale(0.100000,-0.100000)"
fill="currentColor" stroke="none">
<path d="M37 473 c-19 -5 -41 -49 -31 -64 8 -14 24 0 24 21 0 11 8 20 20 22
12 2 21 7 21 13 1 12 -10 14 -34 8z M407 474 c-10 -11 3 -24 23 -24 12 0 20
-8 22 -22 2 -13 8 -21 13 -18 11 5 9 40 -3 51 -12 11 -48 20 -55 13z M186 439
c-15 -12 -26 -30 -26 -44 0 -17 -9 -29 -30 -40 -16 -9 -30 -21 -30 -28 -1 -6
-9 -61 -19 -121 -25 -149 -28 -146 159 -146 187 0 184 -3 159 146 -10 60 -18
115 -19 121 0 7 -13 19 -30 28 -18 9 -30 23 -30 36 0 30 -44 69 -78 69 -16 0
-41 -9 -56 -21z m96 -16 c10 -9 18 -27 18 -40 0 -22 -4 -23 -60 -23 -55 0 -60
2 -60 22 0 50 63 76 102 41z m88 -160 c6 -38 14 -92 17 -120 l6 -53 -153 0
-153 0 6 53 c3 28 11 82 17 120 l12 67 118 0 118 0 12 -67z M218 279 c-31 -18
-22 -57 17 -76 43 -21 46 -43 5 -43 -32 0 -40 -14 -14 -24 23 -9 64 20 64 45
0 13 -11 25 -35 35 -44 18 -47 44 -5 44 17 0 30 5 30 10 0 6 -4 10 -9 10 -5 0
-15 2 -23 5 -7 2 -21 0 -30 -6z M6 71 c-18 -28 38 -82 66 -65 13 8 -1 24 -23
24 -12 0 -19 7 -19 19 0 22 -16 36 -24 22z M457 74 c-4 -4 -7 -16 -7 -26 0
-11 -7 -18 -19 -18 -22 0 -36 -16 -22 -24 17 -11 58 12 64 36 7 23 -4 44 -16
32z"/>
</g>
</svg>

