<?xml version="1.0" standalone="no"?>
<!DOCTYPE svg PUBLIC "-//W3C//DTD SVG 20010904//EN"
 "http://www.w3.org/TR/2001/REC-SVG-20010904/DTD/svg10.dtd">
<svg version="1.0" xmlns="http://www.w3.org/2000/svg"
 width="48.000000pt" height="48.000000pt" viewBox="0 0 48.000000 48.000000"
 preserveAspectRatio="xMidYMid meet">
<metadata>
Created by potrace 1.16, written by Peter Selinger 2001-2019
</metadata>
<g transform="translate(0.000000,48.000000) scale(0.100000,-0.100000)"
fill="currentColor" stroke="currentColor" stroke-width="6" stroke-linejoin="round">
<path d="M90 455 c-14 -17 -7 -102 11 -120 7 -7 9 8 7 50 -3 55 -1 60 19 63
18 3 24 -4 32 -35 6 -21 12 -49 13 -63 2 -14 13 -29 28 -37 32 -16 41 -6 14
15 -13 10 -24 34 -28 61 -4 24 -11 52 -17 62 -12 23 -61 25 -79 4z M300 455
c-14 -17 -7 -102 11 -120 7 -7 9 8 7 50 -3 55 -1 60 19 63 18 3 24 -4 32 -35
6 -21 12 -49 13 -63 2 -14 13 -29 28 -37 32 -16 41 -6 14 15 -13 10 -24 34
-28 61 -4 24 -11 52 -17 62 -12 23 -61 25 -79 4z M90 280 c0 -11 7 -20 15 -20
8 0 15 9 15 20 0 11 -7 20 -15 20 -8 0 -15 -9 -15 -20z M300 280 c0 -11 7 -20
15 -20 8 0 15 9 15 20 0 11 -7 20 -15 20 -8 0 -15 -9 -15 -20z M77 222 c-41
-45 -54 -157 -23 -191 25 -28 77 -28 102 0 41 45 1 209 -51 209 -7 0 -19 -8
-28 -18z m70 -100 c6 -68 -5 -92 -42 -92 -12 0 -28 7 -35 15 -18 22 -7 131 16
156 17 19 18 19 37 1 12 -13 20 -39 24 -80z M287 222 c-23 -26 -37 -68 -39
-122 -3 -60 20 -90 67 -90 47 0 70 30 67 90 -3 74 -35 140 -67 140 -7 0 -19
-8 -28 -18z m70 -100 c6 -68 -5 -92 -42 -92 -12 0 -28 7 -35 15 -18 22 -7 131
16 156 17 19 18 19 37 1 12 -13 20 -39 24 -80z"/>
</g>
</svg>

