<?xml version="1.0" standalone="no"?>
<!DOCTYPE svg PUBLIC "-//W3C//DTD SVG 20010904//EN"
 "http://www.w3.org/TR/2001/REC-SVG-20010904/DTD/svg10.dtd">
<svg version="1.0" xmlns="http://www.w3.org/2000/svg"
 width="48.000000pt" height="48.000000pt" viewBox="0 0 48.000000 48.000000"
 preserveAspectRatio="xMidYMid meet">
<metadata>
Created by potrace 1.16, written by Peter Selinger 2001-2019
</metadata>
<g transform="translate(0.000000,48.000000) scale(0.100000,-0.100000)"
fill="currentColor" stroke="currentColor" stroke-width="6" stroke-linejoin="round">
<path d="M320 375 c-30 -31 -35 -33 -50 -20 -20 18 -52 19 -68 3 -7 -7 -12
-34 -12 -60 0 -45 -2 -48 -25 -48 -24 0 -25 3 -25 53 0 76 -35 111 -79 81 -35
-25 -22 -84 18 -84 12 0 11 3 -2 18 -21 23 -22 48 -2 56 26 9 45 -22 45 -75
l0 -49 -55 0 c-30 0 -55 -4 -55 -10 0 -5 25 -10 55 -10 l55 0 0 -47 c0 -56
-10 -76 -36 -71 -26 5 -30 36 -7 53 16 12 16 14 2 15 -38 0 -52 -62 -18 -83
24 -15 66 -1 73 25 3 13 6 42 6 66 0 38 2 42 25 42 23 0 25 -3 25 -50 0 -44 3
-52 25 -62 19 -9 29 -8 48 5 23 15 26 14 58 -19 18 -19 38 -34 44 -34 6 0 34
21 63 46 l52 46 0 78 0 78 -52 46 c-29 25 -57 46 -63 46 -6 0 -26 -16 -45 -35z
m30 -65 l0 -60 -35 0 c-31 0 -35 3 -35 27 0 17 12 39 32 60 18 18 33 33 35 33
2 0 3 -27 3 -60z m70 35 c19 -21 21 -27 10 -40 -7 -9 -22 -21 -32 -26 -16 -9
-18 -5 -18 41 0 27 4 50 8 50 5 0 19 -11 32 -25z m-165 -105 c0 -98 -1 -105
-20 -105 -18 0 -20 8 -23 94 -3 107 1 124 25 119 16 -3 18 -16 18 -108z m193
-27 l-3 -27 -30 27 -30 27 30 27 30 27 3 -27 c2 -15 2 -39 0 -54z m-98 -45 l0
-62 -35 34 c-24 23 -35 43 -35 62 0 25 3 28 35 28 l35 0 0 -62z m80 7 c11 -13
9 -19 -10 -40 -13 -14 -27 -25 -32 -25 -4 0 -8 23 -8 50 0 46 2 50 18 41 10
-5 25 -17 32 -26z"/>
</g>
</svg>

