<?xml version="1.0" standalone="no"?>
<!DOCTYPE svg PUBLIC "-//W3C//DTD SVG 20010904//EN"
 "http://www.w3.org/TR/2001/REC-SVG-20010904/DTD/svg10.dtd">
<svg version="1.0" xmlns="http://www.w3.org/2000/svg"
 width="48.000000pt" height="48.000000pt" viewBox="0 0 48.000000 48.000000"
 preserveAspectRatio="xMidYMid meet">
<metadata>
Created by potrace 1.16, written by Peter Selinger 2001-2019
</metadata>
<g transform="translate(0.000000,48.000000) scale(0.100000,-0.100000)"
fill="currentColor" stroke="currentColor" stroke-width="6" stroke-linejoin="round">
<path d="M47 468 c-42 -15 -49 -85 -15 -154 23 -49 39 -39 17 11 -12 27 -19
61 -17 83 3 35 5 37 41 40 53 4 70 -11 51 -46 -8 -16 -14 -57 -14 -98 0 -74
-15 -104 -53 -104 -42 0 5 -50 49 -52 16 -1 39 1 50 5 19 7 22 3 28 -43 9 -68
39 -102 91 -102 31 0 45 6 67 31 33 36 36 61 9 61 -35 0 -51 12 -51 37 0 21 3
23 23 17 36 -13 79 -6 101 15 11 11 18 22 15 23 -2 2 -17 10 -34 18 -29 15
-30 18 -35 102 -3 47 -11 92 -18 100 -18 23 8 40 55 36 36 -3 38 -5 41 -40 2
-22 -5 -56 -17 -83 -13 -30 -16 -45 -8 -43 28 10 55 105 43 151 -9 36 -52 48
-102 31 -30 -11 -46 -11 -66 -3 -15 6 -48 8 -75 5 -73 -10 -86 -9 -118 1 -19
6 -40 6 -58 1z m272 -53 c29 -33 31 -41 31 -115 0 -73 2 -80 27 -99 30 -25 25
-34 -17 -34 -41 0 -68 26 -50 48 18 22 3 33 -17 12 -17 -17 -30 -114 -19 -143
5 -12 9 -14 20 -5 8 7 22 8 36 3 l23 -9 -21 -21 c-26 -26 -78 -29 -104 -5 -14
12 -18 31 -18 83 0 52 -5 73 -19 91 -11 13 -23 21 -27 17 -4 -4 -1 -15 6 -23
18 -22 -9 -48 -50 -48 -42 0 -47 9 -17 34 25 19 27 26 27 99 0 74 2 82 31 115
27 31 37 35 79 35 42 0 52 -4 79 -35z M170 335 c0 -8 7 -15 15 -15 8 0 15 7
15 15 0 8 -7 15 -15 15 -8 0 -15 -7 -15 -15z M280 334 c0 -17 22 -14 28 4 2 7
-3 12 -12 12 -9 0 -16 -7 -16 -16z"/>
</g>
</svg>

