<?xml version="1.0" standalone="no"?>
<!DOCTYPE svg PUBLIC "-//W3C//DTD SVG 20010904//EN"
 "http://www.w3.org/TR/2001/REC-SVG-20010904/DTD/svg10.dtd">
<svg version="1.0" xmlns="http://www.w3.org/2000/svg"
 width="48.000000pt" height="48.000000pt" viewBox="0 0 48.000000 48.000000"
 preserveAspectRatio="xMidYMid meet">
<metadata>
Created by potrace 1.16, written by Peter Selinger 2001-2019
</metadata>
<g transform="translate(0.000000,48.000000) scale(0.100000,-0.100000)"
fill="currentColor" stroke="currentColor" stroke-width="6" stroke-linejoin="round">
<path d="M33 470 c-29 -12 -36 -52 -31 -184 2 -69 7 -110 16 -118 15 -15 136
-18 140 -3 1 6 -26 11 -63 13 l-65 3 0 125 c0 98 3 123 13 117 6 -4 43 -31 81
-60 92 -72 110 -71 212 7 l79 61 5 -66 c3 -36 10 -65 15 -65 15 0 13 146 -3
162 -16 16 -364 23 -399 8z m362 -28 c-74 -64 -147 -112 -170 -112 -23 0 -96
48 -169 112 -6 4 71 8 169 8 98 0 175 -4 170 -8z M317 262 c-15 -2 -43 -19
-62 -37 -53 -53 -53 -127 0 -180 53 -53 127 -53 179 0 54 53 54 126 1 179 -33
33 -66 44 -118 38z m104 -51 c24 -24 29 -38 29 -76 0 -66 -39 -105 -105 -105
-66 0 -105 39 -105 105 0 66 39 105 105 105 38 0 52 -5 76 -29z M290 182 c0
-5 9 -17 20 -27 l20 -18 -22 -24 c-28 -30 -15 -44 14 -15 l22 22 23 -22 c30
-28 43 -15 15 15 l-22 23 22 22 c29 29 15 42 -15 14 l-24 -22 -18 20 c-19 21
-35 26 -35 12z"/>
</g>
</svg>

