<?xml version="1.0" standalone="no"?>
<!DOCTYPE svg PUBLIC "-//W3C//DTD SVG 20010904//EN"
 "http://www.w3.org/TR/2001/REC-SVG-20010904/DTD/svg10.dtd">
<svg version="1.0" xmlns="http://www.w3.org/2000/svg"
 width="48.000000pt" height="48.000000pt" viewBox="0 0 48.000000 48.000000"
 preserveAspectRatio="xMidYMid meet">
<metadata>
Created by potrace 1.16, written by Peter Selinger 2001-2019
</metadata>
<g transform="translate(0.000000,48.000000) scale(0.100000,-0.100000)"
fill="currentColor" stroke="currentColor" stroke-width="6" stroke-linejoin="round">
<path d="M15 410 c-3 -6 0 -12 7 -15 26 -10 443 0 443 10 0 14 -441 19 -450 5z
M63 320 c-45 -18 -43 -143 3 -161 27 -10 48 -4 39 12 -4 5 -15 9 -26 9 -27 0
-24 28 4 32 12 2 22 8 22 13 0 6 -10 11 -22 13 -31 5 -33 59 -3 64 12 2 21 7
21 13 1 13 -12 15 -38 5z M377 323 c-4 -3 -3 -11 3 -17 5 -7 10 -41 12 -76 2
-36 8 -65 13 -65 6 0 11 29 13 65 2 35 7 69 12 76 6 6 7 14 3 17 -8 9 -48 9
-56 0z M170 316 c0 -2 7 -20 15 -40 14 -32 14 -40 0 -73 -22 -52 -4 -60 19 -8
4 9 21 -8 29 -30 3 -5 7 -7 11 -4 3 3 -1 22 -9 42 -14 33 -14 41 0 73 18 43
18 44 6 44 -5 0 -13 -9 -16 -20 -3 -11 -10 -20 -15 -20 -5 0 -12 9 -15 20 -5
16 -25 29 -25 16z M305 308 c-9 -24 -1 -143 10 -143 13 0 19 135 6 148 -7 7
-12 5 -16 -5z M15 80 c-3 -6 0 -12 7 -15 26 -10 443 0 443 10 0 14 -441 19
-450 5z"/>
</g>
</svg>

