<?xml version="1.0" standalone="no"?>
<!DOCTYPE svg PUBLIC "-//W3C//DTD SVG 20010904//EN"
 "http://www.w3.org/TR/2001/REC-SVG-20010904/DTD/svg10.dtd">
<svg version="1.0" xmlns="http://www.w3.org/2000/svg"
 width="48.000000pt" height="48.000000pt" viewBox="0 0 48.000000 48.000000"
 preserveAspectRatio="xMidYMid meet">
<metadata>
Created by potrace 1.16, written by Peter Selinger 2001-2019
</metadata>
<g transform="translate(0.000000,48.000000) scale(0.100000,-0.100000)"
fill="currentColor" stroke="currentColor" stroke-width="6" stroke-linejoin="round">
<path d="M15 456 c-17 -26 -17 -77 0 -77 6 0 12 17 15 38 5 36 7 38 42 41 51
4 49 22 -2 22 -31 0 -43 -5 -55 -24z M370 470 c0 -5 18 -10 39 -10 40 0 40 0
43 -42 3 -47 21 -55 26 -13 6 44 -22 75 -68 75 -22 0 -40 -4 -40 -10z M124
347 c-7 -20 -2 -47 11 -50 14 -3 19 43 6 56 -7 7 -12 6 -17 -6z M230 294 c0
-57 -3 -67 -20 -71 -11 -3 -20 -9 -20 -14 0 -12 17 -11 41 1 16 9 19 22 19 80
0 40 -4 70 -10 70 -6 0 -10 -29 -10 -66z M334 347 c-7 -20 -2 -47 11 -50 14
-3 19 43 6 56 -7 7 -12 6 -17 -6z M140 142 c0 -17 60 -42 100 -42 40 0 100 25
100 42 0 11 -11 9 -40 -7 -14 -8 -41 -14 -60 -14 -19 0 -46 6 -60 14 -29 16
-40 18 -40 7z M3 105 c-3 -10 -2 -34 3 -54 9 -34 11 -36 57 -39 28 -2 47 1 47
7 0 6 -18 11 -40 11 -40 0 -40 0 -40 39 0 42 -16 63 -27 36z M456 113 c-3 -3
-6 -24 -6 -45 0 -38 0 -38 -40 -38 -22 0 -40 -4 -40 -10 0 -5 20 -10 45 -10
40 0 47 3 55 26 18 45 8 99 -14 77z"/>
</g>
</svg>

