<?xml version="1.0" standalone="no"?>
<!DOCTYPE svg PUBLIC "-//W3C//DTD SVG 20010904//EN"
 "http://www.w3.org/TR/2001/REC-SVG-20010904/DTD/svg10.dtd">
<svg version="1.0" xmlns="http://www.w3.org/2000/svg"
 width="48.000000pt" height="48.000000pt" viewBox="0 0 48.000000 48.000000"
 preserveAspectRatio="xMidYMid meet">
<metadata>
Created by potrace 1.16, written by Peter Selinger 2001-2019
</metadata>
<g transform="translate(0.000000,48.000000) scale(0.100000,-0.100000)"
fill="currentColor" stroke="none">
<path d="M129 473 c-9 -2 -34 -30 -55 -61 l-39 -57 0 -117 c0 -82 4 -121 13
-130 15 -15 125 -18 132 -3 3 6 -20 11 -57 13 l-63 3 0 119 0 120 165 0 165 0
0 -24 c0 -29 18 -44 26 -22 8 20 -30 97 -66 136 -27 29 -30 30 -117 29 -48 -1
-95 -3 -104 -6z m81 -53 l0 -30 -60 0 c-33 0 -60 2 -60 5 0 3 7 17 16 30 13
20 25 25 60 25 42 0 44 -1 44 -30z m134 5 c9 -13 16 -27 16 -30 0 -3 -27 -5
-60 -5 l-60 0 0 30 c0 29 2 30 44 30 35 0 47 -5 60 -25z M259 241 c-53 -53
-39 -146 31 -205 39 -33 51 -33 90 0 70 59 84 152 31 205 -24 24 -38 29 -76
29 -38 0 -52 -5 -76 -29z m138 -13 c18 -17 23 -32 23 -70 0 -41 -5 -54 -36
-88 -20 -22 -42 -40 -49 -40 -7 0 -29 18 -49 40 -31 34 -36 47 -36 87 0 62 28
93 84 93 27 0 47 -7 63 -22z M296 192 c-3 -5 1 -15 9 -22 14 -11 14 -15 -1
-31 -22 -24 -10 -37 14 -16 16 15 20 15 34 1 9 -10 18 -12 22 -6 3 5 -1 15 -9
22 -14 12 -14 15 0 30 9 10 12 21 7 24 -5 3 -15 -1 -22 -9 -12 -14 -15 -14
-30 0 -10 9 -21 12 -24 7z"/>
</g>
</svg>

