<?xml version="1.0" standalone="no"?>
<!DOCTYPE svg PUBLIC "-//W3C//DTD SVG 20010904//EN"
 "http://www.w3.org/TR/2001/REC-SVG-20010904/DTD/svg10.dtd">
<svg version="1.0" xmlns="http://www.w3.org/2000/svg"
 width="48.000000pt" height="48.000000pt" viewBox="0 0 48.000000 48.000000"
 preserveAspectRatio="xMidYMid meet">
<metadata>
Created by potrace 1.16, written by Peter Selinger 2001-2019
</metadata>
<g transform="translate(0.000000,48.000000) scale(0.100000,-0.100000)"
fill="currentColor" stroke="none">
<path d="M107 472 c-15 -2 -43 -19 -62 -37 -53 -53 -53 -127 0 -180 53 -53
127 -53 179 0 54 53 54 126 1 179 -33 33 -66 44 -118 38z m104 -51 c24 -24 29
-38 29 -76 0 -38 -5 -52 -29 -76 -42 -42 -110 -42 -152 0 -42 42 -42 110 0
152 24 24 38 29 76 29 38 0 52 -5 76 -29z M86 392 c-3 -5 3 -17 14 -27 20 -18
20 -18 -1 -41 -11 -12 -16 -25 -11 -28 5 -3 17 3 27 14 18 20 18 20 41 -1 12
-11 25 -16 28 -11 3 5 -3 17 -14 27 -20 18 -20 18 1 41 11 12 16 25 11 28 -5
3 -17 -3 -27 -14 -18 -20 -18 -20 -41 1 -12 11 -25 16 -28 11z M267 234 c-12
-12 4 -24 34 -24 29 0 29 0 29 -57 0 -32 -7 -66 -14 -75 -19 -25 -78 -24 -94
2 -16 26 -58 26 -74 0 -20 -31 -27 -24 -30 33 -3 51 -20 68 -26 26 -7 -44 8
-90 33 -99 12 -5 26 -14 30 -19 8 -14 62 -14 70 -1 3 6 24 10 45 10 21 0 42
-4 45 -10 8 -12 62 -13 69 -1 3 5 22 12 41 15 42 8 60 41 51 95 -7 45 -31 69
-75 77 -20 3 -50 12 -68 20 -34 15 -56 18 -66 8z m172 -68 c10 -12 8 -15 -11
-18 -30 -4 -30 -22 0 -26 30 -5 33 -62 2 -62 -32 0 -70 46 -70 85 0 33 2 35
34 35 18 0 39 -6 45 -14z m-231 -114 c3 -16 -2 -22 -17 -22 -24 0 -35 15 -27
36 9 23 40 13 44 -14z m167 3 c0 -13 -8 -21 -22 -23 -17 -3 -23 2 -23 16 0 10
3 22 7 26 13 13 38 1 38 -19z"/>
</g>
</svg>

