<?xml version="1.0" standalone="no"?>
<!DOCTYPE svg PUBLIC "-//W3C//DTD SVG 20010904//EN"
 "http://www.w3.org/TR/2001/REC-SVG-20010904/DTD/svg10.dtd">
<svg version="1.0" xmlns="http://www.w3.org/2000/svg"
 width="48.000000pt" height="48.000000pt" viewBox="0 0 48.000000 48.000000"
 preserveAspectRatio="xMidYMid meet">
<metadata>
Created by potrace 1.16, written by Peter Selinger 2001-2019
</metadata>
<g transform="translate(0.000000,48.000000) scale(0.100000,-0.100000)"
fill="currentColor" stroke="none">
<path d="M99 473 c-9 -2 -34 -30 -55 -61 l-39 -57 0 -117 c0 -82 4 -121 13
-130 15 -15 125 -18 132 -3 3 6 -20 11 -57 13 l-63 3 0 119 0 120 165 0 165 0
0 -24 c0 -29 18 -44 26 -22 8 20 -30 97 -66 136 -27 29 -30 30 -117 29 -48 -1
-95 -3 -104 -6z m81 -53 l0 -30 -60 0 c-33 0 -60 2 -60 5 0 3 7 17 16 30 13
20 25 25 60 25 42 0 44 -1 44 -30z m134 5 c9 -13 16 -27 16 -30 0 -3 -27 -5
-60 -5 l-60 0 0 30 c0 29 2 30 44 30 35 0 47 -5 60 -25z M317 262 c-15 -2 -43
-19 -62 -37 -53 -53 -53 -127 0 -180 53 -53 127 -53 179 0 54 53 54 126 1 179
-33 33 -66 44 -118 38z m104 -51 c24 -24 29 -38 29 -76 0 -66 -39 -105 -105
-105 -66 0 -105 39 -105 105 0 66 39 105 105 105 38 0 52 -5 76 -29z M296 182
c-3 -5 3 -17 14 -27 20 -18 20 -18 -1 -41 -11 -12 -16 -25 -11 -28 5 -3 17 3
27 14 18 20 18 20 41 -1 12 -11 25 -16 28 -11 3 5 -3 17 -14 27 -20 18 -20 18
1 41 11 12 16 25 11 28 -5 3 -17 -3 -27 -14 -18 -20 -18 -20 -41 1 -12 11 -25
16 -28 11z"/>
</g>
</svg>

