<?xml version="1.0" standalone="no"?>
<!DOCTYPE svg PUBLIC "-//W3C//DTD SVG 20010904//EN"
 "http://www.w3.org/TR/2001/REC-SVG-20010904/DTD/svg10.dtd">
<svg version="1.0" xmlns="http://www.w3.org/2000/svg"
 width="48.000000pt" height="48.000000pt" viewBox="0 0 48.000000 48.000000"
 preserveAspectRatio="xMidYMid meet">
<metadata>
Created by potrace 1.16, written by Peter Selinger 2001-2019
</metadata>
<g transform="translate(0.000000,48.000000) scale(0.100000,-0.100000)"
fill="currentColor" stroke="none">
<path d="M9 413 c-6 -17 -9 -94 -7 -191 3 -148 5 -165 22 -178 15 -11 59 -14
194 -14 95 0 182 4 192 10 13 7 25 38 40 105 26 116 25 139 -12 143 -20 2 -28
9 -28 22 0 33 -33 40 -179 40 -114 0 -142 -3 -155 -16 -13 -12 -16 -41 -16
-151 0 -103 -3 -134 -12 -131 -10 4 -14 52 -16 186 l-2 182 59 0 c50 0 59 -3
64 -20 5 -19 14 -20 126 -20 74 0 121 4 121 10 0 6 -43 10 -110 10 -99 0 -110
2 -120 20 -9 17 -21 20 -81 20 -67 0 -70 -1 -80 -27z m379 -105 c3 -16 -8 -18
-120 -18 -68 0 -128 -4 -135 -8 -6 -4 -20 -41 -31 -82 l-20 -75 -1 96 c-1 53
2 99 6 103 4 3 72 5 152 4 130 -3 146 -5 149 -20z m61 -65 c0 -16 -10 -64 -22
-108 l-22 -80 -157 -3 c-87 -1 -158 0 -158 3 0 3 12 53 26 110 l26 105 154 0
154 0 -1 -27z"/>
</g>
</svg>

