<?xml version="1.0" standalone="no"?>
<!DOCTYPE svg PUBLIC "-//W3C//DTD SVG 20010904//EN"
 "http://www.w3.org/TR/2001/REC-SVG-20010904/DTD/svg10.dtd">
<svg version="1.0" xmlns="http://www.w3.org/2000/svg"
 width="48.000000pt" height="48.000000pt" viewBox="0 0 48.000000 48.000000"
 preserveAspectRatio="xMidYMid meet">
<metadata>
Created by potrace 1.16, written by Peter Selinger 2001-2019
</metadata>
<g transform="translate(0.000000,48.000000) scale(0.100000,-0.100000)"
fill="currentColor" stroke="currentColor" stroke-width="6" stroke-linejoin="round">
<path d="M104 375 c-12 -19 -25 -25 -50 -25 -19 0 -34 -4 -34 -10 0 -5 14 -10
31 -10 21 0 40 -9 55 -25 29 -32 59 -32 88 0 22 24 28 25 145 25 74 0 121 4
121 10 0 6 -47 10 -121 10 -117 0 -122 1 -141 25 -13 16 -29 25 -48 25 -20 0
-35 -8 -46 -25z m74 -7 c18 -18 14 -46 -7 -58 -25 -13 -48 -4 -56 21 -12 38
35 65 63 37z M286 175 c-22 -24 -28 -25 -145 -25 -74 0 -121 -4 -121 -10 0 -6
47 -10 121 -10 117 0 122 -1 141 -25 13 -16 29 -25 48 -25 20 0 35 8 46 25 12
19 25 25 50 25 19 0 34 5 34 10 0 6 -14 10 -31 10 -21 0 -40 9 -55 25 -13 14
-32 25 -44 25 -12 0 -31 -11 -44 -25z m69 -11 c19 -20 16 -43 -7 -58 -38 -23
-78 35 -42 61 23 17 29 16 49 -3z"/>
</g>
</svg>

