<?xml version="1.0" standalone="no"?>
<!DOCTYPE svg PUBLIC "-//W3C//DTD SVG 20010904//EN"
 "http://www.w3.org/TR/2001/REC-SVG-20010904/DTD/svg10.dtd">
<svg version="1.0" xmlns="http://www.w3.org/2000/svg"
 width="48.000000pt" height="48.000000pt" viewBox="0 0 48.000000 48.000000"
 preserveAspectRatio="xMidYMid meet">
<metadata>
Created by potrace 1.16, written by Peter Selinger 2001-2019
</metadata>
<g transform="translate(0.000000,48.000000) scale(0.100000,-0.100000)"
fill="currentColor" stroke="none">
<path d="M20 450 c-12 -8 -16 -43 -18 -195 -4 -255 -23 -235 217 -235 139 0
191 3 199 13 12 15 52 195 52 237 0 16 -4 30 -9 30 -4 0 -11 19 -14 41 -3 23
-11 46 -19 50 -7 5 -66 9 -130 9 -112 0 -117 1 -124 23 -4 12 -12 25 -18 29
-16 11 -118 9 -136 -2z m132 -37 l3 -28 132 -3 133 -3 0 -34 0 -35 -139 0
c-103 0 -141 -3 -150 -13 -6 -8 -21 -63 -35 -124 -26 -121 -30 -133 -52 -133
-12 0 -14 33 -14 200 l0 200 59 0 c58 0 60 -1 63 -27z m294 -175 c-3 -29 -14
-84 -24 -123 l-17 -70 -157 -3 c-87 -1 -158 -1 -158 2 0 2 11 56 25 120 14 64
25 118 25 121 0 3 70 5 156 5 l157 0 -7 -52z M210 230 c-29 -29 -30 -72 -2
-103 13 -14 27 -18 57 -14 30 3 45 -1 63 -16 12 -11 22 -16 22 -10 0 6 -7 16
-15 23 -11 9 -13 23 -9 50 5 33 2 43 -19 64 -31 31 -70 33 -97 6z m85 -20 c27
-29 10 -74 -28 -78 -36 -4 -57 13 -57 49 0 47 53 65 85 29z"/>
</g>
</svg>

