<?xml version="1.0" standalone="no"?>
<!DOCTYPE svg PUBLIC "-//W3C//DTD SVG 20010904//EN"
 "http://www.w3.org/TR/2001/REC-SVG-20010904/DTD/svg10.dtd">
<svg version="1.0" xmlns="http://www.w3.org/2000/svg"
 width="48.000000pt" height="48.000000pt" viewBox="0 0 48.000000 48.000000"
 preserveAspectRatio="xMidYMid meet">
<metadata>
Created by potrace 1.16, written by Peter Selinger 2001-2019
</metadata>
<g transform="translate(0.000000,48.000000) scale(0.100000,-0.100000)"
fill="currentColor" stroke="currentColor" stroke-width="6" stroke-linejoin="round">
<path d="M191 469 c-245 -47 -243 -412 2 -458 168 -31 307 108 276 275 -17 88
-90 167 -168 180 -20 3 -43 7 -51 9 -8 1 -35 -1 -59 -6z m150 -42 c64 -34 102
-93 107 -166 2 -32 -1 -75 -7 -94 l-12 -36 -49 25 c-26 13 -53 24 -59 24 -6 0
-11 5 -11 12 0 7 -12 24 -26 39 -26 28 -26 28 -10 75 18 53 20 74 8 74 -5 0
-16 -26 -26 -57 -13 -41 -29 -67 -52 -86 -19 -16 -34 -35 -34 -43 0 -8 -5 -14
-11 -14 -6 0 -33 -11 -59 -24 l-49 -25 -12 36 c-6 19 -9 62 -7 94 8 112 93
189 208 189 40 0 70 -7 101 -23z m-66 -217 c18 -20 17 -20 -35 -20 -52 0 -53
0 -35 20 10 11 26 20 35 20 9 0 25 -9 35 -20z m89 -69 c28 -12 46 -26 44 -33
-3 -7 -23 -26 -46 -43 -79 -55 -216 -43 -277 25 -23 26 -14 36 57 62 66 23
155 19 222 -11z M170 385 c0 -8 7 -15 15 -15 8 0 15 7 15 15 0 8 -7 15 -15 15
-8 0 -15 -7 -15 -15z M110 325 c0 -8 7 -15 15 -15 8 0 15 7 15 15 0 8 -7 15
-15 15 -8 0 -15 -7 -15 -15z M340 325 c0 -8 7 -15 15 -15 8 0 15 7 15 15 0 8
-7 15 -15 15 -8 0 -15 -7 -15 -15z M80 245 c0 -8 7 -15 15 -15 8 0 15 7 15 15
0 8 -7 15 -15 15 -8 0 -15 -7 -15 -15z M370 244 c0 -17 22 -14 28 4 2 7 -3 12
-12 12 -9 0 -16 -7 -16 -16z"/>
</g>
</svg>

