<?xml version="1.0" standalone="no"?>
<!DOCTYPE svg PUBLIC "-//W3C//DTD SVG 20010904//EN"
 "http://www.w3.org/TR/2001/REC-SVG-20010904/DTD/svg10.dtd">
<svg version="1.0" xmlns="http://www.w3.org/2000/svg"
 width="48.000000pt" height="48.000000pt" viewBox="0 0 48.000000 48.000000"
 preserveAspectRatio="xMidYMid meet">
<metadata>
Created by potrace 1.16, written by Peter Selinger 2001-2019
</metadata>
<g transform="translate(0.000000,48.000000) scale(0.100000,-0.100000)"
fill="currentColor" stroke="currentColor" stroke-width="6" stroke-linejoin="round">
<path d="M145 376 c-88 -40 -135 -115 -138 -218 -2 -43 2 -61 13 -68 20 -13
420 -13 440 0 20 13 18 107 -5 165 -10 26 -34 60 -60 83 -74 65 -163 79 -250
38z m173 -12 c83 -34 132 -110 132 -204 l0 -60 -70 0 c-56 0 -70 3 -70 15 0 9
-12 28 -26 42 l-27 26 17 52 c18 57 20 79 8 71 -5 -3 -17 -33 -27 -66 -14 -47
-25 -64 -43 -71 -13 -5 -29 -23 -35 -39 -11 -29 -13 -30 -79 -30 l-68 0 0 58
c1 158 149 264 288 206z m-40 -226 c26 -26 13 -38 -38 -38 -34 0 -50 4 -50 13
0 21 22 37 50 37 14 0 31 -5 38 -12z M170 305 c0 -8 7 -15 15 -15 8 0 15 7 15
15 0 8 -7 15 -15 15 -8 0 -15 -7 -15 -15z M110 245 c0 -8 7 -15 15 -15 8 0 15
7 15 15 0 8 -7 15 -15 15 -8 0 -15 -7 -15 -15z M340 245 c0 -8 7 -15 15 -15 8
0 15 7 15 15 0 8 -7 15 -15 15 -8 0 -15 -7 -15 -15z M80 175 c0 -8 7 -15 15
-15 8 0 15 7 15 15 0 8 -7 15 -15 15 -8 0 -15 -7 -15 -15z M370 175 c0 -8 7
-15 15 -15 8 0 15 7 15 15 0 8 -7 15 -15 15 -8 0 -15 -7 -15 -15z"/>
</g>
</svg>

