<?xml version="1.0" standalone="no"?>
<!DOCTYPE svg PUBLIC "-//W3C//DTD SVG 20010904//EN"
 "http://www.w3.org/TR/2001/REC-SVG-20010904/DTD/svg10.dtd">
<svg version="1.0" xmlns="http://www.w3.org/2000/svg"
 width="48.000000pt" height="48.000000pt" viewBox="0 0 48.000000 48.000000"
 preserveAspectRatio="xMidYMid meet">
<metadata>
Created by potrace 1.16, written by Peter Selinger 2001-2019
</metadata>
<g transform="translate(0.000000,48.000000) scale(0.100000,-0.100000)"
fill="currentColor" stroke="currentColor" stroke-width="6" stroke-linejoin="round">
<path d="M80 453 c0 -24 37 -83 52 -84 7 -1 -13 -5 -45 -9 -32 -4 -63 -12 -68
-17 -18 -18 -21 -69 -6 -85 11 -11 16 -44 19 -121 2 -70 7 -111 16 -119 19
-19 365 -19 384 0 9 8 14 49 16 119 3 77 8 110 19 121 15 16 12 67 -6 85 -5 5
-36 13 -68 17 -32 4 -52 8 -45 9 15 1 52 60 52 84 0 47 -112 -1 -140 -60 -8
-18 -17 -33 -20 -33 -3 0 -12 15 -20 33 -28 59 -140 107 -140 60z m95 -34 c34
-30 46 -59 25 -59 -25 0 -71 33 -85 60 -15 28 -14 30 4 30 11 0 36 -14 56 -31z
m190 1 c-22 -43 -95 -78 -95 -46 0 20 67 76 91 76 18 0 19 -2 4 -30z m-185
-120 l0 -30 -75 0 -75 0 0 30 0 30 75 0 75 0 0 -30z m90 0 c0 -27 -3 -30 -30
-30 -27 0 -30 3 -30 30 0 27 3 30 30 30 27 0 30 -3 30 -30z m180 0 l0 -30 -75
0 -75 0 0 30 0 30 75 0 75 0 0 -30z m-270 -165 l0 -105 -60 0 -60 0 0 105 0
105 60 0 60 0 0 -105z m90 0 l0 -105 -30 0 -30 0 0 105 0 105 30 0 30 0 0
-105z m150 0 l0 -105 -60 0 -60 0 0 105 0 105 60 0 60 0 0 -105z"/>
</g>
</svg>

