<?xml version="1.0" standalone="no"?>
<!DOCTYPE svg PUBLIC "-//W3C//DTD SVG 20010904//EN"
 "http://www.w3.org/TR/2001/REC-SVG-20010904/DTD/svg10.dtd">
<svg version="1.0" xmlns="http://www.w3.org/2000/svg"
 width="48.000000pt" height="48.000000pt" viewBox="0 0 48.000000 48.000000"
 preserveAspectRatio="xMidYMid meet">
<metadata>
Created by potrace 1.16, written by Peter Selinger 2001-2019
</metadata>
<g transform="translate(0.000000,48.000000) scale(0.100000,-0.100000)"
fill="currentColor" stroke="currentColor" stroke-width="6" stroke-linejoin="round">
<path d="M270 451 c0 -34 -11 -51 -34 -51 -11 0 -27 -4 -35 -9 -10 -7 -30 -2
-63 15 -26 13 -50 24 -53 24 -3 0 -5 -18 -5 -40 0 -34 5 -43 29 -58 23 -14 27
-21 19 -35 -20 -38 -109 -279 -104 -285 10 -9 16 3 44 79 26 68 29 73 67 83
53 15 68 53 38 95 -21 27 -21 29 -4 57 29 47 47 57 93 51 48 -6 142 -68 167
-110 12 -21 13 -31 5 -45 -10 -15 -25 -17 -107 -14 l-96 3 -12 -40 c-10 -34
-16 -40 -43 -43 -21 -2 -35 -11 -45 -30 -15 -26 -14 -29 14 -58 16 -16 32 -30
37 -30 4 0 20 41 35 90 l27 90 88 -6 c77 -6 91 -5 108 11 11 10 20 27 20 38 0
32 -38 84 -85 115 l-45 30 21 26 c29 37 13 48 -17 13 -32 -37 -50 -31 -46 16
2 22 -1 37 -7 37 -6 0 -11 -9 -11 -19z m-130 -66 c19 -10 27 -20 24 -30 -13
-32 -64 -10 -64 27 0 22 3 22 40 3z m30 -156 c0 -20 -45 -48 -57 -35 -4 3 1
22 11 42 14 30 19 34 31 24 8 -7 15 -21 15 -31z m18 -153 c-7 -21 -16 -32 -24
-29 -33 13 -21 63 16 63 16 0 17 -4 8 -34z M270 285 c0 -8 7 -15 15 -15 8 0
15 7 15 15 0 8 -7 15 -15 15 -8 0 -15 -7 -15 -15z"/>
</g>
</svg>

