<?xml version="1.0" standalone="no"?>
<!DOCTYPE svg PUBLIC "-//W3C//DTD SVG 20010904//EN"
 "http://www.w3.org/TR/2001/REC-SVG-20010904/DTD/svg10.dtd">
<svg version="1.0" xmlns="http://www.w3.org/2000/svg"
 width="48.000000pt" height="48.000000pt" viewBox="0 0 48.000000 48.000000"
 preserveAspectRatio="xMidYMid meet">
<metadata>
Created by potrace 1.16, written by Peter Selinger 2001-2019
</metadata>
<g transform="translate(0.000000,48.000000) scale(0.100000,-0.100000)"
fill="currentColor" stroke="currentColor" stroke-width="6" stroke-linejoin="round">
<path d="M417 439 c-16 -18 -16 -21 1 -39 18 -19 18 -19 35 1 16 18 16 21 -1
39 -18 19 -18 19 -35 -1z M161 386 c-6 -7 -17 -48 -23 -90 l-13 -76 -36 0
c-45 0 -54 -10 -68 -78 -15 -74 -14 -109 5 -116 29 -11 189 -7 202 6 9 9 15 9
24 0 13 -13 173 -17 202 -6 19 7 20 42 5 116 -14 66 -24 78 -63 78 l-31 0 -13
76 c-6 42 -17 83 -23 90 -8 10 -35 14 -84 14 -49 0 -76 -4 -84 -14z m158 -29
c5 -13 12 -49 16 -80 l7 -57 -97 0 -98 0 7 54 c11 101 16 106 91 106 59 0 66
-2 74 -23z m-120 -180 c5 -13 12 -49 16 -80 l7 -57 -97 0 -98 0 7 54 c11 101
16 106 91 106 59 0 66 -2 74 -23z m56 -19 c-11 -67 -19 -67 -30 0 -6 39 -5 42
15 42 20 0 21 -3 15 -42z m175 16 c6 -14 13 -50 16 -80 l7 -54 -98 0 -97 0 7
57 c12 100 15 103 90 103 61 0 66 -2 75 -26z M27 362 c-16 -18 -16 -20 1 -35
18 -16 20 -16 35 1 16 18 16 20 -1 35 -18 16 -20 16 -35 -1z"/>
</g>
</svg>

