<?xml version="1.0" standalone="no"?>
<!DOCTYPE svg PUBLIC "-//W3C//DTD SVG 20010904//EN"
 "http://www.w3.org/TR/2001/REC-SVG-20010904/DTD/svg10.dtd">
<svg version="1.0" xmlns="http://www.w3.org/2000/svg"
 width="48.000000pt" height="48.000000pt" viewBox="0 0 48.000000 48.000000"
 preserveAspectRatio="xMidYMid meet">
<metadata>
Created by potrace 1.16, written by Peter Selinger 2001-2019
</metadata>
<g transform="translate(0.000000,48.000000) scale(0.100000,-0.100000)"
fill="currentColor" stroke="currentColor" stroke-width="6" stroke-linejoin="round">
<path d="M203 470 c-64 -15 -134 -84 -173 -173 -37 -84 -24 -213 27 -269 31
-34 32 -18 2 38 -24 46 -29 68 -29 123 0 78 21 130 76 191 47 52 82 70 134 70
52 0 87 -18 134 -70 55 -61 76 -113 76 -191 0 -55 -5 -77 -29 -123 -30 -56
-29 -72 2 -38 53 59 64 187 24 276 -55 119 -154 187 -244 166z M129 351 c-35
-27 -41 -63 -17 -111 15 -30 17 -43 9 -59 -26 -47 0 -122 54 -157 33 -22 97
-22 130 0 55 36 78 106 54 160 -9 19 -8 29 5 47 45 64 -1 147 -74 135 -19 -4
-42 -6 -50 -6 -8 0 -31 2 -50 6 -27 4 -42 1 -61 -15z m111 -13 c14 0 38 3 53
7 55 15 91 -62 50 -107 -14 -16 -15 -24 -5 -52 24 -66 24 -66 -98 -66 -122 0
-122 0 -98 66 10 28 9 36 -5 52 -22 24 -22 70 0 95 13 14 25 17 48 12 16 -4
41 -7 55 -7z m72 -278 c-45 -41 -99 -41 -144 0 l-33 29 105 0 105 0 -33 -29z
M172 278 c6 -18 28 -21 28 -4 0 9 -7 16 -16 16 -9 0 -14 -5 -12 -12z M280 274
c0 -17 22 -14 28 4 2 7 -3 12 -12 12 -9 0 -16 -7 -16 -16z M223 175 c2 -5 10
-10 17 -10 7 0 15 5 17 10 2 6 -6 11 -17 11 -11 0 -19 -5 -17 -11z"/>
</g>
</svg>

