<?xml version="1.0" standalone="no"?>
<!DOCTYPE svg PUBLIC "-//W3C//DTD SVG 20010904//EN"
 "http://www.w3.org/TR/2001/REC-SVG-20010904/DTD/svg10.dtd">
<svg version="1.0" xmlns="http://www.w3.org/2000/svg"
 width="48.000000pt" height="48.000000pt" viewBox="0 0 48.000000 48.000000"
 preserveAspectRatio="xMidYMid meet">
<metadata>
Created by potrace 1.16, written by Peter Selinger 2001-2019
</metadata>
<g transform="translate(0.000000,48.000000) scale(0.100000,-0.100000)"
fill="currentColor" stroke="currentColor" stroke-width="6" stroke-linejoin="round">
<path d="M83 472 c-26 -4 -30 -24 -8 -42 19 -16 20 -40 1 -40 -7 0 -19 7 -26
15 -19 23 -37 18 -43 -12 -12 -65 52 -132 114 -119 16 3 31 1 34 -4 4 -6 11
-8 16 -4 22 13 -13 32 -56 31 -53 -2 -85 22 -85 66 0 25 2 27 14 17 23 -19 61
-8 64 18 2 13 -2 30 -8 38 -10 11 -9 14 9 14 12 0 31 -5 43 -11 11 -6 22 -8
26 -5 16 17 -54 45 -95 38z M259 441 c-37 -38 -37 -57 3 -98 l32 -33 -63 -64
c-55 -56 -66 -63 -82 -53 -16 10 -27 3 -79 -48 -61 -60 -75 -96 -48 -123 27
-27 63 -13 123 48 51 52 58 63 48 79 -10 16 -3 27 53 82 l64 63 33 -32 c41
-40 60 -40 98 -3 44 45 38 67 -39 144 -77 76 -99 82 -143 38z m128 -53 c35
-34 63 -69 63 -77 0 -17 -39 -61 -54 -61 -13 0 -146 131 -146 144 0 16 42 56
59 56 8 0 44 -28 78 -62z m-254 -309 c-37 -36 -60 -49 -75 -47 -41 6 -33 37
23 94 l53 54 26 -25 25 -26 -52 -50z M312 205 c3 -17 11 -20 52 -20 38 -1 52
-5 67 -24 23 -29 27 -80 5 -61 -23 19 -61 8 -64 -18 -2 -13 2 -30 8 -38 20
-23 -36 -18 -60 6 -21 21 -23 26 -24 80 -1 26 -6 35 -21 38 -16 4 -17 2 -7
-11 7 -8 10 -22 6 -30 -9 -25 15 -84 41 -101 28 -18 90 -21 100 -5 4 5 0 18
-9 28 -34 37 -14 53 30 25 13 -9 27 -14 30 -11 10 10 6 74 -5 96 -16 29 -68
54 -101 48 -15 -3 -33 -1 -40 6 -9 9 -11 8 -8 -8z"/>
</g>
</svg>

