<?xml version="1.0" standalone="no"?>
<!DOCTYPE svg PUBLIC "-//W3C//DTD SVG 20010904//EN"
 "http://www.w3.org/TR/2001/REC-SVG-20010904/DTD/svg10.dtd">
<svg version="1.0" xmlns="http://www.w3.org/2000/svg"
 width="48.000000pt" height="48.000000pt" viewBox="0 0 48.000000 48.000000"
 preserveAspectRatio="xMidYMid meet">
<metadata>
Created by potrace 1.16, written by Peter Selinger 2001-2019
</metadata>
<g transform="translate(0.000000,48.000000) scale(0.100000,-0.100000)"
fill="currentColor" stroke="none">
<path d="M223 473 c-7 -2 -13 -10 -13 -17 0 -7 -18 -21 -41 -31 -50 -23 -85
-67 -97 -123 -6 -23 -17 -53 -26 -67 -20 -30 -20 -49 -1 -65 20 -17 32 -5 15
14 -10 13 -8 22 9 49 12 19 21 44 21 56 0 49 60 121 101 121 16 0 19 -8 19
-42 0 -24 -7 -52 -15 -62 -21 -28 -19 -79 5 -109 11 -14 20 -28 20 -31 0 -14
-58 -41 -99 -46 -56 -6 -52 -26 4 -22 39 3 92 32 108 59 4 7 18 13 31 13 31 0
72 34 80 66 4 15 1 38 -9 56 -16 34 -21 118 -6 118 18 0 69 -50 85 -84 32 -68
13 -151 -45 -200 -24 -21 -29 -32 -29 -70 0 -25 5 -46 10 -46 6 0 10 18 10 41
0 32 6 45 26 62 35 27 64 92 64 142 0 54 -37 125 -80 152 -37 24 -47 32 -68
58 -12 14 -53 19 -79 8z m77 -78 l0 -55 -35 0 -35 0 0 55 0 55 35 0 35 0 0
-55z m5 -95 c22 -25 22 -65 0 -90 -30 -33 -47 -26 -39 15 4 23 2 35 -5 35 -6
0 -11 -8 -11 -17 0 -10 -4 -24 -9 -32 -15 -23 -41 5 -41 45 0 56 68 85 105 44z
M160 30 c0 -11 5 -20 10 -20 6 0 10 9 10 20 0 11 -4 20 -10 20 -5 0 -10 -9
-10 -20z"/>
</g>
</svg>

