<?xml version="1.0" standalone="no"?>
<!DOCTYPE svg PUBLIC "-//W3C//DTD SVG 20010904//EN"
 "http://www.w3.org/TR/2001/REC-SVG-20010904/DTD/svg10.dtd">
<svg version="1.0" xmlns="http://www.w3.org/2000/svg"
 width="48.000000pt" height="48.000000pt" viewBox="0 0 48.000000 48.000000"
 preserveAspectRatio="xMidYMid meet">
<metadata>
Created by potrace 1.16, written by Peter Selinger 2001-2019
</metadata>
<g transform="translate(0.000000,48.000000) scale(0.100000,-0.100000)"
fill="currentColor" stroke="currentColor" stroke-width="6" stroke-linejoin="round">
<path d="M149 447 c-40 -27 -79 -82 -79 -111 0 -13 -12 -27 -29 -37 -32 -19
-46 -67 -35 -124 11 -58 81 -89 104 -46 16 31 12 143 -6 169 -22 31 -10 72 32
113 33 32 39 34 104 34 65 0 71 -2 104 -34 42 -41 54 -82 32 -113 -22 -31 -21
-141 1 -178 14 -24 14 -31 4 -44 -16 -19 -78 -21 -83 -4 -6 17 -77 15 -89 -2
-22 -35 -1 -64 46 -64 20 0 39 5 43 10 4 6 22 14 41 18 38 7 71 32 71 52 0 7
13 22 29 33 53 38 53 149 0 180 -17 10 -29 24 -29 37 0 29 -39 84 -79 111 -47
32 -135 32 -182 0z m-59 -237 c0 -70 -2 -80 -18 -80 -31 0 -42 22 -42 80 0 58
11 80 42 80 16 0 18 -10 18 -80z m348 68 c7 -7 12 -37 12 -68 0 -58 -11 -80
-42 -80 -16 0 -18 10 -18 80 0 70 2 80 18 80 10 0 23 -5 30 -12z m-148 -233
c0 -10 -11 -15 -35 -15 -24 0 -35 5 -35 15 0 10 11 15 35 15 24 0 35 -5 35
-15z"/>
</g>
</svg>

