<?xml version="1.0" standalone="no"?>
<!DOCTYPE svg PUBLIC "-//W3C//DTD SVG 20010904//EN"
 "http://www.w3.org/TR/2001/REC-SVG-20010904/DTD/svg10.dtd">
<svg version="1.0" xmlns="http://www.w3.org/2000/svg"
 width="48.000000pt" height="48.000000pt" viewBox="0 0 48.000000 48.000000"
 preserveAspectRatio="xMidYMid meet">
<metadata>
Created by potrace 1.16, written by Peter Selinger 2001-2019
</metadata>
<g transform="translate(0.000000,48.000000) scale(0.100000,-0.100000)"
fill="currentColor" stroke="none">
<path d="M220 392 c0 -4 34 -24 76 -42 82 -36 154 -95 154 -126 0 -40 -82 -65
-132 -40 -33 17 -50 14 -30 -6 26 -26 10 -31 -83 -26 l-95 5 -6 -34 c-4 -19
-4 -37 0 -40 5 -5 10 5 21 44 7 22 45 2 45 -23 0 -13 5 -24 10 -24 6 0 10 11
10 24 0 22 4 23 56 25 31 0 60 3 65 7 5 3 9 -9 9 -25 0 -41 18 -40 22 1 2 22
9 34 21 36 14 3 17 -4 17 -32 0 -20 5 -36 10 -36 6 0 10 17 10 38 1 31 6 40
33 57 49 31 48 67 -2 115 -51 48 -211 126 -211 102z M86 371 c10 -10 149 -61
165 -61 29 0 -1 18 -69 43 -80 28 -114 34 -96 18z M20 302 c0 -11 57 -22 114
-22 62 0 30 17 -46 25 -41 4 -68 3 -68 -3z M352 248 c6 -18 28 -21 28 -4 0 9
-7 16 -16 16 -9 0 -14 -5 -12 -12z M43 243 c-40 -5 -44 -23 -5 -23 37 0 72 10
72 21 0 9 -7 9 -67 2z M40 170 c-14 -10 -22 -22 -18 -26 9 -8 58 22 58 36 0
15 -12 12 -40 -10z"/>
</g>
</svg>

