<?xml version="1.0" standalone="no"?>
<!DOCTYPE svg PUBLIC "-//W3C//DTD SVG 20010904//EN"
 "http://www.w3.org/TR/2001/REC-SVG-20010904/DTD/svg10.dtd">
<svg version="1.0" xmlns="http://www.w3.org/2000/svg"
 width="48.000000pt" height="48.000000pt" viewBox="0 0 48.000000 48.000000"
 preserveAspectRatio="xMidYMid meet">
<metadata>
Created by potrace 1.16, written by Peter Selinger 2001-2019
</metadata>
<g transform="translate(0.000000,48.000000) scale(0.100000,-0.100000)"
fill="currentColor" stroke="none">
<path d="M170 460 c-28 -28 -28 -112 0 -140 11 -11 29 -20 40 -20 16 0 20 -7
20 -30 0 -29 -1 -30 -47 -30 -69 0 -92 -9 -99 -36 -4 -15 -14 -24 -25 -24 -36
0 -59 -36 -59 -90 0 -68 22 -90 90 -90 37 0 55 5 70 20 28 28 28 112 0 140
-11 11 -29 20 -40 20 -11 0 -20 7 -20 15 0 13 22 15 140 15 118 0 140 -2 140
-15 0 -8 -9 -15 -20 -15 -37 0 -60 -35 -60 -90 0 -68 22 -90 90 -90 68 0 90
22 90 90 0 54 -23 90 -59 90 -11 0 -21 9 -25 24 -7 27 -30 36 -98 36 -47 0
-48 1 -48 30 0 23 4 30 20 30 37 0 60 35 60 90 0 68 -22 90 -90 90 -37 0 -55
-5 -70 -20z m130 -70 l0 -60 -60 0 -60 0 0 60 0 60 60 0 60 0 0 -60z m-150
-300 l0 -60 -60 0 -60 0 0 60 0 60 60 0 60 0 0 -60z m300 0 l0 -60 -60 0 -60
0 0 60 0 60 60 0 60 0 0 -60z"/>
</g>
</svg>

