<?xml version="1.0" standalone="no"?>
<!DOCTYPE svg PUBLIC "-//W3C//DTD SVG 20010904//EN"
 "http://www.w3.org/TR/2001/REC-SVG-20010904/DTD/svg10.dtd">
<svg version="1.0" xmlns="http://www.w3.org/2000/svg"
 width="48.000000pt" height="48.000000pt" viewBox="0 0 48.000000 48.000000"
 preserveAspectRatio="xMidYMid meet">
<metadata>
Created by potrace 1.16, written by Peter Selinger 2001-2019
</metadata>
<g transform="translate(0.000000,48.000000) scale(0.100000,-0.100000)"
fill="currentColor" stroke="none">
<path d="M96 464 c-20 -20 -20 -68 0 -88 10 -11 34 -16 75 -16 l59 0 0 -59 0
-59 -60 -4 c-33 -2 -65 -9 -71 -15 -6 -6 -14 -33 -17 -59 -3 -26 -13 -55 -23
-65 -36 -36 -14 -91 36 -92 51 0 72 56 35 93 -14 14 -20 33 -20 65 l0 45 60 0
60 0 0 -45 c0 -32 -6 -51 -20 -65 -37 -37 -16 -93 35 -92 51 0 72 55 35 92
-14 14 -20 33 -20 65 l0 45 60 0 60 0 0 -45 c0 -32 -6 -51 -20 -65 -37 -37
-16 -92 35 -93 50 0 72 56 36 92 -10 10 -20 39 -23 65 -3 26 -11 53 -17 59 -6
6 -38 13 -71 15 l-60 4 0 59 0 59 59 0 c68 0 91 15 91 60 0 54 -18 60 -165 60
-108 0 -137 -3 -149 -16z m284 -44 l0 -30 -135 0 -135 0 0 30 0 30 135 0 135
0 0 -30z m-255 -360 c0 -20 -6 -26 -28 -28 -29 -4 -44 16 -33 44 4 10 15 14
33 12 22 -2 28 -8 28 -28z m150 0 c0 -20 -6 -26 -28 -28 -18 -2 -29 2 -33 12
-11 28 4 48 33 44 22 -2 28 -8 28 -28z m150 0 c0 -20 -6 -26 -28 -28 -29 -4
-44 16 -33 44 4 10 15 14 33 12 22 -2 28 -8 28 -28z"/>
</g>
</svg>

