<?xml version="1.0" standalone="no"?>
<!DOCTYPE svg PUBLIC "-//W3C//DTD SVG 20010904//EN"
 "http://www.w3.org/TR/2001/REC-SVG-20010904/DTD/svg10.dtd">
<svg version="1.0" xmlns="http://www.w3.org/2000/svg"
 width="48.000000pt" height="48.000000pt" viewBox="0 0 48.000000 48.000000"
 preserveAspectRatio="xMidYMid meet">
<metadata>
Created by potrace 1.16, written by Peter Selinger 2001-2019
</metadata>
<g transform="translate(0.000000,48.000000) scale(0.100000,-0.100000)"
fill="currentColor" stroke="currentColor" stroke-width="6" stroke-linejoin="round">
<path d="M114 348 c-57 -56 -104 -109 -104 -117 0 -9 48 33 108 92 59 59 114
107 122 107 8 0 63 -48 122 -107 60 -59 108 -101 108 -92 0 8 -11 26 -25 39
-21 20 -25 32 -25 85 0 70 -10 85 -58 85 -25 0 -35 -5 -39 -20 -5 -19 -6 -19
-35 5 -16 14 -39 25 -50 25 -13 0 -60 -39 -124 -102z m276 20 l0 -41 -25 23
c-14 13 -25 32 -25 42 0 13 7 18 25 18 23 0 25 -4 25 -42z M64 197 c-3 -8 -4
-47 -2 -88 l3 -74 70 0 70 0 5 70 c5 67 6 70 30 70 24 0 25 -3 30 -70 l5 -70
70 0 70 0 0 83 c0 106 -19 114 -23 10 l-3 -78 -44 0 -45 0 0 55 c0 60 -22 95
-60 95 -38 0 -60 -35 -60 -95 l0 -55 -45 0 -45 0 0 74 c0 69 -13 106 -26 73z"/>
</g>
</svg>

