<?xml version="1.0" standalone="no"?>
<!DOCTYPE svg PUBLIC "-//W3C//DTD SVG 20010904//EN"
 "http://www.w3.org/TR/2001/REC-SVG-20010904/DTD/svg10.dtd">
<svg version="1.0" xmlns="http://www.w3.org/2000/svg"
 width="48.000000pt" height="48.000000pt" viewBox="0 0 48.000000 48.000000"
 preserveAspectRatio="xMidYMid meet">
<metadata>
Created by potrace 1.16, written by Peter Selinger 2001-2019
</metadata>
<g transform="translate(0.000000,48.000000) scale(0.100000,-0.100000)"
fill="currentColor" stroke="currentColor" stroke-width="6" stroke-linejoin="round">
<path d="M117 342 c-59 -59 -107 -111 -107 -117 0 -5 14 4 30 20 l30 29 0
-122 0 -122 170 0 170 0 0 122 0 122 30 -29 c17 -16 30 -24 30 -19 0 16 -214
224 -230 224 -9 0 -64 -48 -123 -108z m205 21 l68 -67 0 -123 0 -123 -40 0
-40 0 0 59 c0 52 -3 62 -26 80 -34 26 -54 26 -88 0 -23 -18 -26 -28 -26 -80
l0 -59 -40 0 -40 0 0 122 0 122 67 68 c37 38 74 68 82 68 9 0 46 -30 83 -67z
m-48 -189 c11 -10 16 -34 16 -70 l0 -54 -50 0 -50 0 0 54 c0 58 16 86 50 86
10 0 26 -7 34 -16z M206 344 c-19 -18 -21 -55 -4 -72 15 -15 61 -15 76 0 28
28 2 88 -38 88 -10 0 -26 -7 -34 -16z m59 -34 c0 -18 -6 -26 -23 -28 -13 -2
-25 3 -28 12 -10 26 4 48 28 44 17 -2 23 -10 23 -28z"/>
</g>
</svg>

