<?xml version="1.0" standalone="no"?>
<!DOCTYPE svg PUBLIC "-//W3C//DTD SVG 20010904//EN"
 "http://www.w3.org/TR/2001/REC-SVG-20010904/DTD/svg10.dtd">
<svg version="1.0" xmlns="http://www.w3.org/2000/svg"
 width="48.000000pt" height="48.000000pt" viewBox="0 0 48.000000 48.000000"
 preserveAspectRatio="xMidYMid meet">
<metadata>
Created by potrace 1.16, written by Peter Selinger 2001-2019
</metadata>
<g transform="translate(0.000000,48.000000) scale(0.100000,-0.100000)"
fill="currentColor" stroke="none">
<path d="M35 450 c10 -11 22 -17 27 -14 12 8 -11 34 -30 34 -13 0 -12 -3 3
-20z M112 349 l3 -121 37 -34 c33 -29 45 -34 88 -34 43 0 55 5 88 34 l37 34 3
121 c3 101 1 121 -11 121 -8 0 -20 -7 -27 -15 -7 -8 -20 -15 -30 -15 -10 0
-23 7 -30 15 -7 8 -20 15 -30 15 -10 0 -23 -7 -30 -15 -7 -8 -20 -15 -30 -15
-10 0 -23 7 -30 15 -7 8 -19 15 -27 15 -12 0 -14 -20 -11 -121z m159 81 c27
-20 30 -20 54 -4 l25 16 0 -60 c0 -59 0 -60 -31 -66 -17 -3 -53 -6 -79 -6 -26
0 -62 3 -79 6 -31 6 -31 7 -31 66 l0 60 25 -16 c25 -16 27 -16 53 3 33 25 28
25 63 1z m79 -157 c0 -12 -14 -38 -31 -58 -27 -31 -37 -35 -78 -35 -25 0 -53
6 -61 13 -26 20 -50 60 -50 82 0 19 6 20 110 20 107 0 110 -1 110 -22z M421
456 c-19 -23 4 -28 24 -6 15 17 16 20 3 20 -9 0 -21 -6 -27 -14z M10 390 c0
-5 11 -10 25 -10 14 0 25 5 25 10 0 6 -11 10 -25 10 -14 0 -25 -4 -25 -10z
M420 390 c0 -5 11 -10 25 -10 14 0 25 5 25 10 0 6 -11 10 -25 10 -14 0 -25 -4
-25 -10z M34 325 c-10 -8 -14 -15 -7 -15 19 0 43 11 43 21 0 13 -14 11 -36 -6z
M410 331 c0 -10 24 -21 43 -21 7 0 3 7 -7 15 -22 17 -36 19 -36 6z M154 111
c-42 -19 -84 -63 -84 -87 0 -8 5 -14 10 -14 6 0 10 6 10 13 0 18 49 64 83 76
30 12 107 15 107 5 0 -3 -14 -24 -31 -46 -46 -57 -26 -60 24 -3 l43 48 37 -33
c20 -17 37 -38 37 -46 0 -8 5 -14 10 -14 19 0 10 29 -20 63 -49 56 -148 73
-226 38z"/>
</g>
</svg>

