<?xml version="1.0" standalone="no"?>
<!DOCTYPE svg PUBLIC "-//W3C//DTD SVG 20010904//EN"
 "http://www.w3.org/TR/2001/REC-SVG-20010904/DTD/svg10.dtd">
<svg version="1.0" xmlns="http://www.w3.org/2000/svg"
 width="48.000000pt" height="48.000000pt" viewBox="0 0 48.000000 48.000000"
 preserveAspectRatio="xMidYMid meet">
<metadata>
Created by potrace 1.16, written by Peter Selinger 2001-2019
</metadata>
<g transform="translate(0.000000,48.000000) scale(0.100000,-0.100000)"
fill="currentColor" stroke="none">
<path d="M212 445 c-8 -17 -20 -25 -36 -25 -35 0 -42 -18 -17 -44 16 -17 20
-30 15 -54 -6 -29 -4 -32 18 -32 13 0 29 5 36 12 9 9 15 9 24 0 7 -7 23 -12
36 -12 22 0 24 3 18 32 -5 24 -1 37 15 54 25 26 18 44 -17 44 -16 0 -28 8 -36
25 -6 14 -19 25 -28 25 -9 0 -22 -11 -28 -25z m46 -25 c7 -11 21 -20 32 -20
24 0 26 -13 4 -31 -10 -8 -13 -21 -9 -37 5 -21 3 -23 -12 -17 -23 10 -43 10
-66 0 -15 -6 -17 -4 -12 17 4 16 1 29 -9 37 -22 18 -20 31 4 31 11 0 25 9 32
20 7 11 15 20 18 20 3 0 11 -9 18 -20z M78 415 c-7 -16 -19 -25 -35 -25 -30 0
-40 -25 -19 -49 9 -10 16 -31 16 -48 0 -39 7 -45 39 -29 14 7 35 11 46 8 19
-4 19 -3 3 14 -14 15 -22 16 -43 6 -23 -11 -25 -10 -25 15 0 15 -7 35 -17 45
-15 17 -15 18 5 18 19 0 62 42 62 61 0 19 -21 8 -32 -16z M370 431 c0 -19 43
-61 62 -61 20 0 20 -1 5 -18 -10 -10 -17 -30 -17 -45 0 -25 -2 -26 -25 -15
-21 10 -29 9 -43 -6 -16 -17 -16 -18 3 -14 11 3 32 -1 46 -8 32 -16 39 -10 39
29 0 17 7 38 16 48 21 24 11 49 -19 49 -16 0 -28 9 -35 25 -11 24 -32 35 -32
16z M203 255 c-37 -16 -53 -42 -53 -85 0 -43 47 -90 90 -90 43 0 90 47 90 90
0 44 -16 69 -55 86 -40 16 -32 17 -72 -1z m90 -37 c26 -30 22 -73 -9 -97 -15
-12 -34 -21 -44 -21 -29 0 -70 39 -70 66 0 74 76 106 123 52z M185 61 c-20 -9
-63 -51 -52 -51 4 0 21 9 39 20 42 26 94 25 137 -1 41 -25 49 -20 16 11 -27
25 -104 37 -140 21z"/>
</g>
</svg>

