<?xml version="1.0" standalone="no"?>
<!DOCTYPE svg PUBLIC "-//W3C//DTD SVG 20010904//EN"
 "http://www.w3.org/TR/2001/REC-SVG-20010904/DTD/svg10.dtd">
<svg version="1.0" xmlns="http://www.w3.org/2000/svg"
 width="48.000000pt" height="48.000000pt" viewBox="0 0 48.000000 48.000000"
 preserveAspectRatio="xMidYMid meet">
<metadata>
Created by potrace 1.16, written by Peter Selinger 2001-2019
</metadata>
<g transform="translate(0.000000,48.000000) scale(0.100000,-0.100000)"
fill="currentColor" stroke="currentColor" stroke-width="6" stroke-linejoin="round">
<path d="M186 448 c-22 -31 -20 -60 5 -92 11 -14 15 -26 9 -26 -16 0 -60 -47
-60 -65 0 -24 13 -18 32 15 30 52 109 49 138 -6 8 -13 17 -24 22 -24 17 0 7
23 -25 55 -32 32 -33 33 -15 55 40 49 11 110 -52 110 -29 0 -43 -6 -54 -22z
m92 -10 c7 -7 12 -21 12 -33 0 -28 -19 -45 -50 -45 -31 0 -50 17 -50 45 0 28
19 45 50 45 14 0 31 -5 38 -12z M230 235 c0 -24 -2 -25 -69 -25 -79 0 -101
-13 -101 -61 0 -16 -9 -38 -20 -49 -37 -37 -16 -92 35 -92 51 0 72 55 35 92
-11 11 -20 33 -20 50 l0 30 70 0 70 0 0 -33 c0 -21 -7 -36 -20 -45 -22 -14
-27 -61 -8 -80 15 -15 61 -15 76 0 19 19 14 66 -8 80 -13 9 -20 24 -20 45 l0
33 70 0 70 0 0 -30 c0 -17 -9 -39 -20 -50 -37 -37 -16 -92 35 -92 51 0 72 55
35 92 -12 12 -20 33 -20 53 0 48 -15 57 -97 57 -71 0 -73 1 -73 25 0 14 -4 25
-10 25 -5 0 -10 -11 -10 -25z m-125 -175 c0 -20 -6 -26 -28 -28 -18 -2 -29 2
-33 12 -11 28 4 48 33 44 22 -2 28 -8 28 -28z m160 0 c0 -18 -6 -26 -23 -28
-13 -2 -25 3 -28 12 -10 26 4 48 28 44 17 -2 23 -10 23 -28z m170 0 c0 -20 -6
-26 -28 -28 -18 -2 -29 2 -33 12 -11 28 4 48 33 44 22 -2 28 -8 28 -28z"/>
</g>
</svg>

