<?xml version="1.0" standalone="no"?>
<!DOCTYPE svg PUBLIC "-//W3C//DTD SVG 20010904//EN"
 "http://www.w3.org/TR/2001/REC-SVG-20010904/DTD/svg10.dtd">
<svg version="1.0" xmlns="http://www.w3.org/2000/svg"
 width="48.000000pt" height="48.000000pt" viewBox="0 0 48.000000 48.000000"
 preserveAspectRatio="xMidYMid meet">
<metadata>
Created by potrace 1.16, written by Peter Selinger 2001-2019
</metadata>
<g transform="translate(0.000000,48.000000) scale(0.100000,-0.100000)"
fill="currentColor" stroke="none">
<path d="M185 426 c-47 -21 -104 -90 -111 -136 l-7 -41 -23 22 c-35 33 -43 14
-9 -21 36 -37 44 -37 80 0 31 33 27 54 -5 25 -19 -17 -20 -17 -20 0 0 9 10 35
22 57 66 118 250 118 316 0 31 -55 30 -132 -2 -186 -26 -45 -88 -86 -129 -86
-14 0 -29 -4 -32 -10 -9 -15 50 -12 88 4 39 17 92 71 106 109 6 16 11 50 11
77 0 27 -5 61 -11 77 -14 38 -67 92 -106 109 -40 17 -128 17 -168 0z M212 327
c-29 -31 -29 -83 1 -115 14 -16 18 -26 10 -29 -19 -7 -65 -45 -60 -50 3 -2 23
6 46 18 46 24 100 22 131 -6 9 -8 23 -15 31 -15 15 1 -29 44 -53 53 -9 3 -7
11 10 29 30 33 30 87 -1 116 -32 30 -87 29 -115 -1z m102 -13 c20 -20 20 -68
0 -88 -20 -20 -68 -20 -88 0 -20 20 -20 68 0 88 8 9 28 16 44 16 16 0 36 -7
44 -16z"/>
</g>
</svg>

