<?xml version="1.0" standalone="no"?>
<!DOCTYPE svg PUBLIC "-//W3C//DTD SVG 20010904//EN"
 "http://www.w3.org/TR/2001/REC-SVG-20010904/DTD/svg10.dtd">
<svg version="1.0" xmlns="http://www.w3.org/2000/svg"
 width="48.000000pt" height="48.000000pt" viewBox="0 0 48.000000 48.000000"
 preserveAspectRatio="xMidYMid meet">
<metadata>
Created by potrace 1.16, written by Peter Selinger 2001-2019
</metadata>
<g transform="translate(0.000000,48.000000) scale(0.100000,-0.100000)"
fill="currentColor" stroke="none">
<path d="M269 405 c-25 -14 -45 -43 -35 -52 2 -2 15 7 29 21 34 34 80 34 112
1 32 -31 31 -63 0 -125 -40 -79 -95 -93 -146 -39 -28 30 -36 28 -23 -6 8 -19
55 -45 84 -45 43 0 81 30 106 83 13 29 24 62 24 74 0 78 -82 126 -151 88z
M148 305 c-28 -15 -78 -108 -78 -144 0 -56 49 -101 108 -101 33 0 82 34 82 56
0 19 -5 18 -34 -11 -49 -49 -136 -15 -136 52 1 44 50 125 83 136 36 12 81 -6
95 -39 14 -28 32 -32 25 -5 -14 53 -94 84 -145 56z"/>
</g>
</svg>

