<?xml version="1.0" standalone="no"?>
<!DOCTYPE svg PUBLIC "-//W3C//DTD SVG 20010904//EN"
 "http://www.w3.org/TR/2001/REC-SVG-20010904/DTD/svg10.dtd">
<svg version="1.0" xmlns="http://www.w3.org/2000/svg"
 width="48.000000pt" height="48.000000pt" viewBox="0 0 48.000000 48.000000"
 preserveAspectRatio="xMidYMid meet">
<metadata>
Created by potrace 1.16, written by Peter Selinger 2001-2019
</metadata>
<g transform="translate(0.000000,48.000000) scale(0.100000,-0.100000)"
fill="currentColor" stroke="none">
<path d="M50 473 c-8 -3 -18 -11 -22 -17 -11 -16 -9 -419 2 -436 14 -22 406
-22 420 0 5 8 10 95 10 193 l0 178 -39 42 -40 42 -158 2 c-87 1 -165 -1 -173
-4z m357 -55 l33 -32 0 -178 0 -178 -200 0 -200 0 0 210 0 210 167 0 167 0 33
-32z M142 379 c-41 -16 -38 -90 6 -101 29 -8 61 9 68 36 12 48 -27 82 -74 65z
m53 -49 c0 -20 -6 -26 -28 -28 -29 -4 -44 16 -33 44 4 10 15 14 33 12 22 -2
28 -8 28 -28z M235 210 c-26 -37 -29 -39 -45 -25 -9 8 -22 15 -28 15 -11 0
-62 -67 -62 -82 0 -18 16 -6 38 27 21 34 24 35 45 20 30 -21 33 -20 63 25 15
22 30 40 34 40 4 0 25 -27 46 -60 22 -33 45 -60 52 -60 15 0 14 2 -40 83 -24
34 -46 57 -57 57 -10 0 -31 -18 -46 -40z"/>
</g>
</svg>

