<?xml version="1.0" standalone="no"?>
<!DOCTYPE svg PUBLIC "-//W3C//DTD SVG 20010904//EN"
 "http://www.w3.org/TR/2001/REC-SVG-20010904/DTD/svg10.dtd">
<svg version="1.0" xmlns="http://www.w3.org/2000/svg"
 width="48.000000pt" height="48.000000pt" viewBox="0 0 48.000000 48.000000"
 preserveAspectRatio="xMidYMid meet">
<metadata>
Created by potrace 1.16, written by Peter Selinger 2001-2019
</metadata>
<g transform="translate(0.000000,48.000000) scale(0.100000,-0.100000)"
fill="currentColor" stroke="none">
<path d="M90 450 c-7 -13 -7 -26 -1 -37 6 -12 3 -25 -12 -45 -11 -15 -17 -31
-14 -35 4 -4 14 3 23 15 10 15 26 22 46 22 26 0 29 2 18 15 -9 10 -9 15 -1 15
17 0 13 57 -5 64 -28 11 -43 7 -54 -14z m50 -20 c0 -21 -24 -28 -35 -10 -8 14
3 30 21 30 8 0 14 -9 14 -20z M212 458 c-15 -15 -16 -40 -2 -54 7 -7 4 -16
-10 -29 -20 -18 -27 -45 -11 -45 5 0 11 9 14 20 4 15 14 20 37 20 23 0 33 -5
37 -20 3 -11 9 -20 14 -20 16 0 10 26 -10 44 -16 15 -18 21 -8 37 23 36 -30
78 -61 47z m44 -19 c10 -17 -13 -36 -27 -22 -12 12 -4 33 11 33 5 0 12 -5 16
-11z M333 463 c-7 -2 -13 -17 -13 -33 0 -16 6 -31 13 -33 10 -4 10 -6 0 -6 -7
-1 -13 -7 -13 -14 0 -9 9 -12 29 -9 21 3 33 -2 45 -19 8 -13 19 -20 23 -16 3
4 -3 20 -14 35 -15 20 -18 33 -12 45 20 35 -17 67 -58 50z m42 -33 c0 -8 -8
-16 -17 -18 -13 -2 -18 3 -18 18 0 15 5 20 18 18 9 -2 17 -10 17 -18z M100
207 c0 -81 3 -99 23 -128 60 -90 181 -88 237 4 16 26 20 50 20 125 l0 93 -47
-3 -48 -3 -5 -84 c-4 -65 -9 -86 -22 -95 -13 -8 -23 -8 -35 0 -14 9 -19 30
-23 95 l-5 84 -47 3 -48 3 0 -94z m70 53 c0 -15 -7 -20 -25 -20 -18 0 -25 5
-25 20 0 15 7 20 25 20 18 0 25 -5 25 -20z m190 0 c0 -15 -7 -20 -25 -20 -18
0 -25 5 -25 20 0 15 7 20 25 20 18 0 25 -5 25 -20z m-187 -85 c6 -54 30 -85
67 -85 37 0 61 31 67 85 5 39 9 45 29 45 22 0 24 -4 24 -55 0 -49 -4 -60 -34
-93 -31 -34 -39 -37 -86 -37 -47 0 -55 3 -86 37 -30 33 -34 44 -34 93 0 51 2
55 24 55 20 0 24 -6 29 -45z"/>
</g>
</svg>

