<?xml version="1.0" standalone="no"?>
<!DOCTYPE svg PUBLIC "-//W3C//DTD SVG 20010904//EN"
 "http://www.w3.org/TR/2001/REC-SVG-20010904/DTD/svg10.dtd">
<svg version="1.0" xmlns="http://www.w3.org/2000/svg"
 width="48.000000pt" height="48.000000pt" viewBox="0 0 48.000000 48.000000"
 preserveAspectRatio="xMidYMid meet">
<metadata>
Created by potrace 1.16, written by Peter Selinger 2001-2019
</metadata>
<g transform="translate(0.000000,48.000000) scale(0.100000,-0.100000)"
fill="currentColor" stroke="none">
<path d="M141 453 c-46 -23 -93 -71 -115 -118 -14 -28 -17 -55 -14 -109 4 -84
34 -137 101 -183 38 -25 50 -28 127 -28 77 0 89 3 127 28 23 16 54 47 70 70
25 38 28 50 28 127 0 77 -3 89 -28 127 -16 23 -47 54 -70 69 -35 24 -54 29
-117 32 -56 2 -84 -2 -109 -15z m220 -38 c64 -45 91 -104 87 -187 -4 -82 -39
-139 -108 -176 -38 -20 -56 -23 -112 -20 -82 4 -139 39 -176 108 -20 38 -23
56 -20 112 4 82 39 139 108 176 38 20 56 23 112 20 55 -3 75 -9 109 -33z M217
344 c-13 -13 -7 -24 14 -24 11 0 19 5 17 12 -5 14 -22 21 -31 12z M195 271 c3
-6 13 -11 21 -11 11 0 14 -14 14 -60 0 -54 -2 -60 -21 -60 -11 0 -17 -4 -14
-10 8 -13 82 -13 90 0 3 6 -3 10 -14 10 -18 0 -20 7 -23 68 -3 66 -4 67 -32
70 -18 2 -26 0 -21 -7z"/>
</g>
</svg>

