<?xml version="1.0" standalone="no"?>
<!DOCTYPE svg PUBLIC "-//W3C//DTD SVG 20010904//EN"
 "http://www.w3.org/TR/2001/REC-SVG-20010904/DTD/svg10.dtd">
<svg version="1.0" xmlns="http://www.w3.org/2000/svg"
 width="48.000000pt" height="48.000000pt" viewBox="0 0 48.000000 48.000000"
 preserveAspectRatio="xMidYMid meet">
<metadata>
Created by potrace 1.16, written by Peter Selinger 2001-2019
</metadata>
<g transform="translate(0.000000,48.000000) scale(0.100000,-0.100000)"
fill="currentColor" stroke="currentColor" stroke-width="6" stroke-linejoin="round">
<path d="M147 449 c-45 -24 -87 -84 -94 -137 -7 -50 7 -59 57 -37 36 16 41 16
84 0 44 -17 48 -17 92 0 43 16 48 16 84 0 50 -22 64 -13 57 37 -7 54 -49 114
-97 138 -51 26 -132 26 -183 -1z m181 -19 c36 -22 68 -69 78 -113 8 -38 3 -40
-36 -20 -32 15 -37 15 -82 -1 -45 -16 -51 -16 -96 0 -45 16 -50 16 -82 1 -41
-21 -40 -21 -40 6 0 34 41 99 79 124 45 30 132 32 179 3z M167 390 c-26 -20
-36 -40 -19 -40 4 1 18 9 30 20 34 28 23 47 -11 20z M140 217 c0 -7 7 -38 16
-67 10 -34 14 -71 10 -97 -6 -45 7 -60 18 -21 10 38 7 76 -11 138 -17 55 -33
79 -33 47z M230 217 c0 -7 7 -37 16 -67 10 -35 13 -69 9 -97 -6 -45 8 -61 19
-21 10 38 7 76 -11 138 -17 55 -33 79 -33 47z M320 217 c0 -7 7 -37 16 -67 10
-35 13 -69 9 -97 -6 -45 8 -61 19 -21 10 38 7 76 -11 138 -17 55 -33 79 -33
47z"/>
</g>
</svg>

