<?xml version="1.0" standalone="no"?>
<!DOCTYPE svg PUBLIC "-//W3C//DTD SVG 20010904//EN"
 "http://www.w3.org/TR/2001/REC-SVG-20010904/DTD/svg10.dtd">
<svg version="1.0" xmlns="http://www.w3.org/2000/svg"
 width="48.000000pt" height="48.000000pt" viewBox="0 0 48.000000 48.000000"
 preserveAspectRatio="xMidYMid meet">
<metadata>
Created by potrace 1.16, written by Peter Selinger 2001-2019
</metadata>
<g transform="translate(0.000000,48.000000) scale(0.100000,-0.100000)"
fill="currentColor" stroke="none">
<path d="M221 440 c-23 -23 -31 -43 -37 -86 -5 -45 -11 -57 -30 -64 -23 -9
-40 -58 -32 -96 6 -36 23 -18 26 29 l3 47 150 0 149 0 0 -119 0 -120 -52 -3
c-31 -2 -51 -7 -48 -13 7 -14 97 -12 112 3 15 15 24 173 13 228 -4 24 -13 38
-29 44 -19 7 -25 19 -30 64 -10 78 -48 116 -116 116 -41 0 -53 -5 -79 -30z
m144 -15 c20 -19 25 -34 25 -75 l0 -50 -90 0 -90 0 0 50 c0 67 30 100 90 100
30 0 47 -6 65 -25z M262 188 c-7 -7 -12 -25 -12 -42 0 -32 15 -26 22 9 2 14
11 20 28 20 22 0 25 -4 23 -33 -1 -21 3 -32 10 -29 17 5 21 55 6 73 -14 17
-60 19 -77 2z M54 140 c-48 -18 -62 -77 -26 -112 28 -29 71 -26 98 6 24 27 71
35 91 15 8 -8 13 -8 17 0 12 18 33 12 39 -10 6 -24 27 -17 27 10 0 31 -22 41
-88 41 -56 0 -67 3 -83 24 -22 27 -47 36 -75 26z m54 -32 c15 -15 15 -51 0
-66 -15 -15 -51 -15 -66 0 -28 28 -7 78 33 78 12 0 26 -5 33 -12z"/>
</g>
</svg>

