<?xml version="1.0" standalone="no"?>
<!DOCTYPE svg PUBLIC "-//W3C//DTD SVG 20010904//EN"
 "http://www.w3.org/TR/2001/REC-SVG-20010904/DTD/svg10.dtd">
<svg version="1.0" xmlns="http://www.w3.org/2000/svg"
 width="48.000000pt" height="48.000000pt" viewBox="0 0 48.000000 48.000000"
 preserveAspectRatio="xMidYMid meet">
<metadata>
Created by potrace 1.16, written by Peter Selinger 2001-2019
</metadata>
<g transform="translate(0.000000,48.000000) scale(0.100000,-0.100000)"
fill="currentColor" stroke="none">
<path d="M80 473 c-8 -3 -18 -11 -22 -17 -4 -6 -8 -107 -8 -224 l0 -212 27
-11 c17 -6 91 -9 181 -7 122 2 155 6 162 18 5 8 10 111 10 228 l0 212 -26 10
c-27 10 -298 13 -324 3z m330 -188 l0 -165 -170 0 -170 0 0 165 0 165 170 0
170 0 0 -165z m0 -225 l0 -30 -170 0 -170 0 0 30 0 30 170 0 170 0 0 -30z
M140 360 c0 -6 40 -10 100 -10 60 0 100 4 100 10 0 6 -40 10 -100 10 -60 0
-100 -4 -100 -10z M140 300 c0 -6 40 -10 100 -10 60 0 100 4 100 10 0 6 -40
10 -100 10 -60 0 -100 -4 -100 -10z M140 240 c0 -6 27 -10 60 -10 33 0 60 4
60 10 0 6 -27 10 -60 10 -33 0 -60 -4 -60 -10z"/>
</g>
</svg>

