<?xml version="1.0" standalone="no"?>
<!DOCTYPE svg PUBLIC "-//W3C//DTD SVG 20010904//EN"
 "http://www.w3.org/TR/2001/REC-SVG-20010904/DTD/svg10.dtd">
<svg version="1.0" xmlns="http://www.w3.org/2000/svg"
 width="48.000000pt" height="48.000000pt" viewBox="0 0 48.000000 48.000000"
 preserveAspectRatio="xMidYMid meet">
<metadata>
Created by potrace 1.16, written by Peter Selinger 2001-2019
</metadata>
<g transform="translate(0.000000,48.000000) scale(0.100000,-0.100000)"
fill="currentColor" stroke="currentColor" stroke-width="6" stroke-linejoin="round">
<path d="M62 384 c-33 -23 -53 -69 -54 -125 0 -53 22 -99 48 -99 8 0 28 -14
43 -30 31 -34 75 -50 141 -50 66 0 110 16 141 50 15 16 35 30 43 30 40 0 63
105 37 171 -20 53 -98 88 -128 58 -14 -14 -172 -14 -186 0 -16 16 -59 14 -85
-5z m81 -15 c11 -7 55 -12 97 -12 42 0 86 5 97 12 35 18 60 13 87 -20 22 -25
26 -41 26 -89 0 -50 -4 -61 -22 -75 -23 -15 -23 -15 -29 33 -4 27 -11 58 -18
70 -9 17 -8 23 6 31 21 11 13 24 -10 15 -24 -9 -27 -28 -9 -77 35 -97 -13
-157 -128 -157 -115 0 -163 60 -128 158 18 49 11 82 -17 82 -20 0 -19 -10 1
-25 14 -10 15 -15 4 -35 -6 -12 -15 -42 -19 -66 -6 -44 -6 -44 -28 -29 -19 14
-23 25 -23 75 0 48 4 64 26 89 27 33 52 38 87 20z M142 248 c5 -15 28 -18 29
-3 0 6 -7 12 -17 13 -10 3 -15 -1 -12 -10z M208 234 c-10 -21 -9 -31 4 -53 14
-25 14 -29 -1 -38 -12 -8 -6 -10 27 -10 35 0 40 2 31 14 -9 10 -9 17 -1 25 16
16 15 61 0 76 -20 20 -48 14 -60 -14z m47 -24 c0 -27 -22 -39 -31 -16 -8 22 3
49 19 43 6 -2 12 -14 12 -27z M310 245 c0 -8 7 -15 15 -15 8 0 15 7 15 15 0 8
-7 15 -15 15 -8 0 -15 -7 -15 -15z"/>
</g>
</svg>

