<?xml version="1.0" standalone="no"?>
<!DOCTYPE svg PUBLIC "-//W3C//DTD SVG 20010904//EN"
 "http://www.w3.org/TR/2001/REC-SVG-20010904/DTD/svg10.dtd">
<svg version="1.0" xmlns="http://www.w3.org/2000/svg"
 width="48.000000pt" height="48.000000pt" viewBox="0 0 48.000000 48.000000"
 preserveAspectRatio="xMidYMid meet">
<metadata>
Created by potrace 1.16, written by Peter Selinger 2001-2019
</metadata>
<g transform="translate(0.000000,48.000000) scale(0.100000,-0.100000)"
fill="currentColor" stroke="none">
<path d="M55 418 c-11 -6 -26 -18 -32 -26 -15 -18 -17 -88 -4 -97 5 -3 12 -19
16 -35 4 -17 15 -35 25 -40 10 -5 21 -26 25 -47 4 -25 20 -50 46 -75 68 -65
153 -64 219 2 28 28 42 52 46 80 4 22 12 40 19 40 7 0 18 15 25 33 6 17 16 40
21 49 47 89 -75 175 -146 103 -14 -13 -25 -28 -25 -32 0 -4 -22 -7 -48 -7 -39
1 -54 7 -79 33 -33 33 -71 40 -108 19z m79 -19 c37 -17 39 -37 8 -64 -33 -30
-19 -32 33 -5 49 25 81 25 130 0 53 -27 66 -25 32 5 -22 20 -26 28 -18 44 19
34 82 43 113 14 19 -17 26 -83 8 -83 -5 0 -10 -11 -10 -24 0 -24 -23 -56 -39
-56 -5 0 -11 -18 -15 -39 -13 -83 -96 -136 -175 -112 -49 14 -89 60 -97 112
-4 23 -12 39 -20 39 -16 0 -34 31 -34 59 0 12 -4 21 -10 21 -18 0 -11 59 10
80 23 23 48 25 84 9z M140 245 c0 -8 7 -15 15 -15 8 0 15 7 15 15 0 8 -7 15
-15 15 -8 0 -15 -7 -15 -15z M211 246 c-6 -7 -14 -33 -17 -58 -7 -49 11 -78
46 -78 35 0 53 29 46 78 -3 25 -11 51 -17 58 -15 18 -43 18 -58 0z m54 -50 c8
-51 2 -66 -25 -66 -27 0 -33 15 -25 66 5 34 10 44 25 44 15 0 20 -10 25 -44z
M310 245 c0 -8 7 -15 15 -15 8 0 15 7 15 15 0 8 -7 15 -15 15 -8 0 -15 -7 -15
-15z"/>
</g>
</svg>

