<?xml version="1.0" standalone="no"?>
<!DOCTYPE svg PUBLIC "-//W3C//DTD SVG 20010904//EN"
 "http://www.w3.org/TR/2001/REC-SVG-20010904/DTD/svg10.dtd">
<svg version="1.0" xmlns="http://www.w3.org/2000/svg"
 width="48.000000pt" height="48.000000pt" viewBox="0 0 48.000000 48.000000"
 preserveAspectRatio="xMidYMid meet">
<metadata>
Created by potrace 1.16, written by Peter Selinger 2001-2019
</metadata>
<g transform="translate(0.000000,48.000000) scale(0.100000,-0.100000)"
fill="currentColor" stroke="none">
<path d="M83 465 c-58 -25 -56 -96 3 -121 19 -8 34 -18 34 -23 0 -5 14 -24 32
-41 l31 -31 109 7 c109 7 120 4 96 -29 -9 -11 -31 -17 -73 -19 l-59 -3 -9 -37
c-8 -33 -13 -38 -37 -38 -34 0 -60 -9 -60 -21 0 -5 13 -6 30 -3 16 4 43 1 61
-5 18 -6 35 -8 38 -5 3 4 0 9 -6 11 -14 5 -17 41 -5 59 4 6 31 14 61 17 62 7
81 21 84 63 2 28 0 29 -45 32 -27 2 -48 5 -48 8 0 16 35 54 51 54 21 0 49 36
49 65 0 39 -28 65 -69 65 -20 0 -42 -5 -48 -11 -8 -8 -13 -8 -17 0 -9 14 -103
15 -111 1 -4 -6 -16 -5 -33 4 -23 12 -32 12 -59 1z m64 -26 c8 -8 17 -8 31 0
11 6 35 11 52 11 17 0 41 -5 52 -11 14 -8 23 -8 31 0 15 15 60 14 75 -1 29
-29 7 -78 -35 -78 -16 0 -27 -9 -37 -34 -17 -40 -42 -56 -86 -56 -44 0 -69 16
-86 56 -10 25 -21 34 -37 34 -42 0 -64 49 -35 78 15 15 60 16 75 1z M220 345
c0 -14 5 -25 10 -25 6 0 10 11 10 25 0 14 -4 25 -10 25 -5 0 -10 -11 -10 -25z
M73 213 c-21 -36 -28 -61 -28 -99 0 -86 44 -114 178 -114 74 0 100 15 113 65
10 41 -4 42 -21 2 l-15 -37 -99 0 c-97 0 -100 1 -121 28 -28 35 -23 97 14 152
29 43 31 50 16 50 -5 0 -22 -21 -37 -47z"/>
</g>
</svg>

