<?xml version="1.0" standalone="no"?>
<!DOCTYPE svg PUBLIC "-//W3C//DTD SVG 20010904//EN"
 "http://www.w3.org/TR/2001/REC-SVG-20010904/DTD/svg10.dtd">
<svg version="1.0" xmlns="http://www.w3.org/2000/svg"
 width="48.000000pt" height="48.000000pt" viewBox="0 0 48.000000 48.000000"
 preserveAspectRatio="xMidYMid meet">
<metadata>
Created by potrace 1.16, written by Peter Selinger 2001-2019
</metadata>
<g transform="translate(0.000000,48.000000) scale(0.100000,-0.100000)"
fill="currentColor" stroke="none">
<path d="M26 451 c-23 -26 -20 -50 9 -57 30 -7 33 -24 6 -24 -27 0 -35 -17
-14 -29 13 -6 24 -5 36 4 26 19 21 50 -10 65 -25 12 -26 14 -8 18 32 6 39 19
17 31 -15 8 -23 6 -36 -8z M230 451 c0 -10 -17 -30 -40 -46 -49 -34 -55 -52
-40 -116 11 -43 10 -52 -4 -68 -21 -23 -30 -81 -17 -101 9 -13 14 -13 42 3 39
22 88 22 134 0 31 -15 37 -15 45 -3 16 25 11 66 -11 94 -19 24 -20 31 -9 76
15 63 8 81 -40 115 -23 16 -40 36 -40 46 0 11 -4 19 -10 19 -5 0 -10 -8 -10
-19z m60 -71 l35 -29 -17 -63 c-16 -61 -16 -63 3 -77 12 -9 19 -25 19 -48 0
-33 -1 -34 -22 -19 -29 20 -107 20 -136 0 -21 -15 -22 -14 -22 19 0 24 6 39
20 48 20 13 20 16 5 64 -8 28 -15 58 -15 67 0 17 64 68 85 68 5 0 26 -14 45
-30z M210 345 c-15 -18 -10 -45 13 -59 34 -22 73 27 47 59 -16 19 -44 19 -60
0z m46 -16 c10 -17 -13 -36 -27 -22 -12 12 -4 33 11 33 5 0 12 -5 16 -11z
M416 401 c-23 -26 -20 -50 9 -57 30 -7 33 -24 6 -24 -27 0 -35 -17 -14 -29 13
-6 24 -5 36 4 26 19 21 50 -10 65 -25 12 -26 14 -8 18 32 6 39 19 17 31 -15 8
-23 6 -36 -8z M205 51 c8 -17 20 -33 27 -37 13 -9 48 31 48 55 -1 12 -5 10
-21 -8 -17 -21 -22 -22 -30 -10 -5 7 -9 17 -9 22 0 4 -7 7 -15 7 -14 0 -14 -3
0 -29z"/>
</g>
</svg>

