<?xml version="1.0" standalone="no"?>
<!DOCTYPE svg PUBLIC "-//W3C//DTD SVG 20010904//EN"
 "http://www.w3.org/TR/2001/REC-SVG-20010904/DTD/svg10.dtd">
<svg version="1.0" xmlns="http://www.w3.org/2000/svg"
 width="48.000000pt" height="48.000000pt" viewBox="0 0 48.000000 48.000000"
 preserveAspectRatio="xMidYMid meet">
<metadata>
Created by potrace 1.16, written by Peter Selinger 2001-2019
</metadata>
<g transform="translate(0.000000,48.000000) scale(0.100000,-0.100000)"
fill="currentColor" stroke="currentColor" stroke-width="6" stroke-linejoin="round">
<path d="M335 455 c-22 -8 -59 -14 -81 -14 -25 -1 -44 -6 -47 -14 -3 -8 -39
-24 -81 -36 -69 -21 -99 -41 -61 -41 12 0 9 -13 -15 -60 -33 -66 -34 -70 -20
-70 5 0 25 29 43 65 l32 65 33 -65 c17 -36 36 -65 42 -65 15 0 13 4 -25 80
l-35 69 40 11 c67 18 70 9 70 -184 l0 -165 -40 -3 c-22 -2 -40 -7 -40 -13 0
-6 37 -10 90 -10 53 0 90 4 90 10 0 6 -18 11 -40 13 l-40 3 0 170 c0 104 4
169 10 169 5 0 12 11 16 24 5 22 48 45 61 32 2 -2 -7 -27 -21 -55 -29 -56 -30
-61 -16 -61 5 0 25 29 43 65 l32 65 33 -65 c17 -36 36 -65 42 -65 14 0 13 4
-20 70 -16 32 -27 66 -24 74 7 19 -14 19 -71 1z m-75 -50 c0 -8 -9 -15 -20
-15 -11 0 -20 7 -20 15 0 8 9 15 20 15 11 0 20 -7 20 -15z M294 255 c-8 -20
21 -63 52 -77 32 -15 71 -1 97 34 34 45 18 58 -68 58 -58 0 -77 -3 -81 -15z
m136 -34 c-20 -39 -90 -39 -110 -1 -10 19 -7 20 55 20 62 0 65 -1 55 -19z M24
165 c-8 -20 21 -63 52 -77 32 -15 71 -1 97 34 34 45 18 58 -68 58 -58 0 -77
-3 -81 -15z m136 -34 c-20 -39 -90 -39 -110 -1 -10 19 -7 20 55 20 62 0 65 -1
55 -19z"/>
</g>
</svg>

