<?xml version="1.0" standalone="no"?>
<!DOCTYPE svg PUBLIC "-//W3C//DTD SVG 20010904//EN"
 "http://www.w3.org/TR/2001/REC-SVG-20010904/DTD/svg10.dtd">
<svg version="1.0" xmlns="http://www.w3.org/2000/svg"
 width="48.000000pt" height="48.000000pt" viewBox="0 0 48.000000 48.000000"
 preserveAspectRatio="xMidYMid meet">
<metadata>
Created by potrace 1.16, written by Peter Selinger 2001-2019
</metadata>
<g transform="translate(0.000000,48.000000) scale(0.100000,-0.100000)"
fill="currentColor" stroke="none">
<path d="M327 400 c-80 -35 -77 -34 -77 -15 0 23 -18 18 -22 -6 -2 -15 -25
-30 -92 -58 -49 -20 -92 -43 -94 -50 -3 -8 0 -11 7 -7 16 10 14 2 -18 -68 -25
-56 -27 -66 -16 -93 14 -33 32 -43 76 -43 32 0 79 38 79 64 0 8 -16 47 -35 87
-19 40 -34 74 -32 75 1 1 30 13 65 27 l62 26 0 -154 0 -154 -40 -3 c-22 -2
-40 -7 -40 -13 0 -6 37 -10 90 -10 53 0 90 4 90 10 0 6 -18 11 -40 13 l-40 3
0 158 0 157 56 23 c30 13 57 22 59 20 2 -2 -10 -33 -26 -68 -19 -41 -27 -72
-23 -87 14 -54 93 -73 132 -31 29 31 28 60 -8 135 -16 34 -27 69 -24 77 9 22
-12 18 -89 -15z m70 -128 c-27 -2 -51 -1 -54 1 -2 3 8 30 24 61 l27 56 26 -57
26 -58 -49 -3z m-278 -74 l20 -48 -54 0 -55 0 27 55 c15 30 30 52 34 47 4 -4
17 -28 28 -54z m331 43 c0 -17 -31 -41 -51 -41 -27 0 -55 16 -63 35 -4 12 5
15 54 15 33 0 60 -4 60 -9z m-312 -133 c-26 -40 -108 -33 -108 8 0 10 16 14
61 14 l61 0 -14 -22z"/>
</g>
</svg>

