<?xml version="1.0" standalone="no"?>
<!DOCTYPE svg PUBLIC "-//W3C//DTD SVG 20010904//EN"
 "http://www.w3.org/TR/2001/REC-SVG-20010904/DTD/svg10.dtd">
<svg version="1.0" xmlns="http://www.w3.org/2000/svg"
 width="48.000000pt" height="48.000000pt" viewBox="0 0 48.000000 48.000000"
 preserveAspectRatio="xMidYMid meet">
<metadata>
Created by potrace 1.16, written by Peter Selinger 2001-2019
</metadata>
<g transform="translate(0.000000,48.000000) scale(0.100000,-0.100000)"
fill="currentColor" stroke="currentColor" stroke-width="6" stroke-linejoin="round">
<path d="M187 445 c-26 -6 -50 -15 -53 -18 -4 -3 -20 1 -36 9 -36 19 -74 11
-83 -16 -7 -21 10 -60 31 -73 10 -6 11 -14 4 -33 -27 -69 -3 -141 72 -224 82
-89 152 -89 239 1 28 30 58 68 65 86 16 38 18 116 4 143 -7 14 -6 21 3 27 22
13 39 52 32 73 -9 27 -47 35 -81 17 -23 -12 -33 -12 -58 -2 -52 21 -89 23
-139 10z m-82 -36 c16 -13 30 -18 33 -12 29 44 175 44 203 0 4 -5 19 0 37 13
20 15 37 20 51 15 28 -9 27 -31 -4 -59 -22 -21 -24 -26 -14 -55 17 -47 5 -115
-26 -163 l-27 -41 -13 38 c-15 41 -31 62 -41 52 -3 -3 1 -16 10 -29 18 -25 21
-64 6 -73 -5 -3 -25 1 -45 9 -31 13 -39 13 -70 0 -55 -23 -71 1 -40 60 16 30
12 47 -6 29 -6 -6 -16 -28 -24 -48 l-13 -38 -27 41 c-31 48 -43 116 -26 163
10 29 8 34 -14 55 -27 25 -32 49 -12 57 23 10 34 7 62 -14z m198 -336 c17 -10
-18 -23 -63 -23 -49 0 -87 15 -60 24 8 2 22 7 30 10 16 5 79 -2 93 -11z M190
390 c0 -5 4 -10 9 -10 6 0 13 5 16 10 3 6 -1 10 -9 10 -9 0 -16 -4 -16 -10z
M265 390 c3 -5 10 -10 16 -10 5 0 9 5 9 10 0 6 -7 10 -16 10 -8 0 -12 -4 -9
-10z M105 350 c-3 -5 -2 -10 4 -10 5 0 13 5 16 10 3 6 2 10 -4 10 -5 0 -13 -4
-16 -10z M166 352 c-3 -6 -1 -14 5 -17 15 -10 25 3 12 16 -7 7 -13 7 -17 1z
M307 353 c-4 -3 -7 -11 -7 -17 0 -6 5 -5 12 2 6 6 9 14 7 17 -3 3 -9 2 -12 -2z
M355 350 c3 -5 11 -10 16 -10 6 0 7 5 4 10 -3 6 -11 10 -16 10 -6 0 -7 -4 -4
-10z M200 300 c0 -5 5 -10 10 -10 6 0 10 5 10 10 0 6 -4 10 -10 10 -5 0 -10
-4 -10 -10z M260 300 c0 -5 5 -10 10 -10 6 0 10 5 10 10 0 6 -4 10 -10 10 -5
0 -10 -4 -10 -10z M115 278 c11 -34 19 -40 49 -32 27 6 27 7 9 24 -10 10 -29
21 -41 25 -22 6 -23 5 -17 -17z M335 290 c-19 -7 -52 -39 -44 -41 50 -11 60
-9 69 16 15 39 13 41 -25 25z M370 204 c0 -8 5 -12 10 -9 6 3 10 10 10 16 0 5
-4 9 -10 9 -5 0 -10 -7 -10 -16z M100 200 c0 -5 5 -10 10 -10 6 0 10 5 10 10
0 6 -4 10 -10 10 -5 0 -10 -4 -10 -10z M215 163 c11 -7 26 -11 33 -8 8 3 18 5
23 5 5 0 9 4 9 9 0 4 -19 8 -42 8 -38 0 -40 -1 -23 -14z"/>
</g>
</svg>

