<?xml version="1.0" standalone="no"?>
<!DOCTYPE svg PUBLIC "-//W3C//DTD SVG 20010904//EN"
 "http://www.w3.org/TR/2001/REC-SVG-20010904/DTD/svg10.dtd">
<svg version="1.0" xmlns="http://www.w3.org/2000/svg"
 width="48.000000pt" height="48.000000pt" viewBox="0 0 48.000000 48.000000"
 preserveAspectRatio="xMidYMid meet">
<metadata>
Created by potrace 1.16, written by Peter Selinger 2001-2019
</metadata>
<g transform="translate(0.000000,48.000000) scale(0.100000,-0.100000)"
fill="currentColor" stroke="none">
<path d="M201 446 c-15 -16 -37 -25 -67 -29 -57 -6 -65 -14 -71 -71 -4 -30
-13 -52 -29 -67 -30 -28 -30 -50 0 -78 16 -15 25 -37 29 -67 6 -57 14 -65 71
-71 30 -4 52 -13 67 -29 12 -13 30 -24 39 -24 9 0 27 11 39 24 15 16 37 25 67
29 57 6 65 14 71 71 4 30 13 52 29 67 13 12 24 30 24 39 0 9 -11 27 -24 39
-16 15 -25 37 -29 67 -6 57 -14 65 -71 71 -30 4 -52 13 -67 29 -12 13 -30 24
-39 24 -9 0 -27 -11 -39 -24z m76 -26 c25 -23 44 -30 73 -30 40 0 40 0 40 -40
0 -30 7 -48 31 -75 l31 -35 -31 -35 c-24 -27 -31 -45 -31 -75 0 -40 0 -40 -40
-40 -30 0 -48 -7 -75 -31 l-35 -31 -35 31 c-27 24 -45 31 -75 31 -40 0 -40 0
-40 40 0 30 -7 48 -31 75 l-31 35 31 35 c24 27 31 45 31 75 0 40 0 40 40 40
30 0 48 7 72 30 18 16 35 30 37 30 2 0 19 -13 38 -30z M190 340 c0 -5 11 -20
25 -34 19 -19 25 -36 25 -66 0 -30 -6 -47 -25 -66 -36 -36 -31 -44 24 -44 41
0 54 5 79 30 50 49 50 111 0 160 -25 25 -38 30 -79 30 -27 0 -49 -4 -49 -10z
m115 -35 c52 -51 18 -155 -51 -155 -26 0 -26 1 -10 25 9 13 16 43 16 65 0 22
-7 52 -16 65 -16 24 -16 25 10 25 15 0 38 -11 51 -25z"/>
</g>
</svg>

