<?xml version="1.0" standalone="no"?>
<!DOCTYPE svg PUBLIC "-//W3C//DTD SVG 20010904//EN"
 "http://www.w3.org/TR/2001/REC-SVG-20010904/DTD/svg10.dtd">
<svg version="1.0" xmlns="http://www.w3.org/2000/svg"
 width="48.000000pt" height="48.000000pt" viewBox="0 0 48.000000 48.000000"
 preserveAspectRatio="xMidYMid meet">
<metadata>
Created by potrace 1.16, written by Peter Selinger 2001-2019
</metadata>
<g transform="translate(0.000000,48.000000) scale(0.100000,-0.100000)"
fill="currentColor" stroke="none">
<path d="M200 445 c-17 -18 -34 -25 -62 -25 -25 0 -45 -7 -58 -20 -13 -13 -20
-33 -20 -58 0 -28 -7 -45 -25 -62 -32 -30 -32 -50 0 -80 15 -14 25 -35 25 -51
0 -15 4 -39 10 -53 8 -22 16 -26 53 -26 35 0 49 -6 72 -30 16 -17 36 -30 45
-30 9 0 29 14 45 30 23 24 37 30 72 30 37 0 45 4 53 26 6 14 10 38 10 53 0 16
10 37 25 51 31 29 32 50 1 79 -16 15 -25 37 -29 68 -6 55 -25 73 -77 73 -26 0
-43 7 -60 25 -13 14 -31 25 -40 25 -9 0 -27 -11 -40 -25z m80 -19 c15 -17 36
-26 64 -28 40 -3 41 -4 44 -43 2 -26 13 -50 33 -72 16 -19 29 -36 29 -40 0 -3
-13 -21 -30 -40 -23 -25 -30 -44 -30 -73 l0 -40 -42 0 c-34 0 -49 -6 -75 -32
l-33 -32 -33 32 c-26 26 -41 32 -75 32 l-42 0 0 40 c0 29 -7 48 -30 73 -16 19
-30 37 -30 40 0 4 13 21 29 40 20 22 31 46 33 72 3 39 4 40 44 43 28 2 49 11
64 28 30 30 50 30 80 0z M236 352 c-3 -3 -6 -54 -6 -114 0 -102 1 -108 21
-108 27 0 60 18 81 44 26 32 24 108 -4 141 -23 25 -81 49 -92 37z m69 -47 c35
-34 35 -96 0 -130 -46 -46 -55 -35 -55 65 0 100 9 111 55 65z"/>
</g>
</svg>

