<?xml version="1.0" standalone="no"?>
<!DOCTYPE svg PUBLIC "-//W3C//DTD SVG 20010904//EN"
 "http://www.w3.org/TR/2001/REC-SVG-20010904/DTD/svg10.dtd">
<svg version="1.0" xmlns="http://www.w3.org/2000/svg"
 width="48.000000pt" height="48.000000pt" viewBox="0 0 48.000000 48.000000"
 preserveAspectRatio="xMidYMid meet">
<metadata>
Created by potrace 1.16, written by Peter Selinger 2001-2019
</metadata>
<g transform="translate(0.000000,48.000000) scale(0.100000,-0.100000)"
fill="currentColor" stroke="currentColor" stroke-width="6" stroke-linejoin="round">
<path d="M48 439 c-38 -15 -48 -54 -48 -199 0 -149 9 -184 52 -199 40 -14 336
-14 376 0 43 15 52 50 52 199 0 149 -9 184 -52 199 -38 14 -343 13 -380 0z
m397 -199 l0 -175 -205 0 -205 0 -3 165 c-1 90 0 170 3 177 3 11 47 13 207 11
l203 -3 0 -175z M210 375 c-7 -8 -23 -15 -36 -15 -12 0 -30 -7 -38 -16 -9 -8
-16 -26 -16 -38 0 -13 -7 -29 -15 -36 -19 -16 -19 -44 0 -60 8 -7 15 -23 15
-36 0 -29 25 -54 54 -54 13 0 29 -7 36 -15 16 -19 44 -19 60 0 7 8 23 15 36
15 29 0 54 25 54 54 0 13 7 29 15 36 19 16 19 44 0 60 -8 7 -15 23 -15 36 0
29 -25 54 -54 54 -13 0 -29 7 -36 15 -7 8 -20 15 -30 15 -10 0 -23 -7 -30 -15z
m55 -25 c10 -11 29 -20 42 -20 17 0 23 -6 23 -22 0 -12 10 -32 22 -45 l21 -23
-21 -23 c-12 -13 -22 -33 -22 -45 0 -16 -6 -22 -22 -22 -12 0 -32 -10 -45 -22
l-23 -21 -23 21 c-13 12 -33 22 -45 22 -16 0 -22 6 -22 22 0 12 -10 32 -22 45
l-21 23 21 23 c12 13 22 33 22 45 0 16 6 22 23 22 13 0 32 9 42 20 10 11 21
20 25 20 4 0 15 -9 25 -20z M230 240 c0 -61 2 -70 18 -70 26 0 62 42 62 71 0
28 -37 69 -63 69 -14 0 -17 -11 -17 -70z m60 0 c0 -9 -9 -25 -20 -35 -20 -18
-20 -17 -20 35 0 52 0 53 20 35 11 -10 20 -26 20 -35z"/>
</g>
</svg>

