<?xml version="1.0" standalone="no"?>
<!DOCTYPE svg PUBLIC "-//W3C//DTD SVG 20010904//EN"
 "http://www.w3.org/TR/2001/REC-SVG-20010904/DTD/svg10.dtd">
<svg version="1.0" xmlns="http://www.w3.org/2000/svg"
 width="48.000000pt" height="48.000000pt" viewBox="0 0 48.000000 48.000000"
 preserveAspectRatio="xMidYMid meet">
<metadata>
Created by potrace 1.16, written by Peter Selinger 2001-2019
</metadata>
<g transform="translate(0.000000,48.000000) scale(0.100000,-0.100000)"
fill="currentColor" stroke="none">
<path d="M215 448 c-9 -22 -2 -68 10 -71 14 -3 19 63 6 76 -7 7 -12 5 -16 -5z
M70 401 c0 -5 9 -19 20 -32 22 -28 28 -6 6 24 -14 18 -26 22 -26 8z M364 385
c-22 -34 -8 -47 16 -15 22 28 25 40 10 40 -5 0 -17 -11 -26 -25z M32 294 c-16
-11 -22 -25 -22 -54 0 -65 15 -70 230 -70 215 0 230 5 230 70 0 65 -15 70
-230 70 -152 0 -190 -3 -208 -16z m406 -16 c15 -15 15 -61 0 -76 -17 -17 -379
-17 -396 0 -15 15 -15 61 0 76 17 17 379 17 396 0z M84 105 c-20 -30 -10 -47
11 -19 14 18 20 44 10 44 -2 0 -12 -11 -21 -25z M350 121 c0 -15 38 -56 45
-49 8 8 -23 58 -36 58 -5 0 -9 -4 -9 -9z M215 98 c-9 -22 -2 -68 10 -71 14 -3
19 63 6 76 -7 7 -12 5 -16 -5z"/>
</g>
</svg>

