<?xml version="1.0" standalone="no"?>
<!DOCTYPE svg PUBLIC "-//W3C//DTD SVG 20010904//EN"
 "http://www.w3.org/TR/2001/REC-SVG-20010904/DTD/svg10.dtd">
<svg version="1.0" xmlns="http://www.w3.org/2000/svg"
 width="48.000000pt" height="48.000000pt" viewBox="0 0 48.000000 48.000000"
 preserveAspectRatio="xMidYMid meet">
<metadata>
Created by potrace 1.16, written by Peter Selinger 2001-2019
</metadata>
<g transform="translate(0.000000,48.000000) scale(0.100000,-0.100000)"
fill="currentColor" stroke="none">
<path d="M230 435 c0 -14 5 -25 10 -25 6 0 10 11 10 25 0 14 -4 25 -10 25 -5
0 -10 -11 -10 -25z M95 390 c10 -11 20 -18 23 -15 7 6 -18 35 -31 35 -5 0 -2
-9 8 -20z M370 395 c-20 -24 -6 -28 15 -5 10 11 13 20 8 20 -6 0 -16 -7 -23
-15z M169 347 c-22 -15 -39 -38 -49 -65 -13 -37 -13 -47 0 -84 10 -28 26 -50
47 -63 18 -11 32 -28 33 -37 0 -27 80 -26 80 0 0 11 11 24 25 30 14 6 34 26
45 44 72 118 -67 252 -181 175z m147 -28 c51 -48 37 -141 -26 -174 -16 -8 -30
-22 -30 -30 0 -8 -9 -15 -20 -15 -11 0 -20 7 -20 15 0 8 -13 21 -30 30 -78 40
-75 161 5 196 32 14 95 3 121 -22z M410 270 c0 -5 11 -10 25 -10 14 0 25 5 25
10 0 6 -11 10 -25 10 -14 0 -25 -4 -25 -10z M20 240 c0 -5 11 -10 25 -10 14 0
25 5 25 10 0 6 -11 10 -25 10 -14 0 -25 -4 -25 -10z M95 120 c-10 -11 -13 -20
-8 -20 13 0 38 29 31 35 -3 3 -13 -4 -23 -15z M360 133 c0 -13 29 -38 35 -31
3 3 -4 13 -15 23 -11 10 -20 13 -20 8z M200 30 c0 -5 18 -10 40 -10 22 0 40 5
40 10 0 6 -18 10 -40 10 -22 0 -40 -4 -40 -10z"/>
</g>
</svg>

