<?xml version="1.0" standalone="no"?>
<!DOCTYPE svg PUBLIC "-//W3C//DTD SVG 20010904//EN"
 "http://www.w3.org/TR/2001/REC-SVG-20010904/DTD/svg10.dtd">
<svg version="1.0" xmlns="http://www.w3.org/2000/svg"
 width="48.000000pt" height="48.000000pt" viewBox="0 0 48.000000 48.000000"
 preserveAspectRatio="xMidYMid meet">
<metadata>
Created by potrace 1.16, written by Peter Selinger 2001-2019
</metadata>
<g transform="translate(0.000000,48.000000) scale(0.100000,-0.100000)"
fill="currentColor" stroke="none">
<path d="M204 433 c-14 -64 -26 -93 -52 -118 -22 -22 -28 -24 -30 -11 -3 12
-16 16 -58 16 l-54 0 0 -145 0 -145 50 0 c36 0 52 5 58 17 9 16 16 15 90 -5
111 -31 176 -30 207 4 30 32 55 105 55 160 0 69 -4 74 -74 74 -33 0 -66 4 -72
8 -6 4 -13 35 -16 69 -5 72 -26 103 -69 103 -23 0 -30 -5 -35 -27z m70 -15
c10 -13 16 -44 16 -75 0 -71 14 -83 97 -83 l66 0 -5 -64 c-4 -41 -14 -80 -29
-108 -22 -38 -29 -43 -64 -46 -22 -2 -84 6 -137 19 l-98 23 0 88 0 88 44 43
c36 34 45 51 51 90 8 53 32 64 59 25z m-174 -243 l0 -125 -35 0 -35 0 0 125 0
125 35 0 35 0 0 -125z"/>
</g>
</svg>

