<?xml version="1.0" standalone="no"?>
<!DOCTYPE svg PUBLIC "-//W3C//DTD SVG 20010904//EN"
 "http://www.w3.org/TR/2001/REC-SVG-20010904/DTD/svg10.dtd">
<svg version="1.0" xmlns="http://www.w3.org/2000/svg"
 width="48.000000pt" height="48.000000pt" viewBox="0 0 48.000000 48.000000"
 preserveAspectRatio="xMidYMid meet">
<metadata>
Created by potrace 1.16, written by Peter Selinger 2001-2019
</metadata>
<g transform="translate(0.000000,48.000000) scale(0.100000,-0.100000)"
fill="currentColor" stroke="none">
<path d="M9 433 c-6 -17 -9 -101 -7 -211 2 -149 6 -185 18 -192 8 -5 111 -10
228 -10 l212 0 11 27 c6 17 9 101 7 211 -2 149 -6 185 -18 192 -8 5 -111 10
-228 10 l-212 0 -11 -27z m441 -28 l0 -35 -210 0 -210 0 0 35 0 35 210 0 210
0 0 -35z m0 -210 l0 -155 -210 0 -210 0 0 155 0 155 210 0 210 0 0 -155z M187
304 c-4 -4 -7 -18 -7 -30 0 -17 -7 -23 -27 -26 -26 -3 -28 -6 -28 -53 0 -47 2
-50 27 -53 21 -3 27 -9 30 -30 3 -26 6 -27 58 -27 52 0 55 1 58 27 3 21 9 27
30 30 25 3 27 6 27 53 0 47 -2 50 -27 53 -21 3 -27 9 -30 30 -3 25 -7 27 -53
30 -28 2 -54 0 -58 -4z m85 -41 c2 -22 9 -29 31 -31 23 -3 27 -8 27 -37 0 -29
-4 -34 -27 -37 -22 -2 -29 -9 -31 -30 -3 -23 -8 -28 -32 -28 -24 0 -29 5 -32
28 -2 21 -9 28 -30 30 -24 3 -28 8 -28 37 0 29 4 34 28 37 21 2 28 9 30 31 3
22 8 27 32 27 24 0 29 -5 32 -27z"/>
</g>
</svg>

