<?xml version="1.0" standalone="no"?>
<!DOCTYPE svg PUBLIC "-//W3C//DTD SVG 20010904//EN"
 "http://www.w3.org/TR/2001/REC-SVG-20010904/DTD/svg10.dtd">
<svg version="1.0" xmlns="http://www.w3.org/2000/svg"
 width="48.000000pt" height="48.000000pt" viewBox="0 0 48.000000 48.000000"
 preserveAspectRatio="xMidYMid meet">
<metadata>
Created by potrace 1.16, written by Peter Selinger 2001-2019
</metadata>
<g transform="translate(0.000000,48.000000) scale(0.100000,-0.100000)"
fill="currentColor" stroke="none">
<path d="M33 470 c-14 -6 -24 -21 -29 -44 -10 -54 -1 -183 14 -198 9 -9 43
-13 102 -13 119 0 119 19 0 23 l-90 3 0 104 0 105 210 0 210 0 0 -104 c0 -98
-1 -105 -20 -108 -12 -2 -19 -7 -18 -13 4 -12 39 -8 53 6 15 15 13 215 -3 231
-16 16 -394 23 -429 8z M351 401 c-28 -28 -28 -84 0 -112 11 -11 27 -19 35
-17 22 4 18 22 -6 26 -27 5 -26 30 3 34 12 2 22 8 22 13 0 6 -10 11 -22 13
-29 4 -30 29 -3 34 24 4 28 22 6 26 -8 2 -24 -6 -35 -17z M66 403 c-3 -3 -6
-26 -6 -50 0 -46 28 -87 56 -81 24 5 21 23 -3 26 -20 3 -23 9 -23 52 0 46 -9
67 -24 53z M170 345 c0 -37 4 -65 10 -65 6 0 10 28 10 65 0 37 -4 65 -10 65
-6 0 -10 -28 -10 -65z M230 345 c0 -37 4 -65 10 -65 6 0 10 10 10 22 0 17 3
19 12 10 19 -19 33 -14 15 6 -23 25 -21 34 8 62 14 13 23 26 20 28 -3 3 -16
-5 -30 -18 l-25 -23 0 21 c0 12 -4 22 -10 22 -6 0 -10 -28 -10 -65z M271 241
c-6 -11 -11 -54 -11 -96 0 -72 -1 -75 -19 -65 -24 12 -48 4 -56 -20 -7 -23 4
-50 21 -50 12 0 12 4 2 20 -19 30 3 47 33 26 13 -9 27 -16 31 -16 4 0 9 44 10
98 3 89 5 97 23 97 17 0 21 -8 25 -60 l5 -60 45 -15 c63 -21 70 -27 70 -61 0
-31 19 -41 21 -11 4 52 -18 78 -72 87 -38 7 -39 8 -39 48 0 23 -6 53 -13 67
-16 33 -61 39 -76 11z"/>
</g>
</svg>

