<?xml version="1.0" standalone="no"?>
<!DOCTYPE svg PUBLIC "-//W3C//DTD SVG 20010904//EN"
 "http://www.w3.org/TR/2001/REC-SVG-20010904/DTD/svg10.dtd">
<svg version="1.0" xmlns="http://www.w3.org/2000/svg"
 width="48.000000pt" height="48.000000pt" viewBox="0 0 48.000000 48.000000"
 preserveAspectRatio="xMidYMid meet">
<metadata>
Created by potrace 1.16, written by Peter Selinger 2001-2019
</metadata>
<g transform="translate(0.000000,48.000000) scale(0.100000,-0.100000)"
fill="currentColor" stroke="none">
<path d="M206 455 c-11 -8 -33 -15 -48 -15 -22 0 -31 -6 -39 -27 -6 -16 -22
-37 -35 -48 -22 -18 -24 -24 -15 -48 7 -18 7 -36 1 -53 -7 -18 -7 -30 0 -39 7
-8 0 -23 -25 -52 -19 -23 -35 -46 -35 -51 0 -6 17 -14 37 -19 31 -7 38 -14 51
-51 7 -23 17 -42 22 -42 4 0 23 24 41 53 18 28 34 54 36 57 2 2 13 -1 23 -8
16 -10 24 -10 40 0 10 7 21 10 23 8 2 -3 18 -29 36 -57 18 -29 37 -53 41 -53
5 0 15 19 22 42 13 37 20 44 51 51 20 5 37 13 37 19 0 5 -16 28 -35 51 -25 29
-32 44 -25 52 7 9 7 21 0 39 -6 17 -6 35 1 53 9 24 7 30 -15 48 -13 11 -29 32
-35 48 -8 21 -17 27 -39 27 -15 0 -37 7 -48 15 -10 8 -26 14 -34 14 -8 0 -24
-6 -34 -14z m60 -20 c10 -8 31 -15 46 -15 21 0 29 -6 34 -24 3 -14 17 -32 29
-40 21 -14 23 -19 14 -45 -7 -21 -7 -36 0 -50 10 -17 7 -23 -13 -36 -13 -9
-27 -27 -30 -41 -5 -18 -13 -24 -35 -24 -16 0 -34 -7 -41 -15 -16 -19 -44 -19
-60 0 -7 8 -25 15 -41 15 -22 0 -30 6 -35 25 -3 14 -9 25 -13 25 -3 0 -14 7
-24 14 -15 12 -17 18 -7 36 8 15 9 30 1 51 -9 26 -7 31 15 45 13 9 27 27 30
40 5 18 13 24 33 24 14 0 35 7 45 15 11 8 23 15 26 15 3 0 15 -7 26 -15z
m-150 -265 c6 -29 34 -47 54 -35 16 10 12 -2 -18 -51 l-29 -45 -15 41 c-13 32
-21 40 -42 40 -32 0 -32 5 0 47 31 41 43 42 50 3z m298 -3 c32 -42 32 -47 0
-47 -21 0 -29 -8 -42 -40 l-15 -41 -29 45 c-15 25 -28 47 -28 49 0 2 10 3 23
3 16 -1 26 8 36 32 8 17 18 32 22 32 5 0 19 -15 33 -33z M222 388 c-5 -7 -11
-22 -13 -32 -4 -19 -18 -30 -51 -40 -14 -4 -18 -16 -18 -55 l0 -49 67 -8 c36
-3 78 -3 92 2 45 16 55 115 13 128 -10 3 -23 19 -29 36 -12 32 -42 40 -61 18z
m46 -37 c2 -12 14 -26 28 -31 26 -10 32 -46 14 -81 -11 -20 -57 -25 -119 -13
-27 6 -31 11 -31 40 0 26 4 33 23 36 14 2 29 17 41 41 19 41 39 44 44 8z"/>
</g>
</svg>

