<?xml version="1.0" standalone="no"?>
<!DOCTYPE svg PUBLIC "-//W3C//DTD SVG 20010904//EN"
 "http://www.w3.org/TR/2001/REC-SVG-20010904/DTD/svg10.dtd">
<svg version="1.0" xmlns="http://www.w3.org/2000/svg"
 width="48.000000pt" height="48.000000pt" viewBox="0 0 48.000000 48.000000"
 preserveAspectRatio="xMidYMid meet">
<metadata>
Created by potrace 1.16, written by Peter Selinger 2001-2019
</metadata>
<g transform="translate(0.000000,48.000000) scale(0.100000,-0.100000)"
fill="currentColor" stroke="none">
<path d="M202 470 c-18 -4 -44 -17 -56 -29 l-23 -22 -31 26 c-16 14 -32 25
-35 25 -14 0 -26 -63 -16 -82 8 -15 7 -24 -6 -37 -20 -23 -35 -74 -28 -101 4
-14 14 -20 34 -20 16 0 29 5 29 10 0 6 -9 10 -21 10 -17 0 -20 5 -17 37 3 32
9 41 41 58 21 11 43 28 49 38 8 14 16 17 41 11 18 -4 42 -13 54 -21 20 -14 26
-14 46 0 12 8 36 17 54 21 25 6 33 3 41 -11 6 -10 28 -27 49 -38 32 -17 38
-26 41 -58 3 -32 0 -37 -17 -37 -12 0 -21 -4 -21 -10 0 -5 13 -10 29 -10 20 0
30 6 34 20 7 27 -8 78 -28 101 -13 13 -14 22 -6 37 10 19 -2 82 -16 82 -3 0
-19 -11 -35 -25 l-30 -25 -30 25 c-16 14 -38 25 -48 25 -10 0 -24 2 -32 4 -7
2 -28 0 -46 -4z m99 -30 c25 -14 24 -30 -1 -30 -11 0 -29 -6 -40 -12 -16 -10
-24 -10 -40 0 -11 6 -29 12 -40 12 -25 0 -26 15 -2 29 22 14 98 14 123 1z
m-202 -51 c-5 -10 -14 -19 -19 -19 -14 0 -31 37 -24 54 5 14 8 14 30 0 19 -13
22 -20 13 -35z m321 1 c-13 -25 -26 -25 -39 -1 -9 15 -6 22 12 34 18 12 23 13
30 1 4 -8 3 -23 -3 -34z M160 305 c0 -8 7 -15 15 -15 8 0 15 7 15 15 0 8 -7
15 -15 15 -8 0 -15 -7 -15 -15z M290 305 c0 -8 7 -15 15 -15 8 0 15 7 15 15 0
8 -7 15 -15 15 -8 0 -15 -7 -15 -15z M105 193 c13 -130 54 -187 135 -187 81 0
122 57 135 187 9 82 -9 93 -20 12 -6 -52 -8 -55 -28 -49 -61 20 -92 22 -140 9
-29 -7 -53 -12 -55 -11 -1 2 -5 26 -9 55 -3 28 -10 51 -16 51 -6 0 -7 -25 -2
-67z m210 -55 c32 -14 32 -38 -1 -77 -22 -27 -32 -31 -74 -31 -42 0 -52 4 -74
31 -32 38 -33 63 -3 77 30 14 120 15 152 0z M192 99 c2 -7 10 -15 17 -17 8 -3
12 1 9 9 -2 7 -10 15 -17 17 -8 3 -12 -1 -9 -9z M265 99 c-4 -6 -5 -13 -2 -16
7 -7 27 6 27 18 0 12 -17 12 -25 -2z"/>
</g>
</svg>

