<?xml version="1.0" standalone="no"?>
<!DOCTYPE svg PUBLIC "-//W3C//DTD SVG 20010904//EN"
 "http://www.w3.org/TR/2001/REC-SVG-20010904/DTD/svg10.dtd">
<svg version="1.0" xmlns="http://www.w3.org/2000/svg"
 width="48.000000pt" height="48.000000pt" viewBox="0 0 48.000000 48.000000"
 preserveAspectRatio="xMidYMid meet">
<metadata>
Created by potrace 1.16, written by Peter Selinger 2001-2019
</metadata>
<g transform="translate(0.000000,48.000000) scale(0.100000,-0.100000)"
fill="currentColor" stroke="none">
<path d="M195 460 c-4 -6 13 -10 45 -10 32 0 49 4 45 10 -3 6 -24 10 -45 10
-21 0 -42 -4 -45 -10z M92 414 c-30 -24 -42 -45 -24 -44 4 1 22 14 40 29 42
36 28 49 -16 15z M340 435 c0 -2 20 -24 44 -49 96 -95 84 -237 -26 -316 -97
-70 -230 -41 -298 66 -30 49 -48 49 -23 0 36 -71 101 -114 187 -123 136 -14
259 111 243 248 -7 57 -44 127 -83 158 -25 20 -44 27 -44 16z M162 384 c-99
-51 -111 -211 -19 -276 41 -30 123 -36 171 -13 103 49 117 211 23 277 -41 29
-129 35 -175 12z m155 -24 c87 -52 83 -198 -6 -245 -98 -50 -211 16 -211 123
0 85 56 142 140 142 27 0 58 -8 77 -20z M192 318 c-7 -7 -12 -40 -12 -79 0
-94 12 -101 90 -53 36 22 60 44 60 54 0 10 -24 32 -59 54 -67 41 -63 40 -79
24z m74 -45 c24 -16 44 -30 44 -33 0 -8 -86 -60 -99 -60 -7 0 -11 22 -11 60 0
38 4 60 11 60 7 0 31 -12 55 -27z M15 279 c-6 -36 -2 -60 9 -48 10 11 17 89 8
89 -6 0 -13 -18 -17 -41z"/>
</g>
</svg>

