<?xml version="1.0" standalone="no"?>
<!DOCTYPE svg PUBLIC "-//W3C//DTD SVG 20010904//EN"
 "http://www.w3.org/TR/2001/REC-SVG-20010904/DTD/svg10.dtd">
<svg version="1.0" xmlns="http://www.w3.org/2000/svg"
 width="48.000000pt" height="48.000000pt" viewBox="0 0 48.000000 48.000000"
 preserveAspectRatio="xMidYMid meet">
<metadata>
Created by potrace 1.16, written by Peter Selinger 2001-2019
</metadata>
<g transform="translate(0.000000,48.000000) scale(0.100000,-0.100000)"
fill="currentColor" stroke="currentColor" stroke-width="6" stroke-linejoin="round">
<path d="M161 440 c-23 -23 -31 -43 -36 -85 -4 -30 -11 -55 -16 -55 -5 0 -18
-9 -29 -20 -18 -18 -20 -33 -20 -130 0 -152 -3 -150 180 -150 183 0 180 -2
180 150 0 97 -2 112 -20 130 -11 11 -24 20 -29 20 -5 0 -12 25 -16 55 -9 77
-47 115 -115 115 -41 0 -53 -5 -79 -30z m144 -15 c20 -19 25 -34 25 -75 l0
-50 -90 0 -90 0 0 50 c0 67 30 100 90 100 30 0 47 -6 65 -25z m85 -275 l0
-120 -150 0 -150 0 0 120 0 120 150 0 150 0 0 -120z M230 150 c0 -22 5 -40 10
-40 6 0 10 18 10 40 0 22 -4 40 -10 40 -5 0 -10 -18 -10 -40z"/>
</g>
</svg>

