<?xml version="1.0" standalone="no"?>
<!DOCTYPE svg PUBLIC "-//W3C//DTD SVG 20010904//EN"
 "http://www.w3.org/TR/2001/REC-SVG-20010904/DTD/svg10.dtd">
<svg version="1.0" xmlns="http://www.w3.org/2000/svg"
 width="48.000000pt" height="48.000000pt" viewBox="0 0 48.000000 48.000000"
 preserveAspectRatio="xMidYMid meet">
<metadata>
Created by potrace 1.16, written by Peter Selinger 2001-2019
</metadata>
<g transform="translate(0.000000,48.000000) scale(0.100000,-0.100000)"
fill="currentColor" stroke="none">
<path d="M161 440 c-23 -23 -31 -43 -37 -86 -5 -45 -11 -57 -30 -64 -29 -12
-37 -51 -33 -169 3 -56 9 -95 17 -103 19 -18 305 -18 324 0 8 8 14 47 17 103
4 118 -4 157 -33 169 -19 7 -25 19 -30 64 -10 78 -48 116 -116 116 -41 0 -53
-5 -79 -30z m144 -15 c20 -19 25 -34 25 -75 l0 -50 -90 0 -90 0 0 50 c0 67 30
100 90 100 30 0 47 -6 65 -25z m85 -275 l0 -120 -150 0 -150 0 0 120 0 120
150 0 150 0 0 -120z M160 185 c0 -8 7 -15 15 -15 8 0 15 7 15 15 0 8 -7 15
-15 15 -8 0 -15 -7 -15 -15z M223 188 c2 -7 10 -13 17 -13 7 0 15 6 18 13 2 7
-5 12 -18 12 -13 0 -20 -5 -17 -12z M290 185 c0 -8 7 -15 15 -15 8 0 15 7 15
15 0 8 -7 15 -15 15 -8 0 -15 -7 -15 -15z M160 115 c0 -8 7 -15 15 -15 8 0 15
7 15 15 0 8 -7 15 -15 15 -8 0 -15 -7 -15 -15z M227 124 c-13 -13 -7 -24 14
-24 11 0 19 5 17 12 -5 14 -22 21 -31 12z M290 115 c0 -8 7 -15 15 -15 8 0 15
7 15 15 0 8 -7 15 -15 15 -8 0 -15 -7 -15 -15z"/>
</g>
</svg>

