<?xml version="1.0" standalone="no"?>
<!DOCTYPE svg PUBLIC "-//W3C//DTD SVG 20010904//EN"
 "http://www.w3.org/TR/2001/REC-SVG-20010904/DTD/svg10.dtd">
<svg version="1.0" xmlns="http://www.w3.org/2000/svg"
 width="48.000000pt" height="48.000000pt" viewBox="0 0 48.000000 48.000000"
 preserveAspectRatio="xMidYMid meet">
<metadata>
Created by potrace 1.16, written by Peter Selinger 2001-2019
</metadata>
<g transform="translate(0.000000,48.000000) scale(0.100000,-0.100000)"
fill="currentColor" stroke="currentColor" stroke-width="6" stroke-linejoin="round">
<path d="M41 440 c-23 -23 -31 -43 -36 -84 -4 -30 -4 -59 0 -65 14 -23 25 2
25 55 0 71 28 104 90 104 60 0 90 -33 90 -100 0 -47 -2 -50 -25 -50 -14 0 -34
-9 -45 -20 -18 -18 -20 -33 -20 -130 0 -152 -3 -150 180 -150 183 0 180 -2
180 150 0 147 -3 150 -139 150 l-99 0 -7 55 c-9 77 -47 115 -115 115 -41 0
-53 -5 -79 -30z m409 -290 l0 -120 -150 0 -150 0 0 120 0 120 150 0 150 0 0
-120z M290 150 c0 -22 5 -40 10 -40 6 0 10 18 10 40 0 22 -4 40 -10 40 -5 0
-10 -18 -10 -40z"/>
</g>
</svg>

