<?xml version="1.0" standalone="no"?>
<!DOCTYPE svg PUBLIC "-//W3C//DTD SVG 20010904//EN"
 "http://www.w3.org/TR/2001/REC-SVG-20010904/DTD/svg10.dtd">
<svg version="1.0" xmlns="http://www.w3.org/2000/svg"
 width="48.000000pt" height="48.000000pt" viewBox="0 0 48.000000 48.000000"
 preserveAspectRatio="xMidYMid meet">
<metadata>
Created by potrace 1.16, written by Peter Selinger 2001-2019
</metadata>
<g transform="translate(0.000000,48.000000) scale(0.100000,-0.100000)"
fill="currentColor" stroke="none">
<path d="M162 440 c-22 -22 -32 -43 -37 -81 -4 -28 -18 -67 -31 -87 -33 -48
-34 -135 -1 -183 37 -55 81 -79 147 -79 66 0 110 24 147 79 33 48 32 135 -1
183 -13 20 -27 59 -31 87 -10 74 -49 111 -115 111 -40 0 -53 -5 -78 -30z m143
-15 c17 -16 25 -35 25 -60 0 -32 -2 -35 -19 -25 -11 5 -43 10 -71 10 -28 0
-60 -5 -71 -10 -17 -10 -19 -7 -19 25 0 51 36 85 90 85 30 0 47 -6 65 -25z
m43 -138 c36 -36 37 -40 37 -107 0 -67 -1 -71 -38 -107 -36 -37 -40 -38 -107
-38 -67 0 -71 1 -107 38 -37 36 -38 40 -38 107 0 63 3 71 30 100 41 43 60 50
128 47 52 -3 62 -7 95 -40z M202 218 c-15 -15 -15 -61 0 -76 15 -15 61 -15 76
0 15 15 15 61 0 76 -7 7 -24 12 -38 12 -14 0 -31 -5 -38 -12z m63 -38 c0 -18
-6 -26 -23 -28 -24 -4 -38 18 -28 44 3 9 15 14 28 12 17 -2 23 -10 23 -28z"/>
</g>
</svg>

