<?xml version="1.0" standalone="no"?>
<!DOCTYPE svg PUBLIC "-//W3C//DTD SVG 20010904//EN"
 "http://www.w3.org/TR/2001/REC-SVG-20010904/DTD/svg10.dtd">
<svg version="1.0" xmlns="http://www.w3.org/2000/svg"
 width="48.000000pt" height="48.000000pt" viewBox="0 0 48.000000 48.000000"
 preserveAspectRatio="xMidYMid meet">
<metadata>
Created by potrace 1.16, written by Peter Selinger 2001-2019
</metadata>
<g transform="translate(0.000000,48.000000) scale(0.100000,-0.100000)"
fill="currentColor" stroke="none">
<path d="M10 465 c-16 -19 -7 -230 11 -287 18 -57 63 -103 131 -137 76 -39
100 -39 176 0 68 34 113 80 131 137 18 57 27 268 11 287 -19 23 -441 23 -460
0z m440 -138 c0 -107 -3 -128 -22 -167 -26 -51 -91 -104 -148 -121 -76 -23
-184 35 -227 121 -20 39 -23 60 -23 167 l0 123 210 0 210 0 0 -123z M183 388
c-12 -13 -24 -38 -28 -56 -4 -18 -14 -46 -22 -63 -17 -34 -13 -113 6 -132 7
-7 47 -12 101 -12 54 0 94 5 101 12 19 19 23 98 6 132 -8 17 -18 45 -22 63
-11 49 -42 78 -85 78 -25 0 -43 -7 -57 -22z m101 -14 c9 -8 16 -29 16 -45 0
-29 0 -29 -60 -29 -60 0 -60 0 -60 29 0 37 23 61 60 61 16 0 36 -7 44 -16z
m46 -164 l0 -60 -90 0 -90 0 0 60 0 60 90 0 90 0 0 -60z M224 219 c-10 -17 13
-36 27 -22 12 12 4 33 -11 33 -5 0 -12 -5 -16 -11z"/>
</g>
</svg>

