<?xml version="1.0" standalone="no"?>
<!DOCTYPE svg PUBLIC "-//W3C//DTD SVG 20010904//EN"
 "http://www.w3.org/TR/2001/REC-SVG-20010904/DTD/svg10.dtd">
<svg version="1.0" xmlns="http://www.w3.org/2000/svg"
 width="48.000000pt" height="48.000000pt" viewBox="0 0 48.000000 48.000000"
 preserveAspectRatio="xMidYMid meet">
<metadata>
Created by potrace 1.16, written by Peter Selinger 2001-2019
</metadata>
<g transform="translate(0.000000,48.000000) scale(0.100000,-0.100000)"
fill="currentColor" stroke="currentColor" stroke-width="6" stroke-linejoin="round">
<path d="M142 458 c-6 -6 -12 -18 -12 -25 0 -6 -20 -21 -44 -32 -44 -19 -71
-54 -76 -96 -6 -57 1 -79 40 -116 35 -33 40 -44 40 -83 0 -66 14 -96 45 -96
31 0 45 31 45 100 0 38 4 52 19 60 60 31 80 121 43 185 l-21 35 40 0 c32 0 47
-7 71 -30 28 -29 30 -35 25 -88 l-5 -57 50 -52 c37 -37 49 -56 44 -69 -6 -15
-16 -8 -65 40 -50 49 -61 56 -84 50 -39 -9 -45 -26 -9 -23 25 3 40 -6 86 -49
48 -46 59 -51 76 -42 33 18 24 52 -28 103 -47 47 -49 50 -44 96 7 79 -41 141
-112 141 -17 0 -29 8 -38 28 -15 30 -64 42 -86 20z m66 -37 c3 -21 1 -23 -25
-16 -35 8 -37 10 -29 30 9 25 50 15 54 -14z m-88 -59 c0 -15 -5 -33 -11 -39
-6 -6 -9 -21 -7 -34 2 -19 9 -24 33 -24 24 0 31 5 33 24 2 13 -1 28 -7 34 -6
6 -11 24 -11 39 0 37 23 37 61 -1 52 -53 36 -141 -32 -176 -28 -15 -29 -18
-29 -85 0 -56 -3 -70 -15 -70 -12 0 -15 14 -15 70 0 67 -1 70 -29 85 -42 21
-61 53 -61 103 0 35 6 49 29 73 38 38 61 38 61 1z m30 -62 c0 -11 -7 -20 -15
-20 -8 0 -15 9 -15 20 0 11 7 20 15 20 8 0 15 -9 15 -20z"/>
</g>
</svg>

