<?xml version="1.0" standalone="no"?>
<!DOCTYPE svg PUBLIC "-//W3C//DTD SVG 20010904//EN"
 "http://www.w3.org/TR/2001/REC-SVG-20010904/DTD/svg10.dtd">
<svg version="1.0" xmlns="http://www.w3.org/2000/svg"
 width="48.000000pt" height="48.000000pt" viewBox="0 0 48.000000 48.000000"
 preserveAspectRatio="xMidYMid meet">
<metadata>
Created by potrace 1.16, written by Peter Selinger 2001-2019
</metadata>
<g transform="translate(0.000000,48.000000) scale(0.100000,-0.100000)"
fill="currentColor" stroke="currentColor" stroke-width="6" stroke-linejoin="round">
<path d="M63 470 c-31 -13 -35 -47 -31 -257 2 -133 7 -186 16 -195 15 -15 135
-18 142 -3 3 6 -22 11 -62 13 l-68 3 0 209 0 210 120 0 119 0 3 -62 c2 -36 7
-62 13 -60 15 4 12 119 -3 134 -16 16 -216 22 -249 8z M320 257 c-25 -13 -30
-19 -61 -91 -23 -53 -22 -127 0 -149 16 -16 156 -16 172 0 22 22 23 96 0 146
-12 25 -21 50 -21 55 0 11 -30 37 -51 45 -9 3 -26 0 -39 -6z m58 -29 c7 -7 12
-20 12 -30 0 -15 -8 -18 -45 -18 -37 0 -45 3 -45 18 0 24 19 42 45 42 12 0 26
-5 33 -12z m42 -138 l0 -60 -75 0 -75 0 0 60 0 60 75 0 75 0 0 -60z M335 100
c-4 -6 -3 -16 3 -22 6 -6 12 -6 17 2 4 6 3 16 -3 22 -6 6 -12 6 -17 -2z M115
250 c-7 -12 2 -30 16 -30 5 0 9 9 9 20 0 21 -15 27 -25 10z"/>
</g>
</svg>

