<?xml version="1.0" standalone="no"?>
<!DOCTYPE svg PUBLIC "-//W3C//DTD SVG 20010904//EN"
 "http://www.w3.org/TR/2001/REC-SVG-20010904/DTD/svg10.dtd">
<svg version="1.0" xmlns="http://www.w3.org/2000/svg"
 width="48.000000pt" height="48.000000pt" viewBox="0 0 48.000000 48.000000"
 preserveAspectRatio="xMidYMid meet">
<metadata>
Created by potrace 1.16, written by Peter Selinger 2001-2019
</metadata>
<g transform="translate(0.000000,48.000000) scale(0.100000,-0.100000)"
fill="currentColor" stroke="currentColor" stroke-width="6" stroke-linejoin="round">
<path d="M152 447 c-18 -7 -48 -25 -67 -40 -101 -80 -102 -246 -4 -331 90 -77
210 -73 296 10 24 22 43 49 43 60 0 14 -10 7 -40 -27 -90 -105 -229 -103 -314
4 -29 36 -31 45 -31 117 0 72 2 81 31 117 84 105 228 109 312 7 34 -41 55 -41
29 0 -51 78 -166 115 -255 83z M175 280 l-39 -40 41 -42 c47 -47 73 -45 28 2
l-29 30 147 0 c91 0 147 4 147 10 0 6 -56 10 -147 10 l-147 0 27 28 c15 15 27
31 27 35 0 16 -18 5 -55 -33z"/>
</g>
</svg>

