<?xml version="1.0" standalone="no"?>
<!DOCTYPE svg PUBLIC "-//W3C//DTD SVG 20010904//EN"
 "http://www.w3.org/TR/2001/REC-SVG-20010904/DTD/svg10.dtd">
<svg version="1.0" xmlns="http://www.w3.org/2000/svg"
 width="48.000000pt" height="48.000000pt" viewBox="0 0 48.000000 48.000000"
 preserveAspectRatio="xMidYMid meet">
<metadata>
Created by potrace 1.16, written by Peter Selinger 2001-2019
</metadata>
<g transform="translate(0.000000,48.000000) scale(0.100000,-0.100000)"
fill="currentColor" stroke="none">
<path d="M384 460 c-16 -10 -67 -57 -114 -104 -75 -76 -88 -86 -112 -81 -41 9
-113 -26 -134 -66 -63 -123 62 -248 185 -185 39 21 76 94 66 133 -8 35 26 72
60 65 35 -6 57 15 53 52 -3 29 -1 31 25 28 15 -2 34 1 41 8 17 14 19 135 3
148 -25 19 -45 20 -73 2z m61 -75 l0 -60 -32 2 c-36 3 -48 -9 -48 -52 0 -27
-3 -30 -30 -28 -21 2 -38 -6 -58 -25 -23 -22 -27 -33 -22 -59 7 -39 -15 -95
-46 -117 -14 -9 -43 -16 -70 -16 -40 0 -53 5 -78 31 -26 25 -31 38 -31 78 0
27 7 56 16 70 22 31 74 51 115 45 32 -5 40 0 134 96 80 81 105 100 125 98 24
-3 25 -6 25 -63z M92 158 c-7 -7 -12 -21 -12 -33 0 -40 50 -61 78 -33 28 28 7
78 -33 78 -12 0 -26 -5 -33 -12z m53 -33 c0 -13 -8 -21 -22 -23 -17 -3 -23 2
-23 16 0 10 3 22 7 26 13 13 38 1 38 -19z"/>
</g>
</svg>

