<?xml version="1.0" standalone="no"?>
<!DOCTYPE svg PUBLIC "-//W3C//DTD SVG 20010904//EN"
 "http://www.w3.org/TR/2001/REC-SVG-20010904/DTD/svg10.dtd">
<svg version="1.0" xmlns="http://www.w3.org/2000/svg"
 width="48.000000pt" height="48.000000pt" viewBox="0 0 48.000000 48.000000"
 preserveAspectRatio="xMidYMid meet">
<metadata>
Created by potrace 1.16, written by Peter Selinger 2001-2019
</metadata>
<g transform="translate(0.000000,48.000000) scale(0.100000,-0.100000)"
fill="currentColor" stroke="none">
<path d="M185 448 c-39 -14 -91 -53 -112 -84 -26 -41 -5 -41 29 0 84 102 228
98 312 -7 29 -36 31 -45 31 -117 0 -72 -2 -81 -31 -117 -85 -107 -224 -109
-314 -4 -30 34 -40 41 -40 27 0 -11 19 -38 43 -60 43 -41 100 -66 152 -66 79
0 164 54 196 124 25 56 25 145 -1 195 -48 95 -167 143 -265 109z M250 313 c0
-4 12 -20 27 -35 l27 -28 -147 0 c-91 0 -147 -4 -147 -10 0 -6 56 -10 147 -10
l147 0 -29 -30 c-45 -47 -19 -49 28 -2 l41 42 -39 40 c-37 38 -55 49 -55 33z"/>
</g>
</svg>

