<?xml version="1.0" standalone="no"?>
<!DOCTYPE svg PUBLIC "-//W3C//DTD SVG 20010904//EN"
 "http://www.w3.org/TR/2001/REC-SVG-20010904/DTD/svg10.dtd">
<svg version="1.0" xmlns="http://www.w3.org/2000/svg"
 width="48.000000pt" height="48.000000pt" viewBox="0 0 48.000000 48.000000"
 preserveAspectRatio="xMidYMid meet">
<metadata>
Created by potrace 1.16, written by Peter Selinger 2001-2019
</metadata>
<g transform="translate(0.000000,48.000000) scale(0.100000,-0.100000)"
fill="currentColor" stroke="currentColor" stroke-width="6" stroke-linejoin="round">
<path d="M149 447 c-40 -27 -79 -82 -79 -111 0 -13 -12 -27 -29 -37 -20 -12
-30 -27 -35 -53 -15 -77 16 -136 70 -136 50 0 54 7 54 100 0 80 -2 89 -20 95
-25 8 -25 31 0 73 59 96 201 96 260 0 25 -42 25 -65 0 -73 -18 -6 -20 -15 -20
-95 0 -80 2 -89 20 -95 23 -7 26 -25 8 -43 -16 -16 -75 -15 -80 1 -7 18 -106
16 -118 -3 -12 -19 -12 -31 0 -50 11 -18 107 -21 118 -4 4 6 22 14 41 18 38 7
71 32 71 52 0 7 13 22 29 33 53 38 53 149 0 180 -17 10 -29 24 -29 37 0 29
-39 84 -79 111 -47 32 -135 32 -182 0z m-39 -237 l0 -80 -28 0 c-41 0 -52 17
-52 82 0 61 12 77 58 78 21 0 22 -4 22 -80z m321 70 c15 -9 19 -22 19 -68 0
-65 -11 -82 -52 -82 l-28 0 0 80 c0 74 2 80 21 80 11 0 29 -5 40 -10z m-141
-235 c0 -11 -12 -15 -50 -15 -38 0 -50 4 -50 15 0 11 12 15 50 15 38 0 50 -4
50 -15z"/>
</g>
</svg>

