<?xml version="1.0" standalone="no"?>
<!DOCTYPE svg PUBLIC "-//W3C//DTD SVG 20010904//EN"
 "http://www.w3.org/TR/2001/REC-SVG-20010904/DTD/svg10.dtd">
<svg version="1.0" xmlns="http://www.w3.org/2000/svg"
 width="48.000000pt" height="48.000000pt" viewBox="0 0 48.000000 48.000000"
 preserveAspectRatio="xMidYMid meet">
<metadata>
Created by potrace 1.16, written by Peter Selinger 2001-2019
</metadata>
<g transform="translate(0.000000,48.000000) scale(0.100000,-0.100000)"
fill="currentColor" stroke="none">
<path d="M327 383 c-58 -30 -82 -36 -168 -43 -119 -9 -149 -28 -149 -90 0 -45
30 -76 81 -85 30 -6 38 -12 42 -34 7 -32 42 -79 52 -69 4 4 -2 19 -14 34 -11
15 -21 36 -21 47 0 18 5 19 56 14 34 -4 82 -19 127 -41 39 -20 75 -32 79 -28
12 12 5 325 -7 327 -5 2 -41 -13 -78 -32z m63 -132 l0 -140 -64 30 c-36 17
-90 33 -120 36 l-56 6 0 67 0 67 55 6 c31 3 84 19 118 36 34 16 63 30 65 30 1
1 2 -62 2 -138z m-270 -1 c0 -60 0 -60 -29 -60 -37 0 -61 23 -61 60 0 37 24
60 61 60 29 0 29 0 29 -60z M455 277 c-9 -22 -2 -62 10 -60 6 1 11 14 13 29 4
32 -14 56 -23 31z"/>
</g>
</svg>

