<?xml version="1.0" standalone="no"?>
<!DOCTYPE svg PUBLIC "-//W3C//DTD SVG 20010904//EN"
 "http://www.w3.org/TR/2001/REC-SVG-20010904/DTD/svg10.dtd">
<svg version="1.0" xmlns="http://www.w3.org/2000/svg"
 width="48.000000pt" height="48.000000pt" viewBox="0 0 48.000000 48.000000"
 preserveAspectRatio="xMidYMid meet">
<metadata>
Created by potrace 1.16, written by Peter Selinger 2001-2019
</metadata>
<g transform="translate(0.000000,48.000000) scale(0.100000,-0.100000)"
fill="currentColor" stroke="none">
<path d="M200 467 c-49 -17 -60 -46 -60 -160 0 -96 1 -99 29 -128 41 -41 101
-41 142 0 28 29 29 32 29 136 0 99 -2 107 -25 130 -13 14 -31 25 -39 25 -8 0
-20 2 -28 4 -7 3 -29 0 -48 -7z m104 -39 c12 -16 16 -47 16 -111 0 -84 -10
-123 -34 -139 -27 -19 -99 -2 -118 26 -4 6 -8 54 -8 106 0 122 10 140 80 140
39 0 52 -4 64 -22z M70 250 c0 -81 54 -152 125 -166 32 -6 35 -9 35 -40 0 -19
5 -34 10 -34 6 0 10 15 10 34 0 31 3 34 35 40 43 8 94 50 111 93 16 38 19 113
4 113 -5 0 -10 -19 -10 -42 0 -83 -66 -148 -150 -148 -84 0 -150 65 -150 148
0 23 -4 42 -10 42 -5 0 -10 -18 -10 -40z"/>
</g>
</svg>

