<?xml version="1.0" standalone="no"?>
<!DOCTYPE svg PUBLIC "-//W3C//DTD SVG 20010904//EN"
 "http://www.w3.org/TR/2001/REC-SVG-20010904/DTD/svg10.dtd">
<svg version="1.0" xmlns="http://www.w3.org/2000/svg"
 width="48.000000pt" height="48.000000pt" viewBox="0 0 48.000000 48.000000"
 preserveAspectRatio="xMidYMid meet">
<metadata>
Created by potrace 1.16, written by Peter Selinger 2001-2019
</metadata>
<g transform="translate(0.000000,48.000000) scale(0.100000,-0.100000)"
fill="currentColor" stroke="currentColor" stroke-width="6" stroke-linejoin="round">
<path d="M54 429 c-17 -19 -19 -37 -19 -159 0 -172 2 -175 141 -214 51 -14
105 -26 119 -26 28 0 45 25 45 69 0 24 4 31 20 31 71 0 94 49 88 186 -6 137
-1 134 -208 134 -157 0 -168 -1 -186 -21z m354 -11 c7 -7 12 -36 12 -65 l0
-53 -37 0 c-32 1 -41 6 -58 33 -18 28 -33 36 -130 64 l-110 32 155 0 c109 1
160 -3 168 -11z m-228 -38 c140 -40 140 -39 140 -196 0 -102 -3 -126 -15 -130
-26 -10 -207 39 -230 62 -12 12 -15 44 -15 155 0 76 3 139 8 139 4 0 54 -13
112 -30z m240 -155 c0 -58 -14 -75 -59 -75 -19 0 -21 6 -21 65 l0 65 40 0 40
0 0 -55z M235 220 c-7 -12 2 -30 16 -30 5 0 9 9 9 20 0 21 -15 27 -25 10z"/>
</g>
</svg>

