<?xml version="1.0" standalone="no"?>
<!DOCTYPE svg PUBLIC "-//W3C//DTD SVG 20010904//EN"
 "http://www.w3.org/TR/2001/REC-SVG-20010904/DTD/svg10.dtd">
<svg version="1.0" xmlns="http://www.w3.org/2000/svg"
 width="48.000000pt" height="48.000000pt" viewBox="0 0 48.000000 48.000000"
 preserveAspectRatio="xMidYMid meet">
<metadata>
Created by potrace 1.16, written by Peter Selinger 2001-2019
</metadata>
<g transform="translate(0.000000,48.000000) scale(0.100000,-0.100000)"
fill="currentColor" stroke="none">
<path d="M151 402 c-159 -79 -155 -73 -149 -246 5 -150 -2 -146 222 -146 192
0 209 5 220 64 4 19 12 36 19 39 17 5 17 139 0 144 -7 3 -15 20 -19 40 -5 24
-16 40 -37 53 -16 10 -42 40 -56 67 -16 30 -33 49 -46 50 -11 1 -80 -28 -154
-65z m187 0 l23 -42 -118 1 -118 0 85 44 c47 24 90 43 95 41 6 -1 20 -21 33
-44z m70 -74 c7 -7 12 -22 12 -35 0 -21 -5 -23 -44 -23 -90 0 -131 -86 -71
-145 18 -19 35 -25 70 -25 40 0 45 -2 45 -23 0 -13 -5 -28 -12 -35 -17 -17
-349 -17 -366 0 -17 17 -17 269 0 286 17 17 349 17 366 0z m42 -143 l0 -65
-53 0 c-68 0 -97 19 -97 65 0 46 29 65 97 65 l53 0 0 -65z M345 191 c-7 -12
12 -24 25 -16 11 7 4 25 -10 25 -5 0 -11 -4 -15 -9z"/>
</g>
</svg>

