<?xml version="1.0" standalone="no"?>
<!DOCTYPE svg PUBLIC "-//W3C//DTD SVG 20010904//EN"
 "http://www.w3.org/TR/2001/REC-SVG-20010904/DTD/svg10.dtd">
<svg version="1.0" xmlns="http://www.w3.org/2000/svg"
 width="48.000000pt" height="48.000000pt" viewBox="0 0 48.000000 48.000000"
 preserveAspectRatio="xMidYMid meet">
<metadata>
Created by potrace 1.16, written by Peter Selinger 2001-2019
</metadata>
<g transform="translate(0.000000,48.000000) scale(0.100000,-0.100000)"
fill="currentColor" stroke="currentColor" stroke-width="6" stroke-linejoin="round">
<path d="M134 459 c-7 -12 25 -89 38 -89 11 0 10 11 -7 40 -20 36 -18 41 11
28 20 -9 30 -9 45 0 15 10 23 10 38 0 15 -9 25 -9 45 0 30 14 31 11 10 -29
-18 -36 -9 -53 12 -24 38 52 26 98 -21 77 -20 -9 -30 -9 -45 0 -16 10 -24 10
-40 0 -15 -9 -26 -10 -40 -2 -24 13 -37 13 -46 -1z M135 320 c-3 -5 0 -13 8
-15 24 -10 212 -1 212 10 0 14 -211 19 -220 5z M112 247 c-97 -100 -59 -226
72 -242 83 -11 161 2 195 31 64 54 62 133 -4 208 -44 49 -58 40 -18 -11 17
-21 36 -49 42 -62 19 -34 5 -86 -30 -115 -28 -24 -38 -26 -131 -26 -97 0 -100
1 -129 29 -24 24 -29 38 -29 75 0 39 6 52 36 86 45 49 41 73 -4 27z M230 240
c0 -5 -6 -10 -14 -10 -15 0 -27 -32 -17 -47 3 -6 21 -18 39 -27 40 -21 41 -36
3 -36 -37 0 -48 -16 -22 -30 24 -12 58 4 67 32 7 25 -2 36 -42 53 -38 16 -37
35 1 35 32 0 40 16 16 29 -25 14 -31 14 -31 1z"/>
</g>
</svg>

