<?xml version="1.0" standalone="no"?>
<!DOCTYPE svg PUBLIC "-//W3C//DTD SVG 20010904//EN"
 "http://www.w3.org/TR/2001/REC-SVG-20010904/DTD/svg10.dtd">
<svg version="1.0" xmlns="http://www.w3.org/2000/svg"
 width="48.000000pt" height="48.000000pt" viewBox="0 0 48.000000 48.000000"
 preserveAspectRatio="xMidYMid meet">
<metadata>
Created by potrace 1.16, written by Peter Selinger 2001-2019
</metadata>
<g transform="translate(0.000000,48.000000) scale(0.100000,-0.100000)"
fill="currentColor" stroke="none">
<path d="M48 469 c-16 -6 -31 -22 -37 -41 -14 -40 -14 -246 0 -286 12 -36 49
-52 120 -52 40 0 49 -3 49 -17 0 -23 -11 -38 -33 -46 -41 -15 0 -27 93 -27 93
0 134 12 93 27 -22 8 -33 23 -33 46 0 14 9 17 49 17 71 0 108 16 120 52 14 40
14 246 0 286 -7 20 -21 34 -41 41 -38 14 -343 13 -380 0z m397 -184 l0 -160
-205 0 -205 0 -3 150 c-1 82 0 155 2 162 4 11 48 13 208 11 l203 -3 0 -160z
m-163 -225 c4 -30 4 -30 -42 -30 -46 0 -46 0 -42 30 4 27 8 30 42 30 34 0 38
-3 42 -30z M282 378 c-7 -7 -12 -20 -12 -30 0 -14 -8 -18 -33 -18 -37 0 -57
-15 -57 -42 0 -13 -8 -18 -29 -18 -29 0 -30 2 -33 53 -2 28 -7 52 -13 52 -15
0 -19 -164 -4 -181 15 -19 259 -20 277 -2 7 7 12 43 12 93 0 92 -7 105 -60
105 -20 0 -41 -5 -48 -12z m78 -93 l0 -75 -30 0 -30 0 0 75 0 75 30 0 30 0 0
-75z m-90 -30 c0 -43 -1 -45 -30 -45 -29 0 -30 2 -30 45 0 43 1 45 30 45 29 0
30 -2 30 -45z m-90 -30 c0 -10 -10 -15 -30 -15 -20 0 -30 5 -30 15 0 10 10 15
30 15 20 0 30 -5 30 -15z"/>
</g>
</svg>

