<?xml version="1.0" standalone="no"?>
<!DOCTYPE svg PUBLIC "-//W3C//DTD SVG 20010904//EN"
 "http://www.w3.org/TR/2001/REC-SVG-20010904/DTD/svg10.dtd">
<svg version="1.0" xmlns="http://www.w3.org/2000/svg"
 width="48.000000pt" height="48.000000pt" viewBox="0 0 48.000000 48.000000"
 preserveAspectRatio="xMidYMid meet">
<metadata>
Created by potrace 1.16, written by Peter Selinger 2001-2019
</metadata>
<g transform="translate(0.000000,48.000000) scale(0.100000,-0.100000)"
fill="currentColor" stroke="none">
<path d="M48 469 c-16 -6 -31 -22 -37 -41 -14 -40 -14 -246 0 -286 12 -36 49
-52 120 -52 40 0 49 -3 49 -17 0 -23 -11 -38 -33 -46 -41 -15 0 -27 93 -27 93
0 134 12 93 27 -22 8 -33 23 -33 46 0 14 9 17 49 17 71 0 108 16 120 52 14 40
14 246 0 286 -7 20 -21 34 -41 41 -38 14 -343 13 -380 0z m397 -184 l0 -160
-205 0 -205 0 -3 150 c-1 82 0 155 2 162 4 11 48 13 208 11 l203 -3 0 -160z
m-163 -225 c4 -30 4 -30 -42 -30 -46 0 -46 0 -42 30 4 27 8 30 42 30 34 0 38
-3 42 -30z M143 382 c-12 -2 -33 -14 -46 -28 -41 -41 -42 -97 -1 -138 41 -40
97 -40 138 0 69 70 9 181 -91 166z m7 -57 c0 -24 9 -45 30 -68 34 -39 31 -47
-17 -47 -44 0 -73 30 -73 75 0 22 8 43 20 55 29 29 40 25 40 -15z m70 15 c19
-19 28 -79 13 -93 -3 -4 -17 3 -30 15 -16 15 -23 33 -23 60 0 43 11 47 40 18z
M315 351 c-7 -13 17 -24 40 -19 9 1 16 8 16 13 0 14 -48 19 -56 6z M315 291
c-7 -13 17 -24 40 -19 9 1 16 8 16 13 0 14 -48 19 -56 6z M315 231 c-7 -13 17
-24 40 -19 9 1 16 8 16 13 0 14 -48 19 -56 6z"/>
</g>
</svg>

