<?xml version="1.0" standalone="no"?>
<!DOCTYPE svg PUBLIC "-//W3C//DTD SVG 20010904//EN"
 "http://www.w3.org/TR/2001/REC-SVG-20010904/DTD/svg10.dtd">
<svg version="1.0" xmlns="http://www.w3.org/2000/svg"
 width="48.000000pt" height="48.000000pt" viewBox="0 0 48.000000 48.000000"
 preserveAspectRatio="xMidYMid meet">
<metadata>
Created by potrace 1.16, written by Peter Selinger 2001-2019
</metadata>
<g transform="translate(0.000000,48.000000) scale(0.100000,-0.100000)"
fill="currentColor" stroke="none">
<path d="M29 441 c-23 -18 -24 -25 -24 -141 0 -155 4 -160 136 -160 81 0 89
-2 89 -19 0 -13 -10 -21 -34 -25 -39 -8 -86 -41 -86 -62 0 -11 24 -14 130 -14
106 0 130 3 130 14 0 21 -47 54 -86 62 -24 4 -34 12 -34 25 0 17 8 19 89 19
132 0 136 5 136 160 0 167 11 160 -235 160 -170 0 -190 -2 -211 -19z m409 -13
c17 -17 17 -239 0 -256 -17 -17 -379 -17 -396 0 -17 17 -17 239 0 256 17 17
379 17 396 0z m-111 -371 c16 -16 11 -17 -85 -17 -102 0 -121 8 -68 31 34 14
134 5 153 -14z"/>
</g>
</svg>

