<?xml version="1.0" standalone="no"?>
<!DOCTYPE svg PUBLIC "-//W3C//DTD SVG 20010904//EN"
 "http://www.w3.org/TR/2001/REC-SVG-20010904/DTD/svg10.dtd">
<svg version="1.0" xmlns="http://www.w3.org/2000/svg"
 width="48.000000pt" height="48.000000pt" viewBox="0 0 48.000000 48.000000"
 preserveAspectRatio="xMidYMid meet">
<metadata>
Created by potrace 1.16, written by Peter Selinger 2001-2019
</metadata>
<g transform="translate(0.000000,48.000000) scale(0.100000,-0.100000)"
fill="currentColor" stroke="none">
<path d="M179 470 c-58 -10 -80 -22 -112 -60 -49 -58 -61 -221 -22 -304 10
-21 36 -50 58 -64 37 -25 49 -27 137 -27 88 0 100 2 137 27 49 32 74 83 80
162 11 128 -34 231 -110 255 -50 15 -118 20 -168 11z m188 -46 c54 -40 68 -79
68 -184 0 -107 -17 -150 -70 -182 l-30 -17 1 62 c0 44 7 75 22 104 32 61 30
132 -4 167 -29 28 -63 33 -94 14 -16 -10 -24 -10 -40 0 -31 19 -65 14 -94 -14
-34 -35 -36 -106 -4 -167 15 -29 22 -60 22 -104 l1 -62 -30 17 c-59 35 -85
121 -71 236 9 66 39 114 86 139 51 26 197 21 237 -9z m-127 -56 c14 0 37 3 52
7 66 17 90 -80 42 -171 -15 -27 -24 -58 -21 -71 6 -30 -17 -43 -73 -43 -56 0
-79 13 -73 43 3 13 -6 44 -21 71 -48 91 -24 188 42 171 15 -4 38 -7 52 -7z
m-14 -303 c6 -2 29 0 50 5 48 11 56 4 25 -21 -28 -23 -88 -25 -119 -3 -42 29
-21 39 44 19z M170 275 c0 -8 7 -15 15 -15 8 0 15 7 15 15 0 8 -7 15 -15 15
-8 0 -15 -7 -15 -15z M280 275 c0 -8 7 -15 15 -15 8 0 15 7 15 15 0 8 -7 15
-15 15 -8 0 -15 -7 -15 -15z M230 190 c0 -16 5 -30 10 -30 6 0 10 14 10 30 0
17 -4 30 -10 30 -5 0 -10 -13 -10 -30z"/>
</g>
</svg>

