<?xml version="1.0" standalone="no"?>
<!DOCTYPE svg PUBLIC "-//W3C//DTD SVG 20010904//EN"
 "http://www.w3.org/TR/2001/REC-SVG-20010904/DTD/svg10.dtd">
<svg version="1.0" xmlns="http://www.w3.org/2000/svg"
 width="48.000000pt" height="48.000000pt" viewBox="0 0 48.000000 48.000000"
 preserveAspectRatio="xMidYMid meet">
<metadata>
Created by potrace 1.16, written by Peter Selinger 2001-2019
</metadata>
<g transform="translate(0.000000,48.000000) scale(0.100000,-0.100000)"
fill="currentColor" stroke="none">
<path d="M353 472 c-28 -4 -73 -49 -73 -73 0 -15 -8 -19 -40 -19 -32 0 -40 4
-40 19 0 10 -12 30 -26 45 -21 20 -37 26 -69 26 -106 0 -136 -139 -39 -185 26
-12 32 -21 32 -43 -1 -15 2 -37 6 -49 6 -18 1 -23 -31 -33 -52 -17 -69 -35
-23 -25 91 20 106 8 60 -50 -40 -50 -28 -61 14 -12 l32 38 29 -51 c41 -68 69
-68 110 0 l29 51 32 -38 c42 -49 54 -38 14 12 -46 58 -31 70 60 50 46 -10 29
8 -23 25 -27 8 -37 16 -33 27 3 8 6 30 6 48 0 29 5 37 34 50 107 51 57 205
-61 187z m-199 -35 c10 -7 21 -28 25 -47 7 -34 7 -34 61 -34 54 0 54 0 61 34
9 41 32 60 76 60 43 0 73 -30 73 -73 0 -42 -17 -65 -55 -75 -27 -8 -30 -13
-35 -58 -4 -32 -18 -69 -42 -109 -36 -59 -37 -60 -79 -59 -41 1 -44 3 -81 64
-28 47 -38 75 -38 106 0 40 -2 43 -35 54 -19 6 -40 20 -45 30 -16 31 -12 78
10 100 23 23 77 27 104 7z m106 -392 c0 -8 -9 -15 -20 -15 -11 0 -20 7 -20 15
0 8 9 15 20 15 11 0 20 -7 20 -15z M170 275 c0 -8 7 -15 15 -15 8 0 15 7 15
15 0 8 -7 15 -15 15 -8 0 -15 -7 -15 -15z M280 275 c0 -8 7 -15 15 -15 8 0 15
7 15 15 0 8 -7 15 -15 15 -8 0 -15 -7 -15 -15z"/>
</g>
</svg>

