<?xml version="1.0" standalone="no"?>
<!DOCTYPE svg PUBLIC "-//W3C//DTD SVG 20010904//EN"
 "http://www.w3.org/TR/2001/REC-SVG-20010904/DTD/svg10.dtd">
<svg version="1.0" xmlns="http://www.w3.org/2000/svg"
 width="48.000000pt" height="48.000000pt" viewBox="0 0 48.000000 48.000000"
 preserveAspectRatio="xMidYMid meet">
<metadata>
Created by potrace 1.16, written by Peter Selinger 2001-2019
</metadata>
<g transform="translate(0.000000,48.000000) scale(0.100000,-0.100000)"
fill="currentColor" stroke="currentColor" stroke-width="6" stroke-linejoin="round">
<path d="M83 472 c-12 -2 -33 -15 -47 -29 -35 -35 -36 -100 -3 -134 20 -21 23
-33 22 -104 -1 -74 -3 -80 -23 -83 -12 -2 -22 -8 -22 -14 0 -7 13 -8 35 -5 28
5 38 2 50 -16 13 -19 13 -23 -7 -44 -28 -30 -15 -43 16 -14 l24 22 33 -20 c45
-27 113 -27 158 0 l33 20 24 -22 c31 -29 44 -16 16 14 -20 21 -20 25 -7 44 12
18 22 21 50 16 22 -3 35 -2 35 5 0 6 -10 12 -22 14 -22 3 -23 8 -23 83 -1 70
2 83 22 104 17 17 23 36 23 66 0 107 -139 136 -185 39 -13 -27 -22 -34 -45
-34 -23 0 -32 7 -45 34 -20 42 -65 66 -112 58z m77 -42 c23 -23 27 -60 6 -60
-18 0 -63 -36 -55 -45 4 -3 22 3 40 14 46 28 132 28 178 0 18 -11 36 -17 40
-14 8 9 -37 45 -55 45 -21 0 -17 37 6 60 12 12 33 20 55 20 22 0 43 -8 55 -20
38 -38 19 -115 -31 -132 -11 -4 -12 -10 -1 -32 18 -40 15 -84 -9 -134 -34 -69
-139 -133 -139 -84 0 9 9 23 21 30 13 8 19 21 17 35 -3 19 -9 22 -48 22 -39 0
-45 -3 -48 -22 -2 -14 4 -27 17 -35 12 -7 21 -21 21 -30 0 -49 -105 15 -139
84 -24 50 -27 94 -9 134 11 22 10 28 -1 32 -29 10 -51 43 -51 77 0 46 29 75
75 75 22 0 43 -8 55 -20z m108 -322 c-6 -17 -50 -17 -55 0 -3 8 6 12 27 12 21
0 30 -4 28 -12z M140 205 c0 -8 7 -15 15 -15 8 0 15 7 15 15 0 8 -7 15 -15 15
-8 0 -15 -7 -15 -15z M310 205 c0 -8 7 -15 15 -15 8 0 15 7 15 15 0 8 -7 15
-15 15 -8 0 -15 -7 -15 -15z"/>
</g>
</svg>

