<?xml version="1.0" standalone="no"?>
<!DOCTYPE svg PUBLIC "-//W3C//DTD SVG 20010904//EN"
 "http://www.w3.org/TR/2001/REC-SVG-20010904/DTD/svg10.dtd">
<svg version="1.0" xmlns="http://www.w3.org/2000/svg"
 width="48.000000pt" height="48.000000pt" viewBox="0 0 48.000000 48.000000"
 preserveAspectRatio="xMidYMid meet">
<metadata>
Created by potrace 1.16, written by Peter Selinger 2001-2019
</metadata>
<g transform="translate(0.000000,48.000000) scale(0.100000,-0.100000)"
fill="currentColor" stroke="currentColor" stroke-width="6" stroke-linejoin="round">
<path d="M186 448 c-36 -51 -7 -108 54 -108 29 0 43 6 54 22 36 51 7 108 -54
108 -29 0 -43 -6 -54 -22z m92 -10 c7 -7 12 -21 12 -33 0 -28 -19 -45 -50 -45
-31 0 -50 17 -50 45 0 28 19 45 50 45 14 0 31 -5 38 -12z M52 398 c-15 -15
-15 -61 0 -76 7 -7 24 -12 38 -12 33 0 50 17 50 50 0 33 -17 50 -50 50 -14 0
-31 -5 -38 -12z m63 -38 c0 -18 -6 -26 -23 -28 -13 -2 -25 3 -28 12 -10 26 4
48 28 44 17 -2 23 -10 23 -28z M352 398 c-7 -7 -12 -24 -12 -38 0 -33 17 -50
50 -50 14 0 31 5 38 12 7 7 12 24 12 38 0 33 -17 50 -50 50 -14 0 -31 -5 -38
-12z m63 -38 c0 -18 -6 -26 -23 -28 -13 -2 -25 3 -28 12 -10 26 4 48 28 44 17
-2 23 -10 23 -28z M183 298 c-12 -13 -24 -39 -28 -59 -5 -30 -3 -39 12 -50 13
-9 22 -31 26 -62 9 -62 12 -67 47 -67 35 0 38 5 47 67 4 31 13 53 26 62 15 11
17 20 12 50 -9 52 -40 81 -85 81 -25 0 -43 -7 -57 -22z m101 -14 c20 -20 21
-68 1 -84 -8 -7 -15 -24 -15 -39 0 -44 -11 -71 -30 -71 -19 0 -30 27 -30 71 0
15 -7 32 -15 39 -20 16 -19 64 1 84 8 9 28 16 44 16 16 0 36 -7 44 -16z M75
292 c-51 -10 -88 -81 -56 -105 9 -7 21 -30 26 -52 9 -35 14 -40 43 -43 27 -3
34 1 42 23 12 33 13 45 1 45 -5 0 -13 -9 -16 -20 -3 -11 -15 -20 -25 -20 -20
0 -30 19 -30 55 0 12 -7 25 -15 29 -37 14 -2 66 46 66 16 0 29 4 29 9 0 12
-21 18 -45 13z M372 292 c-23 -7 -12 -22 17 -22 48 0 83 -52 46 -66 -8 -4 -15
-17 -15 -29 0 -36 -10 -55 -30 -55 -10 0 -22 9 -25 20 -3 11 -11 20 -16 20
-12 0 -11 -12 1 -45 8 -22 15 -26 42 -23 29 3 34 8 43 43 5 22 17 46 26 52 44
33 -33 124 -89 105z M10 57 c0 -37 173 -62 319 -47 96 10 141 25 141 47 0 10
-6 9 -27 -4 -23 -16 -51 -18 -203 -18 -152 0 -180 2 -203 18 -21 13 -27 14
-27 4z"/>
</g>
</svg>

