<?xml version="1.0" standalone="no"?>
<!DOCTYPE svg PUBLIC "-//W3C//DTD SVG 20010904//EN"
 "http://www.w3.org/TR/2001/REC-SVG-20010904/DTD/svg10.dtd">
<svg version="1.0" xmlns="http://www.w3.org/2000/svg"
 width="48.000000pt" height="48.000000pt" viewBox="0 0 48.000000 48.000000"
 preserveAspectRatio="xMidYMid meet">
<metadata>
Created by potrace 1.16, written by Peter Selinger 2001-2019
</metadata>
<g transform="translate(0.000000,48.000000) scale(0.100000,-0.100000)"
fill="currentColor" stroke="currentColor" stroke-width="6" stroke-linejoin="round">
<path d="M108 346 c-54 -51 -98 -98 -98 -104 0 -5 46 -54 102 -107 l103 -97 3
57 3 57 74 -4 c82 -4 107 -19 132 -75 28 -68 60 -29 48 60 -16 119 -83 186
-202 202 l-53 7 0 49 c0 27 -3 49 -7 49 -5 -1 -52 -43 -105 -94z m137 -34 c78
-5 106 -13 142 -45 43 -38 63 -81 63 -137 l0 -42 -26 31 c-32 38 -81 53 -159
49 l-60 -3 -3 -44 -3 -44 -85 84 -85 84 83 77 83 77 5 -42 c5 -41 6 -42 45
-45z"/>
</g>
</svg>

