<?xml version="1.0" standalone="no"?>
<!DOCTYPE svg PUBLIC "-//W3C//DTD SVG 20010904//EN"
 "http://www.w3.org/TR/2001/REC-SVG-20010904/DTD/svg10.dtd">
<svg version="1.0" xmlns="http://www.w3.org/2000/svg"
 width="48.000000pt" height="48.000000pt" viewBox="0 0 48.000000 48.000000"
 preserveAspectRatio="xMidYMid meet">
<metadata>
Created by potrace 1.16, written by Peter Selinger 2001-2019
</metadata>
<g transform="translate(0.000000,48.000000) scale(0.100000,-0.100000)"
fill="currentColor" stroke="currentColor" stroke-width="6" stroke-linejoin="round">
<path d="M191 469 c-245 -47 -243 -412 2 -458 168 -31 307 108 276 275 -17 88
-90 167 -168 180 -20 3 -43 7 -51 9 -8 1 -35 -1 -59 -6z m170 -54 c64 -45 91
-104 87 -187 -4 -82 -39 -139 -108 -176 -38 -20 -56 -23 -112 -20 -82 4 -139
39 -176 108 -20 38 -23 56 -20 112 4 82 39 139 108 176 38 20 56 23 112 20 55
-3 75 -9 109 -33z M148 307 c-27 -24 -48 -47 -48 -53 0 -12 95 -94 109 -94 6
0 11 9 11 20 0 17 7 20 48 20 49 0 82 -20 82 -48 0 -7 5 -12 10 -12 15 0 12
87 -4 119 -17 32 -54 51 -101 51 -28 0 -35 4 -35 20 0 30 -20 24 -72 -23z
m103 -17 c40 0 55 -5 74 -25 14 -13 25 -34 25 -47 0 -17 -3 -19 -12 -10 -7 7
-39 12 -75 12 -50 0 -63 -3 -63 -15 0 -12 -11 -7 -41 17 l-40 32 38 32 c27 23
39 28 41 18 2 -10 19 -14 53 -14z"/>
</g>
</svg>

