<?xml version="1.0" standalone="no"?>
<!DOCTYPE svg PUBLIC "-//W3C//DTD SVG 20010904//EN"
 "http://www.w3.org/TR/2001/REC-SVG-20010904/DTD/svg10.dtd">
<svg version="1.0" xmlns="http://www.w3.org/2000/svg"
 width="48.000000pt" height="48.000000pt" viewBox="0 0 48.000000 48.000000"
 preserveAspectRatio="xMidYMid meet">
<metadata>
Created by potrace 1.16, written by Peter Selinger 2001-2019
</metadata>
<g transform="translate(0.000000,48.000000) scale(0.100000,-0.100000)"
fill="currentColor" stroke="currentColor" stroke-width="6" stroke-linejoin="round">
<path d="M191 469 c-245 -47 -243 -412 2 -458 168 -31 307 108 276 275 -17 88
-90 167 -168 180 -20 3 -43 7 -51 9 -8 1 -35 -1 -59 -6z m170 -54 c64 -45 91
-104 87 -187 -4 -82 -39 -139 -108 -176 -38 -20 -56 -23 -112 -20 -82 4 -139
39 -176 108 -20 38 -23 56 -20 112 4 82 39 139 108 176 38 20 56 23 112 20 55
-3 75 -9 109 -33z M260 330 c0 -16 -7 -20 -35 -20 -47 0 -88 -22 -103 -55 -15
-31 -16 -115 -2 -115 6 0 10 6 10 13 0 27 36 47 83 47 40 0 47 -3 47 -20 0
-11 5 -20 11 -20 14 0 109 82 109 95 0 13 -95 95 -109 95 -6 0 -11 -9 -11 -20z
m63 -106 c-27 -23 -39 -28 -41 -18 -4 18 -122 20 -140 2 -9 -9 -12 -7 -12 10
0 13 11 34 25 47 19 20 34 25 75 25 38 0 50 4 50 15 0 12 11 7 41 -17 l40 -32
-38 -32z"/>
</g>
</svg>

