<?xml version="1.0" standalone="no"?>
<!DOCTYPE svg PUBLIC "-//W3C//DTD SVG 20010904//EN"
 "http://www.w3.org/TR/2001/REC-SVG-20010904/DTD/svg10.dtd">
<svg version="1.0" xmlns="http://www.w3.org/2000/svg"
 width="48.000000pt" height="48.000000pt" viewBox="0 0 48.000000 48.000000"
 preserveAspectRatio="xMidYMid meet">
<metadata>
Created by potrace 1.16, written by Peter Selinger 2001-2019
</metadata>
<g transform="translate(0.000000,48.000000) scale(0.100000,-0.100000)"
fill="currentColor" stroke="currentColor" stroke-width="6" stroke-linejoin="round">
<path d="M155 441 c-144 -66 -179 -245 -69 -355 110 -110 289 -75 355 69 80
173 -113 366 -286 286z m195 -35 c60 -39 85 -89 85 -167 0 -55 -4 -72 -27
-105 -46 -65 -91 -89 -168 -89 -54 0 -73 5 -103 25 -111 75 -128 219 -37 310
22 22 54 44 72 49 53 16 135 6 178 -23z M250 313 c0 -4 12 -20 27 -35 l27 -28
-82 0 c-48 0 -82 -4 -82 -10 0 -6 34 -10 82 -10 l82 0 -29 -30 c-45 -47 -19
-49 28 -2 l41 42 -39 40 c-37 38 -55 49 -55 33z"/>
</g>
</svg>

