<?xml version="1.0" standalone="no"?>
<!DOCTYPE svg PUBLIC "-//W3C//DTD SVG 20010904//EN"
 "http://www.w3.org/TR/2001/REC-SVG-20010904/DTD/svg10.dtd">
<svg version="1.0" xmlns="http://www.w3.org/2000/svg"
 width="48.000000pt" height="48.000000pt" viewBox="0 0 48.000000 48.000000"
 preserveAspectRatio="xMidYMid meet">
<metadata>
Created by potrace 1.16, written by Peter Selinger 2001-2019
</metadata>
<g transform="translate(0.000000,48.000000) scale(0.100000,-0.100000)"
fill="currentColor" stroke="currentColor" stroke-width="6" stroke-linejoin="round">
<path d="M210 473 c-53 -7 -106 -26 -138 -49 -96 -74 -81 -212 33 -297 24 -17
46 -42 50 -55 22 -84 149 -84 170 0 4 13 23 35 45 50 118 85 136 228 38 301
-48 36 -136 58 -198 50z m113 -34 c41 -21 67 -52 67 -79 l0 -27 -47 23 c-32
17 -63 24 -103 24 -40 0 -71 -7 -103 -24 l-47 -23 0 26 c1 57 56 91 148 91 35
0 73 -5 85 -11z m-251 -79 c-3 -32 2 -49 23 -80 15 -22 30 -40 34 -40 3 -1 21
-14 39 -29 34 -29 34 -29 14 -49 -11 -11 -22 -26 -24 -33 -7 -19 -53 15 -96
70 -27 36 -32 51 -32 95 0 39 6 61 21 80 11 14 21 26 22 26 2 0 1 -18 -1 -40z
m376 -70 c-5 -63 -28 -104 -85 -147 -27 -21 -38 -24 -41 -14 -2 7 -13 22 -24
33 -20 20 -20 20 14 49 18 15 36 28 39 29 4 0 19 18 34 40 22 31 26 48 23 81
l-4 41 24 -28 c21 -24 24 -36 20 -84z m-125 57 c18 -8 38 -21 46 -31 12 -14 9
-21 -28 -56 -23 -22 -55 -47 -71 -55 -27 -14 -33 -14 -60 0 -16 8 -48 33 -71
55 -37 35 -40 42 -28 56 35 42 147 58 212 31z m-29 -209 c20 -28 20 -58 0 -86
-21 -31 -87 -31 -108 0 -36 51 -7 108 54 108 29 0 43 -6 54 -22z M230 124 c0
-10 31 -36 37 -31 10 10 -6 37 -22 37 -8 0 -15 -3 -15 -6z"/>
</g>
</svg>

