<?xml version="1.0" standalone="no"?>
<!DOCTYPE svg PUBLIC "-//W3C//DTD SVG 20010904//EN"
 "http://www.w3.org/TR/2001/REC-SVG-20010904/DTD/svg10.dtd">
<svg version="1.0" xmlns="http://www.w3.org/2000/svg"
 width="48.000000pt" height="48.000000pt" viewBox="0 0 48.000000 48.000000"
 preserveAspectRatio="xMidYMid meet">
<metadata>
Created by potrace 1.16, written by Peter Selinger 2001-2019
</metadata>
<g transform="translate(0.000000,48.000000) scale(0.100000,-0.100000)"
fill="currentColor" stroke="currentColor" stroke-width="6" stroke-linejoin="round">
<path d="M20 460 c-19 -19 -20 -33 -20 -220 0 -187 1 -201 20 -220 19 -19 33
-20 220 -20 187 0 201 1 220 20 19 19 20 33 20 220 0 187 -1 201 -20 220 -19
19 -33 20 -220 20 -187 0 -201 -1 -220 -20z m430 -220 l0 -210 -210 0 -210 0
0 210 0 210 210 0 210 0 0 -210z M76 404 c-21 -21 -21 -97 0 -118 23 -23 305
-23 328 0 21 21 21 97 0 118 -23 23 -305 23 -328 0z m314 -59 l0 -45 -150 0
-150 0 0 45 0 45 150 0 150 0 0 -45z M70 210 c0 -6 28 -10 65 -10 37 0 65 4
65 10 0 6 -28 10 -65 10 -37 0 -65 -4 -65 -10z M260 210 c0 -6 30 -10 70 -10
40 0 70 4 70 10 0 6 -30 10 -70 10 -40 0 -70 -4 -70 -10z M70 150 c0 -6 28
-10 65 -10 37 0 65 4 65 10 0 6 -28 10 -65 10 -37 0 -65 -4 -65 -10z M260 150
c0 -6 30 -10 70 -10 40 0 70 4 70 10 0 6 -30 10 -70 10 -40 0 -70 -4 -70 -10z
M70 90 c0 -5 20 -10 45 -10 25 0 45 5 45 10 0 6 -20 10 -45 10 -25 0 -45 -4
-45 -10z M260 90 c0 -5 20 -10 45 -10 25 0 45 5 45 10 0 6 -20 10 -45 10 -25
0 -45 -4 -45 -10z"/>
</g>
</svg>

