<?xml version="1.0" standalone="no"?>
<!DOCTYPE svg PUBLIC "-//W3C//DTD SVG 20010904//EN"
 "http://www.w3.org/TR/2001/REC-SVG-20010904/DTD/svg10.dtd">
<svg version="1.0" xmlns="http://www.w3.org/2000/svg"
 width="48.000000pt" height="48.000000pt" viewBox="0 0 48.000000 48.000000"
 preserveAspectRatio="xMidYMid meet">
<metadata>
Created by potrace 1.16, written by Peter Selinger 2001-2019
</metadata>
<g transform="translate(0.000000,48.000000) scale(0.100000,-0.100000)"
fill="currentColor" stroke="currentColor" stroke-width="6" stroke-linejoin="round">
<path d="M80 473 c-8 -3 -18 -11 -22 -17 -4 -6 -8 -107 -8 -224 l0 -212 27
-11 c17 -6 91 -9 181 -7 122 2 155 6 162 18 5 8 10 111 10 228 l0 212 -26 10
c-27 10 -298 13 -324 3z m60 -233 l0 -210 -35 0 -35 0 0 210 0 210 35 0 35 0
0 -210z m270 0 l0 -210 -125 0 -125 0 0 210 0 210 125 0 125 0 0 -210z M228
384 c-20 -6 -31 -34 -22 -57 7 -20 62 -32 111 -24 48 8 64 33 44 66 -9 14
-100 24 -133 15z m122 -39 c0 -12 -14 -15 -65 -15 -51 0 -65 3 -65 15 0 12 14
15 65 15 51 0 65 -3 65 -15z"/>
</g>
</svg>

