<?xml version="1.0" standalone="no"?>
<!DOCTYPE svg PUBLIC "-//W3C//DTD SVG 20010904//EN"
 "http://www.w3.org/TR/2001/REC-SVG-20010904/DTD/svg10.dtd">
<svg version="1.0" xmlns="http://www.w3.org/2000/svg"
 width="48.000000pt" height="48.000000pt" viewBox="0 0 48.000000 48.000000"
 preserveAspectRatio="xMidYMid meet">
<metadata>
Created by potrace 1.16, written by Peter Selinger 2001-2019
</metadata>
<g transform="translate(0.000000,48.000000) scale(0.100000,-0.100000)"
fill="currentColor" stroke="none">
<path d="M325 470 c-16 -4 -40 -12 -51 -18 -30 -16 -74 -70 -74 -90 0 -11 11
-4 31 21 39 47 77 67 129 67 54 0 90 -34 90 -85 0 -38 -9 -49 -89 -113 -63
-50 -54 -111 18 -127 39 -8 55 -29 47 -60 -5 -20 -13 -25 -37 -25 -18 0 -28
-4 -24 -10 10 -16 51 -11 68 8 36 39 9 97 -49 108 -59 11 -59 62 1 103 65 44
85 71 85 113 0 61 -25 89 -100 110 -8 3 -28 2 -45 -2z M187 304 c-9 -10 2 -24
19 -24 8 0 14 7 14 15 0 15 -21 21 -33 9z M260 265 c0 -8 7 -15 15 -15 8 0 15
7 15 15 0 8 -7 15 -15 15 -8 0 -15 -7 -15 -15z M145 240 c-3 -5 -25 -10 -48
-10 -55 0 -87 -22 -87 -60 0 -40 39 -76 54 -51 3 5 -3 11 -14 14 -13 3 -20 14
-20 29 0 34 18 48 63 48 41 0 77 14 77 30 0 13 -17 13 -25 0z M189 167 c-6
-13 -24 -32 -40 -41 -39 -23 -62 -60 -54 -85 7 -24 43 -36 74 -26 34 10 24 24
-13 18 -26 -4 -35 -1 -40 13 -5 13 7 31 49 69 52 48 68 75 45 75 -6 0 -15 -11
-21 -23z M260 177 c0 -3 5 -17 11 -31 9 -18 9 -33 0 -56 -13 -38 0 -70 29 -70
27 0 25 16 -1 23 -16 4 -20 10 -14 24 18 42 17 78 -4 97 -12 11 -21 16 -21 13z"/>
</g>
</svg>

