<?xml version="1.0" standalone="no"?>
<!DOCTYPE svg PUBLIC "-//W3C//DTD SVG 20010904//EN"
 "http://www.w3.org/TR/2001/REC-SVG-20010904/DTD/svg10.dtd">
<svg version="1.0" xmlns="http://www.w3.org/2000/svg"
 width="48.000000pt" height="48.000000pt" viewBox="0 0 48.000000 48.000000"
 preserveAspectRatio="xMidYMid meet">
<metadata>
Created by potrace 1.16, written by Peter Selinger 2001-2019
</metadata>
<g transform="translate(0.000000,48.000000) scale(0.100000,-0.100000)"
fill="currentColor" stroke="currentColor" stroke-width="6" stroke-linejoin="round">
<path d="M42 470 c-37 -16 -43 -52 -40 -247 3 -159 5 -185 21 -200 16 -16 39
-18 217 -18 178 0 201 2 217 18 15 15 18 40 21 173 l3 156 -64 64 -64 64 -144
-1 c-79 0 -154 -4 -167 -9z m291 -66 c6 -57 14 -65 71 -71 l47 -6 -3 -146 -3
-146 -205 0 -205 0 -3 195 c-1 107 0 200 2 207 4 10 42 13 149 13 l144 0 6
-46z m117 -41 c0 -2 -20 -3 -45 -3 l-45 0 0 47 0 47 45 -44 c25 -24 45 -45 45
-47z M80 165 c0 -50 4 -85 10 -85 6 0 10 14 10 30 0 18 5 30 13 30 20 0 47 33
47 57 0 25 -30 53 -58 53 -21 0 -22 -4 -22 -85z m54 43 c7 -12 6 -21 -3 -32
-21 -25 -31 -19 -31 20 0 37 14 42 34 12z M200 165 c0 -76 2 -85 18 -85 57 0
84 106 39 148 -13 12 -31 22 -40 22 -15 0 -17 -12 -17 -85z m60 0 c0 -19 -8
-39 -20 -50 -20 -18 -20 -17 -20 50 0 67 0 68 20 50 12 -11 20 -31 20 -50z
M332 238 c-15 -15 -17 -158 -2 -158 6 0 10 14 10 30 0 23 4 30 20 30 11 0 20
5 20 10 0 6 -9 10 -21 10 -17 0 -20 5 -17 33 2 27 8 33 31 35 15 2 27 8 27 13
0 13 -54 11 -68 -3z"/>
</g>
</svg>

