<?xml version="1.0" standalone="no"?>
<!DOCTYPE svg PUBLIC "-//W3C//DTD SVG 20010904//EN"
 "http://www.w3.org/TR/2001/REC-SVG-20010904/DTD/svg10.dtd">
<svg version="1.0" xmlns="http://www.w3.org/2000/svg"
 width="48.000000pt" height="48.000000pt" viewBox="0 0 48.000000 48.000000"
 preserveAspectRatio="xMidYMid meet">
<metadata>
Created by potrace 1.16, written by Peter Selinger 2001-2019
</metadata>
<g transform="translate(0.000000,48.000000) scale(0.100000,-0.100000)"
fill="currentColor" stroke="none">
<path d="M33 470 c-14 -6 -24 -21 -28 -42 -11 -58 -1 -396 12 -409 14 -14 77
-18 81 -4 1 6 -13 11 -33 13 l-35 3 0 210 0 209 104 0 104 0 4 -60 c2 -33 10
-66 16 -72 6 -6 39 -14 71 -16 l60 -4 3 -37 c4 -53 22 -44 26 13 l3 48 -79 79
-78 79 -105 -1 c-57 0 -114 -4 -126 -9z m302 -80 l59 -60 -62 0 -62 0 0 60 c0
33 1 60 3 60 1 0 29 -27 62 -60z M160 165 c-6 -8 -10 -43 -8 -82 3 -67 13 -84
23 -40 3 12 16 27 28 32 25 11 35 58 17 80 -16 19 -48 25 -60 10z m45 -45 c0
-13 -6 -25 -12 -27 -9 -3 -13 6 -13 27 0 21 4 30 13 28 6 -3 12 -15 12 -28z
M423 170 c-24 -10 -36 -53 -31 -113 3 -39 21 -52 26 -18 2 10 12 21 24 24 22
6 16 27 -8 27 -9 0 -14 10 -14 29 0 22 5 30 20 33 12 2 21 7 21 13 1 13 -12
15 -38 5z M274 156 c-3 -7 -4 -42 -2 -77 3 -56 6 -64 24 -67 51 -7 80 93 40
137 -22 24 -54 28 -62 7z m56 -66 c0 -21 -7 -43 -15 -50 -13 -11 -15 -4 -15
50 0 54 2 61 15 50 8 -7 15 -29 15 -50z"/>
</g>
</svg>

