<?xml version="1.0" standalone="no"?>
<!DOCTYPE svg PUBLIC "-//W3C//DTD SVG 20010904//EN"
 "http://www.w3.org/TR/2001/REC-SVG-20010904/DTD/svg10.dtd">
<svg version="1.0" xmlns="http://www.w3.org/2000/svg"
 width="48.000000pt" height="48.000000pt" viewBox="0 0 48.000000 48.000000"
 preserveAspectRatio="xMidYMid meet">
<metadata>
Created by potrace 1.16, written by Peter Selinger 2001-2019
</metadata>
<g transform="translate(0.000000,48.000000) scale(0.100000,-0.100000)"
fill="currentColor" stroke="currentColor" stroke-width="6" stroke-linejoin="round">
<path d="M42 470 c-37 -16 -43 -52 -40 -247 3 -159 5 -185 21 -200 16 -16 39
-18 217 -18 178 0 201 2 217 18 15 15 18 40 21 173 l3 156 -64 64 -64 64 -144
-1 c-79 0 -154 -4 -167 -9z m291 -66 c6 -57 14 -65 71 -71 l47 -6 -3 -146 -3
-146 -205 0 -205 0 -3 195 c-1 107 0 200 2 207 4 10 42 13 149 13 l144 0 6
-46z m117 -41 c0 -2 -20 -3 -45 -3 l-45 0 0 47 0 47 45 -44 c25 -24 45 -45 45
-47z M84 337 c-2 -7 -3 -67 -2 -133 l3 -119 155 0 155 0 0 90 0 90 -147 3
-148 3 0 29 0 30 90 0 c53 0 90 4 90 10 0 16 -189 13 -196 -3z m86 -117 c0
-28 -3 -30 -35 -30 -32 0 -35 2 -35 30 0 28 3 30 35 30 32 0 35 -2 35 -30z
m210 0 l0 -30 -95 0 -95 0 0 30 0 30 95 0 95 0 0 -30z m-210 -90 c0 -28 -3
-30 -35 -30 -32 0 -35 2 -35 30 0 28 3 30 35 30 32 0 35 -2 35 -30z m210 0 l0
-30 -95 0 -95 0 0 30 0 30 95 0 95 0 0 -30z"/>
</g>
</svg>

