<?xml version="1.0" standalone="no"?>
<!DOCTYPE svg PUBLIC "-//W3C//DTD SVG 20010904//EN"
 "http://www.w3.org/TR/2001/REC-SVG-20010904/DTD/svg10.dtd">
<svg version="1.0" xmlns="http://www.w3.org/2000/svg"
 width="48.000000pt" height="48.000000pt" viewBox="0 0 48.000000 48.000000"
 preserveAspectRatio="xMidYMid meet">
<metadata>
Created by potrace 1.16, written by Peter Selinger 2001-2019
</metadata>
<g transform="translate(0.000000,48.000000) scale(0.100000,-0.100000)"
fill="currentColor" stroke="currentColor" stroke-width="6" stroke-linejoin="round">
<path d="M42 470 c-37 -16 -43 -52 -40 -247 3 -159 5 -185 21 -200 16 -16 39
-18 217 -18 178 0 201 2 217 18 15 15 18 40 21 173 l3 156 -64 64 -64 64 -144
-1 c-79 0 -154 -4 -167 -9z m291 -66 c6 -57 14 -65 71 -71 l47 -6 -3 -146 -3
-146 -205 0 -205 0 -3 195 c-1 107 0 200 2 207 4 10 42 13 149 13 l144 0 6
-46z m117 -41 c0 -2 -20 -3 -45 -3 l-45 0 0 47 0 47 45 -44 c25 -24 45 -45 45
-47z M80 245 c0 -2 7 -22 15 -43 14 -34 14 -42 0 -75 -18 -43 -18 -47 -5 -47
5 0 12 11 16 25 8 32 20 32 28 0 4 -14 11 -25 16 -25 13 0 13 3 -5 48 -14 34
-14 42 0 75 18 43 18 47 5 47 -5 0 -12 -11 -16 -25 -3 -14 -10 -25 -14 -25 -4
0 -11 11 -14 25 -4 14 -11 25 -16 25 -6 0 -10 -2 -10 -5z M200 177 c0 -80 9
-97 52 -97 36 0 37 18 1 22 -27 3 -28 5 -31 76 -4 94 -22 94 -22 -1z M332 238
c-20 -20 -14 -46 19 -79 35 -36 34 -53 -4 -57 -36 -4 -35 -22 1 -22 58 0 68
43 21 91 -35 36 -34 53 4 57 15 2 27 8 27 13 0 13 -54 11 -68 -3z"/>
</g>
</svg>

