<?xml version="1.0" standalone="no"?>
<!DOCTYPE svg PUBLIC "-//W3C//DTD SVG 20010904//EN"
 "http://www.w3.org/TR/2001/REC-SVG-20010904/DTD/svg10.dtd">
<svg version="1.0" xmlns="http://www.w3.org/2000/svg"
 width="48.000000pt" height="48.000000pt" viewBox="0 0 48.000000 48.000000"
 preserveAspectRatio="xMidYMid meet">
<metadata>
Created by potrace 1.16, written by Peter Selinger 2001-2019
</metadata>
<g transform="translate(0.000000,48.000000) scale(0.100000,-0.100000)"
fill="currentColor" stroke="none">
<path d="M33 470 c-14 -6 -24 -21 -28 -42 -11 -58 -1 -396 12 -409 14 -14 77
-18 81 -4 1 6 -13 11 -33 13 l-35 3 0 210 0 209 104 0 104 0 4 -60 c2 -33 10
-66 16 -72 6 -6 39 -14 71 -16 l60 -4 3 -37 c4 -53 22 -44 26 13 l3 48 -79 79
-78 79 -105 -1 c-57 0 -114 -4 -126 -9z m302 -80 l59 -60 -62 0 -62 0 0 60 c0
33 1 60 3 60 1 0 29 -27 62 -60z M154 156 c-3 -7 -4 -42 -2 -77 3 -56 6 -64
24 -67 51 -7 80 93 40 137 -22 24 -54 28 -62 7z m56 -66 c0 -21 -7 -43 -15
-50 -13 -11 -15 -4 -15 50 0 54 2 61 15 50 8 -7 15 -29 15 -50z M280 145 c-5
-14 -10 -39 -10 -55 0 -16 5 -41 10 -55 8 -21 16 -26 38 -23 22 2 29 10 36 41
6 23 6 51 0 75 -7 30 -14 38 -36 40 -22 3 -30 -2 -38 -23z m50 -55 c0 -47 -3
-60 -15 -60 -12 0 -15 13 -15 60 0 47 3 60 15 60 12 0 15 -13 15 -60z M414
149 c-39 -43 -13 -139 38 -139 25 0 23 13 -4 25 -17 8 -24 20 -26 50 -3 34 1
43 25 62 26 21 26 23 7 23 -11 0 -29 -9 -40 -21z"/>
</g>
</svg>

