<?xml version="1.0" standalone="no"?>
<!DOCTYPE svg PUBLIC "-//W3C//DTD SVG 20010904//EN"
 "http://www.w3.org/TR/2001/REC-SVG-20010904/DTD/svg10.dtd">
<svg version="1.0" xmlns="http://www.w3.org/2000/svg"
 width="48.000000pt" height="48.000000pt" viewBox="0 0 48.000000 48.000000"
 preserveAspectRatio="xMidYMid meet">
<metadata>
Created by potrace 1.16, written by Peter Selinger 2001-2019
</metadata>
<g transform="translate(0.000000,48.000000) scale(0.100000,-0.100000)"
fill="currentColor" stroke="none">
<path d="M33 470 c-14 -6 -24 -21 -28 -42 -11 -58 -1 -396 12 -409 14 -14 77
-18 81 -4 1 6 -13 11 -33 13 l-35 3 0 210 0 209 104 0 104 0 4 -60 c2 -33 10
-66 16 -72 6 -6 39 -14 71 -16 l60 -4 3 -37 c4 -53 22 -44 26 13 l3 48 -79 79
-78 79 -105 -1 c-57 0 -114 -4 -126 -9z m302 -80 l59 -60 -62 0 -62 0 0 60 c0
33 1 60 3 60 1 0 29 -27 62 -60z M167 173 c-4 -3 -3 -11 3 -17 5 -7 10 -41 12
-76 2 -36 8 -65 13 -65 6 0 11 29 13 65 2 35 7 69 12 76 6 6 7 14 3 17 -8 9
-48 9 -56 0z M407 173 c-4 -3 -3 -11 3 -17 5 -7 10 -41 12 -76 2 -36 8 -65 13
-65 6 0 11 29 13 65 2 35 7 69 12 76 6 6 7 14 3 17 -8 9 -48 9 -56 0z M286
143 c4 -16 8 -39 8 -53 0 -14 -4 -37 -8 -52 -5 -17 -4 -28 2 -28 5 0 13 12 17
27 l8 28 10 -27 c6 -16 15 -28 20 -28 5 0 6 12 1 28 -4 15 -8 38 -8 52 0 14 4
37 8 53 5 16 4 27 -2 27 -5 0 -13 -12 -17 -27 l-8 -28 -10 28 c-6 15 -15 27
-20 27 -5 0 -6 -12 -1 -27z"/>
</g>
</svg>

