<?xml version="1.0" standalone="no"?>
<!DOCTYPE svg PUBLIC "-//W3C//DTD SVG 20010904//EN"
 "http://www.w3.org/TR/2001/REC-SVG-20010904/DTD/svg10.dtd">
<svg version="1.0" xmlns="http://www.w3.org/2000/svg"
 width="48.000000pt" height="48.000000pt" viewBox="0 0 48.000000 48.000000"
 preserveAspectRatio="xMidYMid meet">
<metadata>
Created by potrace 1.16, written by Peter Selinger 2001-2019
</metadata>
<g transform="translate(0.000000,48.000000) scale(0.100000,-0.100000)"
fill="currentColor" stroke="none">
<path d="M29 474 c-26 -8 -29 -34 -29 -250 0 -142 3 -203 12 -212 9 -9 74 -12
229 -12 177 0 219 3 229 15 13 16 11 247 -3 261 -4 4 -31 9 -61 12 l-54 4 -4
83 c-1 46 -7 87 -11 92 -9 9 -281 15 -308 7z m291 -234 l0 -210 -50 0 -50 0 0
34 c0 35 -21 66 -45 66 -24 0 -45 -31 -45 -66 l0 -34 -50 0 -50 0 0 210 0 210
145 0 145 0 0 -210z m130 -95 l0 -115 -50 0 -50 0 0 115 0 115 50 0 50 0 0
-115z m-250 -81 c0 -30 -3 -34 -25 -34 -22 0 -25 4 -25 34 0 19 6 36 13 39 24
8 37 -6 37 -39z M74 407 c-3 -8 -4 -32 -2 -53 3 -37 5 -39 38 -39 l35 0 0 50
c0 49 -1 50 -33 53 -21 2 -34 -2 -38 -11z m56 -42 c0 -18 -5 -25 -20 -25 -15
0 -20 7 -20 25 0 18 5 25 20 25 15 0 20 -7 20 -25z M204 407 c-3 -8 -4 -32 -2
-53 3 -37 5 -39 38 -39 l35 0 0 50 c0 49 -1 50 -33 53 -21 2 -34 -2 -38 -11z
m56 -42 c0 -18 -5 -25 -20 -25 -15 0 -20 7 -20 25 0 18 5 25 20 25 15 0 20 -7
20 -25z M74 257 c-3 -8 -4 -32 -2 -53 3 -37 5 -39 38 -39 l35 0 0 50 c0 49 -1
50 -33 53 -21 2 -34 -2 -38 -11z m56 -42 c0 -18 -5 -25 -20 -25 -15 0 -20 7
-20 25 0 18 5 25 20 25 15 0 20 -7 20 -25z M204 257 c-3 -8 -4 -32 -2 -53 3
-37 5 -39 38 -39 l35 0 0 50 c0 49 -1 50 -33 53 -21 2 -34 -2 -38 -11z m56
-42 c0 -18 -5 -25 -20 -25 -15 0 -20 7 -20 25 0 18 5 25 20 25 15 0 20 -7 20
-25z"/>
</g>
</svg>

