<?xml version="1.0" standalone="no"?>
<!DOCTYPE svg PUBLIC "-//W3C//DTD SVG 20010904//EN"
 "http://www.w3.org/TR/2001/REC-SVG-20010904/DTD/svg10.dtd">
<svg version="1.0" xmlns="http://www.w3.org/2000/svg"
 width="48.000000pt" height="48.000000pt" viewBox="0 0 48.000000 48.000000"
 preserveAspectRatio="xMidYMid meet">
<metadata>
Created by potrace 1.16, written by Peter Selinger 2001-2019
</metadata>
<g transform="translate(0.000000,48.000000) scale(0.100000,-0.100000)"
fill="currentColor" stroke="currentColor" stroke-width="6" stroke-linejoin="round">
<path d="M42 470 c-37 -16 -43 -52 -40 -247 3 -159 5 -185 21 -200 16 -16 39
-18 217 -18 178 0 201 2 217 18 15 15 18 40 21 173 l3 156 -64 64 -64 64 -144
-1 c-79 0 -154 -4 -167 -9z m291 -66 c6 -57 14 -65 71 -71 l47 -6 -3 -146 -3
-146 -205 0 -205 0 -3 195 c-1 107 0 200 2 207 4 10 42 13 149 13 l144 0 6
-46z m117 -41 c0 -2 -20 -3 -45 -3 l-45 0 0 47 0 47 45 -44 c25 -24 45 -45 45
-47z M109 261 c-62 -62 -19 -161 71 -161 56 0 100 42 100 95 0 86 -109 128
-171 66z m61 -25 c0 -27 -7 -39 -29 -55 -15 -11 -31 -18 -35 -14 -13 13 -5 51
15 77 29 37 49 34 49 -8z m69 8 c42 -54 10 -124 -58 -124 -57 0 -68 19 -26 47
30 20 35 29 35 63 0 48 18 53 49 14z M310 270 c0 -5 20 -10 45 -10 25 0 45 5
45 10 0 6 -20 10 -45 10 -25 0 -45 -4 -45 -10z M340 180 c0 -5 14 -10 30 -10
17 0 30 5 30 10 0 6 -13 10 -30 10 -16 0 -30 -4 -30 -10z M280 90 c0 -6 27
-10 60 -10 33 0 60 4 60 10 0 6 -27 10 -60 10 -33 0 -60 -4 -60 -10z"/>
</g>
</svg>

