<?xml version="1.0" standalone="no"?>
<!DOCTYPE svg PUBLIC "-//W3C//DTD SVG 20010904//EN"
 "http://www.w3.org/TR/2001/REC-SVG-20010904/DTD/svg10.dtd">
<svg version="1.0" xmlns="http://www.w3.org/2000/svg"
 width="48.000000pt" height="48.000000pt" viewBox="0 0 48.000000 48.000000"
 preserveAspectRatio="xMidYMid meet">
<metadata>
Created by potrace 1.16, written by Peter Selinger 2001-2019
</metadata>
<g transform="translate(0.000000,48.000000) scale(0.100000,-0.100000)"
fill="currentColor" stroke="none">
<path d="M140 404 c0 -3 4 -14 10 -24 8 -16 3 -22 -36 -44 -43 -24 -47 -24
-70 -10 -27 19 -32 9 -8 -17 15 -17 14 -20 -5 -48 -12 -16 -21 -33 -21 -39 0
-21 83 -102 127 -123 62 -30 144 -30 206 0 44 21 127 102 127 123 0 6 -9 23
-21 39 -19 28 -20 31 -5 48 24 26 19 36 -8 17 -23 -14 -27 -14 -70 10 -39 22
-44 28 -36 44 12 23 13 30 1 30 -5 0 -13 -9 -16 -20 -6 -17 -15 -20 -75 -20
-60 0 -69 3 -75 20 -6 18 -25 29 -25 14z m221 -89 c23 -17 53 -44 66 -62 l24
-31 -37 -42 c-52 -57 -104 -82 -174 -82 -70 0 -122 25 -174 82 l-37 41 21 29
c24 34 74 74 110 89 14 6 55 10 92 8 56 -2 74 -8 109 -32z M213 290 c-44 -18
-56 -77 -23 -110 26 -26 74 -26 100 0 51 51 -9 137 -77 110z m58 -29 c20 -16
22 -23 14 -47 -9 -24 -16 -29 -45 -29 -29 0 -36 5 -45 29 -8 24 -6 31 14 47
13 10 27 19 31 19 4 0 18 -9 31 -19z"/>
</g>
</svg>

