<?xml version="1.0" standalone="no"?>
<!DOCTYPE svg PUBLIC "-//W3C//DTD SVG 20010904//EN"
 "http://www.w3.org/TR/2001/REC-SVG-20010904/DTD/svg10.dtd">
<svg version="1.0" xmlns="http://www.w3.org/2000/svg"
 width="48.000000pt" height="48.000000pt" viewBox="0 0 48.000000 48.000000"
 preserveAspectRatio="xMidYMid meet">
<metadata>
Created by potrace 1.16, written by Peter Selinger 2001-2019
</metadata>
<g transform="translate(0.000000,48.000000) scale(0.100000,-0.100000)"
fill="currentColor" stroke="none">
<path d="M20 460 c-19 -19 -20 -33 -20 -220 0 -187 1 -201 20 -220 19 -19 33
-20 220 -20 187 0 201 1 220 20 19 19 20 33 20 220 0 187 -1 201 -20 220 -19
19 -33 20 -220 20 -187 0 -201 -1 -220 -20z m430 -220 l0 -210 -210 0 -210 0
0 210 0 210 210 0 210 0 0 -210z M102 378 c-16 -16 -16 -80 0 -96 16 -16 80
-16 96 0 16 16 16 80 0 96 -16 16 -80 16 -96 0z m78 -48 c0 -27 -3 -30 -30
-30 -27 0 -30 3 -30 30 0 27 3 30 30 30 27 0 30 -3 30 -30z M285 380 c-3 -5 0
-13 8 -16 23 -8 82 0 82 11 0 14 -82 19 -90 5z M255 290 c-3 -5 0 -13 8 -16
23 -9 112 0 110 11 -4 14 -110 19 -118 5z M102 198 c-16 -16 -16 -80 0 -96 16
-16 80 -16 96 0 16 16 16 80 0 96 -16 16 -80 16 -96 0z m78 -48 c0 -27 -3 -30
-30 -30 -27 0 -30 3 -30 30 0 27 3 30 30 30 27 0 30 -3 30 -30z M255 200 c-3
-5 0 -13 8 -16 23 -9 112 0 110 11 -4 14 -110 19 -118 5z M255 110 c-3 -5 0
-13 8 -16 23 -8 82 0 82 11 0 14 -82 19 -90 5z"/>
</g>
</svg>

