<?xml version="1.0" standalone="no"?>
<!DOCTYPE svg PUBLIC "-//W3C//DTD SVG 20010904//EN"
 "http://www.w3.org/TR/2001/REC-SVG-20010904/DTD/svg10.dtd">
<svg version="1.0" xmlns="http://www.w3.org/2000/svg"
 width="48.000000pt" height="48.000000pt" viewBox="0 0 48.000000 48.000000"
 preserveAspectRatio="xMidYMid meet">
<metadata>
Created by potrace 1.16, written by Peter Selinger 2001-2019
</metadata>
<g transform="translate(0.000000,48.000000) scale(0.100000,-0.100000)"
fill="currentColor" stroke="currentColor" stroke-width="6" stroke-linejoin="round">
<path d="M127 459 c-39 -23 -59 -98 -36 -140 8 -16 5 -26 -20 -55 -44 -49 -61
-96 -64 -175 -3 -98 17 -92 23 6 4 64 11 90 33 127 15 26 35 51 44 57 15 8 15
13 4 49 -11 34 -12 47 -1 72 18 44 25 44 49 4 23 -39 72 -64 125 -64 56 0 70
-22 62 -99 -7 -67 -18 -91 -42 -91 -20 0 -17 -18 5 -30 30 -16 66 -12 95 11
14 11 31 17 37 13 16 -10 29 15 29 59 0 29 -7 46 -29 68 -16 16 -38 29 -48 29
-11 0 -29 14 -41 30 -19 25 -30 30 -65 30 -55 0 -102 29 -118 74 -14 39 -16
40 -42 25z m297 -200 c18 -14 26 -30 26 -50 l0 -30 -26 20 c-15 12 -33 21 -40
21 -9 0 -14 11 -14 30 0 36 16 39 54 9z m-15 -72 c15 -18 -21 -57 -53 -57 -23
0 -23 0 -7 35 17 36 41 45 60 22z M260 265 c0 -8 7 -15 15 -15 8 0 15 7 15 15
0 8 -7 15 -15 15 -8 0 -15 -7 -15 -15z M320 46 c0 -14 5 -28 10 -31 6 -4 10 7
10 24 0 17 -4 31 -10 31 -5 0 -10 -11 -10 -24z"/>
</g>
</svg>

