<?xml version="1.0" standalone="no"?>
<!DOCTYPE svg PUBLIC "-//W3C//DTD SVG 20010904//EN"
 "http://www.w3.org/TR/2001/REC-SVG-20010904/DTD/svg10.dtd">
<svg version="1.0" xmlns="http://www.w3.org/2000/svg"
 width="48.000000pt" height="48.000000pt" viewBox="0 0 48.000000 48.000000"
 preserveAspectRatio="xMidYMid meet">
<metadata>
Created by potrace 1.16, written by Peter Selinger 2001-2019
</metadata>
<g transform="translate(0.000000,48.000000) scale(0.100000,-0.100000)"
fill="currentColor" stroke="currentColor" stroke-width="6" stroke-linejoin="round">
<path d="M33 470 c-14 -6 -24 -21 -29 -44 -10 -54 -1 -183 14 -198 9 -9 47
-13 122 -13 147 0 146 19 0 23 l-110 3 0 104 0 105 195 0 194 0 3 -67 c2 -41
7 -66 13 -63 15 7 12 127 -3 142 -16 16 -364 23 -399 8z M90 345 c0 -8 7 -15
15 -15 8 0 15 7 15 15 0 8 -7 15 -15 15 -8 0 -15 -7 -15 -15z M210 345 c0 -8
7 -15 15 -15 8 0 15 7 15 15 0 8 -7 15 -15 15 -8 0 -15 -7 -15 -15z M330 345
c0 -8 7 -15 15 -15 8 0 15 7 15 15 0 8 -7 15 -15 15 -8 0 -15 -7 -15 -15z
M350 257 c-25 -13 -30 -19 -61 -91 -23 -53 -22 -127 0 -149 16 -16 156 -16
172 0 22 22 23 96 0 146 -12 25 -21 50 -21 55 0 11 -30 37 -51 45 -9 3 -26 0
-39 -6z m58 -29 c7 -7 12 -20 12 -30 0 -15 -8 -18 -45 -18 -37 0 -45 3 -45 18
0 24 19 42 45 42 12 0 26 -5 33 -12z m42 -138 l0 -60 -75 0 -75 0 0 60 0 60
75 0 75 0 0 -60z M366 103 c-12 -12 -6 -33 9 -33 8 0 15 6 15 14 0 17 -14 28
-24 19z"/>
</g>
</svg>

