<?xml version="1.0" standalone="no"?>
<!DOCTYPE svg PUBLIC "-//W3C//DTD SVG 20010904//EN"
 "http://www.w3.org/TR/2001/REC-SVG-20010904/DTD/svg10.dtd">
<svg version="1.0" xmlns="http://www.w3.org/2000/svg"
 width="48.000000pt" height="48.000000pt" viewBox="0 0 48.000000 48.000000"
 preserveAspectRatio="xMidYMid meet">
<metadata>
Created by potrace 1.16, written by Peter Selinger 2001-2019
</metadata>
<g transform="translate(0.000000,48.000000) scale(0.100000,-0.100000)"
fill="currentColor" stroke="currentColor" stroke-width="6" stroke-linejoin="round">
<path d="M333 355 c-11 -8 -24 -30 -27 -49 -4 -19 -12 -36 -19 -39 -19 -6 -16
-135 3 -147 19 -13 151 -13 170 0 19 12 22 141 3 147 -7 3 -15 20 -19 39 -7
37 -36 64 -69 64 -11 0 -30 -7 -42 -15z m75 -17 c7 -7 12 -22 12 -35 0 -21 -5
-23 -45 -23 -40 0 -45 2 -45 23 0 29 18 47 45 47 12 0 26 -5 33 -12z m42 -143
l0 -65 -75 0 -75 0 0 65 0 65 75 0 75 0 0 -65z M360 195 c0 -8 7 -15 15 -15 8
0 15 7 15 15 0 8 -7 15 -15 15 -8 0 -15 -7 -15 -15z M20 300 c-11 -7 -15 -29
-15 -90 0 -61 4 -83 15 -90 20 -13 210 -13 210 0 0 6 -40 10 -100 10 l-100 0
0 80 0 80 100 0 c60 0 100 4 100 10 0 13 -190 13 -210 0z M70 210 c0 -13 5
-20 13 -17 6 2 12 10 12 17 0 7 -6 15 -12 18 -8 2 -13 -5 -13 -18z M145 220
c-7 -12 2 -30 16 -30 5 0 9 9 9 20 0 21 -15 27 -25 10z"/>
</g>
</svg>

