<?xml version="1.0" standalone="no"?>
<!DOCTYPE svg PUBLIC "-//W3C//DTD SVG 20010904//EN"
 "http://www.w3.org/TR/2001/REC-SVG-20010904/DTD/svg10.dtd">
<svg version="1.0" xmlns="http://www.w3.org/2000/svg"
 width="48.000000pt" height="48.000000pt" viewBox="0 0 48.000000 48.000000"
 preserveAspectRatio="xMidYMid meet">
<metadata>
Created by potrace 1.16, written by Peter Selinger 2001-2019
</metadata>
<g transform="translate(0.000000,48.000000) scale(0.100000,-0.100000)"
fill="currentColor" stroke="none">
<path d="M160 457 c-49 -16 -123 -93 -138 -143 -27 -91 -8 -169 58 -234 93
-94 227 -94 320 0 94 93 94 227 0 320 -65 65 -150 85 -240 57z m158 -23 c142
-59 176 -243 64 -347 l-30 -29 -11 52 c-6 28 -11 56 -11 63 0 7 -9 28 -19 48
-11 19 -25 54 -32 77 -7 23 -18 47 -26 53 -19 16 -37 -2 -52 -53 -7 -23 -21
-58 -32 -77 -10 -20 -19 -41 -19 -48 0 -7 -5 -35 -11 -63 l-11 -52 -30 29
c-63 58 -85 154 -52 231 44 107 168 160 272 116z m-54 -151 c9 -26 16 -48 16
-50 0 -2 -18 -3 -40 -3 -22 0 -40 1 -40 3 0 15 34 97 40 97 4 0 15 -21 24 -47z
m40 -89 c3 -9 6 -27 6 -40 0 -23 -3 -24 -70 -24 -67 0 -70 1 -70 24 0 49 8 56
70 56 44 0 59 -4 64 -16z m22 -110 c10 -38 -9 -49 -86 -49 -77 0 -96 11 -86
49 6 25 9 26 86 26 77 0 80 -1 86 -26z"/>
</g>
</svg>

