<?xml version="1.0" standalone="no"?>
<!DOCTYPE svg PUBLIC "-//W3C//DTD SVG 20010904//EN"
 "http://www.w3.org/TR/2001/REC-SVG-20010904/DTD/svg10.dtd">
<svg version="1.0" xmlns="http://www.w3.org/2000/svg"
 width="48.000000pt" height="48.000000pt" viewBox="0 0 48.000000 48.000000"
 preserveAspectRatio="xMidYMid meet">
<metadata>
Created by potrace 1.16, written by Peter Selinger 2001-2019
</metadata>
<g transform="translate(0.000000,48.000000) scale(0.100000,-0.100000)"
fill="currentColor" stroke="none">
<path d="M374 472 c-11 -1 -90 -74 -176 -160 -155 -155 -157 -158 -174 -224
-10 -37 -15 -71 -11 -75 4 -4 38 1 75 11 66 17 69 19 225 174 140 140 157 160
157 190 0 18 -4 42 -10 52 -11 20 -55 37 -86 32z m64 -34 c14 -14 16 -74 4
-82 -11 -7 -94 78 -86 87 12 11 69 8 82 -5z m-153 -238 l-135 -135 -42 43 -43
42 135 135 134 135 43 -42 43 -43 -135 -135z m-202 -157 c-26 -7 -48 -11 -49
-10 -1 1 3 24 9 50 l11 48 38 -38 39 -38 -48 -12z"/>
</g>
</svg>

