<?xml version="1.0" standalone="no"?>
<!DOCTYPE svg PUBLIC "-//W3C//DTD SVG 20010904//EN"
 "http://www.w3.org/TR/2001/REC-SVG-20010904/DTD/svg10.dtd">
<svg version="1.0" xmlns="http://www.w3.org/2000/svg"
 width="48.000000pt" height="48.000000pt" viewBox="0 0 48.000000 48.000000"
 preserveAspectRatio="xMidYMid meet">
<metadata>
Created by potrace 1.16, written by Peter Selinger 2001-2019
</metadata>
<g transform="translate(0.000000,48.000000) scale(0.100000,-0.100000)"
fill="currentColor" stroke="currentColor" stroke-width="6" stroke-linejoin="round">
<path d="M374 472 c-11 -1 -90 -74 -176 -160 -155 -155 -157 -158 -174 -224
-10 -37 -15 -71 -11 -75 4 -4 38 1 75 11 66 17 69 19 225 174 140 140 157 160
157 190 0 18 -4 42 -10 52 -11 20 -55 37 -86 32z m64 -34 c14 -14 16 -74 4
-82 -11 -7 -94 78 -86 87 12 11 69 8 82 -5z m-33 -117 c-14 -14 -20 -11 -57
26 -36 36 -40 44 -28 58 12 14 18 12 57 -27 38 -38 41 -44 28 -57z m-70 9 l39
-40 -112 -113 -112 -112 -42 43 -43 42 110 110 c60 60 112 110 115 110 3 0 24
-18 45 -40z m-252 -287 c-26 -7 -48 -11 -49 -10 -1 1 3 24 9 50 l11 48 38 -38
39 -38 -48 -12z"/>
</g>
</svg>

