<?xml version="1.0" standalone="no"?>
<!DOCTYPE svg PUBLIC "-//W3C//DTD SVG 20010904//EN"
 "http://www.w3.org/TR/2001/REC-SVG-20010904/DTD/svg10.dtd">
<svg version="1.0" xmlns="http://www.w3.org/2000/svg"
 width="48.000000pt" height="48.000000pt" viewBox="0 0 48.000000 48.000000"
 preserveAspectRatio="xMidYMid meet">
<metadata>
Created by potrace 1.16, written by Peter Selinger 2001-2019
</metadata>
<g transform="translate(0.000000,48.000000) scale(0.100000,-0.100000)"
fill="currentColor" stroke="currentColor" stroke-width="6" stroke-linejoin="round">
<path d="M198 313 c-155 -156 -157 -159 -174 -225 -10 -37 -15 -70 -11 -74 8
-8 137 23 154 38 19 15 16 30 -5 24 -12 -4 -30 7 -57 34 l-39 40 106 107 107
107 29 -27 c42 -40 62 -33 22 8 -34 35 -34 35 -14 55 20 20 20 20 63 -24 38
-38 42 -47 31 -61 -21 -25 2 -17 32 12 21 20 28 36 28 65 0 50 -28 78 -78 78
-35 0 -47 -10 -194 -157z m240 125 c14 -14 16 -74 4 -82 -11 -7 -94 78 -86 87
12 11 69 8 82 -5z m-355 -395 c-26 -7 -48 -11 -49 -10 -1 1 3 24 9 50 l11 48
38 -38 39 -38 -48 -12z M317 262 c-15 -2 -43 -19 -62 -37 -53 -53 -53 -127 0
-180 53 -53 127 -53 179 0 54 53 54 126 1 179 -33 33 -66 44 -118 38z m104
-51 c24 -24 29 -38 29 -76 0 -66 -39 -105 -105 -105 -66 0 -105 39 -105 105 0
66 39 105 105 105 38 0 52 -5 76 -29z M336 193 c-3 -3 -6 -14 -6 -24 0 -11 -9
-19 -22 -21 -29 -4 -30 -22 -1 -26 14 -2 23 -11 25 -25 4 -27 22 -25 26 2 2
11 12 21 25 23 27 4 25 22 -3 26 -12 2 -20 11 -20 22 0 20 -13 33 -24 23z"/>
</g>
</svg>

