<?xml version="1.0" standalone="no"?>
<!DOCTYPE svg PUBLIC "-//W3C//DTD SVG 20010904//EN"
 "http://www.w3.org/TR/2001/REC-SVG-20010904/DTD/svg10.dtd">
<svg version="1.0" xmlns="http://www.w3.org/2000/svg"
 width="48.000000pt" height="48.000000pt" viewBox="0 0 48.000000 48.000000"
 preserveAspectRatio="xMidYMid meet">
<metadata>
Created by potrace 1.16, written by Peter Selinger 2001-2019
</metadata>
<g transform="translate(0.000000,48.000000) scale(0.100000,-0.100000)"
fill="currentColor" stroke="currentColor" stroke-width="6" stroke-linejoin="round">
<path d="M377 474 c-12 -12 4 -24 31 -24 26 0 26 -1 -20 -46 l-46 -47 -74 20
c-44 12 -81 17 -93 13 -28 -11 -140 -128 -132 -137 4 -4 37 22 72 57 l65 64
62 -13 c35 -8 73 -16 85 -18 16 -4 35 8 72 42 49 46 50 46 53 20 2 -14 8 -27
13 -28 15 -3 18 72 4 89 -11 14 -80 20 -92 8z M196 274 c-13 -12 -16 -39 -16
-130 0 -95 -3 -114 -15 -114 -11 0 -15 13 -15 54 0 63 -16 86 -60 86 -44 0
-60 -23 -60 -85 0 -30 -5 -57 -10 -60 -31 -19 21 -25 220 -25 199 0 251 6 220
25 -5 3 -10 42 -10 85 0 88 -12 110 -60 110 -48 0 -60 -22 -60 -111 0 -64 -3
-79 -15 -79 -12 0 -15 19 -15 114 0 127 -8 146 -60 146 -16 0 -36 -7 -44 -16z
m74 -129 l0 -115 -30 0 -30 0 0 115 0 115 30 0 30 0 0 -115z m150 -35 l0 -80
-30 0 -30 0 0 80 0 80 30 0 30 0 0 -80z m-300 -25 c0 -54 0 -55 -30 -55 -30 0
-30 1 -30 55 0 54 0 55 30 55 30 0 30 -1 30 -55z"/>
</g>
</svg>

