<?xml version="1.0" standalone="no"?>
<!DOCTYPE svg PUBLIC "-//W3C//DTD SVG 20010904//EN"
 "http://www.w3.org/TR/2001/REC-SVG-20010904/DTD/svg10.dtd">
<svg version="1.0" xmlns="http://www.w3.org/2000/svg"
 width="48.000000pt" height="48.000000pt" viewBox="0 0 48.000000 48.000000"
 preserveAspectRatio="xMidYMid meet">
<metadata>
Created by potrace 1.16, written by Peter Selinger 2001-2019
</metadata>
<g transform="translate(0.000000,48.000000) scale(0.100000,-0.100000)"
fill="currentColor" stroke="currentColor" stroke-width="6" stroke-linejoin="round">
<path d="M40 462 c0 -4 29 -36 64 -71 72 -71 78 -73 174 -46 l63 18 45 -44 45
-44 -27 -5 c-41 -7 -35 -25 9 -28 51 -4 69 12 65 60 -4 45 -22 55 -26 15 l-3
-28 -50 46 c-37 34 -56 46 -72 42 -12 -2 -50 -10 -85 -18 l-62 -13 -63 62
c-60 59 -77 71 -77 54z M196 274 c-13 -12 -16 -39 -16 -130 0 -95 -3 -114 -15
-114 -12 0 -15 15 -15 79 0 89 -12 111 -60 111 -48 0 -60 -22 -60 -110 0 -43
-5 -82 -10 -85 -31 -19 21 -25 220 -25 199 0 251 6 220 25 -5 3 -10 28 -10 55
0 56 -18 80 -60 80 -42 0 -60 -24 -60 -81 0 -37 -4 -49 -15 -49 -12 0 -15 19
-15 114 0 127 -8 146 -60 146 -16 0 -36 -7 -44 -16z m74 -129 l0 -115 -30 0
-30 0 0 115 0 115 30 0 30 0 0 -115z m-150 -35 l0 -80 -30 0 -30 0 0 80 0 80
30 0 30 0 0 -80z m300 -30 c0 -49 -1 -50 -30 -50 -29 0 -30 1 -30 50 0 49 1
50 30 50 29 0 30 -1 30 -50z"/>
</g>
</svg>

