<?xml version="1.0" standalone="no"?>
<!DOCTYPE svg PUBLIC "-//W3C//DTD SVG 20010904//EN"
 "http://www.w3.org/TR/2001/REC-SVG-20010904/DTD/svg10.dtd">
<svg version="1.0" xmlns="http://www.w3.org/2000/svg"
 width="48.000000pt" height="48.000000pt" viewBox="0 0 48.000000 48.000000"
 preserveAspectRatio="xMidYMid meet">
<metadata>
Created by potrace 1.16, written by Peter Selinger 2001-2019
</metadata>
<g transform="translate(0.000000,48.000000) scale(0.100000,-0.100000)"
fill="currentColor" stroke="currentColor" stroke-width="6" stroke-linejoin="round">
<path d="M86 461 c5 -5 69 -37 143 -70 74 -34 137 -64 140 -66 2 -3 -4 -12
-15 -20 -18 -13 -18 -14 -1 -15 15 0 52 14 65 26 2 1 -2 19 -9 38 -15 41 -35
49 -25 11 l6 -25 -52 24 c-29 13 -94 42 -144 65 -89 40 -129 52 -108 32z M46
314 c-13 -12 -16 -41 -16 -149 0 -80 -4 -136 -10 -140 -31 -19 21 -25 220 -25
199 0 251 6 220 25 -5 3 -10 30 -10 60 0 62 -16 85 -60 85 -44 0 -60 -23 -60
-86 0 -41 -4 -54 -15 -54 -12 0 -15 17 -15 94 0 105 -10 126 -60 126 -50 0
-60 -21 -60 -126 0 -77 -3 -94 -15 -94 -13 0 -15 22 -15 134 0 149 -6 166 -60
166 -16 0 -36 -7 -44 -16z m74 -149 l0 -135 -30 0 -30 0 0 135 0 135 30 0 30
0 0 -135z m150 -40 l0 -95 -30 0 -30 0 0 95 0 95 30 0 30 0 0 -95z m150 -40
c0 -54 0 -55 -30 -55 -30 0 -30 1 -30 55 0 54 0 55 30 55 30 0 30 -1 30 -55z"/>
</g>
</svg>

