<?xml version="1.0" standalone="no"?>
<!DOCTYPE svg PUBLIC "-//W3C//DTD SVG 20010904//EN"
 "http://www.w3.org/TR/2001/REC-SVG-20010904/DTD/svg10.dtd">
<svg version="1.0" xmlns="http://www.w3.org/2000/svg"
 width="48.000000pt" height="48.000000pt" viewBox="0 0 48.000000 48.000000"
 preserveAspectRatio="xMidYMid meet">
<metadata>
Created by potrace 1.16, written by Peter Selinger 2001-2019
</metadata>
<g transform="translate(0.000000,48.000000) scale(0.100000,-0.100000)"
fill="currentColor" stroke="none">
<path d="M198 470 c-107 -19 -190 -120 -190 -229 0 -69 21 -119 69 -168 52
-51 106 -69 201 -64 40 1 82 40 82 76 0 14 7 36 16 50 12 18 13 28 5 44 -17
31 -52 51 -78 44 -37 -9 -86 42 -78 79 5 22 1 34 -23 58 -36 35 -45 37 -72 10
-33 -33 -26 -78 20 -133 58 -71 130 -127 162 -127 23 0 28 -4 28 -25 0 -40
-39 -58 -115 -53 -51 3 -73 10 -107 33 -118 84 -118 266 1 350 34 24 54 30
109 33 56 3 74 0 112 -20 67 -36 103 -94 108 -171 4 -58 -3 -86 -36 -149 -2
-5 1 -8 7 -8 21 0 52 80 52 136 2 96 -42 169 -124 208 -62 29 -99 35 -149 26z
m-10 -123 c15 -15 19 -30 15 -45 -9 -35 62 -105 98 -98 36 7 79 -35 59 -59
-21 -25 -63 -18 -113 21 -92 72 -139 158 -105 192 17 17 21 15 46 -11z"/>
</g>
</svg>

