<?xml version="1.0" standalone="no"?>
<!DOCTYPE svg PUBLIC "-//W3C//DTD SVG 20010904//EN"
 "http://www.w3.org/TR/2001/REC-SVG-20010904/DTD/svg10.dtd">
<svg version="1.0" xmlns="http://www.w3.org/2000/svg"
 width="48.000000pt" height="48.000000pt" viewBox="0 0 48.000000 48.000000"
 preserveAspectRatio="xMidYMid meet">
<metadata>
Created by potrace 1.16, written by Peter Selinger 2001-2019
</metadata>
<g transform="translate(0.000000,48.000000) scale(0.100000,-0.100000)"
fill="currentColor" stroke="currentColor" stroke-width="6" stroke-linejoin="round">
<path d="M103 473 c-48 -9 -53 -33 -53 -238 0 -149 3 -195 14 -211 13 -17 30
-19 181 -22 107 -2 171 0 178 7 7 7 5 12 -6 17 -22 8 -23 69 -2 78 13 4 15 34
15 180 0 163 -1 176 -19 186 -19 10 -261 12 -308 3z m307 -188 l0 -165 -147 0
c-82 0 -158 -3 -170 -6 l-23 -6 0 159 c0 110 4 163 12 171 8 8 60 12 170 12
l158 0 0 -165z m-30 -225 l0 -30 -150 0 c-125 0 -152 3 -156 15 -4 8 -4 22 0
30 4 12 31 15 156 15 l150 0 0 -30z M147 382 c-22 -24 -21 -47 4 -99 24 -49
66 -85 122 -103 33 -10 41 -10 58 6 21 19 25 54 7 72 -20 20 -50 14 -80 -15
l-28 -27 -28 27 c-19 20 -24 31 -17 41 49 67 48 64 31 91 -19 30 -46 32 -69 7z
m53 -18 c11 -13 9 -19 -13 -41 l-26 -26 -6 26 c-13 50 16 76 45 41z m129 -128
c17 -20 -11 -45 -43 -39 -30 6 -32 10 -9 35 19 22 36 23 52 4z"/>
</g>
</svg>

