<?xml version="1.0" standalone="no"?>
<!DOCTYPE svg PUBLIC "-//W3C//DTD SVG 20010904//EN"
 "http://www.w3.org/TR/2001/REC-SVG-20010904/DTD/svg10.dtd">
<svg version="1.0" xmlns="http://www.w3.org/2000/svg"
 width="48.000000pt" height="48.000000pt" viewBox="0 0 48.000000 48.000000"
 preserveAspectRatio="xMidYMid meet">
<metadata>
Created by potrace 1.16, written by Peter Selinger 2001-2019
</metadata>
<g transform="translate(0.000000,48.000000) scale(0.100000,-0.100000)"
fill="currentColor" stroke="currentColor" stroke-width="6" stroke-linejoin="round">
<path d="M50 460 c-12 -12 -20 -33 -20 -54 0 -19 -5 -38 -11 -42 -8 -4 -8 -9
0 -17 15 -15 14 -94 -1 -101 -10 -5 -10 -7 0 -12 15 -7 16 -86 1 -101 -8 -8
-8 -13 0 -17 6 -4 11 -23 11 -42 0 -21 8 -42 20 -54 18 -18 33 -20 175 -20
210 0 195 -18 195 240 0 258 15 240 -195 240 -142 0 -157 -2 -175 -20z m340
-220 l0 -210 -165 0 -165 0 0 38 c0 21 5 43 11 49 8 8 8 13 0 17 -15 10 -14
93 1 100 11 5 11 7 1 12 -16 7 -17 90 -2 100 8 4 8 9 0 17 -6 6 -11 28 -11 49
l0 38 165 0 165 0 0 -210z M160 350 c-11 -11 -20 -29 -20 -39 0 -54 84 -187
124 -197 29 -7 66 11 66 32 0 24 -31 64 -50 64 -27 0 -53 46 -45 80 7 32 -18
80 -41 80 -8 0 -23 -9 -34 -20z m50 -20 c7 -13 7 -26 1 -38 -13 -25 27 -96 57
-100 24 -4 47 -36 37 -52 -21 -35 -80 16 -121 105 -27 57 -29 76 -12 93 17 17
26 15 38 -8z M454 406 c-8 -21 3 -49 16 -41 5 3 10 15 10 25 0 25 -18 36 -26
16z M454 286 c-8 -21 3 -49 16 -41 13 8 13 42 0 50 -6 3 -13 -1 -16 -9z M454
166 c-8 -21 3 -49 16 -41 5 3 10 15 10 25 0 25 -18 36 -26 16z"/>
</g>
</svg>

