<?xml version="1.0" standalone="no"?>
<!DOCTYPE svg PUBLIC "-//W3C//DTD SVG 20010904//EN"
 "http://www.w3.org/TR/2001/REC-SVG-20010904/DTD/svg10.dtd">
<svg version="1.0" xmlns="http://www.w3.org/2000/svg"
 width="48.000000pt" height="48.000000pt" viewBox="0 0 48.000000 48.000000"
 preserveAspectRatio="xMidYMid meet">
<metadata>
Created by potrace 1.16, written by Peter Selinger 2001-2019
</metadata>
<g transform="translate(0.000000,48.000000) scale(0.100000,-0.100000)"
fill="currentColor" stroke="none">
<path d="M48 469 c-16 -6 -31 -22 -37 -41 -14 -40 -14 -246 0 -286 12 -36 49
-52 120 -52 40 0 49 -3 49 -17 0 -23 -11 -38 -33 -46 -41 -15 0 -27 93 -27 93
0 134 12 93 27 -22 8 -33 23 -33 46 0 14 9 17 49 17 71 0 108 16 120 52 14 40
14 246 0 286 -7 20 -21 34 -41 41 -38 14 -343 13 -380 0z m400 -146 l3 -123
-211 0 -210 0 0 33 c0 25 9 42 38 70 l38 37 24 -25 c13 -14 29 -25 35 -25 16
0 100 88 92 97 -4 4 -27 -12 -50 -35 l-43 -42 -24 25 c-30 32 -37 32 -77 -7
l-33 -32 0 70 c0 39 3 74 7 78 4 3 97 5 207 4 l201 -3 3 -122z m0 -175 c-3
-23 -3 -23 -208 -23 -205 0 -205 0 -208 23 l-3 22 211 0 211 0 -3 -22z m-166
-88 c4 -30 4 -30 -42 -30 -46 0 -46 0 -42 30 4 27 8 30 42 30 34 0 38 -3 42
-30z M335 348 c-9 -24 -1 -103 10 -103 14 0 19 95 6 108 -7 7 -12 5 -16 -5z
M274 297 c-7 -20 -2 -47 11 -50 14 -3 19 43 6 56 -7 7 -12 6 -17 -6z M394 297
c-7 -20 -2 -47 11 -50 14 -3 19 43 6 56 -7 7 -12 6 -17 -6z"/>
</g>
</svg>

