<?xml version="1.0" standalone="no"?>
<!DOCTYPE svg PUBLIC "-//W3C//DTD SVG 20010904//EN"
 "http://www.w3.org/TR/2001/REC-SVG-20010904/DTD/svg10.dtd">
<svg version="1.0" xmlns="http://www.w3.org/2000/svg"
 width="48.000000pt" height="48.000000pt" viewBox="0 0 48.000000 48.000000"
 preserveAspectRatio="xMidYMid meet">
<metadata>
Created by potrace 1.16, written by Peter Selinger 2001-2019
</metadata>
<g transform="translate(0.000000,48.000000) scale(0.100000,-0.100000)"
fill="currentColor" stroke="none">
<path d="M249 401 c-39 -63 -45 -69 -76 -69 -47 0 -90 -20 -96 -44 -4 -15 7
-33 38 -67 l44 -46 -76 -77 c-43 -43 -74 -81 -70 -85 4 -4 43 28 85 70 l78 77
34 -36 c42 -43 64 -56 83 -48 20 7 37 49 37 92 0 35 4 40 70 81 52 32 70 48
70 65 0 29 -128 156 -157 156 -15 0 -33 -19 -64 -69z m143 -8 c32 -32 58 -65
58 -74 0 -9 -30 -35 -70 -60 l-70 -44 0 -47 c0 -30 -6 -52 -17 -63 -15 -15
-22 -10 -105 71 -111 112 -114 134 -14 134 40 0 42 1 85 70 24 39 51 70 60 70
8 0 41 -26 73 -57z"/>
</g>
</svg>

