<?xml version="1.0" standalone="no"?>
<!DOCTYPE svg PUBLIC "-//W3C//DTD SVG 20010904//EN"
 "http://www.w3.org/TR/2001/REC-SVG-20010904/DTD/svg10.dtd">
<svg version="1.0" xmlns="http://www.w3.org/2000/svg"
 width="48.000000pt" height="48.000000pt" viewBox="0 0 48.000000 48.000000"
 preserveAspectRatio="xMidYMid meet">
<metadata>
Created by potrace 1.16, written by Peter Selinger 2001-2019
</metadata>
<g transform="translate(0.000000,48.000000) scale(0.100000,-0.100000)"
fill="currentColor" stroke="none">
<path d="M7 384 c-9 -10 2 -24 19 -24 8 0 14 7 14 15 0 15 -21 21 -33 9z M85
370 c-4 -7 62 -10 189 -10 124 0 196 4 196 10 0 14 -377 14 -385 0z M58 314
c-13 -12 -9 -139 4 -152 14 -14 68 -16 68 -3 0 5 -12 11 -27 13 -27 3 -28 5
-33 76 -3 41 -8 70 -12 66z M177 313 c-11 -11 -8 -163 3 -163 6 0 10 35 10 85
0 85 -1 91 -13 78z M235 307 c-14 -34 14 -157 36 -157 5 0 15 13 24 30 17 33
21 145 5 135 -5 -3 -10 -27 -11 -53 -1 -55 -12 -92 -23 -74 -4 7 -11 40 -15
75 -5 43 -10 57 -16 44z M366 304 c-19 -19 -22 -124 -4 -142 14 -14 68 -16 68
-3 0 5 -12 11 -27 13 -17 2 -29 10 -31 21 -3 13 3 17 27 17 17 0 31 5 31 10 0
6 -14 10 -31 10 -28 0 -30 2 -27 33 2 27 8 33 31 35 15 2 27 8 27 13 0 15 -47
10 -64 -7z M10 100 c0 -6 83 -10 230 -10 147 0 230 4 230 10 0 6 -83 10 -230
10 -147 0 -230 -4 -230 -10z"/>
</g>
</svg>

