<?xml version="1.0" standalone="no"?>
<!DOCTYPE svg PUBLIC "-//W3C//DTD SVG 20010904//EN"
 "http://www.w3.org/TR/2001/REC-SVG-20010904/DTD/svg10.dtd">
<svg version="1.0" xmlns="http://www.w3.org/2000/svg"
 width="48.000000pt" height="48.000000pt" viewBox="0 0 48.000000 48.000000"
 preserveAspectRatio="xMidYMid meet">
<metadata>
Created by potrace 1.16, written by Peter Selinger 2001-2019
</metadata>
<g transform="translate(0.000000,48.000000) scale(0.100000,-0.100000)"
fill="currentColor" stroke="currentColor" stroke-width="6" stroke-linejoin="round">
<path d="M127 473 c-21 -5 -37 -42 -37 -83 0 -24 -5 -29 -35 -34 -44 -9 -55
-33 -55 -116 0 -83 11 -107 55 -116 34 -6 35 -7 35 -53 0 -26 5 -52 12 -59 17
-17 259 -17 276 0 7 7 12 33 12 59 0 46 1 47 35 53 44 9 55 33 55 116 0 82
-12 108 -53 115 -32 6 -35 10 -40 52 -2 24 -10 50 -16 56 -12 12 -209 20 -244
10z m233 -68 l0 -45 -120 0 -120 0 0 45 0 45 120 0 120 0 0 -45z m90 -165 l0
-90 -30 0 c-27 0 -30 3 -30 33 0 53 -11 57 -150 57 -139 0 -150 -4 -150 -57 0
-30 -3 -33 -30 -33 l-30 0 0 90 0 90 210 0 210 0 0 -90z m-90 -120 l0 -90
-120 0 -120 0 0 90 0 90 120 0 120 0 0 -90z M75 291 c-7 -12 12 -24 25 -16 11
7 4 25 -10 25 -5 0 -11 -4 -15 -9z M165 170 c-3 -5 0 -13 8 -16 23 -9 142 0
142 11 0 14 -142 19 -150 5z M165 110 c-3 -5 0 -13 8 -16 23 -8 102 0 102 11
0 14 -102 19 -110 5z"/>
</g>
</svg>

