<?xml version="1.0" standalone="no"?>
<!DOCTYPE svg PUBLIC "-//W3C//DTD SVG 20010904//EN"
 "http://www.w3.org/TR/2001/REC-SVG-20010904/DTD/svg10.dtd">
<svg version="1.0" xmlns="http://www.w3.org/2000/svg"
 width="48.000000pt" height="48.000000pt" viewBox="0 0 48.000000 48.000000"
 preserveAspectRatio="xMidYMid meet">
<metadata>
Created by potrace 1.16, written by Peter Selinger 2001-2019
</metadata>
<g transform="translate(0.000000,48.000000) scale(0.100000,-0.100000)"
fill="currentColor" stroke="none">
<path d="M132 468 c-7 -7 -12 -26 -12 -43 0 -25 -6 -33 -30 -42 -23 -9 -37
-27 -61 -78 -27 -56 -31 -74 -27 -126 2 -32 9 -64 15 -70 6 -6 28 -13 50 -16
39 -5 40 -6 39 -47 l-1 -41 135 0 135 0 -1 41 c-1 41 0 42 39 47 22 3 44 10
50 16 6 6 13 38 15 70 4 52 0 70 -27 126 -24 51 -38 69 -61 78 -24 9 -30 17
-30 42 0 17 -5 36 -12 43 -16 16 -200 16 -216 0z m198 -78 l0 -60 -90 0 -90 0
0 60 0 60 90 0 90 0 0 -60z m-210 -48 c0 -35 21 -42 120 -42 99 0 120 7 120
42 0 34 38 21 60 -22 11 -21 20 -42 20 -45 0 -3 -90 -5 -200 -5 -110 0 -200 2
-200 5 0 3 9 24 20 45 22 43 60 56 60 22z m330 -162 l0 -60 -45 0 c-41 0 -45
2 -45 24 0 31 -15 36 -120 36 -105 0 -120 -5 -120 -36 0 -22 -4 -24 -45 -24
l-45 0 0 60 0 60 210 0 210 0 0 -60z m-105 -67 c3 -21 9 -48 12 -61 5 -22 5
-22 -117 -22 -122 0 -122 0 -117 23 3 12 9 39 12 60 l7 37 98 0 98 0 7 -37z
M400 185 c0 -8 7 -15 15 -15 8 0 15 7 15 15 0 8 -7 15 -15 15 -8 0 -15 -7 -15
-15z M195 80 c-3 -5 0 -13 8 -16 23 -8 82 0 82 11 0 14 -82 19 -90 5z"/>
</g>
</svg>

