<?xml version="1.0" standalone="no"?>
<!DOCTYPE svg PUBLIC "-//W3C//DTD SVG 20010904//EN"
 "http://www.w3.org/TR/2001/REC-SVG-20010904/DTD/svg10.dtd">
<svg version="1.0" xmlns="http://www.w3.org/2000/svg"
 width="48.000000pt" height="48.000000pt" viewBox="0 0 48.000000 48.000000"
 preserveAspectRatio="xMidYMid meet">
<metadata>
Created by potrace 1.16, written by Peter Selinger 2001-2019
</metadata>
<g transform="translate(0.000000,48.000000) scale(0.100000,-0.100000)"
fill="currentColor" stroke="none">
<path d="M242 447 c-12 -13 -22 -30 -22 -39 0 -10 -13 -18 -40 -22 -51 -8 -62
-33 -58 -125 3 -68 21 -91 26 -33 l3 32 70 0 c55 0 69 -3 69 -15 0 -8 5 -15
10 -15 6 0 10 7 10 15 0 12 14 15 70 15 l70 0 0 -55 0 -54 -107 -3 c-142 -4
-140 -23 2 -23 72 0 108 4 117 13 17 17 23 177 9 214 -7 20 -19 29 -45 33 -26
5 -37 14 -47 36 -14 36 -36 49 -82 49 -22 0 -41 -8 -55 -23z m111 -19 c28 -33
21 -38 -48 -38 -64 0 -76 8 -57 36 24 37 74 38 105 2z m95 -105 l-3 -38 -67
-3 c-56 -2 -68 0 -68 13 0 8 -4 15 -10 15 -5 0 -10 -7 -10 -15 0 -13 -12 -15
-67 -13 l-68 3 -3 38 -3 37 151 0 151 0 -3 -37z M13 139 c-18 -18 -17 -113 1
-128 9 -8 60 -11 157 -9 137 3 144 4 147 24 4 29 -29 55 -80 61 -29 4 -50 14
-63 30 -17 21 -32 26 -85 30 -46 3 -69 1 -77 -8z m146 -33 c10 -12 8 -15 -14
-18 -14 -2 -27 -7 -28 -13 -1 -6 32 -11 80 -13 56 -2 85 -7 93 -17 11 -13 -5
-15 -124 -15 l-136 0 0 45 0 45 59 0 c38 0 63 -5 70 -14z"/>
</g>
</svg>

