<?xml version="1.0" standalone="no"?>
<!DOCTYPE svg PUBLIC "-//W3C//DTD SVG 20010904//EN"
 "http://www.w3.org/TR/2001/REC-SVG-20010904/DTD/svg10.dtd">
<svg version="1.0" xmlns="http://www.w3.org/2000/svg"
 width="48.000000pt" height="48.000000pt" viewBox="0 0 48.000000 48.000000"
 preserveAspectRatio="xMidYMid meet">
<metadata>
Created by potrace 1.16, written by Peter Selinger 2001-2019
</metadata>
<g transform="translate(0.000000,48.000000) scale(0.100000,-0.100000)"
fill="currentColor" stroke="none">
<path d="M83 450 c-29 -12 -29 -22 2 -59 29 -34 85 -56 121 -47 21 6 24 3 24
-24 0 -16 5 -30 10 -30 6 0 10 14 10 30 0 27 3 30 24 24 36 -9 92 13 121 47
32 39 31 47 -2 60 -38 14 -86 3 -123 -28 l-31 -26 -22 21 c-40 38 -90 49 -134
32z m116 -45 c32 -32 18 -50 -32 -41 -38 7 -83 48 -72 66 12 19 76 4 104 -25z
m186 24 c11 -17 -35 -58 -72 -65 -46 -9 -63 8 -37 37 32 35 95 52 109 28z M88
293 l-48 -14 0 -92 0 -92 100 -37 100 -37 100 37 100 37 0 92 0 92 -47 14
c-55 17 -82 9 -38 -9 33 -14 35 -12 -57 -43 -58 -20 -58 -20 -115 0 -93 31
-91 29 -58 43 44 18 17 26 -37 9z m135 -83 c4 0 7 -36 7 -81 0 -92 11 -87
-105 -44 l-60 23 -3 75 -3 76 78 -24 c43 -14 81 -25 86 -25z m190 -100 c-7 -7
-149 -60 -159 -60 -2 0 -4 35 -4 79 l0 78 83 25 82 24 3 -69 c2 -39 -1 -73 -5
-77z"/>
</g>
</svg>

