<?xml version="1.0" standalone="no"?>
<!DOCTYPE svg PUBLIC "-//W3C//DTD SVG 20010904//EN"
 "http://www.w3.org/TR/2001/REC-SVG-20010904/DTD/svg10.dtd">
<svg version="1.0" xmlns="http://www.w3.org/2000/svg"
 width="48.000000pt" height="48.000000pt" viewBox="0 0 48.000000 48.000000"
 preserveAspectRatio="xMidYMid meet">
<metadata>
Created by potrace 1.16, written by Peter Selinger 2001-2019
</metadata>
<g transform="translate(0.000000,48.000000) scale(0.100000,-0.100000)"
fill="currentColor" stroke="currentColor" stroke-width="6" stroke-linejoin="round">
<path d="M150 472 c-29 -9 -50 -35 -56 -68 -5 -28 -11 -34 -33 -34 -54 0 -56
-6 -56 -179 0 -118 3 -163 13 -173 9 -9 42 -13 102 -13 121 0 123 19 2 23
l-92 3 0 159 0 160 29 0 c26 0 30 -4 33 -32 2 -18 8 -33 13 -33 6 0 11 15 13
33 3 31 5 32 47 32 42 0 44 -1 47 -32 2 -18 8 -33 13 -33 6 0 11 15 13 33 3
28 7 32 31 32 21 0 30 -6 34 -21 3 -12 10 -18 16 -15 11 7 3 37 -13 48 -6 4
-23 8 -37 8 -22 0 -28 6 -33 34 -9 46 -50 80 -86 68z m48 -34 c7 -7 12 -25 12
-40 0 -27 -2 -28 -45 -28 -43 0 -45 1 -45 28 0 33 16 52 45 52 12 0 26 -5 33
-12z M334 235 c16 -25 16 -25 -13 -25 -40 0 -51 -23 -51 -104 0 -98 -2 -96
105 -96 107 0 105 -2 105 96 0 81 -11 104 -51 104 -29 0 -29 0 -13 25 20 30 5
33 -21 5 l-18 -20 -22 20 c-29 28 -41 25 -21 -5z m26 -80 c0 -32 -2 -35 -30
-35 -28 0 -30 3 -30 35 0 32 2 35 30 35 28 0 30 -3 30 -35z m90 0 c0 -32 -2
-35 -30 -35 -28 0 -30 3 -30 35 0 32 2 35 30 35 28 0 30 -3 30 -35z m-90 -90
c0 -32 -2 -35 -30 -35 -28 0 -30 3 -30 35 0 32 2 35 30 35 28 0 30 -3 30 -35z
m90 0 c0 -32 -2 -35 -30 -35 -28 0 -30 3 -30 35 0 32 2 35 30 35 28 0 30 -3
30 -35z"/>
</g>
</svg>

