<?xml version="1.0" standalone="no"?>
<!DOCTYPE svg PUBLIC "-//W3C//DTD SVG 20010904//EN"
 "http://www.w3.org/TR/2001/REC-SVG-20010904/DTD/svg10.dtd">
<svg version="1.0" xmlns="http://www.w3.org/2000/svg"
 width="48.000000pt" height="48.000000pt" viewBox="0 0 48.000000 48.000000"
 preserveAspectRatio="xMidYMid meet">
<metadata>
Created by potrace 1.16, written by Peter Selinger 2001-2019
</metadata>
<g transform="translate(0.000000,48.000000) scale(0.100000,-0.100000)"
fill="currentColor" stroke="none">
<path d="M190 468 c-13 -7 -28 -27 -33 -44 -8 -28 -14 -32 -54 -37 -25 -2 -50
-10 -56 -16 -7 -7 -12 -47 -13 -99 0 -48 -4 -110 -8 -137 -8 -46 -6 -54 19
-83 34 -40 77 -52 195 -52 118 0 161 12 195 52 25 29 27 37 19 83 -4 27 -8 89
-8 137 -1 52 -6 92 -13 99 -6 6 -32 14 -57 16 -39 5 -46 9 -51 34 -4 15 -13
33 -20 39 -22 18 -87 22 -115 8z m110 -48 l0 -30 -60 0 -60 0 0 30 0 30 60 0
60 0 0 -30z m120 -117 c0 -72 -17 -93 -77 -93 -30 0 -49 6 -63 20 -25 25 -55
25 -80 0 -25 -25 -95 -27 -122 -3 -13 12 -18 31 -18 75 l0 58 180 0 180 0 0
-57z m-155 -108 c0 -25 -4 -30 -25 -30 -16 0 -26 6 -28 18 -6 30 6 49 30 45
18 -2 23 -9 23 -33z m-107 -15 c12 0 31 -9 42 -20 25 -25 55 -25 80 0 11 11
30 20 43 20 12 1 39 7 59 14 l38 14 10 -37 c15 -55 12 -77 -16 -110 l-26 -31
-146 0 c-153 1 -168 4 -190 47 -15 27 -15 47 -2 94 l10 37 38 -14 c20 -7 47
-13 60 -14z"/>
</g>
</svg>

