<?xml version="1.0" standalone="no"?>
<!DOCTYPE svg PUBLIC "-//W3C//DTD SVG 20010904//EN"
 "http://www.w3.org/TR/2001/REC-SVG-20010904/DTD/svg10.dtd">
<svg version="1.0" xmlns="http://www.w3.org/2000/svg"
 width="48.000000pt" height="48.000000pt" viewBox="0 0 48.000000 48.000000"
 preserveAspectRatio="xMidYMid meet">
<metadata>
Created by potrace 1.16, written by Peter Selinger 2001-2019
</metadata>
<g transform="translate(0.000000,48.000000) scale(0.100000,-0.100000)"
fill="currentColor" stroke="currentColor" stroke-width="6" stroke-linejoin="round">
<path d="M197 464 c-16 -16 -6 -54 19 -73 l27 -21 -50 0 c-27 0 -54 -5 -61
-12 -16 -16 -15 -63 2 -81 8 -8 16 -29 18 -48 4 -43 22 -44 26 -1 3 32 4 32
58 32 l54 0 0 -45 c0 -25 5 -45 10 -45 6 0 10 20 10 45 l0 45 55 0 55 0 0 -59
0 -60 -45 -3 c-58 -4 -59 -22 -1 -26 61 -4 76 13 76 89 0 40 5 65 15 75 17 18
19 47 5 75 -9 15 -22 19 -62 19 l-51 0 27 21 c39 30 33 74 -9 74 -22 0 -34 -8
-50 -32 -11 -18 -22 -32 -25 -32 -3 0 -14 14 -25 32 -19 31 -61 47 -78 31z
m66 -46 c11 -15 18 -31 14 -35 -10 -10 -61 31 -65 51 -6 27 27 16 51 -16z
m127 18 c0 -15 -45 -56 -61 -56 -15 0 -10 16 12 44 22 28 49 35 49 12z m-100
-116 l0 -30 -70 0 -70 0 0 30 0 30 70 0 70 0 0 -30z m160 0 l0 -30 -70 0 -70
0 0 30 0 30 70 0 70 0 0 -30z M13 139 c-18 -18 -17 -113 1 -128 9 -8 60 -11
157 -9 137 3 144 4 147 24 4 29 -29 55 -80 61 -29 4 -50 14 -63 30 -17 21 -32
26 -85 30 -46 3 -69 1 -77 -8z m146 -33 c10 -12 8 -15 -14 -18 -14 -2 -27 -7
-28 -13 -1 -6 32 -11 80 -13 56 -2 85 -7 93 -17 11 -13 -5 -15 -124 -15 l-136
0 0 45 0 45 59 0 c38 0 63 -5 70 -14z"/>
</g>
</svg>

