<?xml version="1.0" standalone="no"?>
<!DOCTYPE svg PUBLIC "-//W3C//DTD SVG 20010904//EN"
 "http://www.w3.org/TR/2001/REC-SVG-20010904/DTD/svg10.dtd">
<svg version="1.0" xmlns="http://www.w3.org/2000/svg"
 width="48.000000pt" height="48.000000pt" viewBox="0 0 48.000000 48.000000"
 preserveAspectRatio="xMidYMid meet">
<metadata>
Created by potrace 1.16, written by Peter Selinger 2001-2019
</metadata>
<g transform="translate(0.000000,48.000000) scale(0.100000,-0.100000)"
fill="currentColor" stroke="none">
<path d="M182 469 c-13 -5 -29 -22 -35 -39 -11 -28 -15 -30 -63 -30 -65 0 -77
-14 -82 -96 -3 -48 0 -70 13 -90 14 -22 15 -35 5 -96 -12 -82 -8 -104 23 -112
29 -8 365 -8 394 0 31 8 35 30 23 112 -10 61 -9 74 5 96 13 20 16 42 13 90 -5
82 -17 96 -82 96 -48 0 -52 2 -63 30 -17 45 -90 64 -151 39z m126 -31 c29 -29
13 -38 -68 -38 -59 0 -80 3 -80 13 0 26 25 37 80 37 31 0 61 -5 68 -12z m140
-140 l3 -78 -73 0 c-73 0 -74 0 -85 30 -10 27 -16 30 -53 30 -37 0 -43 -3 -53
-30 -11 -30 -12 -30 -84 -30 l-73 0 0 73 c0 41 3 77 7 81 4 3 97 5 207 4 l201
-3 3 -77z m-180 -75 c-3 -33 -6 -38 -28 -38 -22 0 -25 5 -28 38 -3 35 -2 37
28 37 30 0 31 -2 28 -37z m-70 -43 c8 -13 23 -20 42 -20 19 0 34 7 42 20 11
17 24 20 79 20 l66 0 6 -42 c3 -24 9 -62 13 -85 l7 -43 -213 0 -213 0 7 43 c4
23 10 61 13 85 l6 42 66 0 c55 0 68 -3 79 -20z"/>
</g>
</svg>

