<?xml version="1.0" standalone="no"?>
<!DOCTYPE svg PUBLIC "-//W3C//DTD SVG 20010904//EN"
 "http://www.w3.org/TR/2001/REC-SVG-20010904/DTD/svg10.dtd">
<svg version="1.0" xmlns="http://www.w3.org/2000/svg"
 width="48.000000pt" height="48.000000pt" viewBox="0 0 48.000000 48.000000"
 preserveAspectRatio="xMidYMid meet">
<metadata>
Created by potrace 1.16, written by Peter Selinger 2001-2019
</metadata>
<g transform="translate(0.000000,48.000000) scale(0.100000,-0.100000)"
fill="currentColor" stroke="none">
<path d="M182 447 c-23 -25 -34 -88 -17 -97 6 -3 13 14 16 38 6 47 20 62 59
62 39 0 53 -15 59 -62 7 -50 27 -49 24 1 -6 74 -93 110 -141 58z M64 293 c-48
-10 -59 -38 -59 -144 0 -89 2 -101 23 -121 22 -22 28 -23 212 -23 184 0 190 1
212 23 21 20 23 32 23 122 0 90 -2 102 -23 122 -22 22 -30 23 -195 25 -94 0
-182 -1 -193 -4z m374 -35 c7 -7 12 -38 12 -70 0 -52 -2 -58 -21 -58 -27 0
-79 -52 -79 -79 0 -20 -5 -21 -110 -21 -105 0 -110 1 -110 21 0 27 -52 79 -79
79 -19 0 -21 6 -21 58 0 32 5 63 12 70 17 17 379 17 396 0z m-348 -168 c30
-30 26 -60 -8 -60 -15 0 -33 5 -40 12 -7 7 -12 25 -12 40 0 34 30 38 60 8z
m360 -8 c0 -36 -16 -52 -52 -52 -34 0 -38 30 -8 60 30 30 60 26 60 -8z M105
200 c-3 -5 2 -13 12 -16 10 -3 25 -9 34 -14 9 -5 20 -5 25 0 5 5 52 10 104 12
57 2 94 7 93 13 -4 14 -259 19 -268 5z"/>
</g>
</svg>

