<?xml version="1.0" standalone="no"?>
<!DOCTYPE svg PUBLIC "-//W3C//DTD SVG 20010904//EN"
 "http://www.w3.org/TR/2001/REC-SVG-20010904/DTD/svg10.dtd">
<svg version="1.0" xmlns="http://www.w3.org/2000/svg"
 width="48.000000pt" height="48.000000pt" viewBox="0 0 48.000000 48.000000"
 preserveAspectRatio="xMidYMid meet">
<metadata>
Created by potrace 1.16, written by Peter Selinger 2001-2019
</metadata>
<g transform="translate(0.000000,48.000000) scale(0.100000,-0.100000)"
fill="currentColor" stroke="none">
<path d="M77 464 c-16 -16 -6 -54 19 -73 l27 -21 -50 0 c-27 0 -54 -5 -61 -12
-17 -17 -15 -64 3 -82 10 -10 15 -35 15 -80 0 -91 9 -97 121 -94 51 2 89 7 89
13 1 6 -11 11 -25 13 -24 3 -25 6 -25 68 l0 64 51 0 c38 0 55 -5 65 -17 12
-17 13 -17 20 2 4 11 14 26 21 33 16 16 17 46 3 73 -9 15 -22 19 -62 19 l-51
0 27 21 c39 30 33 74 -9 74 -22 0 -34 -8 -50 -32 -11 -18 -22 -32 -25 -32 -3
0 -14 14 -25 32 -19 31 -61 47 -78 31z m66 -46 c11 -15 18 -31 14 -35 -10 -10
-61 31 -65 51 -6 27 27 16 51 -16z m127 18 c0 -8 -12 -24 -26 -35 -46 -36 -59
-23 -23 23 22 28 49 35 49 12z m-100 -116 l0 -30 -70 0 -70 0 0 30 0 30 70 0
70 0 0 -30z m160 0 l0 -30 -70 0 -70 0 0 30 0 30 70 0 70 0 0 -30z m-160 -125
l0 -65 -55 0 -55 0 0 65 0 65 55 0 55 0 0 -65z M260 211 c0 -5 7 -14 15 -21 9
-7 15 -29 15 -53 0 -35 6 -48 42 -84 49 -50 74 -54 111 -15 37 39 34 61 -16
110 -36 36 -49 42 -84 42 -24 0 -46 6 -53 15 -14 17 -30 20 -30 6z m152 -78
c44 -43 45 -49 16 -80 -29 -31 -36 -29 -80 14 -29 28 -38 45 -38 70 0 30 2 33
32 33 24 0 42 -10 70 -37z"/>
</g>
</svg>

