<?xml version="1.0" standalone="no"?>
<!DOCTYPE svg PUBLIC "-//W3C//DTD SVG 20010904//EN"
 "http://www.w3.org/TR/2001/REC-SVG-20010904/DTD/svg10.dtd">
<svg version="1.0" xmlns="http://www.w3.org/2000/svg"
 width="48.000000pt" height="48.000000pt" viewBox="0 0 48.000000 48.000000"
 preserveAspectRatio="xMidYMid meet">
<metadata>
Created by potrace 1.16, written by Peter Selinger 2001-2019
</metadata>
<g transform="translate(0.000000,48.000000) scale(0.100000,-0.100000)"
fill="currentColor" stroke="none">
<path d="M33 440 c-30 -12 -35 -49 -31 -228 2 -107 7 -155 16 -164 19 -19 425
-19 444 0 19 19 19 365 0 384 -16 16 -394 23 -429 8z m417 -50 l0 -30 -210 0
-210 0 0 30 0 30 210 0 210 0 0 -30z m0 -195 l0 -135 -210 0 -210 0 0 135 0
135 210 0 210 0 0 -135z M112 227 l-32 -33 35 -34 c19 -18 37 -31 40 -29 3 3
-6 16 -20 29 -31 30 -31 37 2 72 15 15 22 28 17 28 -6 0 -24 -15 -42 -33z
M230 200 c-33 -66 -34 -70 -20 -70 8 0 70 110 70 125 0 3 -4 5 -10 5 -5 0 -23
-27 -40 -60z M343 232 c33 -35 33 -42 2 -72 -14 -13 -23 -26 -20 -29 3 -2 21
11 40 29 l35 34 -32 33 c-18 18 -36 33 -42 33 -5 0 2 -13 17 -28z"/>
</g>
</svg>

