<?xml version="1.0" standalone="no"?>
<!DOCTYPE svg PUBLIC "-//W3C//DTD SVG 20010904//EN"
 "http://www.w3.org/TR/2001/REC-SVG-20010904/DTD/svg10.dtd">
<svg version="1.0" xmlns="http://www.w3.org/2000/svg"
 width="48.000000pt" height="48.000000pt" viewBox="0 0 48.000000 48.000000"
 preserveAspectRatio="xMidYMid meet">
<metadata>
Created by potrace 1.16, written by Peter Selinger 2001-2019
</metadata>
<g transform="translate(0.000000,48.000000) scale(0.100000,-0.100000)"
fill="currentColor" stroke="none">
<path d="M170 468 c-42 -22 -50 -53 -50 -189 l0 -126 -38 -7 c-70 -11 -98 -75
-53 -119 20 -20 32 -22 151 -22 177 0 174 -3 178 185 l4 140 48 0 c59 0 75 16
67 67 -11 68 -32 78 -165 81 -81 2 -125 -1 -142 -10z m170 -44 c-6 -14 -10
-103 -10 -198 0 -181 -3 -196 -46 -196 -47 0 -60 66 -16 85 38 17 18 30 -51
33 l-67 3 0 137 c0 94 4 142 12 150 8 8 45 12 100 12 l88 0 -10 -26z m98 14
c7 -7 12 -27 12 -45 0 -32 -1 -33 -45 -33 -44 0 -45 1 -45 33 0 38 15 57 45
57 12 0 26 -5 33 -12z m-217 -340 c-5 -13 -5 -33 0 -45 8 -23 8 -23 -79 -23
-93 0 -112 8 -112 45 0 37 19 45 112 45 86 0 87 0 79 -22z M195 380 c-3 -5 0
-13 8 -16 23 -8 82 0 82 11 0 14 -82 19 -90 5z M195 320 c-3 -5 0 -13 8 -16
23 -8 82 0 82 11 0 14 -82 19 -90 5z M195 260 c-3 -5 0 -13 8 -16 23 -8 82 0
82 11 0 14 -82 19 -90 5z"/>
</g>
</svg>

