<?xml version="1.0" standalone="no"?>
<!DOCTYPE svg PUBLIC "-//W3C//DTD SVG 20010904//EN"
 "http://www.w3.org/TR/2001/REC-SVG-20010904/DTD/svg10.dtd">
<svg version="1.0" xmlns="http://www.w3.org/2000/svg"
 width="48.000000pt" height="48.000000pt" viewBox="0 0 48.000000 48.000000"
 preserveAspectRatio="xMidYMid meet">
<metadata>
Created by potrace 1.16, written by Peter Selinger 2001-2019
</metadata>
<g transform="translate(0.000000,48.000000) scale(0.100000,-0.100000)"
fill="currentColor" stroke="currentColor" stroke-width="6" stroke-linejoin="round">
<path d="M12 468 c-16 -16 -16 -110 0 -126 7 -7 35 -12 63 -12 28 0 56 5 63
12 16 16 16 110 0 126 -7 7 -35 12 -63 12 -28 0 -56 -5 -63 -12z m108 -63 l0
-45 -45 0 -45 0 0 45 0 45 45 0 45 0 0 -45z M235 470 c-8 -13 20 -24 41 -16
20 8 9 26 -16 26 -10 0 -22 -5 -25 -10z M342 468 c-16 -16 -16 -110 0 -126 7
-7 35 -12 63 -12 28 0 56 5 63 12 16 16 16 110 0 126 -7 7 -35 12 -63 12 -28
0 -56 -5 -63 -12z m108 -63 l0 -45 -45 0 -45 0 0 45 0 45 45 0 45 0 0 -45z
M186 463 c-10 -11 -7 -48 6 -61 15 -15 45 -16 53 -1 4 6 -2 13 -14 16 -12 3
-21 13 -21 24 0 19 -13 32 -24 22z M276 403 c-3 -3 -6 -14 -6 -24 0 -13 -9
-19 -37 -21 -48 -4 -46 -22 2 -26 43 -4 65 11 65 44 0 24 -12 38 -24 27z M17
294 c-14 -14 7 -24 52 -24 26 0 52 -5 58 -11 16 -16 28 8 13 26 -13 15 -110
22 -123 9z M195 290 c-3 -6 2 -13 12 -16 10 -3 26 -10 35 -15 22 -11 34 7 18
26 -14 17 -56 20 -65 5z M365 280 c-4 -6 0 -19 8 -28 7 -9 17 -25 20 -35 8
-22 27 -13 27 12 0 24 -46 66 -55 51z M455 280 c-4 -6 -3 -16 3 -22 6 -6 12
-6 17 2 4 6 3 16 -3 22 -6 6 -12 6 -17 -2z M304 243 c-3 -10 -9 -25 -14 -34
-11 -21 -3 -29 26 -29 25 0 40 15 24 25 -5 3 -10 15 -10 25 0 26 -19 35 -26
13z M5 220 c-10 -17 22 -47 35 -34 7 7 4 16 -9 28 -14 12 -21 14 -26 6z M185
220 c-10 -17 22 -47 35 -34 7 7 4 16 -9 28 -14 12 -21 14 -26 6z M456 211 c-4
-5 -2 -12 3 -15 5 -4 12 -2 15 3 4 5 2 12 -3 15 -5 4 -12 2 -15 -3z M105 201
c-7 -12 12 -24 25 -16 11 7 4 25 -10 25 -5 0 -11 -4 -15 -9z M12 138 c-16 -16
-16 -110 0 -126 16 -16 110 -16 126 0 16 16 16 110 0 126 -16 16 -110 16 -126
0z m108 -63 l0 -45 -45 0 -45 0 0 45 0 45 45 0 45 0 0 -45z M257 144 c-3 -3
-1 -14 5 -24 9 -14 9 -22 -1 -33 -8 -11 -9 -17 -1 -22 16 -10 40 14 40 39 0
31 -27 56 -43 40z M407 144 c-10 -11 3 -24 24 -24 10 0 19 -7 19 -15 0 -8 -8
-15 -18 -15 -24 0 -42 -19 -42 -46 0 -28 23 -46 52 -42 30 4 30 22 1 26 -27 4
-31 32 -5 32 24 0 42 19 42 45 0 12 -5 26 -12 33 -13 13 -50 16 -61 6z M186
133 c-12 -13 -6 -110 8 -122 17 -14 91 -11 91 4 0 6 -17 11 -37 13 l-38 3 0
49 c0 46 -9 67 -24 53z M335 128 c-9 -24 -1 -113 10 -111 14 4 19 103 6 116
-7 7 -12 5 -16 -5z"/>
</g>
</svg>

