<?xml version="1.0" standalone="no"?>
<!DOCTYPE svg PUBLIC "-//W3C//DTD SVG 20010904//EN"
 "http://www.w3.org/TR/2001/REC-SVG-20010904/DTD/svg10.dtd">
<svg version="1.0" xmlns="http://www.w3.org/2000/svg"
 width="48.000000pt" height="48.000000pt" viewBox="0 0 48.000000 48.000000"
 preserveAspectRatio="xMidYMid meet">
<metadata>
Created by potrace 1.16, written by Peter Selinger 2001-2019
</metadata>
<g transform="translate(0.000000,48.000000) scale(0.100000,-0.100000)"
fill="currentColor" stroke="currentColor" stroke-width="6" stroke-linejoin="round">
<path d="M172 363 c-6 -2 -15 -22 -18 -44 l-7 -39 -56 0 c-81 0 -86 -6 -86
-92 l0 -73 235 0 235 0 0 58 c-1 69 -9 77 -86 77 l-56 0 -5 51 c-3 28 -12 55
-19 60 -15 9 -115 11 -137 2z m128 -123 l0 -110 -60 0 -60 0 0 110 0 110 60 0
60 0 0 -110z m-150 -45 l0 -65 -60 0 -60 0 0 65 0 65 60 0 60 0 0 -65z m300
-15 l0 -50 -60 0 -60 0 0 50 0 50 60 0 60 0 0 -50z M223 248 c2 -7 10 -13 17
-13 7 0 15 6 18 13 2 7 -5 12 -18 12 -13 0 -20 -5 -17 -12z M75 201 c-7 -12
12 -24 25 -16 11 7 4 25 -10 25 -5 0 -11 -4 -15 -9z M374 189 c-10 -17 13 -36
27 -22 12 12 4 33 -11 33 -5 0 -12 -5 -16 -11z"/>
</g>
</svg>

