<?xml version="1.0" standalone="no"?>
<!DOCTYPE svg PUBLIC "-//W3C//DTD SVG 20010904//EN"
 "http://www.w3.org/TR/2001/REC-SVG-20010904/DTD/svg10.dtd">
<svg version="1.0" xmlns="http://www.w3.org/2000/svg"
 width="48.000000pt" height="48.000000pt" viewBox="0 0 48.000000 48.000000"
 preserveAspectRatio="xMidYMid meet">
<metadata>
Created by potrace 1.16, written by Peter Selinger 2001-2019
</metadata>
<g transform="translate(0.000000,48.000000) scale(0.100000,-0.100000)"
fill="currentColor" stroke="none">
<path d="M218 445 c-7 -16 -19 -25 -35 -25 -32 0 -40 -27 -16 -52 17 -17 19
-24 10 -49 -14 -37 -4 -46 38 -30 28 10 39 9 64 -3 24 -13 31 -13 40 -2 9 10
9 20 0 40 -11 23 -9 29 10 50 27 28 21 46 -15 46 -16 0 -28 8 -36 25 -6 14
-20 25 -30 25 -10 0 -24 -11 -30 -25z m52 -37 c0 -4 11 -8 25 -8 28 0 34 -17
9 -27 -12 -4 -14 -14 -9 -40 l6 -34 -28 15 c-24 12 -31 12 -48 0 -28 -21 -36
-17 -24 13 8 22 6 30 -12 50 l-22 23 26 0 c20 0 31 7 39 26 11 24 13 25 25 8
7 -10 13 -21 13 -26z M193 233 c-9 -3 -13 -36 -13 -113 0 -117 1 -120 60 -120
59 0 60 3 60 120 0 89 -3 109 -16 114 -18 7 -73 7 -91 -1z m87 -113 l0 -90
-40 0 -40 0 0 90 0 90 40 0 40 0 0 -90z M16 164 c-22 -21 -22 -127 0 -148 18
-18 66 -21 95 -6 16 9 19 22 19 78 0 40 -5 73 -12 80 -17 17 -84 15 -102 -4z
m94 -74 l0 -60 -40 0 -40 0 0 60 0 60 40 0 40 0 0 -60z M368 129 c-21 -12 -25
-98 -6 -117 17 -17 84 -15 102 4 9 9 16 32 16 54 0 22 -7 45 -16 54 -17 18
-70 21 -96 5z m82 -59 l0 -40 -40 0 -40 0 0 40 0 40 40 0 40 0 0 -40z"/>
</g>
</svg>

