<?xml version="1.0" standalone="no"?>
<!DOCTYPE svg PUBLIC "-//W3C//DTD SVG 20010904//EN"
 "http://www.w3.org/TR/2001/REC-SVG-20010904/DTD/svg10.dtd">
<svg version="1.0" xmlns="http://www.w3.org/2000/svg"
 width="48.000000pt" height="48.000000pt" viewBox="0 0 48.000000 48.000000"
 preserveAspectRatio="xMidYMid meet">
<metadata>
Created by potrace 1.16, written by Peter Selinger 2001-2019
</metadata>
<g transform="translate(0.000000,48.000000) scale(0.100000,-0.100000)"
fill="currentColor" stroke="none">
<path d="M212 410 c-11 -19 -25 -30 -39 -30 -32 0 -38 -18 -14 -44 19 -20 20
-27 10 -50 -18 -38 -1 -53 40 -36 25 10 37 10 62 0 41 -17 58 -2 40 36 -10 23
-9 30 10 50 24 26 18 44 -14 44 -14 0 -28 11 -39 30 -9 17 -22 30 -28 30 -6 0
-19 -13 -28 -30z m46 -25 c8 -18 20 -25 39 -25 l28 0 -25 -20 c-23 -17 -24
-22 -13 -49 13 -36 11 -37 -22 -15 -23 15 -27 15 -50 0 -33 -22 -35 -21 -22
13 10 26 8 32 -14 50 l-24 20 28 1 c19 0 31 7 39 25 6 14 14 25 18 25 4 0 12
-11 18 -25z M78 215 c-7 -16 -19 -25 -35 -25 -30 0 -40 -26 -19 -49 13 -14 16
-28 11 -54 -8 -43 6 -54 41 -30 25 16 28 16 56 0 39 -22 51 -13 43 30 -5 26
-2 40 11 54 21 23 11 49 -19 49 -16 0 -28 9 -35 25 -6 14 -19 25 -27 25 -8 0
-21 -11 -27 -25z m77 -45 c30 0 32 -10 5 -33 -17 -14 -19 -21 -9 -38 14 -27 7
-32 -23 -18 -19 8 -31 8 -48 -1 -27 -15 -35 -8 -21 19 10 17 8 24 -9 38 -26
23 -25 33 3 33 15 0 29 9 37 26 l14 25 13 -25 c9 -17 22 -26 38 -26z M348 215
c-7 -16 -19 -25 -35 -25 -30 0 -40 -26 -19 -49 13 -14 16 -28 11 -54 -8 -43 6
-54 41 -30 25 16 28 16 56 0 39 -22 51 -13 43 30 -5 26 -2 40 11 54 21 23 11
49 -19 49 -16 0 -28 9 -35 25 -6 14 -19 25 -27 25 -8 0 -21 -11 -27 -25z m77
-45 c30 0 32 -10 5 -33 -17 -14 -19 -21 -9 -38 14 -27 7 -32 -23 -18 -19 8
-31 8 -48 -1 -27 -15 -35 -8 -21 19 10 17 8 24 -9 38 -27 23 -25 33 5 33 18 0
29 8 37 26 l12 25 13 -25 c9 -17 22 -26 38 -26z"/>
</g>
</svg>

