<?xml version="1.0" standalone="no"?>
<!DOCTYPE svg PUBLIC "-//W3C//DTD SVG 20010904//EN"
 "http://www.w3.org/TR/2001/REC-SVG-20010904/DTD/svg10.dtd">
<svg version="1.0" xmlns="http://www.w3.org/2000/svg"
 width="48.000000pt" height="48.000000pt" viewBox="0 0 48.000000 48.000000"
 preserveAspectRatio="xMidYMid meet">
<metadata>
Created by potrace 1.16, written by Peter Selinger 2001-2019
</metadata>
<g transform="translate(0.000000,48.000000) scale(0.100000,-0.100000)"
fill="currentColor" stroke="currentColor" stroke-width="6" stroke-linejoin="round">
<path d="M208 445 c-6 -14 -19 -25 -29 -25 -51 0 -63 -29 -27 -67 18 -20 20
-26 10 -48 -7 -14 -12 -32 -12 -40 0 -20 35 -19 65 1 23 15 27 15 50 0 30 -20
65 -21 65 -1 0 8 -5 26 -12 40 -10 22 -8 28 10 48 36 38 24 67 -27 67 -10 0
-23 11 -29 25 -7 15 -20 25 -32 25 -12 0 -25 -10 -32 -25z m54 -25 c12 -22 25
-30 44 -30 l27 0 -23 -25 c-21 -22 -22 -29 -13 -60 13 -40 12 -40 -27 -20 -27
14 -33 14 -60 0 -39 -20 -40 -20 -27 20 9 31 8 38 -13 60 l-23 25 27 0 c19 0
32 8 44 30 9 16 19 30 22 30 3 0 13 -14 22 -30z M88 205 c-6 -14 -19 -25 -29
-25 -51 0 -63 -29 -27 -67 18 -20 20 -26 10 -48 -7 -14 -12 -32 -12 -40 0 -20
35 -19 65 1 23 15 27 15 50 0 30 -20 65 -21 65 -1 0 8 -5 26 -12 40 -10 22 -8
28 10 48 36 38 24 67 -27 67 -10 0 -23 11 -29 25 -7 15 -20 25 -32 25 -12 0
-25 -10 -32 -25z m54 -25 c12 -22 25 -30 44 -30 l27 0 -23 -25 c-21 -22 -22
-29 -13 -60 13 -40 12 -40 -27 -20 -27 14 -33 14 -60 0 -39 -20 -40 -20 -27
20 9 31 8 38 -13 60 l-23 25 27 0 c19 0 32 8 44 30 9 16 19 30 22 30 3 0 13
-14 22 -30z M328 205 c-6 -14 -19 -25 -29 -25 -51 0 -63 -29 -27 -67 18 -20
20 -26 10 -48 -7 -14 -12 -32 -12 -40 0 -20 35 -19 65 1 23 15 27 15 50 0 30
-20 65 -21 65 -1 0 8 -5 26 -12 40 -10 22 -8 28 10 48 36 38 24 67 -27 67 -10
0 -23 11 -29 25 -7 15 -20 25 -32 25 -12 0 -25 -10 -32 -25z m54 -25 c12 -22
25 -30 44 -30 l27 0 -23 -25 c-21 -22 -22 -29 -13 -60 13 -40 12 -40 -27 -20
-27 14 -33 14 -60 0 -39 -20 -40 -20 -27 20 9 31 8 38 -13 60 l-23 25 27 0
c19 0 32 8 44 30 9 16 19 30 22 30 3 0 13 -14 22 -30z"/>
</g>
</svg>

