<?xml version="1.0" standalone="no"?>
<!DOCTYPE svg PUBLIC "-//W3C//DTD SVG 20010904//EN"
 "http://www.w3.org/TR/2001/REC-SVG-20010904/DTD/svg10.dtd">
<svg version="1.0" xmlns="http://www.w3.org/2000/svg"
 width="48.000000pt" height="48.000000pt" viewBox="0 0 48.000000 48.000000"
 preserveAspectRatio="xMidYMid meet">
<metadata>
Created by potrace 1.16, written by Peter Selinger 2001-2019
</metadata>
<g transform="translate(0.000000,48.000000) scale(0.100000,-0.100000)"
fill="currentColor" stroke="currentColor" stroke-width="6" stroke-linejoin="round">
<path d="M50 240 c0 -126 3 -230 7 -230 4 0 20 12 35 27 l28 27 30 -29 30 -29
30 29 30 29 30 -29 30 -29 30 29 30 29 28 -27 c15 -15 31 -27 35 -27 4 0 7
104 7 230 0 127 -3 230 -7 230 -4 0 -20 -12 -35 -27 l-28 -27 -30 29 -30 29
-30 -29 -30 -29 -30 29 -30 29 -30 -29 -30 -29 -28 27 c-15 15 -31 27 -35 27
-4 0 -7 -103 -7 -230z m162 183 l28 -27 30 29 30 29 30 -29 30 -29 25 24 25
23 0 -203 0 -203 -25 23 -25 24 -30 -29 -30 -29 -30 29 -30 29 -30 -29 -30
-29 -30 29 -30 29 -25 -24 -25 -23 0 203 0 203 25 -23 26 -24 27 27 c14 15 29
27 31 27 3 0 18 -12 33 -27z M110 320 c0 -6 30 -10 70 -10 40 0 70 4 70 10 0
6 -30 10 -70 10 -40 0 -70 -4 -70 -10z M320 320 c0 -5 11 -10 25 -10 14 0 25
5 25 10 0 6 -11 10 -25 10 -14 0 -25 -4 -25 -10z M110 240 c0 -6 30 -10 70
-10 40 0 70 4 70 10 0 6 -30 10 -70 10 -40 0 -70 -4 -70 -10z M320 240 c0 -5
11 -10 25 -10 14 0 25 5 25 10 0 6 -11 10 -25 10 -14 0 -25 -4 -25 -10z M110
160 c0 -6 30 -10 70 -10 40 0 70 4 70 10 0 6 -30 10 -70 10 -40 0 -70 -4 -70
-10z M320 160 c0 -5 11 -10 25 -10 14 0 25 5 25 10 0 6 -11 10 -25 10 -14 0
-25 -4 -25 -10z"/>
</g>
</svg>

