<?xml version="1.0" standalone="no"?>
<!DOCTYPE svg PUBLIC "-//W3C//DTD SVG 20010904//EN"
 "http://www.w3.org/TR/2001/REC-SVG-20010904/DTD/svg10.dtd">
<svg version="1.0" xmlns="http://www.w3.org/2000/svg"
 width="48.000000pt" height="48.000000pt" viewBox="0 0 48.000000 48.000000"
 preserveAspectRatio="xMidYMid meet">
<metadata>
Created by potrace 1.16, written by Peter Selinger 2001-2019
</metadata>
<g transform="translate(0.000000,48.000000) scale(0.100000,-0.100000)"
fill="currentColor" stroke="none">
<path d="M133 473 c-47 -9 -53 -34 -53 -226 l0 -179 -30 -28 c-16 -15 -26 -30
-23 -34 10 -10 225 -7 265 4 67 19 78 45 78 186 l0 123 43 3 42 3 3 60 c3 91
5 90 -160 91 -79 1 -153 0 -165 -3z m217 -207 c0 -242 4 -236 -155 -236 l-115
0 10 26 c6 14 10 103 10 198 0 120 4 176 12 184 8 8 50 12 125 12 l113 0 0
-184z m90 129 l0 -55 -35 0 -35 0 0 55 0 55 35 0 35 0 0 -55z M140 390 c0 -5
14 -10 30 -10 17 0 30 5 30 10 0 6 -13 10 -30 10 -16 0 -30 -4 -30 -10z M165
320 c-3 -5 0 -13 8 -16 23 -9 112 0 110 11 -4 14 -110 19 -118 5z M160 240 c0
-6 28 -10 65 -10 37 0 65 4 65 10 0 6 -28 10 -65 10 -37 0 -65 -4 -65 -10z
M165 170 c-3 -5 0 -13 8 -16 23 -9 112 0 110 11 -4 14 -110 19 -118 5z M160
90 c0 -5 16 -10 35 -10 19 0 35 5 35 10 0 6 -16 10 -35 10 -19 0 -35 -4 -35
-10z"/>
</g>
</svg>

