<?xml version="1.0" standalone="no"?>
<!DOCTYPE svg PUBLIC "-//W3C//DTD SVG 20010904//EN"
 "http://www.w3.org/TR/2001/REC-SVG-20010904/DTD/svg10.dtd">
<svg version="1.0" xmlns="http://www.w3.org/2000/svg"
 width="48.000000pt" height="48.000000pt" viewBox="0 0 48.000000 48.000000"
 preserveAspectRatio="xMidYMid meet">
<metadata>
Created by potrace 1.16, written by Peter Selinger 2001-2019
</metadata>
<g transform="translate(0.000000,48.000000) scale(0.100000,-0.100000)"
fill="currentColor" stroke="currentColor" stroke-width="6" stroke-linejoin="round">
<path d="M191 468 c-56 -10 -114 -48 -146 -96 -27 -40 -48 -129 -34 -138 10
-6 15 5 23 57 27 164 270 216 374 81 24 -32 24 -32 3 -32 -11 0 -21 -5 -21
-11 0 -6 17 -9 43 -7 37 3 42 6 45 30 2 15 -1 35 -7 45 -9 16 -11 13 -17 -15
l-7 -34 -20 31 c-41 65 -146 105 -236 89z M230 371 c0 -11 -9 -23 -20 -26 -21
-7 -34 -41 -28 -71 3 -16 16 -26 78 -54 8 -4 15 -20 15 -36 0 -25 -4 -29 -33
-32 -27 -3 -34 1 -42 24 -13 32 -25 25 -16 -10 3 -14 15 -28 26 -31 11 -3 20
-15 20 -26 0 -10 5 -19 10 -19 6 0 10 9 10 19 0 11 9 23 20 26 21 7 34 41 28
71 -3 16 -16 26 -78 54 -8 4 -15 20 -15 36 0 25 4 29 33 32 27 3 34 -1 42 -24
13 -32 25 -25 16 10 -3 14 -15 28 -26 31 -11 3 -20 15 -20 26 0 10 -4 19 -10
19 -5 0 -10 -9 -10 -19z M456 238 c-3 -7 -7 -29 -10 -49 -27 -164 -270 -216
-374 -81 -24 32 -24 32 -3 32 11 0 21 5 21 11 0 6 -17 9 -42 7 -38 -3 -43 -6
-46 -30 -2 -15 1 -35 7 -45 9 -16 11 -14 17 15 l7 33 22 -33 c13 -19 46 -46
74 -61 109 -60 247 -26 310 77 24 38 43 124 30 132 -5 3 -11 -1 -13 -8z"/>
</g>
</svg>

