<?xml version="1.0" standalone="no"?>
<!DOCTYPE svg PUBLIC "-//W3C//DTD SVG 20010904//EN"
 "http://www.w3.org/TR/2001/REC-SVG-20010904/DTD/svg10.dtd">
<svg version="1.0" xmlns="http://www.w3.org/2000/svg"
 width="48.000000pt" height="48.000000pt" viewBox="0 0 48.000000 48.000000"
 preserveAspectRatio="xMidYMid meet">
<metadata>
Created by potrace 1.16, written by Peter Selinger 2001-2019
</metadata>
<g transform="translate(0.000000,48.000000) scale(0.100000,-0.100000)"
fill="currentColor" stroke="currentColor" stroke-width="6" stroke-linejoin="round">
<path d="M191 468 c-123 -21 -204 -145 -180 -274 29 -156 199 -234 340 -157
63 34 130 126 113 155 -4 5 -18 -14 -33 -43 -38 -77 -92 -112 -179 -117 -56
-3 -74 0 -112 20 -69 37 -104 94 -108 176 -4 83 23 142 87 187 59 41 156 47
220 13 24 -13 55 -38 69 -56 l25 -32 -32 0 c-17 0 -31 -5 -31 -11 0 -6 21 -9
53 -7 l52 3 0 43 c0 49 -18 57 -25 12 l-5 -32 -18 31 c-37 64 -146 105 -236
89z M230 371 c0 -11 -9 -23 -20 -26 -21 -7 -34 -41 -28 -71 3 -16 16 -26 78
-54 8 -4 15 -20 15 -36 0 -25 -4 -29 -33 -32 -27 -3 -34 1 -42 24 -13 32 -25
25 -16 -10 3 -14 15 -28 26 -31 11 -3 20 -15 20 -26 0 -10 5 -19 10 -19 6 0
10 9 10 19 0 11 9 23 20 26 21 7 34 41 28 71 -3 16 -16 26 -78 54 -8 4 -15 20
-15 36 0 25 4 29 33 32 27 3 34 -1 42 -24 13 -32 25 -25 16 10 -3 14 -15 28
-26 31 -11 3 -20 15 -20 26 0 10 -4 19 -10 19 -5 0 -10 -9 -10 -19z"/>
</g>
</svg>

