<?xml version="1.0" standalone="no"?>
<!DOCTYPE svg PUBLIC "-//W3C//DTD SVG 20010904//EN"
 "http://www.w3.org/TR/2001/REC-SVG-20010904/DTD/svg10.dtd">
<svg version="1.0" xmlns="http://www.w3.org/2000/svg"
 width="48.000000pt" height="48.000000pt" viewBox="0 0 48.000000 48.000000"
 preserveAspectRatio="xMidYMid meet">
<metadata>
Created by potrace 1.16, written by Peter Selinger 2001-2019
</metadata>
<g transform="translate(0.000000,48.000000) scale(0.100000,-0.100000)"
fill="currentColor" stroke="none">
<path d="M20 460 c-19 -19 -20 -33 -20 -220 0 -187 1 -201 20 -220 19 -19 33
-20 220 -20 187 0 201 1 220 20 19 19 20 33 20 220 0 187 -1 201 -20 220 -19
19 -33 20 -220 20 -187 0 -201 -1 -220 -20z m430 -220 l0 -210 -210 0 -210 0
0 210 0 210 210 0 210 0 0 -210z M140 333 c0 -4 19 -27 42 -50 l42 -43 -44
-45 c-57 -58 -43 -72 15 -15 l45 44 45 -44 c24 -24 48 -41 52 -37 4 4 -13 28
-37 52 l-44 45 44 45 c57 58 43 72 -15 15 l-45 -44 -43 42 c-41 40 -57 50 -57
35z"/>
</g>
</svg>

