<?xml version="1.0" standalone="no"?>
<!DOCTYPE svg PUBLIC "-//W3C//DTD SVG 20010904//EN"
 "http://www.w3.org/TR/2001/REC-SVG-20010904/DTD/svg10.dtd">
<svg version="1.0" xmlns="http://www.w3.org/2000/svg"
 width="48.000000pt" height="48.000000pt" viewBox="0 0 48.000000 48.000000"
 preserveAspectRatio="xMidYMid meet">
<metadata>
Created by potrace 1.16, written by Peter Selinger 2001-2019
</metadata>
<g transform="translate(0.000000,48.000000) scale(0.100000,-0.100000)"
fill="currentColor" stroke="currentColor" stroke-width="6" stroke-linejoin="round">
<path d="M80 393 c0 -4 33 -40 72 -80 l72 -73 -74 -75 c-41 -41 -71 -78 -67
-82 4 -4 41 26 82 67 l75 74 75 -74 c41 -41 78 -71 82 -67 4 4 -26 41 -67 82
l-74 75 74 75 c41 41 71 78 67 82 -4 4 -41 -26 -82 -67 l-75 -74 -73 72 c-68
68 -87 82 -87 65z"/>
</g>
</svg>

