<?xml version="1.0" standalone="no"?>
<!DOCTYPE svg PUBLIC "-//W3C//DTD SVG 20010904//EN"
 "http://www.w3.org/TR/2001/REC-SVG-20010904/DTD/svg10.dtd">
<svg version="1.0" xmlns="http://www.w3.org/2000/svg"
 width="48.000000pt" height="48.000000pt" viewBox="0 0 48.000000 48.000000"
 preserveAspectRatio="xMidYMid meet">
<metadata>
Created by potrace 1.16, written by Peter Selinger 2001-2019
</metadata>
<g transform="translate(0.000000,48.000000) scale(0.100000,-0.100000)"
fill="currentColor" stroke="currentColor" stroke-width="6" stroke-linejoin="round">
<path d="M94 472 c-27 -4 -82 -61 -84 -87 -5 -43 1 -57 41 -100 l42 -45 -42
-45 c-56 -61 -58 -101 -8 -152 51 -50 91 -48 152 8 l45 42 45 -42 c61 -56 101
-58 152 -8 50 51 48 91 -8 152 l-42 45 42 45 c56 61 58 101 8 152 -51 50 -91
48 -153 -9 l-45 -41 -37 36 c-40 39 -75 55 -108 49z m98 -69 l48 -47 48 47
c57 56 91 61 134 20 43 -41 38 -77 -19 -135 l-47 -48 47 -48 c56 -57 61 -91
20 -134 -41 -43 -77 -38 -135 19 l-48 47 -48 -47 c-58 -57 -94 -62 -135 -19
-41 43 -36 77 20 134 l47 48 -47 48 c-56 57 -61 91 -20 134 41 43 77 38 135
-19z"/>
</g>
</svg>

