<?xml version="1.0" standalone="no"?>
<!DOCTYPE svg PUBLIC "-//W3C//DTD SVG 20010904//EN"
 "http://www.w3.org/TR/2001/REC-SVG-20010904/DTD/svg10.dtd">
<svg version="1.0" xmlns="http://www.w3.org/2000/svg"
 width="48.000000pt" height="48.000000pt" viewBox="0 0 48.000000 48.000000"
 preserveAspectRatio="xMidYMid meet">
<metadata>
Created by potrace 1.16, written by Peter Selinger 2001-2019
</metadata>
<g transform="translate(0.000000,48.000000) scale(0.100000,-0.100000)"
fill="currentColor" stroke="none">
<path d="M164 456 c-17 -8 -45 -31 -62 -52 -58 -71 -53 -172 13 -239 l35 -34
-11 -56 c-6 -32 -8 -59 -5 -62 3 -3 28 4 56 16 l50 22 50 -22 c28 -12 53 -19
56 -16 3 3 1 30 -5 62 l-11 56 35 34 c66 67 71 168 13 239 -17 21 -46 45 -64
52 -42 18 -110 17 -150 0z m66 -36 c0 -22 -5 -30 -18 -30 -23 0 -47 46 -29 54
33 13 47 6 47 -24z m64 24 c21 -8 0 -54 -26 -54 -13 0 -18 8 -18 30 0 30 11
37 44 24z m-126 -48 c15 -35 -6 -52 -37 -30 -21 15 -21 17 -5 35 22 25 29 24
42 -5z m186 5 c16 -18 16 -20 -6 -35 -19 -13 -24 -14 -36 -2 -11 11 -12 17 0
35 16 26 20 26 42 2z m-59 -56 c31 -30 32 -73 5 -103 -38 -40 -93 -37 -127 7
-35 45 7 121 67 121 19 0 40 -9 55 -25z m-168 0 c29 -20 19 -45 -18 -45 -31 0
-32 2 -23 38 7 26 12 27 41 7z m267 -7 c9 -36 8 -38 -23 -38 -18 0 -31 6 -35
16 -4 9 -5 18 -4 19 10 7 44 24 49 25 4 0 9 -10 13 -22z m-250 -73 c8 -22 -42
-45 -55 -24 -16 26 -10 39 20 39 17 0 31 -6 35 -15z m256 3 c0 -7 -4 -19 -9
-27 -13 -21 -63 2 -55 24 7 18 64 21 64 3z m-225 -48 c4 -6 -1 -22 -10 -37
l-17 -25 -21 21 c-21 21 -21 21 -2 36 24 17 41 19 50 5z m180 -5 c19 -15 19
-15 -2 -36 l-21 -21 -17 25 c-27 42 -1 62 40 32z m-127 -52 c3 -28 1 -30 -23
-26 -34 7 -37 15 -19 42 21 29 38 22 42 -16z m66 15 c18 -26 14 -34 -19 -40
-22 -5 -25 -2 -25 22 0 45 20 53 44 18z m27 -101 c7 -42 3 -44 -46 -20 -33 16
-37 16 -70 0 -20 -9 -39 -17 -44 -17 -7 0 -5 35 4 66 2 6 32 10 76 10 l74 -1
6 -38z"/>
</g>
</svg>

