<?xml version="1.0" standalone="no"?>
<!DOCTYPE svg PUBLIC "-//W3C//DTD SVG 20010904//EN"
 "http://www.w3.org/TR/2001/REC-SVG-20010904/DTD/svg10.dtd">
<svg version="1.0" xmlns="http://www.w3.org/2000/svg"
 width="48.000000pt" height="48.000000pt" viewBox="0 0 48.000000 48.000000"
 preserveAspectRatio="xMidYMid meet">
<metadata>
Created by potrace 1.16, written by Peter Selinger 2001-2019
</metadata>
<g transform="translate(0.000000,48.000000) scale(0.100000,-0.100000)"
fill="currentColor" stroke="none">
<path d="M106 453 c-14 -26 -13 -30 12 -55 20 -22 22 -28 9 -28 -26 0 -85 -58
-98 -97 -8 -27 -9 -45 0 -73 15 -50 101 -127 101 -90 0 5 -13 16 -29 24 -76
40 -74 169 5 204 36 17 96 15 122 -4 13 -9 26 -13 30 -9 9 9 -36 45 -56 45
-12 0 -10 6 9 26 22 23 23 27 8 52 -12 21 -23 28 -56 30 -37 3 -43 0 -57 -25z
m99 -14 c4 -6 -3 -21 -16 -35 l-23 -24 -23 22 c-35 32 -30 48 16 48 22 0 43
-5 46 -11z M346 365 c-18 -13 -18 -26 -2 -66 6 -14 0 -17 -35 -17 -73 -1 -134
-64 -134 -137 0 -46 21 -84 67 -118 32 -24 109 -25 144 -2 65 42 83 134 39
199 -14 20 -25 38 -25 40 0 2 14 9 30 15 46 16 42 55 -10 81 -46 24 -49 24
-74 5z m92 -47 c2 -10 -9 -20 -29 -27 -18 -6 -33 -11 -35 -11 -1 0 -7 14 -13
32 -9 24 -8 33 1 39 16 10 72 -14 76 -33z m-42 -92 c29 -29 34 -41 34 -81 0
-40 -5 -52 -34 -81 -28 -28 -42 -34 -75 -34 -80 0 -127 45 -125 120 2 68 47
109 123 110 36 0 49 -6 77 -34z M260 202 c-39 -40 -39 -74 0 -114 26 -25 36
-29 63 -24 46 9 69 37 69 81 0 44 -23 72 -69 81 -27 5 -37 1 -63 -24z m88 -8
c33 -23 27 -83 -10 -103 -25 -14 -29 -14 -55 5 -39 29 -41 66 -7 93 32 25 42
26 72 5z M106 295 c-33 -30 -36 -85 -6 -115 19 -19 40 -27 40 -15 0 3 -9 14
-20 25 -26 26 -25 65 1 91 17 17 29 20 63 15 38 -6 40 -5 22 9 -29 22 -70 18
-100 -10z"/>
</g>
</svg>

