<?xml version="1.0" standalone="no"?>
<!DOCTYPE svg PUBLIC "-//W3C//DTD SVG 20010904//EN"
 "http://www.w3.org/TR/2001/REC-SVG-20010904/DTD/svg10.dtd">
<svg version="1.0" xmlns="http://www.w3.org/2000/svg"
 width="48.000000pt" height="48.000000pt" viewBox="0 0 48.000000 48.000000"
 preserveAspectRatio="xMidYMid meet">
<metadata>
Created by potrace 1.16, written by Peter Selinger 2001-2019
</metadata>
<g transform="translate(0.000000,48.000000) scale(0.100000,-0.100000)"
fill="currentColor" stroke="none">
<path d="M33 470 c-31 -13 -35 -47 -31 -257 2 -133 7 -186 16 -195 18 -18 335
-19 353 -1 7 7 15 40 17 73 2 33 6 60 8 60 1 0 15 -5 31 -11 40 -15 53 9 53
94 0 89 -10 107 -54 100 l-33 -5 -5 61 c-2 34 -10 67 -17 74 -15 15 -305 21
-338 7z m147 -80 l0 -60 -75 0 -75 0 0 60 0 60 75 0 75 0 0 -60z m180 0 l0
-60 -75 0 -75 0 0 60 0 60 75 0 75 0 0 -60z m86 -227 c-3 -3 -17 -3 -31 1 -24
6 -25 10 -25 76 0 68 0 69 28 72 l27 3 3 -74 c2 -40 1 -76 -2 -78z m-266 77
l0 -60 -75 0 -75 0 0 60 0 60 75 0 75 0 0 -60z m180 0 c0 -47 -3 -60 -15 -60
-8 0 -15 8 -15 18 0 24 -19 42 -45 42 -26 0 -45 -18 -45 -42 0 -10 -7 -18 -15
-18 -12 0 -15 13 -15 60 l0 60 75 0 75 0 0 -60z m-50 -45 c0 -9 -9 -15 -25
-15 -16 0 -25 6 -25 15 0 9 9 15 25 15 16 0 25 -6 25 -15z m-130 -105 l0 -60
-75 0 -75 0 0 60 0 60 75 0 75 0 0 -60z m180 0 l0 -60 -75 0 -75 0 0 60 0 60
75 0 75 0 0 -60z M70 385 c0 -8 7 -15 15 -15 8 0 15 7 15 15 0 8 -7 15 -15 15
-8 0 -15 -7 -15 -15z M250 386 c0 -9 7 -16 16 -16 17 0 14 22 -4 28 -7 2 -12
-3 -12 -12z M70 235 c0 -8 7 -15 15 -15 8 0 15 7 15 15 0 8 -7 15 -15 15 -8 0
-15 -7 -15 -15z M70 85 c0 -8 7 -15 15 -15 8 0 15 7 15 15 0 8 -7 15 -15 15
-8 0 -15 -7 -15 -15z M250 86 c0 -9 7 -16 16 -16 9 0 14 5 12 12 -6 18 -28 21
-28 4z"/>
</g>
</svg>

