<?xml version="1.0" standalone="no"?>
<!DOCTYPE svg PUBLIC "-//W3C//DTD SVG 20010904//EN"
 "http://www.w3.org/TR/2001/REC-SVG-20010904/DTD/svg10.dtd">
<svg version="1.0" xmlns="http://www.w3.org/2000/svg"
 width="48.000000pt" height="48.000000pt" viewBox="0 0 48.000000 48.000000"
 preserveAspectRatio="xMidYMid meet">
<metadata>
Created by potrace 1.16, written by Peter Selinger 2001-2019
</metadata>
<g transform="translate(0.000000,48.000000) scale(0.100000,-0.100000)"
fill="currentColor" stroke="none">
<path d="M203 470 c-23 -3 -63 -19 -89 -36 -100 -62 -135 -193 -80 -301 26
-53 86 -108 86 -80 0 8 -6 17 -14 20 -7 3 -23 19 -35 36 l-22 31 45 0 c41 0
45 -2 51 -30 4 -16 11 -30 17 -30 6 0 8 9 4 23 -4 12 -10 48 -13 79 l-6 57 37
3 c47 4 47 22 1 26 -34 3 -35 5 -35 43 l0 39 90 0 c83 0 90 -1 90 -20 0 -11 5
-20 10 -20 6 0 10 9 10 20 0 17 7 20 39 20 34 0 40 -4 50 -30 5 -16 15 -30 20
-30 16 0 13 10 -19 67 -47 83 -139 127 -237 113z m103 -55 c7 -19 14 -37 14
-40 0 -3 -36 -5 -80 -5 -44 0 -80 2 -80 4 0 2 7 20 15 40 15 35 17 36 66 36
48 0 51 -2 65 -35z m-157 -13 c-9 -28 -16 -32 -45 -32 -19 0 -34 2 -34 5 0 7
83 66 87 62 2 -2 -2 -18 -8 -35z m248 -14 c15 -17 14 -18 -19 -18 -31 0 -37 4
-47 31 -6 18 -11 34 -11 36 0 7 61 -32 77 -49z m-267 -78 l0 -40 -50 0 c-54 0
-55 2 -39 49 10 28 15 31 50 31 39 0 39 0 39 -40z m0 -110 l0 -40 -44 0 c-46
0 -56 9 -56 56 0 22 4 24 50 24 l50 0 0 -40z M297 244 c-47 -24 -71 -43 -78
-62 -14 -35 -7 -148 9 -164 20 -20 177 -24 205 -5 33 22 52 96 36 144 -7 21
-20 45 -28 53 -9 8 -24 27 -34 43 -9 15 -23 27 -30 27 -6 -1 -43 -17 -80 -36z
m97 0 c9 -24 9 -24 -41 -24 l-48 1 35 19 c43 24 46 24 54 4z m43 -60 c2 -7 -9
-15 -24 -19 -38 -9 -53 -23 -53 -50 0 -27 15 -41 53 -50 57 -15 21 -30 -76
-33 l-97 -3 0 79 c0 43 3 82 7 86 12 11 186 2 190 -10z m13 -69 c0 -21 -5 -25
-29 -25 -17 0 -33 5 -36 10 -13 21 4 40 35 40 25 0 30 -4 30 -25z"/>
</g>
</svg>

