<?xml version="1.0" standalone="no"?>
<!DOCTYPE svg PUBLIC "-//W3C//DTD SVG 20010904//EN"
 "http://www.w3.org/TR/2001/REC-SVG-20010904/DTD/svg10.dtd">
<svg version="1.0" xmlns="http://www.w3.org/2000/svg"
 width="48.000000pt" height="48.000000pt" viewBox="0 0 48.000000 48.000000"
 preserveAspectRatio="xMidYMid meet">
<metadata>
Created by potrace 1.16, written by Peter Selinger 2001-2019
</metadata>
<g transform="translate(0.000000,48.000000) scale(0.100000,-0.100000)"
fill="currentColor" stroke="none">
<path d="M35 424 c-15 -25 -24 -51 -22 -59 3 -7 40 -32 83 -55 85 -47 80 -48
121 16 10 16 12 8 12 -48 l1 -68 -50 20 c-28 11 -53 20 -55 20 -12 0 -34 -74
-26 -84 14 -17 108 -49 121 -41 6 3 10 -3 10 -14 0 -16 -6 -21 -29 -21 -40 0
-55 -20 -40 -54 15 -33 31 -34 23 -1 -6 25 -5 25 56 25 61 0 62 0 56 -25 -9
-35 10 -31 22 4 12 35 0 51 -40 51 l-28 0 0 85 0 86 31 -36 c17 -19 36 -35 43
-35 17 1 141 104 144 121 1 9 -15 35 -36 60 l-39 44 -69 -54 -69 -53 -3 81
c-2 45 -7 81 -12 81 -6 0 -10 -16 -10 -35 0 -19 -3 -35 -6 -35 -3 0 -33 16
-65 35 -33 19 -68 35 -79 35 -11 0 -28 -18 -45 -46z m121 -10 l65 -36 -25 -42
c-14 -22 -29 -40 -34 -39 -5 1 -37 18 -71 38 l-61 36 20 39 c11 22 25 40 31
40 6 0 40 -16 75 -36z m268 -65 c14 -17 26 -34 26 -37 0 -4 -30 -29 -65 -56
l-65 -48 -20 23 c-44 51 -43 53 18 102 31 25 62 46 69 46 6 1 23 -13 37 -30z
m-204 -169 c-1 -35 -14 -41 -58 -23 -41 16 -48 26 -36 56 5 14 11 14 50 -1 26
-10 44 -23 44 -32z M110 375 c0 -8 7 -15 15 -15 8 0 15 7 15 15 0 8 -7 15 -15
15 -8 0 -15 -7 -15 -15z M340 295 c0 -8 7 -15 15 -15 8 0 15 7 15 15 0 8 -7
15 -15 15 -8 0 -15 -7 -15 -15z"/>
</g>
</svg>

