<?xml version="1.0" standalone="no"?>
<!DOCTYPE svg PUBLIC "-//W3C//DTD SVG 20010904//EN"
 "http://www.w3.org/TR/2001/REC-SVG-20010904/DTD/svg10.dtd">
<svg version="1.0" xmlns="http://www.w3.org/2000/svg"
 width="48.000000pt" height="48.000000pt" viewBox="0 0 48.000000 48.000000"
 preserveAspectRatio="xMidYMid meet">
<metadata>
Created by potrace 1.16, written by Peter Selinger 2001-2019
</metadata>
<g transform="translate(0.000000,48.000000) scale(0.100000,-0.100000)"
fill="currentColor" stroke="none">
<path d="M152 436 c-34 -32 -37 -38 -37 -91 0 -53 3 -59 37 -91 21 -19 47 -34
58 -34 18 0 20 -6 20 -82 l0 -82 -28 27 c-22 21 -27 34 -24 60 3 23 -2 38 -17
51 -26 24 -109 33 -134 14 -17 -12 -16 -16 13 -70 34 -63 59 -77 95 -54 23 15
25 14 64 -31 l41 -46 41 47 c38 43 43 46 59 31 23 -21 43 -19 67 8 29 33 64
97 58 107 -10 16 -76 23 -114 11 -45 -13 -68 -48 -52 -78 8 -17 5 -25 -19 -48
l-30 -29 0 82 c0 73 2 82 19 82 25 0 68 35 86 70 44 84 -19 180 -116 180 -42
0 -55 -5 -87 -34z m160 -15 c28 -25 33 -36 33 -76 0 -40 -5 -51 -33 -76 -72
-64 -182 -18 -182 76 0 94 110 140 182 76z m-174 -237 c12 -8 22 -24 22 -35 0
-20 -15 -26 -25 -9 -3 6 -13 10 -22 10 -14 0 -14 -3 2 -20 21 -23 9 -45 -19
-34 -20 8 -59 80 -51 94 10 15 68 12 93 -6z m295 10 c8 -8 -27 -76 -47 -93
-13 -11 -19 -11 -31 -1 -13 11 -13 14 2 25 10 8 15 17 11 21 -4 4 -15 1 -23
-6 -11 -9 -19 -10 -26 -3 -14 14 0 43 25 53 25 10 80 13 89 4z M211 409 c-30
-28 -23 -50 22 -72 40 -19 41 -37 2 -37 -33 0 -40 -17 -13 -31 16 -9 23 -9 26
0 2 6 10 11 17 11 16 0 26 25 18 45 -3 9 -21 22 -39 30 -42 17 -44 35 -5 35
37 0 48 15 22 29 -25 14 -24 14 -50 -10z"/>
</g>
</svg>

