<?xml version="1.0" standalone="no"?>
<!DOCTYPE svg PUBLIC "-//W3C//DTD SVG 20010904//EN"
 "http://www.w3.org/TR/2001/REC-SVG-20010904/DTD/svg10.dtd">
<svg version="1.0" xmlns="http://www.w3.org/2000/svg"
 width="48.000000pt" height="48.000000pt" viewBox="0 0 48.000000 48.000000"
 preserveAspectRatio="xMidYMid meet">
<metadata>
Created by potrace 1.16, written by Peter Selinger 2001-2019
</metadata>
<g transform="translate(0.000000,48.000000) scale(0.100000,-0.100000)"
fill="currentColor" stroke="none">
<path d="M37 413 c-29 -8 -37 -47 -37 -188 0 -137 9 -185 34 -185 7 0 19 -7
26 -15 9 -11 16 -13 24 -5 14 14 303 14 311 -1 5 -7 12 -6 23 4 10 8 25 17 34
20 24 9 30 55 26 210 -2 94 -7 140 -16 149 -10 10 -64 13 -210 15 -108 1 -205
-1 -215 -4z m413 -188 l0 -165 -210 0 -210 0 0 165 0 165 210 0 210 0 0 -165z
M123 350 c-13 -5 -24 -22 -28 -42 -4 -18 -12 -38 -17 -45 -6 -7 -5 -14 2 -18
13 -8 13 -62 -1 -70 -7 -5 -6 -12 4 -23 8 -10 17 -25 20 -34 8 -23 57 -30 181
-26 69 2 110 7 118 16 18 18 18 216 0 234 -16 16 -245 23 -279 8z m267 -125
l0 -105 -135 0 c-111 0 -135 3 -135 14 0 8 5 18 11 22 8 4 8 9 0 17 -14 14
-14 64 0 73 8 4 8 9 0 17 -6 6 -11 24 -11 39 l0 28 135 0 135 0 0 -105z M260
265 c0 -8 7 -15 15 -15 8 0 15 7 15 15 0 8 -7 15 -15 15 -8 0 -15 -7 -15 -15z
M320 265 c0 -8 7 -15 15 -15 8 0 15 7 15 15 0 8 -7 15 -15 15 -8 0 -15 -7 -15
-15z M260 185 c0 -8 7 -15 15 -15 8 0 15 7 15 15 0 8 -7 15 -15 15 -8 0 -15
-7 -15 -15z M320 185 c0 -8 7 -15 15 -15 8 0 15 7 15 15 0 8 -7 15 -15 15 -8
0 -15 -7 -15 -15z"/>
</g>
</svg>

