<?xml version="1.0" standalone="no"?>
<!DOCTYPE svg PUBLIC "-//W3C//DTD SVG 20010904//EN"
 "http://www.w3.org/TR/2001/REC-SVG-20010904/DTD/svg10.dtd">
<svg version="1.0" xmlns="http://www.w3.org/2000/svg"
 width="48.000000pt" height="48.000000pt" viewBox="0 0 48.000000 48.000000"
 preserveAspectRatio="xMidYMid meet">
<metadata>
Created by potrace 1.16, written by Peter Selinger 2001-2019
</metadata>
<g transform="translate(0.000000,48.000000) scale(0.100000,-0.100000)"
fill="currentColor" stroke="currentColor" stroke-width="6" stroke-linejoin="round">
<path d="M391 461 c-12 -8 -9 -11 13 -17 l28 -7 -25 -25 c-23 -22 -28 -23 -58
-13 -17 6 -41 11 -53 11 -20 0 -106 -76 -106 -94 0 -6 20 9 44 33 47 46 48 46
128 26 18 -5 33 1 55 19 l31 26 7 -27 c5 -21 8 -24 16 -12 13 20 11 63 -3 77
-14 14 -57 16 -77 3z M93 430 c-26 -10 -28 -29 -11 -76 11 -30 9 -35 -24 -74
-66 -76 -67 -157 -3 -206 44 -33 111 -42 154 -21 30 15 31 15 31 -8 0 -30 15
-35 120 -35 108 0 120 8 120 85 0 75 -13 85 -110 85 -76 0 -78 1 -85 27 -7 31
-45 87 -53 79 -3 -3 6 -26 19 -51 23 -44 23 -47 7 -59 -12 -8 -18 -27 -18 -50
0 -33 -4 -39 -35 -52 -60 -25 -102 -17 -153 29 -44 41 -18 144 50 198 19 15
19 17 4 47 -28 54 -23 61 47 64 34 2 62 8 62 13 0 13 -94 17 -122 5z m357
-335 l0 -55 -95 0 -95 0 0 55 0 55 95 0 95 0 0 -55z M340 95 c0 -8 7 -15 15
-15 8 0 15 7 15 15 0 8 -7 15 -15 15 -8 0 -15 -7 -15 -15z M125 240 c-22 -23
-25 -31 -16 -48 6 -12 23 -22 38 -24 18 -2 29 -10 31 -22 4 -17 0 -18 -32 -13
-41 7 -45 -1 -16 -26 19 -16 22 -16 46 -1 38 25 30 66 -16 80 -19 6 -36 16
-38 22 -5 16 37 25 54 11 26 -22 29 1 2 26 l-26 24 -27 -29z"/>
</g>
</svg>

