<?xml version="1.0" standalone="no"?>
<!DOCTYPE svg PUBLIC "-//W3C//DTD SVG 20010904//EN"
 "http://www.w3.org/TR/2001/REC-SVG-20010904/DTD/svg10.dtd">
<svg version="1.0" xmlns="http://www.w3.org/2000/svg"
 width="48.000000pt" height="48.000000pt" viewBox="0 0 48.000000 48.000000"
 preserveAspectRatio="xMidYMid meet">
<metadata>
Created by potrace 1.16, written by Peter Selinger 2001-2019
</metadata>
<g transform="translate(0.000000,48.000000) scale(0.100000,-0.100000)"
fill="currentColor" stroke="none">
<path d="M84 446 c-4 -17 -15 -26 -39 -30 -37 -7 -45 -20 -45 -77 0 -74 8 -79
121 -79 99 0 99 0 112 28 6 15 19 34 28 42 19 17 31 90 19 110 -9 14 -81 28
-147 29 -37 1 -43 -2 -49 -23z m170 -12 c11 -4 13 -16 9 -42 -7 -45 -23 -66
-23 -31 0 42 -15 52 -79 57 -59 4 -70 10 -53 26 7 8 120 0 146 -10z m-44 -99
l0 -55 -90 0 -90 0 0 55 0 55 90 0 90 0 0 -55z M103 338 c2 -7 10 -13 17 -13
7 0 15 6 18 13 2 7 -5 12 -18 12 -13 0 -20 -5 -17 -12z M300 351 c0 -5 34 -30
75 -57 41 -27 75 -55 75 -61 0 -10 -42 -13 -175 -13 -110 0 -175 -4 -175 -10
0 -5 9 -10 20 -10 18 0 20 -7 20 -84 0 -77 -2 -84 -21 -89 -12 -3 -18 -10 -14
-16 9 -15 351 -15 360 0 4 6 -2 13 -14 16 -19 5 -21 12 -21 89 0 76 2 84 19
84 21 0 33 22 25 45 -5 12 -156 115 -169 115 -3 0 -5 -4 -5 -9z m-70 -236 l0
-85 -35 0 -35 0 0 85 0 85 35 0 35 0 0 -85z m90 0 l0 -85 -35 0 -35 0 0 85 0
85 35 0 35 0 0 -85z m90 0 l0 -85 -35 0 -35 0 0 85 0 85 35 0 35 0 0 -85z"/>
</g>
</svg>

