<?xml version="1.0" standalone="no"?>
<!DOCTYPE svg PUBLIC "-//W3C//DTD SVG 20010904//EN"
 "http://www.w3.org/TR/2001/REC-SVG-20010904/DTD/svg10.dtd">
<svg version="1.0" xmlns="http://www.w3.org/2000/svg"
 width="48.000000pt" height="48.000000pt" viewBox="0 0 48.000000 48.000000"
 preserveAspectRatio="xMidYMid meet">
<metadata>
Created by potrace 1.16, written by Peter Selinger 2001-2019
</metadata>
<g transform="translate(0.000000,48.000000) scale(0.100000,-0.100000)"
fill="currentColor" stroke="none">
<path d="M20 460 c-19 -19 -20 -33 -20 -203 0 -132 4 -187 13 -198 21 -26 65
-50 72 -39 8 13 302 13 310 0 7 -11 51 13 73 39 8 11 12 66 12 198 0 170 -1
184 -20 203 -19 19 -33 20 -220 20 -187 0 -201 -1 -220 -20z m430 -205 l0
-195 -210 0 -210 0 0 195 0 195 210 0 210 0 0 -195z M110 400 c-11 -11 -20
-31 -20 -44 0 -14 -5 -28 -11 -32 -8 -4 -8 -9 0 -17 14 -14 14 -90 0 -104 -8
-8 -8 -13 0 -17 6 -4 11 -18 11 -32 0 -13 9 -33 20 -44 18 -18 33 -20 145 -20
168 0 165 -3 165 165 0 168 3 165 -165 165 -112 0 -127 -2 -145 -20z m280
-145 l0 -135 -135 0 -135 0 0 28 c0 15 5 33 11 39 8 8 8 13 0 17 -14 9 -14 93
0 102 8 4 8 9 0 17 -6 6 -11 24 -11 39 l0 28 135 0 135 0 0 -135z M240 331
c-9 -17 -15 -20 -23 -12 -18 18 -29 13 -22 -11 6 -15 1 -26 -15 -38 l-23 -18
22 -12 c17 -9 21 -17 17 -36 -7 -25 3 -31 21 -13 8 8 14 5 23 -12 l12 -22 18
23 c11 15 19 19 24 11 13 -20 27 -11 20 13 -4 19 0 27 17 36 l22 12 -23 18
c-16 12 -21 23 -15 38 7 23 -8 31 -21 11 -5 -8 -13 -4 -24 11 l-18 23 -12 -22z
m44 -47 c9 -8 16 -22 16 -29 0 -18 -27 -45 -45 -45 -18 0 -45 27 -45 45 0 7 7
21 16 29 8 9 22 16 29 16 7 0 21 -7 29 -16z"/>
</g>
</svg>

