<?xml version="1.0" standalone="no"?>
<!DOCTYPE svg PUBLIC "-//W3C//DTD SVG 20010904//EN"
 "http://www.w3.org/TR/2001/REC-SVG-20010904/DTD/svg10.dtd">
<svg version="1.0" xmlns="http://www.w3.org/2000/svg"
 width="48.000000pt" height="48.000000pt" viewBox="0 0 48.000000 48.000000"
 preserveAspectRatio="xMidYMid meet">
<metadata>
Created by potrace 1.16, written by Peter Selinger 2001-2019
</metadata>
<g transform="translate(0.000000,48.000000) scale(0.100000,-0.100000)"
fill="currentColor" stroke="none">
<path d="M121 412 c-52 -31 -94 -61 -93 -67 3 -13 421 -14 425 0 3 14 -184
124 -213 124 -14 0 -67 -26 -119 -57z m209 -7 l75 -45 -165 0 -165 0 75 45
c41 25 82 45 90 45 8 0 49 -20 90 -45z M50 210 c0 -47 4 -80 10 -80 6 0 10 33
10 80 0 47 -4 80 -10 80 -6 0 -10 -33 -10 -80z M110 210 c0 -47 4 -80 10 -80
6 0 10 33 10 80 0 47 -4 80 -10 80 -6 0 -10 -33 -10 -80z M200 210 c0 -47 4
-80 10 -80 6 0 10 33 10 80 0 47 -4 80 -10 80 -6 0 -10 -33 -10 -80z M260 210
c0 -47 4 -80 10 -80 6 0 10 33 10 80 0 47 -4 80 -10 80 -6 0 -10 -33 -10 -80z
M350 210 c0 -47 4 -80 10 -80 6 0 10 33 10 80 0 47 -4 80 -10 80 -6 0 -10 -33
-10 -80z M410 210 c0 -47 4 -80 10 -80 6 0 10 33 10 80 0 47 -4 80 -10 80 -6
0 -10 -33 -10 -80z M25 80 c-3 -6 0 -12 7 -15 26 -10 423 0 421 10 -4 14 -419
19 -428 5z M25 20 c-3 -6 0 -12 7 -15 26 -10 423 0 421 10 -4 14 -419 19 -428
5z"/>
</g>
</svg>

