<?xml version="1.0" standalone="no"?>
<!DOCTYPE svg PUBLIC "-//W3C//DTD SVG 20010904//EN"
 "http://www.w3.org/TR/2001/REC-SVG-20010904/DTD/svg10.dtd">
<svg version="1.0" xmlns="http://www.w3.org/2000/svg"
 width="48.000000pt" height="48.000000pt" viewBox="0 0 48.000000 48.000000"
 preserveAspectRatio="xMidYMid meet">
<metadata>
Created by potrace 1.16, written by Peter Selinger 2001-2019
</metadata>
<g transform="translate(0.000000,48.000000) scale(0.100000,-0.100000)"
fill="currentColor" stroke="currentColor" stroke-width="6" stroke-linejoin="round">
<path d="M19 413 c-18 -21 -25 -236 -10 -276 6 -16 20 -31 31 -34 11 -3 20
-14 20 -24 0 -26 20 -34 27 -10 5 19 12 21 93 21 81 0 88 -2 93 -21 6 -23 27
-17 27 7 0 24 49 38 70 19 25 -22 87 -20 100 4 5 11 10 81 10 156 0 75 -5 145
-10 156 -12 22 -78 27 -98 7 -10 -10 -17 -10 -32 0 -13 8 -67 12 -164 12 -121
0 -146 -3 -157 -17z m306 -12 c3 -6 -4 -15 -15 -21 -18 -10 -20 -21 -20 -105
0 -79 -3 -95 -16 -95 -8 0 -20 14 -26 30 -18 54 -94 55 -117 3 -27 -60 -41
-42 -41 52 l0 85 35 0 c19 0 35 5 35 10 0 6 -18 10 -40 10 -51 0 -60 -17 -60
-114 0 -103 4 -106 139 -106 84 0 111 -3 121 -15 11 -13 -5 -15 -139 -15
l-151 0 0 138 c0 76 3 142 7 145 10 11 281 8 288 -2z m125 -146 c0 -148 -1
-155 -20 -155 -19 0 -20 7 -20 155 0 148 1 155 20 155 19 0 20 -7 20 -155z
m-72 -67 l-3 -71 -32 27 c-33 28 -33 28 -33 119 l0 92 33 21 32 21 3 -68 c2
-38 2 -101 0 -141z m-148 12 c10 -19 8 -20 -40 -20 -27 0 -50 2 -50 4 0 39 71
52 90 16z M198 341 c-16 -16 -16 -18 3 -34 18 -16 21 -16 39 1 19 18 19 18 0
35 -24 20 -21 20 -42 -2z"/>
</g>
</svg>

