<?xml version="1.0" standalone="no"?>
<!DOCTYPE svg PUBLIC "-//W3C//DTD SVG 20010904//EN"
 "http://www.w3.org/TR/2001/REC-SVG-20010904/DTD/svg10.dtd">
<svg version="1.0" xmlns="http://www.w3.org/2000/svg"
 width="48.000000pt" height="48.000000pt" viewBox="0 0 48.000000 48.000000"
 preserveAspectRatio="xMidYMid meet">
<metadata>
Created by potrace 1.16, written by Peter Selinger 2001-2019
</metadata>
<g transform="translate(0.000000,48.000000) scale(0.100000,-0.100000)"
fill="currentColor" stroke="none">
<path d="M211 469 c-58 -12 -84 -49 -89 -124 -2 -36 -8 -65 -13 -65 -5 0 -18
-9 -29 -20 -41 -41 -12 -126 40 -118 25 3 25 3 -5 18 -50 25 -45 94 8 102 20
3 22 8 19 59 -6 92 23 128 101 129 59 0 82 -11 102 -50 19 -37 19 -81 0 -127
-17 -39 -16 -41 17 -57 31 -16 34 -40 7 -65 -17 -16 -19 -21 -7 -21 21 0 48
32 48 58 0 11 -11 29 -25 40 -22 17 -24 24 -15 47 21 56 5 142 -34 174 -22 19
-84 29 -125 20z M240 396 c0 -7 -9 -16 -20 -19 -31 -8 -24 -33 20 -68 22 -18
40 -36 40 -41 0 -4 -18 -8 -40 -8 -22 0 -40 -4 -40 -10 0 -5 9 -10 20 -10 11
0 20 -7 20 -15 0 -8 5 -15 10 -15 6 0 10 7 10 15 0 8 6 15 14 15 41 0 28 51
-20 80 -45 28 -43 40 6 40 22 0 40 5 40 10 0 6 -9 10 -20 10 -11 0 -20 7 -20
15 0 8 -4 15 -10 15 -5 0 -10 -6 -10 -14z M240 154 c0 -10 -5 -14 -15 -10 -51
21 -51 21 -31 -2 11 -12 25 -22 33 -22 7 0 13 -7 13 -15 0 -8 -9 -15 -21 -15
-11 0 -29 -5 -39 -10 -16 -9 -17 -15 -8 -40 12 -36 31 -40 22 -5 -6 25 -5 25
56 25 61 0 62 0 56 -25 -9 -35 10 -31 22 5 9 25 8 31 -8 40 -10 5 -28 10 -39
10 -12 0 -21 7 -21 15 0 8 6 15 13 15 8 0 22 10 33 22 20 23 20 23 -31 2 -10
-4 -15 0 -15 10 0 9 -4 16 -10 16 -5 0 -10 -7 -10 -16z"/>
</g>
</svg>

