<?xml version="1.0" standalone="no"?>
<!DOCTYPE svg PUBLIC "-//W3C//DTD SVG 20010904//EN"
 "http://www.w3.org/TR/2001/REC-SVG-20010904/DTD/svg10.dtd">
<svg version="1.0" xmlns="http://www.w3.org/2000/svg"
 width="48.000000pt" height="48.000000pt" viewBox="0 0 48.000000 48.000000"
 preserveAspectRatio="xMidYMid meet">
<metadata>
Created by potrace 1.16, written by Peter Selinger 2001-2019
</metadata>
<g transform="translate(0.000000,48.000000) scale(0.100000,-0.100000)"
fill="currentColor" stroke="currentColor" stroke-width="6" stroke-linejoin="round">
<path d="M71 398 c2 -51 -14 -90 -44 -103 -18 -8 -23 -20 -25 -63 -3 -58 8
-82 41 -82 25 0 46 -27 47 -62 0 -29 23 -58 45 -58 8 0 22 9 32 19 12 13 32
19 58 19 26 0 46 -6 58 -19 10 -10 24 -19 32 -19 22 0 45 29 45 57 0 14 9 38
20 53 11 16 23 41 26 57 3 17 17 35 35 45 21 12 29 25 29 44 0 29 -6 27 -24
-7 -15 -29 -28 -22 -43 19 -24 72 -97 115 -187 111 -36 -2 -60 3 -77 14 -13 9
-34 17 -47 17 -21 0 -23 -4 -21 -42z m62 4 c14 -15 28 -17 75 -14 67 5 125
-18 161 -64 37 -47 24 -154 -23 -193 -9 -8 -16 -26 -16 -42 0 -31 -23 -41 -34
-14 -8 22 -134 22 -142 0 -10 -26 -34 -17 -34 13 0 30 -51 92 -76 92 -10 0
-14 12 -14 45 0 25 4 45 10 45 5 0 21 18 34 39 19 30 24 47 19 75 -6 41 12 49
40 18z M190 330 c0 -5 18 -10 40 -10 22 0 40 5 40 10 0 6 -18 10 -40 10 -22 0
-40 -4 -40 -10z M110 265 c0 -8 7 -15 15 -15 8 0 15 7 15 15 0 8 -7 15 -15 15
-8 0 -15 -7 -15 -15z"/>
</g>
</svg>

