<?xml version="1.0" standalone="no"?>
<!DOCTYPE svg PUBLIC "-//W3C//DTD SVG 20010904//EN"
 "http://www.w3.org/TR/2001/REC-SVG-20010904/DTD/svg10.dtd">
<svg version="1.0" xmlns="http://www.w3.org/2000/svg"
 width="48.000000pt" height="48.000000pt" viewBox="0 0 48.000000 48.000000"
 preserveAspectRatio="xMidYMid meet">
<metadata>
Created by potrace 1.16, written by Peter Selinger 2001-2019
</metadata>
<g transform="translate(0.000000,48.000000) scale(0.100000,-0.100000)"
fill="currentColor" stroke="none">
<path d="M204 470 c-42 -16 -58 -57 -38 -96 10 -19 12 -30 5 -32 -29 -10 -5
-17 54 -17 59 0 83 7 54 17 -7 2 -5 13 5 32 28 55 -23 117 -80 96z m54 -32
c15 -15 15 -51 0 -66 -28 -28 -78 -7 -78 33 0 27 18 45 45 45 12 0 26 -5 33
-12z M72 311 c-15 -21 -36 -42 -47 -47 -16 -7 -21 -20 -23 -62 -3 -58 8 -82
41 -82 25 0 46 -27 47 -62 0 -29 23 -58 45 -58 8 0 22 9 32 19 24 26 92 26
116 0 10 -10 24 -19 32 -19 22 0 45 29 45 57 0 14 9 38 20 53 11 16 23 41 26
57 3 17 17 35 35 45 21 12 29 25 29 44 0 29 -6 27 -24 -7 -16 -31 -28 -29 -39
6 -13 42 -55 95 -74 95 -13 0 -11 -6 9 -27 37 -40 48 -66 48 -113 0 -43 -18
-88 -44 -109 -9 -8 -16 -26 -16 -42 0 -31 -23 -41 -34 -14 -8 22 -134 22 -142
0 -10 -26 -34 -17 -34 13 0 30 -51 92 -76 92 -24 0 -18 74 8 104 61 68 80 96
64 96 -9 0 -29 -17 -44 -39z"/>
</g>
</svg>

