<?xml version="1.0" standalone="no"?>
<!DOCTYPE svg PUBLIC "-//W3C//DTD SVG 20010904//EN"
 "http://www.w3.org/TR/2001/REC-SVG-20010904/DTD/svg10.dtd">
<svg version="1.0" xmlns="http://www.w3.org/2000/svg"
 width="48.000000pt" height="48.000000pt" viewBox="0 0 48.000000 48.000000"
 preserveAspectRatio="xMidYMid meet">
<metadata>
Created by potrace 1.16, written by Peter Selinger 2001-2019
</metadata>
<g transform="translate(0.000000,48.000000) scale(0.100000,-0.100000)"
fill="currentColor" stroke="currentColor" stroke-width="6" stroke-linejoin="round">
<path d="M146 465 c-125 -32 -179 -182 -105 -290 52 -76 163 -102 244 -59 l40
22 67 -66 c37 -36 71 -63 75 -59 4 4 -23 38 -59 75 l-66 67 19 35 c41 74 33
153 -23 216 -53 60 -113 79 -192 59z m131 -32 c66 -31 103 -118 83 -194 -22
-81 -114 -140 -193 -124 -84 18 -137 84 -137 173 0 122 132 200 247 145z M120
352 c0 -5 14 -21 30 -37 l30 -29 -32 -33 c-41 -43 -28 -56 15 -15 l33 32 32
-32 c17 -18 35 -29 39 -25 4 4 -7 22 -25 39 l-32 32 32 33 c41 43 28 56 -15
15 l-33 -32 -29 30 c-28 30 -45 38 -45 22z"/>
</g>
</svg>

