<?xml version="1.0" standalone="no"?>
<!DOCTYPE svg PUBLIC "-//W3C//DTD SVG 20010904//EN"
 "http://www.w3.org/TR/2001/REC-SVG-20010904/DTD/svg10.dtd">
<svg version="1.0" xmlns="http://www.w3.org/2000/svg"
 width="48.000000pt" height="48.000000pt" viewBox="0 0 48.000000 48.000000"
 preserveAspectRatio="xMidYMid meet">
<metadata>
Created by potrace 1.16, written by Peter Selinger 2001-2019
</metadata>
<g transform="translate(0.000000,48.000000) scale(0.100000,-0.100000)"
fill="currentColor" stroke="currentColor" stroke-width="6" stroke-linejoin="round">
<path d="M175 475 c-5 -2 -22 -6 -37 -9 -34 -8 -94 -59 -114 -99 -16 -31 -21
-100 -9 -139 13 -41 57 -90 99 -109 48 -22 83 -24 138 -7 l39 11 58 -57 c48
-48 63 -57 87 -54 24 2 30 8 32 33 2 25 -7 40 -56 89 l-60 58 15 38 c31 77
-13 188 -88 222 -36 16 -87 28 -104 23z m106 -48 c38 -25 79 -97 79 -139 0
-16 -7 -45 -15 -65 l-16 -37 61 -61 c60 -60 76 -95 43 -95 -10 0 -45 27 -78
60 l-61 61 -37 -16 c-50 -21 -85 -19 -137 8 -67 33 -93 78 -88 152 6 102 62
154 164 155 37 0 61 -6 85 -23z M145 391 c-35 -15 -57 -49 -62 -94 -5 -40 -2
-49 28 -81 28 -31 41 -37 75 -38 74 -1 117 41 116 115 -1 76 -84 128 -157 98z
m109 -36 c36 -33 37 -95 1 -130 -35 -36 -97 -35 -130 1 -78 84 45 207 129 129z"/>
</g>
</svg>

