<?xml version="1.0" standalone="no"?>
<!DOCTYPE svg PUBLIC "-//W3C//DTD SVG 20010904//EN"
 "http://www.w3.org/TR/2001/REC-SVG-20010904/DTD/svg10.dtd">
<svg version="1.0" xmlns="http://www.w3.org/2000/svg"
 width="48.000000pt" height="48.000000pt" viewBox="0 0 48.000000 48.000000"
 preserveAspectRatio="xMidYMid meet">
<metadata>
Created by potrace 1.16, written by Peter Selinger 2001-2019
</metadata>
<g transform="translate(0.000000,48.000000) scale(0.100000,-0.100000)"
fill="currentColor" stroke="currentColor" stroke-width="6" stroke-linejoin="round">
<path d="M113 470 c-27 -11 -31 -51 -8 -70 24 -20 18 -43 -21 -81 -48 -46 -75
-100 -76 -155 -1 -60 22 -91 94 -127 48 -24 68 -29 138 -29 70 0 90 5 138 29
72 36 95 67 94 127 -1 55 -28 109 -76 155 -39 38 -45 61 -21 81 25 20 19 59
-11 70 -32 12 -221 12 -251 0z m257 -34 c0 -7 -7 -19 -15 -26 -26 -22 -18 -60
24 -101 72 -72 92 -159 50 -213 -11 -14 -23 -26 -27 -26 -4 0 -6 24 -4 53 4
53 -9 118 -27 147 -18 27 -21 3 -6 -40 15 -43 19 -117 9 -157 -5 -17 -47 -43
-71 -43 -3 0 -2 23 2 50 8 57 -2 150 -16 150 -6 0 -7 -23 -4 -57 4 -32 3 -76
-2 -98 -8 -37 -12 -40 -45 -43 -35 -3 -37 -2 -44 34 -4 20 -4 65 -1 100 6 65
-6 88 -18 35 -8 -39 -9 -124 0 -150 7 -24 8 -24 -33 -10 -17 6 -32 20 -36 32
-10 40 -6 114 9 157 15 43 12 67 -6 40 -18 -29 -31 -94 -27 -147 2 -29 0 -53
-4 -53 -4 0 -16 12 -27 26 -42 54 -22 141 50 213 42 41 50 79 24 101 -8 7 -15
19 -15 26 0 11 26 14 130 14 104 0 130 -3 130 -14z"/>
</g>
</svg>

