<?xml version="1.0" standalone="no"?>
<!DOCTYPE svg PUBLIC "-//W3C//DTD SVG 20010904//EN"
 "http://www.w3.org/TR/2001/REC-SVG-20010904/DTD/svg10.dtd">
<svg version="1.0" xmlns="http://www.w3.org/2000/svg"
 width="48.000000pt" height="48.000000pt" viewBox="0 0 48.000000 48.000000"
 preserveAspectRatio="xMidYMid meet">
<metadata>
Created by potrace 1.16, written by Peter Selinger 2001-2019
</metadata>
<g transform="translate(0.000000,48.000000) scale(0.100000,-0.100000)"
fill="currentColor" stroke="none">
<path d="M33 470 c-29 -12 -37 -60 -29 -167 8 -106 34 -170 93 -224 73 -67
137 -84 208 -55 53 23 120 91 145 149 19 43 23 71 24 164 1 79 -3 116 -12 125
-16 16 -394 23 -429 8z m417 -50 l0 -30 -210 0 -210 0 0 30 0 30 210 0 210 0
0 -30z m0 -130 c0 -111 -42 -186 -129 -233 -62 -34 -100 -34 -162 0 -87 47
-129 122 -129 233 l0 70 210 0 210 0 0 -70z M280 235 l-54 -55 -23 22 c-13 12
-26 18 -30 15 -8 -8 36 -57 51 -57 12 0 126 110 126 122 0 18 -18 5 -70 -47z"/>
</g>
</svg>

