<?xml version="1.0" standalone="no"?>
<!DOCTYPE svg PUBLIC "-//W3C//DTD SVG 20010904//EN"
 "http://www.w3.org/TR/2001/REC-SVG-20010904/DTD/svg10.dtd">
<svg version="1.0" xmlns="http://www.w3.org/2000/svg"
 width="48.000000pt" height="48.000000pt" viewBox="0 0 48.000000 48.000000"
 preserveAspectRatio="xMidYMid meet">
<metadata>
Created by potrace 1.16, written by Peter Selinger 2001-2019
</metadata>
<g transform="translate(0.000000,48.000000) scale(0.100000,-0.100000)"
fill="currentColor" stroke="none">
<path d="M175 469 c-33 -4 -77 -15 -97 -23 -30 -13 -38 -22 -44 -52 -10 -54 2
-196 21 -240 31 -75 120 -144 185 -144 65 0 154 69 185 143 20 47 31 222 17
258 -18 44 -146 72 -267 58z m193 -34 l52 -16 0 -115 c0 -126 -8 -153 -64
-212 -77 -83 -155 -83 -232 0 -56 59 -64 86 -64 212 l0 115 48 15 c63 19 196
20 260 1z M325 378 c-11 -6 -33 -23 -50 -38 -16 -15 -46 -30 -66 -34 -49 -9
-81 -45 -81 -91 0 -113 158 -117 178 -6 4 20 22 53 40 74 19 21 34 48 34 62 0
30 -28 47 -55 33z m35 -36 c0 -10 -18 -35 -40 -57 -29 -28 -38 -44 -34 -60 8
-32 -31 -75 -68 -75 -42 0 -68 25 -68 66 0 39 42 78 75 70 16 -4 32 5 60 34
41 42 75 52 75 22z M200 215 c0 -8 7 -15 15 -15 8 0 15 7 15 15 0 8 -7 15 -15
15 -8 0 -15 -7 -15 -15z"/>
</g>
</svg>

