<?xml version="1.0" standalone="no"?>
<!DOCTYPE svg PUBLIC "-//W3C//DTD SVG 20010904//EN"
 "http://www.w3.org/TR/2001/REC-SVG-20010904/DTD/svg10.dtd">
<svg version="1.0" xmlns="http://www.w3.org/2000/svg"
 width="48.000000pt" height="48.000000pt" viewBox="0 0 48.000000 48.000000"
 preserveAspectRatio="xMidYMid meet">
<metadata>
Created by potrace 1.16, written by Peter Selinger 2001-2019
</metadata>
<g transform="translate(0.000000,48.000000) scale(0.100000,-0.100000)"
fill="currentColor" stroke="none">
<path d="M175 469 c-33 -4 -77 -15 -97 -23 -30 -13 -38 -22 -44 -52 -10 -54 2
-196 21 -240 31 -75 120 -144 185 -144 65 0 154 69 185 143 20 47 31 222 17
258 -18 44 -146 72 -267 58z m193 -34 l52 -16 0 -115 c0 -126 -8 -153 -64
-212 -77 -83 -155 -83 -232 0 -56 59 -64 86 -64 212 l0 115 48 15 c63 19 196
20 260 1z M186 358 c-9 -12 -16 -31 -16 -41 0 -10 -7 -25 -15 -33 -17 -17 -21
-119 -5 -144 13 -22 167 -22 180 0 16 25 12 127 -5 144 -8 8 -15 23 -15 33 0
37 -29 63 -70 63 -29 0 -43 -6 -54 -22z m92 -10 c7 -7 12 -20 12 -30 0 -15 -9
-18 -50 -18 -41 0 -50 3 -50 18 0 25 20 42 50 42 14 0 31 -5 38 -12z m42 -138
l0 -60 -80 0 -80 0 0 60 0 60 80 0 80 0 0 -60z M224 219 c-10 -17 13 -36 27
-22 12 12 4 33 -11 33 -5 0 -12 -5 -16 -11z"/>
</g>
</svg>

