<?xml version="1.0" standalone="no"?>
<!DOCTYPE svg PUBLIC "-//W3C//DTD SVG 20010904//EN"
 "http://www.w3.org/TR/2001/REC-SVG-20010904/DTD/svg10.dtd">
<svg version="1.0" xmlns="http://www.w3.org/2000/svg"
 width="48.000000pt" height="48.000000pt" viewBox="0 0 48.000000 48.000000"
 preserveAspectRatio="xMidYMid meet">
<metadata>
Created by potrace 1.16, written by Peter Selinger 2001-2019
</metadata>
<g transform="translate(0.000000,48.000000) scale(0.100000,-0.100000)"
fill="currentColor" stroke="none">
<path d="M175 469 c-33 -4 -77 -15 -97 -23 -30 -13 -38 -22 -44 -52 -10 -54 2
-196 21 -240 31 -75 120 -144 185 -144 65 0 154 69 185 143 20 47 31 222 17
258 -18 44 -146 72 -267 58z m193 -34 l52 -16 0 -115 c0 -126 -8 -153 -64
-212 -77 -83 -155 -83 -232 0 -56 59 -64 86 -64 212 l0 115 48 15 c63 19 196
20 260 1z M230 300 c0 -27 5 -50 10 -50 6 0 10 23 10 50 0 28 -4 50 -10 50 -5
0 -10 -22 -10 -50z M227 214 c-13 -13 -7 -24 14 -24 11 0 19 5 17 12 -5 14
-22 21 -31 12z"/>
</g>
</svg>

