<?xml version="1.0" standalone="no"?>
<!DOCTYPE svg PUBLIC "-//W3C//DTD SVG 20010904//EN"
 "http://www.w3.org/TR/2001/REC-SVG-20010904/DTD/svg10.dtd">
<svg version="1.0" xmlns="http://www.w3.org/2000/svg"
 width="48.000000pt" height="48.000000pt" viewBox="0 0 48.000000 48.000000"
 preserveAspectRatio="xMidYMid meet">
<metadata>
Created by potrace 1.16, written by Peter Selinger 2001-2019
</metadata>
<g transform="translate(0.000000,48.000000) scale(0.100000,-0.100000)"
fill="currentColor" stroke="none">
<path d="M175 469 c-33 -4 -77 -15 -97 -23 -30 -13 -38 -22 -44 -52 -10 -54 2
-196 21 -240 31 -75 120 -144 185 -144 65 0 154 69 185 143 20 47 31 222 17
258 -18 44 -146 72 -267 58z m193 -34 l52 -16 0 -115 c0 -126 -8 -153 -64
-212 -77 -83 -155 -83 -232 0 -56 59 -64 86 -64 212 l0 115 48 15 c63 19 196
20 260 1z M203 382 c-12 -2 -33 -14 -46 -28 -41 -41 -42 -97 -1 -138 30 -29
56 -35 103 -23 27 7 37 5 55 -12 29 -28 43 -14 15 15 -17 18 -19 28 -12 55 12
47 6 73 -23 102 -25 26 -54 35 -91 29z m77 -42 c27 -27 27 -83 0 -110 -27 -27
-83 -27 -110 0 -12 12 -20 33 -20 55 0 22 8 43 20 55 12 12 33 20 55 20 22 0
43 -8 55 -20z"/>
</g>
</svg>

