<?xml version="1.0" standalone="no"?>
<!DOCTYPE svg PUBLIC "-//W3C//DTD SVG 20010904//EN"
 "http://www.w3.org/TR/2001/REC-SVG-20010904/DTD/svg10.dtd">
<svg version="1.0" xmlns="http://www.w3.org/2000/svg"
 width="48.000000pt" height="48.000000pt" viewBox="0 0 48.000000 48.000000"
 preserveAspectRatio="xMidYMid meet">
<metadata>
Created by potrace 1.16, written by Peter Selinger 2001-2019
</metadata>
<g transform="translate(0.000000,48.000000) scale(0.100000,-0.100000)"
fill="currentColor" stroke="none">
<path d="M33 470 c-29 -12 -37 -60 -29 -167 8 -106 34 -170 93 -224 73 -67
137 -84 208 -55 53 23 120 91 145 149 19 43 23 71 24 164 1 79 -3 116 -12 125
-16 16 -394 23 -429 8z m417 -135 c0 -159 -30 -225 -129 -278 -62 -34 -100
-34 -162 0 -99 53 -129 119 -129 278 l0 115 210 0 210 0 0 -115z M202 382 c-8
-25 -14 -28 -39 -25 -19 3 -34 -1 -43 -12 -12 -15 -12 -21 2 -46 16 -27 16
-31 0 -58 -14 -25 -14 -31 -2 -46 9 -11 24 -15 43 -12 25 3 31 0 39 -25 8 -22
16 -28 38 -28 22 0 30 6 38 28 8 25 14 28 39 25 19 -3 34 1 43 12 12 15 12 21
-2 46 -16 27 -16 31 0 58 14 25 14 31 2 46 -9 11 -24 15 -43 12 -25 -3 -31 0
-39 25 -8 22 -16 28 -38 28 -22 0 -30 -6 -38 -28z m60 -19 c11 -22 20 -28 47
-28 38 0 50 -15 26 -35 -8 -7 -15 -20 -15 -30 0 -10 7 -23 15 -30 24 -20 12
-35 -26 -35 -27 0 -36 -6 -47 -27 -17 -35 -27 -35 -44 0 -11 21 -20 27 -47 27
-38 0 -50 15 -26 35 19 16 19 44 0 60 -28 23 -18 41 22 38 32 -3 39 1 51 25 7
15 17 27 22 27 5 0 15 -12 22 -27z M210 295 c-15 -18 -10 -45 13 -59 34 -22
73 27 47 59 -16 19 -44 19 -60 0z m46 -16 c10 -17 -13 -36 -27 -22 -12 12 -4
33 11 33 5 0 12 -5 16 -11z"/>
</g>
</svg>

