<?xml version="1.0" standalone="no"?>
<!DOCTYPE svg PUBLIC "-//W3C//DTD SVG 20010904//EN"
 "http://www.w3.org/TR/2001/REC-SVG-20010904/DTD/svg10.dtd">
<svg version="1.0" xmlns="http://www.w3.org/2000/svg"
 width="48.000000pt" height="48.000000pt" viewBox="0 0 48.000000 48.000000"
 preserveAspectRatio="xMidYMid meet">
<metadata>
Created by potrace 1.16, written by Peter Selinger 2001-2019
</metadata>
<g transform="translate(0.000000,48.000000) scale(0.100000,-0.100000)"
fill="currentColor" stroke="none">
<path d="M10 381 c-13 -25 -13 -217 0 -242 6 -10 18 -19 28 -19 9 0 23 -9 30
-20 13 -22 51 -27 69 -9 8 8 13 8 17 0 12 -18 55 -12 68 9 17 27 69 27 86 0 7
-11 23 -20 37 -20 14 0 30 9 37 20 9 13 24 20 45 20 39 0 53 21 53 79 0 40
-19 71 -45 71 -8 0 -26 16 -41 35 -14 19 -34 35 -43 35 -9 0 -22 13 -28 30
l-11 30 -146 0 c-133 0 -146 -2 -156 -19z m82 -68 c2 -38 8 -68 13 -68 6 0 11
30 13 68 l3 67 34 0 34 0 3 -67 c2 -38 8 -68 13 -68 6 0 11 30 13 68 l3 67 39
0 40 0 0 -120 0 -120 -33 0 c-21 0 -36 7 -45 20 -13 22 -51 27 -69 9 -8 -8
-13 -8 -17 0 -12 18 -55 12 -68 -9 -7 -11 -18 -20 -25 -20 -10 0 -13 30 -13
120 l0 120 30 0 c29 0 29 0 32 -67z m288 -23 c12 -16 32 -33 46 -36 22 -6 24
-11 24 -60 0 -52 -1 -54 -28 -54 -16 0 -32 8 -40 20 -7 11 -21 20 -32 20 -18
0 -20 7 -20 70 0 80 14 91 50 40z m-255 -160 c0 -29 -32 -41 -41 -16 -9 24 4
48 23 44 12 -2 18 -12 18 -28z m80 0 c0 -16 -6 -26 -18 -28 -19 -4 -32 20 -23
44 9 25 41 13 41 -16z m160 0 c0 -29 -32 -41 -41 -16 -9 24 4 48 23 44 12 -2
18 -12 18 -28z"/>
</g>
</svg>

