<?xml version="1.0" standalone="no"?>
<!DOCTYPE svg PUBLIC "-//W3C//DTD SVG 20010904//EN"
 "http://www.w3.org/TR/2001/REC-SVG-20010904/DTD/svg10.dtd">
<svg version="1.0" xmlns="http://www.w3.org/2000/svg"
 width="48.000000pt" height="48.000000pt" viewBox="0 0 48.000000 48.000000"
 preserveAspectRatio="xMidYMid meet">
<metadata>
Created by potrace 1.16, written by Peter Selinger 2001-2019
</metadata>
<g transform="translate(0.000000,48.000000) scale(0.100000,-0.100000)"
fill="currentColor" stroke="currentColor" stroke-width="6" stroke-linejoin="round">
<path d="M70 450 c-58 -62 -72 -109 -68 -225 2 -68 7 -109 16 -117 15 -15 135
-18 142 -3 3 6 -22 11 -62 13 l-68 3 0 119 0 120 165 0 c157 0 165 -1 165 -19
0 -23 16 -36 25 -21 9 14 -30 93 -65 130 -27 29 -30 30 -125 30 -95 0 -98 -1
-125 -30z m110 -30 l0 -30 -60 0 c-33 0 -60 2 -60 5 0 3 7 17 16 30 13 20 25
25 60 25 42 0 44 -1 44 -30z m134 5 c9 -13 16 -27 16 -30 0 -3 -27 -5 -60 -5
l-60 0 0 30 c0 29 2 30 44 30 35 0 47 -5 60 -25z M258 264 c-15 -8 -35 -28
-43 -44 -51 -99 48 -205 150 -158 23 10 29 8 60 -22 45 -44 59 -30 15 15 -30
31 -32 37 -22 60 47 102 -62 203 -160 149z m126 -34 c30 -30 29 -102 -2 -132
-29 -30 -100 -32 -131 -4 -45 40 -34 126 19 154 33 17 88 8 114 -18z"/>
</g>
</svg>

