<?xml version="1.0" standalone="no"?>
<!DOCTYPE svg PUBLIC "-//W3C//DTD SVG 20010904//EN"
 "http://www.w3.org/TR/2001/REC-SVG-20010904/DTD/svg10.dtd">
<svg version="1.0" xmlns="http://www.w3.org/2000/svg"
 width="48.000000pt" height="48.000000pt" viewBox="0 0 48.000000 48.000000"
 preserveAspectRatio="xMidYMid meet">
<metadata>
Created by potrace 1.16, written by Peter Selinger 2001-2019
</metadata>
<g transform="translate(0.000000,48.000000) scale(0.100000,-0.100000)"
fill="currentColor" stroke="none">
<path d="M78 473 c-41 -11 -37 -138 5 -202 27 -41 90 -81 127 -81 18 0 20 -6
20 -79 0 -78 -1 -80 -25 -83 -50 -6 -24 -23 35 -23 61 0 89 17 38 23 -28 3
-28 4 -28 83 0 73 2 79 20 79 38 0 100 40 127 82 22 32 28 55 31 107 1 36 -2
73 -7 81 -8 12 -40 15 -168 17 -87 1 -166 -1 -175 -4z m132 -58 c-25 -41 -20
-55 21 -55 l31 0 -21 -34 c-22 -36 -25 -46 -13 -46 12 0 64 89 57 100 -3 5
-20 10 -36 10 l-30 0 18 30 c17 29 19 30 95 30 l78 0 0 -53 c0 -112 -68 -187
-170 -187 -103 0 -170 72 -170 183 l0 57 81 0 81 0 -22 -35z"/>
</g>
</svg>

