<?xml version="1.0" standalone="no"?>
<!DOCTYPE svg PUBLIC "-//W3C//DTD SVG 20010904//EN"
 "http://www.w3.org/TR/2001/REC-SVG-20010904/DTD/svg10.dtd">
<svg version="1.0" xmlns="http://www.w3.org/2000/svg"
 width="48.000000pt" height="48.000000pt" viewBox="0 0 48.000000 48.000000"
 preserveAspectRatio="xMidYMid meet">
<metadata>
Created by potrace 1.16, written by Peter Selinger 2001-2019
</metadata>
<g transform="translate(0.000000,48.000000) scale(0.100000,-0.100000)"
fill="currentColor" stroke="currentColor" stroke-width="6" stroke-linejoin="round">
<path d="M10 381 c-13 -25 -13 -217 0 -242 7 -12 21 -19 38 -19 16 0 32 -8 40
-20 16 -26 58 -26 74 0 11 17 24 20 83 20 59 0 72 -3 83 -20 16 -26 58 -26 74
0 7 11 23 20 36 20 49 0 55 94 7 106 -29 7 -66 50 -59 68 11 29 -16 67 -62 86
-37 17 -69 20 -174 20 -118 0 -130 -2 -140 -19z m250 -81 l0 -80 -115 0 -115
0 0 80 0 80 115 0 115 0 0 -80z m70 55 c18 -9 30 -24 30 -35 0 -16 -7 -20 -35
-20 -33 0 -35 2 -35 35 0 40 1 40 40 20z m50 -105 c12 -16 32 -33 46 -36 19
-5 24 -12 24 -40 0 -26 -4 -34 -18 -34 -9 0 -23 9 -30 20 -7 11 -23 20 -37 20
-14 0 -30 -9 -37 -20 -25 -40 -38 -23 -38 50 l0 70 34 0 c27 0 39 -7 56 -30z
m-120 -80 c0 -29 -2 -30 -43 -30 -31 0 -45 5 -55 20 -7 11 -23 20 -37 20 -14
0 -30 -9 -37 -20 -7 -11 -23 -20 -35 -20 -19 0 -23 6 -23 30 l0 30 115 0 115
0 0 -30z m-115 -40 c0 -16 -6 -26 -18 -28 -19 -4 -32 20 -23 44 9 25 41 13 41
-16z m240 0 c0 -29 -32 -41 -41 -16 -9 24 4 48 23 44 12 -2 18 -12 18 -28z"/>
</g>
</svg>

