<?xml version="1.0" standalone="no"?>
<!DOCTYPE svg PUBLIC "-//W3C//DTD SVG 20010904//EN"
 "http://www.w3.org/TR/2001/REC-SVG-20010904/DTD/svg10.dtd">
<svg version="1.0" xmlns="http://www.w3.org/2000/svg"
 width="48.000000pt" height="48.000000pt" viewBox="0 0 48.000000 48.000000"
 preserveAspectRatio="xMidYMid meet">
<metadata>
Created by potrace 1.16, written by Peter Selinger 2001-2019
</metadata>
<g transform="translate(0.000000,48.000000) scale(0.100000,-0.100000)"
fill="currentColor" stroke="none">
<path d="M70 450 c-58 -62 -72 -109 -68 -225 2 -68 7 -109 16 -117 15 -15 135
-18 142 -3 3 6 -22 11 -62 13 l-68 3 0 119 0 120 165 0 c157 0 165 -1 165 -19
0 -23 16 -36 25 -21 9 14 -30 93 -65 130 -27 29 -30 30 -125 30 -95 0 -98 -1
-125 -30z m110 -30 l0 -30 -60 0 c-33 0 -60 2 -60 5 0 3 7 17 16 30 13 20 25
25 60 25 42 0 44 -1 44 -30z m134 5 c9 -13 16 -27 16 -30 0 -3 -27 -5 -60 -5
l-60 0 0 30 c0 29 2 30 44 30 35 0 47 -5 60 -25z M317 262 c-15 -2 -43 -19
-62 -37 -53 -53 -53 -127 0 -180 53 -53 127 -53 179 0 54 53 54 126 1 179 -33
33 -66 44 -118 38z m104 -51 c24 -24 29 -38 29 -76 0 -66 -39 -105 -105 -105
-66 0 -105 39 -105 105 0 66 39 105 105 105 38 0 52 -5 76 -29z M285 140 c-3
-5 0 -13 8 -16 23 -9 112 0 110 11 -4 14 -110 19 -118 5z"/>
</g>
</svg>

