<?xml version="1.0" standalone="no"?>
<!DOCTYPE svg PUBLIC "-//W3C//DTD SVG 20010904//EN"
 "http://www.w3.org/TR/2001/REC-SVG-20010904/DTD/svg10.dtd">
<svg version="1.0" xmlns="http://www.w3.org/2000/svg"
 width="48.000000pt" height="48.000000pt" viewBox="0 0 48.000000 48.000000"
 preserveAspectRatio="xMidYMid meet">
<metadata>
Created by potrace 1.16, written by Peter Selinger 2001-2019
</metadata>
<g transform="translate(0.000000,48.000000) scale(0.100000,-0.100000)"
fill="currentColor" stroke="currentColor" stroke-width="6" stroke-linejoin="round">
<path d="M130 370 c-23 -27 -50 -50 -59 -50 -9 0 -26 -6 -36 -14 -18 -13 -18
-16 4 -117 13 -57 28 -110 34 -116 14 -18 320 -18 334 0 6 6 21 59 34 116 22
101 22 104 4 117 -10 8 -26 14 -34 14 -9 0 -37 23 -63 52 -25 29 -49 50 -53
46 -4 -4 9 -26 29 -50 l37 -43 -60 -3 c-34 -2 -88 -2 -122 0 l-60 3 35 42 c20
22 36 44 36 47 0 17 -23 1 -60 -44z m306 -83 c3 -8 -6 -56 -19 -108 l-23 -94
-154 0 -154 0 -23 94 c-13 52 -22 100 -19 108 8 19 384 19 392 0z M140 190 c0
-40 4 -70 10 -70 6 0 10 30 10 70 0 40 -4 70 -10 70 -6 0 -10 -30 -10 -70z
M230 190 c0 -40 4 -70 10 -70 6 0 10 30 10 70 0 40 -4 70 -10 70 -6 0 -10 -30
-10 -70z M320 190 c0 -40 4 -70 10 -70 6 0 10 30 10 70 0 40 -4 70 -10 70 -6
0 -10 -30 -10 -70z"/>
</g>
</svg>

