<?xml version="1.0" standalone="no"?>
<!DOCTYPE svg PUBLIC "-//W3C//DTD SVG 20010904//EN"
 "http://www.w3.org/TR/2001/REC-SVG-20010904/DTD/svg10.dtd">
<svg version="1.0" xmlns="http://www.w3.org/2000/svg"
 width="48.000000pt" height="48.000000pt" viewBox="0 0 48.000000 48.000000"
 preserveAspectRatio="xMidYMid meet">
<metadata>
Created by potrace 1.16, written by Peter Selinger 2001-2019
</metadata>
<g transform="translate(0.000000,48.000000) scale(0.100000,-0.100000)"
fill="currentColor" stroke="none">
<path d="M88 473 c-30 -8 -62 -135 -39 -159 5 -5 11 -25 13 -44 4 -41 22 -47
26 -10 4 31 54 55 83 40 26 -14 50 -12 69 5 15 14 18 14 30 0 14 -17 43 -19
69 -5 12 6 29 5 50 -3 l31 -11 0 -108 0 -108 -40 0 c-22 0 -40 -4 -40 -10 0
-13 70 -13 90 0 12 7 16 36 18 127 2 65 8 122 13 127 25 27 -9 150 -44 160
-25 7 -303 6 -329 -1z m347 -59 c19 -46 19 -78 0 -94 -19 -15 -52 -4 -60 21
-8 24 -22 24 -30 0 -12 -38 -75 -34 -75 5 0 26 -19 24 -32 -3 -17 -36 -58 -39
-73 -5 -12 27 -22 28 -30 3 -8 -25 -41 -36 -60 -21 -19 16 -19 48 0 94 l15 36
165 0 165 0 15 -36z M120 225 c-6 -14 -10 -35 -10 -46 0 -16 -7 -19 -50 -19
-27 0 -50 -4 -50 -10 0 -5 16 -10 35 -10 l35 0 0 -54 c0 -54 0 -55 -32 -58
-18 -2 -33 -7 -33 -13 0 -13 65 -19 77 -7 6 6 24 6 49 0 47 -13 101 -4 122 20
10 11 17 38 19 67 1 39 -3 51 -21 67 -13 10 -29 18 -36 18 -7 0 -16 15 -21 33
-8 26 -15 33 -42 35 -27 3 -34 -1 -42 -23z m60 -14 c0 -32 11 -51 30 -51 41 0
50 -11 50 -59 0 -26 -5 -52 -12 -59 -12 -12 -104 -17 -132 -6 -18 7 -23 88 -6
99 6 3 15 26 21 51 8 32 16 44 30 44 12 0 19 -7 19 -19z"/>
</g>
</svg>

