<?xml version="1.0" standalone="no"?>
<!DOCTYPE svg PUBLIC "-//W3C//DTD SVG 20010904//EN"
 "http://www.w3.org/TR/2001/REC-SVG-20010904/DTD/svg10.dtd">
<svg version="1.0" xmlns="http://www.w3.org/2000/svg"
 width="48.000000pt" height="48.000000pt" viewBox="0 0 48.000000 48.000000"
 preserveAspectRatio="xMidYMid meet">
<metadata>
Created by potrace 1.16, written by Peter Selinger 2001-2019
</metadata>
<g transform="translate(0.000000,48.000000) scale(0.100000,-0.100000)"
fill="currentColor" stroke="none">
<path d="M381 446 c-15 -16 -21 -33 -19 -52 4 -41 38 -43 80 -5 l33 29 -24 26
c-30 32 -41 32 -70 2z m49 -40 c-15 -19 -50 -21 -50 -4 0 6 8 20 17 30 15 16
18 17 31 4 13 -12 13 -18 2 -30z M184 435 c-16 -7 -35 -24 -41 -38 -17 -37 -3
-42 18 -7 25 41 78 42 108 3 27 -34 41 -21 15 14 -25 34 -62 44 -100 28z M73
313 c-15 -14 -25 -48 -42 -148 l-22 -130 22 -18 c20 -16 40 -18 195 -15 122 2
177 7 186 16 10 10 8 39 -10 149 -13 76 -27 142 -33 148 -5 5 -70 11 -142 13
-117 3 -135 1 -154 -15z m287 -15 c0 -2 9 -55 20 -118 11 -63 20 -123 20 -132
0 -17 -15 -18 -179 -18 -99 0 -182 3 -184 8 -5 7 28 223 38 250 3 9 41 12 145
12 77 0 140 -1 140 -2z M154 197 c-3 -8 -4 -34 -2 -58 l3 -44 65 0 65 0 0 55
0 55 -63 3 c-47 2 -64 -1 -68 -11z m116 -47 c0 -29 -1 -30 -50 -30 -49 0 -50
1 -50 30 0 29 1 30 50 30 49 0 50 -1 50 -30z"/>
</g>
</svg>

