<?xml version="1.0" standalone="no"?>
<!DOCTYPE svg PUBLIC "-//W3C//DTD SVG 20010904//EN"
 "http://www.w3.org/TR/2001/REC-SVG-20010904/DTD/svg10.dtd">
<svg version="1.0" xmlns="http://www.w3.org/2000/svg"
 width="48.000000pt" height="48.000000pt" viewBox="0 0 48.000000 48.000000"
 preserveAspectRatio="xMidYMid meet">
<metadata>
Created by potrace 1.16, written by Peter Selinger 2001-2019
</metadata>
<g transform="translate(0.000000,48.000000) scale(0.100000,-0.100000)"
fill="currentColor" stroke="none">
<path d="M48 468 c-17 -14 -38 -89 -38 -136 0 -51 52 -78 101 -52 14 8 25 6
44 -6 22 -15 27 -15 56 0 22 11 36 13 43 6 13 -13 69 -13 82 0 7 7 20 5 41 -5
41 -20 80 -6 89 32 10 37 -13 145 -34 161 -11 8 -66 12 -192 12 -126 0 -181
-4 -192 -12z m391 -68 c17 -77 14 -99 -11 -109 -28 -10 -54 2 -63 29 -8 26
-18 25 -30 -2 -7 -17 -18 -23 -40 -23 -22 0 -33 6 -40 23 -11 25 -25 29 -25 8
0 -21 -38 -45 -61 -39 -10 3 -22 16 -25 29 -8 31 -18 30 -32 -1 -19 -41 -82
-29 -82 17 0 9 5 40 11 68 l11 50 188 0 188 0 11 -50z M35 218 c-10 -25 -1
-203 10 -201 13 4 19 193 6 206 -7 7 -12 5 -16 -5z M425 218 c-10 -25 -1 -203
10 -201 13 4 19 193 6 206 -7 7 -12 5 -16 -5z M175 188 c-10 -18 -26 -43 -38
-55 -20 -22 -20 -23 -2 -70 10 -26 23 -51 29 -55 18 -13 131 -9 149 5 9 6 23
31 31 55 15 40 14 44 -5 63 -12 12 -27 36 -35 55 -8 19 -19 32 -24 29 -7 -4
-6 -13 0 -25 18 -34 11 -40 -44 -40 l-55 0 11 31 c15 42 3 48 -17 7z m155 -88
c0 -10 -5 -31 -12 -45 -10 -23 -16 -25 -79 -25 l-69 0 -15 36 c-8 20 -12 40
-9 45 3 5 45 9 95 9 82 0 89 -2 89 -20z M200 75 c0 -14 5 -25 10 -25 6 0 10
11 10 25 0 14 -4 25 -10 25 -5 0 -10 -11 -10 -25z M260 75 c0 -14 5 -25 10
-25 6 0 10 11 10 25 0 14 -4 25 -10 25 -5 0 -10 -11 -10 -25z"/>
</g>
</svg>

