<?xml version="1.0" standalone="no"?>
<!DOCTYPE svg PUBLIC "-//W3C//DTD SVG 20010904//EN"
 "http://www.w3.org/TR/2001/REC-SVG-20010904/DTD/svg10.dtd">
<svg version="1.0" xmlns="http://www.w3.org/2000/svg"
 width="48.000000pt" height="48.000000pt" viewBox="0 0 48.000000 48.000000"
 preserveAspectRatio="xMidYMid meet">
<metadata>
Created by potrace 1.16, written by Peter Selinger 2001-2019
</metadata>
<g transform="translate(0.000000,48.000000) scale(0.100000,-0.100000)"
fill="currentColor" stroke="none">
<path d="M246 448 c-9 -12 -16 -35 -16 -50 0 -23 -4 -28 -25 -28 -21 0 -25 5
-25 28 0 15 5 33 12 40 6 6 9 15 5 18 -12 12 -36 -17 -43 -52 -6 -32 -9 -34
-44 -34 -21 0 -43 -7 -50 -15 -15 -17 -53 -290 -45 -321 7 -31 29 -34 225 -34
196 0 218 3 225 34 8 30 -31 304 -45 321 -7 8 -21 15 -31 15 -14 0 -19 7 -19
28 0 46 -25 72 -70 72 -29 0 -43 -6 -54 -22z m94 -17 c5 -11 10 -29 10 -40 0
-17 -6 -21 -35 -21 -19 0 -35 -4 -35 -10 0 -5 16 -10 35 -10 35 0 35 0 35 -45
0 -25 5 -45 10 -45 6 0 10 20 10 45 0 38 3 45 20 45 14 0 21 -9 24 -32 10 -56
36 -258 36 -273 0 -12 -22 -15 -130 -15 -126 0 -130 1 -134 23 -7 31 -36 260
-36 280 0 13 9 17 40 17 l40 0 0 -45 c0 -25 5 -45 10 -45 6 0 10 34 10 83 0
51 5 88 12 95 19 19 66 15 78 -7z m-199 -201 c9 -63 18 -134 22 -158 l5 -42
-69 0 c-50 0 -69 4 -69 13 0 19 29 247 36 280 5 23 10 28 32 25 26 -3 27 -6
43 -118z"/>
</g>
</svg>

