<?xml version="1.0" standalone="no"?>
<!DOCTYPE svg PUBLIC "-//W3C//DTD SVG 20010904//EN"
 "http://www.w3.org/TR/2001/REC-SVG-20010904/DTD/svg10.dtd">
<svg version="1.0" xmlns="http://www.w3.org/2000/svg"
 width="48.000000pt" height="48.000000pt" viewBox="0 0 48.000000 48.000000"
 preserveAspectRatio="xMidYMid meet">
<metadata>
Created by potrace 1.16, written by Peter Selinger 2001-2019
</metadata>
<g transform="translate(0.000000,48.000000) scale(0.100000,-0.100000)"
fill="currentColor" stroke="currentColor" stroke-width="6" stroke-linejoin="round">
<path d="M42 458 c-14 -19 -35 -118 -30 -153 2 -20 12 -34 31 -45 25 -14 30
-13 59 3 22 12 34 15 42 7 13 -13 69 -13 83 1 8 8 18 6 38 -7 24 -16 29 -16
59 -1 21 9 38 12 47 6 43 -27 99 4 99 55 0 35 -20 117 -33 134 -7 9 -59 12
-197 12 -138 0 -190 -3 -198 -12z m396 -59 c15 -64 15 -92 0 -107 -21 -21 -57
-14 -70 13 -14 30 -28 33 -28 5 0 -12 -10 -25 -25 -32 -21 -9 -28 -8 -45 7
-11 10 -20 24 -20 32 0 21 -14 15 -25 -9 -7 -17 -18 -23 -40 -23 -22 0 -33 6
-40 23 -11 25 -25 29 -25 7 0 -8 -11 -22 -24 -30 -19 -13 -29 -14 -45 -5 -24
13 -27 44 -9 119 l11 51 187 0 187 0 11 -51z M32 168 c-7 -7 -12 -39 -12 -75
0 -52 3 -64 20 -73 14 -8 26 -8 40 0 17 9 20 21 20 73 0 64 -11 87 -40 87 -9
0 -21 -5 -28 -12z m46 -70 c-2 -48 -7 -63 -18 -63 -11 0 -16 15 -18 63 -3 57
-1 62 18 62 19 0 21 -5 18 -62z M140 95 c0 -50 4 -85 10 -85 6 0 10 13 10 28
0 21 7 32 25 40 52 24 36 102 -22 102 -22 0 -23 -2 -23 -85z m55 45 c7 -21 -9
-50 -26 -50 -5 0 -9 16 -9 35 0 39 24 49 35 15z M272 168 c-7 -7 -12 -39 -12
-75 0 -66 12 -83 59 -83 31 0 25 18 -6 22 -17 2 -29 10 -31 20 -3 14 3 18 27
18 17 0 31 5 31 10 0 6 -13 10 -30 10 -28 0 -30 3 -30 35 0 32 2 35 30 35 17
0 30 5 30 10 0 14 -54 12 -68 -2z M380 95 c0 -50 4 -85 10 -85 6 0 10 24 11
53 l0 52 21 -53 c11 -28 25 -52 29 -52 5 0 9 38 9 85 0 50 -4 85 -10 85 -5 0
-10 -21 -11 -47 l-1 -48 -20 48 c-11 26 -24 47 -29 47 -5 0 -9 -38 -9 -85z"/>
</g>
</svg>

