<?xml version="1.0" standalone="no"?>
<!DOCTYPE svg PUBLIC "-//W3C//DTD SVG 20010904//EN"
 "http://www.w3.org/TR/2001/REC-SVG-20010904/DTD/svg10.dtd">
<svg version="1.0" xmlns="http://www.w3.org/2000/svg"
 width="48.000000pt" height="48.000000pt" viewBox="0 0 48.000000 48.000000"
 preserveAspectRatio="xMidYMid meet">
<metadata>
Created by potrace 1.16, written by Peter Selinger 2001-2019
</metadata>
<g transform="translate(0.000000,48.000000) scale(0.100000,-0.100000)"
fill="currentColor" stroke="none">
<path d="M88 473 c-18 -5 -48 -81 -48 -125 0 -40 41 -66 82 -50 20 7 37 8 49
2 26 -14 50 -12 69 5 15 14 18 14 30 0 14 -17 43 -19 69 -5 12 6 29 5 50 -3
l31 -11 0 -108 0 -108 -55 0 c-30 0 -55 -4 -55 -10 0 -13 100 -13 120 0 12 7
16 36 18 127 2 65 8 122 13 127 25 27 -9 150 -44 160 -25 7 -303 6 -329 -1z
m347 -59 c19 -46 19 -78 0 -94 -19 -15 -52 -4 -60 21 -8 24 -22 24 -30 0 -12
-38 -75 -34 -75 5 0 26 -19 24 -32 -3 -17 -36 -58 -39 -73 -5 -12 27 -22 28
-30 3 -8 -25 -41 -36 -60 -21 -19 16 -19 48 0 94 l15 36 165 0 165 0 15 -36z
M17 254 c-12 -12 4 -24 34 -24 29 0 29 -1 29 -55 l0 -55 -35 0 c-19 0 -35 -4
-35 -10 0 -5 22 -10 48 -10 l48 0 10 -42 c8 -41 11 -43 44 -43 30 0 35 4 44
33 5 17 14 32 21 32 7 0 23 8 36 18 18 16 22 28 21 67 -2 29 -9 56 -19 67 -21
24 -75 33 -123 20 -23 -6 -42 -6 -46 -1 -6 10 -67 12 -77 3z m231 -36 c7 -7
12 -33 12 -59 0 -48 -9 -59 -50 -59 -19 0 -30 -19 -30 -51 0 -12 -7 -19 -19
-19 -14 0 -22 12 -30 44 -6 25 -15 48 -21 51 -15 9 -12 92 3 98 25 11 123 7
135 -5z"/>
</g>
</svg>

