<?xml version="1.0" standalone="no"?>
<!DOCTYPE svg PUBLIC "-//W3C//DTD SVG 20010904//EN"
 "http://www.w3.org/TR/2001/REC-SVG-20010904/DTD/svg10.dtd">
<svg version="1.0" xmlns="http://www.w3.org/2000/svg"
 width="48.000000pt" height="48.000000pt" viewBox="0 0 48.000000 48.000000"
 preserveAspectRatio="xMidYMid meet">
<metadata>
Created by potrace 1.16, written by Peter Selinger 2001-2019
</metadata>
<g transform="translate(0.000000,48.000000) scale(0.100000,-0.100000)"
fill="currentColor" stroke="none">
<path d="M42 458 c-14 -19 -35 -118 -30 -153 2 -20 12 -34 31 -45 25 -14 30
-13 59 3 22 12 34 15 42 7 13 -13 69 -13 83 1 8 8 18 6 38 -7 24 -16 29 -16
59 -1 21 9 38 12 47 6 43 -27 99 4 99 55 0 35 -20 117 -33 134 -7 9 -59 12
-197 12 -138 0 -190 -3 -198 -12z m396 -59 c15 -64 15 -92 0 -107 -21 -21 -57
-14 -70 13 -14 30 -28 33 -28 5 0 -12 -10 -25 -25 -32 -21 -9 -28 -8 -45 7
-11 10 -20 24 -20 32 0 21 -14 15 -25 -9 -7 -17 -18 -23 -40 -23 -22 0 -33 6
-40 23 -11 25 -25 29 -25 7 0 -8 -11 -22 -24 -30 -19 -13 -29 -14 -45 -5 -24
13 -27 44 -9 119 l11 51 187 0 187 0 11 -51z M28 163 c-38 -44 -29 -120 18
-142 30 -13 34 -14 34 -3 0 5 -11 14 -26 20 -22 11 -25 17 -22 60 2 38 7 49
26 57 12 5 22 13 22 17 0 15 -37 8 -52 -9z M96 173 c-13 -13 -6 -119 10 -141
15 -22 64 -31 64 -12 0 6 -11 10 -25 10 -24 0 -25 2 -25 69 0 65 -8 90 -24 74z
M190 154 c-23 -59 -2 -144 35 -144 37 0 58 85 35 144 -7 19 -17 26 -35 26 -18
0 -28 -7 -35 -26z m50 -59 c0 -51 -3 -65 -15 -65 -12 0 -15 14 -15 65 0 51 3
65 15 65 12 0 15 -14 15 -65z M302 168 c-19 -19 -14 -40 19 -74 36 -37 33 -64
-6 -64 -14 0 -25 -4 -25 -10 0 -13 36 -13 61 0 27 15 24 44 -11 83 -16 19 -30
40 -30 46 0 6 14 11 30 11 17 0 30 5 30 10 0 14 -54 12 -68 -2z M400 154 c-15
-38 -12 -97 6 -122 15 -22 64 -31 64 -12 0 6 -11 10 -25 10 -18 0 -25 5 -25
20 0 15 7 20 25 20 14 0 25 5 25 10 0 6 -11 10 -25 10 -22 0 -25 4 -25 35 0
31 3 35 25 35 14 0 25 5 25 10 0 6 -14 10 -30 10 -24 0 -33 -6 -40 -26z"/>
</g>
</svg>

