<?xml version="1.0" standalone="no"?>
<!DOCTYPE svg PUBLIC "-//W3C//DTD SVG 20010904//EN"
 "http://www.w3.org/TR/2001/REC-SVG-20010904/DTD/svg10.dtd">
<svg version="1.0" xmlns="http://www.w3.org/2000/svg"
 width="48.000000pt" height="48.000000pt" viewBox="0 0 48.000000 48.000000"
 preserveAspectRatio="xMidYMid meet">
<metadata>
Created by potrace 1.16, written by Peter Selinger 2001-2019
</metadata>
<g transform="translate(0.000000,48.000000) scale(0.100000,-0.100000)"
fill="currentColor" stroke="none">
<path d="M116 431 c-21 -21 -52 -43 -69 -48 -42 -11 -44 -30 -17 -149 24 -104
37 -119 104 -112 46 4 33 23 -19 26 -40 3 -46 6 -51 30 -3 15 -12 52 -20 83
-27 108 -42 99 181 99 l195 0 0 -32 c0 -23 3 -29 11 -21 6 6 9 23 7 39 -2 20
-11 30 -33 37 -16 5 -49 28 -72 50 -51 49 -71 42 -23 -8 l34 -35 -119 0 -119
0 32 33 c18 18 32 36 32 40 0 16 -18 5 -54 -32z M317 262 c-15 -2 -43 -19 -62
-37 -53 -53 -53 -127 0 -180 53 -53 127 -53 179 0 54 53 54 126 1 179 -33 33
-66 44 -118 38z m83 -32 c12 -8 0 -24 -63 -87 -85 -86 -97 -87 -97 -5 0 61 41
102 102 102 24 0 50 -5 58 -10z m44 -46 c3 -9 6 -34 6 -56 0 -57 -42 -98 -102
-98 -81 0 -81 11 2 95 41 41 78 75 81 75 4 0 10 -7 13 -16z"/>
</g>
</svg>

