<?xml version="1.0" standalone="no"?>
<!DOCTYPE svg PUBLIC "-//W3C//DTD SVG 20010904//EN"
 "http://www.w3.org/TR/2001/REC-SVG-20010904/DTD/svg10.dtd">
<svg version="1.0" xmlns="http://www.w3.org/2000/svg"
 width="48.000000pt" height="48.000000pt" viewBox="0 0 48.000000 48.000000"
 preserveAspectRatio="xMidYMid meet">
<metadata>
Created by potrace 1.16, written by Peter Selinger 2001-2019
</metadata>
<g transform="translate(0.000000,48.000000) scale(0.100000,-0.100000)"
fill="currentColor" stroke="currentColor" stroke-width="6" stroke-linejoin="round">
<path d="M415 456 c-13 -10 -31 -57 -55 -148 l-36 -133 -122 -3 c-139 -3 -128
-10 -157 101 -18 66 -35 96 -35 61 0 -24 40 -157 52 -171 7 -9 48 -13 139 -13
112 0 129 2 138 18 5 9 23 71 41 137 34 128 42 145 71 145 11 0 19 5 19 10 0
15 -33 12 -55 -4z M140 382 c0 -5 9 -17 20 -27 l20 -18 -22 -24 c-24 -26 -6
-33 22 -8 15 14 18 14 30 0 7 -8 19 -15 28 -15 12 0 11 5 -6 23 l-22 23 22 22
c29 29 15 42 -15 14 l-24 -22 -18 20 c-19 21 -35 26 -35 12z M97 92 c-24 -26
-21 -49 7 -67 34 -23 66 -5 66 35 0 45 -44 64 -73 32z m48 -33 c0 -28 -23 -32
-39 -6 -8 14 -8 20 4 27 22 14 35 6 35 -21z M247 92 c-24 -26 -21 -49 7 -67
34 -23 66 -5 66 35 0 45 -44 64 -73 32z m48 -33 c0 -28 -23 -32 -39 -6 -8 14
-8 20 4 27 22 14 35 6 35 -21z"/>
</g>
</svg>

