<?xml version="1.0" standalone="no"?>
<!DOCTYPE svg PUBLIC "-//W3C//DTD SVG 20010904//EN"
 "http://www.w3.org/TR/2001/REC-SVG-20010904/DTD/svg10.dtd">
<svg version="1.0" xmlns="http://www.w3.org/2000/svg"
 width="48.000000pt" height="48.000000pt" viewBox="0 0 48.000000 48.000000"
 preserveAspectRatio="xMidYMid meet">
<metadata>
Created by potrace 1.16, written by Peter Selinger 2001-2019
</metadata>
<g transform="translate(0.000000,48.000000) scale(0.100000,-0.100000)"
fill="currentColor" stroke="none">
<path d="M116 431 c-21 -21 -52 -43 -69 -48 -42 -11 -44 -30 -17 -149 24 -104
37 -119 104 -112 46 4 33 23 -19 26 -40 3 -46 6 -51 30 -3 15 -12 52 -20 83
-27 108 -42 99 181 99 l195 0 0 -32 c0 -23 3 -29 11 -21 6 6 9 23 7 39 -2 20
-11 30 -33 37 -16 5 -49 28 -72 50 -51 49 -71 42 -23 -8 l34 -35 -119 0 -119
0 32 33 c18 18 32 36 32 40 0 16 -18 5 -54 -32z M317 262 c-15 -2 -43 -19 -62
-37 -53 -53 -53 -127 0 -180 53 -53 127 -53 179 0 54 53 54 126 1 179 -33 33
-66 44 -118 38z m104 -51 c24 -24 29 -38 29 -76 0 -66 -39 -105 -105 -105 -66
0 -105 39 -105 105 0 66 39 105 105 105 38 0 52 -5 76 -29z M364 143 c-15 -21
-29 -40 -31 -42 -1 -2 -12 4 -23 14 -11 10 -23 15 -27 12 -9 -10 27 -47 46
-47 14 1 81 79 81 95 0 15 -21 1 -46 -32z"/>
</g>
</svg>

