<?xml version="1.0" standalone="no"?>
<!DOCTYPE svg PUBLIC "-//W3C//DTD SVG 20010904//EN"
 "http://www.w3.org/TR/2001/REC-SVG-20010904/DTD/svg10.dtd">
<svg version="1.0" xmlns="http://www.w3.org/2000/svg"
 width="48.000000pt" height="48.000000pt" viewBox="0 0 48.000000 48.000000"
 preserveAspectRatio="xMidYMid meet">
<metadata>
Created by potrace 1.16, written by Peter Selinger 2001-2019
</metadata>
<g transform="translate(0.000000,48.000000) scale(0.100000,-0.100000)"
fill="currentColor" stroke="currentColor" stroke-width="6" stroke-linejoin="round">
<path d="M48 468 c-17 -14 -38 -89 -38 -136 0 -51 52 -78 101 -52 14 8 25 6
44 -6 22 -15 27 -15 56 0 22 11 36 13 43 6 13 -13 69 -13 82 0 7 7 20 5 41 -5
41 -20 80 -6 89 32 10 37 -13 145 -34 161 -11 8 -66 12 -192 12 -126 0 -181
-4 -192 -12z m391 -68 c17 -77 14 -99 -11 -109 -28 -10 -54 2 -63 29 -8 26
-18 25 -30 -2 -7 -17 -18 -23 -40 -23 -22 0 -33 6 -40 23 -11 25 -25 29 -25 8
0 -21 -38 -45 -61 -39 -10 3 -22 16 -25 29 -8 31 -18 30 -32 -1 -19 -41 -82
-29 -82 17 0 9 5 40 11 68 l11 50 188 0 188 0 11 -50z M34 216 c-11 -28 0
-184 14 -198 19 -19 365 -19 384 0 9 9 13 43 13 105 0 124 -19 126 -23 2 -2
-71 -6 -95 -16 -95 -10 0 -15 22 -18 77 -4 64 -9 80 -28 95 -28 23 -62 23 -90
0 -19 -15 -24 -31 -28 -95 l-5 -77 -88 0 -89 0 0 94 c0 88 -12 129 -26 92z
m314 -28 c7 -7 12 -42 12 -85 l0 -73 -45 0 -45 0 0 73 c0 77 9 97 45 97 12 0
26 -5 33 -12z M310 115 c0 -8 7 -15 15 -15 8 0 15 7 15 15 0 8 -7 15 -15 15
-8 0 -15 -7 -15 -15z M106 164 c-20 -20 -20 -68 0 -88 20 -20 68 -20 88 0 20
20 20 68 0 88 -8 9 -28 16 -44 16 -16 0 -36 -7 -44 -16z m74 -44 c0 -27 -3
-30 -30 -30 -27 0 -30 3 -30 30 0 27 3 30 30 30 27 0 30 -3 30 -30z"/>
</g>
</svg>

