<?xml version="1.0" standalone="no"?>
<!DOCTYPE svg PUBLIC "-//W3C//DTD SVG 20010904//EN"
 "http://www.w3.org/TR/2001/REC-SVG-20010904/DTD/svg10.dtd">
<svg version="1.0" xmlns="http://www.w3.org/2000/svg"
 width="48.000000pt" height="48.000000pt" viewBox="0 0 48.000000 48.000000"
 preserveAspectRatio="xMidYMid meet">
<metadata>
Created by potrace 1.16, written by Peter Selinger 2001-2019
</metadata>
<g transform="translate(0.000000,48.000000) scale(0.100000,-0.100000)"
fill="currentColor" stroke="currentColor" stroke-width="6" stroke-linejoin="round">
<path d="M408 459 c-10 -5 -18 -18 -18 -29 0 -50 -1 -50 -185 -50 -111 0 -176
-4 -180 -11 -11 -16 26 -150 46 -170 17 -17 36 -19 145 -19 l125 0 -3 -32 -3
-33 -112 -3 c-150 -4 -149 -22 1 -22 79 0 117 4 124 13 5 6 22 84 36 171 15
88 29 163 32 168 3 4 14 8 25 8 10 0 19 5 19 10 0 13 -30 12 -52 -1z m-32
-116 c-2 -10 -7 -38 -11 -63 -12 -86 -2 -80 -144 -80 -91 0 -132 4 -139 13 -9
10 -42 122 -42 141 0 3 77 6 171 6 157 0 170 -1 165 -17z M140 45 c0 -8 7 -15
15 -15 8 0 15 7 15 15 0 8 -7 15 -15 15 -8 0 -15 -7 -15 -15z M290 45 c0 -8 7
-15 15 -15 8 0 15 7 15 15 0 8 -7 15 -15 15 -8 0 -15 -7 -15 -15z"/>
</g>
</svg>

