<?xml version="1.0" standalone="no"?>
<!DOCTYPE svg PUBLIC "-//W3C//DTD SVG 20010904//EN"
 "http://www.w3.org/TR/2001/REC-SVG-20010904/DTD/svg10.dtd">
<svg version="1.0" xmlns="http://www.w3.org/2000/svg"
 width="48.000000pt" height="48.000000pt" viewBox="0 0 48.000000 48.000000"
 preserveAspectRatio="xMidYMid meet">
<metadata>
Created by potrace 1.16, written by Peter Selinger 2001-2019
</metadata>
<g transform="translate(0.000000,48.000000) scale(0.100000,-0.100000)"
fill="currentColor" stroke="none">
<path d="M182 450 c-12 -12 -22 -31 -22 -43 1 -22 1 -22 15 -2 28 40 36 45 65
45 29 0 37 -5 65 -45 14 -20 14 -20 15 1 1 55 -94 85 -138 44z M83 350 c-13
-5 -23 -13 -23 -17 0 -4 -9 -75 -21 -156 -16 -114 -19 -151 -10 -160 17 -17
405 -17 422 0 9 9 6 47 -10 165 -13 84 -27 158 -32 163 -13 13 -297 17 -326 5z
m317 -32 c0 -7 9 -71 20 -142 11 -71 20 -133 20 -137 0 -5 -90 -9 -200 -9
-153 0 -200 3 -200 13 0 6 9 70 20 142 11 72 20 133 20 138 0 4 72 7 160 7
121 0 160 -3 160 -12z M280 213 c0 -5 -14 -24 -29 -43 -29 -34 -29 -34 -50
-16 -12 11 -24 16 -28 13 -7 -8 35 -57 48 -57 10 0 79 89 79 101 0 11 -20 12
-20 2z"/>
</g>
</svg>

