<?xml version="1.0" standalone="no"?>
<!DOCTYPE svg PUBLIC "-//W3C//DTD SVG 20010904//EN"
 "http://www.w3.org/TR/2001/REC-SVG-20010904/DTD/svg10.dtd">
<svg version="1.0" xmlns="http://www.w3.org/2000/svg"
 width="48.000000pt" height="48.000000pt" viewBox="0 0 48.000000 48.000000"
 preserveAspectRatio="xMidYMid meet">
<metadata>
Created by potrace 1.16, written by Peter Selinger 2001-2019
</metadata>
<g transform="translate(0.000000,48.000000) scale(0.100000,-0.100000)"
fill="currentColor" stroke="currentColor" stroke-width="6" stroke-linejoin="round">
<path d="M103 473 c-48 -10 -53 -33 -53 -238 0 -149 3 -195 14 -211 13 -17 30
-19 181 -22 107 -2 171 0 178 7 7 7 5 12 -6 17 -21 8 -23 60 -2 80 12 13 15
47 15 177 0 89 -5 169 -10 177 -7 12 -37 15 -152 16 -79 1 -153 0 -165 -3z
m307 -188 l0 -165 -147 0 c-82 0 -158 -3 -170 -6 l-23 -6 0 159 c0 110 4 163
12 171 8 8 60 12 170 12 l158 0 0 -165z m-30 -225 l0 -30 -150 0 c-125 0 -152
3 -156 15 -4 8 -4 22 0 30 4 12 31 15 156 15 l150 0 0 -30z M196 364 c-20 -20
-21 -68 -1 -84 12 -10 9 -17 -20 -45 -33 -30 -47 -75 -25 -75 6 0 10 6 10 14
0 7 9 25 21 40 29 37 89 37 118 0 12 -15 21 -33 21 -40 0 -8 5 -14 10 -14 22
0 8 45 -25 75 -29 28 -32 35 -20 45 20 16 19 64 -1 84 -8 9 -28 16 -44 16 -16
0 -36 -7 -44 -16z m79 -38 c0 -52 -63 -62 -73 -12 -7 33 6 47 40 44 29 -3 33
-7 33 -32z"/>
</g>
</svg>

