<?xml version="1.0" standalone="no"?>
<!DOCTYPE svg PUBLIC "-//W3C//DTD SVG 20010904//EN"
 "http://www.w3.org/TR/2001/REC-SVG-20010904/DTD/svg10.dtd">
<svg version="1.0" xmlns="http://www.w3.org/2000/svg"
 width="48.000000pt" height="48.000000pt" viewBox="0 0 48.000000 48.000000"
 preserveAspectRatio="xMidYMid meet">
<metadata>
Created by potrace 1.16, written by Peter Selinger 2001-2019
</metadata>
<g transform="translate(0.000000,48.000000) scale(0.100000,-0.100000)"
fill="currentColor" stroke="currentColor" stroke-width="6" stroke-linejoin="round">
<path d="M66 448 c-36 -51 -7 -108 54 -108 29 0 43 6 54 22 36 51 7 108 -54
108 -29 0 -43 -6 -54 -22z m92 -10 c15 -15 15 -51 0 -66 -7 -7 -24 -12 -38
-12 -31 0 -50 17 -50 45 0 28 19 45 50 45 14 0 31 -5 38 -12z M93 322 c-13 -2
-36 -16 -52 -32 -46 -47 -51 -140 -6 -140 14 0 25 -43 25 -94 0 -18 5 -37 12
-44 16 -16 80 -16 96 0 14 14 16 78 2 78 -5 0 -10 -13 -10 -30 0 -28 -2 -30
-40 -30 -38 0 -40 1 -40 33 0 65 -12 110 -32 115 -13 3 -18 14 -18 39 0 77 95
111 159 57 37 -31 42 -13 6 20 -26 24 -62 34 -102 28z M317 262 c-37 -4 -97
-65 -98 -100 -3 -75 14 -113 64 -139 130 -67 256 98 153 200 -34 34 -66 45
-119 39z m83 -32 c12 -8 0 -24 -63 -87 -85 -86 -97 -87 -97 -5 0 61 41 102
102 102 24 0 50 -5 58 -10z m44 -46 c3 -9 6 -34 6 -56 0 -57 -42 -98 -102 -98
-81 0 -81 11 2 95 41 41 78 75 81 75 4 0 10 -7 13 -16z"/>
</g>
</svg>

