<?xml version="1.0" standalone="no"?>
<!DOCTYPE svg PUBLIC "-//W3C//DTD SVG 20010904//EN"
 "http://www.w3.org/TR/2001/REC-SVG-20010904/DTD/svg10.dtd">
<svg version="1.0" xmlns="http://www.w3.org/2000/svg"
 width="48.000000pt" height="48.000000pt" viewBox="0 0 48.000000 48.000000"
 preserveAspectRatio="xMidYMid meet">
<metadata>
Created by potrace 1.16, written by Peter Selinger 2001-2019
</metadata>
<g transform="translate(0.000000,48.000000) scale(0.100000,-0.100000)"
fill="currentColor" stroke="currentColor" stroke-width="6" stroke-linejoin="round">
<path d="M84 470 c-28 -11 -47 -36 -47 -65 0 -28 28 -65 50 -65 7 0 13 -4 13
-10 0 -5 -8 -10 -19 -10 -56 0 -106 -125 -64 -160 14 -11 22 -33 26 -79 4 -34
9 -67 13 -72 7 -12 91 -12 98 0 4 5 9 38 13 72 4 46 12 68 26 79 42 35 -8 160
-64 160 -11 0 -19 5 -19 10 0 6 6 10 13 10 8 0 22 9 32 20 46 50 -7 133 -71
110z m54 -32 c28 -28 7 -78 -33 -78 -40 0 -61 50 -33 78 7 7 21 12 33 12 12 0
26 -5 33 -12z m22 -158 c24 -24 27 -91 5 -110 -8 -7 -15 -27 -15 -45 0 -18 -3
-47 -6 -64 -6 -27 -11 -31 -39 -31 -28 0 -33 4 -39 31 -3 17 -6 46 -6 64 0 18
-7 38 -15 45 -9 7 -15 29 -15 51 0 50 27 79 75 79 22 0 43 -8 55 -20z M317
472 c-15 -2 -43 -19 -62 -37 -53 -53 -53 -127 0 -180 53 -53 127 -53 179 0 54
53 54 126 1 179 -33 33 -66 44 -118 38z m104 -51 c24 -24 29 -38 29 -76 0 -38
-5 -52 -29 -76 -42 -42 -110 -42 -152 0 -42 42 -42 110 0 152 24 24 38 29 76
29 38 0 52 -5 76 -29z M323 413 c-36 -24 -30 -59 12 -74 40 -15 47 -39 11 -39
-32 0 -42 -16 -18 -29 13 -7 24 -5 41 8 31 23 24 52 -16 71 -38 18 -43 40 -9
40 31 0 42 16 19 28 -13 7 -25 5 -40 -5z"/>
</g>
</svg>

