<?xml version="1.0" standalone="no"?>
<!DOCTYPE svg PUBLIC "-//W3C//DTD SVG 20010904//EN"
 "http://www.w3.org/TR/2001/REC-SVG-20010904/DTD/svg10.dtd">
<svg version="1.0" xmlns="http://www.w3.org/2000/svg"
 width="48.000000pt" height="48.000000pt" viewBox="0 0 48.000000 48.000000"
 preserveAspectRatio="xMidYMid meet">
<metadata>
Created by potrace 1.16, written by Peter Selinger 2001-2019
</metadata>
<g transform="translate(0.000000,48.000000) scale(0.100000,-0.100000)"
fill="currentColor" stroke="currentColor" stroke-width="6" stroke-linejoin="round">
<path d="M32 470 c-12 -5 -22 -17 -22 -27 0 -13 3 -14 12 -5 15 15 428 17 428
2 0 -5 5 -10 10 -10 21 0 9 31 -16 40 -32 12 -381 12 -412 0z M37 383 c-10 -2
-22 -16 -28 -29 -12 -33 -12 -285 1 -318 12 -33 72 -46 99 -22 22 20 28 20 47
1 21 -21 147 -21 164 0 16 19 27 19 47 -1 18 -18 77 -14 97 6 17 17 15 335 -2
352 -10 10 -63 13 -210 15 -108 1 -205 -1 -215 -4z m413 -188 l0 -165 -34 0
c-19 0 -38 5 -41 10 -8 13 -52 13 -60 0 -3 -5 -37 -10 -75 -10 -38 0 -72 5
-75 10 -8 13 -52 13 -60 0 -3 -5 -22 -10 -41 -10 l-34 0 0 165 0 165 210 0
210 0 0 -165z M143 319 c-34 -12 -47 -45 -33 -80 7 -16 17 -29 23 -29 6 0 0
-8 -13 -17 -37 -26 -50 -45 -47 -73 2 -25 3 -25 92 -25 89 0 90 0 92 25 3 28
-10 47 -47 73 -13 9 -19 17 -13 17 6 0 16 13 23 30 21 51 -25 98 -77 79z m57
-34 c25 -30 -11 -72 -51 -60 -43 14 -30 75 16 75 12 0 28 -7 35 -15z m20 -125
c33 -33 24 -40 -55 -40 -43 0 -75 4 -75 10 0 23 41 50 75 50 22 0 43 -8 55
-20z M285 260 c-3 -5 0 -13 8 -16 23 -8 82 0 82 11 0 14 -82 19 -90 5z M285
200 c-3 -5 0 -13 8 -16 23 -9 112 0 110 11 -4 14 -110 19 -118 5z"/>
</g>
</svg>

