<?xml version="1.0" standalone="no"?>
<!DOCTYPE svg PUBLIC "-//W3C//DTD SVG 20010904//EN"
 "http://www.w3.org/TR/2001/REC-SVG-20010904/DTD/svg10.dtd">
<svg version="1.0" xmlns="http://www.w3.org/2000/svg"
 width="48.000000pt" height="48.000000pt" viewBox="0 0 48.000000 48.000000"
 preserveAspectRatio="xMidYMid meet">
<metadata>
Created by potrace 1.16, written by Peter Selinger 2001-2019
</metadata>
<g transform="translate(0.000000,48.000000) scale(0.100000,-0.100000)"
fill="currentColor" stroke="none">
<path d="M85 445 c-54 -53 -11 -155 65 -155 45 0 90 47 90 95 0 51 -36 85 -90
85 -30 0 -47 -6 -65 -25z m119 -17 c22 -31 20 -68 -6 -95 -60 -64 -153 22
-102 95 11 16 25 22 54 22 29 0 43 -6 54 -22z M84 261 c-44 -27 -74 -69 -74
-103 0 -37 15 -29 24 12 8 41 51 79 98 86 21 4 38 10 38 15 0 16 -54 9 -86
-10z M247 263 c-23 -6 -37 -43 -37 -96 0 -62 10 -87 36 -98 14 -5 24 -17 24
-28 0 -32 19 -35 58 -9 20 14 57 27 81 31 24 3 49 11 55 17 16 16 14 156 -2
172 -13 13 -178 22 -215 11z m203 -98 l0 -75 -32 0 c-18 0 -51 -11 -73 -24
l-39 -24 -11 21 c-6 12 -21 23 -33 25 -20 3 -22 9 -22 78 l0 74 105 0 105 0 0
-75z M285 200 c-3 -5 0 -13 8 -16 23 -9 112 0 110 11 -4 14 -110 19 -118 5z
M285 140 c-3 -5 0 -13 8 -16 23 -9 112 0 110 11 -4 14 -110 19 -118 5z"/>
</g>
</svg>

