<?xml version="1.0" standalone="no"?>
<!DOCTYPE svg PUBLIC "-//W3C//DTD SVG 20010904//EN"
 "http://www.w3.org/TR/2001/REC-SVG-20010904/DTD/svg10.dtd">
<svg version="1.0" xmlns="http://www.w3.org/2000/svg"
 width="48.000000pt" height="48.000000pt" viewBox="0 0 48.000000 48.000000"
 preserveAspectRatio="xMidYMid meet">
<metadata>
Created by potrace 1.16, written by Peter Selinger 2001-2019
</metadata>
<g transform="translate(0.000000,48.000000) scale(0.100000,-0.100000)"
fill="currentColor" stroke="currentColor" stroke-width="6" stroke-linejoin="round">
<path d="M85 445 c-54 -53 -11 -155 65 -155 45 0 90 47 90 95 0 51 -36 85 -90
85 -30 0 -47 -6 -65 -25z m119 -17 c22 -31 20 -68 -6 -95 -60 -64 -153 22
-102 95 11 16 25 22 54 22 29 0 43 -6 54 -22z M84 261 c-44 -27 -74 -69 -74
-103 0 -37 15 -29 24 12 8 41 51 79 98 86 21 4 38 10 38 15 0 16 -54 9 -86
-10z M230 250 c-17 -17 -20 -33 -20 -115 0 -129 6 -135 135 -135 129 0 135 6
135 135 0 82 -3 98 -20 115 -17 17 -33 20 -115 20 -82 0 -98 -3 -115 -20z
m220 -115 l0 -105 -105 0 -105 0 0 105 0 105 105 0 105 0 0 -105z M285 200
c-3 -5 0 -13 8 -16 23 -9 112 0 110 11 -4 14 -110 19 -118 5z M285 140 c-3 -5
0 -13 8 -16 23 -9 112 0 110 11 -4 14 -110 19 -118 5z M285 80 c-8 -13 20 -24
41 -16 20 8 9 26 -16 26 -10 0 -22 -5 -25 -10z"/>
</g>
</svg>

