<?xml version="1.0" standalone="no"?>
<!DOCTYPE svg PUBLIC "-//W3C//DTD SVG 20010904//EN"
 "http://www.w3.org/TR/2001/REC-SVG-20010904/DTD/svg10.dtd">
<svg version="1.0" xmlns="http://www.w3.org/2000/svg"
 width="48.000000pt" height="48.000000pt" viewBox="0 0 48.000000 48.000000"
 preserveAspectRatio="xMidYMid meet">
<metadata>
Created by potrace 1.16, written by Peter Selinger 2001-2019
</metadata>
<g transform="translate(0.000000,48.000000) scale(0.100000,-0.100000)"
fill="currentColor" stroke="none">
<path d="M33 470 c-29 -12 -37 -60 -29 -167 8 -106 34 -170 93 -224 73 -67
137 -84 208 -55 53 23 120 91 145 149 19 43 23 71 24 164 1 79 -3 116 -12 125
-16 16 -394 23 -429 8z m417 -135 c0 -159 -30 -225 -129 -278 -62 -34 -100
-34 -162 0 -99 53 -129 119 -129 278 l0 115 210 0 210 0 0 -115z M202 398
c-15 -15 -15 -61 0 -76 7 -7 24 -12 38 -12 33 0 50 17 50 50 0 33 -17 50 -50
50 -14 0 -31 -5 -38 -12z m63 -38 c0 -18 -6 -26 -23 -28 -13 -2 -25 3 -28 12
-10 26 4 48 28 44 17 -2 23 -10 23 -28z M183 268 c-29 -33 -35 -66 -14 -81 9
-6 21 -30 26 -52 9 -37 12 -40 45 -40 33 0 36 3 45 40 5 22 17 46 26 52 39 29
-13 103 -71 103 -25 0 -43 -7 -57 -22z m101 -14 c20 -20 20 -43 1 -50 -8 -4
-15 -17 -15 -29 0 -36 -10 -55 -30 -55 -20 0 -30 19 -30 55 0 12 -7 25 -15 29
-37 14 -2 66 45 66 16 0 36 -7 44 -16z"/>
</g>
</svg>

