<?xml version="1.0" standalone="no"?>
<!DOCTYPE svg PUBLIC "-//W3C//DTD SVG 20010904//EN"
 "http://www.w3.org/TR/2001/REC-SVG-20010904/DTD/svg10.dtd">
<svg version="1.0" xmlns="http://www.w3.org/2000/svg"
 width="48.000000pt" height="48.000000pt" viewBox="0 0 48.000000 48.000000"
 preserveAspectRatio="xMidYMid meet">
<metadata>
Created by potrace 1.16, written by Peter Selinger 2001-2019
</metadata>
<g transform="translate(0.000000,48.000000) scale(0.100000,-0.100000)"
fill="currentColor" stroke="currentColor" stroke-width="6" stroke-linejoin="round">
<path d="M202 428 c-6 -6 -12 -17 -12 -24 0 -8 -27 -13 -80 -15 -47 -3 -84 -9
-92 -17 -19 -19 -18 -306 0 -324 19 -19 425 -19 444 0 18 18 19 305 0 324 -8
8 -45 14 -90 16 -69 4 -79 7 -88 25 -11 25 -62 35 -82 15z m66 -55 c3 -42 2
-43 -27 -43 -29 0 -31 2 -31 38 0 45 6 54 35 50 16 -2 21 -12 23 -45z m-84
-38 c12 -46 100 -46 112 0 6 24 10 25 80 25 l74 0 0 -150 0 -150 -93 0 c-91 0
-92 0 -104 28 -7 15 -25 35 -40 44 -16 10 -23 18 -17 18 6 0 17 13 24 29 29
71 -65 119 -107 55 -13 -20 -13 -29 -3 -54 7 -17 18 -30 24 -30 6 0 -1 -8 -17
-18 -15 -9 -33 -29 -40 -44 -6 -16 -20 -28 -29 -28 -16 0 -18 14 -18 150 l0
150 74 0 c70 0 74 -1 80 -25z m16 -110 c25 -30 -11 -72 -51 -60 -43 14 -30 75
16 75 12 0 28 -7 35 -15z m20 -125 c33 -33 24 -40 -55 -40 -79 0 -88 7 -55 40
27 27 83 27 110 0z M285 230 c-3 -5 0 -13 8 -16 23 -8 82 0 82 11 0 14 -82 19
-90 5z M285 170 c-3 -5 0 -13 8 -16 23 -9 112 0 110 11 -4 14 -110 19 -118 5z"/>
</g>
</svg>

