<?xml version="1.0" standalone="no"?>
<!DOCTYPE svg PUBLIC "-//W3C//DTD SVG 20010904//EN"
 "http://www.w3.org/TR/2001/REC-SVG-20010904/DTD/svg10.dtd">
<svg version="1.0" xmlns="http://www.w3.org/2000/svg"
 width="48.000000pt" height="48.000000pt" viewBox="0 0 48.000000 48.000000"
 preserveAspectRatio="xMidYMid meet">
<metadata>
Created by potrace 1.16, written by Peter Selinger 2001-2019
</metadata>
<g transform="translate(0.000000,48.000000) scale(0.100000,-0.100000)"
fill="currentColor" stroke="currentColor" stroke-width="6" stroke-linejoin="round">
<path d="M20 420 c-22 -14 -22 -346 0 -360 24 -16 90 -12 96 5 8 19 30 19 38
0 8 -22 164 -22 172 0 4 8 12 15 19 15 7 0 15 -7 19 -15 6 -17 72 -21 96 -5
22 14 22 346 0 360 -8 5 -107 10 -220 10 -113 0 -212 -5 -220 -10z m430 -180
l0 -170 -31 0 c-17 0 -37 7 -45 15 -9 8 -22 15 -29 15 -7 0 -20 -7 -29 -15
-10 -10 -35 -15 -76 -15 -41 0 -66 5 -76 15 -19 19 -39 19 -58 0 -8 -8 -28
-15 -45 -15 l-31 0 0 170 0 170 210 0 210 0 0 -170z M126 355 c-24 -25 -29
-54 -12 -80 15 -23 14 -25 -14 -54 -18 -17 -30 -40 -30 -55 l0 -26 95 0 95 0
0 26 c0 15 -12 38 -30 55 -28 29 -29 31 -14 54 26 39 -4 95 -51 95 -13 0 -30
-7 -39 -15z m68 -21 c19 -19 20 -36 4 -52 -24 -24 -78 -8 -78 24 0 17 28 44
45 44 7 0 21 -7 29 -16z m20 -125 c47 -37 35 -49 -49 -49 -58 0 -75 3 -75 14
0 20 48 56 75 56 12 0 34 -9 49 -21z M280 300 c0 -5 23 -10 50 -10 28 0 50 5
50 10 0 6 -22 10 -50 10 -27 0 -50 -4 -50 -10z M280 240 c0 -6 28 -10 65 -10
37 0 65 4 65 10 0 6 -28 10 -65 10 -37 0 -65 -4 -65 -10z"/>
</g>
</svg>

