<?xml version="1.0" standalone="no"?>
<!DOCTYPE svg PUBLIC "-//W3C//DTD SVG 20010904//EN"
 "http://www.w3.org/TR/2001/REC-SVG-20010904/DTD/svg10.dtd">
<svg version="1.0" xmlns="http://www.w3.org/2000/svg"
 width="48.000000pt" height="48.000000pt" viewBox="0 0 48.000000 48.000000"
 preserveAspectRatio="xMidYMid meet">
<metadata>
Created by potrace 1.16, written by Peter Selinger 2001-2019
</metadata>
<g transform="translate(0.000000,48.000000) scale(0.100000,-0.100000)"
fill="currentColor" stroke="none">
<path d="M84 470 c-28 -11 -47 -36 -47 -65 0 -28 28 -65 50 -65 7 0 13 -4 13
-10 0 -5 -8 -10 -19 -10 -56 0 -106 -125 -64 -160 14 -11 22 -33 26 -79 4 -34
9 -67 13 -72 7 -12 91 -12 98 0 4 5 9 38 13 72 4 46 12 68 26 79 42 35 -8 160
-64 160 -11 0 -19 5 -19 10 0 6 6 10 13 10 8 0 22 9 32 20 46 50 -7 133 -71
110z m54 -32 c28 -28 7 -78 -33 -78 -40 0 -61 50 -33 78 7 7 21 12 33 12 12 0
26 -5 33 -12z m22 -158 c24 -24 27 -91 5 -110 -8 -7 -15 -27 -15 -45 0 -18 -3
-47 -6 -64 -6 -27 -11 -31 -39 -31 -28 0 -33 4 -39 31 -3 17 -6 46 -6 64 0 18
-7 38 -15 45 -9 7 -15 29 -15 51 0 50 27 79 75 79 22 0 43 -8 55 -20z M257
436 c-55 -54 -55 -127 -2 -181 54 -53 127 -53 181 2 24 23 34 43 34 64 0 18
-4 28 -10 24 -5 -3 -10 -15 -10 -26 0 -11 -13 -34 -29 -50 -24 -24 -38 -29
-76 -29 -38 0 -52 5 -76 29 -24 24 -29 38 -29 76 0 38 5 52 29 76 16 16 39 29
50 29 11 0 23 5 26 10 4 6 -6 10 -24 10 -21 0 -41 -10 -64 -34z M400 385 l-54
-55 -23 22 c-13 12 -26 18 -30 15 -8 -8 36 -57 51 -57 12 0 126 110 126 122 0
18 -18 5 -70 -47z"/>
</g>
</svg>

