<?xml version="1.0" standalone="no"?>
<!DOCTYPE svg PUBLIC "-//W3C//DTD SVG 20010904//EN"
 "http://www.w3.org/TR/2001/REC-SVG-20010904/DTD/svg10.dtd">
<svg version="1.0" xmlns="http://www.w3.org/2000/svg"
 width="48.000000pt" height="48.000000pt" viewBox="0 0 48.000000 48.000000"
 preserveAspectRatio="xMidYMid meet">
<metadata>
Created by potrace 1.16, written by Peter Selinger 2001-2019
</metadata>
<g transform="translate(0.000000,48.000000) scale(0.100000,-0.100000)"
fill="currentColor" stroke="currentColor" stroke-width="6" stroke-linejoin="round">
<path d="M191 469 c-245 -47 -243 -412 2 -458 168 -31 307 108 276 275 -17 88
-90 167 -168 180 -20 3 -43 7 -51 9 -8 1 -35 -1 -59 -6z m170 -54 c64 -45 91
-104 87 -187 -4 -82 -39 -139 -108 -176 -38 -20 -56 -23 -112 -20 -82 4 -139
39 -176 108 -20 38 -23 56 -20 112 4 82 39 139 108 176 38 20 56 23 112 20 55
-3 75 -9 109 -33z M202 398 c-15 -15 -15 -61 0 -76 7 -7 24 -12 38 -12 33 0
50 17 50 50 0 33 -17 50 -50 50 -14 0 -31 -5 -38 -12z m63 -38 c0 -18 -6 -26
-23 -28 -13 -2 -25 3 -28 12 -10 26 4 48 28 44 17 -2 23 -10 23 -28z M183 268
c-32 -34 -40 -92 -16 -109 10 -8 23 -32 28 -54 9 -37 12 -40 45 -40 33 0 36 3
45 40 5 22 18 46 28 54 15 11 17 21 12 50 -9 52 -40 81 -85 81 -25 0 -43 -7
-57 -22z m101 -14 c20 -20 21 -73 1 -80 -8 -4 -15 -17 -15 -29 0 -36 -10 -55
-30 -55 -20 0 -30 19 -30 55 0 12 -7 25 -15 29 -20 7 -19 60 1 80 8 9 28 16
44 16 16 0 36 -7 44 -16z"/>
</g>
</svg>

