<?xml version="1.0" standalone="no"?>
<!DOCTYPE svg PUBLIC "-//W3C//DTD SVG 20010904//EN"
 "http://www.w3.org/TR/2001/REC-SVG-20010904/DTD/svg10.dtd">
<svg version="1.0" xmlns="http://www.w3.org/2000/svg"
 width="48.000000pt" height="48.000000pt" viewBox="0 0 48.000000 48.000000"
 preserveAspectRatio="xMidYMid meet">
<metadata>
Created by potrace 1.16, written by Peter Selinger 2001-2019
</metadata>
<g transform="translate(0.000000,48.000000) scale(0.100000,-0.100000)"
fill="currentColor" stroke="none">
<path d="M250 460 c0 -5 18 -10 40 -10 22 0 40 -3 40 -6 0 -3 -18 -27 -40 -53
-22 -26 -40 -53 -40 -59 0 -15 106 -17 115 -3 3 6 -15 11 -41 13 l-47 3 47 57
c25 31 46 59 46 62 0 3 -27 6 -60 6 -33 0 -60 -4 -60 -10z M20 330 c0 -5 27
-10 60 -12 l59 -3 -59 -70 c-33 -38 -59 -76 -60 -82 0 -9 21 -13 75 -13 89 0
101 18 15 22 l-60 3 60 73 c33 41 60 78 60 83 0 5 -34 9 -75 9 -41 0 -75 -4
-75 -10z M280 220 c0 -6 32 -10 76 -10 l75 0 -75 -92 c-42 -51 -76 -96 -76
-100 0 -5 41 -8 90 -8 53 0 90 4 90 10 0 6 -32 10 -75 10 l-76 0 76 92 c41 51
75 96 75 100 0 4 -40 8 -90 8 -53 0 -90 -4 -90 -10z"/>
</g>
</svg>

