<?xml version="1.0" standalone="no"?>
<!DOCTYPE svg PUBLIC "-//W3C//DTD SVG 20010904//EN"
 "http://www.w3.org/TR/2001/REC-SVG-20010904/DTD/svg10.dtd">
<svg version="1.0" xmlns="http://www.w3.org/2000/svg"
 width="48.000000pt" height="48.000000pt" viewBox="0 0 48.000000 48.000000"
 preserveAspectRatio="xMidYMid meet">
<metadata>
Created by potrace 1.16, written by Peter Selinger 2001-2019
</metadata>
<g transform="translate(0.000000,48.000000) scale(0.100000,-0.100000)"
fill="currentColor" stroke="none">
<path d="M120 400 c0 -17 -7 -20 -50 -20 -27 0 -50 -4 -50 -10 0 -5 23 -10 50
-10 43 0 50 -3 50 -20 0 -11 5 -20 10 -20 6 0 10 23 10 50 0 28 -4 50 -10 50
-5 0 -10 -9 -10 -20z M190 370 c0 -6 52 -10 135 -10 83 0 135 4 135 10 0 6
-52 10 -135 10 -83 0 -135 -4 -135 -10z M320 240 c0 -32 4 -49 10 -45 6 3 10
13 10 21 0 11 14 14 60 14 33 0 60 4 60 10 0 6 -27 10 -60 10 -46 0 -60 3 -60
14 0 8 -4 18 -10 21 -6 4 -10 -13 -10 -45z M20 240 c0 -6 48 -10 125 -10 77 0
125 4 125 10 0 6 -48 10 -125 10 -77 0 -125 -4 -125 -10z M120 140 c0 -17 -7
-20 -50 -20 -27 0 -50 -4 -50 -10 0 -5 23 -10 50 -10 43 0 50 -3 50 -20 0 -11
5 -20 10 -20 6 0 10 23 10 50 0 28 -4 50 -10 50 -5 0 -10 -9 -10 -20z M190
110 c0 -6 52 -10 135 -10 83 0 135 4 135 10 0 6 -52 10 -135 10 -83 0 -135 -4
-135 -10z"/>
</g>
</svg>

