<?xml version="1.0" standalone="no"?>
<!DOCTYPE svg PUBLIC "-//W3C//DTD SVG 20010904//EN"
 "http://www.w3.org/TR/2001/REC-SVG-20010904/DTD/svg10.dtd">
<svg version="1.0" xmlns="http://www.w3.org/2000/svg"
 width="48.000000pt" height="48.000000pt" viewBox="0 0 48.000000 48.000000"
 preserveAspectRatio="xMidYMid meet">
<metadata>
Created by potrace 1.16, written by Peter Selinger 2001-2019
</metadata>
<g transform="translate(0.000000,48.000000) scale(0.100000,-0.100000)"
fill="currentColor" stroke="none">
<path d="M245 411 c-44 -19 -105 -82 -105 -107 0 -9 -7 -14 -18 -12 -14 3 -16
12 -14 47 4 48 -12 49 -21 1 -9 -41 -33 -38 -41 5 -4 19 -11 35 -16 35 -12 0
-12 -7 -1 -47 7 -24 6 -35 -5 -44 -19 -16 -18 -102 2 -145 29 -61 56 -69 262
-72 202 -4 201 -4 157 60 -24 35 -24 36 -5 53 27 25 40 76 30 121 -23 103
-126 150 -225 105z m130 -15 c19 -8 44 -30 55 -48 22 -37 27 -114 7 -139 -59
-76 -167 -53 -167 35 0 39 26 66 62 66 24 0 32 -6 41 -30 13 -34 27 -40 27
-10 0 31 -36 60 -73 60 -63 0 -101 -77 -68 -139 18 -33 68 -54 112 -47 32 5
40 2 53 -16 9 -12 16 -26 16 -30 0 -12 -289 -10 -331 2 -53 15 -72 41 -77 109
-4 52 -2 60 16 70 14 7 29 8 46 1 25 -9 33 -26 38 -83 6 -54 22 -32 19 26 -3
76 29 135 91 166 50 25 86 26 133 7z"/>
</g>
</svg>

