<?xml version="1.0" standalone="no"?>
<!DOCTYPE svg PUBLIC "-//W3C//DTD SVG 20010904//EN"
 "http://www.w3.org/TR/2001/REC-SVG-20010904/DTD/svg10.dtd">
<svg version="1.0" xmlns="http://www.w3.org/2000/svg"
 width="48.000000pt" height="48.000000pt" viewBox="0 0 48.000000 48.000000"
 preserveAspectRatio="xMidYMid meet">
<metadata>
Created by potrace 1.16, written by Peter Selinger 2001-2019
</metadata>
<g transform="translate(0.000000,48.000000) scale(0.100000,-0.100000)"
fill="currentColor" stroke="currentColor" stroke-width="6" stroke-linejoin="round">
<path d="M13 469 c-17 -17 -16 -78 0 -98 27 -31 47 -102 47 -165 0 -59 2 -66
31 -90 17 -14 40 -26 53 -26 15 0 25 -9 33 -30 23 -62 103 -62 126 0 8 21 18
30 33 30 13 0 36 12 53 26 29 24 31 31 31 90 0 63 20 134 47 165 18 21 17 84
-2 99 -10 8 -32 11 -62 7 -36 -4 -54 -12 -75 -36 -25 -28 -33 -31 -88 -31 -55
0 -63 3 -88 31 -23 25 -38 32 -78 36 -32 3 -53 0 -61 -8z m77 -29 c0 -13 -37
-50 -50 -50 -6 0 -10 14 -10 30 0 27 3 30 30 30 17 0 30 -4 30 -10z m150 -50
c67 0 72 2 100 33 18 19 30 26 30 17 0 -8 14 -29 32 -47 l31 -32 -16 -43 c-10
-24 -17 -71 -17 -103 0 -66 -5 -76 -37 -94 -32 -16 -57 -14 -87 10 -30 23 -33
46 -9 64 22 16 8 35 -27 35 -35 0 -49 -19 -27 -35 24 -18 21 -41 -9 -64 -30
-24 -55 -26 -87 -10 -33 18 -37 28 -38 99 0 38 -8 81 -18 104 l-17 40 33 29
c18 16 33 36 33 46 1 11 9 7 30 -16 28 -31 33 -33 100 -33z m210 30 c0 -35
-12 -38 -40 -10 -28 28 -25 40 10 40 27 0 30 -3 30 -30z m-209 -340 c5 0 9 9
9 20 0 18 2 19 20 8 24 -16 25 -35 3 -60 -20 -22 -41 -23 -65 -1 -23 20 -23
42 0 59 15 11 17 10 20 -7 2 -10 8 -19 13 -19z M190 315 c0 -22 -4 -25 -35
-25 -19 0 -35 -4 -35 -10 0 -5 7 -10 15 -10 8 0 15 -7 15 -15 0 -8 5 -15 10
-15 6 0 10 6 10 14 0 7 9 16 20 19 15 4 20 14 20 36 0 17 -4 31 -10 31 -5 0
-10 -11 -10 -25z M270 309 c0 -22 5 -32 20 -36 11 -3 20 -12 20 -19 0 -8 5
-14 10 -14 6 0 10 7 10 15 0 8 7 15 15 15 8 0 15 5 15 10 0 6 -16 10 -35 10
-31 0 -35 3 -35 25 0 14 -4 25 -10 25 -5 0 -10 -14 -10 -31z"/>
</g>
</svg>

