<?xml version="1.0" standalone="no"?>
<!DOCTYPE svg PUBLIC "-//W3C//DTD SVG 20010904//EN"
 "http://www.w3.org/TR/2001/REC-SVG-20010904/DTD/svg10.dtd">
<svg version="1.0" xmlns="http://www.w3.org/2000/svg"
 width="48.000000pt" height="48.000000pt" viewBox="0 0 48.000000 48.000000"
 preserveAspectRatio="xMidYMid meet">
<metadata>
Created by potrace 1.16, written by Peter Selinger 2001-2019
</metadata>
<g transform="translate(0.000000,48.000000) scale(0.100000,-0.100000)"
fill="currentColor" stroke="none">
<path d="M48 451 c-27 -27 -22 -51 12 -62 17 -6 30 -15 30 -20 0 -5 -13 -9
-30 -9 -16 0 -30 -4 -30 -10 0 -5 7 -10 15 -10 8 0 15 -6 15 -12 0 -7 11 -1
25 13 30 29 25 54 -11 63 -32 8 -31 26 1 26 29 0 31 6 11 26 -18 17 -17 17
-38 -5z M405 410 c-3 -5 -30 -10 -60 -10 -72 0 -100 -14 -130 -67 -22 -37 -30
-42 -50 -37 -19 5 -31 -2 -60 -33 -42 -45 -41 -65 3 -74 46 -9 92 -55 92 -91
0 -42 24 -44 69 -6 32 26 41 40 41 65 0 26 6 36 29 48 51 26 71 61 71 126 0
32 5 61 10 64 6 3 10 10 10 16 0 12 -17 12 -25 -1z m-15 -82 c-1 -61 -9 -75
-66 -110 -35 -22 -40 -30 -37 -55 3 -23 -3 -33 -31 -56 l-36 -28 0 29 c0 35
-51 87 -98 99 l-32 8 29 33 c24 25 36 31 55 26 21 -5 28 1 51 40 34 58 47 65
113 66 l52 0 0 -52z M290 295 c0 -8 7 -15 15 -15 8 0 15 7 15 15 0 8 -7 15
-15 15 -8 0 -15 -7 -15 -15z M408 151 c-27 -27 -22 -51 12 -62 34 -12 31 -29
-6 -29 -13 0 -24 -4 -24 -10 0 -5 7 -10 15 -10 8 0 15 -6 15 -12 0 -7 11 -1
25 13 30 29 25 54 -11 63 -32 8 -31 26 1 26 29 0 31 6 11 26 -18 17 -17 17
-38 -5z M35 120 c-11 -12 -19 -37 -19 -63 l-1 -42 42 -3 c75 -6 112 64 57 107
-33 26 -56 27 -79 1z m67 -17 c37 -33 12 -73 -46 -73 -20 0 -26 5 -26 23 0 26
26 67 42 67 6 0 20 -7 30 -17z"/>
</g>
</svg>

