<?xml version="1.0" standalone="no"?>
<!DOCTYPE svg PUBLIC "-//W3C//DTD SVG 20010904//EN"
 "http://www.w3.org/TR/2001/REC-SVG-20010904/DTD/svg10.dtd">
<svg version="1.0" xmlns="http://www.w3.org/2000/svg"
 width="48.000000pt" height="48.000000pt" viewBox="0 0 48.000000 48.000000"
 preserveAspectRatio="xMidYMid meet">
<metadata>
Created by potrace 1.16, written by Peter Selinger 2001-2019
</metadata>
<g transform="translate(0.000000,48.000000) scale(0.100000,-0.100000)"
fill="currentColor" stroke="currentColor" stroke-width="6" stroke-linejoin="round">
<path d="M210 473 c-64 -10 -150 -61 -150 -90 0 -13 6 -11 28 9 45 42 86 58
152 58 66 0 107 -16 153 -58 21 -20 27 -22 27 -10 0 17 -33 44 -85 70 -34 17
-88 26 -125 21z M50 323 c-8 -3 -18 -11 -22 -17 -12 -17 -9 -146 2 -146 6 0
10 11 10 25 0 15 6 25 14 25 24 0 30 21 7 27 -15 4 -21 13 -21 34 0 23 5 28
28 31 15 2 26 8 25 13 -2 12 -23 16 -43 8z M147 323 c-11 -10 -8 -163 3 -163
6 0 10 15 10 33 l0 32 21 -32 c12 -18 25 -33 31 -33 5 0 8 3 6 8 -2 4 -10 19
-17 34 -12 23 -11 29 3 43 19 20 21 49 4 63 -19 14 -53 23 -61 15z m48 -48 c0
-11 -8 -21 -17 -23 -14 -3 -18 3 -18 23 0 20 4 26 18 23 9 -2 17 -12 17 -23z
M290 323 c-24 -10 -30 -25 -30 -83 0 -65 8 -80 43 -83 35 -3 39 17 5 21 -36 4
-36 30 0 34 15 2 27 8 27 13 0 6 -12 11 -27 13 -23 3 -28 8 -28 32 0 24 5 29
28 32 15 2 26 8 25 13 -2 12 -23 16 -43 8z M410 323 c-24 -10 -30 -25 -30 -83
0 -65 8 -80 43 -83 35 -3 39 17 5 21 -16 2 -28 9 -28 17 0 8 12 15 28 17 15 2
27 8 27 13 0 6 -12 11 -27 13 -23 3 -28 8 -28 32 0 24 5 29 28 32 15 2 26 8
25 13 -2 12 -23 16 -43 8z M62 88 c8 -12 38 -35 66 -51 91 -51 205 -35 279 39
35 36 20 42 -19 9 -46 -39 -89 -55 -148 -55 -58 0 -102 16 -146 53 -39 33 -51
35 -32 5z"/>
</g>
</svg>

