<?xml version="1.0" standalone="no"?>
<!DOCTYPE svg PUBLIC "-//W3C//DTD SVG 20010904//EN"
 "http://www.w3.org/TR/2001/REC-SVG-20010904/DTD/svg10.dtd">
<svg version="1.0" xmlns="http://www.w3.org/2000/svg"
 width="48.000000pt" height="48.000000pt" viewBox="0 0 48.000000 48.000000"
 preserveAspectRatio="xMidYMid meet">
<metadata>
Created by potrace 1.16, written by Peter Selinger 2001-2019
</metadata>
<g transform="translate(0.000000,48.000000) scale(0.100000,-0.100000)"
fill="currentColor" stroke="currentColor" stroke-width="6" stroke-linejoin="round">
<path d="M33 470 c-23 -9 -41 -68 -28 -90 11 -19 25 0 25 36 l0 34 209 0 210
0 3 -35 c2 -20 8 -35 13 -35 14 1 10 69 -4 83 -15 15 -395 21 -428 7z M200
323 c-24 -10 -30 -25 -30 -83 0 -65 8 -80 43 -83 35 -3 39 17 5 21 -36 4 -36
30 0 34 15 2 27 8 27 13 0 6 -12 11 -27 13 -23 3 -28 8 -28 32 0 24 5 29 28
32 15 2 26 8 25 13 -2 12 -23 16 -43 8z M50 240 c0 -47 4 -80 10 -80 6 0 10
21 11 48 l1 47 20 -47 c11 -27 24 -48 29 -48 5 0 9 36 9 80 0 47 -4 80 -10 80
-5 0 -10 -21 -11 -47 l-1 -48 -20 48 c-11 26 -24 47 -29 47 -5 0 -9 -36 -9
-80z M290 280 c0 -43 27 -120 41 -120 5 0 12 14 16 30 3 17 9 30 13 30 4 0 10
-13 14 -30 3 -16 10 -30 15 -30 14 0 41 77 41 120 0 51 -20 53 -21 3 -1 -21
-4 -49 -8 -63 -7 -23 -9 -22 -21 18 -7 23 -16 42 -20 42 -4 0 -13 -19 -20 -42
-12 -40 -14 -41 -21 -18 -4 14 -7 42 -8 63 -1 50 -21 48 -21 -3z M5 100 c-4
-6 -4 -27 0 -46 4 -25 13 -38 33 -45 38 -14 407 -8 423 8 14 14 18 77 4 81 -5
1 -11 -13 -13 -33 l-3 -35 -210 0 -209 0 0 34 c0 36 -14 55 -25 36z"/>
</g>
</svg>

