<?xml version="1.0" standalone="no"?>
<!DOCTYPE svg PUBLIC "-//W3C//DTD SVG 20010904//EN"
 "http://www.w3.org/TR/2001/REC-SVG-20010904/DTD/svg10.dtd">
<svg version="1.0" xmlns="http://www.w3.org/2000/svg"
 width="48.000000pt" height="48.000000pt" viewBox="0 0 48.000000 48.000000"
 preserveAspectRatio="xMidYMid meet">
<metadata>
Created by potrace 1.16, written by Peter Selinger 2001-2019
</metadata>
<g transform="translate(0.000000,48.000000) scale(0.100000,-0.100000)"
fill="currentColor" stroke="currentColor" stroke-width="6" stroke-linejoin="round">
<path d="M245 470 c-31 -13 -235 -225 -235 -244 0 -24 108 -135 137 -143 14
-3 30 0 36 6 8 8 5 11 -14 11 -17 0 -43 18 -82 58 -31 32 -57 62 -57 67 0 6
48 59 108 118 l107 107 74 0 73 0 -4 -75 c-2 -48 0 -74 7 -72 5 2 11 35 13 73
3 61 0 71 -19 86 -23 19 -107 24 -144 8z M315 400 c-4 -6 -3 -16 3 -22 6 -6
12 -6 17 2 4 6 3 16 -3 22 -6 6 -12 6 -17 -2z M252 226 c-34 -32 -37 -38 -37
-91 0 -53 3 -59 37 -91 32 -29 45 -34 87 -34 97 0 160 96 116 180 -25 48 -62
70 -116 70 -42 0 -55 -5 -87 -34z m160 -15 c28 -25 33 -36 33 -76 0 -40 -5
-51 -33 -76 -72 -64 -182 -18 -182 76 0 94 110 140 182 76z M311 199 c-30 -28
-23 -50 22 -72 40 -19 41 -37 2 -37 -32 0 -40 -16 -15 -30 16 -9 25 -6 45 13
32 29 26 48 -20 70 -43 20 -45 37 -6 37 37 0 48 15 22 29 -25 14 -24 14 -50
-10z"/>
</g>
</svg>

