<?xml version="1.0" standalone="no"?>
<!DOCTYPE svg PUBLIC "-//W3C//DTD SVG 20010904//EN"
 "http://www.w3.org/TR/2001/REC-SVG-20010904/DTD/svg10.dtd">
<svg version="1.0" xmlns="http://www.w3.org/2000/svg"
 width="48.000000pt" height="48.000000pt" viewBox="0 0 48.000000 48.000000"
 preserveAspectRatio="xMidYMid meet">
<metadata>
Created by potrace 1.16, written by Peter Selinger 2001-2019
</metadata>
<g transform="translate(0.000000,48.000000) scale(0.100000,-0.100000)"
fill="currentColor" stroke="none">
<path d="M115 466 c-10 -7 -16 -20 -12 -28 4 -12 -4 -17 -35 -21 -22 -3 -46
-11 -52 -17 -16 -16 -15 -365 1 -381 15 -15 101 -18 105 -4 2 6 -18 11 -44 13
l-48 3 0 180 0 179 43 0 c23 0 51 -7 61 -15 26 -20 126 -20 152 0 10 8 38 15
61 15 34 0 42 -4 45 -20 4 -28 24 -25 20 3 -4 30 -14 38 -60 44 -31 4 -39 9
-35 21 11 27 -26 42 -107 42 -48 0 -83 -5 -95 -14z m174 -46 c-11 -29 -12 -30
-79 -30 -67 0 -68 1 -79 30 l-10 30 89 0 89 0 -10 -30z M66 343 c-3 -3 -6 -62
-6 -129 0 -132 9 -158 54 -152 28 4 27 22 -1 26 -22 3 -23 6 -23 127 0 113 -6
146 -24 128z M304 326 c-8 -21 3 -49 16 -41 5 3 10 15 10 25 0 25 -18 36 -26
16z M135 290 c-3 -5 0 -13 8 -16 23 -8 82 0 82 11 0 14 -82 19 -90 5z M292
197 c-91 -91 -104 -109 -109 -145 l-6 -42 39 0 c37 0 47 8 147 108 108 109
126 139 95 170 -31 31 -62 14 -166 -91z m156 53 c4 -36 -182 -220 -222 -220
-51 0 -32 37 76 147 108 109 140 125 146 73z M135 201 c-7 -12 12 -24 25 -16
11 7 4 25 -10 25 -5 0 -11 -4 -15 -9z"/>
</g>
</svg>

