<?xml version="1.0" standalone="no"?>
<!DOCTYPE svg PUBLIC "-//W3C//DTD SVG 20010904//EN"
 "http://www.w3.org/TR/2001/REC-SVG-20010904/DTD/svg10.dtd">
<svg version="1.0" xmlns="http://www.w3.org/2000/svg"
 width="48.000000pt" height="48.000000pt" viewBox="0 0 48.000000 48.000000"
 preserveAspectRatio="xMidYMid meet">
<metadata>
Created by potrace 1.16, written by Peter Selinger 2001-2019
</metadata>
<g transform="translate(0.000000,48.000000) scale(0.100000,-0.100000)"
fill="currentColor" stroke="none">
<path d="M33 470 c-31 -12 -35 -46 -31 -257 2 -133 7 -186 16 -195 15 -15 135
-18 142 -3 3 6 -22 11 -62 13 l-68 3 0 209 0 210 104 0 104 0 4 -60 c2 -33 10
-66 16 -72 7 -7 41 -14 77 -16 97 -6 98 12 3 104 l-75 74 -104 -1 c-57 0 -114
-4 -126 -9z m302 -80 l59 -60 -62 0 -62 0 0 60 c0 33 1 60 3 60 1 0 29 -27 62
-60z M138 270 c-23 -29 -29 -32 -42 -20 -21 16 -33 5 -16 -15 19 -23 44 -18
69 15 31 43 21 61 -11 20z M312 177 c-73 -73 -84 -90 -89 -127 l-6 -43 43 6
c37 5 54 16 127 89 84 84 100 117 71 146 -29 29 -62 13 -146 -71z m136 38 c4
-26 -142 -171 -182 -181 -28 -7 -29 -6 -22 22 10 40 155 186 181 182 11 -2 21
-12 23 -23z M225 230 c-3 -5 0 -13 9 -16 21 -8 71 -1 71 11 0 14 -72 19 -80 5z
M131 129 c-22 -30 -23 -30 -43 -12 -20 17 -20 17 -17 -1 2 -10 12 -24 22 -30
15 -9 23 -5 48 22 29 32 37 52 21 52 -5 0 -18 -14 -31 -31z"/>
</g>
</svg>

