<?xml version="1.0" standalone="no"?>
<!DOCTYPE svg PUBLIC "-//W3C//DTD SVG 20010904//EN"
 "http://www.w3.org/TR/2001/REC-SVG-20010904/DTD/svg10.dtd">
<svg version="1.0" xmlns="http://www.w3.org/2000/svg"
 width="48.000000pt" height="48.000000pt" viewBox="0 0 48.000000 48.000000"
 preserveAspectRatio="xMidYMid meet">
<metadata>
Created by potrace 1.16, written by Peter Selinger 2001-2019
</metadata>
<g transform="translate(0.000000,48.000000) scale(0.100000,-0.100000)"
fill="currentColor" stroke="none">
<path d="M170 470 c-14 -3 -34 -20 -45 -38 -16 -25 -27 -31 -55 -32 -65 -1
-65 -1 -65 -194 0 -130 3 -178 13 -188 8 -8 40 -13 90 -13 106 0 110 19 5 23
l-83 3 0 174 0 175 48 0 c43 0 48 3 62 33 13 28 20 32 55 32 35 0 42 -4 55
-32 14 -30 19 -33 62 -33 45 0 47 -1 50 -32 4 -40 24 -34 21 6 -2 35 -17 46
-63 46 -28 0 -38 6 -51 29 -19 32 -62 50 -99 41z M180 395 c0 -8 7 -15 15 -15
8 0 15 7 15 15 0 8 -7 15 -15 15 -8 0 -15 -7 -15 -15z M100 270 c0 -6 27 -10
60 -10 33 0 60 4 60 10 0 6 -27 10 -60 10 -33 0 -60 -4 -60 -10z M317 262
c-15 -2 -43 -19 -62 -37 -53 -53 -53 -127 0 -180 53 -53 127 -53 179 0 54 53
54 126 1 179 -33 33 -66 44 -118 38z m83 -32 c12 -8 0 -24 -63 -87 -85 -86
-97 -87 -97 -5 0 61 41 102 102 102 24 0 50 -5 58 -10z m44 -46 c3 -9 6 -34 6
-56 0 -57 -42 -98 -102 -98 -81 0 -81 11 2 95 41 41 78 75 81 75 4 0 10 -7 13
-16z M105 200 c-8 -13 20 -24 41 -16 20 8 9 26 -16 26 -10 0 -22 -5 -25 -10z
M100 120 c0 -5 14 -10 30 -10 17 0 30 5 30 10 0 6 -13 10 -30 10 -16 0 -30 -4
-30 -10z"/>
</g>
</svg>

