<?xml version="1.0" standalone="no"?>
<!DOCTYPE svg PUBLIC "-//W3C//DTD SVG 20010904//EN"
 "http://www.w3.org/TR/2001/REC-SVG-20010904/DTD/svg10.dtd">
<svg version="1.0" xmlns="http://www.w3.org/2000/svg"
 width="48.000000pt" height="48.000000pt" viewBox="0 0 48.000000 48.000000"
 preserveAspectRatio="xMidYMid meet">
<metadata>
Created by potrace 1.16, written by Peter Selinger 2001-2019
</metadata>
<g transform="translate(0.000000,48.000000) scale(0.100000,-0.100000)"
fill="currentColor" stroke="none">
<path d="M170 470 c-14 -3 -34 -20 -45 -38 -16 -25 -27 -31 -55 -32 -65 -1
-65 -1 -65 -194 0 -130 3 -178 13 -188 15 -15 135 -18 142 -3 3 6 -22 11 -62
13 l-68 3 0 174 0 175 48 0 c43 0 48 3 62 33 13 28 20 32 55 32 35 0 42 -4 55
-32 14 -30 19 -33 62 -33 45 0 47 -1 50 -32 4 -40 24 -34 21 6 -2 35 -17 46
-63 46 -28 0 -38 6 -51 29 -19 32 -62 50 -99 41z M180 395 c0 -8 7 -15 15 -15
8 0 15 7 15 15 0 8 -7 15 -15 15 -8 0 -15 -7 -15 -15z M100 270 c0 -6 38 -10
95 -10 57 0 95 4 95 10 0 6 -38 10 -95 10 -57 0 -95 -4 -95 -10z M312 177
c-73 -73 -84 -90 -89 -127 l-6 -43 43 6 c37 5 54 16 127 89 84 84 100 117 71
146 -29 29 -62 13 -146 -71z m136 38 c4 -26 -142 -171 -182 -181 -28 -7 -29
-6 -22 22 10 40 155 186 181 182 11 -2 21 -12 23 -23z M105 200 c-3 -5 0 -13
8 -16 23 -9 112 0 110 11 -4 14 -110 19 -118 5z M100 120 c0 -5 16 -10 35 -10
19 0 35 5 35 10 0 6 -16 10 -35 10 -19 0 -35 -4 -35 -10z"/>
</g>
</svg>

