<?xml version="1.0" standalone="no"?>
<!DOCTYPE svg PUBLIC "-//W3C//DTD SVG 20010904//EN"
 "http://www.w3.org/TR/2001/REC-SVG-20010904/DTD/svg10.dtd">
<svg version="1.0" xmlns="http://www.w3.org/2000/svg"
 width="48.000000pt" height="48.000000pt" viewBox="0 0 48.000000 48.000000"
 preserveAspectRatio="xMidYMid meet">
<metadata>
Created by potrace 1.16, written by Peter Selinger 2001-2019
</metadata>
<g transform="translate(0.000000,48.000000) scale(0.100000,-0.100000)"
fill="currentColor" stroke="none">
<path d="M115 466 c-10 -7 -16 -20 -12 -28 4 -12 -4 -17 -35 -21 -22 -3 -46
-11 -52 -17 -17 -17 -15 -365 2 -382 9 -9 42 -13 100 -13 119 0 123 19 4 23
l-92 3 0 179 0 180 43 0 c23 0 51 -7 61 -15 26 -20 126 -20 152 0 10 8 38 15
61 15 l42 0 3 -47 c4 -60 23 -58 22 2 0 55 -9 65 -62 72 -31 4 -39 9 -35 21
11 27 -26 42 -107 42 -48 0 -83 -5 -95 -14z m174 -46 c-11 -29 -12 -30 -79
-30 -67 0 -68 1 -79 30 l-10 30 89 0 89 0 -10 -30z M66 343 c-3 -3 -6 -62 -6
-129 0 -141 7 -157 69 -152 47 4 46 22 -1 26 l-38 3 0 124 c0 113 -6 146 -24
128z M335 340 c-4 -6 -3 -16 3 -22 6 -6 12 -6 17 2 4 6 3 16 -3 22 -6 6 -12 6
-17 -2z M135 290 c-3 -5 0 -13 8 -16 23 -8 82 0 82 11 0 14 -82 19 -90 5z
M317 262 c-15 -2 -43 -19 -62 -37 -53 -53 -53 -127 0 -180 38 -38 79 -47 131
-29 46 16 62 32 78 78 18 52 9 93 -29 131 -33 33 -66 43 -118 37z m104 -51
c24 -24 29 -38 29 -76 0 -66 -39 -105 -105 -105 -66 0 -105 39 -105 105 0 66
39 105 105 105 38 0 52 -5 76 -29z M285 140 c-3 -5 0 -13 8 -16 23 -9 112 0
110 11 -4 14 -110 19 -118 5z M135 201 c-7 -12 12 -24 25 -16 11 7 4 25 -10
25 -5 0 -11 -4 -15 -9z"/>
</g>
</svg>

