<?xml version="1.0" standalone="no"?>
<!DOCTYPE svg PUBLIC "-//W3C//DTD SVG 20010904//EN"
 "http://www.w3.org/TR/2001/REC-SVG-20010904/DTD/svg10.dtd">
<svg version="1.0" xmlns="http://www.w3.org/2000/svg"
 width="48.000000pt" height="48.000000pt" viewBox="0 0 48.000000 48.000000"
 preserveAspectRatio="xMidYMid meet">
<metadata>
Created by potrace 1.16, written by Peter Selinger 2001-2019
</metadata>
<g transform="translate(0.000000,48.000000) scale(0.100000,-0.100000)"
fill="currentColor" stroke="currentColor" stroke-width="6" stroke-linejoin="round">
<path d="M50 467 c-46 -23 -51 -48 -48 -239 4 -234 -5 -223 188 -223 l140 0
72 73 73 72 0 140 c0 193 11 184 -223 188 -129 2 -184 -1 -202 -11z m388 -29
c8 -8 12 -52 12 -134 l0 -121 -51 -5 c-33 -4 -58 -12 -71 -26 -14 -13 -22 -38
-26 -71 l-5 -51 -121 0 c-82 0 -126 4 -134 12 -17 17 -17 379 0 396 17 17 379
17 396 0z m2 -295 c0 -10 -92 -103 -102 -103 -13 0 -9 85 4 98 13 13 98 17 98
5z M262 277 l-61 -61 -24 22 c-35 33 -45 27 -12 -8 16 -16 34 -30 40 -30 16 0
138 127 128 133 -5 3 -37 -22 -71 -56z"/>
</g>
</svg>

