<?xml version="1.0" standalone="no"?>
<!DOCTYPE svg PUBLIC "-//W3C//DTD SVG 20010904//EN"
 "http://www.w3.org/TR/2001/REC-SVG-20010904/DTD/svg10.dtd">
<svg version="1.0" xmlns="http://www.w3.org/2000/svg"
 width="48.000000pt" height="48.000000pt" viewBox="0 0 48.000000 48.000000"
 preserveAspectRatio="xMidYMid meet">
<metadata>
Created by potrace 1.16, written by Peter Selinger 2001-2019
</metadata>
<g transform="translate(0.000000,48.000000) scale(0.100000,-0.100000)"
fill="currentColor" stroke="currentColor" stroke-width="6" stroke-linejoin="round">
<path d="M170 470 c-14 -3 -34 -20 -45 -38 -16 -25 -27 -31 -55 -32 -65 -1
-65 -1 -65 -194 0 -130 3 -178 13 -188 8 -8 40 -13 90 -13 106 0 110 19 5 23
l-83 3 0 174 0 175 48 0 c43 0 48 3 62 33 13 28 20 32 55 32 35 0 42 -4 55
-32 14 -30 19 -33 62 -33 45 0 47 -1 50 -32 4 -40 24 -34 21 6 -2 35 -17 46
-63 46 -28 0 -38 6 -51 29 -19 32 -62 50 -99 41z M180 395 c0 -8 7 -15 15 -15
8 0 15 7 15 15 0 8 -7 15 -15 15 -8 0 -15 -7 -15 -15z M100 270 c0 -6 27 -10
60 -10 33 0 60 4 60 10 0 6 -27 10 -60 10 -33 0 -60 -4 -60 -10z M317 262
c-15 -2 -43 -19 -62 -37 -53 -53 -53 -127 0 -180 53 -53 127 -53 179 0 54 53
54 126 1 179 -33 33 -66 44 -118 38z m104 -51 c24 -24 29 -38 29 -76 0 -66
-39 -105 -105 -105 -66 0 -105 39 -105 105 0 66 39 105 105 105 38 0 52 -5 76
-29z M336 193 c-3 -3 -6 -14 -6 -24 0 -11 -9 -19 -22 -21 -29 -4 -30 -22 -1
-26 14 -2 23 -11 25 -25 4 -27 22 -25 26 2 2 11 12 21 25 23 27 4 25 22 -3 26
-12 2 -20 11 -20 22 0 20 -13 33 -24 23z M105 201 c-7 -13 17 -24 40 -19 9 1
16 8 16 13 0 14 -48 19 -56 6z M100 120 c0 -5 16 -10 35 -10 19 0 35 5 35 10
0 6 -16 10 -35 10 -19 0 -35 -4 -35 -10z"/>
</g>
</svg>

