<?xml version="1.0" standalone="no"?>
<!DOCTYPE svg PUBLIC "-//W3C//DTD SVG 20010904//EN"
 "http://www.w3.org/TR/2001/REC-SVG-20010904/DTD/svg10.dtd">
<svg version="1.0" xmlns="http://www.w3.org/2000/svg"
 width="48.000000pt" height="48.000000pt" viewBox="0 0 48.000000 48.000000"
 preserveAspectRatio="xMidYMid meet">
<metadata>
Created by potrace 1.16, written by Peter Selinger 2001-2019
</metadata>
<g transform="translate(0.000000,48.000000) scale(0.100000,-0.100000)"
fill="currentColor" stroke="none">
<path d="M213 473 c-32 -6 -72 -51 -79 -89 -8 -42 22 -106 71 -154 l35 -34 35
34 c37 36 75 104 75 134 0 66 -69 122 -137 109z m56 -24 c31 -11 61 -52 61
-84 0 -24 -35 -87 -64 -114 l-26 -24 -26 24 c-28 26 -64 89 -64 113 0 42 28
73 86 96 1 0 15 -5 33 -11z M256 381 c-28 -30 -30 -30 -49 -13 -18 16 -19 16
-16 -2 2 -10 12 -24 21 -30 15 -9 24 -5 49 20 17 18 30 37 28 43 -3 7 -17 -1
-33 -18z M62 368 c-8 -8 -12 -50 -12 -122 0 -75 -5 -126 -17 -164 -26 -81 -22
-82 207 -82 229 0 233 1 207 82 -12 38 -17 89 -17 164 0 112 -7 134 -40 134
-13 -1 -12 -3 3 -14 14 -11 17 -30 17 -120 l0 -106 -170 0 -170 0 0 106 c0 90
3 109 18 120 14 11 15 13 2 14 -9 0 -21 -5 -28 -12z m367 -288 c7 -22 9 -45 6
-50 -8 -13 -382 -13 -390 0 -3 5 -1 28 6 50 l12 40 177 0 177 0 12 -40z M220
70 c0 -5 9 -10 20 -10 11 0 20 5 20 10 0 6 -9 10 -20 10 -11 0 -20 -4 -20 -10z"/>
</g>
</svg>

