<?xml version="1.0" standalone="no"?>
<!DOCTYPE svg PUBLIC "-//W3C//DTD SVG 20010904//EN"
 "http://www.w3.org/TR/2001/REC-SVG-20010904/DTD/svg10.dtd">
<svg version="1.0" xmlns="http://www.w3.org/2000/svg"
 width="48.000000pt" height="48.000000pt" viewBox="0 0 48.000000 48.000000"
 preserveAspectRatio="xMidYMid meet">
<metadata>
Created by potrace 1.16, written by Peter Selinger 2001-2019
</metadata>
<g transform="translate(0.000000,48.000000) scale(0.100000,-0.100000)"
fill="currentColor" stroke="currentColor" stroke-width="6" stroke-linejoin="round">
<path d="M50 425 c-16 -19 -3 -55 20 -55 20 0 57 -56 45 -68 -4 -4 -25 -11
-48 -17 -49 -12 -67 -39 -67 -105 0 -78 14 -92 110 -117 107 -27 153 -27 260
0 96 25 110 39 110 117 0 66 -18 93 -67 105 -23 6 -44 13 -48 17 -12 12 25 68
45 68 23 0 36 36 20 55 -27 33 -78 5 -65 -34 4 -12 -1 -33 -10 -49 -17 -28
-18 -28 -115 -28 -97 0 -98 0 -115 28 -9 16 -14 37 -10 49 8 24 -10 49 -35 49
-10 0 -23 -7 -30 -15z m50 -20 c0 -8 -9 -15 -20 -15 -11 0 -20 7 -20 15 0 8 9
15 20 15 11 0 20 -7 20 -15z m320 0 c0 -8 -9 -15 -20 -15 -11 0 -20 7 -20 15
0 8 9 15 20 15 11 0 20 -7 20 -15z m-42 -130 l72 -17 0 -78 0 -78 -91 -21
c-112 -26 -126 -26 -238 0 l-91 21 0 78 0 78 77 17 c43 9 83 18 88 20 17 7
106 -3 183 -20z M102 218 c-7 -7 -12 -21 -12 -33 0 -28 19 -45 50 -45 31 0 50
17 50 45 0 28 -19 45 -50 45 -14 0 -31 -5 -38 -12z m63 -33 c0 -22 -31 -33
-47 -17 -17 17 -1 44 24 40 15 -2 23 -10 23 -23z M302 218 c-15 -15 -15 -51 0
-66 7 -7 24 -12 38 -12 31 0 50 17 50 45 0 28 -19 45 -50 45 -14 0 -31 -5 -38
-12z m63 -33 c0 -22 -31 -33 -47 -17 -17 17 -1 44 24 40 15 -2 23 -10 23 -23z"/>
</g>
</svg>

