<?xml version="1.0" standalone="no"?>
<!DOCTYPE svg PUBLIC "-//W3C//DTD SVG 20010904//EN"
 "http://www.w3.org/TR/2001/REC-SVG-20010904/DTD/svg10.dtd">
<svg version="1.0" xmlns="http://www.w3.org/2000/svg"
 width="48.000000pt" height="48.000000pt" viewBox="0 0 48.000000 48.000000"
 preserveAspectRatio="xMidYMid meet">
<metadata>
Created by potrace 1.16, written by Peter Selinger 2001-2019
</metadata>
<g transform="translate(0.000000,48.000000) scale(0.100000,-0.100000)"
fill="currentColor" stroke="currentColor" stroke-width="6" stroke-linejoin="round">
<path d="M153 419 c-43 -13 -71 -52 -79 -110 -5 -38 -11 -49 -24 -49 -10 0
-21 7 -24 16 -13 34 -26 -1 -26 -71 0 -70 13 -105 26 -71 12 30 40 18 50 -21
13 -53 39 -63 164 -63 125 0 151 10 164 63 10 39 38 51 50 21 13 -34 26 1 26
71 0 70 -13 105 -26 71 -3 -9 -14 -16 -24 -16 -13 0 -19 11 -24 49 -8 61 -36
97 -84 111 -44 12 -125 12 -169 -1z m204 -41 c46 -43 34 -48 -117 -48 -150 0
-159 4 -118 47 20 21 30 23 117 23 83 0 97 -3 118 -22z m23 -188 l0 -110 -140
0 -140 0 0 110 0 110 140 0 140 0 0 -110z m-310 15 c0 -18 -5 -25 -20 -25 -15
0 -20 7 -20 25 0 18 5 25 20 25 15 0 20 -7 20 -25z m380 0 c0 -18 -5 -25 -20
-25 -15 0 -20 7 -20 25 0 18 5 25 20 25 15 0 20 -7 20 -25z M146 231 c-4 -5
-2 -12 3 -15 5 -4 12 -2 15 3 4 5 2 12 -3 15 -5 4 -12 2 -15 -3z M316 231 c-4
-5 -2 -12 3 -15 5 -4 12 -2 15 3 4 5 2 12 -3 15 -5 4 -12 2 -15 -3z M192 170
c3 -23 7 -25 48 -25 41 0 45 2 48 25 2 23 1 24 -11 8 -8 -10 -24 -18 -37 -18
-13 0 -29 8 -37 18 -12 16 -13 15 -11 -8z"/>
</g>
</svg>

