<?xml version="1.0" standalone="no"?>
<!DOCTYPE svg PUBLIC "-//W3C//DTD SVG 20010904//EN"
 "http://www.w3.org/TR/2001/REC-SVG-20010904/DTD/svg10.dtd">
<svg version="1.0" xmlns="http://www.w3.org/2000/svg"
 width="48.000000pt" height="48.000000pt" viewBox="0 0 48.000000 48.000000"
 preserveAspectRatio="xMidYMid meet">
<metadata>
Created by potrace 1.16, written by Peter Selinger 2001-2019
</metadata>
<g transform="translate(0.000000,48.000000) scale(0.100000,-0.100000)"
fill="currentColor" stroke="currentColor" stroke-width="6" stroke-linejoin="round">
<path d="M33 470 c-29 -12 -35 -51 -31 -198 2 -82 7 -125 16 -134 15 -15 125
-18 132 -3 3 6 -20 11 -57 13 l-63 3 0 149 0 150 210 0 209 0 3 -87 c4 -113
23 -109 23 4 0 54 -4 86 -13 95 -16 16 -394 23 -429 8z M117 402 c-20 -22 -22
-63 -5 -80 10 -10 8 -15 -9 -27 -22 -15 -46 -69 -36 -79 11 -10 123 -6 123 4
0 6 -22 10 -50 10 -37 0 -50 4 -50 14 0 35 81 61 108 34 6 -6 15 -8 19 -4 5 4
-1 14 -11 22 -16 11 -17 17 -8 26 18 18 14 63 -6 81 -24 22 -55 21 -75 -1z
m63 -17 c20 -25 8 -50 -25 -50 -21 0 -31 5 -33 18 -4 21 14 47 33 47 7 0 18
-7 25 -15z M280 390 c0 -5 23 -10 50 -10 28 0 50 5 50 10 0 6 -22 10 -50 10
-27 0 -50 -4 -50 -10z M280 330 c0 -6 28 -10 65 -10 37 0 65 4 65 10 0 6 -28
10 -65 10 -37 0 -65 -4 -65 -10z M317 262 c-15 -2 -43 -19 -62 -37 -53 -53
-53 -127 0 -180 53 -53 127 -53 179 0 54 53 54 126 1 179 -33 33 -66 44 -118
38z m104 -51 c24 -24 29 -38 29 -76 0 -66 -39 -105 -105 -105 -66 0 -105 39
-105 105 0 66 39 105 105 105 38 0 52 -5 76 -29z M364 143 c-15 -21 -29 -40
-31 -42 -1 -2 -12 4 -23 14 -11 10 -23 15 -27 12 -9 -10 27 -47 46 -47 14 1
81 79 81 95 0 15 -21 1 -46 -32z"/>
</g>
</svg>

