<?xml version="1.0" standalone="no"?>
<!DOCTYPE svg PUBLIC "-//W3C//DTD SVG 20010904//EN"
 "http://www.w3.org/TR/2001/REC-SVG-20010904/DTD/svg10.dtd">
<svg version="1.0" xmlns="http://www.w3.org/2000/svg"
 width="48.000000pt" height="48.000000pt" viewBox="0 0 48.000000 48.000000"
 preserveAspectRatio="xMidYMid meet">
<metadata>
Created by potrace 1.16, written by Peter Selinger 2001-2019
</metadata>
<g transform="translate(0.000000,48.000000) scale(0.100000,-0.100000)"
fill="currentColor" stroke="currentColor" stroke-width="6" stroke-linejoin="round">
<path d="M200 450 c-27 -27 -25 -56 5 -84 46 -42 34 -55 -52 -58 -71 -3 -79
-5 -91 -28 -17 -34 -13 -230 7 -253 20 -25 322 -25 342 0 20 23 24 219 7 253
-12 23 -20 25 -91 28 -86 3 -98 16 -52 58 14 13 25 32 25 44 0 26 -34 60 -60
60 -11 0 -29 -9 -40 -20z m70 -15 c26 -32 -13 -81 -47 -59 -23 14 -28 41 -13
59 16 19 44 19 60 0z m125 -275 l0 -125 -155 0 -155 0 -3 114 c-1 63 0 121 2
128 4 11 38 13 158 11 l153 -3 0 -125z M130 185 c-15 -18 -10 -45 13 -59 34
-22 73 27 47 59 -16 19 -44 19 -60 0z m46 -16 c10 -17 -13 -36 -27 -22 -12 12
-4 33 11 33 5 0 12 -5 16 -11z M290 185 c-26 -32 13 -81 48 -59 22 14 27 41
12 59 -16 19 -44 19 -60 0z m46 -16 c10 -17 -13 -36 -27 -22 -12 12 -4 33 11
33 5 0 12 -5 16 -11z M5 198 c-9 -24 -2 -93 10 -93 14 0 19 85 6 98 -7 7 -12
5 -16 -5z M455 198 c-9 -24 -2 -93 10 -93 14 0 19 85 6 98 -7 7 -12 5 -16 -5z"/>
</g>
</svg>

