<?xml version="1.0" standalone="no"?>
<!DOCTYPE svg PUBLIC "-//W3C//DTD SVG 20010904//EN"
 "http://www.w3.org/TR/2001/REC-SVG-20010904/DTD/svg10.dtd">
<svg version="1.0" xmlns="http://www.w3.org/2000/svg"
 width="48.000000pt" height="48.000000pt" viewBox="0 0 48.000000 48.000000"
 preserveAspectRatio="xMidYMid meet">
<metadata>
Created by potrace 1.16, written by Peter Selinger 2001-2019
</metadata>
<g transform="translate(0.000000,48.000000) scale(0.100000,-0.100000)"
fill="currentColor" stroke="currentColor" stroke-width="6" stroke-linejoin="round">
<path d="M58 474 c-19 -19 16 -24 162 -24 l159 0 3 -55 c2 -31 7 -54 13 -53
12 4 13 113 2 125 -11 10 -330 17 -339 7z M28 414 c-10 -3 -20 -20 -24 -39 -8
-45 -1 -241 9 -252 12 -12 191 -10 195 2 1 6 -34 11 -88 13 l-90 3 0 124 0
125 144 0 145 0 3 -27 c2 -16 8 -27 13 -25 11 3 11 59 0 70 -8 8 -282 13 -307
6z M142 338 c-14 -14 -16 -54 -3 -63 5 -3 -1 -16 -15 -30 -24 -24 -32 -55 -14
-55 6 0 10 7 10 15 0 8 11 22 25 31 21 14 31 15 51 5 14 -6 28 -20 31 -31 3
-11 9 -20 14 -20 17 0 9 31 -15 55 -14 14 -20 27 -15 30 13 9 11 49 -3 63 -7
7 -21 12 -33 12 -12 0 -26 -5 -33 -12z m56 -30 c-2 -15 -10 -23 -23 -23 -13 0
-21 8 -23 23 -3 18 1 22 23 22 22 0 26 -4 23 -22z M311 244 c-12 -15 -21 -36
-21 -48 0 -11 -7 -30 -15 -40 -23 -30 -19 -112 5 -136 29 -29 151 -29 180 0
24 24 28 106 5 136 -8 10 -15 29 -15 40 0 12 -9 33 -21 48 -16 20 -29 26 -59
26 -30 0 -43 -6 -59 -26z m101 -11 c10 -9 18 -24 18 -35 0 -15 -8 -18 -60 -18
-49 0 -60 3 -60 17 0 46 66 69 102 36z m38 -143 l0 -60 -80 0 -80 0 0 60 0 60
80 0 80 0 0 -60z M380 105 c-7 -9 -21 -13 -31 -10 -23 8 -25 -8 -4 -25 13 -11
20 -9 40 10 14 13 25 27 25 32 0 13 -17 9 -30 -7z"/>
</g>
</svg>

