<?xml version="1.0" standalone="no"?>
<!DOCTYPE svg PUBLIC "-//W3C//DTD SVG 20010904//EN"
 "http://www.w3.org/TR/2001/REC-SVG-20010904/DTD/svg10.dtd">
<svg version="1.0" xmlns="http://www.w3.org/2000/svg"
 width="48.000000pt" height="48.000000pt" viewBox="0 0 48.000000 48.000000"
 preserveAspectRatio="xMidYMid meet">
<metadata>
Created by potrace 1.16, written by Peter Selinger 2001-2019
</metadata>
<g transform="translate(0.000000,48.000000) scale(0.100000,-0.100000)"
fill="currentColor" stroke="currentColor" stroke-width="6" stroke-linejoin="round">
<path d="M150 448 c-68 -47 -75 -65 -75 -208 0 -115 2 -132 21 -157 38 -51 81
-73 144 -73 63 0 106 22 144 73 19 25 21 42 21 157 0 115 -2 132 -21 157 -38
51 -81 73 -144 73 -43 0 -65 -6 -90 -22z m168 -18 c51 -31 72 -75 72 -150 0
-63 -1 -66 -30 -77 -18 -7 -32 -21 -36 -37 -6 -25 -8 -26 -84 -26 -76 0 -78 1
-84 26 -4 16 -18 30 -36 37 -29 11 -30 14 -30 77 0 75 21 119 72 150 43 26
113 26 156 0z m-201 -248 c6 -4 16 -20 22 -35 10 -27 12 -27 101 -27 89 0 91
0 101 27 18 48 49 58 49 16 0 -68 -73 -133 -150 -133 -77 0 -150 65 -150 133
0 28 6 32 27 19z M152 263 c2 -10 10 -18 18 -18 22 0 18 29 -3 33 -14 3 -18
-1 -15 -15z M294 269 c-3 -6 -2 -15 4 -21 13 -13 32 -2 32 18 0 16 -26 19 -36
3z M5 268 c-9 -22 -2 -68 10 -71 14 -3 19 63 6 76 -7 7 -12 5 -16 -5z M455
268 c-9 -22 -2 -68 10 -71 14 -3 19 63 6 76 -7 7 -12 5 -16 -5z"/>
</g>
</svg>

