<?xml version="1.0" standalone="no"?>
<!DOCTYPE svg PUBLIC "-//W3C//DTD SVG 20010904//EN"
 "http://www.w3.org/TR/2001/REC-SVG-20010904/DTD/svg10.dtd">
<svg version="1.0" xmlns="http://www.w3.org/2000/svg"
 width="48.000000pt" height="48.000000pt" viewBox="0 0 48.000000 48.000000"
 preserveAspectRatio="xMidYMid meet">
<metadata>
Created by potrace 1.16, written by Peter Selinger 2001-2019
</metadata>
<g transform="translate(0.000000,48.000000) scale(0.100000,-0.100000)"
fill="currentColor" stroke="none">
<path d="M132 438 c-16 -16 -16 -90 0 -106 15 -15 51 -15 66 0 16 16 16 90 0
106 -7 7 -21 12 -33 12 -12 0 -26 -5 -33 -12z m56 -56 c3 -40 2 -43 -20 -40
-17 2 -24 11 -26 31 -5 39 5 59 25 55 13 -2 19 -15 21 -46z M245 440 c3 -5 13
-10 21 -10 10 0 14 -14 14 -55 0 -30 5 -55 10 -55 6 0 10 25 10 55 0 41 4 55
14 55 8 0 18 5 21 10 4 6 -13 10 -45 10 -32 0 -49 -4 -45 -10z M380 385 c0
-37 4 -65 10 -65 6 0 10 9 10 20 0 14 7 20 23 20 29 0 47 18 47 45 0 30 -19
45 -57 45 l-33 0 0 -65z m70 20 c0 -20 -5 -25 -25 -25 -20 0 -25 5 -25 25 0
20 5 25 25 25 20 0 25 -5 25 -25z M24 356 c-17 -13 -19 -29 -22 -143 -4 -174
-2 -177 107 -181 52 -2 88 1 97 9 17 14 21 234 4 224 -6 -3 -10 -37 -10 -76
l0 -69 -85 0 -86 0 3 113 3 112 28 3 c15 2 25 8 22 13 -9 13 -38 11 -61 -5z
m174 -278 c-3 -22 -8 -23 -83 -23 -75 0 -80 1 -83 23 -3 21 -1 22 83 22 84 0
86 -1 83 -22z"/>
</g>
</svg>

