<?xml version="1.0" standalone="no"?>
<!DOCTYPE svg PUBLIC "-//W3C//DTD SVG 20010904//EN"
 "http://www.w3.org/TR/2001/REC-SVG-20010904/DTD/svg10.dtd">
<svg version="1.0" xmlns="http://www.w3.org/2000/svg"
 width="48.000000pt" height="48.000000pt" viewBox="0 0 48.000000 48.000000"
 preserveAspectRatio="xMidYMid meet">
<metadata>
Created by potrace 1.16, written by Peter Selinger 2001-2019
</metadata>
<g transform="translate(0.000000,48.000000) scale(0.100000,-0.100000)"
fill="currentColor" stroke="currentColor" stroke-width="6" stroke-linejoin="round">
<path d="M33 470 c-29 -12 -35 -51 -31 -198 2 -82 7 -125 16 -134 9 -9 42 -13
97 -13 112 0 112 19 0 23 l-85 3 0 149 0 150 210 0 209 0 3 -77 c2 -46 7 -77
13 -75 15 4 13 148 -3 164 -16 16 -394 23 -429 8z M117 402 c-20 -22 -22 -63
-5 -80 10 -10 8 -15 -9 -27 -22 -15 -46 -69 -36 -79 8 -8 168 -8 176 0 10 10
-14 64 -36 79 -17 12 -19 17 -9 27 18 18 15 63 -6 81 -24 22 -55 21 -75 -1z
m63 -17 c20 -25 8 -50 -25 -50 -21 0 -31 5 -33 18 -4 21 14 47 33 47 7 0 18
-7 25 -15z m18 -111 c42 -29 28 -44 -43 -44 -50 0 -65 3 -65 14 0 19 38 46 65
46 11 0 31 -7 43 -16z M280 390 c0 -5 23 -10 50 -10 28 0 50 5 50 10 0 6 -22
10 -50 10 -27 0 -50 -4 -50 -10z M280 330 c0 -6 28 -10 65 -10 37 0 65 4 65
10 0 6 -28 10 -65 10 -37 0 -65 -4 -65 -10z M311 244 c-12 -15 -21 -36 -21
-48 0 -11 -7 -30 -15 -40 -23 -30 -19 -112 5 -136 29 -29 151 -29 180 0 24 24
28 106 5 136 -8 10 -15 29 -15 40 0 12 -9 33 -21 48 -16 20 -29 26 -59 26 -30
0 -43 -6 -59 -26z m101 -11 c10 -9 18 -24 18 -35 0 -15 -8 -18 -60 -18 -49 0
-60 3 -60 17 0 46 66 69 102 36z m38 -143 l0 -60 -80 0 -80 0 0 60 0 60 80 0
80 0 0 -60z M380 105 c-7 -9 -21 -13 -31 -10 -23 8 -25 -8 -4 -25 13 -11 20
-9 40 10 14 13 25 27 25 32 0 13 -17 9 -30 -7z"/>
</g>
</svg>

