<?xml version="1.0" standalone="no"?>
<!DOCTYPE svg PUBLIC "-//W3C//DTD SVG 20010904//EN"
 "http://www.w3.org/TR/2001/REC-SVG-20010904/DTD/svg10.dtd">
<svg version="1.0" xmlns="http://www.w3.org/2000/svg"
 width="48.000000pt" height="48.000000pt" viewBox="0 0 48.000000 48.000000"
 preserveAspectRatio="xMidYMid meet">
<metadata>
Created by potrace 1.16, written by Peter Selinger 2001-2019
</metadata>
<g transform="translate(0.000000,48.000000) scale(0.100000,-0.100000)"
fill="currentColor" stroke="currentColor" stroke-width="6" stroke-linejoin="round">
<path d="M111 370 c-18 -4 -48 -22 -65 -39 -28 -28 -31 -38 -31 -91 0 -53 3
-63 31 -90 37 -38 83 -50 194 -50 111 0 157 12 194 50 28 27 31 37 31 90 0 53
-3 63 -31 90 -17 17 -48 35 -70 40 -47 11 -206 11 -253 0z m305 -54 c28 -28
34 -42 34 -76 0 -34 -6 -48 -34 -76 l-34 -34 -142 0 -142 0 -34 34 c-28 28
-34 42 -34 76 0 34 6 48 34 76 l34 34 142 0 142 0 34 -34z M109 315 c-58 -32
-56 -121 3 -151 84 -43 168 60 106 130 -28 32 -74 41 -109 21z m86 -30 c32
-31 32 -59 -1 -91 -19 -20 -31 -24 -52 -19 -43 11 -53 25 -50 69 2 32 9 43 28
53 36 18 48 16 75 -12z"/>
</g>
</svg>

