<?xml version="1.0" standalone="no"?>
<!DOCTYPE svg PUBLIC "-//W3C//DTD SVG 20010904//EN"
 "http://www.w3.org/TR/2001/REC-SVG-20010904/DTD/svg10.dtd">
<svg version="1.0" xmlns="http://www.w3.org/2000/svg"
 width="48.000000pt" height="48.000000pt" viewBox="0 0 48.000000 48.000000"
 preserveAspectRatio="xMidYMid meet">
<metadata>
Created by potrace 1.16, written by Peter Selinger 2001-2019
</metadata>
<g transform="translate(0.000000,48.000000) scale(0.100000,-0.100000)"
fill="currentColor" stroke="none">
<path d="M160 457 c-49 -16 -123 -93 -138 -143 -27 -91 -8 -169 58 -234 93
-94 227 -94 320 0 94 93 94 227 0 320 -65 65 -150 85 -240 57z m158 -23 c174
-72 174 -316 0 -388 -133 -56 -287 47 -288 192 -1 147 154 253 288 196z M112
317 c12 -10 19 -36 24 -100 4 -50 12 -91 19 -97 8 -6 48 -10 97 -8 l83 3 9 98
c7 70 13 97 22 97 8 0 14 5 14 10 0 6 -54 10 -142 10 -118 -1 -140 -3 -126
-13z m215 -74 c-4 -38 -7 -78 -7 -90 0 -22 -4 -23 -80 -23 l-80 0 0 38 c0 20
-3 61 -6 90 l-7 52 93 0 93 0 -6 -67z M200 220 c0 -27 5 -50 10 -50 6 0 10 23
10 50 0 28 -4 50 -10 50 -5 0 -10 -22 -10 -50z M260 220 c0 -27 5 -50 10 -50
6 0 10 23 10 50 0 28 -4 50 -10 50 -5 0 -10 -22 -10 -50z"/>
</g>
</svg>

