<?xml version="1.0" standalone="no"?>
<!DOCTYPE svg PUBLIC "-//W3C//DTD SVG 20010904//EN"
 "http://www.w3.org/TR/2001/REC-SVG-20010904/DTD/svg10.dtd">
<svg version="1.0" xmlns="http://www.w3.org/2000/svg"
 width="48.000000pt" height="48.000000pt" viewBox="0 0 48.000000 48.000000"
 preserveAspectRatio="xMidYMid meet">
<metadata>
Created by potrace 1.16, written by Peter Selinger 2001-2019
</metadata>
<g transform="translate(0.000000,48.000000) scale(0.100000,-0.100000)"
fill="currentColor" stroke="currentColor" stroke-width="6" stroke-linejoin="round">
<path d="M417 452 c-16 -18 -16 -20 1 -35 18 -16 20 -16 35 1 16 18 16 20 -1
35 -18 16 -20 16 -35 -1z M27 439 c-16 -18 -16 -21 1 -39 18 -19 18 -19 35 1
16 18 16 21 -1 39 -18 19 -18 19 -35 -1z M167 380 c-20 -17 -46 -30 -61 -30
-32 0 -66 -32 -66 -64 0 -16 -7 -26 -21 -29 -20 -5 -21 -11 -17 -120 1 -64 7
-119 11 -124 11 -11 443 -11 454 0 4 5 10 60 11 124 4 109 3 115 -17 120 -14
3 -21 13 -21 29 0 32 -34 64 -66 64 -15 0 -41 13 -61 30 -25 22 -44 30 -73 30
-29 0 -48 -8 -73 -30z m137 -15 c14 -13 26 -29 26 -36 0 -7 9 -9 25 -5 35 9
65 -9 65 -39 l0 -25 -180 0 -180 0 0 25 c0 30 30 48 65 39 16 -4 25 -2 25 5 0
26 53 61 90 61 25 0 45 -8 64 -25z m-154 -139 c0 -8 3 -21 6 -30 5 -14 -4 -16
-60 -16 l-66 0 0 30 0 30 60 0 c45 0 60 -4 60 -14z m148 -23 c-2 -29 -9 -41
-30 -53 -25 -13 -31 -13 -55 0 -22 12 -29 24 -31 53 l-3 37 61 0 61 0 -3 -37z
m152 7 l0 -30 -66 0 c-56 0 -65 2 -60 16 3 9 6 22 6 30 0 10 15 14 60 14 l60
0 0 -30z m-340 -115 l0 -65 -40 0 -40 0 0 65 0 65 40 0 40 0 0 -65z m84 43
c31 -20 35 -28 36 -65 l0 -43 -45 0 -45 0 0 65 c0 36 4 65 9 65 5 0 25 -10 45
-22z m146 -43 l0 -65 -45 0 -45 0 0 43 c1 36 5 45 33 64 52 34 57 30 57 -42z
m110 0 l0 -65 -40 0 -40 0 0 65 0 65 40 0 40 0 0 -65z M224 199 c-10 -17 13
-36 27 -22 12 12 4 33 -11 33 -5 0 -12 -5 -16 -11z"/>
</g>
</svg>

