<?xml version="1.0" standalone="no"?>
<!DOCTYPE svg PUBLIC "-//W3C//DTD SVG 20010904//EN"
 "http://www.w3.org/TR/2001/REC-SVG-20010904/DTD/svg10.dtd">
<svg version="1.0" xmlns="http://www.w3.org/2000/svg"
 width="48.000000pt" height="48.000000pt" viewBox="0 0 48.000000 48.000000"
 preserveAspectRatio="xMidYMid meet">
<metadata>
Created by potrace 1.16, written by Peter Selinger 2001-2019
</metadata>
<g transform="translate(0.000000,48.000000) scale(0.100000,-0.100000)"
fill="currentColor" stroke="currentColor" stroke-width="6" stroke-linejoin="round">
<path d="M42 440 c-12 -5 -27 -22 -33 -37 -12 -32 -8 -347 4 -360 11 -11 443
-11 454 0 4 5 8 89 8 187 0 159 -2 181 -18 197 -16 16 -40 18 -205 20 -103 1
-197 -2 -210 -7z m68 -75 l0 -55 -40 0 -40 0 0 55 0 55 40 0 40 0 0 -55z m120
0 l0 -55 -45 0 -45 0 0 55 0 55 45 0 45 0 0 -55z m110 0 l0 -55 -45 0 -45 0 0
55 0 55 45 0 45 0 0 -55z m110 0 l0 -55 -40 0 -40 0 0 55 0 55 40 0 40 0 0
-55z m-298 -110 c5 -25 4 -25 -58 -25 -62 0 -64 1 -64 25 0 24 3 25 59 25 55
0 59 -2 63 -25z m148 -9 c0 -42 -22 -66 -60 -66 -38 0 -60 24 -60 66 l0 34 60
0 60 0 0 -34z m150 9 c0 -24 -2 -25 -64 -25 -62 0 -63 0 -58 25 4 23 8 25 63
25 56 0 59 -1 59 -25z m-340 -125 l0 -70 -40 0 -40 0 0 70 0 70 40 0 40 0 0
-70z m75 50 c10 -11 24 -20 32 -20 9 0 13 -15 13 -50 l0 -50 -45 0 -45 0 0 70
c0 76 11 88 45 50z m155 -50 l0 -70 -45 0 -45 0 0 50 c0 35 4 50 13 50 8 0 22
9 32 20 34 38 45 26 45 -50z m110 0 l0 -70 -40 0 -40 0 0 70 0 70 40 0 40 0 0
-70z M227 244 c-13 -13 -7 -24 14 -24 11 0 19 5 17 12 -5 14 -22 21 -31 12z"/>
</g>
</svg>

