<?xml version="1.0" standalone="no"?>
<!DOCTYPE svg PUBLIC "-//W3C//DTD SVG 20010904//EN"
 "http://www.w3.org/TR/2001/REC-SVG-20010904/DTD/svg10.dtd">
<svg version="1.0" xmlns="http://www.w3.org/2000/svg"
 width="48.000000pt" height="48.000000pt" viewBox="0 0 48.000000 48.000000"
 preserveAspectRatio="xMidYMid meet">
<metadata>
Created by potrace 1.16, written by Peter Selinger 2001-2019
</metadata>
<g transform="translate(0.000000,48.000000) scale(0.100000,-0.100000)"
fill="currentColor" stroke="currentColor" stroke-width="6" stroke-linejoin="round">
<path d="M200 380 c-82 -15 -190 -95 -190 -140 0 -22 10 -37 43 -63 131 -107
243 -107 375 0 32 26 42 41 42 63 0 22 -10 37 -42 63 -81 66 -155 91 -228 77z
m127 -35 c51 -22 123 -83 123 -105 0 -22 -72 -83 -123 -105 -47 -19 -127 -19
-174 0 -51 22 -123 83 -123 105 0 22 71 83 121 104 44 20 130 20 176 1z M182
297 c-50 -53 -13 -137 59 -137 47 0 79 34 79 81 0 71 -90 107 -138 56z m102
-13 c20 -20 20 -68 0 -88 -20 -20 -68 -20 -88 0 -20 20 -20 68 0 88 8 9 28 16
44 16 16 0 36 -7 44 -16z"/>
</g>
</svg>

