<?xml version="1.0" standalone="no"?>
<!DOCTYPE svg PUBLIC "-//W3C//DTD SVG 20010904//EN"
 "http://www.w3.org/TR/2001/REC-SVG-20010904/DTD/svg10.dtd">
<svg version="1.0" xmlns="http://www.w3.org/2000/svg"
 width="48.000000pt" height="48.000000pt" viewBox="0 0 48.000000 48.000000"
 preserveAspectRatio="xMidYMid meet">
<metadata>
Created by potrace 1.16, written by Peter Selinger 2001-2019
</metadata>
<g transform="translate(0.000000,48.000000) scale(0.100000,-0.100000)"
fill="currentColor" stroke="none">
<path d="M180 365 c-23 -36 -44 -65 -47 -65 -2 0 -25 16 -50 35 -25 19 -50 35
-55 35 -18 0 -21 -35 -9 -128 8 -65 8 -99 1 -106 -14 -14 -13 -59 2 -74 17
-17 419 -17 436 0 15 15 16 60 2 74 -7 7 -7 41 1 106 12 93 9 128 -9 128 -5 0
-30 -16 -55 -35 -25 -19 -48 -35 -50 -35 -3 0 -24 29 -47 65 -26 39 -49 65
-60 65 -11 0 -34 -26 -60 -65z m109 -20 c24 -36 50 -65 56 -65 7 0 34 16 60
37 l48 36 -7 -74 c-13 -132 10 -119 -206 -119 -216 0 -193 -13 -206 119 l-7
74 48 -36 c26 -21 53 -37 60 -37 6 0 32 29 56 65 24 36 46 65 49 65 3 0 25
-29 49 -65z m151 -220 c6 -8 10 -22 8 -32 -3 -17 -19 -18 -208 -18 -189 0
-205 1 -208 18 -8 43 10 47 208 47 152 0 190 -3 200 -15z"/>
</g>
</svg>

