<?xml version="1.0" standalone="no"?>
<!DOCTYPE svg PUBLIC "-//W3C//DTD SVG 20010904//EN"
 "http://www.w3.org/TR/2001/REC-SVG-20010904/DTD/svg10.dtd">
<svg version="1.0" xmlns="http://www.w3.org/2000/svg"
 width="48.000000pt" height="48.000000pt" viewBox="0 0 48.000000 48.000000"
 preserveAspectRatio="xMidYMid meet">
<metadata>
Created by potrace 1.16, written by Peter Selinger 2001-2019
</metadata>
<g transform="translate(0.000000,48.000000) scale(0.100000,-0.100000)"
fill="currentColor" stroke="currentColor" stroke-width="6" stroke-linejoin="round">
<path d="M181 365 c-24 -36 -46 -65 -50 -65 -4 0 -28 16 -54 36 -25 20 -51 33
-56 29 -14 -8 -14 -50 1 -152 l11 -83 207 0 207 0 11 83 c15 101 15 144 2 152
-6 4 -33 -10 -61 -31 l-51 -37 -19 24 c-11 13 -32 43 -47 66 -15 24 -34 43
-42 43 -8 0 -35 -30 -59 -65z m107 -20 c23 -36 49 -65 58 -65 9 0 33 14 54 30
21 17 41 30 45 30 7 0 1 -88 -12 -157 l-5 -33 -188 0 -188 0 -5 33 c-14 74
-19 157 -11 157 5 -1 25 -14 44 -30 19 -17 42 -30 52 -30 11 0 34 25 60 65 24
35 45 65 48 65 3 0 24 -30 48 -65z M40 60 c0 -6 73 -10 200 -10 127 0 200 4
200 10 0 6 -73 10 -200 10 -127 0 -200 -4 -200 -10z"/>
</g>
</svg>

