<?xml version="1.0" standalone="no"?>
<!DOCTYPE svg PUBLIC "-//W3C//DTD SVG 20010904//EN"
 "http://www.w3.org/TR/2001/REC-SVG-20010904/DTD/svg10.dtd">
<svg version="1.0" xmlns="http://www.w3.org/2000/svg"
 width="48.000000pt" height="48.000000pt" viewBox="0 0 48.000000 48.000000"
 preserveAspectRatio="xMidYMid meet">
<metadata>
Created by potrace 1.16, written by Peter Selinger 2001-2019
</metadata>
<g transform="translate(0.000000,48.000000) scale(0.100000,-0.100000)"
fill="currentColor" stroke="currentColor" stroke-width="6" stroke-linejoin="round">
<path d="M191 469 c-245 -47 -243 -412 2 -458 168 -31 307 108 276 275 -17 88
-90 167 -168 180 -20 3 -43 7 -51 9 -8 1 -35 -1 -59 -6z m170 -54 c64 -45 91
-104 87 -187 -4 -82 -39 -139 -108 -176 -38 -20 -56 -23 -112 -20 -82 4 -139
39 -176 108 -20 38 -23 56 -20 112 4 82 39 139 108 176 38 20 56 23 112 20 55
-3 75 -9 109 -33z M297 324 c-11 -11 -8 -164 3 -164 6 0 10 11 10 25 0 18 7
28 25 35 13 5 27 20 31 34 6 25 -10 66 -26 66 -4 0 -15 2 -22 5 -8 3 -17 2
-21 -1z m48 -54 c0 -16 -6 -26 -17 -28 -14 -3 -18 3 -18 28 0 25 4 31 18 28
11 -2 17 -12 17 -28z M110 275 c0 -50 23 -115 40 -115 6 0 18 16 26 35 16 39
19 125 4 125 -5 0 -10 -21 -10 -47 0 -57 -14 -87 -30 -63 -5 8 -10 36 -10 63
0 26 -4 47 -10 47 -5 0 -10 -20 -10 -45z M230 240 c0 -47 4 -80 10 -80 6 0 10
33 10 80 0 47 -4 80 -10 80 -6 0 -10 -33 -10 -80z"/>
</g>
</svg>

