<?xml version="1.0" standalone="no"?>
<!DOCTYPE svg PUBLIC "-//W3C//DTD SVG 20010904//EN"
 "http://www.w3.org/TR/2001/REC-SVG-20010904/DTD/svg10.dtd">
<svg version="1.0" xmlns="http://www.w3.org/2000/svg"
 width="48.000000pt" height="48.000000pt" viewBox="0 0 48.000000 48.000000"
 preserveAspectRatio="xMidYMid meet">
<metadata>
Created by potrace 1.16, written by Peter Selinger 2001-2019
</metadata>
<g transform="translate(0.000000,48.000000) scale(0.100000,-0.100000)"
fill="currentColor" stroke="currentColor" stroke-width="6" stroke-linejoin="round">
<path d="M66 448 c-17 -24 -21 -48 -8 -48 4 0 12 10 17 23 13 29 64 36 82 11
7 -10 13 -45 13 -81 0 -35 4 -63 10 -63 6 0 10 29 10 68 0 75 9 92 52 92 21 0
32 -7 40 -25 6 -14 15 -25 20 -25 13 0 9 24 -8 48 -17 25 -81 31 -102 10 -9
-9 -15 -9 -24 0 -21 21 -85 15 -102 -10z M417 432 c-10 -10 -17 -24 -17 -30 0
-7 -15 -18 -32 -25 -18 -8 -40 -22 -48 -32 -13 -15 -12 -19 5 -31 10 -8 30
-14 43 -14 19 0 23 -5 20 -22 -3 -22 -7 -23 -158 -28 -184 -6 -220 -18 -220
-74 0 -75 92 -156 186 -164 41 -3 55 -2 50 7 -4 6 -21 11 -37 11 -42 0 -99 26
-136 62 -48 46 -43 58 20 58 45 0 63 -6 113 -38 32 -21 65 -46 73 -56 45 -55
173 -64 143 -10 -8 14 -5 24 13 46 13 15 28 50 34 78 12 54 15 220 5 258 -8
27 -35 29 -57 4z m22 -294 c-6 -15 -18 -33 -26 -40 -12 -10 -18 -8 -33 12 -30
40 -35 14 -6 -30 14 -22 26 -42 26 -45 0 -3 -14 -5 -31 -5 -22 0 -41 10 -64
33 -68 68 -169 117 -242 117 -43 0 -42 17 2 36 24 10 75 14 173 14 151 0 177
7 170 51 -2 16 -14 29 -36 40 -27 12 -31 18 -20 26 7 6 22 12 33 15 11 2 24
12 30 23 28 55 30 49 33 -85 2 -84 -2 -145 -9 -162z M230 175 c0 -8 7 -15 15
-15 8 0 15 7 15 15 0 8 -7 15 -15 15 -8 0 -15 -7 -15 -15z"/>
</g>
</svg>

