<?xml version="1.0" standalone="no"?>
<!DOCTYPE svg PUBLIC "-//W3C//DTD SVG 20010904//EN"
 "http://www.w3.org/TR/2001/REC-SVG-20010904/DTD/svg10.dtd">
<svg version="1.0" xmlns="http://www.w3.org/2000/svg"
 width="48.000000pt" height="48.000000pt" viewBox="0 0 48.000000 48.000000"
 preserveAspectRatio="xMidYMid meet">
<metadata>
Created by potrace 1.16, written by Peter Selinger 2001-2019
</metadata>
<g transform="translate(0.000000,48.000000) scale(0.100000,-0.100000)"
fill="currentColor" stroke="none">
<path d="M306 439 c-14 -17 -26 -38 -26 -47 0 -11 9 -5 28 18 34 41 47 29 38
-35 -6 -36 -12 -45 -38 -56 -25 -10 -33 -10 -36 0 -2 6 -18 31 -36 54 -35 46
-89 71 -175 83 -44 6 -51 4 -51 -10 0 -46 69 -139 138 -186 l48 -34 -32 -48
c-51 -75 -96 -212 -51 -156 6 9 36 21 65 28 100 23 221 130 247 218 5 17 12
21 26 17 10 -4 19 -2 19 3 0 12 -74 52 -96 52 -12 0 -14 7 -9 29 8 39 -4 101
-20 101 -7 0 -25 -14 -39 -31z m-156 -26 c46 -18 68 -40 92 -88 11 -22 22 -42
24 -44 1 -2 24 7 49 19 49 24 95 21 95 -6 0 -51 -82 -152 -157 -191 -57 -30
-123 -51 -123 -38 0 16 33 81 62 122 31 43 32 46 14 57 -74 44 -176 153 -176
189 0 11 74 -1 120 -20z"/>
</g>
</svg>

