<?xml version="1.0" standalone="no"?>
<!DOCTYPE svg PUBLIC "-//W3C//DTD SVG 20010904//EN"
 "http://www.w3.org/TR/2001/REC-SVG-20010904/DTD/svg10.dtd">
<svg version="1.0" xmlns="http://www.w3.org/2000/svg"
 width="48.000000pt" height="48.000000pt" viewBox="0 0 48.000000 48.000000"
 preserveAspectRatio="xMidYMid meet">
<metadata>
Created by potrace 1.16, written by Peter Selinger 2001-2019
</metadata>
<g transform="translate(0.000000,48.000000) scale(0.100000,-0.100000)"
fill="currentColor" stroke="none">
<path d="M11 376 c0 -70 3 -87 19 -101 17 -16 20 -32 20 -117 0 -85 3 -101 20
-118 22 -22 50 -26 66 -10 8 8 19 7 38 -1 22 -10 32 -10 48 0 15 9 23 10 31 2
17 -17 52 -13 70 7 12 13 17 37 17 81 l0 63 63 -3 62 -4 3 46 c4 66 -24 99
-84 99 -34 0 -44 4 -44 16 0 38 -33 84 -74 104 -35 16 -62 20 -149 20 l-106 0
0 -84z m218 58 c37 -8 78 -44 86 -77 5 -19 -2 -33 -34 -66 -23 -24 -41 -50
-41 -59 0 -24 30 -52 57 -52 23 0 24 -2 21 -61 -2 -47 -7 -65 -21 -73 -15 -9
-22 -7 -38 13 l-20 24 -15 -21 c-19 -28 -39 -28 -58 0 l-15 21 -20 -24 c-16
-20 -23 -22 -38 -13 -15 9 -18 27 -21 119 -2 95 -5 110 -22 122 -27 19 -27 63
0 63 26 0 26 12 0 28 -11 7 -20 23 -20 37 0 25 1 25 84 25 46 0 97 -3 115 -6z
m205 -156 c9 -12 16 -36 16 -53 l0 -30 -84 3 c-100 4 -122 18 -87 55 11 13 21
29 21 35 0 8 20 12 59 12 51 0 62 -3 75 -22z M142 384 c-43 -30 -34 -106 14
-124 29 -11 64 -5 64 11 0 6 -9 8 -20 4 -43 -14 -82 35 -60 76 12 22 32 22 98
3 45 -13 20 13 -27 28 -42 13 -53 14 -69 2z M174 329 c-10 -17 13 -36 27 -22
12 12 4 33 -11 33 -5 0 -12 -5 -16 -11z"/>
</g>
</svg>

