<?xml version="1.0" standalone="no"?>
<!DOCTYPE svg PUBLIC "-//W3C//DTD SVG 20010904//EN"
 "http://www.w3.org/TR/2001/REC-SVG-20010904/DTD/svg10.dtd">
<svg version="1.0" xmlns="http://www.w3.org/2000/svg"
 width="48.000000pt" height="48.000000pt" viewBox="0 0 48.000000 48.000000"
 preserveAspectRatio="xMidYMid meet">
<metadata>
Created by potrace 1.16, written by Peter Selinger 2001-2019
</metadata>
<g transform="translate(0.000000,48.000000) scale(0.100000,-0.100000)"
fill="currentColor" stroke="none">
<path d="M184 469 c-29 -3 -57 -10 -64 -14 -6 -4 -24 -2 -40 5 -15 6 -39 10
-52 8 -25 -5 -29 -3 46 -31 16 -6 51 -28 77 -49 57 -45 65 -37 14 12 -45 43
-35 50 75 50 110 0 120 -7 75 -50 -51 -49 -43 -57 14 -12 26 21 61 43 77 49
73 28 71 26 42 31 -15 2 -36 -2 -48 -8 -14 -8 -31 -8 -53 -1 -48 14 -106 18
-163 10z M23 348 c-13 -27 -17 -62 -17 -180 -1 -91 3 -149 9 -150 6 -2 11 24
13 60 l3 62 29 -15 c33 -17 60 -19 60 -5 0 6 -9 10 -20 10 -62 0 -94 104 -47
148 48 45 147 12 147 -48 0 -11 5 -20 10 -20 27 0 -2 72 -38 96 -31 21 -86 21
-117 0 -29 -19 -31 -10 -11 39 19 44 2 46 -21 3z M436 345 c20 -49 18 -58 -11
-39 -31 21 -86 21 -117 0 -36 -24 -65 -96 -38 -96 6 0 10 9 10 20 0 62 104 94
148 47 45 -48 12 -147 -48 -147 -11 0 -20 -4 -20 -10 0 -14 27 -12 60 5 l29
15 3 -60 c2 -33 8 -60 13 -60 6 0 10 56 9 148 0 118 -4 153 -17 180 -23 43
-40 41 -21 -3z M100 215 c0 -8 7 -15 15 -15 8 0 15 7 15 15 0 8 -7 15 -15 15
-8 0 -15 -7 -15 -15z M350 215 c0 -8 7 -15 15 -15 8 0 15 7 15 15 0 8 -7 15
-15 15 -8 0 -15 -7 -15 -15z M207 142 c-23 -26 -21 -46 8 -79 l25 -28 25 28
c30 33 32 58 7 80 -24 22 -45 21 -65 -1z m52 -16 c9 -11 10 -20 1 -35 -14 -27
-26 -27 -40 0 -11 20 1 49 20 49 4 0 13 -6 19 -14z"/>
</g>
</svg>

