<?xml version="1.0" standalone="no"?>
<!DOCTYPE svg PUBLIC "-//W3C//DTD SVG 20010904//EN"
 "http://www.w3.org/TR/2001/REC-SVG-20010904/DTD/svg10.dtd">
<svg version="1.0" xmlns="http://www.w3.org/2000/svg"
 width="48.000000pt" height="48.000000pt" viewBox="0 0 48.000000 48.000000"
 preserveAspectRatio="xMidYMid meet">
<metadata>
Created by potrace 1.16, written by Peter Selinger 2001-2019
</metadata>
<g transform="translate(0.000000,48.000000) scale(0.100000,-0.100000)"
fill="currentColor" stroke="currentColor" stroke-width="6" stroke-linejoin="round">
<path d="M335 432 c-36 -28 -63 -40 -96 -44 -35 -4 -70 -20 -137 -64 -50 -33
-89 -63 -88 -69 1 -5 19 -18 40 -29 37 -18 37 -18 20 -44 -9 -14 -28 -35 -43
-48 -14 -12 -23 -25 -19 -29 8 -9 86 61 93 85 3 10 17 21 30 24 41 10 28 21
-25 21 -76 0 -80 16 -16 58 31 21 58 37 61 37 3 0 5 -10 5 -23 0 -34 26 -64
65 -77 33 -11 35 -14 35 -54 0 -36 6 -48 40 -81 31 -31 40 -45 35 -62 -3 -13
-1 -23 4 -23 18 0 43 53 54 113 7 40 21 75 39 98 36 48 47 79 37 107 -9 24
-28 29 -46 11 -8 -8 -9 -1 -3 28 11 46 0 97 -21 100 -8 2 -36 -14 -64 -35z
m59 -80 c-19 -65 -19 -66 21 -42 l35 22 0 -28 c0 -16 -14 -45 -37 -72 -30 -37
-38 -55 -40 -96 -2 -27 -6 -53 -11 -58 -4 -4 -25 9 -46 28 -37 34 -38 37 -33
85 6 46 5 49 -16 49 -12 0 -37 9 -54 20 -27 16 -33 26 -33 55 0 40 20 55 75
55 27 0 50 10 88 40 l52 39 7 -25 c4 -14 0 -46 -8 -72z M232 316 c1 -10 8 -17
13 -17 15 1 12 24 -3 29 -9 3 -13 -2 -10 -12z"/>
</g>
</svg>

