<?xml version="1.0" standalone="no"?>
<!DOCTYPE svg PUBLIC "-//W3C//DTD SVG 20010904//EN"
 "http://www.w3.org/TR/2001/REC-SVG-20010904/DTD/svg10.dtd">
<svg version="1.0" xmlns="http://www.w3.org/2000/svg"
 width="48.000000pt" height="48.000000pt" viewBox="0 0 48.000000 48.000000"
 preserveAspectRatio="xMidYMid meet">
<metadata>
Created by potrace 1.16, written by Peter Selinger 2001-2019
</metadata>
<g transform="translate(0.000000,48.000000) scale(0.100000,-0.100000)"
fill="currentColor" stroke="none">
<path d="M205 451 c-9 -30 5 -51 35 -51 30 0 44 21 35 51 -4 13 -16 19 -35 19
-19 0 -31 -6 -35 -19z m55 -16 c0 -8 -9 -15 -20 -15 -11 0 -20 7 -20 15 0 8 9
15 20 15 11 0 20 -7 20 -15z M45 364 c-19 -20 -16 -43 8 -58 37 -23 77 35 41
61 -23 17 -29 16 -49 -3z m43 -27 c2 -10 -3 -17 -12 -17 -18 0 -29 16 -21 31
9 14 29 6 33 -14z M386 367 c-36 -26 4 -84 42 -61 23 15 26 38 7 58 -20 19
-26 20 -49 3z m39 -28 c0 -7 -8 -15 -17 -17 -18 -3 -25 18 -11 32 10 10 28 1
28 -15z M192 337 c-46 -48 -17 -117 48 -117 29 0 43 6 54 22 23 32 20 71 -7
96 -30 28 -68 28 -95 -1z m82 -13 c27 -26 19 -37 -21 -31 -45 8 -64 24 -43 37
22 14 47 12 64 -6z m-16 -51 c26 -5 30 -8 21 -19 -14 -17 -61 -18 -77 -2 -19
19 -15 41 6 33 9 -4 32 -9 50 -12z M195 201 c-12 -5 -27 -16 -34 -25 -11 -13
-11 -16 0 -16 8 0 23 7 33 15 11 8 32 15 46 15 14 0 35 -7 46 -15 31 -23 53
-19 28 6 -23 23 -88 34 -119 20z M40 165 c-14 -17 -5 -51 16 -59 22 -8 54 11
54 32 0 38 -46 56 -70 27z m50 -19 c0 -8 -5 -18 -11 -22 -14 -8 -33 11 -25 25
10 16 36 13 36 -3z M382 168 c-18 -18 -14 -46 7 -58 25 -13 48 -4 56 21 12 38
-35 65 -63 37z m43 -28 c0 -22 -29 -18 -33 3 -3 14 1 18 15 15 10 -2 18 -10
18 -18z M205 61 c-9 -30 5 -51 35 -51 30 0 44 21 35 51 -9 26 -61 26 -70 0z
m55 -16 c0 -8 -9 -15 -20 -15 -11 0 -20 7 -20 15 0 8 9 15 20 15 11 0 20 -7
20 -15z"/>
</g>
</svg>

