<?xml version="1.0" standalone="no"?>
<!DOCTYPE svg PUBLIC "-//W3C//DTD SVG 20010904//EN"
 "http://www.w3.org/TR/2001/REC-SVG-20010904/DTD/svg10.dtd">
<svg version="1.0" xmlns="http://www.w3.org/2000/svg"
 width="48.000000pt" height="48.000000pt" viewBox="0 0 48.000000 48.000000"
 preserveAspectRatio="xMidYMid meet">
<metadata>
Created by potrace 1.16, written by Peter Selinger 2001-2019
</metadata>
<g transform="translate(0.000000,48.000000) scale(0.100000,-0.100000)"
fill="currentColor" stroke="none">
<path d="M191 469 c-245 -47 -243 -412 2 -458 168 -31 307 108 276 275 -17 88
-90 167 -168 180 -20 3 -43 7 -51 9 -8 1 -35 -1 -59 -6z m150 -42 c67 -35 102
-93 107 -173 5 -69 -4 -89 -32 -78 -16 6 -16 8 0 25 36 40 -26 95 -64 57 -15
-15 -16 -55 -1 -64 8 -5 6 -10 -5 -16 -13 -7 -21 -6 -29 5 -7 8 -25 22 -42 31
-16 8 -25 15 -18 16 21 0 43 31 43 60 0 52 -69 79 -104 41 -25 -27 -18 -82 12
-97 l23 -11 -31 -13 c-17 -7 -34 -19 -39 -28 -6 -11 -13 -12 -26 -5 -12 7 -14
13 -6 17 15 9 14 49 -1 64 -38 38 -100 -17 -64 -57 16 -17 16 -19 0 -25 -28
-11 -37 9 -32 78 3 52 10 74 33 108 41 57 103 88 175 88 40 0 70 -7 101 -23z
m-71 -112 c7 -8 10 -25 6 -39 -11 -44 -76 -38 -76 7 0 43 44 63 70 32z m-153
-81 c3 -8 1 -20 -6 -27 -14 -14 -47 15 -37 32 10 16 36 13 43 -5z m289 5 c10
-17 -23 -46 -37 -32 -7 7 -9 19 -6 27 7 18 33 21 43 5z m-111 -64 c14 -13 25
-33 25 -45 0 -11 5 -20 10 -20 6 0 10 9 10 20 0 33 68 47 86 18 10 -16 -44
-75 -89 -97 -88 -43 -208 -18 -263 55 -27 35 -26 49 4 56 29 8 62 -9 62 -32 0
-11 5 -20 10 -20 6 0 10 9 10 20 0 32 44 70 80 70 19 0 40 -9 55 -25z"/>
</g>
</svg>

