<?xml version="1.0" standalone="no"?>
<!DOCTYPE svg PUBLIC "-//W3C//DTD SVG 20010904//EN"
 "http://www.w3.org/TR/2001/REC-SVG-20010904/DTD/svg10.dtd">
<svg version="1.0" xmlns="http://www.w3.org/2000/svg"
 width="48.000000pt" height="48.000000pt" viewBox="0 0 48.000000 48.000000"
 preserveAspectRatio="xMidYMid meet">
<metadata>
Created by potrace 1.16, written by Peter Selinger 2001-2019
</metadata>
<g transform="translate(0.000000,48.000000) scale(0.100000,-0.100000)"
fill="currentColor" stroke="none">
<path d="M295 470 c-75 -16 -110 -63 -111 -148 l-1 -64 -86 -86 c-53 -54 -87
-95 -87 -108 0 -25 30 -54 56 -54 10 0 57 39 106 87 l86 86 64 1 c105 2 154
56 149 166 -3 55 -17 58 -63 12 -49 -47 -62 -51 -78 -22 -9 17 -4 27 31 65 23
25 39 48 36 51 -11 12 -73 20 -102 14z m75 -28 c0 -4 -16 -23 -35 -42 -41 -40
-42 -46 -13 -77 30 -32 46 -29 90 14 l38 37 0 -42 c0 -89 -54 -138 -141 -130
l-47 5 -89 -89 c-87 -87 -108 -99 -131 -76 -23 23 -11 44 77 132 l88 88 -5 44
c-9 86 41 144 126 144 23 0 42 -4 42 -8z"/>
</g>
</svg>

