<?xml version="1.0" standalone="no"?>
<!DOCTYPE svg PUBLIC "-//W3C//DTD SVG 20010904//EN"
 "http://www.w3.org/TR/2001/REC-SVG-20010904/DTD/svg10.dtd">
<svg version="1.0" xmlns="http://www.w3.org/2000/svg"
 width="48.000000pt" height="48.000000pt" viewBox="0 0 48.000000 48.000000"
 preserveAspectRatio="xMidYMid meet">
<metadata>
Created by potrace 1.16, written by Peter Selinger 2001-2019
</metadata>
<g transform="translate(0.000000,48.000000) scale(0.100000,-0.100000)"
fill="currentColor" stroke="none">
<path d="M89 447 c-8 -14 -27 -47 -44 -73 -27 -44 -30 -57 -30 -134 0 -77 3
-90 30 -134 17 -26 36 -59 44 -73 9 -18 16 -22 24 -14 14 14 180 14 194 0 8
-8 15 -4 24 14 8 14 27 46 42 71 16 25 31 64 34 86 4 29 10 40 23 40 10 0 21
-7 24 -16 9 -23 26 -7 26 26 0 33 -17 49 -26 26 -3 -9 -14 -16 -24 -16 -13 0
-19 11 -23 40 -3 22 -18 61 -34 86 -15 25 -34 57 -42 71 -9 18 -16 22 -24 14
-14 -14 -180 -14 -194 0 -8 8 -15 4 -24 -14z m251 -54 c68 -87 68 -219 0 -305
-21 -27 -23 -28 -130 -28 -107 0 -109 1 -130 28 -68 86 -68 218 0 305 21 26
23 27 130 27 107 0 109 -1 130 -27z M133 360 c-87 -52 -83 -198 6 -245 98 -50
211 16 211 123 0 85 -56 142 -140 142 -27 0 -58 -8 -77 -20z m163 -34 c30 -30
34 -40 34 -86 0 -46 -4 -56 -34 -86 -30 -30 -40 -34 -86 -34 -46 0 -56 4 -86
34 -30 30 -34 40 -34 86 0 46 4 56 34 86 30 30 40 34 86 34 46 0 56 -4 86 -34z
M160 282 c0 -5 11 -19 25 -32 23 -22 25 -22 50 -6 38 25 34 48 -5 24 -15 -10
-22 -9 -38 5 -20 18 -32 22 -32 9z"/>
</g>
</svg>

