<?xml version="1.0" standalone="no"?>
<!DOCTYPE svg PUBLIC "-//W3C//DTD SVG 20010904//EN"
 "http://www.w3.org/TR/2001/REC-SVG-20010904/DTD/svg10.dtd">
<svg version="1.0" xmlns="http://www.w3.org/2000/svg"
 width="48.000000pt" height="48.000000pt" viewBox="0 0 48.000000 48.000000"
 preserveAspectRatio="xMidYMid meet">
<metadata>
Created by potrace 1.16, written by Peter Selinger 2001-2019
</metadata>
<g transform="translate(0.000000,48.000000) scale(0.100000,-0.100000)"
fill="currentColor" stroke="none">
<path d="M74 442 c-6 -4 -26 -29 -43 -56 -31 -50 -31 -50 -31 -191 0 -96 4
-145 12 -153 17 -17 439 -17 456 0 8 8 12 57 12 153 0 141 0 141 -31 191 -17
27 -37 52 -43 56 -6 4 -81 8 -166 8 -85 0 -160 -4 -166 -8z m71 -52 c-14 -27
-21 -30 -61 -30 l-45 0 18 30 c15 26 23 30 60 30 l44 0 -16 -30z m163 5 c7
-14 12 -28 12 -30 0 -3 -36 -5 -80 -5 -44 0 -80 2 -80 5 0 2 5 16 12 30 10 22
17 25 68 25 51 0 58 -3 68 -25z m115 -5 l18 -30 -45 0 c-40 0 -47 3 -61 30
l-16 30 44 0 c37 0 45 -4 60 -30z m-303 -85 c0 -23 -4 -25 -45 -25 -41 0 -45
2 -45 25 0 23 4 25 45 25 41 0 45 -2 45 -25z m210 -110 l0 -135 -90 0 -90 0 0
135 0 135 90 0 90 0 0 -135z m120 110 c0 -23 -4 -25 -45 -25 -41 0 -45 2 -45
25 0 23 4 25 45 25 41 0 45 -2 45 -25z m-330 -70 c0 -23 -4 -25 -45 -25 -41 0
-45 2 -45 25 0 23 4 25 45 25 41 0 45 -2 45 -25z m330 0 c0 -23 -4 -25 -45
-25 -41 0 -45 2 -45 25 0 23 4 25 45 25 41 0 45 -2 45 -25z m-330 -80 c0 -23
-4 -25 -45 -25 -41 0 -45 2 -45 25 0 23 4 25 45 25 41 0 45 -2 45 -25z m330 0
c0 -23 -4 -25 -45 -25 -41 0 -45 2 -45 25 0 23 4 25 45 25 41 0 45 -2 45 -25z
m-330 -70 c0 -23 -4 -25 -45 -25 -41 0 -45 2 -45 25 0 23 4 25 45 25 41 0 45
-2 45 -25z m330 0 c0 -23 -4 -25 -45 -25 -41 0 -45 2 -45 25 0 23 4 25 45 25
41 0 45 -2 45 -25z M230 275 c0 -8 -6 -15 -14 -15 -16 0 -31 -34 -21 -50 4 -6
22 -17 41 -25 42 -17 44 -35 5 -35 -38 0 -45 -12 -20 -33 24 -21 29 -21 29 -2
0 8 6 15 14 15 16 0 31 34 21 50 -4 6 -22 17 -41 25 -42 17 -44 35 -5 35 38 0
45 12 20 33 -24 21 -29 21 -29 2z"/>
</g>
</svg>

