<?xml version="1.0" standalone="no"?>
<!DOCTYPE svg PUBLIC "-//W3C//DTD SVG 20010904//EN"
 "http://www.w3.org/TR/2001/REC-SVG-20010904/DTD/svg10.dtd">
<svg version="1.0" xmlns="http://www.w3.org/2000/svg"
 width="48.000000pt" height="48.000000pt" viewBox="0 0 48.000000 48.000000"
 preserveAspectRatio="xMidYMid meet">
<metadata>
Created by potrace 1.16, written by Peter Selinger 2001-2019
</metadata>
<g transform="translate(0.000000,48.000000) scale(0.100000,-0.100000)"
fill="currentColor" stroke="none">
<path d="M20 390 c-22 -14 -22 -226 0 -240 20 -13 360 -13 380 0 12 7 15 32
15 120 0 88 -3 113 -15 120 -8 5 -94 10 -190 10 -96 0 -182 -5 -190 -10z m370
-120 l0 -110 -180 0 -180 0 0 110 0 110 180 0 180 0 0 -110z M70 325 c0 -8 7
-15 15 -15 8 0 15 7 15 15 0 8 -7 15 -15 15 -8 0 -15 -7 -15 -15z M162 317
c-28 -30 -28 -68 1 -95 30 -28 68 -28 95 1 28 30 28 68 -1 95 -30 28 -68 28
-95 -1z m80 -14 c22 -20 23 -41 1 -65 -20 -22 -41 -23 -65 -1 -22 20 -23 41
-1 65 20 22 41 23 65 1z M320 215 c0 -8 7 -15 15 -15 8 0 15 7 15 15 0 8 -7
15 -15 15 -8 0 -15 -7 -15 -15z M457 304 c-4 -4 -7 -52 -7 -106 l0 -98 -175 0
c-110 0 -175 -4 -175 -10 0 -13 339 -13 360 0 11 7 16 34 18 106 4 88 -4 125
-21 108z"/>
</g>
</svg>

