<?xml version="1.0" standalone="no"?>
<!DOCTYPE svg PUBLIC "-//W3C//DTD SVG 20010904//EN"
 "http://www.w3.org/TR/2001/REC-SVG-20010904/DTD/svg10.dtd">
<svg version="1.0" xmlns="http://www.w3.org/2000/svg"
 width="48.000000pt" height="48.000000pt" viewBox="0 0 48.000000 48.000000"
 preserveAspectRatio="xMidYMid meet">
<metadata>
Created by potrace 1.16, written by Peter Selinger 2001-2019
</metadata>
<g transform="translate(0.000000,48.000000) scale(0.100000,-0.100000)"
fill="currentColor" stroke="none">
<path d="M230 360 l0 -110 -110 0 c-67 0 -110 -4 -110 -10 0 -6 43 -10 110
-10 l110 0 0 -110 c0 -67 4 -110 10 -110 6 0 10 43 10 110 l0 110 110 0 c67 0
110 4 110 10 0 6 -43 10 -110 10 l-110 0 0 110 c0 67 -4 110 -10 110 -6 0 -10
-43 -10 -110z"/>
</g>
</svg>

