<?xml version="1.0" standalone="no"?>
<!DOCTYPE svg PUBLIC "-//W3C//DTD SVG 20010904//EN"
 "http://www.w3.org/TR/2001/REC-SVG-20010904/DTD/svg10.dtd">
<svg version="1.0" xmlns="http://www.w3.org/2000/svg"
 width="48.000000pt" height="48.000000pt" viewBox="0 0 48.000000 48.000000"
 preserveAspectRatio="xMidYMid meet">
<metadata>
Created by potrace 1.16, written by Peter Selinger 2001-2019
</metadata>
<g transform="translate(0.000000,48.000000) scale(0.100000,-0.100000)"
fill="currentColor" stroke="none">
<path d="M317 472 c-15 -2 -43 -19 -62 -37 -53 -53 -53 -127 0 -180 53 -53
127 -53 179 0 54 53 54 126 1 179 -33 33 -66 44 -118 38z m104 -51 c24 -24 29
-38 29 -76 0 -38 -5 -52 -29 -76 -42 -42 -110 -42 -152 0 -42 42 -42 110 0
152 24 24 38 29 76 29 38 0 52 -5 76 -29z M300 381 c0 -5 7 -14 15 -21 14 -12
14 -15 -1 -31 -22 -24 -10 -37 14 -16 17 15 19 15 35 0 9 -9 20 -14 24 -10 4
4 -1 15 -10 24 -15 16 -15 18 0 35 21 24 8 36 -16 14 -16 -15 -19 -15 -31 -1
-14 17 -30 20 -30 6z M106 401 c-16 -11 -37 -32 -47 -48 -15 -23 -34 -129 -42
-238 -2 -19 5 -20 172 -23 96 -1 178 1 183 6 11 11 -8 62 -22 62 -7 0 -9 -8
-5 -20 6 -19 2 -20 -154 -20 l-161 0 9 23 c5 12 12 56 15 98 9 89 29 129 80
153 20 9 36 19 36 21 0 12 -38 3 -64 -14z M150 35 c0 -20 39 -35 65 -25 21 8
34 40 16 40 -6 0 -11 -4 -11 -10 0 -5 -11 -10 -25 -10 -14 0 -25 5 -25 10 0 6
-4 10 -10 10 -5 0 -10 -7 -10 -15z"/>
</g>
</svg>

