<?xml version="1.0" standalone="no"?>
<!DOCTYPE svg PUBLIC "-//W3C//DTD SVG 20010904//EN"
 "http://www.w3.org/TR/2001/REC-SVG-20010904/DTD/svg10.dtd">
<svg version="1.0" xmlns="http://www.w3.org/2000/svg"
 width="48.000000pt" height="48.000000pt" viewBox="0 0 48.000000 48.000000"
 preserveAspectRatio="xMidYMid meet">
<metadata>
Created by potrace 1.16, written by Peter Selinger 2001-2019
</metadata>
<g transform="translate(0.000000,48.000000) scale(0.100000,-0.100000)"
fill="currentColor" stroke="none">
<path d="M59 421 c-22 -21 -39 -46 -39 -55 0 -25 13 -19 32 14 10 17 31 38 48
48 33 19 39 32 14 32 -9 0 -34 -17 -55 -39z M350 453 c0 -5 14 -16 30 -25 17
-10 38 -31 48 -48 19 -33 32 -39 32 -14 0 9 -17 34 -39 55 -35 35 -71 51 -71
32z M230 410 c0 -11 -6 -20 -14 -20 -23 0 -78 -51 -92 -87 -8 -18 -14 -51 -14
-73 0 -22 -7 -57 -15 -77 -8 -19 -15 -37 -15 -39 0 -2 72 -4 160 -4 88 0 160
2 160 4 0 2 -7 20 -15 39 -8 20 -15 55 -15 77 0 22 -6 55 -14 73 -14 36 -69
87 -92 87 -8 0 -14 9 -14 20 0 11 -4 20 -10 20 -5 0 -10 -9 -10 -20z m59 -55
c35 -17 61 -70 61 -122 0 -21 4 -53 9 -71 l10 -32 -129 0 -129 0 10 32 c5 18
9 50 9 71 0 102 80 163 159 122z M100 375 c-35 -37 -16 -43 22 -6 21 20 27 31
17 31 -9 0 -26 -11 -39 -25z M358 369 c18 -18 35 -29 39 -25 9 9 -37 56 -56
56 -10 0 -4 -11 17 -31z M200 56 c0 -36 53 -46 74 -14 15 25 -1 35 -19 12 -14
-18 -16 -18 -29 -1 -16 21 -26 22 -26 3z"/>
</g>
</svg>

