<?xml version="1.0" standalone="no"?>
<!DOCTYPE svg PUBLIC "-//W3C//DTD SVG 20010904//EN"
 "http://www.w3.org/TR/2001/REC-SVG-20010904/DTD/svg10.dtd">
<svg version="1.0" xmlns="http://www.w3.org/2000/svg"
 width="48.000000pt" height="48.000000pt" viewBox="0 0 48.000000 48.000000"
 preserveAspectRatio="xMidYMid meet">
<metadata>
Created by potrace 1.16, written by Peter Selinger 2001-2019
</metadata>
<g transform="translate(0.000000,48.000000) scale(0.100000,-0.100000)"
fill="currentColor" stroke="none">
<path d="M317 472 c-15 -2 -43 -19 -62 -37 -53 -53 -53 -127 0 -180 53 -53
127 -53 179 0 54 53 54 126 1 179 -33 33 -66 44 -118 38z m104 -51 c24 -24 29
-38 29 -76 0 -38 -5 -52 -29 -76 -42 -42 -110 -42 -152 0 -42 42 -42 110 0
152 24 24 38 29 76 29 38 0 52 -5 76 -29z M334 397 c-7 -20 -2 -47 11 -50 14
-3 19 43 6 56 -7 7 -12 6 -17 -6z M330 295 c0 -8 7 -15 15 -15 8 0 15 7 15 15
0 8 -7 15 -15 15 -8 0 -15 -7 -15 -15z M184 454 c-3 -11 -25 -29 -54 -42 -66
-31 -86 -66 -100 -182 -7 -52 -12 -104 -13 -115 -2 -19 5 -20 172 -23 103 -1
178 1 184 7 6 6 5 21 -3 40 -15 37 -33 41 -24 6 l6 -25 -161 0 -161 0 9 23 c4
12 11 56 15 97 11 110 37 147 117 168 36 9 50 35 30 55 -9 9 -13 6 -17 -9z
M150 35 c0 -18 40 -29 69 -20 21 6 30 35 11 35 -5 0 -10 -4 -10 -10 0 -5 -11
-10 -25 -10 -14 0 -25 5 -25 10 0 6 -4 10 -10 10 -5 0 -10 -7 -10 -15z"/>
</g>
</svg>

