<?xml version="1.0" standalone="no"?>
<!DOCTYPE svg PUBLIC "-//W3C//DTD SVG 20010904//EN"
 "http://www.w3.org/TR/2001/REC-SVG-20010904/DTD/svg10.dtd">
<svg version="1.0" xmlns="http://www.w3.org/2000/svg"
 width="48.000000pt" height="48.000000pt" viewBox="0 0 48.000000 48.000000"
 preserveAspectRatio="xMidYMid meet">
<metadata>
Created by potrace 1.16, written by Peter Selinger 2001-2019
</metadata>
<g transform="translate(0.000000,48.000000) scale(0.100000,-0.100000)"
fill="currentColor" stroke="none">
<path d="M22 458 c-17 -17 -17 -419 0 -436 17 -17 419 -17 436 0 17 17 17 419
0 436 -17 17 -419 17 -436 0z m423 -218 l0 -205 -205 0 -205 0 -3 195 c-1 107
0 200 3 207 3 11 48 13 207 11 l203 -3 0 -205z M95 310 c8 -13 282 -13 290 0
4 6 -47 10 -145 10 -98 0 -149 -4 -145 -10z M90 240 c0 -6 57 -10 150 -10 93
0 150 4 150 10 0 6 -57 10 -150 10 -93 0 -150 -4 -150 -10z M95 170 c-4 -6 47
-10 145 -10 98 0 149 4 145 10 -4 6 -63 10 -145 10 -82 0 -141 -4 -145 -10z"/>
</g>
</svg>

