<?xml version="1.0" standalone="no"?>
<!DOCTYPE svg PUBLIC "-//W3C//DTD SVG 20010904//EN"
 "http://www.w3.org/TR/2001/REC-SVG-20010904/DTD/svg10.dtd">
<svg version="1.0" xmlns="http://www.w3.org/2000/svg"
 width="48.000000pt" height="48.000000pt" viewBox="0 0 48.000000 48.000000"
 preserveAspectRatio="xMidYMid meet">
<metadata>
Created by potrace 1.16, written by Peter Selinger 2001-2019
</metadata>
<g transform="translate(0.000000,48.000000) scale(0.100000,-0.100000)"
fill="currentColor" stroke="none">
<path d="M20 455 c-18 -22 -14 -88 9 -140 15 -34 19 -58 15 -89 -11 -79 41
-172 113 -202 42 -18 124 -18 166 0 72 30 124 123 113 202 -4 31 0 55 15 89
23 52 27 118 9 140 -24 29 -70 18 -115 -27 -41 -41 -45 -43 -105 -43 -60 0
-64 2 -105 43 -45 45 -91 56 -115 27z m86 -23 c29 -23 64 -77 64 -96 0 -9 5
-16 10 -16 6 0 10 11 10 25 0 18 5 25 20 25 16 0 20 -7 20 -35 0 -19 5 -35 10
-35 6 0 10 16 10 35 0 28 4 35 20 35 15 0 20 -7 20 -25 0 -14 5 -25 10 -25 6
0 10 7 10 15 0 23 48 90 74 104 13 7 32 11 42 9 29 -5 31 -78 4 -133 -12 -24
-21 -48 -20 -52 1 -4 -9 -11 -22 -14 -23 -6 -23 -6 5 -17 19 -8 27 -19 27 -37
0 -23 -3 -25 -27 -19 l-28 7 22 -25 23 -24 -23 -31 c-69 -98 -225 -98 -295 0
l-23 32 22 18 c26 21 19 33 -11 17 -20 -11 -21 -9 -18 22 2 25 8 34 26 36 28
4 29 22 0 22 -12 0 -19 3 -15 6 3 3 -5 26 -19 51 -23 44 -33 121 -17 136 12
13 48 7 69 -11z M152 249 c2 -6 8 -10 13 -10 5 0 11 4 13 10 2 6 -4 11 -13 11
-9 0 -15 -5 -13 -11z M302 249 c2 -6 8 -10 13 -10 5 0 11 4 13 10 2 6 -4 11
-13 11 -9 0 -15 -5 -13 -11z M225 240 c-3 -6 1 -13 10 -16 19 -8 30 0 20 15
-8 14 -22 14 -30 1z M215 160 c-22 -25 -34 -25 -51 -3 -14 21 -27 13 -18 -10
9 -25 42 -31 69 -13 23 15 27 15 50 0 27 -18 60 -12 69 13 9 23 -4 31 -15 10
-13 -23 -32 -22 -54 3 -10 11 -21 20 -25 20 -4 0 -15 -9 -25 -20z"/>
</g>
</svg>

