<?xml version="1.0" standalone="no"?>
<!DOCTYPE svg PUBLIC "-//W3C//DTD SVG 20010904//EN"
 "http://www.w3.org/TR/2001/REC-SVG-20010904/DTD/svg10.dtd">
<svg version="1.0" xmlns="http://www.w3.org/2000/svg"
 width="48.000000pt" height="48.000000pt" viewBox="0 0 48.000000 48.000000"
 preserveAspectRatio="xMidYMid meet">
<metadata>
Created by potrace 1.16, written by Peter Selinger 2001-2019
</metadata>
<g transform="translate(0.000000,48.000000) scale(0.100000,-0.100000)"
fill="currentColor" stroke="none">
<path d="M6 463 c-3 -3 -6 -104 -6 -223 0 -173 3 -220 14 -229 18 -15 451 -11
451 4 0 6 -81 11 -217 13 -209 2 -218 3 -218 22 0 25 55 54 97 51 17 -1 34 3
38 9 8 13 82 13 90 0 13 -20 55 -11 65 15 11 30 64 59 95 51 36 -9 55 3 55 34
0 19 -6 31 -19 35 -23 7 -51 -3 -51 -20 0 -21 -72 -58 -107 -56 -17 1 -34 -3
-38 -9 -8 -13 -82 -13 -90 0 -12 19 -57 11 -62 -10 -5 -18 -49 -50 -68 -50 -3
0 -5 35 -5 78 l0 77 43 24 c82 48 175 43 192 -9 9 -28 61 -28 70 0 3 11 4 24
1 29 -3 5 10 28 29 52 25 32 43 45 67 49 29 4 33 9 33 35 0 27 -3 30 -30 30
-22 0 -31 -5 -33 -20 -7 -37 -82 -124 -110 -127 -42 -5 -82 12 -93 39 -7 19
-15 24 -37 21 -18 -2 -28 -10 -30 -23 -2 -17 -78 -75 -97 -75 -3 0 -5 40 -5
89 0 83 -7 111 -24 94z m444 -28 c0 -8 -7 -15 -15 -15 -8 0 -15 7 -15 15 0 8
7 15 15 15 8 0 15 -7 15 -15z m-270 -90 c0 -8 -7 -15 -15 -15 -8 0 -15 7 -15
15 0 8 7 15 15 15 8 0 15 -7 15 -15z m140 -60 c0 -8 -9 -15 -20 -15 -11 0 -20
7 -20 15 0 8 9 15 20 15 11 0 20 -7 20 -15z m130 -75 c0 -11 -7 -20 -15 -20
-8 0 -15 9 -15 20 0 11 7 20 15 20 8 0 15 -9 15 -20z m-300 -75 c0 -8 -7 -15
-15 -15 -8 0 -15 7 -15 15 0 8 7 15 15 15 8 0 15 -7 15 -15z m150 0 c0 -8 -7
-15 -15 -15 -8 0 -15 7 -15 15 0 8 7 15 15 15 8 0 15 -7 15 -15z"/>
</g>
</svg>

