<?xml version="1.0" standalone="no"?>
<!DOCTYPE svg PUBLIC "-//W3C//DTD SVG 20010904//EN"
 "http://www.w3.org/TR/2001/REC-SVG-20010904/DTD/svg10.dtd">
<svg version="1.0" xmlns="http://www.w3.org/2000/svg"
 width="48.000000pt" height="48.000000pt" viewBox="0 0 48.000000 48.000000"
 preserveAspectRatio="xMidYMid meet">
<metadata>
Created by potrace 1.16, written by Peter Selinger 2001-2019
</metadata>
<g transform="translate(0.000000,48.000000) scale(0.100000,-0.100000)"
fill="currentColor" stroke="none">
<path d="M191 451 c-10 -10 -30 -21 -44 -25 -40 -10 -63 -51 -50 -86 6 -16 7
-34 2 -41 -16 -26 -9 -51 21 -79 l31 -29 -12 -86 c-7 -47 -9 -88 -6 -92 4 -3
29 6 57 21 l50 27 50 -27 c28 -15 53 -24 57 -21 3 4 1 45 -6 92 l-12 86 31 29
c30 28 37 53 21 79 -5 7 -4 25 2 41 13 35 -10 76 -50 86 -14 4 -34 15 -44 25
-11 11 -32 19 -49 19 -16 0 -38 -8 -49 -19z m89 -21 c6 -12 21 -20 35 -20 35
0 61 -41 45 -71 -9 -16 -9 -28 -1 -46 15 -33 -9 -73 -44 -73 -14 0 -29 -8 -35
-20 -14 -27 -65 -27 -82 0 -7 11 -23 20 -35 20 -33 0 -57 41 -42 73 8 18 8 30
-1 46 -15 29 10 71 43 71 12 0 28 9 35 20 8 13 23 20 42 20 19 0 33 -7 40 -20z
m-40 -270 c14 0 35 7 46 15 21 14 22 12 33 -57 6 -39 10 -72 8 -74 -2 -2 -22
6 -45 18 l-42 23 -42 -23 c-23 -12 -43 -20 -45 -18 -2 2 2 35 8 74 11 69 12
71 33 57 11 -8 32 -15 46 -15z M206 357 c-24 -17 -24 -67 0 -84 38 -28 87 -5
87 42 0 30 -25 55 -53 55 -9 0 -24 -6 -34 -13z m59 -42 c0 -25 -4 -30 -25 -30
-16 0 -26 6 -28 18 -6 30 6 49 30 45 18 -2 23 -9 23 -33z"/>
</g>
</svg>

