<?xml version="1.0" standalone="no"?>
<!DOCTYPE svg PUBLIC "-//W3C//DTD SVG 20010904//EN"
 "http://www.w3.org/TR/2001/REC-SVG-20010904/DTD/svg10.dtd">
<svg version="1.0" xmlns="http://www.w3.org/2000/svg"
 width="48.000000pt" height="48.000000pt" viewBox="0 0 48.000000 48.000000"
 preserveAspectRatio="xMidYMid meet">
<metadata>
Created by potrace 1.16, written by Peter Selinger 2001-2019
</metadata>
<g transform="translate(0.000000,48.000000) scale(0.100000,-0.100000)"
fill="currentColor" stroke="none">
<path d="M430 460 c-8 -5 -46 -10 -83 -10 -75 0 -87 -5 -164 -63 -83 -62 -66
-105 28 -74 46 14 49 14 49 -3 0 -10 7 -23 15 -30 12 -10 22 -8 50 9 20 12 46
21 58 21 26 0 87 35 87 50 0 15 -16 12 -30 -5 -7 -8 -28 -17 -49 -21 -20 -4
-50 -15 -68 -26 -44 -27 -53 -5 -14 36 36 37 41 54 9 34 -33 -21 -157 -63
-164 -55 -10 10 4 24 67 66 57 38 66 41 133 41 43 1 78 6 89 14 29 22 18 36
-13 16z M210 230 c0 -16 5 -21 23 -18 12 2 22 10 22 18 0 8 -10 16 -22 18 -18
3 -23 -2 -23 -18z M300 225 c-15 -19 -6 -61 16 -69 22 -8 64 20 64 42 0 39
-55 57 -80 27z m56 -16 c3 -6 0 -17 -7 -25 -18 -17 -44 -2 -36 20 7 18 33 21
43 5z M23 203 c-27 -10 -11 -18 40 -18 41 0 63 -6 93 -26 21 -15 51 -30 67
-33 26 -6 35 -20 19 -30 -5 -3 -33 1 -62 9 -50 13 -71 13 -58 -1 3 -3 32 -12
63 -20 42 -11 60 -12 70 -4 20 17 110 9 110 -10 0 -9 -20 -18 -60 -27 -89 -18
-111 -16 -182 18 -62 30 -113 34 -113 9 0 -6 10 -8 23 -5 14 4 42 -3 74 -19
71 -36 102 -40 180 -26 83 15 103 25 103 50 0 25 -29 40 -78 40 -25 0 -42 5
-45 14 -3 8 -21 17 -39 21 -18 4 -40 13 -48 21 -38 33 -120 53 -157 37z"/>
</g>
</svg>

