<?xml version="1.0" standalone="no"?>
<!DOCTYPE svg PUBLIC "-//W3C//DTD SVG 20010904//EN"
 "http://www.w3.org/TR/2001/REC-SVG-20010904/DTD/svg10.dtd">
<svg version="1.0" xmlns="http://www.w3.org/2000/svg"
 width="48.000000pt" height="48.000000pt" viewBox="0 0 48.000000 48.000000"
 preserveAspectRatio="xMidYMid meet">
<metadata>
Created by potrace 1.16, written by Peter Selinger 2001-2019
</metadata>
<g transform="translate(0.000000,48.000000) scale(0.100000,-0.100000)"
fill="currentColor" stroke="none">
<path d="M203 454 c-3 -8 -12 -13 -21 -9 -25 9 -62 -22 -62 -54 0 -20 -6 -30
-19 -34 -34 -9 -54 -52 -47 -101 8 -49 57 -126 87 -133 24 -7 25 -41 2 -59
-17 -13 -17 -13 0 -14 10 0 17 -8 17 -20 0 -11 5 -20 10 -20 6 0 10 9 10 20 0
27 41 27 58 0 16 -26 54 -26 77 0 24 27 65 27 65 0 0 -11 5 -20 10 -20 6 0 10
9 10 19 0 11 6 22 13 25 10 5 10 7 0 12 -18 8 -16 66 2 100 10 20 15 59 15
120 0 94 -8 114 -43 114 -11 0 -30 12 -43 26 -16 17 -30 23 -43 19 -12 -3 -21
0 -25 10 -7 20 -65 20 -73 -1z m59 -51 c3 -51 21 -62 26 -16 2 15 8 32 12 37
15 15 40 -14 40 -45 0 -16 5 -29 10 -29 6 0 10 7 10 16 0 10 7 14 23 12 21 -3
22 -8 25 -92 2 -66 -1 -94 -13 -112 -8 -13 -15 -41 -15 -64 0 -38 -2 -40 -30
-40 -16 0 -30 4 -30 10 0 5 -10 14 -21 21 -18 9 -27 7 -50 -10 -41 -30 -69
-28 -69 7 -1 19 -10 33 -33 47 -35 22 -77 95 -77 134 0 24 25 61 42 61 4 0 8
-16 8 -35 0 -19 5 -35 10 -35 6 0 10 30 10 69 0 48 4 72 15 81 21 17 35 3 35
-36 0 -19 5 -34 10 -34 6 0 10 20 10 43 0 48 5 57 31 57 14 0 19 -10 21 -47z
m37 -327 c17 -20 2 -48 -23 -44 -24 3 -34 37 -14 49 18 12 24 11 37 -5z"/>
</g>
</svg>

