<?xml version="1.0" standalone="no"?>
<!DOCTYPE svg PUBLIC "-//W3C//DTD SVG 20010904//EN"
 "http://www.w3.org/TR/2001/REC-SVG-20010904/DTD/svg10.dtd">
<svg version="1.0" xmlns="http://www.w3.org/2000/svg"
 width="48.000000pt" height="48.000000pt" viewBox="0 0 48.000000 48.000000"
 preserveAspectRatio="xMidYMid meet">
<metadata>
Created by potrace 1.16, written by Peter Selinger 2001-2019
</metadata>
<g transform="translate(0.000000,48.000000) scale(0.100000,-0.100000)"
fill="currentColor" stroke="none">
<path d="M44 432 c-46 -30 -34 -92 26 -126 38 -23 129 -28 152 -9 11 9 24 8
58 -4 38 -13 52 -14 89 -3 61 16 105 62 96 98 -9 36 -23 52 -47 52 -15 0 -18
-5 -13 -19 9 -29 -12 -35 -72 -20 -43 10 -59 10 -74 1 -15 -9 -23 -9 -38 0
-15 9 -31 9 -74 -1 -60 -15 -81 -9 -72 20 7 20 -10 26 -31 11z m53 -62 c15 0
42 5 60 12 41 15 68 2 68 -33 0 -33 -43 -53 -97 -44 -52 9 -99 52 -91 84 l6
22 14 -21 c8 -11 25 -20 40 -20z m326 -30 c-59 -53 -168 -47 -168 9 0 35 27
48 68 33 50 -18 85 -15 99 8 13 20 13 20 23 -1 7 -18 4 -26 -22 -49z M80 259
c-94 -38 -91 -117 4 -107 l44 5 12 -42 c7 -24 21 -57 31 -74 17 -28 23 -31 69
-31 46 0 52 3 69 31 10 17 24 50 31 74 l12 42 44 -5 c70 -8 98 32 52 76 -27
24 -78 46 -87 36 -3 -4 -1 -9 6 -11 29 -11 78 -50 78 -63 0 -16 -56 -20 -87
-6 -13 6 -19 1 -25 -25 l-9 -32 -84 0 -84 0 -9 32 c-6 26 -12 31 -25 25 -32
-13 -80 -16 -87 -4 -9 15 19 45 56 60 16 7 29 16 29 21 0 11 -8 11 -40 -2z
m225 -159 c3 -5 -1 -23 -10 -40 -13 -26 -21 -30 -55 -30 -34 0 -42 4 -55 30
-9 17 -13 35 -10 40 3 6 33 10 65 10 32 0 62 -4 65 -10z M210 70 c0 -5 5 -10
10 -10 6 0 10 5 10 10 0 6 -4 10 -10 10 -5 0 -10 -4 -10 -10z M250 70 c0 -5 5
-10 10 -10 6 0 10 5 10 10 0 6 -4 10 -10 10 -5 0 -10 -4 -10 -10z M170 215 c0
-8 7 -15 15 -15 8 0 15 7 15 15 0 8 -7 15 -15 15 -8 0 -15 -7 -15 -15z M280
215 c0 -8 7 -15 15 -15 8 0 15 7 15 15 0 8 -7 15 -15 15 -8 0 -15 -7 -15 -15z"/>
</g>
</svg>

