<?xml version="1.0" standalone="no"?>
<!DOCTYPE svg PUBLIC "-//W3C//DTD SVG 20010904//EN"
 "http://www.w3.org/TR/2001/REC-SVG-20010904/DTD/svg10.dtd">
<svg version="1.0" xmlns="http://www.w3.org/2000/svg"
 width="48.000000pt" height="48.000000pt" viewBox="0 0 48.000000 48.000000"
 preserveAspectRatio="xMidYMid meet">
<metadata>
Created by potrace 1.16, written by Peter Selinger 2001-2019
</metadata>
<g transform="translate(0.000000,48.000000) scale(0.100000,-0.100000)"
fill="currentColor" stroke="none">
<path d="M230 425 c-74 -24 -140 -51 -146 -60 -6 -8 -9 -25 -7 -38 4 -18 -2
-24 -29 -32 l-33 -10 -3 -124 c-2 -82 1 -128 9 -137 9 -11 46 -14 165 -14 141
0 154 2 164 19 5 11 10 29 10 41 0 12 7 28 15 36 8 9 15 28 15 44 0 16 -7 35
-15 44 -27 26 -17 43 38 62 64 23 68 39 34 139 -22 64 -26 70 -53 72 -16 1
-90 -18 -164 -42z m201 -45 c11 -39 19 -76 16 -83 -3 -7 -23 -19 -46 -25 -36
-11 -42 -11 -61 8 -18 18 -33 20 -125 20 -100 0 -106 1 -114 23 -5 12 -5 26 0
31 11 13 257 94 286 95 19 1 25 -9 44 -69z m-351 -226 c0 -124 0 -125 -22
-122 -22 3 -23 7 -26 117 -2 85 1 117 10 123 34 21 38 10 38 -118z m248 114
c7 -7 12 -22 12 -35 0 -20 -5 -23 -35 -23 -60 0 -96 -57 -59 -94 8 -9 31 -16
49 -16 39 0 49 -11 41 -46 -6 -24 -8 -24 -121 -24 l-115 0 0 125 0 125 108 0
c71 0 112 -4 120 -12z m40 -115 l3 -33 -55 0 c-47 0 -56 3 -62 22 -9 30 21 50
71 46 37 -3 40 -5 43 -35z M253 353 c-7 -2 -13 -12 -13 -20 0 -13 3 -13 15 -3
12 10 18 10 30 0 9 -7 19 -10 23 -6 4 4 -2 14 -12 22 -21 15 -24 15 -43 7z
M312 154 c4 -21 22 -23 26 -1 2 10 -3 17 -13 17 -10 0 -15 -6 -13 -16z"/>
</g>
</svg>

