<?xml version="1.0" standalone="no"?>
<!DOCTYPE svg PUBLIC "-//W3C//DTD SVG 20010904//EN"
 "http://www.w3.org/TR/2001/REC-SVG-20010904/DTD/svg10.dtd">
<svg version="1.0" xmlns="http://www.w3.org/2000/svg"
 width="48.000000pt" height="48.000000pt" viewBox="0 0 48.000000 48.000000"
 preserveAspectRatio="xMidYMid meet">
<metadata>
Created by potrace 1.16, written by Peter Selinger 2001-2019
</metadata>
<g transform="translate(0.000000,48.000000) scale(0.100000,-0.100000)"
fill="currentColor" stroke="none">
<path d="M67 463 c-3 -5 -8 -23 -12 -40 -3 -18 -13 -33 -20 -33 -22 0 -35 -34
-35 -87 0 -80 7 -84 140 -81 112 3 115 4 118 26 2 13 12 32 21 41 25 25 38
129 19 146 -24 22 -221 46 -231 28z m153 -26 l65 -13 -3 -49 c-3 -71 -15 -89
-21 -35 l-6 45 -92 3 c-51 1 -93 6 -93 10 0 4 3 17 6 30 7 26 41 28 144 9z
m20 -132 l0 -65 -105 0 -105 0 0 65 0 65 105 0 105 0 0 -65z M117 314 c-9 -10
2 -24 19 -24 8 0 14 7 14 15 0 15 -21 21 -33 9z M322 254 c-26 -18 -30 -65 -6
-88 20 -20 68 -20 88 0 35 35 6 104 -44 104 -9 0 -26 -7 -38 -16z m68 -19 c7
-9 10 -25 6 -40 -6 -22 -11 -26 -39 -23 -25 2 -33 8 -35 26 -7 44 41 70 68 37z
M314 121 c-30 -13 -64 -60 -64 -88 0 -14 4 -21 10 -18 6 3 10 15 10 25 0 26
56 70 90 70 34 0 90 -44 90 -70 0 -10 5 -22 10 -25 22 -14 8 47 -17 75 -30 34
-89 48 -129 31z"/>
</g>
</svg>

