<?xml version="1.0" standalone="no"?>
<!DOCTYPE svg PUBLIC "-//W3C//DTD SVG 20010904//EN"
 "http://www.w3.org/TR/2001/REC-SVG-20010904/DTD/svg10.dtd">
<svg version="1.0" xmlns="http://www.w3.org/2000/svg"
 width="48.000000pt" height="48.000000pt" viewBox="0 0 48.000000 48.000000"
 preserveAspectRatio="xMidYMid meet">
<metadata>
Created by potrace 1.16, written by Peter Selinger 2001-2019
</metadata>
<g transform="translate(0.000000,48.000000) scale(0.100000,-0.100000)"
fill="currentColor" stroke="none">
<path d="M39 439 c-19 -19 -21 -30 -17 -123 3 -89 7 -107 33 -155 34 -61 82
-104 142 -127 40 -15 46 -15 86 0 60 23 108 66 142 127 26 48 30 66 33 155 6
148 12 144 -218 144 -170 0 -181 -1 -201 -21z m389 -11 c18 -18 15 -165 -4
-220 -21 -64 -74 -121 -135 -147 l-51 -22 -57 28 c-62 31 -114 91 -131 151
-14 52 -13 195 2 210 17 17 359 17 376 0z M230 367 c0 -7 -9 -18 -21 -25 -15
-10 -19 -21 -17 -45 2 -26 10 -35 41 -50 30 -14 38 -23 35 -40 -4 -31 -37 -34
-59 -6 l-19 24 0 -22 c0 -13 9 -28 20 -35 11 -7 20 -18 20 -25 0 -7 5 -13 10
-13 6 0 10 6 10 13 0 7 9 18 21 25 15 10 19 21 17 45 -2 26 -10 35 -41 50 -30
14 -38 23 -35 40 4 31 37 34 59 6 l19 -24 0 22 c0 13 -9 28 -20 35 -11 7 -20
18 -20 25 0 7 -4 13 -10 13 -5 0 -10 -6 -10 -13z"/>
</g>
</svg>

