<?xml version="1.0" standalone="no"?>
<!DOCTYPE svg PUBLIC "-//W3C//DTD SVG 20010904//EN"
 "http://www.w3.org/TR/2001/REC-SVG-20010904/DTD/svg10.dtd">
<svg version="1.0" xmlns="http://www.w3.org/2000/svg"
 width="48.000000pt" height="48.000000pt" viewBox="0 0 48.000000 48.000000"
 preserveAspectRatio="xMidYMid meet">
<metadata>
Created by potrace 1.16, written by Peter Selinger 2001-2019
</metadata>
<g transform="translate(0.000000,48.000000) scale(0.100000,-0.100000)"
fill="currentColor" stroke="none">
<path d="M188 443 c-10 -2 -23 -22 -29 -43 -11 -37 -13 -38 -66 -42 -32 -3
-59 -11 -64 -19 -5 -8 -9 -76 -9 -152 l0 -137 27 -11 c17 -6 101 -9 211 -7
149 2 185 6 192 18 5 8 10 77 10 153 l0 137 -26 10 c-14 6 -42 10 -63 10 -35
0 -39 3 -49 39 -8 26 -19 41 -35 45 -24 6 -73 6 -99 -1z m112 -42 c19 -36 12
-41 -60 -41 -72 0 -79 5 -60 41 8 15 21 19 60 19 39 0 52 -4 60 -19z m140
-206 l0 -135 -200 0 -200 0 0 135 0 135 200 0 200 0 0 -135z M213 267 c-37
-36 -30 -64 17 -78 28 -9 40 -17 38 -28 -5 -23 -36 -26 -59 -5 -16 14 -19 14
-19 2 0 -8 11 -24 25 -36 l25 -22 25 22 c14 12 25 32 25 44 0 18 -9 26 -40 35
-28 9 -40 17 -38 28 5 23 36 26 59 5 16 -14 19 -14 19 -2 0 12 -44 60 -53 57
-1 0 -12 -10 -24 -22z"/>
</g>
</svg>

