<?xml version="1.0" standalone="no"?>
<!DOCTYPE svg PUBLIC "-//W3C//DTD SVG 20010904//EN"
 "http://www.w3.org/TR/2001/REC-SVG-20010904/DTD/svg10.dtd">
<svg version="1.0" xmlns="http://www.w3.org/2000/svg"
 width="48.000000pt" height="48.000000pt" viewBox="0 0 48.000000 48.000000"
 preserveAspectRatio="xMidYMid meet">
<metadata>
Created by potrace 1.16, written by Peter Selinger 2001-2019
</metadata>
<g transform="translate(0.000000,48.000000) scale(0.100000,-0.100000)"
fill="currentColor" stroke="none">
<path d="M183 470 c-13 -5 -23 -17 -23 -27 0 -13 3 -14 12 -5 8 8 55 12 145
12 l133 0 0 -135 0 -135 -35 0 c-26 0 -45 -9 -74 -36 l-40 -35 -3 28 c-5 41
-23 34 -26 -11 -5 -61 12 -66 61 -19 29 28 54 42 81 46 22 4 44 11 50 17 17
17 15 275 -2 292 -16 16 -245 22 -279 8z M290 390 c-14 -17 -25 -35 -24 -40 1
-6 2 -14 3 -20 0 -5 19 -14 41 -20 57 -15 54 -40 -5 -40 -25 0 -45 -4 -45 -10
0 -5 7 -10 16 -10 9 0 23 -8 30 -17 12 -17 13 -17 19 0 4 9 13 17 20 17 19 0
29 38 15 55 -6 8 -27 19 -46 25 -44 15 -39 34 9 38 20 2 37 7 37 13 0 5 -5 9
-11 9 -7 0 -17 7 -23 15 -9 13 -15 11 -36 -15z M72 377 c-28 -30 -28 -68 1
-95 30 -28 68 -28 95 1 28 30 28 68 -1 95 -30 28 -68 28 -95 -1z m80 -14 c22
-20 23 -41 1 -65 -20 -22 -41 -23 -65 -1 -22 20 -23 41 -1 65 20 22 41 23 65
1z M71 238 c-38 -21 -62 -60 -64 -108 -2 -39 1 -45 19 -48 16 -2 24 -13 28
-38 4 -19 12 -34 18 -34 6 0 8 9 4 22 -3 13 -6 33 -6 46 0 15 -6 22 -20 22
-17 0 -20 7 -20 39 0 32 6 44 31 65 17 15 43 26 59 26 16 0 42 -11 59 -26 25
-21 31 -33 31 -65 0 -32 -3 -39 -20 -39 -14 0 -20 -7 -20 -22 0 -13 -3 -33 -6
-45 -4 -14 -2 -23 4 -23 6 0 14 16 18 35 4 25 12 35 25 35 26 0 32 15 24 61
-14 81 -99 132 -164 97z"/>
</g>
</svg>

