<?xml version="1.0" standalone="no"?>
<!DOCTYPE svg PUBLIC "-//W3C//DTD SVG 20010904//EN"
 "http://www.w3.org/TR/2001/REC-SVG-20010904/DTD/svg10.dtd">
<svg version="1.0" xmlns="http://www.w3.org/2000/svg"
 width="48.000000pt" height="48.000000pt" viewBox="0 0 48.000000 48.000000"
 preserveAspectRatio="xMidYMid meet">
<metadata>
Created by potrace 1.16, written by Peter Selinger 2001-2019
</metadata>
<g transform="translate(0.000000,48.000000) scale(0.100000,-0.100000)"
fill="currentColor" stroke="none">
<path d="M168 454 c-74 -24 -78 -26 -78 -54 0 -26 -4 -30 -27 -30 -53 0 -58
-11 -58 -119 0 -68 4 -104 13 -113 15 -15 121 -18 122 -3 0 6 -25 11 -55 13
l-55 3 0 99 0 100 210 0 209 0 3 -95 c4 -125 23 -122 23 3 0 106 -4 112 -77
112 -44 0 -48 2 -48 24 0 23 -49 76 -70 76 -5 0 -14 2 -22 5 -7 2 -48 -7 -90
-21z m139 -26 c13 -12 23 -30 23 -40 0 -16 -10 -18 -110 -18 -109 0 -110 0
-110 24 0 19 8 26 53 38 77 23 117 22 144 -4z M193 295 c-38 -37 -27 -65 30
-79 41 -10 28 -31 -18 -30 l-37 1 26 -24 26 -24 26 24 c34 31 26 63 -18 75
-18 4 -33 13 -36 20 -5 17 28 27 48 14 29 -18 32 -1 4 25 -14 12 -26 23 -27
22 -1 -1 -12 -11 -24 -24z M340 234 c-6 -14 -10 -34 -10 -44 0 -10 -15 -27
-35 -39 -28 -16 -35 -27 -35 -51 0 -16 5 -30 10 -30 6 0 10 11 10 24 0 17 10
31 30 43 17 10 33 29 36 43 12 52 16 60 30 60 11 0 14 -15 14 -62 0 -60 -2
-64 -35 -91 -33 -27 -50 -77 -25 -77 6 0 10 9 10 19 0 11 16 33 36 50 31 25
37 37 41 78 6 65 -9 103 -42 103 -18 0 -28 -7 -35 -26z M116 91 c-4 -5 -2 -12
4 -16 5 -3 10 -19 10 -36 0 -16 5 -29 10 -29 15 0 12 66 -4 79 -9 8 -16 8 -20
2z"/>
</g>
</svg>

