<?xml version="1.0" standalone="no"?>
<!DOCTYPE svg PUBLIC "-//W3C//DTD SVG 20010904//EN"
 "http://www.w3.org/TR/2001/REC-SVG-20010904/DTD/svg10.dtd">
<svg version="1.0" xmlns="http://www.w3.org/2000/svg"
 width="48.000000pt" height="48.000000pt" viewBox="0 0 48.000000 48.000000"
 preserveAspectRatio="xMidYMid meet">
<metadata>
Created by potrace 1.16, written by Peter Selinger 2001-2019
</metadata>
<g transform="translate(0.000000,48.000000) scale(0.100000,-0.100000)"
fill="currentColor" stroke="none">
<path d="M12 468 c-15 -15 -16 -54 -2 -63 6 -4 10 -70 10 -165 0 -95 -4 -161
-10 -165 -14 -9 -13 -48 2 -63 15 -15 54 -16 63 -2 4 6 70 10 165 10 95 0 161
-4 165 -10 9 -14 48 -13 63 2 15 15 16 54 2 63 -13 8 -13 322 0 330 14 9 13
48 -2 63 -15 15 -54 16 -63 2 -4 -6 -70 -10 -165 -10 -95 0 -161 4 -165 10 -9
14 -48 13 -63 -2z m48 -33 c0 -8 -7 -15 -15 -15 -8 0 -15 7 -15 15 0 8 7 15
15 15 8 0 15 -7 15 -15z m390 0 c0 -8 -7 -15 -15 -15 -8 0 -15 7 -15 15 0 8 7
15 15 15 8 0 15 -7 15 -15z m-50 -20 c0 -8 7 -15 15 -15 13 0 15 -24 15 -160
0 -130 -3 -160 -14 -160 -7 0 -16 -9 -19 -20 -5 -19 -14 -20 -157 -20 -143 0
-152 1 -157 20 -3 11 -12 20 -19 20 -11 0 -14 30 -14 160 0 136 2 160 15 160
8 0 15 7 15 15 0 13 24 15 160 15 136 0 160 -2 160 -15z m-340 -370 c0 -8 -7
-15 -15 -15 -8 0 -15 7 -15 15 0 8 7 15 15 15 8 0 15 -7 15 -15z m390 0 c0 -8
-7 -15 -15 -15 -8 0 -15 7 -15 15 0 8 7 15 15 15 8 0 15 -7 15 -15z M93 364
c-3 -8 -1 -20 5 -26 8 -8 13 -7 18 5 14 37 33 17 36 -35 4 -68 22 -68 26 0 3
52 22 72 36 35 5 -12 10 -13 18 -5 6 6 8 18 5 26 -9 23 -135 23 -144 0z M270
360 c0 -6 27 -10 60 -10 33 0 60 4 60 10 0 6 -27 10 -60 10 -33 0 -60 -4 -60
-10z M270 280 c0 -6 27 -10 60 -10 33 0 60 4 60 10 0 6 -27 10 -60 10 -33 0
-60 -4 -60 -10z M100 200 c0 -6 55 -10 145 -10 90 0 145 4 145 10 0 6 -55 10
-145 10 -90 0 -145 -4 -145 -10z M100 120 c0 -6 48 -10 125 -10 77 0 125 4
125 10 0 6 -48 10 -125 10 -77 0 -125 -4 -125 -10z"/>
</g>
</svg>

