<?xml version="1.0" standalone="no"?>
<!DOCTYPE svg PUBLIC "-//W3C//DTD SVG 20010904//EN"
 "http://www.w3.org/TR/2001/REC-SVG-20010904/DTD/svg10.dtd">
<svg version="1.0" xmlns="http://www.w3.org/2000/svg"
 width="48.000000pt" height="48.000000pt" viewBox="0 0 48.000000 48.000000"
 preserveAspectRatio="xMidYMid meet">
<metadata>
Created by potrace 1.16, written by Peter Selinger 2001-2019
</metadata>
<g transform="translate(0.000000,48.000000) scale(0.100000,-0.100000)"
fill="currentColor" stroke="none">
<path d="M286 465 c-9 -9 -16 -23 -16 -31 0 -8 -9 -14 -20 -14 -28 0 -43 -32
-26 -56 12 -15 12 -22 -1 -40 -12 -19 -12 -24 2 -38 9 -9 23 -16 31 -16 8 0
14 -8 14 -19 0 -32 26 -46 52 -29 20 13 26 13 44 1 19 -12 24 -12 38 2 9 9 16
23 16 30 0 7 10 15 23 17 25 3 37 46 17 58 -9 6 -8 14 4 33 16 23 16 26 1 41
-9 9 -23 16 -31 16 -8 0 -14 9 -14 20 0 28 -32 43 -56 26 -15 -12 -22 -12 -40
1 -19 12 -24 12 -38 -2z m44 -27 c15 -10 22 -10 32 0 19 19 36 14 40 -10 2
-15 11 -24 26 -26 25 -4 27 -14 10 -42 -10 -15 -10 -22 0 -32 18 -18 14 -38
-8 -38 -11 0 -23 -7 -25 -15 -16 -52 -14 -49 -33 -31 -23 20 -31 20 -54 0 -19
-18 -17 -21 -33 31 -2 8 -14 15 -25 15 -22 0 -26 20 -8 38 10 10 10 17 0 32
-17 28 -15 38 11 42 14 2 23 11 25 26 4 25 14 27 42 10z M316 374 c-9 -8 -16
-22 -16 -29 0 -7 7 -21 16 -29 8 -9 22 -16 29 -16 18 0 45 27 45 45 0 18 -27
45 -45 45 -7 0 -21 -7 -29 -16z m52 -27 c4 -20 -25 -34 -40 -19 -15 15 -1 44
19 40 10 -2 19 -11 21 -21z M76 255 c-9 -9 -16 -23 -16 -31 0 -8 -9 -14 -20
-14 -28 0 -43 -32 -26 -56 12 -15 12 -22 -1 -40 -12 -19 -12 -24 2 -38 9 -9
23 -16 31 -16 8 0 14 -9 14 -20 0 -28 32 -43 56 -26 15 12 22 12 40 -1 19 -12
24 -12 38 2 9 9 16 23 16 31 0 8 9 14 20 14 28 0 43 32 26 56 -12 16 -12 22 0
38 17 24 2 56 -26 56 -13 0 -20 7 -20 20 0 28 -32 43 -56 26 -15 -12 -22 -12
-40 1 -19 12 -24 12 -38 -2z m44 -27 c15 -10 22 -10 32 0 18 18 38 14 38 -8 0
-11 7 -23 15 -25 51 -16 49 -14 29 -36 -15 -17 -16 -24 -6 -39 17 -28 15 -38
-10 -42 -15 -2 -24 -11 -26 -25 -4 -26 -14 -28 -42 -11 -15 10 -22 10 -32 0
-19 -19 -36 -14 -40 11 -2 14 -11 23 -25 25 -25 4 -30 21 -11 40 10 10 10 17
0 32 -17 28 -15 38 11 42 14 2 23 11 25 26 4 25 14 27 42 10z M106 164 c-9 -8
-16 -22 -16 -29 0 -18 27 -45 45 -45 18 0 45 27 45 45 0 18 -27 45 -45 45 -7
0 -21 -7 -29 -16z m52 -27 c4 -20 -25 -34 -40 -19 -15 15 -1 44 19 40 10 -2
19 -11 21 -21z"/>
</g>
</svg>

