<?xml version="1.0" standalone="no"?>
<!DOCTYPE svg PUBLIC "-//W3C//DTD SVG 20010904//EN"
 "http://www.w3.org/TR/2001/REC-SVG-20010904/DTD/svg10.dtd">
<svg version="1.0" xmlns="http://www.w3.org/2000/svg"
 width="48.000000pt" height="48.000000pt" viewBox="0 0 48.000000 48.000000"
 preserveAspectRatio="xMidYMid meet">
<metadata>
Created by potrace 1.16, written by Peter Selinger 2001-2019
</metadata>
<g transform="translate(0.000000,48.000000) scale(0.100000,-0.100000)"
fill="currentColor" stroke="none">
<path d="M150 472 c-25 -7 -40 -34 -40 -69 0 -31 -2 -33 -33 -33 -64 0 -89
-44 -52 -89 31 -36 31 -46 0 -82 -37 -45 -12 -89 52 -89 31 0 33 -2 33 -33 0
-64 44 -89 89 -52 36 31 46 31 82 0 45 -37 89 -12 89 52 0 31 2 33 33 33 64 0
89 44 52 89 -31 36 -31 46 0 82 37 45 12 89 -52 89 -31 0 -33 2 -33 33 0 64
-44 89 -89 52 -33 -29 -53 -31 -71 -9 -19 21 -42 32 -60 26z m47 -42 c14 -11
33 -20 43 -20 10 0 29 9 43 20 25 20 56 27 58 13 1 -5 2 -23 4 -41 3 -42 15
-54 57 -57 18 -2 36 -3 41 -4 14 -2 7 -33 -13 -58 -11 -14 -20 -33 -20 -43 0
-10 9 -29 20 -43 20 -25 27 -56 13 -58 -5 -1 -23 -2 -41 -4 -42 -3 -54 -15
-57 -57 -2 -18 -3 -36 -4 -40 -2 -15 -33 -8 -58 12 -32 25 -54 25 -86 0 -25
-20 -56 -27 -58 -12 -1 4 -2 22 -4 40 -3 42 -15 54 -57 57 -18 2 -36 3 -40 4
-15 2 -8 33 12 58 25 32 25 54 0 86 -20 25 -27 56 -12 58 4 1 22 2 40 4 42 3
54 15 57 57 2 18 3 36 4 41 2 14 33 7 58 -13z M191 326 c-87 -48 -50 -186 49
-186 51 0 100 49 100 99 0 75 -83 124 -149 87z m104 -31 c33 -32 33 -78 0
-110 -49 -50 -135 -15 -135 55 0 19 9 40 25 55 15 16 36 25 55 25 19 0 40 -9
55 -25z"/>
</g>
</svg>

