<?xml version="1.0" standalone="no"?>
<!DOCTYPE svg PUBLIC "-//W3C//DTD SVG 20010904//EN"
 "http://www.w3.org/TR/2001/REC-SVG-20010904/DTD/svg10.dtd">
<svg version="1.0" xmlns="http://www.w3.org/2000/svg"
 width="48.000000pt" height="48.000000pt" viewBox="0 0 48.000000 48.000000"
 preserveAspectRatio="xMidYMid meet">
<metadata>
Created by potrace 1.16, written by Peter Selinger 2001-2019
</metadata>
<g transform="translate(0.000000,48.000000) scale(0.100000,-0.100000)"
fill="currentColor" stroke="none">
<path d="M33 470 c-30 -12 -35 -48 -31 -228 2 -106 7 -155 16 -164 15 -15 125
-18 132 -3 3 6 -20 11 -57 13 l-63 3 0 179 0 180 123 0 c121 0 124 0 149 -27
16 -17 28 -42 30 -63 3 -40 21 -43 26 -5 3 20 -8 38 -46 76 l-49 49 -104 -1
c-57 0 -114 -4 -126 -9z M75 350 c-3 -5 0 -13 8 -15 24 -10 202 -1 202 10 0
14 -201 19 -210 5z M258 264 c-15 -8 -35 -28 -43 -44 -51 -99 48 -205 150
-158 23 10 29 8 60 -22 45 -44 59 -30 15 15 -30 31 -32 37 -22 60 47 102 -62
203 -160 149z m123 -33 c37 -38 39 -88 5 -128 -20 -23 -32 -28 -69 -28 -54 0
-84 23 -93 71 -17 92 90 151 157 85z M75 260 c-3 -5 0 -13 9 -16 21 -8 71 -1
71 11 0 14 -72 19 -80 5z M75 170 c-3 -5 0 -13 9 -16 21 -8 71 -1 71 11 0 14
-72 19 -80 5z"/>
</g>
</svg>

