<?xml version="1.0" standalone="no"?>
<!DOCTYPE svg PUBLIC "-//W3C//DTD SVG 20010904//EN"
 "http://www.w3.org/TR/2001/REC-SVG-20010904/DTD/svg10.dtd">
<svg version="1.0" xmlns="http://www.w3.org/2000/svg"
 width="48.000000pt" height="48.000000pt" viewBox="0 0 48.000000 48.000000"
 preserveAspectRatio="xMidYMid meet">
<metadata>
Created by potrace 1.16, written by Peter Selinger 2001-2019
</metadata>
<g transform="translate(0.000000,48.000000) scale(0.100000,-0.100000)"
fill="currentColor" stroke="none">
<path d="M33 470 c-30 -12 -35 -48 -31 -228 2 -107 7 -155 16 -164 15 -15 135
-18 142 -3 3 6 -22 11 -62 13 l-68 3 0 179 0 180 123 0 c121 0 124 0 149 -27
17 -18 28 -42 30 -66 4 -47 22 -53 26 -9 3 29 -4 41 -46 83 l-49 49 -104 -1
c-57 0 -114 -4 -126 -9z M317 262 c-15 -2 -43 -19 -62 -37 -53 -53 -53 -127 0
-180 53 -53 127 -53 179 0 54 53 54 126 1 179 -33 33 -66 44 -118 38z m104
-51 c24 -24 29 -38 29 -76 0 -66 -39 -105 -105 -105 -66 0 -105 39 -105 105 0
66 39 105 105 105 38 0 52 -5 76 -29z M290 182 c0 -5 9 -17 20 -27 l20 -18
-22 -24 c-28 -30 -15 -44 14 -15 l22 22 23 -22 c30 -28 43 -15 15 15 l-22 23
22 22 c29 29 15 42 -15 14 l-24 -22 -18 20 c-19 21 -35 26 -35 12z"/>
</g>
</svg>

