<?xml version="1.0" standalone="no"?>
<!DOCTYPE svg PUBLIC "-//W3C//DTD SVG 20010904//EN"
 "http://www.w3.org/TR/2001/REC-SVG-20010904/DTD/svg10.dtd">
<svg version="1.0" xmlns="http://www.w3.org/2000/svg"
 width="48.000000pt" height="48.000000pt" viewBox="0 0 48.000000 48.000000"
 preserveAspectRatio="xMidYMid meet">
<metadata>
Created by potrace 1.16, written by Peter Selinger 2001-2019
</metadata>
<g transform="translate(0.000000,48.000000) scale(0.100000,-0.100000)"
fill="currentColor" stroke="none">
<path d="M79 459 c-19 -19 -21 -30 -18 -112 3 -81 1 -96 -18 -127 -41 -66 -45
-88 -22 -111 16 -16 30 -19 75 -17 75 4 73 22 -3 26 -73 3 -77 12 -40 77 l23
40 158 5 c189 6 186 4 186 122 0 116 -4 118 -180 118 -129 0 -142 -2 -161 -21z
m311 -99 l0 -90 -150 0 -150 0 0 90 0 90 150 0 150 0 0 -90z M230 190 c-16
-16 -20 -33 -20 -85 0 -95 13 -105 135 -105 122 0 135 10 135 105 0 95 -13
105 -135 105 -82 0 -98 -3 -115 -20z m220 -25 c0 -12 -18 -15 -105 -15 -87 0
-105 3 -105 15 0 12 18 15 105 15 87 0 105 -3 105 -15z m0 -90 l0 -45 -105 0
-105 0 0 45 0 45 105 0 105 0 0 -45z M375 81 c-7 -12 12 -24 25 -16 11 7 4 25
-10 25 -5 0 -11 -4 -15 -9z"/>
</g>
</svg>

