<?xml version="1.0" standalone="no"?>
<!DOCTYPE svg PUBLIC "-//W3C//DTD SVG 20010904//EN"
 "http://www.w3.org/TR/2001/REC-SVG-20010904/DTD/svg10.dtd">
<svg version="1.0" xmlns="http://www.w3.org/2000/svg"
 width="48.000000pt" height="48.000000pt" viewBox="0 0 48.000000 48.000000"
 preserveAspectRatio="xMidYMid meet">
<metadata>
Created by potrace 1.16, written by Peter Selinger 2001-2019
</metadata>
<g transform="translate(0.000000,48.000000) scale(0.100000,-0.100000)"
fill="currentColor" stroke="none">
<path d="M157 397 c-150 -73 -151 -74 -145 -234 5 -147 -2 -143 215 -143 160
0 175 2 193 20 11 11 20 33 20 49 0 16 6 31 15 35 21 8 21 99 0 116 -8 7 -15
26 -15 44 0 22 -10 40 -37 67 -21 20 -47 51 -58 70 -11 19 -29 35 -40 36 -11
1 -77 -26 -148 -60z m176 8 c9 -20 17 -38 17 -40 0 -3 -48 -5 -107 -5 l-108 1
75 39 c41 21 82 39 91 40 8 0 23 -16 32 -35z m65 -81 c29 -20 31 -74 3 -74
-14 0 -21 8 -23 28 -3 23 -8 27 -40 30 -22 2 -38 -1 -38 -7 0 -6 14 -11 30
-11 40 0 40 -29 0 -52 -24 -14 -30 -24 -30 -51 0 -34 17 -56 55 -72 17 -7 14
-10 -18 -14 -43 -7 -54 -24 -18 -29 35 -5 71 7 71 23 0 8 7 15 15 15 18 0 20
-41 3 -58 -8 -8 -62 -12 -178 -12 -172 0 -190 4 -190 42 0 23 38 24 55 2 8
-12 20 -15 39 -10 27 7 27 26 0 26 -9 0 -22 7 -30 15 -9 8 -26 15 -40 15 -15
0 -24 6 -24 15 0 12 17 15 90 15 53 0 90 4 90 10 0 6 -20 10 -45 10 -38 0 -45
3 -45 20 0 11 7 20 15 20 8 0 15 5 15 10 0 6 -11 10 -24 10 -19 0 -25 -6 -28
-27 -2 -23 -8 -29 -35 -31 -32 -3 -33 -2 -33 32 0 33 2 36 30 36 23 0 30 4 30
20 0 14 7 20 21 20 11 0 17 5 14 10 -3 6 -17 10 -31 10 -17 0 -24 -5 -24 -20
0 -13 -7 -20 -20 -20 -29 0 -27 48 3 60 12 5 87 9 167 9 116 1 150 -2 168 -15z
m50 -141 c-3 -48 -3 -48 -41 -51 -48 -4 -87 19 -87 53 0 31 24 44 83 45 l48 0
-3 -47z M245 311 c-8 -15 3 -31 21 -31 9 0 14 7 12 17 -4 20 -24 28 -33 14z
M185 240 c-8 -14 3 -30 21 -30 8 0 14 9 14 20 0 21 -24 28 -35 10z M177 94
c-9 -10 2 -24 19 -24 8 0 14 7 14 15 0 15 -21 21 -33 9z M357 193 c-12 -11 -8
-23 8 -23 8 0 15 7 15 15 0 16 -12 20 -23 8z"/>
</g>
</svg>

