<?xml version="1.0" standalone="no"?>
<!DOCTYPE svg PUBLIC "-//W3C//DTD SVG 20010904//EN"
 "http://www.w3.org/TR/2001/REC-SVG-20010904/DTD/svg10.dtd">
<svg version="1.0" xmlns="http://www.w3.org/2000/svg"
 width="48.000000pt" height="48.000000pt" viewBox="0 0 48.000000 48.000000"
 preserveAspectRatio="xMidYMid meet">
<metadata>
Created by potrace 1.16, written by Peter Selinger 2001-2019
</metadata>
<g transform="translate(0.000000,48.000000) scale(0.100000,-0.100000)"
fill="currentColor" stroke="none">
<path d="M84 392 c-6 -4 -15 -18 -19 -32 -4 -14 -18 -38 -31 -53 -32 -38 -32
-96 0 -134 13 -15 27 -39 31 -53 4 -14 13 -28 19 -32 17 -11 106 -9 106 2 0 6
-22 10 -50 10 -47 0 -50 2 -50 25 0 15 -12 35 -30 52 -23 20 -30 35 -30 63 0
28 7 43 30 63 18 17 30 37 30 52 0 23 3 25 50 25 28 0 50 5 50 10 0 11 -89 13
-106 2z M290 390 c0 -5 23 -10 50 -10 47 0 50 -2 50 -25 0 -15 12 -35 30 -52
23 -20 30 -35 30 -63 0 -28 -7 -43 -30 -63 -18 -17 -30 -37 -30 -52 0 -23 -3
-25 -50 -25 -27 0 -50 -4 -50 -10 0 -11 89 -13 106 -2 6 4 15 18 19 32 4 14
18 38 31 53 32 38 32 96 0 134 -13 15 -27 39 -31 53 -4 14 -13 28 -19 32 -17
11 -106 9 -106 -2z M230 341 c0 -10 -9 -21 -20 -24 -15 -4 -20 -14 -20 -36 0
-27 5 -33 40 -47 53 -21 56 -54 6 -54 -19 0 -38 -4 -41 -10 -3 -5 3 -10 14
-10 14 0 21 -6 21 -20 0 -11 5 -20 10 -20 6 0 10 9 10 19 0 11 9 23 20 26 14
4 20 15 20 36 0 25 -6 32 -40 45 -53 21 -56 54 -6 54 19 0 38 5 41 10 3 6 -3
10 -14 10 -14 0 -21 6 -21 20 0 11 -4 20 -10 20 -5 0 -10 -8 -10 -19z"/>
</g>
</svg>

