<?xml version="1.0" standalone="no"?>
<!DOCTYPE svg PUBLIC "-//W3C//DTD SVG 20010904//EN"
 "http://www.w3.org/TR/2001/REC-SVG-20010904/DTD/svg10.dtd">
<svg version="1.0" xmlns="http://www.w3.org/2000/svg"
 width="48.000000pt" height="48.000000pt" viewBox="0 0 48.000000 48.000000"
 preserveAspectRatio="xMidYMid meet">
<metadata>
Created by potrace 1.16, written by Peter Selinger 2001-2019
</metadata>
<g transform="translate(0.000000,48.000000) scale(0.100000,-0.100000)"
fill="currentColor" stroke="none">
<path d="M191 469 c-245 -47 -243 -412 2 -458 168 -31 307 108 276 275 -17 88
-90 167 -168 180 -20 3 -43 7 -51 9 -8 1 -35 -1 -59 -6z m170 -54 c64 -45 91
-104 87 -187 -4 -82 -39 -139 -108 -176 -38 -20 -56 -23 -112 -20 -82 4 -139
39 -176 108 -20 38 -23 56 -20 112 4 82 39 139 108 176 38 20 56 23 112 20 55
-3 75 -9 109 -33z M230 360 c0 -13 -7 -20 -19 -20 -26 0 -44 -26 -37 -52 3
-13 30 -39 59 -58 70 -47 68 -64 -5 -68 -59 -3 -83 -22 -28 -22 23 0 30 -4 30
-20 0 -11 5 -20 10 -20 6 0 10 9 10 19 0 12 9 21 24 25 33 8 43 42 20 67 -9
10 -37 30 -61 45 -63 36 -56 58 20 62 58 3 82 22 27 22 -23 0 -30 4 -30 20 0
11 -4 20 -10 20 -5 0 -10 -9 -10 -20z"/>
</g>
</svg>

