<?xml version="1.0" standalone="no"?>
<!DOCTYPE svg PUBLIC "-//W3C//DTD SVG 20010904//EN"
 "http://www.w3.org/TR/2001/REC-SVG-20010904/DTD/svg10.dtd">
<svg version="1.0" xmlns="http://www.w3.org/2000/svg"
 width="48.000000pt" height="48.000000pt" viewBox="0 0 48.000000 48.000000"
 preserveAspectRatio="xMidYMid meet">
<metadata>
Created by potrace 1.16, written by Peter Selinger 2001-2019
</metadata>
<g transform="translate(0.000000,48.000000) scale(0.100000,-0.100000)"
fill="currentColor" stroke="none">
<path d="M300 469 c-46 -10 -100 -68 -100 -109 0 -18 4 -29 10 -25 6 3 10 15
10 27 0 11 15 35 34 54 29 29 41 34 81 34 68 0 115 -47 115 -115 0 -40 -5 -52
-34 -81 -19 -19 -43 -34 -54 -34 -12 0 -24 -4 -27 -10 -4 -6 7 -10 25 -10 20
0 42 11 66 33 107 98 17 266 -126 236z M128 453 c-25 -16 -49 -52 -63 -97 -5
-18 -8 -16 -27 15 -12 19 -23 29 -25 22 -6 -16 35 -83 49 -83 16 0 78 40 78
51 0 13 -14 11 -28 -3 -19 -19 -26 -1 -12 32 7 17 26 38 41 47 16 10 29 21 29
25 0 12 -12 9 -42 -9z M311 404 c-17 -12 -21 -25 -21 -69 0 -44 4 -57 21 -69
17 -12 26 -12 43 -3 11 7 24 16 27 21 7 9 5 104 -2 108 -40 25 -47 26 -68 12z
m59 -39 c0 -9 -9 -15 -25 -15 -16 0 -25 6 -25 15 0 9 9 15 25 15 16 0 25 -6
25 -15z m0 -60 c0 -9 -9 -15 -25 -15 -16 0 -25 6 -25 15 0 9 9 15 25 15 16 0
25 -6 25 -15z M111 279 c-43 -9 -90 -56 -100 -100 -30 -137 133 -230 231 -132
98 99 7 261 -131 232z m115 -53 c29 -29 34 -41 34 -81 0 -40 -5 -52 -34 -81
-29 -29 -41 -34 -81 -34 -40 0 -52 5 -81 34 -29 29 -34 41 -34 81 0 40 5 52
34 81 29 29 41 34 81 34 40 0 52 -5 81 -34z M121 211 c-31 -23 -24 -52 16 -71
38 -18 43 -40 9 -40 -32 0 -42 -16 -18 -29 13 -7 24 -5 41 8 31 23 24 52 -16
71 -38 18 -43 40 -9 40 32 0 42 16 18 29 -13 7 -24 5 -41 -8z M373 149 c-18
-12 -33 -25 -33 -30 0 -13 14 -11 28 3 19 19 26 1 12 -32 -7 -17 -26 -38 -41
-47 -16 -10 -29 -21 -29 -25 0 -12 9 -10 40 8 32 19 60 63 60 93 0 30 12 26
34 -12 11 -18 21 -27 23 -20 6 16 -35 83 -50 83 -7 0 -27 -10 -44 -21z"/>
</g>
</svg>

