<?xml version="1.0" standalone="no"?>
<!DOCTYPE svg PUBLIC "-//W3C//DTD SVG 20010904//EN"
 "http://www.w3.org/TR/2001/REC-SVG-20010904/DTD/svg10.dtd">
<svg version="1.0" xmlns="http://www.w3.org/2000/svg"
 width="48.000000pt" height="48.000000pt" viewBox="0 0 48.000000 48.000000"
 preserveAspectRatio="xMidYMid meet">
<metadata>
Created by potrace 1.16, written by Peter Selinger 2001-2019
</metadata>
<g transform="translate(0.000000,48.000000) scale(0.100000,-0.100000)"
fill="currentColor" stroke="none">
<path d="M230 446 c0 -18 -8 -27 -31 -35 -38 -13 -58 -37 -59 -69 0 -39 18
-61 91 -108 78 -49 99 -80 81 -119 -10 -22 -17 -24 -89 -27 -82 -3 -104 -21
-33 -26 35 -3 40 -6 40 -28 0 -13 5 -24 10 -24 6 0 10 11 10 24 0 18 8 27 31
35 38 13 58 37 59 69 0 39 -18 61 -91 108 -78 49 -99 80 -81 119 10 22 18 24
87 27 81 3 107 21 38 26 -38 3 -43 6 -43 28 0 13 -4 24 -10 24 -5 0 -10 -11
-10 -24z"/>
</g>
</svg>

