<?xml version="1.0" standalone="no"?>
<!DOCTYPE svg PUBLIC "-//W3C//DTD SVG 20010904//EN"
 "http://www.w3.org/TR/2001/REC-SVG-20010904/DTD/svg10.dtd">
<svg version="1.0" xmlns="http://www.w3.org/2000/svg"
 width="48.000000pt" height="48.000000pt" viewBox="0 0 48.000000 48.000000"
 preserveAspectRatio="xMidYMid meet">
<metadata>
Created by potrace 1.16, written by Peter Selinger 2001-2019
</metadata>
<g transform="translate(0.000000,48.000000) scale(0.100000,-0.100000)"
fill="currentColor" stroke="none">
<path d="M165 450 c-38 -19 -72 -56 -61 -67 3 -3 19 8 36 25 49 49 116 54 170
12 l25 -20 -27 0 c-16 0 -28 -4 -28 -10 0 -5 20 -10 45 -10 l45 0 0 45 c0 25
-4 45 -10 45 -5 0 -10 -14 -10 -31 0 -29 -1 -29 -17 -13 -22 21 -75 44 -105
44 -13 0 -41 -9 -63 -20z M73 340 c-44 -18 -57 -81 -24 -121 26 -32 86 -32
112 0 51 63 -14 152 -88 121z m65 -26 c32 -22 27 -73 -9 -93 -24 -13 -29 -13
-53 2 -34 22 -36 69 -4 91 28 20 38 20 66 0z M343 340 c-44 -18 -57 -81 -24
-121 26 -32 86 -32 112 0 51 63 -14 152 -88 121z m65 -26 c32 -22 27 -73 -9
-93 -24 -13 -29 -13 -53 2 -34 22 -36 69 -4 91 28 20 38 20 66 0z M38 164
c-16 -8 -28 -21 -28 -29 0 -11 8 -10 36 7 27 16 45 19 80 14 24 -3 44 -2 44 3
0 24 -91 28 -132 5z M212 160 c-33 -31 -27 -47 26 -74 38 -19 34 -36 -9 -36
-16 0 -29 -4 -29 -10 0 -5 6 -10 14 -10 8 0 16 -5 18 -12 3 -8 15 -3 33 14 34
32 29 53 -21 74 -42 18 -40 38 4 42 18 2 32 7 32 13 0 5 -4 9 -9 9 -5 0 -16 2
-23 5 -8 3 -24 -4 -36 -15z M323 173 c-30 -11 -9 -22 31 -17 35 5 53 2 80 -14
28 -17 36 -18 36 -7 0 31 -101 57 -147 38z"/>
</g>
</svg>

