<?xml version="1.0" standalone="no"?>
<!DOCTYPE svg PUBLIC "-//W3C//DTD SVG 20010904//EN"
 "http://www.w3.org/TR/2001/REC-SVG-20010904/DTD/svg10.dtd">
<svg version="1.0" xmlns="http://www.w3.org/2000/svg"
 width="48.000000pt" height="48.000000pt" viewBox="0 0 48.000000 48.000000"
 preserveAspectRatio="xMidYMid meet">
<metadata>
Created by potrace 1.16, written by Peter Selinger 2001-2019
</metadata>
<g transform="translate(0.000000,48.000000) scale(0.100000,-0.100000)"
fill="currentColor" stroke="none">
<path d="M212 445 c-8 -17 -20 -25 -37 -25 -35 0 -42 -26 -16 -54 19 -20 20
-27 10 -50 -18 -39 0 -52 40 -32 28 15 34 15 62 0 40 -20 58 -7 40 32 -10 23
-9 30 10 50 26 28 19 54 -16 54 -17 0 -29 8 -37 25 -6 14 -19 25 -28 25 -9 0
-22 -11 -28 -25z m43 -25 c5 -14 15 -20 37 -20 l31 0 -23 -25 c-20 -21 -22
-28 -12 -50 16 -36 16 -36 -18 -17 -28 16 -32 16 -60 0 -34 -19 -34 -19 -18
17 10 22 8 29 -12 50 l-23 25 26 0 c16 0 32 8 39 20 7 11 16 20 20 20 4 0 10
-9 13 -20z M78 415 c-7 -16 -19 -25 -35 -25 -30 0 -40 -26 -19 -49 13 -14 16
-28 11 -54 -8 -43 7 -55 40 -33 13 9 32 16 42 16 13 0 14 3 5 12 -9 9 -18 9
-38 -1 -32 -14 -39 -9 -25 17 8 15 6 23 -9 37 -27 24 -25 35 5 35 17 0 29 9
40 30 18 34 18 40 5 40 -6 0 -16 -11 -22 -25z M370 435 c0 -4 7 -19 15 -35 11
-21 23 -30 40 -30 30 0 32 -11 5 -35 -15 -14 -17 -22 -9 -37 14 -26 7 -31 -25
-17 -20 10 -29 10 -38 1 -9 -9 -8 -12 5 -12 10 0 29 -7 42 -16 33 -22 48 -10
40 33 -5 26 -2 40 11 54 21 23 11 49 -19 49 -16 0 -28 9 -35 25 -10 22 -32 35
-32 20z M189 211 c-32 -26 -32 -86 0 -112 52 -43 125 -10 125 56 0 44 -30 75
-74 75 -15 0 -38 -8 -51 -19z m98 -27 c15 -24 15 -29 2 -53 -11 -20 -22 -26
-49 -26 -27 0 -38 6 -49 26 -13 24 -13 29 2 53 12 18 26 26 47 26 21 0 35 -8
47 -26z M26 185 c-20 -21 -21 -69 0 -89 14 -15 14 -17 0 -22 -32 -12 -15 -23
28 -18 39 6 48 3 69 -19 l24 -26 39 19 c48 25 60 25 108 0 l39 -19 24 26 c21
22 30 25 69 19 43 -5 60 6 28 18 -14 5 -14 7 0 22 21 20 20 68 0 89 -25 25
-75 16 -94 -18 -14 -25 -13 -30 3 -58 10 -18 16 -32 15 -33 -2 -1 -16 -10 -31
-20 -23 -14 -31 -15 -44 -5 -19 17 -107 17 -126 0 -13 -10 -21 -9 -44 5 -15
10 -29 19 -31 20 -1 1 5 15 15 33 16 28 17 33 3 58 -19 34 -69 43 -94 18z m78
-27 c16 -26 -4 -53 -40 -53 -25 0 -30 4 -32 29 -6 46 47 63 72 24z m334 13 c8
-5 12 -21 10 -37 -3 -32 -38 -45 -64 -24 -40 34 9 90 54 61z"/>
</g>
</svg>

