<?xml version="1.0" standalone="no"?>
<!DOCTYPE svg PUBLIC "-//W3C//DTD SVG 20010904//EN"
 "http://www.w3.org/TR/2001/REC-SVG-20010904/DTD/svg10.dtd">
<svg version="1.0" xmlns="http://www.w3.org/2000/svg"
 width="48.000000pt" height="48.000000pt" viewBox="0 0 48.000000 48.000000"
 preserveAspectRatio="xMidYMid meet">
<metadata>
Created by potrace 1.16, written by Peter Selinger 2001-2019
</metadata>
<g transform="translate(0.000000,48.000000) scale(0.100000,-0.100000)"
fill="currentColor" stroke="none">
<path d="M166 385 c-8 -9 -33 -15 -56 -15 -79 0 -121 -77 -107 -197 3 -25 11
-49 18 -54 19 -12 49 -11 49 1 0 6 -9 10 -20 10 -17 0 -20 7 -20 50 0 48 1 50
28 50 42 0 54 14 60 69 7 72 30 69 34 -4 4 -81 22 -73 26 13 l3 72 134 0 134
0 3 -85 c4 -112 23 -112 23 1 0 64 -4 87 -15 94 -8 5 -74 10 -147 10 -104 0
-135 -3 -147 -15z m-76 -85 c0 -49 -1 -50 -30 -50 -27 0 -30 3 -30 29 0 20 9
36 26 50 15 12 28 21 30 21 2 0 4 -22 4 -50z M116 177 c-38 -28 -13 -97 34
-97 28 0 53 25 53 55 0 30 -25 55 -53 55 -9 0 -24 -6 -34 -13z m59 -42 c0 -25
-4 -30 -25 -30 -16 0 -26 6 -28 18 -6 30 6 49 30 45 18 -2 23 -9 23 -33z M356
177 c-38 -28 -13 -97 34 -97 28 0 53 25 53 55 0 30 -25 55 -53 55 -9 0 -24 -6
-34 -13z m59 -42 c0 -25 -4 -30 -25 -30 -16 0 -26 6 -28 18 -6 30 6 49 30 45
18 -2 23 -9 23 -33z M230 120 c0 -5 18 -10 40 -10 22 0 40 5 40 10 0 6 -18 10
-40 10 -22 0 -40 -4 -40 -10z"/>
</g>
</svg>

