<?xml version="1.0" standalone="no"?>
<!DOCTYPE svg PUBLIC "-//W3C//DTD SVG 20010904//EN"
 "http://www.w3.org/TR/2001/REC-SVG-20010904/DTD/svg10.dtd">
<svg version="1.0" xmlns="http://www.w3.org/2000/svg"
 width="48.000000pt" height="48.000000pt" viewBox="0 0 48.000000 48.000000"
 preserveAspectRatio="xMidYMid meet">
<metadata>
Created by potrace 1.16, written by Peter Selinger 2001-2019
</metadata>
<g transform="translate(0.000000,48.000000) scale(0.100000,-0.100000)"
fill="currentColor" stroke="none">
<path d="M191 469 c-245 -47 -243 -412 2 -458 168 -31 307 108 276 275 -17 88
-90 167 -168 180 -20 3 -43 7 -51 9 -8 1 -35 -1 -59 -6z m170 -54 c64 -45 91
-104 87 -187 -4 -82 -39 -139 -108 -176 -38 -20 -56 -23 -112 -20 -82 4 -139
39 -176 108 -20 38 -23 56 -20 112 4 82 39 139 108 176 38 20 56 23 112 20 55
-3 75 -9 109 -33z M230 355 c0 -8 -8 -19 -19 -24 -43 -23 -30 -86 21 -99 28
-7 33 -13 33 -38 0 -23 -5 -30 -23 -32 -17 -3 -25 2 -29 17 -7 27 -23 27 -23
1 0 -10 9 -24 20 -30 11 -6 20 -17 20 -25 0 -8 5 -15 10 -15 6 0 10 7 10 15 0
8 8 19 19 24 43 23 30 86 -21 99 -28 7 -33 13 -33 38 0 23 5 30 23 32 17 3 25
-2 29 -17 7 -27 23 -27 23 -1 0 10 -9 24 -20 30 -11 6 -20 17 -20 25 0 8 -4
15 -10 15 -5 0 -10 -7 -10 -15z"/>
</g>
</svg>

