<?xml version="1.0" standalone="no"?>
<!DOCTYPE svg PUBLIC "-//W3C//DTD SVG 20010904//EN"
 "http://www.w3.org/TR/2001/REC-SVG-20010904/DTD/svg10.dtd">
<svg version="1.0" xmlns="http://www.w3.org/2000/svg"
 width="48.000000pt" height="48.000000pt" viewBox="0 0 48.000000 48.000000"
 preserveAspectRatio="xMidYMid meet">
<metadata>
Created by potrace 1.16, written by Peter Selinger 2001-2019
</metadata>
<g transform="translate(0.000000,48.000000) scale(0.100000,-0.100000)"
fill="currentColor" stroke="none">
<path d="M87 431 c-4 -20 -14 -31 -32 -35 -36 -9 -49 -43 -36 -92 7 -25 7 -42
1 -48 -14 -14 -12 -50 2 -64 7 -7 22 -12 35 -12 15 0 23 -6 23 -18 0 -24 19
-42 46 -42 16 0 23 -8 27 -30 9 -45 40 -70 87 -70 47 0 78 25 87 70 4 22 11
30 27 30 27 0 46 18 46 42 0 12 8 18 23 18 13 0 28 5 35 12 14 14 16 54 3 62
-6 4 -5 21 1 42 14 51 4 79 -37 103 -22 13 -35 28 -35 41 0 11 -4 20 -10 20
-5 0 -10 -11 -10 -24 0 -23 20 -44 65 -71 15 -9 16 -17 9 -50 -7 -27 -16 -41
-29 -44 -28 -5 -45 -21 -45 -42 0 -13 -7 -19 -23 -19 -13 0 -28 -5 -35 -12
-16 -16 -131 -16 -144 0 -6 6 -21 12 -34 12 -16 0 -24 6 -24 18 0 23 -19 42
-41 42 -19 0 -43 58 -34 81 3 8 20 23 38 34 21 13 33 30 35 48 4 36 -14 35
-21 -2z m-2 -206 c0 -22 -31 -33 -47 -17 -17 17 -1 44 24 40 15 -2 23 -10 23
-23z m360 0 c0 -22 -31 -33 -47 -17 -17 17 -1 44 24 40 15 -2 23 -10 23 -23z
m-290 -60 c0 -22 -31 -33 -47 -17 -17 17 -1 44 24 40 15 -2 23 -10 23 -23z
m220 0 c0 -22 -31 -33 -47 -17 -17 17 -1 44 24 40 15 -2 23 -10 23 -23z m-81
-17 c20 -28 20 -58 0 -86 -21 -31 -87 -31 -108 0 -36 51 -7 108 54 108 29 0
43 -6 54 -22z M220 105 c0 -10 7 -15 18 -13 21 4 19 22 -2 26 -10 2 -16 -3
-16 -13z M242 448 c-15 -15 -15 -51 0 -66 7 -7 24 -12 38 -12 31 0 50 17 50
45 0 28 -19 45 -50 45 -14 0 -31 -5 -38 -12z m63 -33 c0 -22 -31 -33 -47 -17
-17 17 -1 44 24 40 15 -2 23 -10 23 -23z M162 338 c-7 -7 -12 -21 -12 -33 0
-28 19 -45 50 -45 31 0 50 17 50 45 0 28 -19 45 -50 45 -14 0 -31 -5 -38 -12z
m63 -33 c0 -22 -31 -33 -47 -17 -17 17 -1 44 24 40 15 -2 23 -10 23 -23z"/>
</g>
</svg>

