<?xml version="1.0" standalone="no"?>
<!DOCTYPE svg PUBLIC "-//W3C//DTD SVG 20010904//EN"
 "http://www.w3.org/TR/2001/REC-SVG-20010904/DTD/svg10.dtd">
<svg version="1.0" xmlns="http://www.w3.org/2000/svg"
 width="48.000000pt" height="48.000000pt" viewBox="0 0 48.000000 48.000000"
 preserveAspectRatio="xMidYMid meet">
<metadata>
Created by potrace 1.16, written by Peter Selinger 2001-2019
</metadata>
<g transform="translate(0.000000,48.000000) scale(0.100000,-0.100000)"
fill="currentColor" stroke="none">
<path d="M137 458 c-9 -7 -20 -24 -26 -38 -13 -38 7 -75 78 -145 l62 -60 69
71 c61 62 70 77 70 108 0 46 -29 76 -72 76 -17 0 -40 -7 -50 -17 -17 -15 -19
-15 -36 0 -22 20 -71 22 -95 5z m83 -23 c7 -8 20 -15 30 -15 10 0 23 7 30 15
29 35 90 10 90 -38 0 -25 -12 -44 -61 -93 l-60 -61 -60 62 c-46 48 -59 68 -59
93 0 47 61 72 90 37z M25 256 c-22 -16 -31 -97 -16 -151 14 -50 71 -119 71
-86 0 5 -11 23 -25 39 -22 26 -25 39 -25 106 0 58 3 76 14 76 9 0 15 -17 18
-54 4 -50 33 -115 45 -102 3 3 0 19 -7 36 -9 22 -10 34 -2 42 16 16 46 -38 52
-94 5 -50 23 -69 28 -31 8 53 -50 165 -77 149 -5 -3 -12 10 -15 29 -8 42 -35
60 -61 41z M417 259 c-9 -5 -19 -25 -23 -44 -3 -19 -10 -32 -15 -29 -26 16
-85 -97 -77 -147 6 -37 23 -20 28 29 6 56 36 110 52 94 8 -8 7 -20 -2 -42 -7
-17 -10 -33 -7 -36 12 -13 41 52 45 102 3 37 9 54 18 54 11 0 14 -18 14 -76 0
-67 -3 -80 -25 -106 -41 -49 -31 -68 10 -20 69 78 54 261 -18 221z"/>
</g>
</svg>

