<?xml version="1.0" standalone="no"?>
<!DOCTYPE svg PUBLIC "-//W3C//DTD SVG 20010904//EN"
 "http://www.w3.org/TR/2001/REC-SVG-20010904/DTD/svg10.dtd">
<svg version="1.0" xmlns="http://www.w3.org/2000/svg"
 width="48.000000pt" height="48.000000pt" viewBox="0 0 48.000000 48.000000"
 preserveAspectRatio="xMidYMid meet">
<metadata>
Created by potrace 1.16, written by Peter Selinger 2001-2019
</metadata>
<g transform="translate(0.000000,48.000000) scale(0.100000,-0.100000)"
fill="currentColor" stroke="none">
<path d="M112 463 c-25 -10 -33 -41 -21 -88 6 -25 16 -45 21 -45 10 0 7 24 -8
77 -4 15 0 24 15 33 35 18 40 9 65 -101 6 -29 33 -46 49 -30 5 5 1 11 -11 15
-14 5 -21 19 -26 55 -9 67 -43 101 -84 84z M330 452 c-20 -16 -22 -24 -16 -65
4 -26 12 -49 18 -53 7 -4 8 9 3 43 -5 39 -3 52 9 62 22 19 44 -1 52 -48 10
-60 14 -71 36 -82 27 -15 37 -2 11 16 -14 10 -22 29 -25 60 -6 46 -30 85 -53
85 -7 0 -23 -8 -35 -18z M94 289 c-10 -17 13 -36 27 -22 12 12 4 33 -11 33 -5
0 -12 -5 -16 -11z M320 280 c0 -11 7 -20 15 -20 8 0 15 9 15 20 0 11 -7 20
-15 20 -8 0 -15 -9 -15 -20z M60 234 c-31 -13 -40 -38 -40 -115 0 -69 3 -80
22 -93 29 -21 117 -21 146 0 20 14 22 24 22 98 0 64 -4 87 -16 97 -16 13 -109
22 -134 13z m100 -39 c-7 -8 -27 -15 -45 -15 -18 0 -38 7 -45 15 -11 13 -5 15
45 15 50 0 56 -2 45 -15z m-90 -24 c21 -41 7 -111 -22 -111 -4 0 -8 29 -8 65
0 65 10 81 30 46z m120 -47 c0 -48 -3 -65 -12 -62 -26 9 -18 128 8 128 2 0 4
-30 4 -66z m-60 1 c0 -24 -5 -35 -15 -35 -10 0 -15 11 -15 35 0 24 5 35 15 35
10 0 15 -11 15 -35z m28 -67 c22 -22 12 -28 -45 -28 -55 0 -56 0 -38 20 20 22
64 27 83 8z M265 215 c-21 -21 -25 -33 -25 -88 0 -93 21 -117 101 -117 84 0
99 17 99 114 0 69 -2 76 -26 95 -39 31 -117 29 -149 -4z m115 -20 c-7 -8 -25
-15 -40 -15 -15 0 -33 7 -40 15 -11 13 -5 15 40 15 45 0 51 -2 40 -15z m-80
-69 c0 -39 -13 -66 -32 -66 -10 0 -11 114 -1 123 14 15 33 -18 33 -57z m120
-1 c0 -65 -6 -75 -28 -53 -26 26 -10 118 20 118 4 0 8 -29 8 -65z m-60 0 c0
-28 -4 -35 -20 -35 -16 0 -20 7 -20 35 0 28 4 35 20 35 16 0 20 -7 20 -35z
m18 -67 c22 -22 13 -28 -38 -28 -27 0 -50 4 -50 8 0 29 65 43 88 20z"/>
</g>
</svg>

