<?xml version="1.0" standalone="no"?>
<!DOCTYPE svg PUBLIC "-//W3C//DTD SVG 20010904//EN"
 "http://www.w3.org/TR/2001/REC-SVG-20010904/DTD/svg10.dtd">
<svg version="1.0" xmlns="http://www.w3.org/2000/svg"
 width="48.000000pt" height="48.000000pt" viewBox="0 0 48.000000 48.000000"
 preserveAspectRatio="xMidYMid meet">
<metadata>
Created by potrace 1.16, written by Peter Selinger 2001-2019
</metadata>
<g transform="translate(0.000000,48.000000) scale(0.100000,-0.100000)"
fill="currentColor" stroke="none">
<path d="M9 373 c-6 -16 -9 -81 -7 -151 2 -96 6 -125 18 -132 8 -5 111 -10
228 -10 l212 0 11 28 c6 15 9 80 7 150 -2 96 -6 125 -18 132 -8 5 -111 10
-228 10 l-212 0 -11 -27z m416 -2 c-28 -25 -174 -121 -185 -121 -11 0 -157 96
-184 121 -6 5 74 9 184 9 110 0 190 -4 185 -9z m-313 -125 c-20 -19 -34 -38
-29 -42 4 -4 22 7 40 24 38 37 45 38 86 15 30 -17 32 -17 62 0 41 23 48 22 86
-15 18 -17 36 -28 40 -24 5 4 -9 23 -29 41 l-37 34 47 34 c26 18 53 36 60 41
9 6 12 -22 12 -123 l0 -131 -210 0 -210 0 0 130 0 131 60 -41 59 -40 -37 -34z"/>
</g>
</svg>

