<?xml version="1.0" standalone="no"?>
<!DOCTYPE svg PUBLIC "-//W3C//DTD SVG 20010904//EN"
 "http://www.w3.org/TR/2001/REC-SVG-20010904/DTD/svg10.dtd">
<svg version="1.0" xmlns="http://www.w3.org/2000/svg"
 width="48.000000pt" height="48.000000pt" viewBox="0 0 48.000000 48.000000"
 preserveAspectRatio="xMidYMid meet">
<metadata>
Created by potrace 1.16, written by Peter Selinger 2001-2019
</metadata>
<g transform="translate(0.000000,48.000000) scale(0.100000,-0.100000)"
fill="currentColor" stroke="none">
<path d="M182 413 c-11 -10 -45 -62 -76 -116 -47 -83 -56 -106 -56 -148 0 -27
5 -49 10 -49 6 0 28 9 49 19 30 16 49 40 99 127 34 59 62 118 62 130 0 22 -33
54 -56 54 -7 0 -21 -8 -32 -17z m56 -15 c19 -19 15 -34 -45 -139 -37 -64 -68
-106 -85 -115 -37 -19 -38 -18 -38 17 0 20 20 67 52 123 72 128 87 143 116
114z M253 205 c-25 -18 -45 -72 -41 -112 3 -27 1 -28 -45 -33 -48 -5 -64 -26
-17 -23 54 3 107 4 139 3 19 -1 41 6 49 14 14 14 18 14 34 -1 20 -17 86 -24
90 -8 2 6 -14 11 -36 13 -28 2 -40 9 -43 23 -7 24 -18 24 -43 -1 -11 -11 -33
-20 -51 -20 l-31 0 31 35 c17 20 34 47 37 62 13 50 -30 79 -73 48z m55 -32 c3
-23 -54 -97 -69 -87 -27 17 17 118 49 112 9 -2 18 -13 20 -25z"/>
</g>
</svg>

