<?xml version="1.0" standalone="no"?>
<!DOCTYPE svg PUBLIC "-//W3C//DTD SVG 20010904//EN"
 "http://www.w3.org/TR/2001/REC-SVG-20010904/DTD/svg10.dtd">
<svg version="1.0" xmlns="http://www.w3.org/2000/svg"
 width="48.000000pt" height="48.000000pt" viewBox="0 0 48.000000 48.000000"
 preserveAspectRatio="xMidYMid meet">
<metadata>
Created by potrace 1.16, written by Peter Selinger 2001-2019
</metadata>
<g transform="translate(0.000000,48.000000) scale(0.100000,-0.100000)"
fill="currentColor" stroke="none">
<path d="M121 377 c-57 -50 -99 -93 -93 -95 6 -2 57 36 112 83 l100 87 100
-87 c55 -47 106 -85 112 -83 14 5 -195 188 -214 187 -7 0 -60 -41 -117 -92z
M138 302 l-88 -76 0 -103 c0 -91 2 -103 19 -113 27 -14 104 -13 119 2 7 7 12
39 12 75 l0 63 40 0 40 0 0 -63 c0 -36 5 -68 12 -75 15 -15 92 -16 119 -2 17
10 19 22 19 113 l0 103 -90 77 c-49 42 -95 77 -102 76 -7 0 -52 -35 -100 -77z
m188 -14 l84 -72 0 -93 0 -93 -50 0 -50 0 0 59 c0 72 -15 91 -70 91 -55 0 -70
-19 -70 -91 l0 -59 -50 0 -50 0 0 93 0 93 83 72 c45 39 83 71 85 71 2 1 41
-31 88 -71z"/>
</g>
</svg>

