<?xml version="1.0" standalone="no"?>
<!DOCTYPE svg PUBLIC "-//W3C//DTD SVG 20010904//EN"
 "http://www.w3.org/TR/2001/REC-SVG-20010904/DTD/svg10.dtd">
<svg version="1.0" xmlns="http://www.w3.org/2000/svg"
 width="48.000000pt" height="48.000000pt" viewBox="0 0 48.000000 48.000000"
 preserveAspectRatio="xMidYMid meet">
<metadata>
Created by potrace 1.16, written by Peter Selinger 2001-2019
</metadata>
<g transform="translate(0.000000,48.000000) scale(0.100000,-0.100000)"
fill="currentColor" stroke="none">
<path d="M120 389 c-58 -44 -109 -90 -113 -102 -10 -27 -5 -262 6 -273 4 -5
37 -10 72 -12 85 -6 95 3 95 84 0 71 14 94 60 94 46 0 60 -23 60 -94 0 -81 10
-90 95 -84 35 2 68 7 72 12 10 10 17 217 9 260 -5 26 -26 46 -116 114 -60 45
-115 82 -122 81 -7 0 -60 -36 -118 -80z m226 -16 l104 -77 0 -133 0 -133 -59
0 -58 0 -6 61 c-7 76 -33 109 -87 109 -54 0 -80 -33 -87 -109 l-6 -61 -58 0
-59 0 0 133 0 133 102 76 c57 43 105 78 107 78 2 0 50 -35 107 -77z"/>
</g>
</svg>

