<?xml version="1.0" standalone="no"?>
<!DOCTYPE svg PUBLIC "-//W3C//DTD SVG 20010904//EN"
 "http://www.w3.org/TR/2001/REC-SVG-20010904/DTD/svg10.dtd">
<svg version="1.0" xmlns="http://www.w3.org/2000/svg"
 width="48.000000pt" height="48.000000pt" viewBox="0 0 48.000000 48.000000"
 preserveAspectRatio="xMidYMid meet">
<metadata>
Created by potrace 1.16, written by Peter Selinger 2001-2019
</metadata>
<g transform="translate(0.000000,48.000000) scale(0.100000,-0.100000)"
fill="currentColor" stroke="none">
<path d="M352 458 c-15 -15 -16 -60 0 -76 9 -9 5 -16 -15 -32 -15 -12 -27 -30
-27 -41 0 -17 8 -19 80 -19 72 0 80 2 80 19 0 11 -12 29 -27 41 -20 16 -24 23
-15 32 16 16 15 61 0 76 -7 7 -24 12 -38 12 -14 0 -31 -5 -38 -12z m63 -38 c0
-18 -6 -26 -23 -28 -13 -2 -25 3 -28 12 -10 26 4 48 28 44 17 -2 23 -10 23
-28z m16 -90 l24 -19 -65 0 -65 0 24 19 c13 11 31 20 41 20 10 0 28 -9 41 -20z
M246 414 c-3 -9 -6 -49 -6 -90 0 -67 -2 -74 -20 -74 -11 0 -20 -4 -20 -10 0
-5 9 -10 20 -10 18 0 20 -7 20 -75 0 -63 3 -76 19 -85 21 -10 40 3 21 15 -13
8 -14 325 0 325 6 0 10 5 10 10 0 16 -37 11 -44 -6z M60 350 c-26 -26 -26 -74
0 -100 42 -42 113 -11 113 50 0 61 -71 92 -113 50z m78 -12 c7 -7 12 -16 12
-20 0 -12 -38 -10 -62 3 -17 9 -18 13 -7 20 20 12 43 11 57 -3z m-13 -48 c29
0 30 -17 3 -34 -24 -14 -68 8 -68 34 0 17 3 19 19 10 11 -5 32 -10 46 -10z
M64 210 c-28 -11 -54 -48 -54 -78 0 -22 1 -23 98 -20 97 3 97 3 94 28 -7 57
-80 94 -138 70z m90 -31 c47 -37 35 -49 -49 -49 -58 0 -75 3 -75 14 0 20 48
56 75 56 12 0 34 -9 49 -21z M356 177 c-22 -16 -24 -68 -4 -81 12 -7 10 -14
-15 -36 -48 -43 -33 -60 53 -60 86 0 101 17 53 60 -25 22 -27 29 -15 36 35 23
6 94 -38 94 -9 0 -24 -6 -34 -13z m59 -42 c0 -25 -4 -30 -25 -30 -16 0 -26 6
-28 18 -6 30 6 49 30 45 18 -2 23 -9 23 -33z m9 -81 c32 -12 15 -24 -34 -24
-27 0 -50 4 -50 9 0 18 53 27 84 15z"/>
</g>
</svg>

