<?xml version="1.0" standalone="no"?>
<!DOCTYPE svg PUBLIC "-//W3C//DTD SVG 20010904//EN"
 "http://www.w3.org/TR/2001/REC-SVG-20010904/DTD/svg10.dtd">
<svg version="1.0" xmlns="http://www.w3.org/2000/svg"
 width="48.000000pt" height="48.000000pt" viewBox="0 0 48.000000 48.000000"
 preserveAspectRatio="xMidYMid meet">
<metadata>
Created by potrace 1.16, written by Peter Selinger 2001-2019
</metadata>
<g transform="translate(0.000000,48.000000) scale(0.100000,-0.100000)"
fill="currentColor" stroke="none">
<path d="M198 445 c-9 -21 -8 -28 7 -45 10 -11 26 -20 35 -20 9 0 25 9 35 20
27 30 7 70 -35 70 -23 0 -33 -6 -42 -25z m68 -6 c3 -6 -1 -18 -10 -27 -15 -15
-17 -15 -32 0 -19 19 -11 38 16 38 10 0 22 -5 26 -11z M106 371 c-16 -16 -27
-34 -24 -41 2 -6 21 7 43 30 24 25 33 40 24 40 -8 0 -28 -13 -43 -29z M355
360 c22 -23 41 -36 43 -30 5 15 -48 70 -67 70 -9 0 0 -15 24 -40z M206 327
c-22 -16 -24 -68 -3 -81 12 -8 10 -13 -14 -34 -16 -13 -29 -30 -29 -38 0 -21
18 -17 25 6 7 23 44 35 79 26 14 -3 28 -15 31 -26 7 -23 25 -27 25 -6 0 8 -13
25 -29 38 -24 21 -26 26 -14 34 36 23 8 94 -37 94 -9 0 -24 -6 -34 -13z m59
-42 c0 -25 -4 -30 -25 -30 -16 0 -26 6 -28 18 -6 30 6 49 30 45 18 -2 23 -9
23 -33z M28 279 c-28 -16 -23 -67 7 -81 21 -9 28 -8 45 7 25 23 26 47 2 68
-21 19 -30 20 -54 6z m42 -25 c11 -12 11 -18 -2 -31 -19 -18 -38 -10 -38 16 0
33 20 40 40 15z M397 272 c-22 -25 -21 -45 3 -67 17 -15 24 -16 45 -7 44 20
27 92 -23 92 -5 0 -16 -8 -25 -18z m51 -26 c6 -29 -15 -43 -35 -24 -14 14 -14
20 -3 33 16 19 34 15 38 -9z M80 149 c0 -19 55 -72 70 -67 6 2 -7 21 -30 43
-25 24 -40 33 -40 24z M355 120 c-24 -25 -33 -40 -24 -40 19 0 72 55 67 70 -2
6 -21 -7 -43 -30z M205 80 c-27 -30 -7 -70 35 -70 42 0 62 40 35 70 -23 25
-47 25 -70 0z m55 -15 c6 -8 9 -19 5 -25 -8 -13 -42 -13 -50 0 -7 11 12 40 25
40 4 0 13 -7 20 -15z"/>
</g>
</svg>

