<?xml version="1.0" standalone="no"?>
<!DOCTYPE svg PUBLIC "-//W3C//DTD SVG 20010904//EN"
 "http://www.w3.org/TR/2001/REC-SVG-20010904/DTD/svg10.dtd">
<svg version="1.0" xmlns="http://www.w3.org/2000/svg"
 width="48.000000pt" height="48.000000pt" viewBox="0 0 48.000000 48.000000"
 preserveAspectRatio="xMidYMid meet">
<metadata>
Created by potrace 1.16, written by Peter Selinger 2001-2019
</metadata>
<g transform="translate(0.000000,48.000000) scale(0.100000,-0.100000)"
fill="currentColor" stroke="none">
<path d="M230 425 c0 -25 5 -45 10 -45 6 0 10 20 10 45 0 25 -4 45 -10 45 -5
0 -10 -20 -10 -45z M70 402 c0 -14 59 -66 67 -59 3 4 -6 21 -22 37 -28 30 -45
38 -45 22z M365 380 c-16 -16 -25 -33 -22 -37 8 -7 67 45 67 59 0 16 -17 8
-45 -22z M191 326 c-87 -48 -50 -186 49 -186 51 0 100 49 100 99 0 75 -83 124
-149 87z m104 -31 c33 -32 33 -78 0 -110 -49 -50 -135 -15 -135 55 0 19 9 40
25 55 15 16 36 25 55 25 19 0 40 -9 55 -25z M10 240 c0 -5 20 -10 45 -10 25 0
45 5 45 10 0 6 -20 10 -45 10 -25 0 -45 -4 -45 -10z M380 240 c0 -5 20 -10 45
-10 25 0 45 5 45 10 0 6 -20 10 -45 10 -25 0 -45 -4 -45 -10z M95 110 c-16
-16 -25 -33 -22 -37 8 -7 67 45 67 59 0 16 -17 8 -45 -22z M340 132 c0 -14 59
-66 67 -59 3 4 -6 21 -22 37 -28 30 -45 38 -45 22z M230 55 c0 -25 5 -45 10
-45 6 0 10 20 10 45 0 25 -4 45 -10 45 -5 0 -10 -20 -10 -45z"/>
</g>
</svg>

