<?xml version="1.0" standalone="no"?>
<!DOCTYPE svg PUBLIC "-//W3C//DTD SVG 20010904//EN"
 "http://www.w3.org/TR/2001/REC-SVG-20010904/DTD/svg10.dtd">
<svg version="1.0" xmlns="http://www.w3.org/2000/svg"
 width="48.000000pt" height="48.000000pt" viewBox="0 0 48.000000 48.000000"
 preserveAspectRatio="xMidYMid meet">
<metadata>
Created by potrace 1.16, written by Peter Selinger 2001-2019
</metadata>
<g transform="translate(0.000000,48.000000) scale(0.100000,-0.100000)"
fill="currentColor" stroke="none">
<path d="M230 425 c0 -36 -3 -45 -17 -45 -10 -1 -29 -7 -43 -15 -23 -13 -27
-11 -57 17 -43 41 -56 27 -15 -15 29 -30 31 -35 17 -53 -8 -10 -15 -29 -15
-41 0 -20 -5 -23 -45 -23 -25 0 -45 -4 -45 -10 0 -5 20 -10 45 -10 36 0 45 -3
45 -17 1 -10 7 -29 15 -43 13 -23 11 -27 -17 -57 -41 -43 -28 -56 15 -15 30
28 34 30 57 17 14 -8 33 -14 43 -15 14 0 17 -9 17 -45 0 -25 5 -45 10 -45 6 0
10 20 10 45 0 40 3 45 23 45 12 0 31 7 41 15 18 14 23 12 53 -17 42 -41 56
-28 15 15 -28 30 -30 34 -17 57 8 14 14 33 15 43 0 14 9 17 45 17 25 0 45 5
45 10 0 6 -20 10 -45 10 -36 0 -45 3 -45 18 -1 9 -7 28 -15 42 -13 23 -11 27
17 57 41 43 28 56 -15 15 -30 -28 -34 -30 -57 -17 -14 8 -33 14 -42 15 -15 0
-18 9 -18 45 0 25 -4 45 -10 45 -5 0 -10 -20 -10 -45z m97 -100 c31 -31 34
-39 31 -82 -3 -47 -4 -48 -38 -51 -45 -3 -79 15 -107 57 -22 32 -31 90 -16
104 3 4 26 7 51 7 37 0 50 -6 79 -35z m-132 -91 c22 -34 56 -53 106 -62 l43
-7 -28 -23 c-21 -16 -42 -22 -78 -22 -43 0 -54 4 -84 34 -30 30 -34 41 -34 84
0 36 6 57 22 78 l23 28 7 -43 c4 -24 14 -54 23 -67z"/>
</g>
</svg>

