<?xml version="1.0" standalone="no"?>
<!DOCTYPE svg PUBLIC "-//W3C//DTD SVG 20010904//EN"
 "http://www.w3.org/TR/2001/REC-SVG-20010904/DTD/svg10.dtd">
<svg version="1.0" xmlns="http://www.w3.org/2000/svg"
 width="48.000000pt" height="48.000000pt" viewBox="0 0 48.000000 48.000000"
 preserveAspectRatio="xMidYMid meet">
<metadata>
Created by potrace 1.16, written by Peter Selinger 2001-2019
</metadata>
<g transform="translate(0.000000,48.000000) scale(0.100000,-0.100000)"
fill="currentColor" stroke="none">
<path d="M161 440 c-23 -23 -31 -43 -36 -85 -4 -30 -11 -55 -16 -55 -5 0 -18
-9 -29 -20 -18 -18 -20 -33 -20 -130 0 -152 -3 -150 180 -150 183 0 180 -2
180 150 0 97 -2 112 -20 130 -11 11 -24 20 -29 20 -5 0 -12 25 -16 55 -9 77
-47 115 -115 115 -41 0 -53 -5 -79 -30z m144 -15 c20 -19 25 -34 25 -75 l0
-50 -90 0 -90 0 0 50 c0 67 30 100 90 100 30 0 47 -6 65 -25z m85 -275 l0
-120 -150 0 -150 0 0 120 0 120 150 0 150 0 0 -120z M202 188 c-15 -15 -15
-61 0 -76 15 -15 61 -15 76 0 15 15 15 61 0 76 -7 7 -24 12 -38 12 -14 0 -31
-5 -38 -12z m63 -38 c0 -18 -6 -26 -23 -28 -13 -2 -25 3 -28 12 -10 26 4 48
28 44 17 -2 23 -10 23 -28z"/>
</g>
</svg>

