<?xml version="1.0" standalone="no"?>
<!DOCTYPE svg PUBLIC "-//W3C//DTD SVG 20010904//EN"
 "http://www.w3.org/TR/2001/REC-SVG-20010904/DTD/svg10.dtd">
<svg version="1.0" xmlns="http://www.w3.org/2000/svg"
 width="48.000000pt" height="48.000000pt" viewBox="0 0 48.000000 48.000000"
 preserveAspectRatio="xMidYMid meet">
<metadata>
Created by potrace 1.16, written by Peter Selinger 2001-2019
</metadata>
<g transform="translate(0.000000,48.000000) scale(0.100000,-0.100000)"
fill="currentColor" stroke="none">
<path d="M83 472 c-52 -8 -92 -88 -81 -163 6 -46 23 -19 28 47 6 74 22 94 77
94 49 0 73 -29 73 -90 0 -36 -7 -59 -25 -86 -34 -50 -35 -136 -2 -185 37 -55
81 -79 147 -79 102 0 170 68 170 170 0 100 -68 170 -167 170 -30 0 -63 -4 -73
-10 -16 -8 -19 -4 -24 34 -11 69 -60 108 -123 98z m325 -185 c36 -36 37 -40
37 -107 0 -67 -1 -71 -38 -107 -36 -37 -40 -38 -107 -38 -67 0 -71 1 -107 38
-37 36 -38 40 -38 107 0 63 3 71 30 100 41 43 60 50 128 47 52 -3 62 -7 95
-40z M290 180 c0 -22 5 -40 10 -40 6 0 10 18 10 40 0 22 -4 40 -10 40 -5 0
-10 -18 -10 -40z"/>
</g>
</svg>

