<?xml version="1.0" standalone="no"?>
<!DOCTYPE svg PUBLIC "-//W3C//DTD SVG 20010904//EN"
 "http://www.w3.org/TR/2001/REC-SVG-20010904/DTD/svg10.dtd">
<svg version="1.0" xmlns="http://www.w3.org/2000/svg"
 width="48.000000pt" height="48.000000pt" viewBox="0 0 48.000000 48.000000"
 preserveAspectRatio="xMidYMid meet">
<metadata>
Created by potrace 1.16, written by Peter Selinger 2001-2019
</metadata>
<g transform="translate(0.000000,48.000000) scale(0.100000,-0.100000)"
fill="currentColor" stroke="none">
<path d="M20 450 c-22 -14 -22 -406 0 -420 19 -12 270 -13 290 0 10 6 15 26
15 62 0 73 -19 78 -23 6 l-3 -58 -134 0 -135 0 0 200 0 200 135 0 134 0 3 -55
c4 -70 23 -68 23 3 0 36 -5 56 -15 62 -20 13 -271 12 -290 0z M175 280 l-39
-40 41 -42 c47 -47 73 -45 28 2 l-29 30 147 0 c91 0 147 4 147 10 0 6 -56 10
-147 10 l-147 0 27 28 c15 15 27 31 27 35 0 16 -18 5 -55 -33z"/>
</g>
</svg>

