<?xml version="1.0" standalone="no"?>
<!DOCTYPE svg PUBLIC "-//W3C//DTD SVG 20010904//EN"
 "http://www.w3.org/TR/2001/REC-SVG-20010904/DTD/svg10.dtd">
<svg version="1.0" xmlns="http://www.w3.org/2000/svg"
 width="48.000000pt" height="48.000000pt" viewBox="0 0 48.000000 48.000000"
 preserveAspectRatio="xMidYMid meet">
<metadata>
Created by potrace 1.16, written by Peter Selinger 2001-2019
</metadata>
<g transform="translate(0.000000,48.000000) scale(0.100000,-0.100000)"
fill="currentColor" stroke="none">
<path d="M20 450 c-22 -14 -22 -406 0 -420 19 -12 270 -13 290 0 10 6 15 26
15 62 0 73 -19 78 -23 6 l-3 -58 -134 0 -135 0 0 200 0 200 135 0 134 0 3 -55
c4 -70 23 -68 23 3 0 36 -5 56 -15 62 -20 13 -271 12 -290 0z M410 285 l34
-35 -152 0 c-95 0 -152 -4 -152 -10 0 -6 57 -10 152 -10 l152 0 -34 -35 c-19
-19 -29 -35 -24 -35 5 0 28 18 49 40 l39 40 -39 40 c-21 22 -44 40 -49 40 -5
0 5 -16 24 -35z"/>
</g>
</svg>

