<?xml version="1.0" standalone="no"?>
<!DOCTYPE svg PUBLIC "-//W3C//DTD SVG 20010904//EN"
 "http://www.w3.org/TR/2001/REC-SVG-20010904/DTD/svg10.dtd">
<svg version="1.0" xmlns="http://www.w3.org/2000/svg"
 width="48.000000pt" height="48.000000pt" viewBox="0 0 48.000000 48.000000"
 preserveAspectRatio="xMidYMid meet">
<metadata>
Created by potrace 1.16, written by Peter Selinger 2001-2019
</metadata>
<g transform="translate(0.000000,48.000000) scale(0.100000,-0.100000)"
fill="currentColor" stroke="none">
<path d="M193 437 c-21 -18 -53 -39 -71 -47 -46 -18 -83 -65 -81 -104 0 -17
-2 -40 -6 -52 -4 -13 -1 -27 10 -38 22 -21 27 -20 55 9 28 29 37 31 61 9 22
-20 49 -12 49 16 0 16 7 20 30 20 44 0 82 -20 74 -39 -4 -9 -9 -33 -12 -53 -3
-33 -1 -38 16 -38 10 0 30 8 43 19 16 12 30 16 44 10 27 -10 47 -10 64 0 20
13 -2 64 -34 81 -14 7 -30 29 -36 48 -12 37 -81 112 -102 112 -8 0 -18 17 -23
37 -12 50 -34 52 -81 10z m63 -21 c4 -25 14 -38 34 -46 38 -16 65 -46 90 -102
11 -26 29 -50 40 -53 11 -4 25 -15 30 -26 15 -27 -12 -36 -44 -16 -22 15 -25
14 -45 -9 -11 -13 -25 -24 -31 -24 -16 0 -12 42 6 61 9 10 13 23 9 28 -10 17
-56 38 -98 44 -36 6 -39 4 -51 -25 l-13 -30 -16 22 c-14 21 -16 21 -45 6 -17
-9 -34 -20 -37 -26 -3 -5 -13 -10 -21 -10 -12 0 -13 6 -8 23 5 12 7 36 6 53
-2 36 24 65 78 88 19 8 48 28 64 45 17 17 33 31 37 31 5 0 11 -15 15 -34z M76
45 c-11 -8 -30 -15 -43 -15 -13 0 -23 -5 -23 -11 0 -8 12 -9 37 -4 21 4 48 7
61 6 12 -1 40 -2 62 -2 22 0 51 0 65 0 74 0 117 0 138 1 12 0 39 -2 60 -6 24
-4 37 -2 37 5 0 6 -9 11 -20 11 -12 0 -34 7 -51 15 -27 14 -32 14 -51 0 -28
-19 -58 -19 -86 1 -20 14 -24 14 -44 0 -28 -20 -68 -20 -94 -1 -10 8 -21 14
-24 14 -3 0 -14 -6 -24 -14z"/>
</g>
</svg>

