<?xml version="1.0" standalone="no"?>
<!DOCTYPE svg PUBLIC "-//W3C//DTD SVG 20010904//EN"
 "http://www.w3.org/TR/2001/REC-SVG-20010904/DTD/svg10.dtd">
<svg version="1.0" xmlns="http://www.w3.org/2000/svg"
 width="48.000000pt" height="48.000000pt" viewBox="0 0 48.000000 48.000000"
 preserveAspectRatio="xMidYMid meet">
<metadata>
Created by potrace 1.16, written by Peter Selinger 2001-2019
</metadata>
<g transform="translate(0.000000,48.000000) scale(0.100000,-0.100000)"
fill="currentColor" stroke="none">
<path d="M187 468 c-54 -15 -112 -73 -128 -128 -7 -25 -21 -52 -32 -61 -16
-13 -20 -27 -19 -62 4 -83 31 -124 77 -113 33 9 45 41 34 97 -4 24 -8 47 -9
51 0 4 -9 16 -21 27 -19 17 -20 23 -9 55 25 76 82 118 160 118 78 0 135 -42
161 -119 10 -32 9 -38 -9 -52 -27 -21 -47 -123 -30 -154 9 -18 7 -24 -16 -44
-33 -28 -57 -29 -74 -3 -16 26 -44 26 -67 0 -27 -29 -7 -70 34 -70 16 0 33 5
36 10 4 6 23 17 43 26 20 8 45 22 55 32 10 9 33 21 50 27 34 11 46 38 49 114
1 33 -3 47 -19 60 -12 9 -26 33 -32 54 -27 103 -132 163 -234 135z m-110 -206
c17 -11 32 -93 22 -120 -9 -23 -25 -27 -48 -13 -20 13 -28 120 -10 132 17 11
21 11 36 1z m371 -34 c7 -79 -26 -129 -63 -98 -11 9 -13 24 -8 54 10 69 20 88
46 84 17 -2 23 -10 25 -40z m-191 -159 c16 -16 5 -39 -17 -39 -25 0 -35 18
-20 35 15 18 22 19 37 4z"/>
</g>
</svg>

