<?xml version="1.0" standalone="no"?>
<!DOCTYPE svg PUBLIC "-//W3C//DTD SVG 20010904//EN"
 "http://www.w3.org/TR/2001/REC-SVG-20010904/DTD/svg10.dtd">
<svg version="1.0" xmlns="http://www.w3.org/2000/svg"
 width="48.000000pt" height="48.000000pt" viewBox="0 0 48.000000 48.000000"
 preserveAspectRatio="xMidYMid meet">
<metadata>
Created by potrace 1.16, written by Peter Selinger 2001-2019
</metadata>
<g transform="translate(0.000000,48.000000) scale(0.100000,-0.100000)"
fill="currentColor" stroke="none">
<path d="M183 430 c-26 -11 -28 -31 -9 -75 12 -28 11 -32 -24 -73 -68 -77 -69
-159 -3 -209 30 -23 47 -28 93 -28 139 0 188 127 91 237 l-37 41 15 43 c12 33
13 46 4 55 -15 15 -102 21 -130 9z m106 -19 c11 -7 11 -15 0 -45 -12 -32 -17
-36 -49 -36 -32 0 -37 4 -49 36 -11 30 -11 38 0 45 18 11 80 11 98 0z m3 -113
c36 -29 68 -91 68 -134 0 -35 -5 -47 -30 -67 -35 -30 -78 -41 -120 -32 -17 4
-44 18 -60 32 -40 33 -42 93 -4 149 35 53 51 64 94 64 20 0 43 -6 52 -12z
M216 244 c-14 -14 -26 -28 -26 -32 1 -17 19 -33 46 -41 16 -4 31 -16 33 -26 3
-15 -2 -17 -33 -12 -41 7 -45 -1 -16 -26 19 -16 22 -16 46 -1 38 25 30 66 -16
80 -19 6 -36 16 -38 22 -5 16 37 25 54 11 26 -22 29 1 2 25 l-25 24 -27 -24z
M54 346 c-3 -8 -1 -23 5 -34 8 -15 7 -23 -5 -33 -51 -42 -62 -147 -21 -194 16
-19 30 -26 47 -23 23 4 24 5 5 13 -44 18 -55 36 -55 91 0 46 5 59 32 90 27 30
30 39 20 55 -17 27 -16 29 18 29 17 0 30 5 30 10 0 16 -70 12 -76 -4z M350
350 c0 -5 14 -10 30 -10 34 0 35 -2 18 -29 -10 -16 -7 -25 20 -55 27 -31 32
-44 32 -90 0 -55 -11 -73 -55 -91 -19 -8 -18 -9 5 -13 78 -13 99 157 26 217
-12 10 -13 18 -5 33 17 31 4 48 -36 48 -19 0 -35 -4 -35 -10z"/>
</g>
</svg>

