<?xml version="1.0" standalone="no"?>
<!DOCTYPE svg PUBLIC "-//W3C//DTD SVG 20010904//EN"
 "http://www.w3.org/TR/2001/REC-SVG-20010904/DTD/svg10.dtd">
<svg version="1.0" xmlns="http://www.w3.org/2000/svg"
 width="48.000000pt" height="48.000000pt" viewBox="0 0 48.000000 48.000000"
 preserveAspectRatio="xMidYMid meet">
<metadata>
Created by potrace 1.16, written by Peter Selinger 2001-2019
</metadata>
<g transform="translate(0.000000,48.000000) scale(0.100000,-0.100000)"
fill="currentColor" stroke="none">
<path d="M24 456 c-18 -13 -19 -28 -19 -216 0 -188 1 -203 19 -216 16 -11 61
-14 205 -14 102 0 192 4 199 9 8 4 16 28 19 52 3 24 11 47 17 51 16 10 14 140
-1 146 -7 2 -13 15 -13 29 0 14 -6 39 -14 56 -8 18 -17 48 -20 69 -4 20 -14
39 -22 42 -9 3 -91 6 -183 6 -129 0 -172 -3 -187 -14z m366 -42 l0 -35 -160 3
c-88 2 -160 0 -160 -5 0 -19 62 -27 201 -27 l149 0 0 -35 0 -35 -49 0 c-38 0
-56 -6 -75 -22 -38 -35 -39 -86 -1 -123 19 -20 34 -25 75 -25 l50 0 0 -40 0
-40 -192 2 -193 3 -3 195 c-1 107 0 200 2 207 4 10 48 13 181 13 l175 0 0 -36z
m60 -219 l0 -65 -58 0 c-73 0 -102 18 -102 65 0 47 29 65 102 65 l58 0 0 -65z
M345 201 c-7 -12 12 -24 25 -16 11 7 4 25 -10 25 -5 0 -11 -4 -15 -9z"/>
</g>
</svg>

