<?xml version="1.0" standalone="no"?>
<!DOCTYPE svg PUBLIC "-//W3C//DTD SVG 20010904//EN"
 "http://www.w3.org/TR/2001/REC-SVG-20010904/DTD/svg10.dtd">
<svg version="1.0" xmlns="http://www.w3.org/2000/svg"
 width="48.000000pt" height="48.000000pt" viewBox="0 0 48.000000 48.000000"
 preserveAspectRatio="xMidYMid meet">
<metadata>
Created by potrace 1.16, written by Peter Selinger 2001-2019
</metadata>
<g transform="translate(0.000000,48.000000) scale(0.100000,-0.100000)"
fill="currentColor" stroke="none">
<path d="M66 448 c-36 -51 -7 -108 54 -108 29 0 43 6 54 22 36 51 7 108 -54
108 -29 0 -43 -6 -54 -22z m92 -10 c15 -15 15 -51 0 -66 -7 -7 -24 -12 -38
-12 -31 0 -50 17 -50 45 0 28 19 45 50 45 14 0 31 -5 38 -12z M306 448 c-9
-12 -16 -35 -16 -50 0 -16 -9 -37 -20 -48 -24 -24 -25 -30 -6 -30 8 0 21 9 29
21 9 13 17 16 22 10 3 -6 24 -11 45 -11 21 0 42 5 45 11 5 6 13 3 22 -10 8
-12 21 -21 29 -21 19 0 18 6 -6 30 -11 11 -20 32 -20 48 0 46 -25 72 -70 72
-29 0 -43 -6 -54 -22z m92 -10 c7 -7 12 -21 12 -33 0 -28 -19 -45 -50 -45 -31
0 -50 17 -50 45 0 28 19 45 50 45 14 0 31 -5 38 -12z M42 291 c-47 -48 -52
-141 -7 -141 14 0 25 -43 25 -94 0 -41 16 -56 60 -56 44 0 60 15 60 56 0 51
11 94 25 94 45 0 40 93 -7 141 -25 24 -38 29 -78 29 -40 0 -53 -5 -78 -29z
m68 -46 c0 -30 5 -55 10 -55 6 0 10 25 10 55 0 63 15 71 55 30 31 -30 35 -90
7 -97 -20 -5 -32 -50 -32 -115 0 -32 -2 -33 -40 -33 -38 0 -40 1 -40 33 0 65
-12 110 -32 115 -28 7 -24 67 7 97 40 41 55 33 55 -30z M281 291 c-25 -25 -21
-42 4 -21 9 7 17 11 19 9 1 -2 13 -21 25 -41 12 -21 26 -38 31 -38 5 0 19 17
31 38 31 50 29 49 45 28 21 -29 18 -83 -4 -88 -20 -5 -32 -50 -32 -115 0 -32
-2 -33 -39 -33 l-38 0 -6 67 c-7 73 -16 89 -44 79 -17 -7 -17 -8 0 -21 13 -9
20 -32 24 -72 7 -72 16 -83 62 -83 45 0 61 14 61 56 0 51 11 94 25 94 42 0 40
90 -3 137 -24 27 -25 27 -38 8 -7 -11 -20 -29 -29 -40 l-16 -20 -14 20 c-45
64 -40 60 -64 36z"/>
</g>
</svg>

