<?xml version="1.0" standalone="no"?>
<!DOCTYPE svg PUBLIC "-//W3C//DTD SVG 20010904//EN"
 "http://www.w3.org/TR/2001/REC-SVG-20010904/DTD/svg10.dtd">
<svg version="1.0" xmlns="http://www.w3.org/2000/svg"
 width="48.000000pt" height="48.000000pt" viewBox="0 0 48.000000 48.000000"
 preserveAspectRatio="xMidYMid meet">
<metadata>
Created by potrace 1.16, written by Peter Selinger 2001-2019
</metadata>
<g transform="translate(0.000000,48.000000) scale(0.100000,-0.100000)"
fill="currentColor" stroke="none">
<path d="M186 448 c-36 -51 -7 -108 54 -108 29 0 43 6 54 22 36 51 7 108 -54
108 -29 0 -43 -6 -54 -22z m92 -10 c7 -7 12 -21 12 -33 0 -28 -19 -45 -50 -45
-31 0 -50 17 -50 45 0 28 19 45 50 45 14 0 31 -5 38 -12z M52 398 c-15 -15
-15 -61 0 -76 7 -7 24 -12 38 -12 33 0 50 17 50 50 0 33 -17 50 -50 50 -14 0
-31 -5 -38 -12z m63 -38 c0 -18 -6 -26 -23 -28 -13 -2 -25 3 -28 12 -10 26 4
48 28 44 17 -2 23 -10 23 -28z M352 398 c-7 -7 -12 -24 -12 -38 0 -33 17 -50
50 -50 14 0 31 5 38 12 7 7 12 24 12 38 0 33 -17 50 -50 50 -14 0 -31 -5 -38
-12z m63 -38 c0 -18 -6 -26 -23 -28 -13 -2 -25 3 -28 12 -10 26 4 48 28 44 17
-2 23 -10 23 -28z M162 291 c-47 -48 -52 -141 -7 -141 14 0 25 -43 25 -94 0
-41 16 -56 60 -56 44 0 60 15 60 56 0 51 11 94 25 94 45 0 40 93 -7 141 -25
24 -38 29 -78 29 -40 0 -53 -5 -78 -29z m143 -16 c31 -30 35 -90 7 -97 -20 -5
-32 -50 -32 -115 0 -32 -2 -33 -40 -33 -38 0 -40 1 -40 33 0 65 -12 110 -32
115 -13 3 -18 14 -18 39 0 49 37 83 90 83 30 0 47 -6 65 -25z M33 268 c-12
-13 -24 -39 -28 -59 -5 -30 -3 -39 12 -50 13 -9 22 -32 26 -64 9 -59 16 -68
53 -63 35 4 35 22 0 26 -25 3 -36 25 -36 73 0 15 -7 32 -15 39 -31 26 -9 100
30 100 8 0 17 5 20 10 13 20 -42 9 -62 -12z M385 280 c3 -5 12 -10 20 -10 39
0 61 -74 30 -100 -8 -7 -15 -24 -15 -39 0 -48 -11 -70 -36 -73 -33 -4 -31 -22
2 -26 35 -5 43 5 51 63 4 32 13 55 26 64 40 28 -7 131 -60 131 -14 0 -21 -4
-18 -10z"/>
</g>
</svg>

