<?xml version="1.0" standalone="no"?>
<!DOCTYPE svg PUBLIC "-//W3C//DTD SVG 20010904//EN"
 "http://www.w3.org/TR/2001/REC-SVG-20010904/DTD/svg10.dtd">
<svg version="1.0" xmlns="http://www.w3.org/2000/svg"
 width="48.000000pt" height="48.000000pt" viewBox="0 0 48.000000 48.000000"
 preserveAspectRatio="xMidYMid meet">
<metadata>
Created by potrace 1.16, written by Peter Selinger 2001-2019
</metadata>
<g transform="translate(0.000000,48.000000) scale(0.100000,-0.100000)"
fill="currentColor" stroke="none">
<path d="M20 460 c-11 -11 -20 -29 -20 -40 0 -11 9 -29 20 -40 19 -19 33 -20
220 -20 187 0 201 1 220 20 11 11 20 29 20 40 0 11 -9 29 -20 40 -19 19 -33
20 -220 20 -187 0 -201 -1 -220 -20z m430 -40 l0 -30 -210 0 -210 0 0 30 0 30
210 0 210 0 0 -30z M20 280 c-11 -11 -20 -29 -20 -40 0 -11 9 -29 20 -40 19
-19 33 -20 220 -20 187 0 201 1 220 20 11 11 20 29 20 40 0 11 -9 29 -20 40
-19 19 -33 20 -220 20 -187 0 -201 -1 -220 -20z m430 -40 l0 -30 -210 0 -210
0 0 30 0 30 210 0 210 0 0 -30z M20 100 c-11 -11 -20 -29 -20 -40 0 -11 9 -29
20 -40 19 -19 33 -20 220 -20 187 0 201 1 220 20 11 11 20 29 20 40 0 11 -9
29 -20 40 -19 19 -33 20 -220 20 -187 0 -201 -1 -220 -20z m430 -40 l0 -30
-210 0 -210 0 0 30 0 30 210 0 210 0 0 -30z"/>
</g>
</svg>

