<?xml version="1.0" standalone="no"?>
<!DOCTYPE svg PUBLIC "-//W3C//DTD SVG 20010904//EN"
 "http://www.w3.org/TR/2001/REC-SVG-20010904/DTD/svg10.dtd">
<svg version="1.0" xmlns="http://www.w3.org/2000/svg"
 width="48.000000pt" height="48.000000pt" viewBox="0 0 48.000000 48.000000"
 preserveAspectRatio="xMidYMid meet">
<metadata>
Created by potrace 1.16, written by Peter Selinger 2001-2019
</metadata>
<g transform="translate(0.000000,48.000000) scale(0.100000,-0.100000)"
fill="currentColor" stroke="none">
<path d="M162 464 c-12 -8 -22 -23 -22 -33 0 -30 -26 -55 -71 -65 -57 -14 -71
-41 -66 -124 l3 -63 79 -72 79 -72 -55 -5 c-29 -3 -53 -9 -51 -15 1 -6 70 -10
182 -10 112 0 181 4 183 10 1 6 -21 12 -50 15 -61 6 -61 6 22 80 75 67 84 83
84 145 1 70 -16 98 -64 110 -55 14 -63 20 -75 64 -11 44 -26 51 -105 51 -30 0
-60 -6 -73 -16z m158 -39 c0 -36 39 -71 88 -80 l42 -7 0 -74 0 -75 -82 -79
c-78 -77 -83 -80 -128 -80 -44 0 -50 3 -128 79 l-82 79 0 75 0 75 42 7 c49 9
88 44 88 80 0 25 1 25 80 25 79 0 80 0 80 -25z M114 319 c-10 -17 13 -36 27
-22 12 12 4 33 -11 33 -5 0 -12 -5 -16 -11z M334 319 c-10 -17 13 -36 27 -22
12 12 4 33 -11 33 -5 0 -12 -5 -16 -11z M160 250 c0 -15 5 -20 18 -18 9 2 17
10 17 18 0 8 -8 16 -17 18 -13 2 -18 -3 -18 -18z M285 260 c-8 -14 3 -30 21
-30 8 0 14 9 14 20 0 21 -24 28 -35 10z M211 199 c-26 -46 -22 -84 9 -94 59
-19 85 31 49 94 -12 23 -26 41 -29 41 -3 0 -17 -18 -29 -41z m51 -23 c6 -14 8
-32 5 -40 -8 -21 -46 -21 -54 0 -7 18 12 64 27 64 6 0 15 -11 22 -24z"/>
</g>
</svg>

