<?xml version="1.0" standalone="no"?>
<!DOCTYPE svg PUBLIC "-//W3C//DTD SVG 20010904//EN"
 "http://www.w3.org/TR/2001/REC-SVG-20010904/DTD/svg10.dtd">
<svg version="1.0" xmlns="http://www.w3.org/2000/svg"
 width="48.000000pt" height="48.000000pt" viewBox="0 0 48.000000 48.000000"
 preserveAspectRatio="xMidYMid meet">
<metadata>
Created by potrace 1.16, written by Peter Selinger 2001-2019
</metadata>
<g transform="translate(0.000000,48.000000) scale(0.100000,-0.100000)"
fill="currentColor" stroke="none">
<path d="M162 464 c-12 -8 -22 -23 -22 -33 0 -25 -25 -57 -34 -43 -4 7 -15 12
-24 12 -13 0 -13 -3 -4 -12 10 -10 6 -15 -20 -24 -45 -15 -60 -46 -55 -122 l3
-63 79 -72 79 -72 -55 -5 c-29 -3 -53 -9 -51 -15 1 -6 70 -10 182 -10 112 0
181 4 183 10 1 6 -21 12 -50 15 -61 6 -61 6 22 80 75 67 84 83 84 145 1 64
-16 96 -57 109 -26 9 -30 14 -20 24 9 9 9 12 -4 12 -9 0 -20 -5 -23 -10 -10
-17 -24 -2 -35 39 -11 44 -26 51 -105 51 -30 0 -60 -6 -73 -16z m158 -37 c0
-12 6 -32 14 -43 14 -19 11 -24 -40 -75 l-54 -53 -54 53 c-51 51 -54 56 -40
75 8 11 14 31 14 43 0 22 3 23 80 23 77 0 80 -1 80 -23z m-150 -132 l53 -54
-17 -39 c-28 -62 -1 -105 53 -87 30 9 35 42 15 87 l-18 39 56 56 c54 54 57 55
97 48 l41 -7 0 -74 0 -75 -82 -79 c-78 -77 -83 -80 -128 -80 -44 0 -50 3 -128
79 l-82 79 0 75 c0 70 2 76 23 80 53 10 64 6 117 -48z m92 -109 c6 -14 8 -32
5 -40 -8 -21 -46 -21 -54 0 -7 18 12 64 27 64 6 0 15 -11 22 -24z"/>
</g>
</svg>

