<?xml version="1.0" standalone="no"?>
<!DOCTYPE svg PUBLIC "-//W3C//DTD SVG 20010904//EN"
 "http://www.w3.org/TR/2001/REC-SVG-20010904/DTD/svg10.dtd">
<svg version="1.0" xmlns="http://www.w3.org/2000/svg"
 width="48.000000pt" height="48.000000pt" viewBox="0 0 48.000000 48.000000"
 preserveAspectRatio="xMidYMid meet">
<metadata>
Created by potrace 1.16, written by Peter Selinger 2001-2019
</metadata>
<g transform="translate(0.000000,48.000000) scale(0.100000,-0.100000)"
fill="currentColor" stroke="none">
<path d="M165 467 c-10 -8 -23 -29 -29 -48 -7 -20 -18 -33 -26 -31 -7 2 -16
-1 -19 -6 -3 -5 -19 -13 -36 -19 -42 -14 -56 -46 -52 -121 l3 -63 79 -72 79
-72 -55 -5 c-29 -3 -53 -9 -51 -15 1 -6 70 -10 182 -10 112 0 181 4 183 10 1
6 -21 12 -50 15 -61 6 -61 6 22 80 75 67 84 83 84 145 1 63 -16 96 -54 108
-16 6 -33 14 -36 19 -3 5 -12 8 -20 6 -8 -2 -18 13 -27 38 -9 28 -21 44 -35
48 -40 11 -123 6 -142 -7z m155 -40 c0 -12 7 -32 15 -44 14 -20 13 -22 -25
-37 -51 -20 -89 -20 -140 0 -38 15 -39 17 -25 37 8 12 15 32 15 44 0 22 3 23
80 23 77 0 80 -1 80 -23z m-217 -109 c20 -48 66 -99 104 -114 28 -12 38 -12
65 0 42 17 83 61 103 109 11 28 20 37 31 33 9 -3 22 -6 30 -6 11 0 14 -17 14
-75 l0 -76 -82 -79 c-78 -77 -83 -80 -128 -80 -44 0 -50 3 -128 79 l-82 79 0
75 c0 81 -3 75 52 86 4 0 14 -14 21 -31z m52 12 c22 -11 59 -20 85 -20 26 0
63 9 85 20 22 11 41 20 42 20 10 0 -40 -80 -66 -104 -56 -54 -124 -28 -172 67
-11 20 -18 37 -16 37 1 0 20 -9 42 -20z M144 179 c-10 -17 13 -36 27 -22 12
12 4 33 -11 33 -5 0 -12 -5 -16 -11z M304 179 c-10 -17 13 -36 27 -22 12 12 4
33 -11 33 -5 0 -12 -5 -16 -11z M222 143 c2 -10 10 -18 18 -18 8 0 16 8 18 18
2 12 -3 17 -18 17 -15 0 -20 -5 -18 -17z"/>
</g>
</svg>

