<?xml version="1.0" standalone="no"?>
<!DOCTYPE svg PUBLIC "-//W3C//DTD SVG 20010904//EN"
 "http://www.w3.org/TR/2001/REC-SVG-20010904/DTD/svg10.dtd">
<svg version="1.0" xmlns="http://www.w3.org/2000/svg"
 width="48.000000pt" height="48.000000pt" viewBox="0 0 48.000000 48.000000"
 preserveAspectRatio="xMidYMid meet">
<metadata>
Created by potrace 1.16, written by Peter Selinger 2001-2019
</metadata>
<g transform="translate(0.000000,48.000000) scale(0.100000,-0.100000)"
fill="currentColor" stroke="none">
<path d="M42 470 c-37 -16 -43 -52 -40 -247 3 -159 5 -185 21 -200 16 -16 39
-18 217 -18 178 0 201 2 217 18 15 15 18 40 21 173 l3 156 -64 64 -64 64 -144
-1 c-79 0 -154 -4 -167 -9z m291 -66 c6 -57 14 -65 71 -71 l47 -6 -3 -146 -3
-146 -205 0 -205 0 -3 195 c-1 107 0 200 2 207 4 10 42 13 149 13 l144 0 6
-46z m117 -41 c0 -2 -20 -3 -45 -3 l-45 0 0 47 0 47 45 -44 c25 -24 45 -45 45
-47z M80 255 c0 -14 5 -25 10 -25 6 0 10 7 10 15 0 8 9 15 20 15 17 0 20 -7
20 -50 0 -38 -4 -50 -15 -50 -8 0 -15 -4 -15 -10 0 -5 18 -10 40 -10 22 0 40
5 40 10 0 6 -7 10 -15 10 -11 0 -15 12 -15 50 0 43 3 50 20 50 11 0 20 -7 20
-15 0 -8 5 -15 10 -15 6 0 10 11 10 25 0 24 -2 25 -70 25 -68 0 -70 -1 -70
-25z M280 270 c0 -6 27 -10 60 -10 33 0 60 4 60 10 0 6 -27 10 -60 10 -33 0
-60 -4 -60 -10z M280 180 c0 -6 27 -10 60 -10 33 0 60 4 60 10 0 6 -27 10 -60
10 -33 0 -60 -4 -60 -10z M80 90 c0 -6 60 -10 160 -10 100 0 160 4 160 10 0 6
-60 10 -160 10 -100 0 -160 -4 -160 -10z"/>
</g>
</svg>

