<?xml version="1.0" standalone="no"?>
<!DOCTYPE svg PUBLIC "-//W3C//DTD SVG 20010904//EN"
 "http://www.w3.org/TR/2001/REC-SVG-20010904/DTD/svg10.dtd">
<svg version="1.0" xmlns="http://www.w3.org/2000/svg"
 width="48.000000pt" height="48.000000pt" viewBox="0 0 48.000000 48.000000"
 preserveAspectRatio="xMidYMid meet">
<metadata>
Created by potrace 1.16, written by Peter Selinger 2001-2019
</metadata>
<g transform="translate(0.000000,48.000000) scale(0.100000,-0.100000)"
fill="currentColor" stroke="none">
<path d="M42 470 c-37 -16 -43 -52 -40 -247 3 -159 5 -185 21 -200 16 -16 39
-18 217 -18 178 0 201 2 217 18 15 15 18 40 21 173 l3 156 -64 64 -64 64 -144
-1 c-79 0 -154 -4 -167 -9z m291 -66 c6 -57 14 -65 71 -71 l47 -6 -3 -146 -3
-146 -205 0 -205 0 -3 195 c-1 107 0 200 2 207 4 10 42 13 149 13 l144 0 6
-46z m117 -41 c0 -2 -20 -3 -45 -3 l-45 0 0 47 0 47 45 -44 c25 -24 45 -45 45
-47z M154 387 c-3 -8 -4 -32 -2 -53 l3 -39 70 0 70 0 0 50 0 50 -68 3 c-51 2
-69 0 -73 -11z m116 -42 c0 -35 0 -35 -45 -35 -45 0 -45 0 -45 35 0 35 0 35
45 35 45 0 45 0 45 -35z M110 240 c0 -5 21 -10 46 -10 33 0 51 -5 60 -17 12
-17 13 -17 19 0 6 13 19 17 56 17 27 0 49 5 49 10 0 6 -45 10 -115 10 -70 0
-115 -4 -115 -10z M94 177 c-3 -8 -4 -32 -2 -53 l3 -39 55 0 55 0 0 50 0 50
-53 3 c-38 2 -54 -1 -58 -11z m86 -42 c0 -32 -2 -35 -30 -35 -28 0 -30 3 -30
35 0 32 2 35 30 35 28 0 30 -3 30 -35z M244 177 c-3 -8 -4 -32 -2 -53 l3 -39
55 0 55 0 0 50 0 50 -53 3 c-38 2 -54 -1 -58 -11z m86 -42 c0 -32 -2 -35 -30
-35 -28 0 -30 3 -30 35 0 32 2 35 30 35 28 0 30 -3 30 -35z"/>
</g>
</svg>

