<?xml version="1.0" standalone="no"?>
<!DOCTYPE svg PUBLIC "-//W3C//DTD SVG 20010904//EN"
 "http://www.w3.org/TR/2001/REC-SVG-20010904/DTD/svg10.dtd">
<svg version="1.0" xmlns="http://www.w3.org/2000/svg"
 width="48.000000pt" height="48.000000pt" viewBox="0 0 48.000000 48.000000"
 preserveAspectRatio="xMidYMid meet">
<metadata>
Created by potrace 1.16, written by Peter Selinger 2001-2019
</metadata>
<g transform="translate(0.000000,48.000000) scale(0.100000,-0.100000)"
fill="currentColor" stroke="none">
<path d="M335 460 c3 -5 13 -10 21 -10 30 0 11 -16 -54 -45 -162 -71 -236
-109 -221 -112 8 -2 79 26 158 62 137 62 143 64 137 40 -8 -33 7 -32 22 0 18
39 15 55 -14 65 -33 13 -57 13 -49 0z M346 314 c-13 -12 -16 -41 -16 -150 0
-112 -2 -134 -15 -134 -12 0 -15 17 -15 94 0 105 -10 126 -60 126 -50 0 -60
-21 -60 -126 0 -77 -3 -94 -15 -94 -11 0 -15 13 -15 54 0 63 -16 86 -60 86
-44 0 -60 -23 -60 -85 0 -30 -5 -57 -10 -60 -31 -19 21 -25 220 -25 199 0 251
6 220 25 -6 4 -10 60 -10 140 0 147 -6 165 -60 165 -16 0 -36 -7 -44 -16z m74
-149 l0 -135 -30 0 -30 0 0 135 0 135 30 0 30 0 0 -135z m-150 -40 l0 -95 -30
0 -30 0 0 95 0 95 30 0 30 0 0 -95z m-150 -40 c0 -54 0 -55 -30 -55 -30 0 -30
1 -30 55 0 54 0 55 30 55 30 0 30 -1 30 -55z"/>
</g>
</svg>

