<?xml version="1.0" standalone="no"?>
<!DOCTYPE svg PUBLIC "-//W3C//DTD SVG 20010904//EN"
 "http://www.w3.org/TR/2001/REC-SVG-20010904/DTD/svg10.dtd">
<svg version="1.0" xmlns="http://www.w3.org/2000/svg"
 width="48.000000pt" height="48.000000pt" viewBox="0 0 48.000000 48.000000"
 preserveAspectRatio="xMidYMid meet">
<metadata>
Created by potrace 1.16, written by Peter Selinger 2001-2019
</metadata>
<g transform="translate(0.000000,48.000000) scale(0.100000,-0.100000)"
fill="currentColor" stroke="none">
<path d="M42 447 c-30 -32 -43 -80 -32 -117 24 -82 238 -297 320 -320 61 -17
140 28 140 80 0 51 -113 135 -135 100 -14 -22 -45 -7 -98 49 -55 58 -68 83
-47 96 21 13 9 47 -31 90 -48 52 -83 58 -117 22z m102 -36 c37 -38 38 -40 25
-75 l-13 -37 72 -71 71 -72 37 13 c35 13 37 12 75 -25 46 -45 49 -65 13 -93
-44 -35 -92 -28 -160 23 -68 50 -158 141 -203 205 -37 53 -41 105 -10 145 28
36 48 33 93 -13z"/>
</g>
</svg>

