<?xml version="1.0" standalone="no"?>
<!DOCTYPE svg PUBLIC "-//W3C//DTD SVG 20010904//EN"
 "http://www.w3.org/TR/2001/REC-SVG-20010904/DTD/svg10.dtd">
<svg version="1.0" xmlns="http://www.w3.org/2000/svg"
 width="48.000000pt" height="48.000000pt" viewBox="0 0 48.000000 48.000000"
 preserveAspectRatio="xMidYMid meet">
<metadata>
Created by potrace 1.16, written by Peter Selinger 2001-2019
</metadata>
<g transform="translate(0.000000,48.000000) scale(0.100000,-0.100000)"
fill="currentColor" stroke="none">
<path d="M20 460 c-19 -19 -20 -33 -20 -220 0 -187 1 -201 20 -220 19 -19 33
-20 220 -20 187 0 201 1 220 20 19 19 20 33 20 220 0 187 -1 201 -20 220 -19
19 -33 20 -220 20 -187 0 -201 -1 -220 -20z m430 -220 l0 -210 -210 0 -210 0
0 210 0 210 210 0 210 0 0 -210z M99 381 c-41 -41 -41 -101 0 -142 41 -40 91
-40 132 0 62 62 20 171 -66 171 -27 0 -44 -8 -66 -29z m84 -99 c26 -27 29 -34
17 -42 -24 -16 -55 -11 -84 11 -37 29 -37 89 2 119 l27 22 3 -39 c2 -26 13
-48 35 -71z m40 80 c17 -15 24 -81 10 -95 -3 -4 -17 3 -30 15 -17 16 -23 32
-23 65 0 46 4 48 43 15z M320 370 c0 -5 20 -10 45 -10 25 0 45 5 45 10 0 6
-20 10 -45 10 -25 0 -45 -4 -45 -10z M320 300 c0 -5 20 -10 45 -10 25 0 45 5
45 10 0 6 -20 10 -45 10 -25 0 -45 -4 -45 -10z M360 175 l-44 -45 -26 25 c-14
14 -31 25 -36 25 -15 0 -99 -89 -91 -97 4 -4 27 12 50 35 l43 42 24 -25 c13
-14 28 -25 35 -25 17 0 108 97 98 103 -6 4 -29 -14 -53 -38z"/>
</g>
</svg>

