<?xml version="1.0" standalone="no"?>
<!DOCTYPE svg PUBLIC "-//W3C//DTD SVG 20010904//EN"
 "http://www.w3.org/TR/2001/REC-SVG-20010904/DTD/svg10.dtd">
<svg version="1.0" xmlns="http://www.w3.org/2000/svg"
 width="48.000000pt" height="48.000000pt" viewBox="0 0 48.000000 48.000000"
 preserveAspectRatio="xMidYMid meet">
<metadata>
Created by potrace 1.16, written by Peter Selinger 2001-2019
</metadata>
<g transform="translate(0.000000,48.000000) scale(0.100000,-0.100000)"
fill="currentColor" stroke="none">
<path d="M196 454 c-21 -20 -21 -68 0 -85 14 -11 13 -15 -8 -30 -12 -10 -19
-21 -15 -25 4 -4 13 -2 19 4 15 15 81 15 96 0 6 -6 15 -8 19 -4 4 4 -3 15 -15
25 -21 15 -22 19 -8 30 21 17 21 65 0 85 -8 9 -28 16 -44 16 -16 0 -36 -7 -44
-16z m79 -38 c0 -52 -63 -62 -73 -12 -7 33 6 47 40 44 29 -3 33 -7 33 -32z
M87 264 c-11 -12 3 -24 28 -24 17 0 25 -6 27 -22 2 -12 9 -23 16 -26 9 -3 11
3 6 22 l-6 26 82 0 82 0 -6 -26 c-5 -19 -3 -25 6 -22 7 3 14 14 16 26 2 14 12
22 30 24 15 2 26 8 25 13 -3 11 -295 20 -306 9z M36 154 c-21 -20 -21 -68 0
-85 14 -11 13 -15 -8 -30 -12 -10 -19 -21 -15 -25 4 -4 13 -2 19 4 15 15 81
15 96 0 6 -6 15 -8 19 -4 4 4 -3 15 -15 25 -21 15 -22 19 -8 30 21 17 21 65 0
85 -8 9 -28 16 -44 16 -16 0 -36 -7 -44 -16z m80 -29 c11 -43 -34 -73 -64 -43
-13 13 -16 50 -5 61 3 4 19 7 34 7 22 0 30 -6 35 -25z M196 154 c-21 -20 -21
-68 0 -85 14 -11 13 -15 -8 -30 -12 -10 -19 -21 -15 -25 4 -4 13 -2 19 4 15
15 81 15 96 0 6 -6 15 -8 19 -4 4 4 -3 15 -15 25 -21 15 -22 19 -8 30 21 17
21 65 0 85 -8 9 -28 16 -44 16 -16 0 -36 -7 -44 -16z m79 -38 c0 -52 -63 -62
-73 -12 -7 33 6 47 40 44 29 -3 33 -7 33 -32z M356 154 c-21 -20 -21 -68 0
-85 14 -11 13 -15 -8 -30 -12 -10 -19 -21 -15 -25 4 -4 13 -2 19 4 15 15 81
15 96 0 6 -6 15 -8 19 -4 4 4 -3 15 -15 25 -21 15 -22 19 -8 30 21 17 21 65 0
85 -8 9 -28 16 -44 16 -16 0 -36 -7 -44 -16z m79 -38 c0 -52 -63 -62 -73 -12
-7 33 6 47 40 44 29 -3 33 -7 33 -32z"/>
</g>
</svg>

