<?xml version="1.0" standalone="no"?>
<!DOCTYPE svg PUBLIC "-//W3C//DTD SVG 20010904//EN"
 "http://www.w3.org/TR/2001/REC-SVG-20010904/DTD/svg10.dtd">
<svg version="1.0" xmlns="http://www.w3.org/2000/svg"
 width="48.000000pt" height="48.000000pt" viewBox="0 0 48.000000 48.000000"
 preserveAspectRatio="xMidYMid meet">
<metadata>
Created by potrace 1.16, written by Peter Selinger 2001-2019
</metadata>
<g transform="translate(0.000000,48.000000) scale(0.100000,-0.100000)"
fill="currentColor" stroke="none">
<path d="M32 469 c-36 -14 -28 -56 23 -122 25 -32 50 -55 55 -52 5 3 -11 31
-35 61 -57 69 -59 94 -9 94 49 0 90 -42 99 -101 l7 -44 68 0 68 0 7 44 c9 59
50 101 99 101 50 0 48 -25 -9 -94 -24 -30 -40 -58 -36 -61 10 -5 69 62 90 102
29 56 -1 87 -69 72 -42 -10 -75 -45 -91 -99 -12 -39 -13 -40 -59 -40 -46 0
-47 1 -59 40 -6 22 -22 51 -34 65 -25 29 -82 46 -115 34z M117 243 c-4 -3 -7
-18 -7 -32 0 -14 -7 -35 -15 -45 -35 -46 3 -126 58 -126 14 0 30 -7 37 -15 16
-20 84 -20 100 0 7 8 23 15 37 15 55 0 92 78 59 126 -8 11 -16 33 -18 49 -1
16 -8 30 -13 32 -16 5 -6 -74 11 -88 18 -15 18 -49 -2 -77 -23 -33 -78 -30
-101 4 -16 24 -16 27 0 36 28 15 20 23 -23 23 -43 0 -51 -8 -23 -23 16 -9 16
-12 0 -36 -23 -34 -78 -37 -101 -4 -20 28 -20 62 -2 77 8 7 16 30 18 51 3 38
-1 48 -15 33z m146 -187 c26 -20 21 -26 -23 -26 -44 0 -49 6 -22 26 21 16 23
16 45 0z M173 208 c2 -7 10 -13 17 -13 7 0 15 6 18 13 2 7 -5 12 -18 12 -13 0
-20 -5 -17 -12z M280 205 c0 -8 7 -15 15 -15 8 0 15 7 15 15 0 8 -7 15 -15 15
-8 0 -15 -7 -15 -15z"/>
</g>
</svg>

