<?xml version="1.0" standalone="no"?>
<!DOCTYPE svg PUBLIC "-//W3C//DTD SVG 20010904//EN"
 "http://www.w3.org/TR/2001/REC-SVG-20010904/DTD/svg10.dtd">
<svg version="1.0" xmlns="http://www.w3.org/2000/svg"
 width="48.000000pt" height="48.000000pt" viewBox="0 0 48.000000 48.000000"
 preserveAspectRatio="xMidYMid meet">
<metadata>
Created by potrace 1.16, written by Peter Selinger 2001-2019
</metadata>
<g transform="translate(0.000000,48.000000) scale(0.100000,-0.100000)"
fill="currentColor" stroke="none">
<path d="M196 454 c-21 -20 -21 -68 0 -85 14 -11 13 -15 -8 -30 -12 -10 -19
-21 -15 -25 4 -4 13 -2 19 4 15 15 81 15 96 0 6 -6 15 -8 19 -4 4 4 -3 15 -15
25 -21 15 -22 19 -8 30 21 17 21 65 0 85 -8 9 -28 16 -44 16 -16 0 -36 -7 -44
-16z m79 -38 c0 -52 -63 -62 -73 -12 -7 33 6 47 40 44 29 -3 33 -7 33 -32z
M42 324 c-26 -18 -30 -65 -6 -89 15 -15 15 -17 -5 -31 -30 -21 -27 -40 4 -20
13 9 36 16 50 16 14 0 25 5 25 11 0 6 7 17 15 25 35 35 5 104 -45 104 -9 0
-26 -7 -38 -16z m68 -19 c7 -9 10 -25 6 -40 -6 -22 -11 -26 -39 -23 -25 2 -33
8 -35 26 -7 44 41 70 68 37z M362 324 c-26 -18 -30 -65 -7 -88 8 -8 15 -19 15
-25 0 -6 12 -11 28 -11 15 0 38 -7 50 -16 12 -8 22 -11 22 -5 0 5 -10 17 -21
25 -20 14 -20 16 -5 31 35 36 7 105 -44 105 -9 0 -26 -7 -38 -16z m68 -18 c6
-8 10 -25 8 -38 -2 -19 -9 -23 -38 -23 -29 0 -36 4 -38 23 -6 44 41 70 68 38z
M187 264 c-21 -6 -37 -43 -37 -83 0 -28 -2 -29 -60 -33 -33 -2 -65 -9 -71 -15
-17 -17 -24 -100 -9 -118 19 -22 441 -22 460 0 15 18 8 101 -9 118 -6 6 -37
13 -70 15 l-59 4 -5 45 c-2 25 -9 49 -15 55 -12 12 -97 20 -125 12z m113 -129
l0 -105 -60 0 -60 0 0 105 0 105 60 0 60 0 0 -105z m-150 -60 l0 -45 -60 0
-60 0 0 45 0 45 60 0 60 0 0 -45z m300 0 l0 -45 -60 0 -60 0 0 45 0 45 60 0
60 0 0 -45z"/>
</g>
</svg>

