<?xml version="1.0" standalone="no"?>
<!DOCTYPE svg PUBLIC "-//W3C//DTD SVG 20010904//EN"
 "http://www.w3.org/TR/2001/REC-SVG-20010904/DTD/svg10.dtd">
<svg version="1.0" xmlns="http://www.w3.org/2000/svg"
 width="48.000000pt" height="48.000000pt" viewBox="0 0 48.000000 48.000000"
 preserveAspectRatio="xMidYMid meet">
<metadata>
Created by potrace 1.16, written by Peter Selinger 2001-2019
</metadata>
<g transform="translate(0.000000,48.000000) scale(0.100000,-0.100000)"
fill="currentColor" stroke="none">
<path d="M212 445 c-8 -17 -20 -25 -37 -25 -35 0 -42 -26 -16 -54 19 -20 20
-27 10 -50 -18 -39 0 -52 40 -32 28 15 34 15 62 0 40 -20 58 -7 40 32 -10 23
-9 30 10 50 26 28 19 54 -16 54 -17 0 -29 8 -37 25 -6 14 -19 25 -28 25 -9 0
-22 -11 -28 -25z m48 -25 c7 -12 21 -20 37 -20 l26 0 -23 -25 c-20 -22 -22
-28 -11 -51 10 -24 10 -26 -6 -18 -23 10 -63 10 -86 0 -16 -8 -16 -6 -6 18 11
23 9 29 -11 51 l-23 25 26 0 c16 0 30 8 37 20 6 11 15 20 20 20 5 0 14 -9 20
-20z M78 415 c-7 -16 -19 -25 -35 -25 -30 0 -40 -26 -19 -49 13 -14 16 -28 11
-54 -8 -42 6 -54 37 -33 12 9 31 16 42 16 15 0 17 3 8 12 -9 9 -18 9 -38 -1
-33 -15 -39 -9 -23 20 10 20 9 25 -10 40 -27 22 -27 29 2 29 20 0 57 42 57 64
0 16 -22 3 -32 -19z M370 434 c0 -3 8 -19 17 -35 12 -19 25 -29 42 -29 l24 0
-22 -24 c-19 -20 -21 -28 -11 -46 15 -28 9 -34 -24 -19 -20 10 -29 10 -38 1
-9 -9 -7 -12 8 -12 11 0 30 -7 42 -16 31 -21 45 -9 37 33 -5 26 -2 40 11 54
21 23 11 49 -19 49 -16 0 -28 9 -35 25 -10 22 -32 35 -32 19z M4 196 c-9 -23
0 -51 16 -49 8 1 40 11 70 22 77 28 223 28 300 0 76 -28 84 -28 88 0 5 31 -17
54 -24 25 -5 -20 -6 -20 -57 -3 -72 25 -242 25 -314 0 -41 -14 -53 -15 -53 -5
0 20 -19 27 -26 10z M158 150 c-4 -8 -9 -27 -12 -41 -3 -15 -15 -37 -25 -50
l-20 -24 -24 30 c-14 16 -22 36 -19 44 4 10 -2 9 -21 -5 -33 -23 -34 -32 -4
-36 14 -2 23 -11 25 -26 5 -31 25 -37 55 -17 32 21 59 78 55 113 -3 18 -6 22
-10 12z M310 135 c0 -58 60 -135 95 -121 7 2 15 15 17 28 2 15 11 24 26 26 28
4 28 13 -4 35 -18 13 -24 15 -22 5 3 -15 -30 -68 -43 -68 -14 0 -49 62 -49 87
0 12 -4 25 -10 28 -6 4 -10 -5 -10 -20z"/>
</g>
</svg>

