<?xml version="1.0" standalone="no"?>
<!DOCTYPE svg PUBLIC "-//W3C//DTD SVG 20010904//EN"
 "http://www.w3.org/TR/2001/REC-SVG-20010904/DTD/svg10.dtd">
<svg version="1.0" xmlns="http://www.w3.org/2000/svg"
 width="48.000000pt" height="48.000000pt" viewBox="0 0 48.000000 48.000000"
 preserveAspectRatio="xMidYMid meet">
<metadata>
Created by potrace 1.16, written by Peter Selinger 2001-2019
</metadata>
<g transform="translate(0.000000,48.000000) scale(0.100000,-0.100000)"
fill="currentColor" stroke="none">
<path d="M249 416 c-25 -58 -40 -66 -115 -66 -18 0 -35 -4 -39 -9 -3 -5 15
-29 40 -52 25 -23 45 -51 45 -61 0 -24 16 -23 23 2 4 14 -6 30 -34 55 -21 19
-39 37 -39 40 0 3 11 5 24 5 66 0 84 11 107 64 l22 51 23 -51 c23 -53 42 -64
112 -64 26 0 25 -1 -15 -42 -41 -41 -42 -45 -33 -83 16 -67 14 -69 -34 -41
-52 30 -56 31 -82 10 -18 -15 -18 -15 6 -10 16 4 42 -5 79 -25 29 -17 57 -27
62 -22 4 4 2 34 -6 66 l-13 58 44 41 c54 49 56 68 10 68 -78 0 -94 9 -117 66
-13 30 -28 54 -35 54 -6 0 -22 -24 -35 -54z M7 193 c-9 -8 -9 -168 0 -176 3
-4 11 -2 18 3 6 5 74 11 151 12 132 3 139 4 142 24 4 29 -29 55 -80 61 -29 4
-50 14 -63 30 -16 19 -33 25 -80 30 -33 3 -65 10 -71 14 -6 5 -14 6 -17 2z
m152 -57 c10 -12 8 -15 -14 -18 -14 -2 -27 -7 -28 -13 -1 -6 32 -11 80 -13 56
-2 85 -7 93 -17 11 -13 -5 -15 -124 -15 l-136 0 0 45 0 45 59 0 c38 0 63 -5
70 -14z"/>
</g>
</svg>

