<?xml version="1.0" standalone="no"?>
<!DOCTYPE svg PUBLIC "-//W3C//DTD SVG 20010904//EN"
 "http://www.w3.org/TR/2001/REC-SVG-20010904/DTD/svg10.dtd">
<svg version="1.0" xmlns="http://www.w3.org/2000/svg"
 width="48.000000pt" height="48.000000pt" viewBox="0 0 48.000000 48.000000"
 preserveAspectRatio="xMidYMid meet">
<metadata>
Created by potrace 1.16, written by Peter Selinger 2001-2019
</metadata>
<g transform="translate(0.000000,48.000000) scale(0.100000,-0.100000)"
fill="currentColor" stroke="none">
<path d="M205 411 c-17 -39 -36 -51 -82 -51 -32 0 -29 -28 7 -65 28 -29 29
-32 18 -73 -15 -59 -2 -70 51 -43 l41 21 41 -21 c52 -26 64 -16 49 41 -11 41
-10 44 21 76 39 40 33 59 -20 68 -35 5 -44 12 -61 46 -11 22 -26 40 -34 40 -7
0 -21 -18 -31 -39z m58 -26 c14 -29 23 -36 57 -41 l41 -7 -32 -33 c-30 -31
-31 -35 -21 -73 5 -23 8 -41 6 -41 -2 0 -19 8 -39 17 -33 16 -37 16 -71 -1
-20 -9 -38 -15 -40 -13 -2 2 1 20 7 41 10 36 9 40 -21 71 l-31 32 41 7 c34 5
43 12 57 41 9 19 20 35 23 35 3 0 14 -16 23 -35z M85 221 c-4 -13 -17 -21 -38
-23 -40 -4 -47 -31 -17 -64 21 -21 22 -26 10 -54 -19 -45 -1 -59 45 -37 33 16
37 16 70 0 47 -23 62 -9 44 41 -7 20 -17 36 -21 36 -11 0 -10 -18 3 -42 15
-28 7 -31 -30 -11 -30 17 -32 17 -62 0 -18 -10 -33 -16 -35 -14 -2 2 2 17 8
35 11 28 10 34 -10 55 -29 30 -28 37 4 37 27 0 53 24 54 48 0 19 -18 14 -25
-7z M370 228 c1 -24 27 -48 54 -48 32 0 33 -7 4 -37 -20 -21 -21 -27 -10 -55
6 -18 10 -33 8 -35 -2 -2 -17 4 -35 14 -30 17 -32 17 -62 0 -37 -20 -45 -17
-30 11 13 24 14 42 3 42 -4 0 -14 -16 -21 -36 -18 -50 -3 -64 44 -41 33 16 37
16 70 0 46 -22 64 -8 45 37 -12 28 -11 33 10 54 30 33 23 60 -17 64 -21 2 -34
10 -38 23 -7 21 -25 26 -25 7z"/>
</g>
</svg>

