<?xml version="1.0" standalone="no"?>
<!DOCTYPE svg PUBLIC "-//W3C//DTD SVG 20010904//EN"
 "http://www.w3.org/TR/2001/REC-SVG-20010904/DTD/svg10.dtd">
<svg version="1.0" xmlns="http://www.w3.org/2000/svg"
 width="48.000000pt" height="48.000000pt" viewBox="0 0 48.000000 48.000000"
 preserveAspectRatio="xMidYMid meet">
<metadata>
Created by potrace 1.16, written by Peter Selinger 2001-2019
</metadata>
<g transform="translate(0.000000,48.000000) scale(0.100000,-0.100000)"
fill="currentColor" stroke="none">
<path d="M306 471 c-40 -16 -40 -77 0 -87 29 -8 32 -31 4 -36 -45 -7 -22 -23
36 -26 l62 -3 6 -37 c3 -20 6 -56 6 -79 l0 -43 -181 0 -182 0 6 76 c4 57 10
79 24 90 17 14 16 14 -7 12 -20 -3 -26 -10 -32 -43 -4 -22 -7 -60 -7 -84 -1
-28 -8 -52 -19 -64 -21 -23 -24 -109 -4 -129 19 -19 425 -19 444 0 20 20 17
106 -4 129 -11 12 -18 36 -19 64 0 24 -3 62 -7 84 -6 33 -12 41 -40 49 -38 11
-42 31 -8 40 41 10 41 71 0 87 -29 11 -51 11 -78 0z m84 -46 c0 -23 -4 -25
-45 -25 -41 0 -45 2 -45 25 0 23 4 25 45 25 41 0 45 -2 45 -25z m60 -345 l0
-50 -210 0 -210 0 0 50 0 50 210 0 210 0 0 -50z M190 80 c0 -5 23 -10 50 -10
28 0 50 5 50 10 0 6 -22 10 -50 10 -27 0 -50 -4 -50 -10z M153 400 c-19 -8
-23 -17 -23 -54 0 -25 -5 -48 -10 -51 -23 -14 5 -25 64 -25 66 0 82 6 67 24
-6 6 -11 34 -13 61 -3 48 -4 50 -33 52 -16 1 -40 -2 -52 -7z m57 -55 c0 -41
-2 -45 -25 -45 -22 0 -25 4 -25 38 0 43 5 52 32 52 15 0 18 -8 18 -45z M123
208 c2 -7 10 -13 17 -13 7 0 15 6 18 13 2 7 -5 12 -18 12 -13 0 -20 -5 -17
-12z M225 211 c-3 -5 -1 -12 5 -16 12 -7 30 2 30 16 0 12 -27 12 -35 0z M325
211 c-3 -5 -1 -12 5 -16 12 -7 30 2 30 16 0 12 -27 12 -35 0z"/>
</g>
</svg>

