<?xml version="1.0" standalone="no"?>
<!DOCTYPE svg PUBLIC "-//W3C//DTD SVG 20010904//EN"
 "http://www.w3.org/TR/2001/REC-SVG-20010904/DTD/svg10.dtd">
<svg version="1.0" xmlns="http://www.w3.org/2000/svg"
 width="48.000000pt" height="48.000000pt" viewBox="0 0 48.000000 48.000000"
 preserveAspectRatio="xMidYMid meet">
<metadata>
Created by potrace 1.16, written by Peter Selinger 2001-2019
</metadata>
<g transform="translate(0.000000,48.000000) scale(0.100000,-0.100000)"
fill="currentColor" stroke="none">
<path d="M140 468 c-42 -22 -50 -53 -50 -190 0 -127 0 -128 -24 -134 -34 -8
-56 -35 -63 -78 -9 -58 5 -66 117 -66 71 0 101 4 109 14 7 8 37 16 71 18 33 2
66 10 73 17 8 8 13 58 15 151 l4 140 33 0 c42 0 59 20 51 64 -12 62 -32 71
-180 74 -92 2 -138 -1 -156 -10z m220 -213 c0 -157 -3 -195 -14 -195 -7 0 -17
15 -22 32 -13 44 -45 58 -131 58 l-73 0 0 138 c0 94 4 142 12 150 8 8 49 12
120 12 l108 0 0 -195z m78 183 c7 -7 12 -25 12 -40 0 -24 -4 -28 -30 -28 -28
0 -30 2 -30 40 0 32 4 40 18 40 10 0 23 -5 30 -12z m-222 -340 c-3 -13 -6 -33
-6 -45 0 -22 -3 -23 -90 -23 l-90 0 0 33 c0 50 14 57 108 57 83 0 84 0 78 -22z
m84 -4 c14 -35 14 -34 -25 -34 -30 0 -35 3 -35 23 0 29 7 37 32 37 11 0 23
-11 28 -26z M175 360 c-3 -5 0 -13 8 -16 23 -9 122 0 122 11 0 14 -122 19
-130 5z M175 290 c-3 -5 0 -13 8 -16 23 -9 122 0 122 11 0 14 -122 19 -130 5z
M175 220 c-3 -5 0 -13 8 -16 23 -9 122 0 122 11 0 14 -122 19 -130 5z"/>
</g>
</svg>

