<?xml version="1.0" standalone="no"?>
<!DOCTYPE svg PUBLIC "-//W3C//DTD SVG 20010904//EN"
 "http://www.w3.org/TR/2001/REC-SVG-20010904/DTD/svg10.dtd">
<svg version="1.0" xmlns="http://www.w3.org/2000/svg"
 width="48.000000pt" height="48.000000pt" viewBox="0 0 48.000000 48.000000"
 preserveAspectRatio="xMidYMid meet">
<metadata>
Created by potrace 1.16, written by Peter Selinger 2001-2019
</metadata>
<g transform="translate(0.000000,48.000000) scale(0.100000,-0.100000)"
fill="currentColor" stroke="none">
<path d="M50 240 c0 -126 3 -230 7 -230 4 0 20 12 35 27 l28 27 30 -29 30 -29
30 29 30 29 30 -29 30 -29 30 29 30 29 28 -27 c15 -15 31 -27 35 -27 4 0 7
104 7 230 0 127 -3 230 -7 230 -4 0 -20 -12 -35 -27 l-28 -27 -30 29 -30 29
-30 -29 -30 -29 -30 29 -30 29 -30 -29 -30 -29 -28 27 c-15 15 -31 27 -35 27
-4 0 -7 -103 -7 -230z m162 183 l28 -27 30 29 30 29 30 -29 30 -29 25 24 25
23 0 -203 0 -203 -25 23 -25 24 -30 -29 -30 -29 -30 29 -30 29 -30 -29 -30
-29 -30 29 -30 29 -25 -24 -25 -23 0 203 0 203 25 -23 26 -24 27 27 c14 15 29
27 31 27 3 0 18 -12 33 -27z M115 350 c-3 -5 0 -13 8 -16 23 -9 122 0 122 11
0 14 -122 19 -130 5z M325 350 c-8 -12 20 -24 35 -15 6 3 8 11 5 16 -8 12 -32
12 -40 -1z M287 257 c-22 -23 -25 -32 -17 -48 6 -11 24 -22 41 -26 37 -7 43
-17 23 -34 -13 -10 -20 -10 -36 0 -30 19 -35 4 -7 -25 l25 -24 27 28 c33 34
28 60 -14 69 -37 7 -58 30 -35 39 9 3 27 3 41 0 31 -8 32 0 2 28 l-23 21 -27
-28z M115 260 c-3 -5 0 -13 9 -16 21 -8 71 -1 71 11 0 14 -72 19 -80 5z M115
170 c-3 -5 0 -13 9 -16 21 -8 71 -1 71 11 0 14 -72 19 -80 5z"/>
</g>
</svg>

