<?xml version="1.0" standalone="no"?>
<!DOCTYPE svg PUBLIC "-//W3C//DTD SVG 20010904//EN"
 "http://www.w3.org/TR/2001/REC-SVG-20010904/DTD/svg10.dtd">
<svg version="1.0" xmlns="http://www.w3.org/2000/svg"
 width="48.000000pt" height="48.000000pt" viewBox="0 0 48.000000 48.000000"
 preserveAspectRatio="xMidYMid meet">
<metadata>
Created by potrace 1.16, written by Peter Selinger 2001-2019
</metadata>
<g transform="translate(0.000000,48.000000) scale(0.100000,-0.100000)"
fill="currentColor" stroke="none">
<path d="M204 470 c-53 -8 -129 -53 -151 -91 l-18 -31 -5 32 c-7 45 -25 37
-25 -12 l0 -43 53 -3 c31 -2 52 1 52 7 0 6 -14 11 -31 11 l-32 0 25 32 c14 18
45 43 69 56 64 34 161 28 220 -13 64 -45 91 -104 87 -187 -4 -82 -39 -139
-108 -176 -38 -20 -56 -23 -112 -20 -87 5 -141 40 -179 117 -15 29 -29 48 -33
43 -17 -29 50 -121 113 -155 141 -77 311 1 340 157 30 163 -100 299 -265 276z
M230 371 c0 -11 -9 -23 -20 -26 -21 -7 -34 -41 -28 -71 3 -16 16 -26 78 -54 8
-4 15 -20 15 -36 0 -25 -4 -29 -33 -32 -27 -3 -34 1 -42 24 -13 32 -25 25 -16
-10 3 -14 15 -28 26 -31 11 -3 20 -15 20 -26 0 -10 5 -19 10 -19 6 0 10 9 10
19 0 11 9 23 20 26 21 7 34 41 28 71 -3 16 -16 26 -78 54 -8 4 -15 20 -15 36
0 25 4 29 33 32 27 3 34 -1 42 -24 13 -32 25 -25 16 10 -3 14 -15 28 -26 31
-11 3 -20 15 -20 26 0 10 -4 19 -10 19 -5 0 -10 -9 -10 -19z"/>
</g>
</svg>

