<?xml version="1.0" standalone="no"?>
<!DOCTYPE svg PUBLIC "-//W3C//DTD SVG 20010904//EN"
 "http://www.w3.org/TR/2001/REC-SVG-20010904/DTD/svg10.dtd">
<svg version="1.0" xmlns="http://www.w3.org/2000/svg"
 width="48.000000pt" height="48.000000pt" viewBox="0 0 48.000000 48.000000"
 preserveAspectRatio="xMidYMid meet">
<metadata>
Created by potrace 1.16, written by Peter Selinger 2001-2019
</metadata>
<g transform="translate(0.000000,48.000000) scale(0.100000,-0.100000)"
fill="currentColor" stroke="none">
<path d="M203 470 c-109 -16 -195 -117 -195 -230 0 -143 133 -255 272 -230 65
12 129 58 162 118 95 168 -45 369 -239 342z m158 -55 c64 -45 91 -104 87 -187
-4 -82 -39 -139 -108 -176 -38 -20 -56 -23 -112 -20 -82 4 -139 39 -176 108
-20 38 -23 56 -20 112 4 82 39 139 108 176 38 20 56 23 112 20 55 -3 75 -9
109 -33z M137 342 c-23 -25 -21 -51 5 -79 l21 -23 -21 -23 c-27 -28 -28 -58
-4 -80 25 -23 51 -21 79 5 l23 21 23 -21 c28 -27 58 -28 80 -4 23 25 21 51 -5
79 l-21 23 21 23 c27 28 28 58 4 80 -25 23 -51 21 -79 -5 l-23 -21 -23 21
c-28 27 -58 28 -80 4z m68 -22 c23 -26 43 -25 71 1 42 39 84 -3 45 -45 -27
-28 -27 -44 0 -72 39 -42 -3 -84 -45 -45 -28 27 -44 27 -72 0 -42 -39 -84 3
-45 45 26 28 27 48 1 71 -23 21 -25 36 -8 53 17 17 32 15 53 -8z"/>
</g>
</svg>

