<?xml version="1.0" standalone="no"?>
<!DOCTYPE svg PUBLIC "-//W3C//DTD SVG 20010904//EN"
 "http://www.w3.org/TR/2001/REC-SVG-20010904/DTD/svg10.dtd">
<svg version="1.0" xmlns="http://www.w3.org/2000/svg"
 width="48.000000pt" height="48.000000pt" viewBox="0 0 48.000000 48.000000"
 preserveAspectRatio="xMidYMid meet">
<metadata>
Created by potrace 1.16, written by Peter Selinger 2001-2019
</metadata>
<g transform="translate(0.000000,48.000000) scale(0.100000,-0.100000)"
fill="currentColor" stroke="none">
<path d="M116 464 c-22 -21 -20 -43 5 -70 l20 -22 -23 -5 c-34 -9 -78 -59 -87
-98 -14 -64 16 -130 72 -161 35 -18 29 1 -12 40 -37 35 -41 44 -41 86 0 41 5
53 34 82 28 28 41 34 78 34 24 0 53 -7 64 -15 34 -25 52 -17 21 10 -15 14 -35
25 -44 25 -14 0 -13 4 5 23 40 42 18 87 -43 87 -18 0 -41 -7 -49 -16z m90 -25
c3 -6 -4 -22 -18 -35 l-24 -25 -23 25 c-13 13 -20 29 -16 35 8 14 72 14 81 0z
M109 291 c-17 -17 -29 -40 -29 -55 0 -26 44 -86 55 -74 4 3 -3 16 -14 27 -55
55 11 138 80 101 12 -7 19 -7 19 -1 0 14 -34 31 -60 31 -12 0 -35 -13 -51 -29z
M281 279 c-43 -9 -90 -56 -100 -100 -30 -137 133 -230 231 -132 98 99 7 261
-131 232z m115 -53 c29 -29 34 -41 34 -81 0 -40 -5 -52 -34 -81 -29 -29 -41
-34 -81 -34 -40 0 -52 5 -81 34 -29 29 -34 41 -34 81 0 40 5 52 34 81 29 29
41 34 81 34 40 0 52 -5 81 -34z M259 201 c-35 -36 -37 -70 -5 -107 18 -21 32
-28 60 -28 76 0 110 90 52 140 -37 32 -71 30 -107 -5z m96 -16 c14 -13 25 -31
25 -40 0 -9 -11 -27 -25 -40 -13 -14 -31 -25 -40 -25 -21 0 -65 44 -65 65 0 9
11 27 25 40 13 14 31 25 40 25 9 0 27 -11 40 -25z"/>
</g>
</svg>

