<?xml version="1.0" standalone="no"?>
<!DOCTYPE svg PUBLIC "-//W3C//DTD SVG 20010904//EN"
 "http://www.w3.org/TR/2001/REC-SVG-20010904/DTD/svg10.dtd">
<svg version="1.0" xmlns="http://www.w3.org/2000/svg"
 width="48.000000pt" height="48.000000pt" viewBox="0 0 48.000000 48.000000"
 preserveAspectRatio="xMidYMid meet">
<metadata>
Created by potrace 1.16, written by Peter Selinger 2001-2019
</metadata>
<g transform="translate(0.000000,48.000000) scale(0.100000,-0.100000)"
fill="currentColor" stroke="none">
<path d="M230 450 c0 -11 5 -20 10 -20 6 0 10 9 10 20 0 11 -4 20 -10 20 -5 0
-10 -9 -10 -20z M115 400 c20 -22 31 -20 22 5 -4 8 -14 15 -23 15 -16 0 -16
-2 1 -20z M350 405 c-20 -24 -6 -28 15 -5 10 11 13 20 8 20 -6 0 -16 -7 -23
-15z M171 341 c-28 -38 -27 -44 11 -76 32 -27 32 -27 11 -43 -22 -18 -48 -62
-37 -62 4 0 17 11 30 25 15 16 34 25 54 25 20 0 39 -9 54 -25 13 -14 26 -25
30 -25 15 0 4 24 -24 50 l-29 27 29 28 c36 34 36 38 9 76 -18 25 -27 29 -69
29 -42 0 -51 -4 -69 -29z m123 -13 c15 -21 14 -24 -19 -57 l-35 -35 -34 33
c-33 32 -34 35 -19 57 21 33 85 34 107 2z M55 290 c-8 -12 20 -24 35 -15 6 3
8 11 5 16 -8 12 -32 12 -40 -1z M385 290 c-8 -12 20 -24 35 -15 6 3 8 11 5 16
-8 12 -32 12 -40 -1z M50 105 c-18 -22 0 -77 30 -92 34 -17 286 -17 320 0 30
15 48 70 30 92 -19 22 -361 22 -380 0z m360 -45 l0 -30 -170 0 -170 0 0 30 0
30 170 0 170 0 0 -30z"/>
</g>
</svg>

