<?xml version="1.0" standalone="no"?>
<!DOCTYPE svg PUBLIC "-//W3C//DTD SVG 20010904//EN"
 "http://www.w3.org/TR/2001/REC-SVG-20010904/DTD/svg10.dtd">
<svg version="1.0" xmlns="http://www.w3.org/2000/svg"
 width="48.000000pt" height="48.000000pt" viewBox="0 0 48.000000 48.000000"
 preserveAspectRatio="xMidYMid meet">
<metadata>
Created by potrace 1.16, written by Peter Selinger 2001-2019
</metadata>
<g transform="translate(0.000000,48.000000) scale(0.100000,-0.100000)"
fill="currentColor" stroke="none">
<path d="M257 465 c-16 -8 -29 -10 -32 -4 -8 12 -62 12 -70 -1 -5 -8 -11 -7
-20 0 -20 17 -66 8 -81 -15 -10 -16 -10 -28 2 -63 14 -40 14 -46 -5 -86 -17
-35 -21 -62 -21 -153 0 -76 4 -114 13 -120 16 -13 277 -11 297 2 8 5 28 10 44
11 55 3 73 60 35 108 l-21 26 21 18 c25 21 18 33 -34 60 -23 12 -48 35 -58 55
-17 31 -17 38 -4 78 16 47 10 71 -22 88 -12 7 -26 6 -44 -4z m-126 -37 l12
-22 15 22 c8 12 22 22 32 22 10 0 24 -10 32 -22 l15 -22 12 22 c7 14 21 22 36
22 21 0 25 -5 25 -31 0 -17 -5 -39 -10 -50 -10 -18 -13 -18 -33 -4 -27 19
-113 20 -149 1 -25 -13 -29 -13 -38 4 -5 10 -10 32 -10 49 0 26 4 31 25 31 15
0 29 -8 36 -22z m135 -87 c52 -31 65 -75 62 -198 -3 -95 -5 -108 -21 -111 -10
-2 -25 5 -32 15 -13 17 -14 17 -20 1 -4 -10 -15 -18 -26 -18 -10 0 -23 8 -29
18 -10 16 -10 16 -20 0 -6 -10 -19 -18 -29 -18 -11 0 -22 8 -26 18 -6 16 -7
16 -20 -1 -7 -10 -22 -17 -32 -15 -16 3 -18 16 -21 111 -3 123 10 167 62 198
40 25 112 25 152 0z m144 -133 c0 -4 -13 -14 -30 -23 l-30 -16 0 35 c0 34 0
34 30 23 17 -6 30 -15 30 -19z m10 -119 c0 -21 -35 -40 -57 -32 -8 3 -13 23
-13 48 0 25 5 45 13 48 16 7 57 -39 57 -64z M260 245 c0 -8 7 -15 15 -15 8 0
15 7 15 15 0 8 -7 15 -15 15 -8 0 -15 -7 -15 -15z"/>
</g>
</svg>

