<?xml version="1.0" standalone="no"?>
<!DOCTYPE svg PUBLIC "-//W3C//DTD SVG 20010904//EN"
 "http://www.w3.org/TR/2001/REC-SVG-20010904/DTD/svg10.dtd">
<svg version="1.0" xmlns="http://www.w3.org/2000/svg"
 width="48.000000pt" height="48.000000pt" viewBox="0 0 48.000000 48.000000"
 preserveAspectRatio="xMidYMid meet">
<metadata>
Created by potrace 1.16, written by Peter Selinger 2001-2019
</metadata>
<g transform="translate(0.000000,48.000000) scale(0.100000,-0.100000)"
fill="currentColor" stroke="none">
<path d="M317 472 c-15 -2 -43 -19 -62 -37 -53 -53 -53 -127 0 -180 53 -53
127 -53 179 0 54 53 54 126 1 179 -33 33 -66 44 -118 38z m104 -51 c24 -24 29
-38 29 -76 0 -38 -5 -52 -29 -76 -42 -42 -110 -42 -152 0 -42 42 -42 110 0
152 24 24 38 29 76 29 38 0 52 -5 76 -29z M321 411 c-31 -23 -24 -52 16 -71
38 -18 43 -40 9 -40 -31 0 -42 -16 -19 -28 22 -13 63 13 63 39 0 12 -14 28
-35 40 -41 24 -45 39 -11 39 32 0 42 16 18 29 -13 7 -24 5 -41 -8z M110 401
c-5 -11 -10 -27 -10 -35 0 -25 -53 -95 -72 -96 -21 0 -30 -32 -26 -91 3 -38 6
-44 27 -47 39 -6 79 -55 73 -91 -2 -18 0 -31 6 -31 6 0 12 10 14 23 2 14 9 20
18 17 19 -6 151 -6 170 0 9 3 16 -3 18 -17 2 -13 8 -23 14 -23 6 0 8 13 6 31
-4 23 2 37 22 59 29 31 43 67 30 75 -4 3 -13 -9 -20 -26 -41 -99 -198 -121
-281 -38 -21 21 -46 39 -54 39 -11 0 -15 12 -15 50 0 37 4 50 15 50 8 0 21 13
29 28 8 16 22 34 30 41 9 8 16 26 16 42 0 33 15 37 42 12 10 -9 21 -13 25 -9
7 7 -44 55 -59 56 -4 0 -12 -9 -18 -19z M134 279 c-10 -17 13 -36 27 -22 12
12 4 33 -11 33 -5 0 -12 -5 -16 -11z"/>
</g>
</svg>

