<?xml version="1.0" standalone="no"?>
<!DOCTYPE svg PUBLIC "-//W3C//DTD SVG 20010904//EN"
 "http://www.w3.org/TR/2001/REC-SVG-20010904/DTD/svg10.dtd">
<svg version="1.0" xmlns="http://www.w3.org/2000/svg"
 width="48.000000pt" height="48.000000pt" viewBox="0 0 48.000000 48.000000"
 preserveAspectRatio="xMidYMid meet">
<metadata>
Created by potrace 1.16, written by Peter Selinger 2001-2019
</metadata>
<g transform="translate(0.000000,48.000000) scale(0.100000,-0.100000)"
fill="currentColor" stroke="none">
<path d="M315 450 c-13 -14 -31 -20 -63 -20 -24 0 -59 -7 -77 -15 -41 -20 -90
-71 -76 -79 5 -4 15 2 20 13 16 29 91 61 143 61 32 0 50 6 63 20 21 23 35 18
35 -14 0 -28 60 -125 78 -125 8 -1 12 -18 12 -51 0 -40 -3 -50 -16 -50 -9 0
-36 -18 -60 -40 -24 -22 -48 -40 -54 -40 -5 0 -10 -5 -10 -10 0 -6 11 -8 25
-4 21 5 25 3 25 -14 0 -12 5 -24 12 -28 8 -5 9 3 5 28 -4 30 -1 40 21 61 15
14 38 27 52 29 24 3 25 6 25 68 0 59 -2 65 -22 68 -12 2 -25 11 -28 21 -3 10
-14 26 -25 36 -11 10 -20 31 -20 46 0 60 -30 78 -65 39z M320 325 c0 -8 7 -15
15 -15 8 0 15 7 15 15 0 8 -7 15 -15 15 -8 0 -15 -7 -15 -15z M90 278 c-71
-12 -85 -34 -85 -133 0 -71 3 -88 20 -105 42 -42 178 -42 220 0 17 17 20 33
20 105 0 71 -3 88 -20 105 -26 25 -97 38 -155 28z m128 -34 c51 -35 8 -74 -83
-74 -39 0 -69 6 -83 16 -51 35 -8 74 83 74 39 0 69 -6 83 -16z m-83 -95 c28 0
62 4 78 10 24 9 27 8 27 -9 0 -32 -38 -50 -105 -50 -67 0 -105 18 -105 50 0
17 3 18 28 9 15 -6 50 -10 77 -10z m0 -70 c28 0 62 4 78 10 24 9 27 8 27 -9 0
-32 -38 -50 -105 -50 -67 0 -105 18 -105 50 0 17 3 18 28 9 15 -6 50 -10 77
-10z"/>
</g>
</svg>

