<?xml version="1.0" standalone="no"?>
<!DOCTYPE svg PUBLIC "-//W3C//DTD SVG 20010904//EN"
 "http://www.w3.org/TR/2001/REC-SVG-20010904/DTD/svg10.dtd">
<svg version="1.0" xmlns="http://www.w3.org/2000/svg"
 width="48.000000pt" height="48.000000pt" viewBox="0 0 48.000000 48.000000"
 preserveAspectRatio="xMidYMid meet">
<metadata>
Created by potrace 1.16, written by Peter Selinger 2001-2019
</metadata>
<g transform="translate(0.000000,48.000000) scale(0.100000,-0.100000)"
fill="currentColor" stroke="none">
<path d="M218 470 c-20 -4 -44 -13 -53 -20 -9 -7 -37 -19 -63 -25 -40 -10 -47
-16 -50 -39 -4 -30 25 -46 83 -46 63 0 66 -5 38 -66 -29 -64 -26 -108 10 -142
33 -31 41 -15 11 21 -29 35 -27 75 7 130 10 18 19 35 19 39 0 18 -35 38 -68
38 -83 0 -114 32 -44 45 20 4 51 15 68 26 33 20 117 26 142 10 11 -7 9 -17 -9
-52 -20 -39 -22 -57 -20 -175 1 -129 1 -131 -25 -157 -31 -31 -86 -36 -122
-11 -29 20 -29 54 0 54 16 0 19 3 11 11 -17 17 -45 7 -54 -19 -7 -19 -3 -29
20 -53 24 -24 38 -29 76 -29 40 0 52 5 81 34 26 26 34 42 34 70 0 33 2 36 29
36 38 0 61 32 61 85 0 56 -18 79 -58 73 -29 -4 -32 -2 -32 20 0 14 11 44 25
68 22 37 23 43 10 54 -21 18 -83 27 -127 20z m160 -222 c4 -49 -13 -80 -41
-76 -30 4 -37 48 -8 48 12 0 21 5 21 10 0 6 -9 10 -20 10 -22 0 -28 35 -7 44
33 13 52 1 55 -36z M230 395 c0 -8 7 -15 15 -15 8 0 15 7 15 15 0 8 -7 15 -15
15 -8 0 -15 -7 -15 -15z"/>
</g>
</svg>

