<?xml version="1.0" standalone="no"?>
<!DOCTYPE svg PUBLIC "-//W3C//DTD SVG 20010904//EN"
 "http://www.w3.org/TR/2001/REC-SVG-20010904/DTD/svg10.dtd">
<svg version="1.0" xmlns="http://www.w3.org/2000/svg"
 width="48.000000pt" height="48.000000pt" viewBox="0 0 48.000000 48.000000"
 preserveAspectRatio="xMidYMid meet">
<metadata>
Created by potrace 1.16, written by Peter Selinger 2001-2019
</metadata>
<g transform="translate(0.000000,48.000000) scale(0.100000,-0.100000)"
fill="currentColor" stroke="none">
<path d="M52 423 c-39 -38 -39 -38 -37 -108 1 -38 3 -74 4 -78 0 -4 17 -15 36
-23 41 -17 45 -41 11 -54 -27 -10 -63 -57 -52 -67 4 -4 17 4 29 19 45 53 91
36 48 -18 -22 -29 -27 -59 -11 -69 6 -3 10 3 10 13 0 11 8 30 18 42 l18 22 39
-21 c50 -27 100 -27 150 0 l39 21 18 -22 c10 -12 18 -31 18 -42 0 -10 5 -16
10 -13 16 10 11 40 -11 69 -43 54 3 71 48 18 12 -15 25 -23 29 -19 11 10 -25
57 -52 67 -34 13 -30 37 11 54 19 8 36 19 36 23 1 4 3 40 4 78 2 70 2 70 -37
108 -45 43 -72 45 -76 4 -2 -19 -9 -27 -23 -27 -37 0 -35 -31 4 -67 27 -24 46
-33 72 -33 40 0 53 -17 35 -49 -15 -28 -49 -27 -90 4 -29 22 -45 25 -110 25
-65 0 -81 -3 -110 -25 -41 -31 -75 -32 -90 -4 -18 32 -5 49 35 49 26 0 45 9
72 33 39 36 41 67 4 67 -14 0 -21 8 -23 27 -4 41 -31 39 -76 -4z m56 -10 c-3
-24 1 -28 26 -33 l30 -5 -33 -27 c-39 -33 -76 -36 -91 -8 -13 24 -1 50 36 79
34 27 36 26 32 -6z m325 -25 c15 -21 17 -30 8 -47 -16 -29 -53 -27 -92 7 l-33
27 30 5 c25 5 29 9 26 35 -4 28 -3 28 19 13 13 -8 32 -26 42 -40z m-93 -150
c17 -12 30 -31 30 -43 0 -38 -42 -89 -88 -105 -37 -13 -47 -13 -84 0 -45 16
-88 66 -88 104 0 11 12 30 28 43 39 32 159 33 202 1z M200 180 c0 -16 5 -30
10 -30 6 0 10 14 10 30 0 17 -4 30 -10 30 -5 0 -10 -13 -10 -30z M260 180 c0
-16 5 -30 10 -30 6 0 10 14 10 30 0 17 -4 30 -10 30 -5 0 -10 -13 -10 -30z
M190 325 c0 -8 7 -15 15 -15 8 0 15 7 15 15 0 8 -7 15 -15 15 -8 0 -15 -7 -15
-15z M260 325 c0 -8 7 -15 15 -15 8 0 15 7 15 15 0 8 -7 15 -15 15 -8 0 -15
-7 -15 -15z"/>
</g>
</svg>

