<?xml version="1.0" standalone="no"?>
<!DOCTYPE svg PUBLIC "-//W3C//DTD SVG 20010904//EN"
 "http://www.w3.org/TR/2001/REC-SVG-20010904/DTD/svg10.dtd">
<svg version="1.0" xmlns="http://www.w3.org/2000/svg"
 width="48.000000pt" height="48.000000pt" viewBox="0 0 48.000000 48.000000"
 preserveAspectRatio="xMidYMid meet">
<metadata>
Created by potrace 1.16, written by Peter Selinger 2001-2019
</metadata>
<g transform="translate(0.000000,48.000000) scale(0.100000,-0.100000)"
fill="currentColor" stroke="none">
<path d="M207 384 c-77 -39 -87 -56 -87 -144 0 -89 10 -105 89 -145 39 -19 80
-35 91 -35 38 0 160 69 170 96 13 33 13 135 0 168 -10 28 -133 96 -172 96 -13
-1 -54 -17 -91 -36z m172 -18 l63 -33 -32 -13 c-29 -12 -37 -11 -100 20 -61
30 -67 35 -52 46 26 20 51 16 121 -20z m-89 -36 c33 -17 60 -32 60 -35 0 -2
-11 -12 -24 -20 -24 -16 -28 -15 -95 23 -67 36 -70 39 -49 50 34 16 43 15 108
-18z m-65 -52 l65 -32 0 -84 c0 -46 -3 -82 -7 -80 -5 2 -36 18 -70 36 l-63 32
0 80 c0 44 2 80 5 80 2 0 34 -14 70 -32z m225 -48 l0 -80 -70 -35 -70 -35 0
83 c0 80 1 84 25 95 34 16 35 15 35 -8 0 -11 5 -20 10 -20 6 0 10 13 10 28 0
26 23 49 53 51 4 1 7 -35 7 -79z M30 362 c0 -11 41 -34 48 -27 4 4 -2 13 -12
21 -22 15 -36 18 -36 6z M29 280 c24 -21 51 -26 51 -12 0 10 -45 32 -63 32 -7
-1 -1 -10 12 -20z M10 212 c0 -9 44 -32 60 -32 19 0 10 17 -15 28 -31 14 -45
15 -45 4z"/>
</g>
</svg>

