<?xml version="1.0" standalone="no"?>
<!DOCTYPE svg PUBLIC "-//W3C//DTD SVG 20010904//EN"
 "http://www.w3.org/TR/2001/REC-SVG-20010904/DTD/svg10.dtd">
<svg version="1.0" xmlns="http://www.w3.org/2000/svg"
 width="48.000000pt" height="48.000000pt" viewBox="0 0 48.000000 48.000000"
 preserveAspectRatio="xMidYMid meet">
<metadata>
Created by potrace 1.16, written by Peter Selinger 2001-2019
</metadata>
<g transform="translate(0.000000,48.000000) scale(0.100000,-0.100000)"
fill="currentColor" stroke="none">
<path d="M140 437 c-23 -12 -25 -18 -28 -100 l-3 -87 -38 0 c-48 0 -63 -17
-69 -80 -11 -121 15 -146 145 -136 95 7 91 7 186 0 107 -8 134 4 143 63 8 53
0 118 -16 138 -8 9 -30 15 -56 15 l-44 0 0 68 c0 87 -6 107 -36 121 -33 15
-153 14 -184 -2z m42 -64 l3 -48 48 -3 47 -3 0 50 c0 48 2 51 25 51 25 0 25
-1 25 -85 l0 -85 -100 0 -100 0 0 78 c0 83 3 92 31 92 14 0 19 -10 21 -47z
m78 7 c0 -36 -2 -40 -25 -40 -22 0 -25 4 -25 40 0 36 3 40 25 40 23 0 25 -4
25 -40z m-178 -202 c3 -52 4 -53 36 -56 46 -5 62 12 62 64 0 40 2 44 25 44 26
0 26 0 23 -82 l-3 -83 -97 -3 -98 -3 0 79 c0 83 3 92 31 92 15 0 19 -10 21
-52z m68 12 c0 -36 -2 -40 -25 -40 -22 0 -25 4 -25 40 0 36 3 40 25 40 23 0
25 -4 25 -40z m150 -4 c0 -52 16 -69 62 -64 32 3 33 4 36 56 3 48 5 53 25 50
20 -3 22 -9 25 -86 l3 -83 -98 3 -98 3 -3 83 c-3 82 -3 82 23 82 23 0 25 -4
25 -44z m80 4 c0 -36 -2 -40 -25 -40 -22 0 -25 4 -25 40 0 36 3 40 25 40 23 0
25 -4 25 -40z"/>
</g>
</svg>

