<?xml version="1.0" standalone="no"?>
<!DOCTYPE svg PUBLIC "-//W3C//DTD SVG 20010904//EN"
 "http://www.w3.org/TR/2001/REC-SVG-20010904/DTD/svg10.dtd">
<svg version="1.0" xmlns="http://www.w3.org/2000/svg"
 width="48.000000pt" height="48.000000pt" viewBox="0 0 48.000000 48.000000"
 preserveAspectRatio="xMidYMid meet">
<metadata>
Created by potrace 1.16, written by Peter Selinger 2001-2019
</metadata>
<g transform="translate(0.000000,48.000000) scale(0.100000,-0.100000)"
fill="currentColor" stroke="none">
<path d="M100 370 c0 -5 11 -10 25 -10 14 0 25 5 25 10 0 6 -11 10 -25 10 -14
0 -25 -4 -25 -10z M200 360 c0 -6 28 -10 65 -10 l65 0 0 -73 c0 -74 -15 -127
-37 -127 -7 0 -23 11 -36 24 -28 28 -66 25 -74 -6 -4 -14 -15 -18 -54 -18 -27
0 -49 -4 -49 -10 0 -5 22 -10 49 -10 31 0 53 -5 61 -15 16 -19 44 -19 64 0 19
19 50 19 66 0 16 -19 44 -19 64 0 8 8 25 15 38 15 45 0 53 14 53 96 0 68 -3
78 -24 95 -13 10 -39 19 -58 19 -19 0 -41 7 -49 15 -18 17 -144 22 -144 5z
m238 -52 c19 -19 14 -28 -13 -28 -14 0 -25 -4 -25 -10 0 -5 11 -10 25 -10 24
0 25 -3 25 -55 0 -48 -3 -55 -20 -55 -10 0 -31 11 -45 25 -21 22 -25 35 -25
85 l0 60 33 0 c18 0 38 -5 45 -12z m-192 -173 c-3 -9 -14 -15 -23 -13 -22 4
-30 38 -11 49 18 11 43 -15 34 -36z m130 0 c-3 -9 -14 -15 -23 -13 -22 4 -30
38 -11 49 18 11 43 -15 34 -36z M60 290 c0 -5 20 -10 45 -10 25 0 45 5 45 10
0 6 -20 10 -45 10 -25 0 -45 -4 -45 -10z M10 210 c0 -6 28 -10 65 -10 37 0 65
4 65 10 0 6 -28 10 -65 10 -37 0 -65 -4 -65 -10z"/>
</g>
</svg>

