<?xml version="1.0" standalone="no"?>
<!DOCTYPE svg PUBLIC "-//W3C//DTD SVG 20010904//EN"
 "http://www.w3.org/TR/2001/REC-SVG-20010904/DTD/svg10.dtd">
<svg version="1.0" xmlns="http://www.w3.org/2000/svg"
 width="48.000000pt" height="48.000000pt" viewBox="0 0 48.000000 48.000000"
 preserveAspectRatio="xMidYMid meet">
<metadata>
Created by potrace 1.16, written by Peter Selinger 2001-2019
</metadata>
<g transform="translate(0.000000,48.000000) scale(0.100000,-0.100000)"
fill="currentColor" stroke="none">
<path d="M94 470 c-11 -4 -36 -32 -55 -61 -34 -53 -34 -54 -34 -171 0 -83 4
-121 13 -130 15 -15 135 -18 142 -3 3 6 -22 11 -62 13 l-68 3 0 119 0 120 164
0 c163 0 165 0 168 -22 2 -13 8 -21 13 -18 6 3 9 14 7 24 -4 33 -64 117 -89
127 -30 11 -170 11 -199 -1z m86 -50 l0 -30 -60 0 c-33 0 -60 2 -60 5 0 3 7
17 16 30 13 20 25 25 60 25 42 0 44 -1 44 -30z m134 5 c9 -13 16 -27 16 -30 0
-3 -27 -5 -60 -5 l-60 0 0 30 c0 29 2 30 44 30 35 0 47 -5 60 -25z M327 259
c-23 -13 -107 -181 -107 -214 0 -34 31 -45 125 -45 141 0 151 19 80 160 -47
94 -68 115 -98 99z m80 -104 c23 -44 42 -90 43 -102 0 -22 -3 -23 -105 -23
-99 0 -105 1 -105 20 0 20 61 151 83 178 20 25 43 6 84 -73z M335 177 c-9 -22
-2 -62 10 -60 6 1 11 14 13 29 4 32 -14 56 -23 31z M330 65 c0 -8 7 -15 15
-15 8 0 15 7 15 15 0 8 -7 15 -15 15 -8 0 -15 -7 -15 -15z"/>
</g>
</svg>

