<?xml version="1.0" standalone="no"?>
<!DOCTYPE svg PUBLIC "-//W3C//DTD SVG 20010904//EN"
 "http://www.w3.org/TR/2001/REC-SVG-20010904/DTD/svg10.dtd">
<svg version="1.0" xmlns="http://www.w3.org/2000/svg"
 width="48.000000pt" height="48.000000pt" viewBox="0 0 48.000000 48.000000"
 preserveAspectRatio="xMidYMid meet">
<metadata>
Created by potrace 1.16, written by Peter Selinger 2001-2019
</metadata>
<g transform="translate(0.000000,48.000000) scale(0.100000,-0.100000)"
fill="currentColor" stroke="none">
<path d="M176 409 c-21 -28 -35 -54 -31 -57 7 -7 75 66 75 81 0 4 9 7 20 7 11
0 20 -3 20 -7 0 -15 68 -88 75 -81 4 3 -10 29 -31 57 -29 38 -45 51 -64 51
-19 0 -35 -13 -64 -51z M15 300 c-3 -6 0 -12 7 -15 26 -10 443 0 443 10 0 14
-441 19 -450 5z M147 244 c-11 -11 -8 -164 3 -164 6 0 10 11 10 25 0 18 7 28
25 35 13 5 27 20 31 34 6 25 -10 66 -26 66 -4 0 -15 2 -22 5 -8 3 -17 2 -21
-1z m48 -54 c0 -16 -6 -26 -17 -28 -14 -3 -18 3 -18 28 0 25 4 31 18 28 11 -2
17 -12 17 -28z M290 243 c-24 -10 -30 -25 -30 -83 0 -65 8 -80 43 -83 35 -3
39 17 5 21 -16 2 -28 9 -28 17 0 8 12 15 28 17 15 2 27 8 27 13 0 6 -12 11
-27 13 -23 3 -28 8 -28 32 0 24 5 29 28 32 15 2 26 8 25 13 -2 12 -23 16 -43
8z M26 224 c-8 -20 -8 -108 0 -128 8 -21 60 -21 68 0 8 20 8 108 0 128 -4 9
-18 16 -34 16 -16 0 -30 -7 -34 -16z m54 -64 c0 -53 -2 -60 -20 -60 -18 0 -20
7 -20 60 0 53 2 60 20 60 18 0 20 -7 20 -60z M380 160 c0 -47 4 -80 10 -80 6
0 10 21 11 48 l1 47 20 -47 c11 -27 24 -48 29 -48 5 0 9 36 9 80 0 47 -4 80
-10 80 -5 0 -10 -21 -11 -47 l-1 -48 -20 48 c-11 26 -24 47 -29 47 -5 0 -9
-36 -9 -80z M15 30 c-3 -6 0 -12 7 -15 26 -10 443 0 443 10 0 14 -441 19 -450
5z"/>
</g>
</svg>

