<?xml version="1.0" standalone="no"?>
<!DOCTYPE svg PUBLIC "-//W3C//DTD SVG 20010904//EN"
 "http://www.w3.org/TR/2001/REC-SVG-20010904/DTD/svg10.dtd">
<svg version="1.0" xmlns="http://www.w3.org/2000/svg"
 width="48.000000pt" height="48.000000pt" viewBox="0 0 48.000000 48.000000"
 preserveAspectRatio="xMidYMid meet">
<metadata>
Created by potrace 1.16, written by Peter Selinger 2001-2019
</metadata>
<g transform="translate(0.000000,48.000000) scale(0.100000,-0.100000)"
fill="currentColor" stroke="none">
<path d="M26 472 c-3 -6 9 -26 28 -46 31 -34 37 -36 94 -36 64 0 82 -9 57 -30
-24 -20 -7 -30 49 -30 63 0 76 11 76 66 0 44 -14 64 -32 46 -7 -7 -19 -4 -40
11 -24 18 -46 22 -127 25 -61 3 -101 0 -105 -6z m227 -42 c14 -11 30 -20 36
-20 6 0 11 -11 11 -25 0 -22 -4 -25 -34 -25 -26 0 -33 4 -32 17 1 21 -51 42
-110 42 -24 1 -47 7 -54 16 -11 13 -2 15 72 15 70 0 90 -4 111 -20z M377 414
c-11 -12 3 -24 28 -24 21 0 25 -7 35 -55 6 -30 10 -63 8 -72 -5 -27 -39 -28
-58 -2 l-18 22 -11 -21 c-15 -28 -45 -28 -63 0 l-15 22 -12 -22 c-15 -28 -44
-28 -63 0 l-15 22 -12 -22 c-15 -28 -47 -28 -62 0 l-11 21 -18 -22 c-10 -14
-24 -22 -36 -19 -16 3 -19 12 -17 51 1 26 -2 47 -7 47 -21 0 -28 -88 -8 -108
15 -15 60 -16 75 -1 8 8 13 8 17 0 9 -14 59 -14 73 0 8 8 13 8 17 0 9 -14 59
-14 73 0 8 8 13 8 17 0 9 -14 59 -14 73 0 8 8 13 8 17 0 9 -15 59 -14 74 1 23
23 4 151 -26 176 -17 13 -45 16 -55 6z M36 163 c-11 -11 -6 -139 6 -151 19
-19 382 -17 397 2 14 17 11 146 -4 146 -5 0 -11 -29 -13 -65 l-3 -65 -44 0
-44 0 -3 68 c-3 69 -21 92 -26 35 l-3 -33 -120 0 -119 0 0 29 c0 30 -12 46
-24 34z m264 -108 l0 -25 -120 0 -120 0 0 25 0 25 120 0 120 0 0 -25z"/>
</g>
</svg>

