<?xml version="1.0" standalone="no"?>
<!DOCTYPE svg PUBLIC "-//W3C//DTD SVG 20010904//EN"
 "http://www.w3.org/TR/2001/REC-SVG-20010904/DTD/svg10.dtd">
<svg version="1.0" xmlns="http://www.w3.org/2000/svg"
 width="48.000000pt" height="48.000000pt" viewBox="0 0 48.000000 48.000000"
 preserveAspectRatio="xMidYMid meet">
<metadata>
Created by potrace 1.16, written by Peter Selinger 2001-2019
</metadata>
<g transform="translate(0.000000,48.000000) scale(0.100000,-0.100000)"
fill="currentColor" stroke="none">
<path d="M344 460 c-28 -11 -46 -36 -46 -65 0 -28 27 -65 49 -65 20 0 16 -20
-4 -20 -21 -1 -59 -27 -51 -36 4 -3 15 -1 26 5 51 27 122 -1 122 -49 0 -11 5
-20 10 -20 6 0 10 11 10 24 0 28 -45 76 -71 76 -11 0 -19 5 -19 10 0 6 6 10
13 10 8 0 22 9 32 20 46 50 -7 133 -71 110z m54 -32 c7 -7 12 -21 12 -33 0
-12 -5 -26 -12 -33 -7 -7 -21 -12 -33 -12 -40 0 -61 50 -33 78 7 7 21 12 33
12 12 0 26 -5 33 -12z M24 396 c-10 -41 4 -66 37 -66 23 0 29 -4 29 -23 0 -14
-9 -26 -22 -32 -19 -8 -24 -19 -26 -64 -2 -36 -9 -59 -20 -67 -11 -8 -16 -27
-17 -60 0 -65 19 -68 23 -4 l3 50 209 0 209 0 3 -50 c2 -28 8 -49 13 -48 14 4
12 95 -3 110 -8 8 -48 14 -102 16 l-90 4 0 48 c0 60 -14 73 -91 78 -50 4 -59
7 -59 23 0 14 7 19 30 19 23 0 31 5 36 24 3 14 3 34 -1 45 -6 19 -14 21 -80
21 -71 0 -75 -1 -81 -24z m136 -21 c0 -24 -3 -25 -55 -25 -52 0 -55 1 -55 25
0 24 3 25 55 25 52 0 55 -1 55 -25z m88 -167 l3 -48 -95 0 -96 0 0 43 c0 24 3
47 7 51 4 4 46 5 93 4 l85 -3 3 -47z M105 220 c-8 -13 20 -24 41 -16 20 8 9
26 -16 26 -10 0 -22 -5 -25 -10z"/>
</g>
</svg>

