<?xml version="1.0" standalone="no"?>
<!DOCTYPE svg PUBLIC "-//W3C//DTD SVG 20010904//EN"
 "http://www.w3.org/TR/2001/REC-SVG-20010904/DTD/svg10.dtd">
<svg version="1.0" xmlns="http://www.w3.org/2000/svg"
 width="48.000000pt" height="48.000000pt" viewBox="0 0 48.000000 48.000000"
 preserveAspectRatio="xMidYMid meet">
<metadata>
Created by potrace 1.16, written by Peter Selinger 2001-2019
</metadata>
<g transform="translate(0.000000,48.000000) scale(0.100000,-0.100000)"
fill="currentColor" stroke="none">
<path d="M176 409 c-21 -28 -35 -54 -31 -57 7 -7 75 66 75 81 0 4 9 7 20 7 11
0 20 -3 20 -7 0 -15 68 -88 75 -81 4 3 -10 29 -31 57 -29 38 -45 51 -64 51
-19 0 -35 -13 -64 -51z M15 300 c-3 -6 0 -12 7 -15 26 -10 443 0 443 10 0 14
-441 19 -450 5z M318 243 c-10 -2 -21 -16 -24 -29 -5 -20 0 -33 25 -58 37 -38
39 -56 7 -56 -27 0 -42 -15 -27 -25 20 -12 61 7 67 32 5 19 -1 32 -25 57 -38
39 -39 54 -3 58 15 2 26 8 25 13 -2 12 -21 15 -45 8z M423 240 c-45 -18 -43
-143 3 -161 27 -10 48 -4 39 12 -4 5 -15 9 -26 9 -27 0 -24 28 4 32 12 2 22 8
22 13 0 6 -10 11 -22 13 -31 5 -33 59 -3 64 12 2 21 7 21 13 1 13 -12 15 -38
5z M24 219 c-39 -43 -13 -139 38 -139 25 0 23 13 -4 25 -19 8 -23 18 -23 55 0
37 4 47 23 55 27 12 29 25 4 25 -11 0 -27 -9 -38 -21z M94 225 c-9 -22 1 -124
12 -135 13 -13 52 -17 56 -5 2 6 -7 11 -19 13 -21 3 -23 9 -23 67 0 62 -14 93
-26 60z M190 215 c-5 -14 -10 -39 -10 -55 0 -16 5 -41 10 -55 8 -21 16 -26 38
-23 22 2 29 10 36 41 6 23 6 51 0 75 -7 30 -14 38 -36 40 -22 3 -30 -2 -38
-23z m50 -55 c0 -47 -3 -60 -15 -60 -12 0 -15 13 -15 60 0 47 3 60 15 60 12 0
15 -13 15 -60z M15 30 c-3 -6 0 -12 7 -15 26 -10 443 0 443 10 0 14 -441 19
-450 5z"/>
</g>
</svg>

