<?xml version="1.0" standalone="no"?>
<!DOCTYPE svg PUBLIC "-//W3C//DTD SVG 20010904//EN"
 "http://www.w3.org/TR/2001/REC-SVG-20010904/DTD/svg10.dtd">
<svg version="1.0" xmlns="http://www.w3.org/2000/svg"
 width="48.000000pt" height="48.000000pt" viewBox="0 0 48.000000 48.000000"
 preserveAspectRatio="xMidYMid meet">
<metadata>
Created by potrace 1.16, written by Peter Selinger 2001-2019
</metadata>
<g transform="translate(0.000000,48.000000) scale(0.100000,-0.100000)"
fill="currentColor" stroke="none">
<path d="M202 458 c-6 -6 -12 -17 -12 -24 0 -7 -21 -14 -51 -16 -27 -3 -56
-11 -62 -17 -18 -18 -17 -365 1 -383 19 -19 305 -19 324 0 18 18 19 365 1 383
-6 6 -34 14 -61 17 -37 3 -50 9 -58 26 -11 24 -62 34 -82 14z m66 -55 c3 -42
2 -43 -27 -43 -29 0 -31 2 -31 38 0 45 6 54 35 50 16 -2 21 -12 23 -45z m-84
-38 c12 -46 100 -46 112 0 5 22 12 25 50 25 l44 0 0 -180 0 -180 -135 0 c-74
0 -135 3 -135 8 2 29 66 72 108 72 22 0 31 4 26 11 -10 16 -82 4 -106 -18 -12
-10 -29 -31 -39 -48 -19 -30 -19 -29 -19 153 l0 182 44 0 c38 0 45 -3 50 -25z
M193 285 c-33 -14 -43 -32 -43 -75 0 -33 40 -70 75 -70 36 0 75 37 75 71 0 64
-49 98 -107 74z m75 -27 c30 -30 1 -98 -41 -98 -29 0 -57 29 -57 60 0 34 17
50 55 50 17 0 36 -5 43 -12z M285 81 c-7 -13 17 -24 40 -19 9 1 16 8 16 13 0
14 -48 19 -56 6z"/>
</g>
</svg>

