<?xml version="1.0" standalone="no"?>
<!DOCTYPE svg PUBLIC "-//W3C//DTD SVG 20010904//EN"
 "http://www.w3.org/TR/2001/REC-SVG-20010904/DTD/svg10.dtd">
<svg version="1.0" xmlns="http://www.w3.org/2000/svg"
 width="48.000000pt" height="48.000000pt" viewBox="0 0 48.000000 48.000000"
 preserveAspectRatio="xMidYMid meet">
<metadata>
Created by potrace 1.16, written by Peter Selinger 2001-2019
</metadata>
<g transform="translate(0.000000,48.000000) scale(0.100000,-0.100000)"
fill="currentColor" stroke="none">
<path d="M161 439 c-26 -26 -31 -38 -31 -79 0 -41 5 -53 31 -79 44 -45 114
-45 158 0 45 44 45 114 0 158 -26 26 -38 31 -79 31 -41 0 -53 -5 -79 -31z
m144 -14 c19 -18 25 -35 25 -65 0 -56 -34 -90 -90 -90 -30 0 -47 6 -65 25 -19
18 -25 35 -25 65 0 56 34 90 90 90 30 0 47 -6 65 -25z M170 209 c-71 -30 -130
-106 -130 -169 0 -42 16 -30 24 19 11 74 95 141 176 141 81 0 165 -67 176
-141 8 -50 24 -61 24 -17 0 46 -38 107 -88 142 -32 23 -55 30 -99 33 -32 1
-69 -2 -83 -8z"/>
</g>
</svg>

