<?xml version="1.0" standalone="no"?>
<!DOCTYPE svg PUBLIC "-//W3C//DTD SVG 20010904//EN"
 "http://www.w3.org/TR/2001/REC-SVG-20010904/DTD/svg10.dtd">
<svg version="1.0" xmlns="http://www.w3.org/2000/svg"
 width="48.000000pt" height="48.000000pt" viewBox="0 0 48.000000 48.000000"
 preserveAspectRatio="xMidYMid meet">
<metadata>
Created by potrace 1.16, written by Peter Selinger 2001-2019
</metadata>
<g transform="translate(0.000000,48.000000) scale(0.100000,-0.100000)"
fill="currentColor" stroke="none">
<path d="M66 448 c-36 -51 -7 -108 54 -108 29 0 43 6 54 22 36 51 7 108 -54
108 -29 0 -43 -6 -54 -22z m92 -10 c15 -15 15 -51 0 -66 -7 -7 -24 -12 -38
-12 -31 0 -50 17 -50 45 0 28 19 45 50 45 14 0 31 -5 38 -12z M93 322 c-13 -2
-36 -16 -52 -32 -46 -47 -51 -140 -6 -140 14 0 25 -43 25 -94 0 -18 5 -37 12
-44 16 -16 80 -16 96 0 14 14 16 78 2 78 -5 0 -10 -13 -10 -30 0 -28 -2 -30
-40 -30 -38 0 -40 1 -40 33 0 65 -12 110 -32 115 -13 3 -18 14 -18 39 0 77 95
111 159 57 37 -31 42 -13 6 20 -26 24 -62 34 -102 28z M317 262 c-15 -2 -43
-19 -62 -37 -53 -53 -53 -127 0 -180 53 -53 127 -53 179 0 54 53 54 126 1 179
-33 33 -66 44 -118 38z m104 -51 c24 -24 29 -38 29 -76 0 -66 -39 -105 -105
-105 -66 0 -105 39 -105 105 0 66 39 105 105 105 38 0 52 -5 76 -29z M336 193
c-3 -3 -6 -14 -6 -24 0 -11 -9 -19 -22 -21 -29 -4 -30 -22 -1 -26 14 -2 23
-11 25 -25 4 -27 22 -25 26 2 2 11 12 21 25 23 27 4 25 22 -3 26 -12 2 -20 11
-20 22 0 20 -13 33 -24 23z"/>
</g>
</svg>

