<?xml version="1.0" standalone="no"?>
<!DOCTYPE svg PUBLIC "-//W3C//DTD SVG 20010904//EN"
 "http://www.w3.org/TR/2001/REC-SVG-20010904/DTD/svg10.dtd">
<svg version="1.0" xmlns="http://www.w3.org/2000/svg"
 width="48.000000pt" height="48.000000pt" viewBox="0 0 48.000000 48.000000"
 preserveAspectRatio="xMidYMid meet">
<metadata>
Created by potrace 1.16, written by Peter Selinger 2001-2019
</metadata>
<g transform="translate(0.000000,48.000000) scale(0.100000,-0.100000)"
fill="currentColor" stroke="none">
<path d="M117 463 c-18 -18 -5 -63 25 -88 l33 -28 -35 8 c-52 10 -77 30 -90
70 -14 41 -36 48 -25 8 15 -61 65 -100 135 -104 8 0 -8 -6 -36 -13 -58 -14
-114 -50 -114 -73 0 -11 8 -8 30 11 32 27 100 50 128 44 12 -3 6 -11 -23 -30
-64 -41 -66 -45 -63 -154 2 -53 8 -99 13 -101 6 -2 9 28 6 82 -1 47 0 95 3
108 6 25 81 72 91 57 13 -21 20 -8 20 37 0 45 2 48 25 48 23 0 25 -3 25 -48 0
-45 7 -58 20 -37 10 15 85 -32 91 -57 3 -13 4 -61 3 -108 -3 -54 0 -84 6 -82
6 2 11 48 13 101 3 109 1 113 -63 154 -29 19 -35 27 -23 30 28 6 96 -17 128
-44 22 -19 30 -22 30 -11 0 23 -56 59 -114 73 -28 7 -44 13 -36 13 70 4 120
43 135 104 11 40 -11 33 -25 -8 -13 -40 -38 -60 -90 -70 l-35 -8 33 28 c26 22
32 34 30 58 -2 17 -9 32 -16 35 -9 3 -11 -3 -6 -22 7 -27 -12 -58 -47 -76 -12
-7 -15 -4 -15 12 1 12 -5 23 -13 26 -9 3 -11 -1 -6 -17 5 -18 2 -21 -25 -21
-27 0 -30 3 -25 21 5 16 3 20 -6 17 -8 -3 -14 -14 -13 -26 0 -16 -3 -19 -15
-12 -34 18 -53 49 -47 75 6 24 -3 33 -17 18z M155 200 c-41 -79 8 -190 85
-190 78 0 127 110 85 190 -9 17 -20 30 -25 30 -13 0 -13 -3 5 -36 19 -38 19
-78 -1 -120 -28 -59 -100 -59 -128 0 -20 42 -20 82 -1 120 18 33 18 36 5 36
-5 0 -16 -13 -25 -30z M212 174 c-25 -17 -28 -64 -4 -72 9 -3 11 3 7 20 -4 16
-1 29 9 37 23 20 49 -4 41 -37 -4 -17 -2 -23 7 -20 24 8 21 55 -4 72 -28 20
-28 20 -56 0z"/>
</g>
</svg>

