<?xml version="1.0" standalone="no"?>
<!DOCTYPE svg PUBLIC "-//W3C//DTD SVG 20010904//EN"
 "http://www.w3.org/TR/2001/REC-SVG-20010904/DTD/svg10.dtd">
<svg version="1.0" xmlns="http://www.w3.org/2000/svg"
 width="48.000000pt" height="48.000000pt" viewBox="0 0 48.000000 48.000000"
 preserveAspectRatio="xMidYMid meet">
<metadata>
Created by potrace 1.16, written by Peter Selinger 2001-2019
</metadata>
<g transform="translate(0.000000,48.000000) scale(0.100000,-0.100000)"
fill="currentColor" stroke="none">
<path d="M156 435 c-148 -38 -199 -230 -88 -338 20 -19 50 -41 65 -46 36 -14
90 -14 82 -1 -3 6 -18 10 -32 10 -41 0 -103 41 -129 86 -32 54 -33 131 -2 186
66 117 246 118 314 2 13 -22 24 -49 24 -59 0 -17 -1 -17 -20 0 -11 10 -23 15
-27 12 -8 -9 46 -67 62 -67 16 0 70 58 62 67 -4 3 -18 -4 -31 -16 l-23 -22 -7
41 c-6 40 -58 110 -97 131 -38 20 -105 26 -153 14z"/>
</g>
</svg>

