<?xml version="1.0" standalone="no"?>
<!DOCTYPE svg PUBLIC "-//W3C//DTD SVG 20010904//EN"
 "http://www.w3.org/TR/2001/REC-SVG-20010904/DTD/svg10.dtd">
<svg version="1.0" xmlns="http://www.w3.org/2000/svg"
 width="48.000000pt" height="48.000000pt" viewBox="0 0 48.000000 48.000000"
 preserveAspectRatio="xMidYMid meet">
<metadata>
Created by potrace 1.16, written by Peter Selinger 2001-2019
</metadata>
<g transform="translate(0.000000,48.000000) scale(0.100000,-0.100000)"
fill="currentColor" stroke="none">
<path d="M207 430 c-65 -20 -137 -104 -137 -159 0 -11 -3 -27 -6 -36 -6 -14
-9 -13 -30 6 -13 12 -24 18 -24 13 0 -6 15 -24 33 -42 l33 -32 32 33 c38 40
43 61 6 26 l-27 -24 6 49 c17 162 230 210 330 75 40 -55 35 -167 -10 -220 -73
-87 -194 -89 -281 -6 -28 26 -33 28 -30 12 5 -30 82 -83 133 -91 62 -9 105 1
154 36 151 110 83 356 -101 366 -29 2 -66 -1 -81 -6z"/>
</g>
</svg>

