<?xml version="1.0" standalone="no"?>
<!DOCTYPE svg PUBLIC "-//W3C//DTD SVG 20010904//EN"
 "http://www.w3.org/TR/2001/REC-SVG-20010904/DTD/svg10.dtd">
<svg version="1.0" xmlns="http://www.w3.org/2000/svg"
 width="48.000000pt" height="48.000000pt" viewBox="0 0 48.000000 48.000000"
 preserveAspectRatio="xMidYMid meet">
<metadata>
Created by potrace 1.16, written by Peter Selinger 2001-2019
</metadata>
<g transform="translate(0.000000,48.000000) scale(0.100000,-0.100000)"
fill="currentColor" stroke="none">
<path d="M200 429 c-66 -27 -130 -106 -130 -159 0 -25 -12 -26 -35 0 -10 11
-21 18 -23 15 -3 -3 10 -21 28 -40 l34 -35 33 32 c39 38 45 62 7 27 l-27 -24
7 35 c16 89 116 153 210 136 41 -8 92 -41 120 -79 30 -41 30 -163 0 -204 -29
-40 -81 -72 -126 -79 -52 -9 -49 -28 4 -21 23 3 60 18 82 34 158 111 90 360
-101 370 -32 1 -69 -2 -83 -8z"/>
</g>
</svg>

