<?xml version="1.0" standalone="no"?>
<!DOCTYPE svg PUBLIC "-//W3C//DTD SVG 20010904//EN"
 "http://www.w3.org/TR/2001/REC-SVG-20010904/DTD/svg10.dtd">
<svg version="1.0" xmlns="http://www.w3.org/2000/svg"
 width="48.000000pt" height="48.000000pt" viewBox="0 0 48.000000 48.000000"
 preserveAspectRatio="xMidYMid meet">
<metadata>
Created by potrace 1.16, written by Peter Selinger 2001-2019
</metadata>
<g transform="translate(0.000000,48.000000) scale(0.100000,-0.100000)"
fill="currentColor" stroke="none">
<path d="M205 473 c-52 -11 -90 -28 -121 -55 -43 -38 -45 -59 -2 -22 47 39 89
54 153 54 60 0 104 -17 147 -58 35 -32 50 -21 18 13 -42 45 -139 79 -195 68z
M203 320 c-21 -8 -23 -16 -23 -80 0 -67 1 -71 27 -81 29 -11 58 -5 48 11 -3 5
-17 10 -31 10 -34 0 -31 28 4 32 15 2 27 8 27 13 0 6 -12 11 -27 13 -23 3 -28
8 -28 32 0 24 5 29 28 32 15 2 26 8 25 13 -3 14 -24 16 -50 5z M60 240 c0 -47
4 -80 10 -80 6 0 10 19 11 43 l0 42 19 -42 c29 -65 40 -54 40 37 0 85 -19 115
-21 33 l-1 -48 -21 48 c-11 26 -24 47 -29 47 -4 0 -8 -36 -8 -80z M300 275 c0
-48 22 -115 38 -115 5 0 14 15 19 33 10 33 13 31 29 -20 8 -27 24 -11 39 39
17 59 20 108 5 108 -5 0 -10 -11 -10 -24 0 -37 -12 -86 -21 -86 -4 0 -11 16
-15 35 -8 46 -20 44 -36 -6 -10 -33 -13 -38 -19 -23 -4 11 -8 38 -8 62 -1 23
-5 42 -11 42 -5 0 -10 -20 -10 -45z M66 79 c85 -92 250 -93 334 -4 32 34 17
45 -18 13 -44 -41 -86 -58 -148 -58 -63 0 -137 29 -157 61 -7 11 -18 19 -26
19 -10 0 -5 -11 15 -31z"/>
</g>
</svg>

