<?xml version="1.0" standalone="no"?>
<!DOCTYPE svg PUBLIC "-//W3C//DTD SVG 20010904//EN"
 "http://www.w3.org/TR/2001/REC-SVG-20010904/DTD/svg10.dtd">
<svg version="1.0" xmlns="http://www.w3.org/2000/svg"
 width="48.000000pt" height="48.000000pt" viewBox="0 0 48.000000 48.000000"
 preserveAspectRatio="xMidYMid meet">
<metadata>
Created by potrace 1.16, written by Peter Selinger 2001-2019
</metadata>
<g transform="translate(0.000000,48.000000) scale(0.100000,-0.100000)"
fill="currentColor" stroke="none">
<path d="M207 464 c-13 -13 -7 -65 8 -70 30 -12 16 -40 -25 -53 -95 -28 -133
-97 -128 -231 4 -108 7 -110 178 -110 171 0 174 2 178 110 5 134 -33 203 -128
231 -42 13 -55 41 -24 53 10 4 14 16 12 38 -3 29 -7 33 -33 36 -17 2 -34 0
-38 -4z m53 -34 c0 -13 -7 -20 -20 -20 -13 0 -20 7 -20 20 0 13 7 20 20 20 13
0 20 -7 20 -20z m76 -135 c44 -34 64 -78 64 -145 l0 -50 -160 0 -160 0 0 50
c0 28 6 65 14 83 39 94 160 125 242 62z m64 -245 c0 -19 -7 -20 -160 -20 -153
0 -160 1 -160 20 0 19 7 20 160 20 153 0 160 -1 160 -20z M140 215 c-26 -32
13 -81 48 -59 22 14 27 41 12 59 -16 19 -44 19 -60 0z m46 -16 c10 -17 -13
-36 -27 -22 -12 12 -4 33 11 33 5 0 12 -5 16 -11z M280 215 c-26 -32 13 -81
48 -59 22 14 27 41 12 59 -16 19 -44 19 -60 0z m46 -16 c10 -17 -13 -36 -27
-22 -12 12 -4 33 11 33 5 0 12 -5 16 -11z M5 168 c-9 -23 -2 -83 10 -83 14 0
19 75 6 88 -7 7 -12 5 -16 -5z M455 168 c-9 -23 -2 -83 10 -83 14 0 19 75 6
88 -7 7 -12 5 -16 -5z"/>
</g>
</svg>

