<?xml version="1.0" standalone="no"?>
<!DOCTYPE svg PUBLIC "-//W3C//DTD SVG 20010904//EN"
 "http://www.w3.org/TR/2001/REC-SVG-20010904/DTD/svg10.dtd">
<svg version="1.0" xmlns="http://www.w3.org/2000/svg"
 width="48.000000pt" height="48.000000pt" viewBox="0 0 48.000000 48.000000"
 preserveAspectRatio="xMidYMid meet">
<metadata>
Created by potrace 1.16, written by Peter Selinger 2001-2019
</metadata>
<g transform="translate(0.000000,48.000000) scale(0.100000,-0.100000)"
fill="currentColor" stroke="none">
<path d="M155 411 c-44 -26 -83 -76 -90 -114 -3 -18 -5 -77 -3 -132 4 -125 3
-125 178 -125 175 0 174 0 178 125 2 55 0 115 -3 133 -7 37 -55 96 -96 118
-40 20 -127 18 -164 -5z m172 -23 c37 -25 73 -90 73 -130 0 -19 -9 -32 -34
-46 -21 -12 -36 -30 -38 -44 -3 -22 -7 -23 -88 -23 -81 0 -85 1 -88 23 -2 14
-17 32 -38 44 -40 24 -44 51 -14 112 29 59 72 86 139 86 40 0 64 -6 88 -22z
m-215 -200 c9 -7 18 -22 20 -33 5 -28 45 -45 108 -45 63 0 103 17 108 45 4 20
28 45 44 45 5 0 8 -28 6 -62 l-3 -63 -155 0 -155 0 -3 63 c-3 63 2 72 30 50z
M154 259 c-10 -17 13 -36 27 -22 12 12 4 33 -11 33 -5 0 -12 -5 -16 -11z M294
259 c-10 -17 13 -36 27 -22 12 12 4 33 -11 33 -5 0 -12 -5 -16 -11z M5 227
c-9 -22 -2 -62 10 -60 6 1 11 14 13 29 4 32 -14 56 -23 31z M455 227 c-9 -22
-2 -62 10 -60 6 1 11 14 13 29 4 32 -14 56 -23 31z"/>
</g>
</svg>

