<?xml version="1.0" standalone="no"?>
<!DOCTYPE svg PUBLIC "-//W3C//DTD SVG 20010904//EN"
 "http://www.w3.org/TR/2001/REC-SVG-20010904/DTD/svg10.dtd">
<svg version="1.0" xmlns="http://www.w3.org/2000/svg"
 width="48.000000pt" height="48.000000pt" viewBox="0 0 48.000000 48.000000"
 preserveAspectRatio="xMidYMid meet">
<metadata>
Created by potrace 1.16, written by Peter Selinger 2001-2019
</metadata>
<g transform="translate(0.000000,48.000000) scale(0.100000,-0.100000)"
fill="currentColor" stroke="none">
<path d="M6 423 c-8 -8 -8 -191 1 -233 4 -21 16 -38 34 -49 15 -9 31 -27 34
-41 12 -48 19 -50 165 -50 146 0 153 2 165 50 3 14 19 33 35 42 35 20 43 60
38 193 -4 114 -22 119 -26 8 -2 -46 -6 -83 -10 -83 -16 1 -29 17 -36 45 -13
54 -18 55 -166 55 -148 0 -153 -1 -166 -55 -7 -28 -20 -45 -36 -45 -5 0 -8 36
-8 79 0 74 -7 100 -24 84z m369 -218 l0 -130 -32 -3 -33 -3 0 50 c0 56 -14 71
-70 71 -56 0 -70 -15 -70 -71 l0 -50 -32 3 -33 3 -3 119 c-1 66 0 126 2 133 4
11 35 13 138 11 l133 -3 0 -130z m-305 -5 c0 -27 -4 -50 -8 -50 -29 0 -43 65
-20 88 22 22 28 13 28 -38z m368 38 c23 -23 9 -88 -20 -88 -4 0 -8 23 -8 50 0
51 6 60 28 38z m-148 -93 c0 -11 -12 -15 -50 -15 -38 0 -50 4 -50 15 0 11 12
15 50 15 38 0 50 -4 50 -15z m0 -55 c0 -17 -7 -20 -50 -20 -43 0 -50 3 -50 20
0 17 7 20 50 20 43 0 50 -3 50 -20z M135 271 c-9 -30 5 -51 35 -51 30 0 44 21
35 51 -4 13 -16 19 -35 19 -19 0 -31 -6 -35 -19z m55 -16 c0 -8 -9 -15 -20
-15 -11 0 -20 7 -20 15 0 8 9 15 20 15 11 0 20 -7 20 -15z M275 271 c-9 -30 5
-51 35 -51 30 0 44 21 35 51 -4 13 -16 19 -35 19 -19 0 -31 -6 -35 -19z m55
-16 c0 -8 -9 -15 -20 -15 -11 0 -20 7 -20 15 0 8 9 15 20 15 11 0 20 -7 20
-15z"/>
</g>
</svg>

