<?xml version="1.0" standalone="no"?>
<!DOCTYPE svg PUBLIC "-//W3C//DTD SVG 20010904//EN"
 "http://www.w3.org/TR/2001/REC-SVG-20010904/DTD/svg10.dtd">
<svg version="1.0" xmlns="http://www.w3.org/2000/svg"
 width="48.000000pt" height="48.000000pt" viewBox="0 0 48.000000 48.000000"
 preserveAspectRatio="xMidYMid meet">
<metadata>
Created by potrace 1.16, written by Peter Selinger 2001-2019
</metadata>
<g transform="translate(0.000000,48.000000) scale(0.100000,-0.100000)"
fill="currentColor" stroke="none">
<path d="M128 439 c-12 -6 -18 -22 -18 -43 0 -25 -5 -35 -19 -39 -11 -3 -22
-17 -26 -36 -4 -21 -14 -33 -30 -37 -26 -6 -35 -29 -35 -92 0 -52 14 -82 40
-82 12 0 21 -10 25 -31 9 -42 35 -49 175 -49 140 0 166 7 175 49 4 21 13 31
25 31 26 0 40 30 40 82 0 63 -9 86 -35 92 -16 4 -26 16 -30 37 -4 19 -15 33
-26 36 -14 4 -19 14 -19 39 0 23 -6 37 -19 44 -25 13 -201 13 -223 -1z m62
-44 c0 -21 -5 -25 -30 -25 -25 0 -30 4 -30 25 0 21 5 25 30 25 25 0 30 -4 30
-25z m80 0 c0 -21 -5 -25 -30 -25 -25 0 -30 4 -30 25 0 21 5 25 30 25 25 0 30
-4 30 -25z m80 0 c0 -21 -5 -25 -30 -25 -25 0 -30 4 -30 25 0 21 5 25 30 25
25 0 30 -4 30 -25z m40 -195 l0 -140 -35 0 c-35 0 -35 0 -35 45 0 52 -16 65
-80 65 -64 0 -80 -13 -80 -65 0 -45 0 -45 -35 -45 l-35 0 0 140 0 140 150 0
150 0 0 -140z m-330 -5 c0 -51 -3 -65 -15 -65 -12 0 -15 14 -15 65 0 51 3 65
15 65 12 0 15 -14 15 -65z m390 0 c0 -51 -3 -65 -15 -65 -12 0 -15 14 -15 65
0 51 3 65 15 65 12 0 15 -14 15 -65z m-150 -70 c0 -12 -13 -15 -60 -15 -47 0
-60 3 -60 15 0 12 13 15 60 15 47 0 60 -3 60 -15z m0 -50 c0 -12 -13 -15 -60
-15 -47 0 -60 3 -60 15 0 12 13 15 60 15 47 0 60 -3 60 -15z M125 271 c-9 -30
5 -51 35 -51 30 0 44 21 35 51 -4 13 -16 19 -35 19 -19 0 -31 -6 -35 -19z m55
-16 c0 -8 -9 -15 -20 -15 -11 0 -20 7 -20 15 0 8 9 15 20 15 11 0 20 -7 20
-15z M285 271 c-9 -30 5 -51 35 -51 30 0 44 21 35 51 -4 13 -16 19 -35 19 -19
0 -31 -6 -35 -19z m55 -16 c0 -8 -9 -15 -20 -15 -11 0 -20 7 -20 15 0 8 9 15
20 15 11 0 20 -7 20 -15z"/>
</g>
</svg>

