<?xml version="1.0" standalone="no"?>
<!DOCTYPE svg PUBLIC "-//W3C//DTD SVG 20010904//EN"
 "http://www.w3.org/TR/2001/REC-SVG-20010904/DTD/svg10.dtd">
<svg version="1.0" xmlns="http://www.w3.org/2000/svg"
 width="48.000000pt" height="48.000000pt" viewBox="0 0 48.000000 48.000000"
 preserveAspectRatio="xMidYMid meet">
<metadata>
Created by potrace 1.16, written by Peter Selinger 2001-2019
</metadata>
<g transform="translate(0.000000,48.000000) scale(0.100000,-0.100000)"
fill="currentColor" stroke="none">
<path d="M202 458 c-19 -19 -14 -56 8 -70 31 -19 24 -35 -18 -42 -99 -15 -164
-107 -166 -231 -2 -112 -5 -110 214 -110 219 0 216 -2 214 110 -2 124 -67 216
-166 231 -42 7 -49 23 -18 42 22 14 27 51 8 70 -7 7 -24 12 -38 12 -14 0 -31
-5 -38 -12z m63 -33 c0 -22 -31 -33 -47 -17 -17 17 -1 44 24 40 15 -2 23 -10
23 -23z m91 -131 c58 -47 74 -86 74 -181 l0 -83 -49 0 -48 0 -5 50 c-3 28 -8
54 -12 58 -10 9 -142 9 -152 0 -4 -4 -9 -30 -12 -58 l-5 -50 -49 0 -50 0 4 94
c3 87 5 97 33 132 48 58 88 76 167 72 57 -3 73 -8 104 -34z m-56 -189 c0 -12
-13 -15 -60 -15 -47 0 -60 3 -60 15 0 12 13 15 60 15 47 0 60 -3 60 -15z m0
-60 c0 -12 -13 -15 -60 -15 -47 0 -60 3 -60 15 0 12 13 15 60 15 47 0 60 -3
60 -15z M120 246 c-28 -34 11 -93 47 -70 32 20 39 41 19 63 -22 24 -49 27 -66
7z m53 -18 c6 -19 -3 -38 -18 -38 -18 0 -28 17 -21 35 7 18 33 20 39 3z M300
246 c-28 -35 11 -93 48 -70 35 22 22 84 -18 84 -10 0 -23 -7 -30 -14z m47 -22
c8 -21 -13 -42 -28 -27 -13 13 -5 43 11 43 6 0 13 -7 17 -16z"/>
</g>
</svg>

