<?xml version="1.0" standalone="no"?>
<!DOCTYPE svg PUBLIC "-//W3C//DTD SVG 20010904//EN"
 "http://www.w3.org/TR/2001/REC-SVG-20010904/DTD/svg10.dtd">
<svg version="1.0" xmlns="http://www.w3.org/2000/svg"
 width="48.000000pt" height="48.000000pt" viewBox="0 0 48.000000 48.000000"
 preserveAspectRatio="xMidYMid meet">
<metadata>
Created by potrace 1.16, written by Peter Selinger 2001-2019
</metadata>
<g transform="translate(0.000000,48.000000) scale(0.100000,-0.100000)"
fill="currentColor" stroke="none">
<path d="M134 472 c-63 -9 -88 -102 -41 -149 55 -56 149 -17 149 62 0 59 -47
97 -108 87z m68 -39 c22 -20 23 -70 1 -95 -20 -22 -70 -23 -95 -1 -22 20 -23
70 -1 95 20 22 70 23 95 1z M125 260 c-66 -14 -121 -78 -114 -130 4 -25 5 -25
102 -25 126 0 135 19 9 23 -53 2 -92 7 -92 13 0 24 33 70 60 84 34 18 93 20
122 4 22 -12 37 -4 21 12 -16 16 -74 26 -108 19z M311 244 c-12 -15 -21 -36
-21 -48 0 -11 -7 -30 -15 -40 -23 -30 -19 -112 5 -136 29 -29 151 -29 180 0
24 24 28 106 5 136 -8 10 -15 29 -15 40 0 12 -9 33 -21 48 -16 20 -29 26 -59
26 -30 0 -43 -6 -59 -26z m101 -11 c10 -9 18 -24 18 -35 0 -15 -8 -18 -60 -18
-49 0 -60 3 -60 17 0 46 66 69 102 36z m38 -143 l0 -60 -80 0 -80 0 0 60 0 60
80 0 80 0 0 -60z M380 105 c-7 -9 -21 -13 -31 -10 -23 8 -25 -8 -4 -25 13 -11
20 -9 40 10 14 13 25 27 25 32 0 13 -17 9 -30 -7z"/>
</g>
</svg>

