<?xml version="1.0" standalone="no"?>
<!DOCTYPE svg PUBLIC "-//W3C//DTD SVG 20010904//EN"
 "http://www.w3.org/TR/2001/REC-SVG-20010904/DTD/svg10.dtd">
<svg version="1.0" xmlns="http://www.w3.org/2000/svg"
 width="48.000000pt" height="48.000000pt" viewBox="0 0 48.000000 48.000000"
 preserveAspectRatio="xMidYMid meet">
<metadata>
Created by potrace 1.16, written by Peter Selinger 2001-2019
</metadata>
<g transform="translate(0.000000,48.000000) scale(0.100000,-0.100000)"
fill="currentColor" stroke="none">
<path d="M162 449 c-64 -32 -86 -70 -91 -156 -2 -49 0 -73 8 -73 7 0 11 24 11
64 0 49 5 71 23 97 60 91 192 90 255 -1 17 -26 22 -47 22 -96 0 -36 4 -64 10
-64 17 0 12 119 -7 157 -37 79 -149 114 -231 72z M6 393 c-9 -9 -7 -156 3
-171 14 -22 21 11 21 93 0 68 -8 94 -24 78z M456 393 c-9 -9 -7 -156 3 -171
14 -22 21 11 21 93 0 68 -8 94 -24 78z M142 308 c-32 -32 -1 -85 42 -74 31 8
40 33 21 62 -17 26 -44 31 -63 12z m50 -20 c8 -21 -2 -38 -23 -38 -19 0 -27
29 -12 43 11 11 31 8 35 -5z M275 296 c-19 -29 -10 -54 21 -62 30 -8 54 11 54
40 0 47 -49 62 -75 22z m53 -24 c3 -16 -2 -22 -16 -22 -22 0 -32 17 -24 38 7
20 37 9 40 -16z M23 173 c-8 -3 -13 -24 -13 -55 0 -41 5 -54 29 -79 l29 -29
172 0 172 0 29 29 c24 25 29 37 29 80 0 45 -3 51 -24 57 -35 8 -66 -4 -66 -27
0 -12 -7 -19 -20 -19 -13 0 -20 7 -20 19 0 11 -9 23 -20 26 -30 9 -60 -4 -60
-26 0 -12 -7 -19 -20 -19 -13 0 -20 7 -20 19 0 11 -9 23 -20 26 -30 9 -60 -4
-60 -26 0 -12 -7 -19 -20 -19 -13 0 -20 7 -20 19 0 26 -41 39 -77 24z m59 -35
c2 -19 9 -23 38 -23 29 0 36 4 38 23 5 30 39 30 44 0 2 -19 9 -23 38 -23 29 0
36 4 38 23 2 14 10 22 22 22 12 0 20 -8 22 -22 2 -19 9 -23 38 -23 29 0 36 4
38 23 3 16 10 22 28 22 22 0 24 -4 24 -42 0 -29 -7 -49 -22 -65 -21 -22 -27
-23 -187 -23 -155 0 -166 1 -188 22 -17 16 -23 32 -23 65 0 39 2 43 24 43 18
0 25 -6 28 -22z"/>
</g>
</svg>

