<?xml version="1.0" standalone="no"?>
<!DOCTYPE svg PUBLIC "-//W3C//DTD SVG 20010904//EN"
 "http://www.w3.org/TR/2001/REC-SVG-20010904/DTD/svg10.dtd">
<svg version="1.0" xmlns="http://www.w3.org/2000/svg"
 width="48.000000pt" height="48.000000pt" viewBox="0 0 48.000000 48.000000"
 preserveAspectRatio="xMidYMid meet">
<metadata>
Created by potrace 1.16, written by Peter Selinger 2001-2019
</metadata>
<g transform="translate(0.000000,48.000000) scale(0.100000,-0.100000)"
fill="currentColor" stroke="none">
<path d="M30 422 c0 -26 -5 -53 -12 -60 -15 -15 -6 -24 16 -16 12 4 16 19 16
54 0 43 2 48 20 43 11 -3 40 -23 64 -44 34 -30 58 -42 102 -50 64 -12 157 -44
192 -67 29 -19 30 -64 1 -84 -19 -12 -31 -12 -87 -1 -92 19 -136 14 -140 -14
-2 -13 1 -23 7 -23 6 0 11 7 11 15 0 18 36 20 43 3 4 -10 7 -10 14 -1 7 9 22
9 70 -1 54 -11 65 -10 88 3 29 18 40 49 31 87 -8 32 -78 65 -197 95 -51 13
-94 30 -109 44 -35 32 -92 65 -112 65 -15 0 -18 -9 -18 -48z M210 295 c0 -3 9
-15 19 -27 18 -18 21 -19 41 -5 22 15 22 15 2 26 -21 11 -62 15 -62 6z M100
225 c-12 -31 -13 -55 -2 -55 11 0 30 70 21 76 -5 3 -14 -7 -19 -21z M46 228
c-14 -40 -15 -48 -6 -53 11 -7 24 38 17 57 -3 9 -7 8 -11 -4z M265 131 c-73
-26 -108 -33 -101 -22 4 5 2 12 -3 15 -5 4 -19 -7 -30 -23 -19 -27 -78 -71
-95 -71 -4 0 -4 23 0 50 4 31 3 50 -4 50 -10 0 -27 -108 -18 -117 9 -9 51 6
91 33 21 14 84 39 139 56 56 16 105 34 111 39 15 15 -35 9 -90 -10z"/>
</g>
</svg>

