<?xml version="1.0" standalone="no"?>
<!DOCTYPE svg PUBLIC "-//W3C//DTD SVG 20010904//EN"
 "http://www.w3.org/TR/2001/REC-SVG-20010904/DTD/svg10.dtd">
<svg version="1.0" xmlns="http://www.w3.org/2000/svg"
 width="48.000000pt" height="48.000000pt" viewBox="0 0 48.000000 48.000000"
 preserveAspectRatio="xMidYMid meet">
<metadata>
Created by potrace 1.16, written by Peter Selinger 2001-2019
</metadata>
<g transform="translate(0.000000,48.000000) scale(0.100000,-0.100000)"
fill="currentColor" stroke="none">
<path d="M191 469 c-245 -47 -243 -412 2 -458 168 -31 307 108 276 275 -17 88
-90 167 -168 180 -20 3 -43 7 -51 9 -8 1 -35 -1 -59 -6z m39 -39 c0 -11 5 -20
10 -20 6 0 10 9 10 20 0 23 23 26 66 10 21 -8 24 -14 16 -22 -7 -7 -12 -19
-12 -27 1 -12 6 -10 20 7 l20 24 31 -31 31 -31 -24 -21 -23 -20 31 6 c27 5 32
3 38 -17 11 -42 7 -58 -14 -58 -11 0 -20 -4 -20 -10 0 -5 9 -10 20 -10 23 0
26 -23 10 -66 -8 -21 -14 -24 -22 -16 -7 7 -19 12 -27 12 -12 -1 -10 -6 7 -20
l24 -20 -31 -31 -31 -31 -21 24 -20 23 6 -31 c7 -37 -7 -44 -91 -44 -95 0
-186 74 -201 163 -5 33 -3 37 16 37 11 0 21 5 21 10 0 6 -9 10 -20 10 -21 0
-25 16 -14 58 6 20 11 22 38 17 l31 -6 -23 20 -24 21 31 31 31 31 20 -24 c14
-17 19 -19 20 -7 0 8 -5 20 -12 27 -9 9 -6 14 13 21 42 17 69 13 69 -9z M130
240 c0 -5 24 -10 53 -10 l52 0 28 -50 c16 -28 33 -50 38 -50 12 0 12 0 -25 68
l-29 52 -59 0 c-32 0 -58 -4 -58 -10z"/>
</g>
</svg>

