<?xml version="1.0" standalone="no"?>
<!DOCTYPE svg PUBLIC "-//W3C//DTD SVG 20010904//EN"
 "http://www.w3.org/TR/2001/REC-SVG-20010904/DTD/svg10.dtd">
<svg version="1.0" xmlns="http://www.w3.org/2000/svg"
 width="48.000000pt" height="48.000000pt" viewBox="0 0 48.000000 48.000000"
 preserveAspectRatio="xMidYMid meet">
<metadata>
Created by potrace 1.16, written by Peter Selinger 2001-2019
</metadata>
<g transform="translate(0.000000,48.000000) scale(0.100000,-0.100000)"
fill="currentColor" stroke="none">
<path d="M111 370 c-18 -4 -48 -22 -65 -39 -28 -28 -31 -38 -31 -91 0 -53 3
-63 31 -90 37 -38 83 -50 194 -50 111 0 157 12 194 50 28 27 31 37 31 90 0 53
-3 63 -31 90 -17 17 -48 35 -70 40 -47 11 -206 11 -253 0z m305 -54 c28 -28
34 -42 34 -76 0 -34 -6 -48 -34 -76 l-34 -34 -142 0 -142 0 -34 34 c-28 28
-34 42 -34 76 0 34 6 48 34 76 l34 34 142 0 142 0 34 -34z M294 320 c-12 -5
-29 -19 -38 -32 -51 -72 33 -165 112 -124 60 31 60 121 1 151 -31 17 -44 18
-75 5z m83 -32 c17 -14 17 -82 0 -96 -6 -6 -24 -13 -39 -17 -21 -5 -33 -1 -52
19 -15 14 -26 35 -26 46 0 12 11 32 26 46 19 20 31 24 52 19 15 -4 33 -11 39
-17z"/>
</g>
</svg>

