<?xml version="1.0" standalone="no"?>
<!DOCTYPE svg PUBLIC "-//W3C//DTD SVG 20010904//EN"
 "http://www.w3.org/TR/2001/REC-SVG-20010904/DTD/svg10.dtd">
<svg version="1.0" xmlns="http://www.w3.org/2000/svg"
 width="48.000000pt" height="48.000000pt" viewBox="0 0 48.000000 48.000000"
 preserveAspectRatio="xMidYMid meet">
<metadata>
Created by potrace 1.16, written by Peter Selinger 2001-2019
</metadata>
<g transform="translate(0.000000,48.000000) scale(0.100000,-0.100000)"
fill="currentColor" stroke="none">
<path d="M177 420 c-14 -11 -29 -29 -32 -40 -5 -16 -15 -20 -56 -20 -81 0 -89
-15 -89 -165 0 -175 -14 -165 240 -165 254 0 240 -10 240 165 0 150 -8 165
-89 165 -41 0 -51 4 -56 20 -18 56 -108 79 -158 40z m123 -27 l22 -28 -41 -3
c-23 -2 -59 -2 -82 0 l-41 3 22 28 c17 21 30 27 60 27 30 0 43 -6 60 -27z
m150 -108 l0 -45 -78 0 c-66 0 -79 3 -90 20 -8 13 -23 20 -42 20 -19 0 -34 -7
-42 -20 -11 -17 -24 -20 -90 -20 l-78 0 0 45 0 45 210 0 210 0 0 -45z m-185
-70 c0 -36 -2 -40 -25 -40 -20 0 -26 6 -28 28 -5 42 5 59 30 55 20 -3 23 -9
23 -43z m-75 -29 c17 -45 83 -45 100 0 9 22 14 24 85 24 l75 0 0 -75 0 -75
-210 0 -210 0 0 75 0 75 75 0 c71 0 76 -2 85 -24z"/>
</g>
</svg>

