<?xml version="1.0" standalone="no"?>
<!DOCTYPE svg PUBLIC "-//W3C//DTD SVG 20010904//EN"
 "http://www.w3.org/TR/2001/REC-SVG-20010904/DTD/svg10.dtd">
<svg version="1.0" xmlns="http://www.w3.org/2000/svg"
 width="48.000000pt" height="48.000000pt" viewBox="0 0 48.000000 48.000000"
 preserveAspectRatio="xMidYMid meet">
<metadata>
Created by potrace 1.16, written by Peter Selinger 2001-2019
</metadata>
<g transform="translate(0.000000,48.000000) scale(0.100000,-0.100000)"
fill="currentColor" stroke="none">
<path d="M191 469 c-245 -47 -243 -412 2 -458 168 -31 307 108 276 275 -17 88
-90 167 -168 180 -20 3 -43 7 -51 9 -8 1 -35 -1 -59 -6z m170 -54 c64 -45 91
-104 87 -187 -4 -82 -39 -139 -108 -176 -38 -20 -56 -23 -112 -20 -82 4 -139
39 -176 108 -20 38 -23 56 -20 112 4 82 39 139 108 176 38 20 56 23 112 20 55
-3 75 -9 109 -33z M208 294 l-26 -26 -32 23 c-31 24 -32 24 -47 4 -17 -23 -13
-109 6 -128 17 -17 245 -17 262 0 19 19 23 105 6 128 -15 20 -16 20 -47 -3
l-32 -24 -27 26 c-15 14 -29 26 -32 26 -2 0 -16 -12 -31 -26z m62 -19 c29 -31
37 -31 67 -3 l23 21 0 -56 0 -57 -120 0 -120 0 0 57 0 56 23 -21 c30 -28 38
-28 67 3 13 14 26 25 30 25 4 0 17 -11 30 -25z"/>
</g>
</svg>

