<?xml version="1.0" standalone="no"?>
<!DOCTYPE svg PUBLIC "-//W3C//DTD SVG 20010904//EN"
 "http://www.w3.org/TR/2001/REC-SVG-20010904/DTD/svg10.dtd">
<svg version="1.0" xmlns="http://www.w3.org/2000/svg"
 width="48.000000pt" height="48.000000pt" viewBox="0 0 48.000000 48.000000"
 preserveAspectRatio="xMidYMid meet">
<metadata>
Created by potrace 1.16, written by Peter Selinger 2001-2019
</metadata>
<g transform="translate(0.000000,48.000000) scale(0.100000,-0.100000)"
fill="currentColor" stroke="none">
<path d="M83 472 c-26 -4 -30 -24 -8 -42 19 -16 20 -40 1 -40 -7 0 -19 7 -26
15 -32 39 -56 -5 -36 -66 13 -41 70 -73 110 -63 40 10 31 22 -15 20 -32 0 -45
5 -60 23 -23 29 -27 80 -5 61 23 -19 61 -8 64 18 2 13 -2 30 -8 38 -10 11 -9
14 8 14 11 0 28 -3 37 -6 24 -10 46 -60 39 -89 -3 -14 -2 -25 4 -25 29 0 15
105 -17 125 -20 12 -65 21 -88 17z M339 466 c-40 -13 -72 -67 -64 -106 5 -21
-6 -36 -60 -90 -57 -57 -70 -65 -104 -66 -51 0 -88 -26 -99 -67 -16 -61 7 -99
38 -62 16 19 40 20 40 1 0 -7 -7 -19 -15 -26 -37 -31 1 -54 62 -38 41 11 67
48 67 99 1 34 9 47 66 104 54 54 69 65 90 60 39 -8 93 24 106 64 20 61 -4 105
-36 66 -16 -19 -40 -20 -40 -1 0 7 7 19 15 26 39 32 -5 56 -66 36z m41 -30
c-19 -23 -8 -61 18 -64 13 -2 30 2 38 8 11 10 14 9 14 -8 0 -11 -3 -28 -6 -37
-10 -24 -60 -46 -90 -39 -22 6 -36 -3 -101 -67 -65 -65 -73 -77 -69 -102 10
-52 -25 -97 -76 -97 -17 0 -18 3 -8 14 6 8 10 25 8 38 -3 26 -41 37 -64 18
-22 -19 -18 32 5 61 15 19 28 23 63 22 41 -1 47 3 115 69 69 68 71 73 70 115
-2 36 3 48 22 64 29 23 80 27 61 5z M348 203 c-33 -8 -18 -20 23 -19 32 0 45
-5 60 -23 23 -29 27 -80 5 -61 -23 19 -61 8 -64 -18 -2 -13 2 -30 8 -38 19
-22 -32 -18 -61 5 -18 15 -23 28 -23 60 2 45 -12 55 -22 16 -10 -39 25 -98 65
-111 61 -20 105 4 66 36 -19 16 -20 40 -1 40 7 0 19 -7 26 -15 31 -37 54 1 38
62 -12 47 -72 80 -120 66z"/>
</g>
</svg>

