<?xml version="1.0" standalone="no"?>
<!DOCTYPE svg PUBLIC "-//W3C//DTD SVG 20010904//EN"
 "http://www.w3.org/TR/2001/REC-SVG-20010904/DTD/svg10.dtd">
<svg version="1.0" xmlns="http://www.w3.org/2000/svg"
 width="48.000000pt" height="48.000000pt" viewBox="0 0 48.000000 48.000000"
 preserveAspectRatio="xMidYMid meet">
<metadata>
Created by potrace 1.16, written by Peter Selinger 2001-2019
</metadata>
<g transform="translate(0.000000,48.000000) scale(0.100000,-0.100000)"
fill="currentColor" stroke="none">
<path d="M339 466 c-40 -13 -72 -67 -64 -106 5 -21 -6 -36 -60 -90 -57 -57
-70 -65 -104 -66 -51 0 -88 -26 -99 -67 -16 -61 7 -99 38 -62 16 19 40 20 40
1 0 -7 -7 -19 -15 -26 -37 -31 1 -54 62 -38 41 11 67 48 67 99 1 34 9 47 66
104 54 54 69 65 90 60 39 -8 93 24 106 64 20 61 -4 105 -36 66 -16 -19 -40
-20 -40 -1 0 7 7 19 15 26 39 32 -5 56 -66 36z m41 -30 c-19 -23 -8 -61 18
-64 13 -2 30 2 38 8 11 10 14 9 14 -8 0 -11 -3 -28 -6 -37 -10 -24 -60 -46
-90 -39 -22 6 -36 -3 -101 -67 -65 -65 -73 -77 -69 -102 10 -52 -25 -97 -76
-97 -17 0 -18 3 -8 14 6 8 10 25 8 38 -3 26 -41 37 -64 18 -22 -19 -18 32 5
61 16 19 28 24 64 22 42 -1 47 2 117 72 63 63 72 77 66 99 -7 28 14 80 36 89
7 3 24 6 37 6 19 1 21 -2 11 -13z"/>
</g>
</svg>

