<?xml version="1.0" standalone="no"?>
<!DOCTYPE svg PUBLIC "-//W3C//DTD SVG 20010904//EN"
 "http://www.w3.org/TR/2001/REC-SVG-20010904/DTD/svg10.dtd">
<svg version="1.0" xmlns="http://www.w3.org/2000/svg"
 width="48.000000pt" height="48.000000pt" viewBox="0 0 48.000000 48.000000"
 preserveAspectRatio="xMidYMid meet">
<metadata>
Created by potrace 1.16, written by Peter Selinger 2001-2019
</metadata>
<g transform="translate(0.000000,48.000000) scale(0.100000,-0.100000)"
fill="currentColor" stroke="currentColor" stroke-width="6" stroke-linejoin="round">
<path d="M175 466 c-68 -30 -105 -107 -90 -183 5 -21 7 -48 6 -61 -4 -33 27
-64 60 -60 29 3 69 -25 69 -49 0 -7 -9 -13 -19 -13 -20 0 -34 -22 -25 -42 3
-7 19 -23 35 -36 l29 -24 29 24 c16 13 32 29 35 37 7 16 -11 41 -30 41 -21 0
-17 24 7 46 12 11 32 17 48 16 49 -5 60 23 64 165 2 56 -15 89 -65 126 -33 25
-113 32 -153 13z m146 -62 c45 -43 52 -134 10 -134 -9 0 -22 -5 -28 -11 -8 -8
-17 -7 -32 2 -16 11 -27 11 -53 1 -21 -8 -36 -8 -42 -2 -6 6 -18 10 -27 10
-41 0 -35 91 9 132 35 33 49 38 96 34 24 -3 49 -14 67 -32z m-167 -195 c-3 -5
-10 -7 -15 -3 -5 3 -7 10 -3 15 3 5 10 7 15 3 5 -3 7 -10 3 -15z m111 -9 c0
-18 -6 -26 -23 -28 -13 -2 -25 3 -28 12 -10 26 4 48 28 44 17 -2 23 -10 23
-28z m82 4 c-9 -9 -28 6 -21 18 4 6 10 6 17 -1 6 -6 8 -13 4 -17z"/>
</g>
</svg>

