<?xml version="1.0" standalone="no"?>
<!DOCTYPE svg PUBLIC "-//W3C//DTD SVG 20010904//EN"
 "http://www.w3.org/TR/2001/REC-SVG-20010904/DTD/svg10.dtd">
<svg version="1.0" xmlns="http://www.w3.org/2000/svg"
 width="48.000000pt" height="48.000000pt" viewBox="0 0 48.000000 48.000000"
 preserveAspectRatio="xMidYMid meet">
<metadata>
Created by potrace 1.16, written by Peter Selinger 2001-2019
</metadata>
<g transform="translate(0.000000,48.000000) scale(0.100000,-0.100000)"
fill="currentColor" stroke="currentColor" stroke-width="6" stroke-linejoin="round">
<path d="M290 460 c-11 -11 -20 -28 -20 -39 0 -10 9 -30 20 -44 27 -34 25 -42
-10 -57 -29 -12 -30 -14 -14 -31 11 -13 25 -16 45 -12 58 11 119 -38 119 -96
0 -51 -48 -101 -98 -101 -19 0 -32 -18 -32 -42 0 -20 88 -2 124 26 87 66 67
207 -34 252 -32 14 -40 23 -40 45 0 16 -9 32 -22 42 -19 12 -21 17 -10 29 11
11 16 9 31 -11 19 -24 41 -22 41 5 0 21 -37 54 -60 54 -11 0 -29 -9 -40 -20z
M110 430 c-11 -11 -20 -28 -20 -39 0 -10 9 -30 20 -44 11 -14 20 -29 20 -34 0
-4 -21 -19 -47 -33 -60 -32 -86 -78 -80 -141 13 -152 217 -190 282 -53 35 75
2 164 -74 199 -33 15 -41 23 -41 45 0 17 -8 33 -22 43 -19 12 -21 17 -10 29
11 11 16 9 31 -11 19 -24 41 -22 41 5 0 21 -37 54 -60 54 -11 0 -29 -9 -40
-20z m89 -194 c67 -35 65 -143 -4 -174 -51 -23 -107 -7 -131 39 -47 91 44 182
135 135z M116 214 c-31 -30 -9 -84 34 -84 24 0 50 26 50 50 0 24 -26 50 -50
50 -10 0 -26 -7 -34 -16z M308 255 c-7 -7 25 -95 34 -95 13 0 38 32 38 49 0
31 -53 65 -72 46z"/>
</g>
</svg>

