<?xml version="1.0" standalone="no"?>
<!DOCTYPE svg PUBLIC "-//W3C//DTD SVG 20010904//EN"
 "http://www.w3.org/TR/2001/REC-SVG-20010904/DTD/svg10.dtd">
<svg version="1.0" xmlns="http://www.w3.org/2000/svg"
 width="48.000000pt" height="48.000000pt" viewBox="0 0 48.000000 48.000000"
 preserveAspectRatio="xMidYMid meet">
<metadata>
Created by potrace 1.16, written by Peter Selinger 2001-2019
</metadata>
<g transform="translate(0.000000,48.000000) scale(0.100000,-0.100000)"
fill="currentColor" stroke="currentColor" stroke-width="6" stroke-linejoin="round">
<path d="M62 457 c-29 -30 -28 -68 2 -96 l24 -23 -40 -83 c-48 -100 -56 -150
-34 -193 17 -34 61 -62 96 -62 35 0 79 28 96 62 22 43 14 93 -34 193 l-40 83
24 23 c31 29 31 69 1 97 -30 28 -68 28 -95 -1z m64 -38 c10 -17 -13 -36 -27
-22 -12 12 -4 33 11 33 5 0 12 -5 16 -11z m8 -233 c20 -42 20 -60 1 -76 -18
-15 -45 -10 -58 12 -8 12 -6 27 8 57 10 23 21 41 25 41 4 0 15 -15 24 -34z
M325 455 c-31 -30 -32 -56 -1 -92 l24 -29 -40 -80 c-47 -96 -57 -148 -34 -192
17 -34 61 -62 96 -62 35 0 79 28 96 62 22 43 14 93 -34 193 l-40 83 24 23 c31
29 31 69 1 97 -30 29 -62 28 -92 -3z m61 -36 c10 -17 -13 -36 -27 -22 -12 12
-4 33 11 33 5 0 12 -5 16 -11z m8 -233 c20 -42 20 -60 1 -76 -18 -15 -45 -10
-58 12 -8 12 -6 27 8 57 10 23 21 41 25 41 4 0 15 -15 24 -34z"/>
</g>
</svg>

