<?xml version="1.0" standalone="no"?>
<!DOCTYPE svg PUBLIC "-//W3C//DTD SVG 20010904//EN"
 "http://www.w3.org/TR/2001/REC-SVG-20010904/DTD/svg10.dtd">
<svg version="1.0" xmlns="http://www.w3.org/2000/svg"
 width="48.000000pt" height="48.000000pt" viewBox="0 0 48.000000 48.000000"
 preserveAspectRatio="xMidYMid meet">
<metadata>
Created by potrace 1.16, written by Peter Selinger 2001-2019
</metadata>
<g transform="translate(0.000000,48.000000) scale(0.100000,-0.100000)"
fill="currentColor" stroke="currentColor" stroke-width="6" stroke-linejoin="round">
<path d="M30 403 c-25 -10 -30 -25 -30 -95 0 -82 6 -98 36 -98 24 0 33 23 14
35 -5 3 -10 31 -10 61 l0 54 200 0 200 0 0 -60 c0 -33 -4 -60 -10 -60 -5 0
-10 -7 -10 -15 0 -20 46 -20 54 1 9 25 7 147 -4 164 -8 12 -45 15 -217 17
-114 1 -215 -1 -223 -4z M200 313 c-27 -9 -200 -187 -200 -205 0 -30 37 -40
131 -36 l89 3 95 95 c52 52 95 102 95 112 0 9 -9 22 -19 28 -20 10 -164 13
-191 3z m80 -57 c0 -40 -18 -57 -34 -33 -9 11 -16 13 -30 5 -16 -9 -16 -11 -1
-22 10 -7 16 -21 14 -31 -4 -19 -93 -78 -103 -68 -11 11 -6 62 6 69 6 4 16 0
22 -9 9 -11 16 -13 30 -5 16 9 16 11 1 22 -27 19 -14 47 35 77 25 15 48 28 53
28 4 1 7 -14 7 -33z"/>
</g>
</svg>

