<?xml version="1.0" standalone="no"?>
<!DOCTYPE svg PUBLIC "-//W3C//DTD SVG 20010904//EN"
 "http://www.w3.org/TR/2001/REC-SVG-20010904/DTD/svg10.dtd">
<svg version="1.0" xmlns="http://www.w3.org/2000/svg"
 width="48.000000pt" height="48.000000pt" viewBox="0 0 48.000000 48.000000"
 preserveAspectRatio="xMidYMid meet">
<metadata>
Created by potrace 1.16, written by Peter Selinger 2001-2019
</metadata>
<g transform="translate(0.000000,48.000000) scale(0.100000,-0.100000)"
fill="currentColor" stroke="currentColor" stroke-width="6" stroke-linejoin="round">
<path d="M262 464 c-131 -67 -94 -265 52 -281 115 -13 200 106 151 211 -35 73
-131 106 -203 70z m82 -39 c3 -8 12 -15 21 -15 8 0 15 -4 15 -10 0 -5 -11 -10
-24 -10 -57 0 -73 -23 -28 -42 69 -30 78 -59 30 -101 -27 -24 -33 -26 -40 -13
-5 9 -16 16 -23 16 -8 0 -15 5 -15 10 0 6 11 10 24 10 57 0 73 23 29 42 -68
29 -78 57 -35 99 32 32 38 34 46 14z M82 283 c-70 -34 -101 -125 -67 -197 60
-127 254 -105 281 33 6 27 3 31 -32 46 -52 21 -73 42 -96 93 -21 46 -35 51
-86 25z m87 -70 c24 -20 18 -33 -15 -33 -32 0 -30 -11 6 -32 36 -20 40 -55 10
-81 -25 -21 -25 -21 -49 0 -24 20 -18 33 15 33 33 0 30 15 -6 30 -35 15 -41
52 -12 81 22 23 27 23 51 2z"/>
</g>
</svg>

