<?xml version="1.0" standalone="no"?>
<!DOCTYPE svg PUBLIC "-//W3C//DTD SVG 20010904//EN"
 "http://www.w3.org/TR/2001/REC-SVG-20010904/DTD/svg10.dtd">
<svg version="1.0" xmlns="http://www.w3.org/2000/svg"
 width="48.000000pt" height="48.000000pt" viewBox="0 0 48.000000 48.000000"
 preserveAspectRatio="xMidYMid meet">
<metadata>
Created by potrace 1.16, written by Peter Selinger 2001-2019
</metadata>
<g transform="translate(0.000000,48.000000) scale(0.100000,-0.100000)"
fill="currentColor" stroke="currentColor" stroke-width="6" stroke-linejoin="round">
<path d="M136 385 c-8 -9 -33 -15 -59 -15 -54 0 -77 -8 -77 -25 0 -18 23 -25
81 -25 27 0 49 -4 49 -10 0 -5 -22 -10 -49 -10 -58 0 -81 -7 -81 -25 0 -18 23
-25 81 -25 27 0 49 -4 49 -10 0 -5 -22 -10 -49 -10 -58 0 -81 -7 -81 -25 0
-18 23 -25 81 -25 27 0 49 -4 49 -10 0 -5 -22 -10 -49 -10 -58 0 -81 -7 -81
-25 0 -17 23 -25 77 -25 26 0 51 -6 59 -15 22 -21 186 -21 208 0 8 9 33 15 59
15 54 0 77 8 77 25 0 18 -23 25 -81 25 -27 0 -49 5 -49 10 0 6 22 10 49 10 58
0 81 7 81 25 0 18 -23 25 -81 25 -27 0 -49 5 -49 10 0 6 22 10 49 10 58 0 81
7 81 25 0 18 -23 25 -81 25 -27 0 -49 5 -49 10 0 6 22 10 49 10 58 0 81 7 81
25 0 17 -23 25 -77 25 -26 0 -51 6 -59 15 -12 11 -39 15 -104 15 -65 0 -92 -4
-104 -15z m127 -59 c26 -20 21 -36 -13 -36 -40 0 -38 -16 5 -34 43 -18 47 -51
11 -85 -21 -20 -27 -21 -45 -9 -31 19 -26 38 9 38 40 0 38 13 -5 39 -40 23
-44 45 -13 78 25 27 27 27 51 9z"/>
</g>
</svg>

