<?xml version="1.0" standalone="no"?>
<!DOCTYPE svg PUBLIC "-//W3C//DTD SVG 20010904//EN"
 "http://www.w3.org/TR/2001/REC-SVG-20010904/DTD/svg10.dtd">
<svg version="1.0" xmlns="http://www.w3.org/2000/svg"
 width="48.000000pt" height="48.000000pt" viewBox="0 0 48.000000 48.000000"
 preserveAspectRatio="xMidYMid meet">
<metadata>
Created by potrace 1.16, written by Peter Selinger 2001-2019
</metadata>
<g transform="translate(0.000000,48.000000) scale(0.100000,-0.100000)"
fill="currentColor" stroke="currentColor" stroke-width="6" stroke-linejoin="round">
<path d="M177 474 c-4 -4 -7 -42 -7 -85 l0 -78 -82 -3 -83 -3 0 -65 0 -65 82
-3 82 -3 3 -82 3 -82 65 0 65 0 3 82 3 82 82 3 82 3 0 65 0 65 -82 3 -82 3 -3
82 -3 82 -60 3 c-34 2 -64 0 -68 -4z"/>
</g>
</svg>

