<?xml version="1.0" standalone="no"?>
<!DOCTYPE svg PUBLIC "-//W3C//DTD SVG 20010904//EN"
 "http://www.w3.org/TR/2001/REC-SVG-20010904/DTD/svg10.dtd">
<svg version="1.0" xmlns="http://www.w3.org/2000/svg"
 width="48.000000pt" height="48.000000pt" viewBox="0 0 48.000000 48.000000"
 preserveAspectRatio="xMidYMid meet">
<metadata>
Created by potrace 1.16, written by Peter Selinger 2001-2019
</metadata>
<g transform="translate(0.000000,48.000000) scale(0.100000,-0.100000)"
fill="currentColor" stroke="currentColor" stroke-width="6" stroke-linejoin="round">
<path d="M12 468 c-17 -17 -17 -439 0 -456 17 -17 439 -17 456 0 17 17 17 439
0 456 -17 17 -439 17 -456 0z m418 -228 l0 -190 -190 0 -190 0 0 190 0 190
190 0 190 0 0 -190z M222 368 c-7 -7 -12 -31 -12 -55 l0 -43 -44 0 c-51 0 -76
-20 -56 -45 8 -9 30 -15 56 -15 l44 0 0 -44 c0 -26 6 -48 15 -56 25 -20 45 5
45 56 l0 44 44 0 c51 0 76 20 56 45 -8 9 -30 15 -56 15 l-44 0 0 43 c0 38 -13
67 -30 67 -3 0 -11 -5 -18 -12z"/>
</g>
</svg>

