<?xml version="1.0" standalone="no"?>
<!DOCTYPE svg PUBLIC "-//W3C//DTD SVG 20010904//EN"
 "http://www.w3.org/TR/2001/REC-SVG-20010904/DTD/svg10.dtd">
<svg version="1.0" xmlns="http://www.w3.org/2000/svg"
 width="48.000000pt" height="48.000000pt" viewBox="0 0 48.000000 48.000000"
 preserveAspectRatio="xMidYMid meet">
<metadata>
Created by potrace 1.16, written by Peter Selinger 2001-2019
</metadata>
<g transform="translate(0.000000,48.000000) scale(0.100000,-0.100000)"
fill="currentColor" stroke="currentColor" stroke-width="6" stroke-linejoin="round">
<path d="M230 409 c-64 -26 -112 -98 -112 -169 0 -53 18 -93 59 -132 112 -106
295 -24 295 132 0 100 -81 181 -180 179 -20 0 -48 -5 -62 -10z m127 -46 c46
-22 73 -67 73 -123 0 -56 -27 -101 -73 -123 -44 -21 -80 -21 -124 0 -97 46
-98 198 -2 246 43 21 82 21 126 0z M277 334 c-4 -4 -7 -20 -7 -36 0 -21 -5
-28 -19 -28 -32 0 -51 -11 -51 -30 0 -19 19 -30 50 -30 14 0 20 -9 22 -32 2
-25 8 -33 23 -33 15 0 21 8 23 33 2 23 8 32 22 32 31 0 50 11 50 30 0 19 -19
30 -50 30 -14 0 -20 9 -22 32 -3 31 -25 48 -41 32z M66 369 c-78 -62 -78 -196
0 -258 59 -47 80 -15 25 37 -38 36 -41 43 -41 92 0 49 3 56 40 91 22 21 40 43
40 49 0 17 -36 11 -64 -11z"/>
</g>
</svg>

