<?xml version="1.0" standalone="no"?>
<!DOCTYPE svg PUBLIC "-//W3C//DTD SVG 20010904//EN"
 "http://www.w3.org/TR/2001/REC-SVG-20010904/DTD/svg10.dtd">
<svg version="1.0" xmlns="http://www.w3.org/2000/svg"
 width="48.000000pt" height="48.000000pt" viewBox="0 0 48.000000 48.000000"
 preserveAspectRatio="xMidYMid meet">
<metadata>
Created by potrace 1.16, written by Peter Selinger 2001-2019
</metadata>
<g transform="translate(0.000000,48.000000) scale(0.100000,-0.100000)"
fill="currentColor" stroke="currentColor" stroke-width="6" stroke-linejoin="round">
<path d="M5 467 c-3 -7 -4 -114 -3 -237 l3 -225 235 0 235 0 0 235 0 235 -233
3 c-183 2 -234 0 -237 -11z m253 -150 l3 -56 57 -3 c43 -2 57 -7 57 -18 0 -11
-14 -16 -57 -18 l-57 -3 -3 -57 c-2 -43 -7 -57 -18 -57 -11 0 -16 14 -18 57
l-3 57 -57 3 c-43 2 -57 7 -57 18 0 11 14 16 58 18 l57 3 0 53 c0 29 3 56 7
60 17 16 28 -5 31 -57z"/>
</g>
</svg>

