<?xml version="1.0" standalone="no"?>
<!DOCTYPE svg PUBLIC "-//W3C//DTD SVG 20010904//EN"
 "http://www.w3.org/TR/2001/REC-SVG-20010904/DTD/svg10.dtd">
<svg version="1.0" xmlns="http://www.w3.org/2000/svg"
 width="48.000000pt" height="48.000000pt" viewBox="0 0 48.000000 48.000000"
 preserveAspectRatio="xMidYMid meet">
<metadata>
Created by potrace 1.16, written by Peter Selinger 2001-2019
</metadata>
<g transform="translate(0.000000,48.000000) scale(0.100000,-0.100000)"
fill="currentColor" stroke="currentColor" stroke-width="6" stroke-linejoin="round">
<path d="M190 473 c-25 -10 -30 -25 -30 -90 l0 -63 -62 0 c-86 0 -93 -7 -93
-80 0 -73 7 -80 93 -80 l62 0 0 -62 c0 -86 7 -93 80 -93 73 0 80 7 80 93 l0
62 63 0 c85 0 92 7 92 80 0 73 -7 80 -92 80 l-63 0 0 63 c0 34 -4 68 -9 76 -9
15 -96 25 -121 14z m80 -116 c0 -36 5 -68 12 -75 7 -7 39 -12 75 -12 l63 0 0
-30 0 -30 -63 0 c-36 0 -68 -5 -75 -12 -7 -7 -12 -39 -12 -75 l0 -63 -30 0
-30 0 0 63 c0 36 -5 68 -12 75 -7 7 -39 12 -75 12 l-63 0 0 30 0 30 63 0 c36
0 68 5 75 12 7 7 12 39 12 75 l0 63 30 0 30 0 0 -63z"/>
</g>
</svg>

