<?xml version="1.0" standalone="no"?>
<!DOCTYPE svg PUBLIC "-//W3C//DTD SVG 20010904//EN"
 "http://www.w3.org/TR/2001/REC-SVG-20010904/DTD/svg10.dtd">
<svg version="1.0" xmlns="http://www.w3.org/2000/svg"
 width="48.000000pt" height="48.000000pt" viewBox="0 0 48.000000 48.000000"
 preserveAspectRatio="xMidYMid meet">
<metadata>
Created by potrace 1.16, written by Peter Selinger 2001-2019
</metadata>
<g transform="translate(0.000000,48.000000) scale(0.100000,-0.100000)"
fill="currentColor" stroke="currentColor" stroke-width="6" stroke-linejoin="round">
<path d="M10 361 c-13 -25 -13 -217 0 -242 10 -18 23 -19 169 -19 l159 0 61
51 c101 84 101 94 0 178 l-61 51 -159 0 c-146 0 -159 -1 -169 -19z m373 -71
l52 -50 -52 -50 -52 -51 -143 3 -143 3 -3 84 c-2 46 -1 90 2 98 4 10 38 13
146 13 l141 0 52 -50z M153 313 c-7 -3 -13 -13 -13 -23 0 -11 -10 -20 -25 -24
-16 -4 -25 -13 -25 -25 0 -12 9 -21 25 -25 16 -4 25 -13 25 -26 0 -26 40 -27
47 -1 2 10 16 24 30 30 28 13 26 32 -5 46 -12 5 -22 15 -22 21 0 16 -23 32
-37 27z"/>
</g>
</svg>

