<?xml version="1.0" standalone="no"?>
<!DOCTYPE svg PUBLIC "-//W3C//DTD SVG 20010904//EN"
 "http://www.w3.org/TR/2001/REC-SVG-20010904/DTD/svg10.dtd">
<svg version="1.0" xmlns="http://www.w3.org/2000/svg"
 width="48.000000pt" height="48.000000pt" viewBox="0 0 48.000000 48.000000"
 preserveAspectRatio="xMidYMid meet">
<metadata>
Created by potrace 1.16, written by Peter Selinger 2001-2019
</metadata>
<g transform="translate(0.000000,48.000000) scale(0.100000,-0.100000)"
fill="currentColor" stroke="currentColor" stroke-width="6" stroke-linejoin="round">
<path d="M22 358 c-16 -16 -16 -220 0 -236 8 -8 60 -12 166 -12 l154 0 66 64
67 65 -66 65 -66 66 -154 0 c-107 0 -159 -4 -167 -12z m160 -60 c3 -29 7 -33
36 -36 24 -2 32 -8 32 -23 0 -15 -7 -19 -35 -19 -33 0 -35 -2 -35 -35 0 -23
-5 -35 -14 -35 -15 0 -26 21 -26 51 0 14 -7 19 -30 19 -23 0 -30 5 -30 19 0
15 8 21 33 23 28 3 32 7 35 36 4 43 30 43 34 0z"/>
</g>
</svg>

