<?xml version="1.0" standalone="no"?>
<!DOCTYPE svg PUBLIC "-//W3C//DTD SVG 20010904//EN"
 "http://www.w3.org/TR/2001/REC-SVG-20010904/DTD/svg10.dtd">
<svg version="1.0" xmlns="http://www.w3.org/2000/svg"
 width="48.000000pt" height="48.000000pt" viewBox="0 0 48.000000 48.000000"
 preserveAspectRatio="xMidYMid meet">
<metadata>
Created by potrace 1.16, written by Peter Selinger 2001-2019
</metadata>
<g transform="translate(0.000000,48.000000) scale(0.100000,-0.100000)"
fill="currentColor" stroke="currentColor" stroke-width="6" stroke-linejoin="round">
<path d="M100 388 c-51 -27 -78 -60 -90 -111 -21 -96 45 -192 141 -204 l44 -6
-26 29 c-80 87 -80 202 -1 287 l26 27 -25 0 c-14 0 -45 -10 -69 -22z M226 387
c-48 -27 -75 -62 -86 -110 -31 -140 121 -255 244 -184 48 27 75 62 86 110 31
140 -121 255 -244 184z m96 -84 c3 -36 5 -38 41 -41 28 -2 37 -8 37 -22 0 -14
-9 -20 -37 -22 -36 -3 -38 -5 -41 -40 -4 -51 -30 -51 -34 0 -3 35 -5 37 -40
40 -29 2 -38 8 -38 22 0 14 9 20 38 22 35 3 37 5 40 41 2 23 8 37 17 37 9 0
15 -14 17 -37z"/>
</g>
</svg>

