<?xml version="1.0" standalone="no"?>
<!DOCTYPE svg PUBLIC "-//W3C//DTD SVG 20010904//EN"
 "http://www.w3.org/TR/2001/REC-SVG-20010904/DTD/svg10.dtd">
<svg version="1.0" xmlns="http://www.w3.org/2000/svg"
 width="48.000000pt" height="48.000000pt" viewBox="0 0 48.000000 48.000000"
 preserveAspectRatio="xMidYMid meet">
<metadata>
Created by potrace 1.16, written by Peter Selinger 2001-2019
</metadata>
<g transform="translate(0.000000,48.000000) scale(0.100000,-0.100000)"
fill="currentColor" stroke="currentColor" stroke-width="6" stroke-linejoin="round">
<path d="M63 461 c-35 -22 -68 -75 -59 -97 9 -23 23 -16 44 20 11 19 35 42 52
51 31 16 36 38 9 43 -8 1 -28 -7 -46 -17z M354 468 c-4 -7 0 -16 11 -22 25
-14 67 -56 81 -81 10 -16 15 -18 25 -8 19 19 -12 78 -53 103 -38 23 -54 25
-64 8z M99 391 c-31 -31 -36 -46 -18 -57 15 -9 84 60 75 75 -11 18 -26 13 -57
-18z M324 409 c-9 -15 60 -84 75 -75 18 11 13 26 -18 57 -31 31 -46 36 -57 18z
M227 404 c-4 -4 -7 -15 -7 -25 0 -9 -16 -26 -35 -38 -46 -27 -65 -73 -65 -154
0 -55 -3 -67 -22 -79 -44 -30 -13 -38 142 -38 155 0 186 8 142 38 -19 12 -22
24 -22 79 0 79 -19 127 -62 153 -18 11 -35 30 -38 42 -6 23 -22 33 -33 22z
M202 34 c5 -26 35 -41 56 -28 9 6 18 19 20 28 3 13 -5 16 -38 16 -33 0 -41 -3
-38 -16z"/>
</g>
</svg>

