<?xml version="1.0" standalone="no"?>
<!DOCTYPE svg PUBLIC "-//W3C//DTD SVG 20010904//EN"
 "http://www.w3.org/TR/2001/REC-SVG-20010904/DTD/svg10.dtd">
<svg version="1.0" xmlns="http://www.w3.org/2000/svg"
 width="48.000000pt" height="48.000000pt" viewBox="0 0 48.000000 48.000000"
 preserveAspectRatio="xMidYMid meet">
<metadata>
Created by potrace 1.16, written by Peter Selinger 2001-2019
</metadata>
<g transform="translate(0.000000,48.000000) scale(0.100000,-0.100000)"
fill="currentColor" stroke="currentColor" stroke-width="6" stroke-linejoin="round">
<path d="M325 471 c-40 -18 -60 -51 -60 -102 0 -40 5 -54 28 -76 23 -23 36
-28 77 -28 70 0 105 35 105 105 0 40 -5 55 -26 76 -28 28 -89 40 -124 25z
m109 -58 c8 -8 -73 -93 -90 -93 -17 0 -47 37 -39 49 4 8 12 8 27 0 17 -9 25
-6 52 20 32 32 38 35 50 24z M137 414 c-4 -4 -7 -18 -7 -31 0 -12 -6 -23 -13
-23 -18 0 -64 -49 -76 -83 -6 -16 -11 -45 -11 -66 0 -21 -7 -60 -15 -87 -8
-27 -15 -50 -15 -51 0 -2 72 -3 160 -3 88 0 160 2 160 4 0 2 -7 23 -15 46 -8
23 -15 64 -15 90 0 31 -5 52 -16 61 -8 7 -24 30 -35 51 -11 21 -26 38 -34 38
-8 0 -15 12 -17 28 -3 26 -34 43 -51 26z M122 34 c2 -9 11 -22 21 -28 20 -13
50 2 55 28 3 13 -5 16 -38 16 -33 0 -41 -3 -38 -16z"/>
</g>
</svg>

