<?xml version="1.0" standalone="no"?>
<!DOCTYPE svg PUBLIC "-//W3C//DTD SVG 20010904//EN"
 "http://www.w3.org/TR/2001/REC-SVG-20010904/DTD/svg10.dtd">
<svg version="1.0" xmlns="http://www.w3.org/2000/svg"
 width="48.000000pt" height="48.000000pt" viewBox="0 0 48.000000 48.000000"
 preserveAspectRatio="xMidYMid meet">
<metadata>
Created by potrace 1.16, written by Peter Selinger 2001-2019
</metadata>
<g transform="translate(0.000000,48.000000) scale(0.100000,-0.100000)"
fill="currentColor" stroke="currentColor" stroke-width="6" stroke-linejoin="round">
<path d="M227 474 c-4 -4 -7 -18 -7 -31 0 -16 -8 -27 -27 -34 -72 -27 -103
-86 -103 -194 0 -72 -1 -76 -26 -85 -14 -6 -24 -16 -21 -23 5 -17 389 -17 394
0 3 7 -7 17 -21 23 -25 9 -26 13 -26 85 0 108 -31 167 -102 194 -18 7 -28 18
-30 37 -3 27 -18 41 -31 28z M190 47 c0 -18 32 -47 53 -47 19 0 47 27 47 46 0
10 -13 14 -50 14 -35 0 -50 -4 -50 -13z"/>
</g>
</svg>

