<?xml version="1.0" standalone="no"?>
<!DOCTYPE svg PUBLIC "-//W3C//DTD SVG 20010904//EN"
 "http://www.w3.org/TR/2001/REC-SVG-20010904/DTD/svg10.dtd">
<svg version="1.0" xmlns="http://www.w3.org/2000/svg"
 width="48.000000pt" height="48.000000pt" viewBox="0 0 48.000000 48.000000"
 preserveAspectRatio="xMidYMid meet">
<metadata>
Created by potrace 1.16, written by Peter Selinger 2001-2019
</metadata>
<g transform="translate(0.000000,48.000000) scale(0.100000,-0.100000)"
fill="currentColor" stroke="currentColor" stroke-width="6" stroke-linejoin="round">
<path d="M324 466 c-60 -26 -81 -93 -50 -155 26 -48 108 -68 154 -35 25 17 52
64 52 89 0 35 -32 84 -65 99 -40 19 -51 19 -91 2z m65 -55 c34 28 53 8 23 -24
l-22 -24 20 -18 c14 -12 17 -22 10 -29 -6 -6 -16 -3 -30 9 -19 17 -21 17 -38
2 -37 -33 -58 -12 -25 25 15 17 15 19 -1 37 -26 28 -10 48 18 23 21 -20 21
-20 45 -1z M135 399 c-4 -12 -26 -40 -50 -63 -36 -34 -44 -49 -49 -91 -6 -50
-19 -127 -27 -155 -3 -13 19 -15 154 -18 86 -1 157 1 157 5 0 5 -7 30 -15 57
-8 27 -15 64 -15 81 0 18 -7 39 -17 46 -9 8 -25 33 -35 55 -10 23 -24 44 -32
47 -8 3 -16 16 -18 29 -4 32 -44 37 -53 7z M120 41 c0 -14 29 -41 44 -41 16 0
36 21 36 37 0 9 -14 13 -40 13 -22 0 -40 -4 -40 -9z"/>
</g>
</svg>

