<?xml version="1.0" standalone="no"?>
<!DOCTYPE svg PUBLIC "-//W3C//DTD SVG 20010904//EN"
 "http://www.w3.org/TR/2001/REC-SVG-20010904/DTD/svg10.dtd">
<svg version="1.0" xmlns="http://www.w3.org/2000/svg"
 width="48.000000pt" height="48.000000pt" viewBox="0 0 48.000000 48.000000"
 preserveAspectRatio="xMidYMid meet">
<metadata>
Created by potrace 1.16, written by Peter Selinger 2001-2019
</metadata>
<g transform="translate(0.000000,48.000000) scale(0.100000,-0.100000)"
fill="currentColor" stroke="currentColor" stroke-width="6" stroke-linejoin="round">
<path d="M363 468 c-36 -9 -44 -33 -14 -43 20 -6 71 -58 90 -92 9 -17 11 -17
25 2 51 67 -17 156 -101 133z M26 439 c-14 -17 -26 -39 -26 -49 0 -22 20 -70
29 -70 3 1 19 19 34 41 15 22 41 48 57 57 50 28 34 52 -35 52 -25 0 -40 -8
-59 -31z M205 420 c-53 -12 -94 -40 -123 -82 -22 -34 -27 -53 -27 -104 0 -54
4 -68 32 -107 l31 -45 -24 -23 c-13 -12 -24 -28 -24 -36 0 -21 32 -15 60 12
24 23 31 25 68 16 26 -5 58 -5 84 0 37 9 44 7 68 -16 28 -27 60 -33 60 -12 0
8 -11 24 -24 36 l-24 23 31 45 c28 39 32 53 32 108 0 54 -4 69 -30 106 -44 63
-122 95 -190 79z m116 -63 c89 -59 89 -185 0 -244 -71 -48 -175 -20 -213 57
-50 98 21 210 132 210 32 0 58 -7 81 -23z M220 280 c0 -55 2 -60 25 -66 34 -8
75 3 75 21 0 9 -13 18 -30 22 -27 5 -30 9 -30 44 0 32 -3 39 -20 39 -18 0 -20
-7 -20 -60z"/>
</g>
</svg>

