<?xml version="1.0" standalone="no"?>
<!DOCTYPE svg PUBLIC "-//W3C//DTD SVG 20010904//EN"
 "http://www.w3.org/TR/2001/REC-SVG-20010904/DTD/svg10.dtd">
<svg version="1.0" xmlns="http://www.w3.org/2000/svg"
 width="48.000000pt" height="48.000000pt" viewBox="0 0 48.000000 48.000000"
 preserveAspectRatio="xMidYMid meet">
<metadata>
Created by potrace 1.16, written by Peter Selinger 2001-2019
</metadata>
<g transform="translate(0.000000,48.000000) scale(0.100000,-0.100000)"
fill="currentColor" stroke="currentColor" stroke-width="6" stroke-linejoin="round">
<path d="M295 470 c-10 -16 4 -30 31 -30 31 0 30 -5 -7 -47 -16 -19 -28 -40
-26 -46 2 -7 27 -12 63 -12 46 0 59 3 59 15 0 9 -11 16 -27 18 -16 2 -28 6
-28 9 0 3 14 21 31 40 16 19 28 40 26 46 -5 15 -113 21 -122 7z M137 414 c-4
-4 -7 -18 -7 -31 0 -12 -6 -23 -13 -23 -18 0 -64 -49 -76 -83 -6 -16 -11 -45
-11 -66 0 -21 -7 -60 -15 -87 -8 -27 -15 -50 -15 -51 0 -2 72 -3 160 -3 88 0
160 1 160 3 0 1 -7 24 -15 51 -8 27 -15 66 -15 87 0 21 -5 50 -11 66 -12 33
-58 83 -75 83 -7 0 -14 12 -16 28 -3 26 -34 43 -51 26z M375 261 c-9 -16 3
-31 26 -31 19 0 18 -2 -7 -35 -33 -44 -24 -57 37 -53 48 3 63 30 21 36 l-23 3
26 31 c14 17 24 36 22 42 -5 14 -93 20 -102 7z M122 34 c2 -9 11 -22 21 -28
20 -13 50 2 55 28 3 13 -5 16 -38 16 -33 0 -41 -3 -38 -16z"/>
</g>
</svg>

