<?xml version="1.0" standalone="no"?>
<!DOCTYPE svg PUBLIC "-//W3C//DTD SVG 20010904//EN"
 "http://www.w3.org/TR/2001/REC-SVG-20010904/DTD/svg10.dtd">
<svg version="1.0" xmlns="http://www.w3.org/2000/svg"
 width="48.000000pt" height="48.000000pt" viewBox="0 0 48.000000 48.000000"
 preserveAspectRatio="xMidYMid meet">
<metadata>
Created by potrace 1.16, written by Peter Selinger 2001-2019
</metadata>
<g transform="translate(0.000000,48.000000) scale(0.100000,-0.100000)"
fill="currentColor" stroke="currentColor" stroke-width="6" stroke-linejoin="round">
<path d="M187 450 c-6 -16 -17 -30 -23 -30 -22 0 -67 -44 -85 -84 -10 -23 -19
-64 -19 -92 0 -28 -7 -73 -15 -100 -8 -27 -15 -52 -15 -56 0 -5 83 -8 185 -8
203 0 195 -3 170 65 -8 22 -14 63 -15 91 0 47 -2 52 -25 58 -42 11 -65 41 -65
86 0 26 -5 40 -13 40 -7 0 -18 14 -24 30 -6 17 -19 30 -28 30 -9 0 -22 -13
-28 -30z M327 422 c-35 -38 -9 -102 40 -102 47 0 71 71 35 103 -24 22 -55 21
-75 -1z M170 42 c0 -43 58 -57 84 -20 21 29 12 38 -40 38 -36 0 -44 -3 -44
-18z"/>
</g>
</svg>

