<?xml version="1.0" standalone="no"?>
<!DOCTYPE svg PUBLIC "-//W3C//DTD SVG 20010904//EN"
 "http://www.w3.org/TR/2001/REC-SVG-20010904/DTD/svg10.dtd">
<svg version="1.0" xmlns="http://www.w3.org/2000/svg"
 width="48.000000pt" height="48.000000pt" viewBox="0 0 48.000000 48.000000"
 preserveAspectRatio="xMidYMid meet">
<metadata>
Created by potrace 1.16, written by Peter Selinger 2001-2019
</metadata>
<g transform="translate(0.000000,48.000000) scale(0.100000,-0.100000)"
fill="currentColor" stroke="currentColor" stroke-width="6" stroke-linejoin="round">
<path d="M66 410 l-66 -70 0 -100 0 -100 66 -70 66 -70 108 0 108 0 66 70 66
70 0 100 0 100 -66 70 -66 70 -108 0 -108 0 -66 -70z m194 -105 c0 -88 -1 -95
-20 -95 -19 0 -20 7 -20 95 0 88 1 95 20 95 19 0 20 -7 20 -95z m-6 -131 c20
-8 21 -38 1 -54 -12 -10 -18 -10 -30 0 -18 15 -20 46 -2 53 6 3 13 6 14 6 1 1
8 -2 17 -5z"/>
</g>
</svg>

