<?xml version="1.0" standalone="no"?>
<!DOCTYPE svg PUBLIC "-//W3C//DTD SVG 20010904//EN"
 "http://www.w3.org/TR/2001/REC-SVG-20010904/DTD/svg10.dtd">
<svg version="1.0" xmlns="http://www.w3.org/2000/svg"
 width="48.000000pt" height="48.000000pt" viewBox="0 0 48.000000 48.000000"
 preserveAspectRatio="xMidYMid meet">
<metadata>
Created by potrace 1.16, written by Peter Selinger 2001-2019
</metadata>
<g transform="translate(0.000000,48.000000) scale(0.100000,-0.100000)"
fill="currentColor" stroke="currentColor" stroke-width="6" stroke-linejoin="round">
<path d="M144 457 c-175 -84 -193 -321 -31 -421 97 -60 209 -45 293 38 58 59
79 117 72 196 -15 157 -190 255 -334 187z m111 -168 c0 -59 -3 -74 -15 -74
-11 0 -16 15 -18 64 -3 71 2 95 21 88 8 -2 12 -27 12 -78z m10 -139 c0 -18 -6
-26 -23 -28 -13 -2 -25 3 -28 12 -10 26 4 48 28 44 17 -2 23 -10 23 -28z"/>
</g>
</svg>

