<?xml version="1.0" standalone="no"?>
<!DOCTYPE svg PUBLIC "-//W3C//DTD SVG 20010904//EN"
 "http://www.w3.org/TR/2001/REC-SVG-20010904/DTD/svg10.dtd">
<svg version="1.0" xmlns="http://www.w3.org/2000/svg"
 width="48.000000pt" height="48.000000pt" viewBox="0 0 48.000000 48.000000"
 preserveAspectRatio="xMidYMid meet">
<metadata>
Created by potrace 1.16, written by Peter Selinger 2001-2019
</metadata>
<g transform="translate(0.000000,48.000000) scale(0.100000,-0.100000)"
fill="currentColor" stroke="currentColor" stroke-width="6" stroke-linejoin="round">
<path d="M264 467 c-3 -8 -4 -54 -2 -103 l3 -89 103 -3 c94 -2 102 -1 102 16
0 28 -21 83 -43 113 -35 49 -151 95 -163 66z M148 408 c-20 -5 -54 -25 -76
-44 -129 -110 -73 -315 96 -355 50 -12 130 5 167 36 l30 24 -67 68 -68 69 0
91 c0 130 -2 132 -82 111z M270 226 c0 -8 32 -44 71 -80 55 -51 75 -64 85 -55
21 17 54 93 54 122 l0 27 -105 0 c-84 0 -105 -3 -105 -14z"/>
</g>
</svg>

