<?xml version="1.0" standalone="no"?>
<!DOCTYPE svg PUBLIC "-//W3C//DTD SVG 20010904//EN"
 "http://www.w3.org/TR/2001/REC-SVG-20010904/DTD/svg10.dtd">
<svg version="1.0" xmlns="http://www.w3.org/2000/svg"
 width="48.000000pt" height="48.000000pt" viewBox="0 0 48.000000 48.000000"
 preserveAspectRatio="xMidYMid meet">
<metadata>
Created by potrace 1.16, written by Peter Selinger 2001-2019
</metadata>
<g transform="translate(0.000000,48.000000) scale(0.100000,-0.100000)"
fill="currentColor" stroke="currentColor" stroke-width="6" stroke-linejoin="round">
<path d="M160 467 c-49 -16 -133 -102 -148 -153 -22 -74 -10 -153 29 -205 l18
-24 86 85 86 85 -3 110 c-3 121 -4 122 -68 102z M255 468 c-3 -8 -4 -59 -3
-114 l3 -99 104 -3 c57 -1 108 1 113 6 16 16 -13 91 -53 136 -54 61 -152 105
-164 74z M170 145 l-85 -86 24 -18 c87 -66 211 -52 296 34 49 48 84 122 70
145 -3 6 -54 10 -113 10 l-107 0 -85 -85z"/>
</g>
</svg>

