<?xml version="1.0" standalone="no"?>
<!DOCTYPE svg PUBLIC "-//W3C//DTD SVG 20010904//EN"
 "http://www.w3.org/TR/2001/REC-SVG-20010904/DTD/svg10.dtd">
<svg version="1.0" xmlns="http://www.w3.org/2000/svg"
 width="48.000000pt" height="48.000000pt" viewBox="0 0 48.000000 48.000000"
 preserveAspectRatio="xMidYMid meet">
<metadata>
Created by potrace 1.16, written by Peter Selinger 2001-2019
</metadata>
<g transform="translate(0.000000,48.000000) scale(0.100000,-0.100000)"
fill="currentColor" stroke="currentColor" stroke-width="6" stroke-linejoin="round">
<path d="M381 447 c-6 -18 -26 -48 -45 -66 -43 -42 -86 -45 -120 -8 -14 15
-28 27 -31 27 -18 0 -45 -23 -45 -39 0 -23 -43 -63 -72 -66 -36 -4 -36 -4 -43
-24 -9 -31 5 -51 36 -51 22 0 30 6 35 24 7 29 52 73 77 75 9 0 29 1 44 2 17 1
33 -7 44 -20 32 -40 79 -23 79 28 0 21 58 78 84 83 28 5 43 33 27 52 -24 28
-58 20 -70 -17z M393 323 c-10 -3 -13 -40 -13 -134 l0 -129 40 0 40 0 0 129
c0 108 -3 130 -16 135 -18 7 -33 7 -51 -1z M153 223 c-9 -3 -13 -30 -13 -84
l0 -79 40 0 40 0 0 79 c0 63 -3 80 -16 85 -18 7 -33 7 -51 -1z M273 183 c-9
-3 -13 -26 -13 -64 l0 -59 40 0 40 0 0 59 c0 67 -18 84 -67 64z M33 123 c-7
-2 -13 -18 -13 -34 0 -27 2 -29 40 -29 37 0 40 2 40 29 0 35 -29 50 -67 34z
M13 33 c-7 -2 -13 -11 -13 -19 0 -12 40 -14 240 -14 198 0 240 2 240 14 0 8
-7 17 -16 20 -19 7 -433 7 -451 -1z"/>
</g>
</svg>

