<?xml version="1.0" standalone="no"?>
<!DOCTYPE svg PUBLIC "-//W3C//DTD SVG 20010904//EN"
 "http://www.w3.org/TR/2001/REC-SVG-20010904/DTD/svg10.dtd">
<svg version="1.0" xmlns="http://www.w3.org/2000/svg"
 width="48.000000pt" height="48.000000pt" viewBox="0 0 48.000000 48.000000"
 preserveAspectRatio="xMidYMid meet">
<metadata>
Created by potrace 1.16, written by Peter Selinger 2001-2019
</metadata>
<g transform="translate(0.000000,48.000000) scale(0.100000,-0.100000)"
fill="currentColor" stroke="currentColor" stroke-width="6" stroke-linejoin="round">
<path d="M393 403 c-10 -3 -13 -40 -13 -134 l0 -129 40 0 40 0 0 129 c0 108
-3 130 -16 135 -18 7 -33 7 -51 -1z M153 303 c-9 -3 -13 -30 -13 -84 l0 -79
40 0 40 0 0 79 c0 63 -3 80 -16 85 -18 7 -33 7 -51 -1z M273 263 c-9 -3 -13
-26 -13 -64 l0 -59 40 0 40 0 0 59 c0 67 -18 84 -67 64z M33 203 c-7 -2 -13
-18 -13 -34 0 -27 2 -29 40 -29 37 0 40 2 40 29 0 35 -29 50 -67 34z M13 113
c-18 -7 -16 -30 3 -37 20 -8 428 -8 448 0 21 8 21 30 0 38 -19 7 -433 7 -451
-1z"/>
</g>
</svg>

