<?xml version="1.0" standalone="no"?>
<!DOCTYPE svg PUBLIC "-//W3C//DTD SVG 20010904//EN"
 "http://www.w3.org/TR/2001/REC-SVG-20010904/DTD/svg10.dtd">
<svg version="1.0" xmlns="http://www.w3.org/2000/svg"
 width="48.000000pt" height="48.000000pt" viewBox="0 0 48.000000 48.000000"
 preserveAspectRatio="xMidYMid meet">
<metadata>
Created by potrace 1.16, written by Peter Selinger 2001-2019
</metadata>
<g transform="translate(0.000000,48.000000) scale(0.100000,-0.100000)"
fill="currentColor" stroke="currentColor" stroke-width="6" stroke-linejoin="round">
<path d="M165 450 c-3 -6 -3 -19 0 -30 5 -15 -3 -32 -30 -61 -20 -22 -34 -46
-32 -52 5 -17 269 -17 274 0 2 6 -12 29 -31 51 -25 27 -35 47 -33 67 3 37 -19
44 -34 11 -17 -36 -61 -36 -77 -1 -12 26 -26 32 -37 15z m45 -111 c0 -5 -7 -9
-15 -9 -15 0 -20 12 -9 23 8 8 24 -1 24 -14z m90 0 c0 -5 -7 -9 -15 -9 -15 0
-20 12 -9 23 8 8 24 -1 24 -14z M47 254 c-4 -4 -7 -45 -7 -91 0 -77 2 -83 20
-83 20 0 21 5 18 87 -3 79 -12 106 -31 87z M107 254 c-11 -11 -8 -193 3 -215
10 -17 22 -19 130 -19 145 0 142 -3 138 138 l-3 97 -131 3 c-71 1 -133 -1
-137 -4z M407 254 c-4 -4 -7 -45 -7 -91 0 -77 2 -83 20 -83 20 0 21 5 18 87
-3 79 -12 106 -31 87z"/>
</g>
</svg>

