<?xml version="1.0" standalone="no"?>
<!DOCTYPE svg PUBLIC "-//W3C//DTD SVG 20010904//EN"
 "http://www.w3.org/TR/2001/REC-SVG-20010904/DTD/svg10.dtd">
<svg version="1.0" xmlns="http://www.w3.org/2000/svg"
 width="48.000000pt" height="48.000000pt" viewBox="0 0 48.000000 48.000000"
 preserveAspectRatio="xMidYMid meet">
<metadata>
Created by potrace 1.16, written by Peter Selinger 2001-2019
</metadata>
<g transform="translate(0.000000,48.000000) scale(0.100000,-0.100000)"
fill="currentColor" stroke="currentColor" stroke-width="6" stroke-linejoin="round">
<path d="M125 468 c-36 -13 -88 -48 -81 -55 2 -3 26 -6 53 -7 64 -2 116 -35
142 -90 27 -54 27 -98 0 -152 -26 -56 -78 -88 -144 -91 -27 -1 -52 -2 -54 -3
-17 -1 40 -42 77 -54 96 -33 174 -14 248 59 100 99 100 230 -1 330 -69 70
-157 92 -240 63z"/>
</g>
</svg>

