<?xml version="1.0" standalone="no"?>
<!DOCTYPE svg PUBLIC "-//W3C//DTD SVG 20010904//EN"
 "http://www.w3.org/TR/2001/REC-SVG-20010904/DTD/svg10.dtd">
<svg version="1.0" xmlns="http://www.w3.org/2000/svg"
 width="48.000000pt" height="48.000000pt" viewBox="0 0 48.000000 48.000000"
 preserveAspectRatio="xMidYMid meet">
<metadata>
Created by potrace 1.16, written by Peter Selinger 2001-2019
</metadata>
<g transform="translate(0.000000,48.000000) scale(0.100000,-0.100000)"
fill="currentColor" stroke="currentColor" stroke-width="6" stroke-linejoin="round">
<path d="M151 466 c-47 -17 -108 -71 -131 -116 -28 -54 -28 -166 0 -219 37
-73 127 -131 204 -131 34 0 34 25 1 52 -14 11 -37 41 -53 66 -23 40 -27 58
-27 122 0 84 13 116 71 180 20 22 33 44 29 50 -8 13 -51 12 -94 -4z M400 442
c0 -10 -5 -23 -12 -30 -7 -7 -20 -12 -30 -12 -10 0 -18 -4 -18 -10 0 -5 8 -10
18 -10 23 0 42 -19 42 -42 0 -28 14 -21 27 12 8 20 18 30 32 30 12 0 21 5 21
10 0 6 -8 10 -18 10 -10 0 -23 5 -30 12 -7 7 -12 20 -12 30 0 10 -4 18 -10 18
-5 0 -10 -8 -10 -18z M257 309 c-3 -11 -15 -23 -26 -26 -12 -3 -21 -9 -21 -13
0 -4 9 -10 21 -13 11 -3 23 -15 26 -26 3 -12 9 -21 13 -21 4 0 10 9 13 21 3
11 15 23 26 26 12 3 21 9 21 13 0 4 -9 10 -21 13 -11 3 -23 15 -26 26 -3 12
-9 21 -13 21 -4 0 -10 -9 -13 -21z M355 168 c-8 -25 -18 -35 -42 -43 -18 -5
-33 -12 -33 -15 0 -3 15 -10 33 -15 24 -8 34 -18 42 -42 12 -41 18 -41 30 0 8
24 18 34 43 42 17 5 32 12 32 15 0 3 -15 10 -32 15 -25 8 -35 18 -43 43 -5 17
-12 32 -15 32 -3 0 -10 -15 -15 -32z"/>
</g>
</svg>

