<?xml version="1.0" standalone="no"?>
<!DOCTYPE svg PUBLIC "-//W3C//DTD SVG 20010904//EN"
 "http://www.w3.org/TR/2001/REC-SVG-20010904/DTD/svg10.dtd">
<svg version="1.0" xmlns="http://www.w3.org/2000/svg"
 width="48.000000pt" height="48.000000pt" viewBox="0 0 48.000000 48.000000"
 preserveAspectRatio="xMidYMid meet">
<metadata>
Created by potrace 1.16, written by Peter Selinger 2001-2019
</metadata>
<g transform="translate(0.000000,48.000000) scale(0.100000,-0.100000)"
fill="currentColor" stroke="currentColor" stroke-width="6" stroke-linejoin="round">
<path d="M227 474 c-4 -4 -7 -20 -7 -36 0 -22 5 -28 21 -28 17 0 20 5 17 32
-3 31 -17 45 -31 32z M70 397 c0 -8 9 -22 20 -32 16 -14 23 -16 32 -7 9 9 7
16 -7 32 -21 23 -45 26 -45 7z M365 390 c-14 -16 -16 -23 -7 -32 9 -9 16 -7
32 7 11 10 20 24 20 32 0 19 -24 16 -45 -7z M170 375 l-25 -14 36 -1 c51 0
101 -37 118 -85 25 -72 -22 -139 -107 -155 l-37 -7 30 -12 c17 -7 49 -11 72
-8 139 15 181 196 64 274 -40 27 -112 30 -151 8z M126 305 c-58 -53 -19 -155
60 -155 82 0 122 103 61 156 -37 32 -86 32 -121 -1z M5 250 c-11 -17 5 -30 36
-30 22 0 29 5 29 20 0 15 -7 20 -29 20 -17 0 -33 -4 -36 -10z M410 240 c0 -18
5 -21 33 -18 20 2 32 8 32 18 0 10 -12 16 -32 18 -28 3 -33 0 -33 -18z M87
112 c-20 -22 -22 -42 -4 -42 19 0 50 37 42 49 -9 16 -20 14 -38 -7z M355 119
c-8 -12 23 -49 42 -49 19 0 16 24 -5 43 -22 20 -28 21 -37 6z M222 38 c2 -21
8 -33 18 -33 10 0 16 12 18 33 3 27 0 32 -18 32 -18 0 -21 -5 -18 -32z"/>
</g>
</svg>

