<?xml version="1.0" standalone="no"?>
<!DOCTYPE svg PUBLIC "-//W3C//DTD SVG 20010904//EN"
 "http://www.w3.org/TR/2001/REC-SVG-20010904/DTD/svg10.dtd">
<svg version="1.0" xmlns="http://www.w3.org/2000/svg"
 width="48.000000pt" height="48.000000pt" viewBox="0 0 48.000000 48.000000"
 preserveAspectRatio="xMidYMid meet">
<metadata>
Created by potrace 1.16, written by Peter Selinger 2001-2019
</metadata>
<g transform="translate(0.000000,48.000000) scale(0.100000,-0.100000)"
fill="currentColor" stroke="currentColor" stroke-width="6" stroke-linejoin="round">
<path d="M200 465 c-7 -8 -23 -15 -36 -15 -31 0 -64 -33 -64 -64 0 -13 -7 -29
-15 -36 -8 -7 -15 -25 -15 -40 0 -15 7 -33 15 -40 8 -7 15 -23 15 -36 0 -31
33 -64 64 -64 13 0 29 -7 36 -15 16 -19 44 -19 78 -1 15 7 40 18 57 22 20 7
32 19 39 39 5 17 16 45 25 63 14 29 14 35 0 65 -9 17 -20 45 -25 62 -7 20 -19
32 -39 39 -17 4 -42 15 -57 22 -34 18 -62 18 -78 -1z m60 -105 c6 -11 20 -20
30 -20 24 0 26 -13 5 -30 -10 -8 -13 -21 -8 -38 5 -22 4 -24 -13 -17 -10 4
-26 8 -34 8 -8 0 -24 -4 -34 -8 -17 -7 -18 -5 -13 17 5 17 2 30 -8 38 -22 18
-18 30 9 30 16 0 27 7 31 20 3 11 10 20 15 20 5 0 14 -9 20 -20z M150 76 c0
-36 5 -68 10 -71 6 -4 26 3 45 14 l35 20 35 -20 c19 -11 39 -18 45 -14 5 3 10
35 10 71 0 68 -8 76 -44 49 -25 -19 -67 -19 -92 0 -36 27 -44 19 -44 -49z"/>
</g>
</svg>

