<?xml version="1.0" standalone="no"?>
<!DOCTYPE svg PUBLIC "-//W3C//DTD SVG 20010904//EN"
 "http://www.w3.org/TR/2001/REC-SVG-20010904/DTD/svg10.dtd">
<svg version="1.0" xmlns="http://www.w3.org/2000/svg"
 width="48.000000pt" height="48.000000pt" viewBox="0 0 48.000000 48.000000"
 preserveAspectRatio="xMidYMid meet">
<metadata>
Created by potrace 1.16, written by Peter Selinger 2001-2019
</metadata>
<g transform="translate(0.000000,48.000000) scale(0.100000,-0.100000)"
fill="currentColor" stroke="currentColor" stroke-width="6" stroke-linejoin="round">
<path d="M173 455 c-23 -10 -42 -11 -63 -5 -78 22 -122 -51 -64 -105 l26 -25
-15 -146 c-9 -81 -14 -151 -11 -156 7 -11 381 -11 388 0 3 5 -2 75 -11 156
l-15 146 26 25 c58 54 14 127 -64 105 -21 -6 -41 -4 -65 6 -43 18 -90 17 -132
-1z m25 -118 c4 -21 -27 -35 -38 -17 -12 19 0 42 19 38 9 -2 17 -11 19 -21z
m120 0 c4 -21 -27 -35 -38 -17 -12 19 0 42 19 38 9 -2 17 -11 19 -21z m-28
-102 c0 -8 -11 -22 -25 -31 -23 -15 -27 -15 -50 0 -42 28 -32 46 25 46 37 0
50 -4 50 -15z m-140 -90 c13 -35 57 -35 70 0 5 14 14 25 20 25 6 0 15 -11 20
-25 7 -18 17 -25 35 -25 18 0 28 7 35 25 5 14 14 25 20 25 16 0 12 -42 -7 -62
-18 -20 -73 -24 -91 -6 -9 9 -15 9 -24 0 -17 -17 -68 -15 -90 5 -19 17 -25 63
-8 63 6 0 15 -11 20 -25z"/>
</g>
</svg>

