<?xml version="1.0" standalone="no"?>
<!DOCTYPE svg PUBLIC "-//W3C//DTD SVG 20010904//EN"
 "http://www.w3.org/TR/2001/REC-SVG-20010904/DTD/svg10.dtd">
<svg version="1.0" xmlns="http://www.w3.org/2000/svg"
 width="48.000000pt" height="48.000000pt" viewBox="0 0 48.000000 48.000000"
 preserveAspectRatio="xMidYMid meet">
<metadata>
Created by potrace 1.16, written by Peter Selinger 2001-2019
</metadata>
<g transform="translate(0.000000,48.000000) scale(0.100000,-0.100000)"
fill="currentColor" stroke="currentColor" stroke-width="6" stroke-linejoin="round">
<path d="M201 465 c-60 -14 -74 -28 -67 -67 5 -25 2 -27 -39 -34 -56 -8 -83
-25 -63 -41 9 -7 68 0 213 29 110 21 204 43 209 48 4 4 5 14 1 20 -7 11 -48 8
-97 -6 -13 -4 -21 3 -29 23 -18 47 -35 51 -128 28z m89 -44 c0 -15 -11 -22
-51 -30 -54 -12 -69 -9 -69 14 0 8 18 18 43 23 66 15 77 14 77 -7z M100 162
c0 -94 4 -142 12 -150 8 -8 56 -12 150 -12 127 0 138 2 148 20 6 12 9 71 8
147 l-3 128 -157 3 -158 3 0 -139z m120 -17 c0 -69 -3 -85 -15 -85 -12 0 -15
16 -15 85 0 69 3 85 15 85 12 0 15 -16 15 -85z m100 0 c0 -69 -3 -85 -15 -85
-12 0 -15 16 -15 85 0 69 3 85 15 85 12 0 15 -16 15 -85z"/>
</g>
</svg>

