<?xml version="1.0" standalone="no"?>
<!DOCTYPE svg PUBLIC "-//W3C//DTD SVG 20010904//EN"
 "http://www.w3.org/TR/2001/REC-SVG-20010904/DTD/svg10.dtd">
<svg version="1.0" xmlns="http://www.w3.org/2000/svg"
 width="48.000000pt" height="48.000000pt" viewBox="0 0 48.000000 48.000000"
 preserveAspectRatio="xMidYMid meet">
<metadata>
Created by potrace 1.16, written by Peter Selinger 2001-2019
</metadata>
<g transform="translate(0.000000,48.000000) scale(0.100000,-0.100000)"
fill="currentColor" stroke="currentColor" stroke-width="6" stroke-linejoin="round">
<path d="M7 474 c-4 -4 -7 -69 -7 -145 0 -131 1 -139 22 -153 30 -21 71 -20
97 1 21 17 22 25 19 158 -3 117 -6 140 -18 140 -12 0 -16 -17 -20 -75 -5 -72
-6 -75 -30 -75 -24 0 -25 3 -30 74 -5 68 -15 92 -33 75z M177 474 c-4 -4 -7
-69 -7 -145 0 -131 1 -139 22 -153 30 -21 71 -20 97 1 21 17 22 25 19 158 -3
117 -6 140 -18 140 -12 0 -16 -17 -20 -75 -5 -72 -6 -75 -30 -75 -24 0 -25 3
-30 74 -5 68 -15 92 -33 75z M347 474 c-4 -4 -7 -69 -7 -145 0 -131 1 -139 22
-153 30 -21 71 -20 97 1 21 17 22 25 19 158 -3 117 -6 140 -18 140 -12 0 -16
-17 -20 -75 -5 -72 -6 -75 -30 -75 -24 0 -25 3 -30 74 -5 68 -15 92 -33 75z
M0 93 c0 -62 23 -93 70 -93 47 0 70 31 70 93 l0 52 -70 0 -70 0 0 -52z m100
-13 c0 -16 -7 -20 -30 -20 -23 0 -30 4 -30 20 0 16 7 20 30 20 23 0 30 -4 30
-20z M170 93 c0 -62 23 -93 70 -93 47 0 70 31 70 93 l0 52 -70 0 -70 0 0 -52z
m100 -13 c0 -16 -7 -20 -30 -20 -23 0 -30 4 -30 20 0 16 7 20 30 20 23 0 30
-4 30 -20z M340 93 c0 -62 23 -93 70 -93 47 0 70 31 70 93 l0 52 -70 0 -70 0
0 -52z m100 -13 c0 -16 -7 -20 -30 -20 -23 0 -30 4 -30 20 0 16 7 20 30 20 23
0 30 -4 30 -20z"/>
</g>
</svg>

