<?xml version="1.0" standalone="no"?>
<!DOCTYPE svg PUBLIC "-//W3C//DTD SVG 20010904//EN"
 "http://www.w3.org/TR/2001/REC-SVG-20010904/DTD/svg10.dtd">
<svg version="1.0" xmlns="http://www.w3.org/2000/svg"
 width="48.000000pt" height="48.000000pt" viewBox="0 0 48.000000 48.000000"
 preserveAspectRatio="xMidYMid meet">
<metadata>
Created by potrace 1.16, written by Peter Selinger 2001-2019
</metadata>
<g transform="translate(0.000000,48.000000) scale(0.100000,-0.100000)"
fill="currentColor" stroke="currentColor" stroke-width="6" stroke-linejoin="round">
<path d="M64 459 c-17 -19 -19 -38 -19 -219 0 -259 -15 -240 199 -240 89 0
168 5 176 10 23 14 22 366 -1 383 -9 7 -19 25 -23 42 -4 16 -13 33 -19 37 -7
4 -75 8 -153 8 -131 0 -142 -2 -160 -21z m286 -39 c0 -19 -7 -20 -130 -20
-123 0 -130 1 -130 20 0 19 7 20 130 20 123 0 130 -1 130 -20z m15 -215 l0
-110 -120 0 -120 0 -3 99 c-1 55 0 106 2 113 4 11 32 13 123 11 l118 -3 0
-110z M154 275 c-4 -9 -2 -21 4 -27 16 -16 47 -5 47 17 0 26 -42 34 -51 10z
M253 205 c-16 -33 -18 -34 -35 -18 -10 9 -20 14 -21 12 -23 -29 -47 -69 -47
-78 0 -7 33 -11 95 -11 79 0 95 3 95 15 0 23 -49 115 -60 115 -6 0 -18 -16
-27 -35z"/>
</g>
</svg>

