<?xml version="1.0" standalone="no"?>
<!DOCTYPE svg PUBLIC "-//W3C//DTD SVG 20010904//EN"
 "http://www.w3.org/TR/2001/REC-SVG-20010904/DTD/svg10.dtd">
<svg version="1.0" xmlns="http://www.w3.org/2000/svg"
 width="48.000000pt" height="48.000000pt" viewBox="0 0 48.000000 48.000000"
 preserveAspectRatio="xMidYMid meet">
<metadata>
Created by potrace 1.16, written by Peter Selinger 2001-2019
</metadata>
<g transform="translate(0.000000,48.000000) scale(0.100000,-0.100000)"
fill="currentColor" stroke="currentColor" stroke-width="6" stroke-linejoin="round">
<path d="M340 461 c-23 -6 -25 -12 -28 -79 -2 -40 0 -72 4 -72 4 0 16 7 26 17
17 15 19 15 36 0 28 -26 32 -21 32 33 0 38 4 50 15 50 13 0 15 -23 15 -143 l0
-143 -67 -12 c-38 -6 -78 -15 -90 -18 l-23 -6 0 140 c0 83 4 143 10 147 6 3
10 13 10 22 0 11 -6 14 -21 10 -11 -3 -39 3 -62 13 -57 25 -162 37 -182 20
-12 -10 -15 -42 -15 -174 0 -177 3 -186 55 -186 55 0 149 -30 168 -53 l17 -22
18 22 c18 23 112 53 167 53 52 0 55 9 55 185 0 170 -4 185 -47 185 -13 0 -23
5 -23 10 0 11 -32 12 -70 1z m-159 -78 l39 -15 0 -140 0 -140 -22 7 c-13 3
-53 12 -90 18 l-68 11 0 145 0 144 51 -7 c28 -4 69 -14 90 -23z M70 336 c0 -9
17 -16 46 -21 26 -3 53 -9 60 -12 8 -3 14 1 14 10 0 10 -15 20 -37 26 -52 15
-83 14 -83 -3z M70 257 c0 -9 12 -18 30 -21 17 -3 43 -9 59 -12 16 -3 32 0 36
5 7 13 -23 26 -82 36 -35 5 -43 4 -43 -8z M72 169 c5 -14 105 -36 116 -25 12
13 -16 27 -68 33 -43 5 -52 3 -48 -8z M344 260 c-54 -12 -68 -20 -58 -30 15
-15 124 9 124 26 0 15 -17 16 -66 4z M313 170 c-44 -18 -26 -32 30 -25 57 8
67 12 67 26 0 11 -67 11 -97 -1z"/>
</g>
</svg>

