<?xml version="1.0" standalone="no"?>
<!DOCTYPE svg PUBLIC "-//W3C//DTD SVG 20010904//EN"
 "http://www.w3.org/TR/2001/REC-SVG-20010904/DTD/svg10.dtd">
<svg version="1.0" xmlns="http://www.w3.org/2000/svg"
 width="48.000000pt" height="48.000000pt" viewBox="0 0 48.000000 48.000000"
 preserveAspectRatio="xMidYMid meet">
<metadata>
Created by potrace 1.16, written by Peter Selinger 2001-2019
</metadata>
<g transform="translate(0.000000,48.000000) scale(0.100000,-0.100000)"
fill="currentColor" stroke="currentColor" stroke-width="6" stroke-linejoin="round">
<path d="M12 448 c-17 -17 -17 -329 0 -346 7 -7 26 -12 43 -12 55 0 149 -30
168 -53 16 -21 18 -21 31 -5 19 25 76 47 143 54 32 4 64 11 71 17 19 15 17
330 -3 347 -20 17 -125 5 -182 -20 -38 -17 -46 -17 -71 -4 -60 29 -179 43
-200 22z m165 -52 l38 -13 3 -143 3 -142 -23 6 c-13 4 -53 13 -90 19 l-68 11
0 145 0 144 49 -7 c27 -4 67 -12 88 -20z m263 -119 l0 -143 -67 -11 c-38 -6
-78 -15 -90 -18 l-23 -7 0 140 c0 78 4 143 9 146 16 10 116 35 144 35 l27 1 0
-143z M70 348 c0 -17 109 -41 124 -28 12 12 -26 29 -79 36 -36 5 -45 4 -45 -8z
M70 267 c0 -20 107 -44 123 -28 12 12 -16 25 -80 36 -35 5 -43 4 -43 -8z M70
182 c0 -16 9 -19 75 -27 55 -7 59 -6 44 9 -18 19 -119 35 -119 18z M323 349
c-33 -10 -49 -24 -36 -32 13 -7 120 17 124 28 5 13 -48 16 -88 4z M335 269
c-46 -11 -65 -26 -44 -33 19 -7 120 17 122 29 3 14 -30 15 -78 4z M313 180
c-44 -18 -26 -32 30 -25 57 8 67 12 67 26 0 11 -67 11 -97 -1z"/>
</g>
</svg>

