<?xml version="1.0" standalone="no"?>
<!DOCTYPE svg PUBLIC "-//W3C//DTD SVG 20010904//EN"
 "http://www.w3.org/TR/2001/REC-SVG-20010904/DTD/svg10.dtd">
<svg version="1.0" xmlns="http://www.w3.org/2000/svg"
 width="48.000000pt" height="48.000000pt" viewBox="0 0 48.000000 48.000000"
 preserveAspectRatio="xMidYMid meet">
<metadata>
Created by potrace 1.16, written by Peter Selinger 2001-2019
</metadata>
<g transform="translate(0.000000,48.000000) scale(0.100000,-0.100000)"
fill="currentColor" stroke="currentColor" stroke-width="6" stroke-linejoin="round">
<path d="M108 469 c-15 -8 -18 -25 -18 -109 0 -54 4 -101 9 -104 5 -3 21 10
36 30 l27 36 26 -36 c14 -20 29 -36 34 -36 4 0 8 36 8 80 l0 80 105 0 105 0 0
-185 0 -185 -200 0 -200 0 0 184 c0 113 4 187 10 191 17 10 11 35 -8 35 -39 0
-42 -17 -42 -225 0 -143 3 -204 12 -213 17 -17 439 -17 456 0 17 17 17 409 0
426 -8 8 -50 12 -123 12 -81 1 -115 5 -129 15 -23 17 -83 19 -108 4z M277 364
c-4 -4 -7 -14 -7 -21 0 -11 14 -13 58 -11 43 2 57 7 57 18 0 11 -14 16 -50 18
-28 2 -54 0 -58 -4z M275 280 c-13 -21 11 -31 61 -28 36 2 49 7 49 18 0 19
-99 27 -110 10z M105 199 c-15 -24 16 -30 146 -27 111 3 134 6 134 18 0 12
-23 15 -137 18 -92 2 -139 -1 -143 -9z M105 119 c-15 -23 15 -30 126 -27 93 2
114 6 114 18 0 12 -21 16 -117 18 -78 2 -119 -1 -123 -9z"/>
</g>
</svg>

