<?xml version="1.0" standalone="no"?>
<!DOCTYPE svg PUBLIC "-//W3C//DTD SVG 20010904//EN"
 "http://www.w3.org/TR/2001/REC-SVG-20010904/DTD/svg10.dtd">
<svg version="1.0" xmlns="http://www.w3.org/2000/svg"
 width="48.000000pt" height="48.000000pt" viewBox="0 0 48.000000 48.000000"
 preserveAspectRatio="xMidYMid meet">
<metadata>
Created by potrace 1.16, written by Peter Selinger 2001-2019
</metadata>
<g transform="translate(0.000000,48.000000) scale(0.100000,-0.100000)"
fill="currentColor" stroke="currentColor" stroke-width="6" stroke-linejoin="round">
<path d="M64 459 c-17 -19 -19 -38 -19 -219 0 -259 -15 -240 199 -240 89 0
168 5 176 10 23 14 22 366 -1 383 -9 7 -19 25 -23 42 -4 16 -13 33 -19 37 -7
4 -75 8 -153 8 -131 0 -142 -2 -160 -21z m286 -39 c0 -19 -7 -20 -130 -20
-123 0 -130 1 -130 20 0 19 7 20 130 20 123 0 130 -1 130 -20z m-69 -131 c21
-21 22 -50 4 -106 -6 -18 -2 -25 18 -32 24 -9 57 -46 57 -63 0 -5 -54 -8 -120
-8 -66 0 -120 3 -120 8 0 17 33 54 57 63 20 7 24 14 19 32 -19 63 -18 85 3
106 27 27 55 27 82 0z"/>
</g>
</svg>

