<?xml version="1.0" standalone="no"?>
<!DOCTYPE svg PUBLIC "-//W3C//DTD SVG 20010904//EN"
 "http://www.w3.org/TR/2001/REC-SVG-20010904/DTD/svg10.dtd">
<svg version="1.0" xmlns="http://www.w3.org/2000/svg"
 width="48.000000pt" height="48.000000pt" viewBox="0 0 48.000000 48.000000"
 preserveAspectRatio="xMidYMid meet">
<metadata>
Created by potrace 1.16, written by Peter Selinger 2001-2019
</metadata>
<g transform="translate(0.000000,48.000000) scale(0.100000,-0.100000)"
fill="currentColor" stroke="currentColor" stroke-width="6" stroke-linejoin="round">
<path d="M210 465 c-8 -10 -10 -34 -5 -80 7 -63 8 -65 35 -65 27 0 28 2 35 65
7 70 -2 95 -35 95 -10 0 -23 -7 -30 -15z M77 437 c-15 -10 -17 -22 -11 -70 6
-55 8 -57 35 -57 26 0 29 3 29 33 0 17 3 41 6 53 3 13 -1 28 -11 38 -20 19
-26 20 -48 3z M355 434 c-9 -9 -14 -23 -11 -31 3 -8 6 -32 6 -54 0 -36 2 -39
29 -39 27 0 29 2 35 57 6 48 4 60 -11 70 -22 17 -28 16 -48 -3z M169 247 l-21
-43 24 -99 23 -100 45 0 45 0 23 100 24 99 -21 43 c-20 42 -22 43 -71 43 -49
0 -51 -1 -71 -43z M36 242 c-16 -34 -16 -42 -1 -107 25 -110 22 -105 65 -105
48 0 54 20 34 108 -11 48 -12 72 -5 95 16 45 15 47 -32 47 -41 0 -45 -3 -61
-38z M340 271 c0 -4 5 -22 11 -38 7 -23 6 -47 -5 -95 -20 -88 -14 -108 35
-108 36 0 39 2 48 38 31 116 33 135 15 174 -16 36 -20 38 -61 38 -23 0 -43 -4
-43 -9z"/>
</g>
</svg>

