<?xml version="1.0" standalone="no"?>
<!DOCTYPE svg PUBLIC "-//W3C//DTD SVG 20010904//EN"
 "http://www.w3.org/TR/2001/REC-SVG-20010904/DTD/svg10.dtd">
<svg version="1.0" xmlns="http://www.w3.org/2000/svg"
 width="48.000000pt" height="48.000000pt" viewBox="0 0 48.000000 48.000000"
 preserveAspectRatio="xMidYMid meet">
<metadata>
Created by potrace 1.16, written by Peter Selinger 2001-2019
</metadata>
<g transform="translate(0.000000,48.000000) scale(0.100000,-0.100000)"
fill="currentColor" stroke="currentColor" stroke-width="6" stroke-linejoin="round">
<path d="M210 466 c-14 -8 -38 -18 -55 -22 -23 -7 -31 -17 -38 -47 -5 -20 -13
-37 -18 -37 -4 0 -17 -10 -29 -22 -41 -44 -11 -164 53 -211 29 -22 35 -42 15
-50 -10 -3 -9 -11 4 -33 19 -32 48 -44 48 -20 0 9 5 16 10 16 6 0 10 9 10 20
0 11 -4 20 -10 20 -5 0 -10 14 -10 30 0 23 -6 33 -24 40 -13 5 -34 23 -46 40
-25 36 -39 113 -21 124 6 4 11 0 11 -9 0 -9 5 -25 11 -36 8 -16 13 -18 25 -8
10 8 14 33 14 80 0 39 4 69 10 69 6 0 10 -13 10 -29 0 -16 6 -34 14 -40 19
-16 36 14 36 64 0 22 4 34 10 30 6 -3 10 -23 10 -43 0 -69 34 -84 42 -18 4 40
28 47 28 8 0 -40 25 -61 40 -33 21 40 30 21 30 -67 0 -62 -4 -94 -15 -108 -8
-10 -15 -36 -15 -56 0 -21 -4 -38 -10 -38 -5 0 -10 -9 -10 -20 0 -11 5 -20 10
-20 6 0 10 -6 10 -14 0 -32 30 -25 47 11 12 27 14 38 5 41 -16 5 -15 51 3 82
10 17 14 57 15 121 0 80 -3 99 -18 112 -10 10 -25 17 -34 17 -8 0 -23 9 -33
20 -10 11 -28 20 -39 20 -12 0 -30 7 -40 15 -24 18 -24 18 -56 1z M250 86
c-27 -33 18 -72 48 -42 13 13 14 20 6 34 -15 23 -38 26 -54 8z"/>
</g>
</svg>

