<?xml version="1.0" standalone="no"?>
<!DOCTYPE svg PUBLIC "-//W3C//DTD SVG 20010904//EN"
 "http://www.w3.org/TR/2001/REC-SVG-20010904/DTD/svg10.dtd">
<svg version="1.0" xmlns="http://www.w3.org/2000/svg"
 width="48.000000pt" height="48.000000pt" viewBox="0 0 48.000000 48.000000"
 preserveAspectRatio="xMidYMid meet">
<metadata>
Created by potrace 1.16, written by Peter Selinger 2001-2019
</metadata>
<g transform="translate(0.000000,48.000000) scale(0.100000,-0.100000)"
fill="currentColor" stroke="currentColor" stroke-width="6" stroke-linejoin="round">
<path d="M114 466 c-41 -18 -64 -52 -64 -96 0 -24 -6 -39 -20 -48 -18 -11 -20
-23 -20 -106 0 -123 3 -126 120 -126 l88 0 41 75 c43 77 53 133 27 154 -8 7
-17 28 -21 49 -9 51 -31 81 -70 98 -41 17 -42 17 -81 0z m88 -53 c10 -9 18
-29 18 -45 0 -28 0 -28 -65 -28 -64 0 -65 1 -65 27 0 55 70 85 112 46z m-18
-190 c8 -21 -17 -48 -38 -40 -9 4 -16 18 -16 32 0 20 5 25 24 25 13 0 27 -8
30 -17z M316 208 c-8 -13 -32 -58 -53 -101 -37 -76 -37 -79 -19 -93 24 -17
177 -20 207 -4 28 15 23 35 -29 130 -52 93 -78 110 -106 68z m49 -68 c0 -18
-6 -35 -12 -37 -9 -3 -13 8 -13 37 0 29 4 40 13 38 6 -3 12 -20 12 -38z m5
-85 c0 -8 -6 -15 -14 -15 -17 0 -28 14 -19 24 12 12 33 6 33 -9z"/>
</g>
</svg>

