<?xml version="1.0" standalone="no"?>
<!DOCTYPE svg PUBLIC "-//W3C//DTD SVG 20010904//EN"
 "http://www.w3.org/TR/2001/REC-SVG-20010904/DTD/svg10.dtd">
<svg version="1.0" xmlns="http://www.w3.org/2000/svg"
 width="48.000000pt" height="48.000000pt" viewBox="0 0 48.000000 48.000000"
 preserveAspectRatio="xMidYMid meet">
<metadata>
Created by potrace 1.16, written by Peter Selinger 2001-2019
</metadata>
<g transform="translate(0.000000,48.000000) scale(0.100000,-0.100000)"
fill="currentColor" stroke="currentColor" stroke-width="6" stroke-linejoin="round">
<path d="M168 433 c-9 -10 -19 -28 -22 -40 -6 -20 -14 -23 -57 -23 -82 0 -89
-14 -89 -170 0 -181 -15 -170 240 -170 255 0 240 -11 240 170 0 156 -7 170
-89 170 -43 0 -51 3 -57 23 -13 45 -34 57 -94 57 -42 0 -61 -5 -72 -17z m122
-27 c0 -2 3 -11 6 -20 5 -14 -3 -16 -55 -16 -34 0 -61 2 -61 4 0 26 16 36 61
36 27 0 49 -2 49 -4z m80 -151 c0 -13 -21 -15 -130 -15 -109 0 -130 2 -130 15
0 13 21 15 130 15 109 0 130 -2 130 -15z m0 -110 c0 -13 -21 -15 -130 -15
-109 0 -130 2 -130 15 0 13 21 15 130 15 109 0 130 -2 130 -15z"/>
</g>
</svg>

