<?xml version="1.0" standalone="no"?>
<!DOCTYPE svg PUBLIC "-//W3C//DTD SVG 20010904//EN"
 "http://www.w3.org/TR/2001/REC-SVG-20010904/DTD/svg10.dtd">
<svg version="1.0" xmlns="http://www.w3.org/2000/svg"
 width="48.000000pt" height="48.000000pt" viewBox="0 0 48.000000 48.000000"
 preserveAspectRatio="xMidYMid meet">
<metadata>
Created by potrace 1.16, written by Peter Selinger 2001-2019
</metadata>
<g transform="translate(0.000000,48.000000) scale(0.100000,-0.100000)"
fill="currentColor" stroke="currentColor" stroke-width="6" stroke-linejoin="round">
<path d="M224 467 c-11 -29 0 -102 16 -102 19 0 22 106 3 112 -7 3 -16 -2 -19
-10z M72 407 c-17 -19 62 -97 80 -79 10 10 4 21 -28 53 -33 33 -43 38 -52 26z
M355 380 c-31 -31 -36 -43 -27 -52 10 -10 21 -4 53 28 33 33 38 43 26 52 -11
9 -22 3 -52 -28z M179 301 c-20 -20 -29 -39 -29 -61 0 -43 47 -90 90 -90 43 0
90 47 90 90 0 43 -47 90 -90 90 -22 0 -41 -9 -61 -29z M5 240 c-13 -21 11 -31
61 -28 36 2 49 7 49 18 0 19 -99 27 -110 10z M365 240 c-13 -21 11 -31 61 -28
36 2 49 7 49 18 0 19 -99 27 -110 10z M97 122 c-31 -32 -35 -41 -24 -50 10 -9
22 -3 51 27 21 22 35 44 32 50 -11 17 -20 13 -59 -27z M324 149 c-3 -6 11 -28
32 -50 29 -30 41 -36 51 -27 11 9 7 18 -24 50 -39 40 -48 44 -59 27z M224 107
c-11 -29 0 -102 16 -102 19 0 22 106 3 112 -7 3 -16 -2 -19 -10z"/>
</g>
</svg>

