<?xml version="1.0" standalone="no"?>
<!DOCTYPE svg PUBLIC "-//W3C//DTD SVG 20010904//EN"
 "http://www.w3.org/TR/2001/REC-SVG-20010904/DTD/svg10.dtd">
<svg version="1.0" xmlns="http://www.w3.org/2000/svg"
 width="48.000000pt" height="48.000000pt" viewBox="0 0 48.000000 48.000000"
 preserveAspectRatio="xMidYMid meet">
<metadata>
Created by potrace 1.16, written by Peter Selinger 2001-2019
</metadata>
<g transform="translate(0.000000,48.000000) scale(0.100000,-0.100000)"
fill="currentColor" stroke="currentColor" stroke-width="6" stroke-linejoin="round">
<path d="M25 430 c-40 -44 -3 -128 64 -145 l26 -7 -32 -13 c-41 -18 -73 -50
-73 -75 0 -27 44 -44 81 -31 27 9 27 9 44 -60 20 -81 39 -99 105 -99 65 0 84
18 105 99 18 68 19 69 45 60 39 -14 80 4 80 34 0 28 -22 51 -68 70 l-32 13 40
18 c38 17 70 57 70 89 0 26 -41 67 -67 67 -22 0 -24 -3 -19 -26 7 -25 6 -26
-26 -20 -73 15 -106 17 -112 7 -5 -7 -14 -7 -32 1 -19 9 -36 9 -70 0 -64 -17
-72 -16 -66 13 4 21 1 25 -20 25 -14 0 -33 -9 -43 -20z m94 -66 c82 15 96 13
96 -14 0 -19 -7 -26 -32 -34 -40 -11 -118 15 -134 46 -10 18 -9 19 11 8 13 -7
37 -9 59 -6z m247 0 c18 -3 42 0 55 7 23 12 23 12 8 -12 -20 -30 -83 -52 -126
-44 -38 7 -47 18 -38 46 6 18 12 20 38 15 18 -4 46 -9 63 -12z m-170 -135 c10
-17 -13 -36 -27 -22 -12 12 -4 33 11 33 5 0 12 -5 16 -11z m120 0 c10 -17 -13
-36 -27 -22 -12 12 -4 33 11 33 5 0 12 -5 16 -11z m-19 -117 c8 -5 8 -15 -2
-40 -13 -29 -18 -32 -55 -32 -33 0 -42 4 -52 24 -18 41 -5 56 49 56 26 0 53
-4 60 -8z M200 80 c0 -11 7 -20 15 -20 8 0 15 9 15 20 0 11 -7 20 -15 20 -8 0
-15 -9 -15 -20z M250 80 c0 -11 7 -20 15 -20 8 0 15 9 15 20 0 11 -7 20 -15
20 -8 0 -15 -9 -15 -20z"/>
</g>
</svg>

