<?xml version="1.0" standalone="no"?>
<!DOCTYPE svg PUBLIC "-//W3C//DTD SVG 20010904//EN"
 "http://www.w3.org/TR/2001/REC-SVG-20010904/DTD/svg10.dtd">
<svg version="1.0" xmlns="http://www.w3.org/2000/svg"
 width="48.000000pt" height="48.000000pt" viewBox="0 0 48.000000 48.000000"
 preserveAspectRatio="xMidYMid meet">
<metadata>
Created by potrace 1.16, written by Peter Selinger 2001-2019
</metadata>
<g transform="translate(0.000000,48.000000) scale(0.100000,-0.100000)"
fill="currentColor" stroke="currentColor" stroke-width="6" stroke-linejoin="round">
<path d="M290 455 c-5 -14 -16 -25 -25 -25 -8 0 -15 -4 -15 -10 0 -5 7 -10 15
-10 9 0 20 -11 25 -25 5 -14 12 -25 15 -25 3 0 10 11 15 25 5 14 16 25 25 25
8 0 15 5 15 10 0 6 -7 10 -15 10 -9 0 -20 11 -25 25 -5 14 -12 25 -15 25 -3 0
-10 -11 -15 -25z M10 401 c-7 -13 -9 -88 -8 -208 3 -180 4 -188 23 -188 15 0
21 8 23 33 3 26 8 32 27 32 19 0 24 -6 27 -32 2 -25 8 -33 23 -33 19 0 20 8
25 120 5 119 5 120 33 133 38 18 32 46 -11 50 -42 4 -41 20 1 24 46 4 39 22
-10 26 -55 4 -56 22 -2 22 33 0 40 3 37 18 -3 14 -17 17 -90 20 -78 2 -88 1
-98 -17z M409 406 c0 -3 0 -39 0 -78 0 -77 6 -84 44 -51 35 33 20 99 -30 127
-7 4 -13 5 -14 2z M180 210 c-6 -11 -10 -59 -8 -113 l3 -92 30 0 c27 0 30 4
33 33 3 26 8 32 27 32 19 0 24 -6 27 -32 3 -29 6 -33 33 -33 l30 0 0 60 c0 58
-1 60 -27 63 -35 4 -36 20 -3 24 38 5 31 23 -10 26 -46 4 -45 22 1 22 24 0 34
4 32 13 -3 8 -31 13 -81 15 -68 3 -77 1 -87 -18z"/>
</g>
</svg>

