<?xml version="1.0" standalone="no"?>
<!DOCTYPE svg PUBLIC "-//W3C//DTD SVG 20010904//EN"
 "http://www.w3.org/TR/2001/REC-SVG-20010904/DTD/svg10.dtd">
<svg version="1.0" xmlns="http://www.w3.org/2000/svg"
 width="48.000000pt" height="48.000000pt" viewBox="0 0 48.000000 48.000000"
 preserveAspectRatio="xMidYMid meet">
<metadata>
Created by potrace 1.16, written by Peter Selinger 2001-2019
</metadata>
<g transform="translate(0.000000,48.000000) scale(0.100000,-0.100000)"
fill="currentColor" stroke="currentColor" stroke-width="6" stroke-linejoin="round">
<path d="M224 467 c-3 -9 -4 -26 -2 -39 2 -18 -5 -27 -37 -43 -100 -50 -115
-177 -29 -244 20 -16 41 -21 84 -21 43 0 64 5 84 21 86 67 71 194 -29 244 -35
17 -40 24 -40 54 0 36 -21 54 -31 28z m61 -111 c61 -26 86 -117 44 -170 -31
-39 -41 -33 -33 22 l6 47 -62 0 -62 0 6 -47 c8 -55 -2 -61 -33 -22 -41 52 -18
143 42 169 41 18 50 18 92 1z m-19 -152 c-3 -9 -6 -24 -6 -35 0 -12 -7 -19
-20 -19 -13 0 -20 7 -20 19 0 11 -3 26 -6 35 -5 13 1 16 26 16 25 0 31 -3 26
-16z M63 415 c-7 -20 24 -55 49 -55 25 0 23 22 -5 48 -28 26 -36 27 -44 7z
M370 406 c-28 -30 -21 -63 9 -46 25 13 52 50 45 62 -9 15 -30 8 -54 -16z M11
277 c-15 -19 -4 -27 41 -27 26 0 38 4 38 14 0 26 -59 36 -79 13z M403 283
c-22 -8 -14 -32 11 -39 13 -3 34 -1 46 6 40 21 -12 52 -57 33z M175 100 c-13
-21 12 -31 71 -28 44 2 59 7 59 18 0 19 -119 28 -130 10z M175 50 c-9 -14 3
-30 24 -30 9 0 22 -5 28 -11 7 -7 17 -7 29 -1 11 6 27 13 37 16 10 3 17 12 15
19 -6 15 -124 22 -133 7z"/>
</g>
</svg>

