<?xml version="1.0" standalone="no"?>
<!DOCTYPE svg PUBLIC "-//W3C//DTD SVG 20010904//EN"
 "http://www.w3.org/TR/2001/REC-SVG-20010904/DTD/svg10.dtd">
<svg version="1.0" xmlns="http://www.w3.org/2000/svg"
 width="48.000000pt" height="48.000000pt" viewBox="0 0 48.000000 48.000000"
 preserveAspectRatio="xMidYMid meet">
<metadata>
Created by potrace 1.16, written by Peter Selinger 2001-2019
</metadata>
<g transform="translate(0.000000,48.000000) scale(0.100000,-0.100000)"
fill="currentColor" stroke="currentColor" stroke-width="6" stroke-linejoin="round">
<path d="M42 388 c-34 -34 6 -90 48 -68 35 19 20 80 -20 80 -9 0 -21 -5 -28
-12z M382 388 c-34 -34 6 -90 48 -68 35 19 20 80 -20 80 -9 0 -21 -5 -28 -12z
M220 375 c0 -8 -11 -25 -25 -39 -43 -43 -24 -108 35 -121 21 -5 30 -13 30 -26
0 -23 -17 -25 -41 -3 -10 9 -23 13 -28 9 -16 -9 -13 -41 5 -56 9 -7 20 -24 25
-37 11 -28 42 -26 47 2 2 11 13 27 25 36 13 11 20 28 19 49 -1 40 -14 57 -58
71 -35 12 -45 34 -20 43 8 3 20 -1 26 -9 7 -8 19 -14 27 -14 23 0 27 30 6 53
-11 12 -23 30 -26 40 -8 21 -47 23 -47 2z M50 283 c-38 -13 -57 -97 -25 -109
10 -4 15 -20 15 -45 0 -37 2 -39 30 -39 28 0 30 2 30 39 0 25 5 41 15 45 18 7
20 66 3 88 -15 19 -47 28 -68 21z M390 283 c-38 -13 -57 -97 -25 -109 10 -4
15 -20 15 -45 0 -37 2 -39 30 -39 28 0 30 2 30 39 0 25 5 41 15 45 18 7 20 66
3 88 -15 19 -47 28 -68 21z"/>
</g>
</svg>

