<?xml version="1.0" standalone="no"?>
<!DOCTYPE svg PUBLIC "-//W3C//DTD SVG 20010904//EN"
 "http://www.w3.org/TR/2001/REC-SVG-20010904/DTD/svg10.dtd">
<svg version="1.0" xmlns="http://www.w3.org/2000/svg"
 width="48.000000pt" height="48.000000pt" viewBox="0 0 48.000000 48.000000"
 preserveAspectRatio="xMidYMid meet">
<metadata>
Created by potrace 1.16, written by Peter Selinger 2001-2019
</metadata>
<g transform="translate(0.000000,48.000000) scale(0.100000,-0.100000)"
fill="currentColor" stroke="currentColor" stroke-width="6" stroke-linejoin="round">
<path d="M237 369 c-10 -6 -28 -9 -39 -6 -11 3 -32 1 -47 -6 -14 -6 -53 -11
-86 -11 l-60 -1 -3 -85 c-4 -117 0 -130 43 -130 18 0 37 5 40 10 10 17 35 11
69 -15 42 -32 64 -32 106 4 48 39 103 48 130 21 11 -11 33 -20 50 -20 37 0 42
16 38 130 l-3 85 -55 6 c-30 4 -68 12 -83 18 -35 14 -76 14 -100 0z m107 -44
c36 -15 37 -17 34 -63 -4 -61 -24 -64 -64 -9 -25 35 -36 42 -62 41 -37 -2 -41
9 -10 30 28 20 56 20 102 1z m-164 -25 c0 -23 43 -55 64 -47 8 3 24 -5 35 -17
l22 -23 -45 -37 c-50 -41 -58 -43 -77 -19 -8 9 -29 22 -46 30 -30 12 -33 17
-33 58 0 38 4 46 28 59 37 21 52 20 52 -4z"/>
</g>
</svg>

