<?xml version="1.0" standalone="no"?>
<!DOCTYPE svg PUBLIC "-//W3C//DTD SVG 20010904//EN"
 "http://www.w3.org/TR/2001/REC-SVG-20010904/DTD/svg10.dtd">
<svg version="1.0" xmlns="http://www.w3.org/2000/svg"
 width="48.000000pt" height="48.000000pt" viewBox="0 0 48.000000 48.000000"
 preserveAspectRatio="xMidYMid meet">
<metadata>
Created by potrace 1.16, written by Peter Selinger 2001-2019
</metadata>
<g transform="translate(0.000000,48.000000) scale(0.100000,-0.100000)"
fill="currentColor" stroke="currentColor" stroke-width="6" stroke-linejoin="round">
<path d="M160 467 c-49 -16 -133 -102 -148 -153 -28 -94 -8 -169 63 -239 101
-102 229 -102 330 0 102 101 102 229 0 330 -70 71 -152 91 -245 62z m153 -51
c39 -17 92 -71 106 -109 26 -67 9 -141 -42 -196 -76 -80 -186 -83 -266 -8 -57
54 -77 134 -50 204 14 37 66 92 104 109 39 17 107 18 148 0z M164 307 c-3 -8
-4 -43 -2 -78 l3 -64 75 0 75 0 0 75 0 75 -73 3 c-55 2 -74 -1 -78 -11z"/>
</g>
</svg>

