<?xml version="1.0" standalone="no"?>
<!DOCTYPE svg PUBLIC "-//W3C//DTD SVG 20010904//EN"
 "http://www.w3.org/TR/2001/REC-SVG-20010904/DTD/svg10.dtd">
<svg version="1.0" xmlns="http://www.w3.org/2000/svg"
 width="48.000000pt" height="48.000000pt" viewBox="0 0 48.000000 48.000000"
 preserveAspectRatio="xMidYMid meet">
<metadata>
Created by potrace 1.16, written by Peter Selinger 2001-2019
</metadata>
<g transform="translate(0.000000,48.000000) scale(0.100000,-0.100000)"
fill="currentColor" stroke="currentColor" stroke-width="6" stroke-linejoin="round">
<path d="M135 468 c-2 -7 -6 -35 -7 -63 -3 -56 -21 -68 -26 -17 -3 29 -6 32
-36 32 -61 0 -66 -15 -66 -212 0 -157 2 -177 18 -191 16 -15 47 -17 224 -17
186 0 206 2 221 18 15 16 17 45 17 194 0 195 -4 208 -68 208 -26 0 -31 4 -34
28 -2 16 -9 27 -18 27 -11 0 -16 -15 -20 -58 -5 -63 -23 -81 -28 -29 l-3 32
-69 0 c-67 0 -69 1 -72 27 -3 29 -25 43 -33 21z m305 -303 l0 -125 -200 0
-200 0 0 125 0 125 200 0 200 0 0 -125z M312 248 c-20 -20 -14 -56 13 -74 23
-15 27 -15 50 0 44 29 28 86 -25 86 -14 0 -31 -5 -38 -12z M104 225 c-8 -20 4
-35 26 -35 23 0 32 13 24 34 -8 20 -43 21 -50 1z M214 225 c-4 -9 -2 -21 4
-27 16 -16 47 -5 47 17 0 26 -42 34 -51 10z M104 115 c-4 -9 -2 -21 4 -27 16
-16 47 -5 47 17 0 26 -42 34 -51 10z M214 115 c-4 -9 -2 -21 4 -27 16 -16 47
-5 47 17 0 26 -42 34 -51 10z M324 115 c-4 -9 -2 -21 4 -27 16 -16 47 -5 47
17 0 26 -42 34 -51 10z"/>
</g>
</svg>

