<?xml version="1.0" standalone="no"?>
<!DOCTYPE svg PUBLIC "-//W3C//DTD SVG 20010904//EN"
 "http://www.w3.org/TR/2001/REC-SVG-20010904/DTD/svg10.dtd">
<svg version="1.0" xmlns="http://www.w3.org/2000/svg"
 width="48.000000pt" height="48.000000pt" viewBox="0 0 48.000000 48.000000"
 preserveAspectRatio="xMidYMid meet">
<metadata>
Created by potrace 1.16, written by Peter Selinger 2001-2019
</metadata>
<g transform="translate(0.000000,48.000000) scale(0.100000,-0.100000)"
fill="currentColor" stroke="currentColor" stroke-width="6" stroke-linejoin="round">
<path d="M125 468 c-2 -7 -6 -35 -7 -62 -4 -59 -28 -78 -28 -22 0 33 -3 36
-28 36 -15 0 -33 -5 -40 -12 -17 -17 -17 -379 0 -396 17 -17 419 -17 436 0 17
17 17 379 0 396 -7 7 -29 12 -49 12 -34 0 -38 3 -41 28 -2 16 -9 27 -18 27
-11 0 -16 -15 -20 -59 -6 -67 -30 -92 -30 -32 l0 36 -69 0 c-68 0 -70 1 -73
27 -3 29 -25 43 -33 21z m305 -298 l0 -130 -190 0 -190 0 0 130 0 130 190 0
190 0 0 -130z M115 260 c-4 -7 -3 -16 3 -22 14 -14 47 -6 47 12 0 18 -40 26
-50 10z M215 260 c-4 -7 -3 -16 3 -22 14 -14 47 -6 47 12 0 18 -40 26 -50 10z
M315 260 c-4 -7 -3 -16 3 -22 14 -14 47 -6 47 12 0 18 -40 26 -50 10z M115
180 c-4 -7 -3 -16 3 -22 14 -14 47 -6 47 12 0 18 -40 26 -50 10z M215 180 c-4
-7 -3 -16 3 -22 14 -14 47 -6 47 12 0 18 -40 26 -50 10z M315 180 c-4 -7 -3
-16 3 -22 14 -14 47 -6 47 12 0 18 -40 26 -50 10z M115 100 c-4 -7 -3 -16 3
-22 14 -14 47 -6 47 12 0 18 -40 26 -50 10z M215 100 c-4 -7 -3 -16 3 -22 14
-14 47 -6 47 12 0 18 -40 26 -50 10z M315 100 c-4 -7 -3 -16 3 -22 14 -14 47
-6 47 12 0 18 -40 26 -50 10z"/>
</g>
</svg>

