<?xml version="1.0" standalone="no"?>
<!DOCTYPE svg PUBLIC "-//W3C//DTD SVG 20010904//EN"
 "http://www.w3.org/TR/2001/REC-SVG-20010904/DTD/svg10.dtd">
<svg version="1.0" xmlns="http://www.w3.org/2000/svg"
 width="48.000000pt" height="48.000000pt" viewBox="0 0 48.000000 48.000000"
 preserveAspectRatio="xMidYMid meet">
<metadata>
Created by potrace 1.16, written by Peter Selinger 2001-2019
</metadata>
<g transform="translate(0.000000,48.000000) scale(0.100000,-0.100000)"
fill="currentColor" stroke="currentColor" stroke-width="6" stroke-linejoin="round">
<path d="M86 404 c-3 -9 -6 -49 -6 -90 0 -67 2 -74 20 -74 18 0 20 7 20 70 l0
70 34 0 c44 0 66 9 66 26 0 21 -126 20 -134 -2z M350 406 c0 -17 22 -26 61
-26 l29 0 0 -90 0 -90 -95 0 c-75 0 -95 -3 -95 -14 0 -21 23 -26 111 -26 119
0 119 0 119 128 0 71 -4 112 -12 120 -18 18 -118 16 -118 -2z M252 387 c-30
-32 -28 -63 6 -81 17 -10 21 -15 11 -16 -30 0 -40 -24 -19 -43 26 -22 39 -21
61 5 28 31 23 56 -13 78 l-33 20 27 0 c37 0 43 15 16 39 -27 26 -30 26 -56 -2z
M23 248 c-21 -10 -23 -18 -23 -100 0 -64 3 -88 13 -88 22 0 115 59 156 98 68
64 48 88 -39 48 -30 -14 -57 -23 -62 -20 -4 3 -8 21 -8 40 0 37 -3 38 -37 22z
M193 134 c-10 -26 14 -40 35 -21 24 22 32 21 32 -3 0 -24 35 -28 44 -4 14 38
7 44 -49 44 -41 0 -57 -4 -62 -16z"/>
</g>
</svg>

