<?xml version="1.0" standalone="no"?>
<!DOCTYPE svg PUBLIC "-//W3C//DTD SVG 20010904//EN"
 "http://www.w3.org/TR/2001/REC-SVG-20010904/DTD/svg10.dtd">
<svg version="1.0" xmlns="http://www.w3.org/2000/svg"
 width="48.000000pt" height="48.000000pt" viewBox="0 0 48.000000 48.000000"
 preserveAspectRatio="xMidYMid meet">
<metadata>
Created by potrace 1.16, written by Peter Selinger 2001-2019
</metadata>
<g transform="translate(0.000000,48.000000) scale(0.100000,-0.100000)"
fill="currentColor" stroke="currentColor" stroke-width="6" stroke-linejoin="round">
<path d="M274 465 c3 -8 9 -22 12 -30 3 -8 2 -15 -3 -15 -16 0 -76 -64 -89
-97 -18 -41 -8 -86 25 -122 77 -82 230 -44 248 62 8 49 -11 90 -59 132 -34 29
-38 36 -29 53 17 31 15 32 -50 32 -50 0 -60 -3 -55 -15z m66 -95 c0 -5 7 -10
15 -10 8 0 15 -7 15 -15 0 -10 -10 -15 -27 -15 l-27 0 32 -29 c17 -17 32 -32
32 -35 0 -3 -11 -17 -24 -31 -24 -26 -25 -26 -50 -10 -35 23 -33 35 7 35 l32
1 -33 27 c-36 31 -40 47 -14 73 19 20 42 25 42 9z M48 139 c-38 -19 -38 -20
-38 -80 l0 -60 41 24 41 25 71 -24 c39 -13 82 -24 95 -24 31 0 203 91 199 105
-7 18 -86 9 -117 -13 -21 -16 -44 -22 -80 -22 -66 0 -65 18 3 22 38 2 52 7 52
18 0 10 -12 16 -40 18 -22 2 -54 9 -72 17 -43 21 -111 18 -155 -6z"/>
</g>
</svg>

