<?xml version="1.0" standalone="no"?>
<!DOCTYPE svg PUBLIC "-//W3C//DTD SVG 20010904//EN"
 "http://www.w3.org/TR/2001/REC-SVG-20010904/DTD/svg10.dtd">
<svg version="1.0" xmlns="http://www.w3.org/2000/svg"
 width="48.000000pt" height="48.000000pt" viewBox="0 0 48.000000 48.000000"
 preserveAspectRatio="xMidYMid meet">
<metadata>
Created by potrace 1.16, written by Peter Selinger 2001-2019
</metadata>
<g transform="translate(0.000000,48.000000) scale(0.100000,-0.100000)"
fill="currentColor" stroke="currentColor" stroke-width="6" stroke-linejoin="round">
<path d="M262 441 c-60 -6 -66 -9 -110 -56 -26 -27 -60 -57 -77 -66 -47 -25
-77 -84 -72 -142 5 -61 30 -96 90 -125 57 -29 112 -23 158 15 35 30 63 79 55
99 -7 19 -36 18 -36 -1 0 -24 -59 -83 -89 -90 -35 -7 -88 13 -116 45 -14 16
-20 36 -20 72 0 43 4 53 33 79 26 24 41 29 82 29 43 0 50 3 50 20 0 11 -6 20
-12 20 -7 1 -2 10 11 20 29 25 112 28 135 4 21 -21 20 -57 -2 -77 -14 -13 -26
-14 -57 -7 -30 7 -43 6 -54 -5 -23 -22 -6 -40 58 -64 l60 -22 63 19 63 20 3
80 3 80 -54 31 c-30 17 -65 30 -78 29 -13 0 -52 -4 -87 -7z M127 260 c-36 -36
-32 -60 16 -83 42 -21 40 -37 -4 -37 -16 0 -29 -3 -29 -8 0 -8 37 -42 46 -42
10 0 54 53 54 65 0 16 -29 41 -57 49 -33 10 -28 24 9 28 29 3 54 28 27 28 -6
0 -17 7 -23 15 -9 12 -15 10 -39 -15z"/>
</g>
</svg>

