<?xml version="1.0" standalone="no"?>
<!DOCTYPE svg PUBLIC "-//W3C//DTD SVG 20010904//EN"
 "http://www.w3.org/TR/2001/REC-SVG-20010904/DTD/svg10.dtd">
<svg version="1.0" xmlns="http://www.w3.org/2000/svg"
 width="48.000000pt" height="48.000000pt" viewBox="0 0 48.000000 48.000000"
 preserveAspectRatio="xMidYMid meet">
<metadata>
Created by potrace 1.16, written by Peter Selinger 2001-2019
</metadata>
<g transform="translate(0.000000,48.000000) scale(0.100000,-0.100000)"
fill="currentColor" stroke="currentColor" stroke-width="6" stroke-linejoin="round">
<path d="M7 444 c-13 -13 -8 -269 5 -282 12 -12 104 -17 132 -6 9 3 16 12 16
20 0 10 -15 14 -60 14 l-60 0 0 110 0 110 200 0 200 0 0 -85 c0 -79 1 -85 20
-85 20 0 21 5 18 103 l-3 102 -231 3 c-127 1 -233 -1 -237 -4z M206 370 c-36
-37 -32 -70 11 -90 39 -18 42 -30 9 -30 -34 0 -42 -18 -17 -41 27 -25 35 -24
64 11 33 38 25 67 -22 88 l-36 16 34 5 c44 8 48 22 13 48 l-28 21 -28 -28z
M360 268 c-5 -13 -11 -36 -15 -51 -3 -18 -18 -36 -40 -48 -25 -15 -36 -30 -41
-55 -7 -39 -21 -45 -26 -11 -3 19 -10 22 -61 25 l-57 3 6 -43 c10 -71 5 -68
104 -68 89 0 91 0 101 27 5 15 28 42 50 61 38 32 39 36 39 96 0 61 -11 86 -37
86 -7 0 -18 -10 -23 -22z"/>
</g>
</svg>

