<?xml version="1.0" standalone="no"?>
<!DOCTYPE svg PUBLIC "-//W3C//DTD SVG 20010904//EN"
 "http://www.w3.org/TR/2001/REC-SVG-20010904/DTD/svg10.dtd">
<svg version="1.0" xmlns="http://www.w3.org/2000/svg"
 width="48.000000pt" height="48.000000pt" viewBox="0 0 48.000000 48.000000"
 preserveAspectRatio="xMidYMid meet">
<metadata>
Created by potrace 1.16, written by Peter Selinger 2001-2019
</metadata>
<g transform="translate(0.000000,48.000000) scale(0.100000,-0.100000)"
fill="currentColor" stroke="currentColor" stroke-width="6" stroke-linejoin="round">
<path d="M362 457 c-28 -30 -28 -68 1 -95 30 -28 68 -28 95 1 28 30 28 68 -1
95 -30 28 -68 28 -95 -1z m58 -47 c0 -16 -4 -30 -10 -30 -5 0 -10 14 -10 30 0
17 5 30 10 30 6 0 10 -13 10 -30z M219 311 c-39 -40 -39 -82 0 -122 40 -39 82
-39 122 0 20 20 29 39 29 61 0 43 -47 90 -90 90 -22 0 -41 -9 -61 -29z m71
-61 c0 -22 -4 -40 -10 -40 -5 0 -10 18 -10 40 0 22 5 40 10 40 6 0 10 -18 10
-40z M0 110 l0 -70 35 0 35 0 0 70 0 70 -35 0 -35 0 0 -70z M92 103 l3 -56 69
-24 c39 -12 79 -23 91 -23 12 0 58 18 103 40 76 37 104 61 88 77 -12 12 -99
-17 -113 -37 -11 -16 -26 -20 -69 -20 -69 0 -71 18 -1 22 38 2 52 7 52 18 0
11 -14 16 -49 18 -30 2 -59 11 -74 23 -15 11 -40 19 -64 19 l-39 0 3 -57z"/>
</g>
</svg>

