<?xml version="1.0" standalone="no"?>
<!DOCTYPE svg PUBLIC "-//W3C//DTD SVG 20010904//EN"
 "http://www.w3.org/TR/2001/REC-SVG-20010904/DTD/svg10.dtd">
<svg version="1.0" xmlns="http://www.w3.org/2000/svg"
 width="48.000000pt" height="48.000000pt" viewBox="0 0 48.000000 48.000000"
 preserveAspectRatio="xMidYMid meet">
<metadata>
Created by potrace 1.16, written by Peter Selinger 2001-2019
</metadata>
<g transform="translate(0.000000,48.000000) scale(0.100000,-0.100000)"
fill="currentColor" stroke="currentColor" stroke-width="6" stroke-linejoin="round">
<path d="M200 453 c-29 -11 -50 -36 -50 -58 0 -20 -7 -23 -57 -28 -87 -9 -93
-21 -93 -172 0 -180 -13 -170 240 -170 253 0 240 -10 240 170 0 151 -6 163
-92 172 -51 5 -58 8 -58 28 0 12 -9 30 -19 39 -20 19 -85 30 -111 19z m90 -63
c0 -17 -7 -20 -50 -20 -43 0 -50 3 -50 20 0 17 7 20 50 20 43 0 50 -3 50 -20z
m-30 -95 c0 -9 9 -15 21 -15 14 0 19 -5 17 -17 -2 -13 -14 -19 -41 -21 -48 -4
-47 -15 3 -35 35 -13 40 -20 40 -46 0 -20 -7 -35 -20 -43 -11 -7 -20 -18 -20
-25 0 -7 -9 -13 -20 -13 -11 0 -20 7 -20 15 0 9 -9 15 -21 15 -14 0 -19 5 -17
18 2 12 14 18 41 20 48 4 47 15 -3 35 -35 13 -40 20 -40 46 0 20 7 35 20 43
11 7 20 18 20 25 0 7 9 13 20 13 11 0 20 -7 20 -15z"/>
</g>
</svg>

