<?xml version="1.0" standalone="no"?>
<!DOCTYPE svg PUBLIC "-//W3C//DTD SVG 20010904//EN"
 "http://www.w3.org/TR/2001/REC-SVG-20010904/DTD/svg10.dtd">
<svg version="1.0" xmlns="http://www.w3.org/2000/svg"
 width="48.000000pt" height="48.000000pt" viewBox="0 0 48.000000 48.000000"
 preserveAspectRatio="xMidYMid meet">
<metadata>
Created by potrace 1.16, written by Peter Selinger 2001-2019
</metadata>
<g transform="translate(0.000000,48.000000) scale(0.100000,-0.100000)"
fill="currentColor" stroke="currentColor" stroke-width="6" stroke-linejoin="round">
<path d="M12 468 c-16 -16 -16 -220 0 -236 7 -7 43 -12 90 -12 71 0 78 2 78
20 0 18 -7 20 -70 20 l-70 0 0 90 0 90 200 0 200 0 0 -73 c0 -61 3 -77 20 -92
20 -18 20 -17 20 81 0 65 -4 104 -12 112 -17 17 -439 17 -456 0z M70 391 c0
-15 6 -21 21 -21 20 0 21 -1 5 -25 -20 -30 -21 -55 -2 -55 18 0 68 77 64 98
-2 12 -15 18 -46 20 -37 3 -42 1 -42 -17z M195 400 c-8 -14 3 -30 21 -30 18 0
18 -5 -2 -36 -13 -20 -14 -28 -5 -37 23 -22 84 74 66 102 -8 14 -72 14 -80 1z
M320 391 c0 -15 6 -21 21 -21 20 0 21 -1 5 -25 -21 -31 -20 -35 3 -35 11 0 30
14 42 31 28 40 16 63 -35 67 -31 3 -36 0 -36 -17z M254 269 c-57 -16 -55 -62
4 -79 47 -13 97 -13 144 0 37 11 52 29 42 55 -12 30 -122 44 -190 24z M210
147 c0 -18 8 -28 29 -37 38 -15 128 -16 174 -1 30 10 37 18 37 38 0 23 -3 24
-27 17 -16 -5 -57 -9 -93 -9 -36 0 -77 4 -92 9 -25 7 -28 6 -28 -17z M212 63
c9 -83 227 -83 236 0 3 25 2 26 -23 17 -34 -13 -156 -13 -190 0 -25 9 -26 8
-23 -17z"/>
</g>
</svg>

