<?xml version="1.0" standalone="no"?>
<!DOCTYPE svg PUBLIC "-//W3C//DTD SVG 20010904//EN"
 "http://www.w3.org/TR/2001/REC-SVG-20010904/DTD/svg10.dtd">
<svg version="1.0" xmlns="http://www.w3.org/2000/svg"
 width="48.000000pt" height="48.000000pt" viewBox="0 0 48.000000 48.000000"
 preserveAspectRatio="xMidYMid meet">
<metadata>
Created by potrace 1.16, written by Peter Selinger 2001-2019
</metadata>
<g transform="translate(0.000000,48.000000) scale(0.100000,-0.100000)"
fill="currentColor" stroke="currentColor" stroke-width="6" stroke-linejoin="round">
<path d="M110 457 c-25 -13 -46 -31 -48 -40 -3 -15 11 -17 127 -17 145 0 158
7 96 49 -52 35 -119 39 -175 8z M5 357 c-3 -7 -4 -89 -3 -182 l3 -170 185 0
185 0 3 28 c2 18 11 31 27 37 39 15 55 49 55 117 0 35 6 72 12 83 17 26 0 55
-32 55 -32 0 -49 -29 -32 -55 12 -20 17 -116 6 -144 -3 -9 -12 -16 -20 -16
-10 0 -14 28 -16 128 l-3 127 -183 3 c-143 2 -184 0 -187 -11z m340 -122 l0
-70 -155 0 -155 0 -3 59 c-2 32 -1 65 2 73 5 11 35 13 158 11 l153 -3 0 -70z
m-185 -165 c0 -5 -25 -10 -55 -10 -30 0 -55 5 -55 10 0 6 25 10 55 10 30 0 55
-4 55 -10z M64 279 c-3 -6 -1 -16 4 -21 6 -6 8 -24 5 -39 -3 -19 -1 -29 6 -29
16 0 45 65 38 84 -7 18 -42 22 -53 5z M164 279 c-3 -6 -1 -16 4 -21 6 -6 8
-24 5 -39 -3 -19 -1 -29 6 -29 16 0 45 65 38 84 -7 18 -42 22 -53 5z M264 279
c-3 -6 -1 -16 4 -21 6 -6 8 -24 5 -39 -3 -19 -1 -29 6 -29 16 0 45 65 38 84
-7 18 -42 22 -53 5z"/>
</g>
</svg>

