<?xml version="1.0" standalone="no"?>
<!DOCTYPE svg PUBLIC "-//W3C//DTD SVG 20010904//EN"
 "http://www.w3.org/TR/2001/REC-SVG-20010904/DTD/svg10.dtd">
<svg version="1.0" xmlns="http://www.w3.org/2000/svg"
 width="48.000000pt" height="48.000000pt" viewBox="0 0 48.000000 48.000000"
 preserveAspectRatio="xMidYMid meet">
<metadata>
Created by potrace 1.16, written by Peter Selinger 2001-2019
</metadata>
<g transform="translate(0.000000,48.000000) scale(0.100000,-0.100000)"
fill="currentColor" stroke="currentColor" stroke-width="6" stroke-linejoin="round">
<path d="M345 458 c-2 -7 -5 -19 -7 -27 -2 -7 -19 -19 -38 -25 -25 -8 -36 -20
-45 -45 -8 -25 -20 -37 -45 -45 -25 -8 -36 -20 -45 -46 -9 -26 -19 -36 -42
-42 -24 -6 -34 -17 -43 -42 -8 -24 -20 -38 -41 -45 -36 -12 -39 -41 -4 -41 15
0 25 -6 25 -15 0 -8 9 -20 20 -27 11 -7 20 -21 20 -31 0 -27 33 -17 40 12 3
16 17 27 40 35 25 8 40 21 53 49 10 23 24 37 36 37 22 0 46 27 54 60 4 18 16
29 39 35 23 7 38 20 49 44 9 19 26 38 38 42 26 10 28 39 2 39 -10 0 -21 9 -24
21 -3 11 -15 23 -26 26 -12 3 -21 14 -21 24 0 21 -28 26 -35 7z m37 -90 c-6
-6 -15 -8 -19 -4 -4 4 -1 11 7 16 8 5 17 7 19 4 3 -2 -1 -10 -7 -16z m-59 -17
c3 -14 0 -17 -14 -14 -10 3 -15 11 -12 19 7 20 20 17 26 -5z m45 -43 c-6 -18
-28 -21 -28 -4 0 9 7 16 16 16 9 0 14 -5 12 -12z m-76 -30 c-7 -7 -12 -8 -12
-2 0 6 3 14 7 17 3 4 9 5 12 2 2 -3 -1 -11 -7 -17z m-54 -16 c2 -7 -5 -12 -17
-12 -14 0 -19 5 -14 15 6 17 25 15 31 -3z m42 -48 c0 -8 -7 -14 -15 -14 -8 0
-15 9 -15 20 0 13 5 18 15 14 8 -4 15 -12 15 -20z m-78 -26 c-7 -7 -12 -8 -12
-2 0 6 3 14 7 17 3 4 9 5 12 2 2 -3 -1 -11 -7 -17z m-50 -20 c2 -15 11 -24 25
-26 14 -2 20 -8 16 -18 -7 -19 -33 -18 -33 1 0 8 -9 20 -20 27 -23 15 -27 38
-6 38 8 0 16 -10 18 -22z m-40 -70 c-7 -7 -12 -8 -12 -2 0 14 12 26 19 19 2
-3 -1 -11 -7 -17z"/>
</g>
</svg>

