<?xml version="1.0" standalone="no"?>
<!DOCTYPE svg PUBLIC "-//W3C//DTD SVG 20010904//EN"
 "http://www.w3.org/TR/2001/REC-SVG-20010904/DTD/svg10.dtd">
<svg version="1.0" xmlns="http://www.w3.org/2000/svg"
 width="48.000000pt" height="48.000000pt" viewBox="0 0 48.000000 48.000000"
 preserveAspectRatio="xMidYMid meet">
<metadata>
Created by potrace 1.16, written by Peter Selinger 2001-2019
</metadata>
<g transform="translate(0.000000,48.000000) scale(0.100000,-0.100000)"
fill="currentColor" stroke="currentColor" stroke-width="6" stroke-linejoin="round">
<path d="M160 467 c-49 -16 -133 -102 -148 -153 -28 -94 -8 -169 63 -239 101
-102 229 -102 330 0 102 101 102 229 0 330 -70 71 -152 91 -245 62z m190 -61
c59 -39 85 -89 85 -166 0 -78 -26 -127 -88 -168 -56 -37 -153 -39 -210 -3 -76
47 -111 140 -88 229 14 51 75 117 123 131 53 16 135 6 178 -23z M343 352 c-5
-4 -35 -42 -67 -84 -31 -43 -59 -78 -62 -78 -3 0 -23 14 -44 31 -39 31 -70 34
-70 6 0 -13 110 -107 124 -107 10 0 156 203 156 216 0 15 -23 25 -37 16z"/>
</g>
</svg>

