<?xml version="1.0" standalone="no"?>
<!DOCTYPE svg PUBLIC "-//W3C//DTD SVG 20010904//EN"
 "http://www.w3.org/TR/2001/REC-SVG-20010904/DTD/svg10.dtd">
<svg version="1.0" xmlns="http://www.w3.org/2000/svg"
 width="48.000000pt" height="48.000000pt" viewBox="0 0 48.000000 48.000000"
 preserveAspectRatio="xMidYMid meet">
<metadata>
Created by potrace 1.16, written by Peter Selinger 2001-2019
</metadata>
<g transform="translate(0.000000,48.000000) scale(0.100000,-0.100000)"
fill="currentColor" stroke="currentColor" stroke-width="6" stroke-linejoin="round">
<path d="M12 468 c-17 -17 -17 -439 0 -456 17 -17 439 -17 456 0 17 17 17 439
0 456 -17 17 -439 17 -456 0z m428 -228 l0 -200 -200 0 -200 0 0 200 0 200
200 0 200 0 0 -200z M317 318 c-18 -24 -49 -64 -67 -90 l-33 -47 -26 20 c-64
49 -70 52 -86 39 -8 -7 -12 -18 -7 -25 15 -27 113 -97 127 -91 8 3 48 51 90
107 57 79 72 106 64 116 -17 20 -25 16 -62 -29z"/>
</g>
</svg>

