<?xml version="1.0" standalone="no"?>
<!DOCTYPE svg PUBLIC "-//W3C//DTD SVG 20010904//EN"
 "http://www.w3.org/TR/2001/REC-SVG-20010904/DTD/svg10.dtd">
<svg version="1.0" xmlns="http://www.w3.org/2000/svg"
 width="48.000000pt" height="48.000000pt" viewBox="0 0 48.000000 48.000000"
 preserveAspectRatio="xMidYMid meet">
<metadata>
Created by potrace 1.16, written by Peter Selinger 2001-2019
</metadata>
<g transform="translate(0.000000,48.000000) scale(0.100000,-0.100000)"
fill="currentColor" stroke="currentColor" stroke-width="6" stroke-linejoin="round">
<path d="M5 467 c-3 -7 -4 -114 -3 -237 l3 -225 235 0 235 0 0 235 0 235 -233
3 c-183 2 -234 0 -237 -11z m375 -128 c0 -19 -144 -208 -158 -209 -18 0 -122
82 -122 97 0 25 19 21 63 -12 25 -19 49 -35 54 -34 4 0 35 38 68 84 36 50 67
85 78 85 9 0 17 -5 17 -11z"/>
</g>
</svg>

