<?xml version="1.0" standalone="no"?>
<!DOCTYPE svg PUBLIC "-//W3C//DTD SVG 20010904//EN"
 "http://www.w3.org/TR/2001/REC-SVG-20010904/DTD/svg10.dtd">
<svg version="1.0" xmlns="http://www.w3.org/2000/svg"
 width="48.000000pt" height="48.000000pt" viewBox="0 0 48.000000 48.000000"
 preserveAspectRatio="xMidYMid meet">
<metadata>
Created by potrace 1.16, written by Peter Selinger 2001-2019
</metadata>
<g transform="translate(0.000000,48.000000) scale(0.100000,-0.100000)"
fill="currentColor" stroke="currentColor" stroke-width="6" stroke-linejoin="round">
<path d="M43 461 c-3 -11 -13 -21 -24 -24 -10 -3 -19 -10 -19 -17 0 -7 9 -14
19 -17 11 -3 21 -13 24 -24 3 -10 10 -19 17 -19 7 0 14 9 17 19 3 11 13 21 24
24 25 7 25 27 0 34 -11 3 -21 13 -24 24 -3 10 -10 19 -17 19 -7 0 -14 -9 -17
-19z M427 433 c-4 -3 -7 -12 -7 -20 0 -15 26 -18 34 -4 7 11 -18 33 -27 24z
M165 406 c-16 -8 -42 -26 -57 -42 -108 -116 -26 -304 131 -304 159 0 241 188
133 304 -51 54 -140 72 -207 42z m134 -54 c38 -20 71 -73 71 -112 0 -62 -68
-130 -130 -130 -62 0 -130 68 -130 130 0 62 68 130 130 130 14 0 41 -8 59 -18z
M200 317 c-52 -27 -62 -104 -19 -143 30 -27 93 -25 121 4 30 29 31 94 3 122
-26 26 -74 34 -105 17z m70 -77 c0 -27 -3 -30 -30 -30 -27 0 -30 3 -30 30 0
27 3 30 30 30 27 0 30 -3 30 -30z M392 83 l-23 -24 27 -29 27 -28 27 26 28 27
-27 27 c-14 15 -28 27 -31 27 -3 -1 -15 -12 -28 -26z M52 64 c4 -21 22 -23 26
-1 2 10 -3 17 -13 17 -10 0 -15 -6 -13 -16z"/>
</g>
</svg>

