<?xml version="1.0" standalone="no"?>
<!DOCTYPE svg PUBLIC "-//W3C//DTD SVG 20010904//EN"
 "http://www.w3.org/TR/2001/REC-SVG-20010904/DTD/svg10.dtd">
<svg version="1.0" xmlns="http://www.w3.org/2000/svg"
 width="48.000000pt" height="48.000000pt" viewBox="0 0 48.000000 48.000000"
 preserveAspectRatio="xMidYMid meet">
<metadata>
Created by potrace 1.16, written by Peter Selinger 2001-2019
</metadata>
<g transform="translate(0.000000,48.000000) scale(0.100000,-0.100000)"
fill="currentColor" stroke="currentColor" stroke-width="6" stroke-linejoin="round">
<path d="M10 332 c0 -10 7 -28 16 -40 15 -22 15 -25 -5 -46 -16 -17 -18 -25
-9 -34 9 -9 17 -7 34 9 l21 20 36 -23 c32 -21 36 -26 30 -55 -4 -26 -2 -33 11
-33 9 0 21 11 27 23 9 21 18 24 69 24 51 0 60 -3 69 -24 6 -13 18 -23 27 -23
13 0 15 7 11 33 -6 29 -2 34 30 55 l36 23 21 -20 c17 -16 25 -18 34 -9 9 9 7
17 -9 34 -20 21 -20 24 -5 46 9 12 16 30 16 40 0 30 -26 20 -53 -21 -82 -124
-272 -124 -354 0 -27 41 -53 51 -53 21z"/>
</g>
</svg>

