<?xml version="1.0" standalone="no"?>
<!DOCTYPE svg PUBLIC "-//W3C//DTD SVG 20010904//EN"
 "http://www.w3.org/TR/2001/REC-SVG-20010904/DTD/svg10.dtd">
<svg version="1.0" xmlns="http://www.w3.org/2000/svg"
 width="48.000000pt" height="48.000000pt" viewBox="0 0 48.000000 48.000000"
 preserveAspectRatio="xMidYMid meet">
<metadata>
Created by potrace 1.16, written by Peter Selinger 2001-2019
</metadata>
<g transform="translate(0.000000,48.000000) scale(0.100000,-0.100000)"
fill="currentColor" stroke="currentColor" stroke-width="6" stroke-linejoin="round">
<path d="M60 420 c-14 -26 -5 -57 21 -71 43 -23 92 44 57 79 -20 20 -66 15
-78 -8z M153 328 c-6 -7 -15 -26 -20 -43 -5 -16 -18 -32 -28 -34 -12 -2 -16 2
-13 10 20 52 20 59 -2 59 -19 0 -41 -18 -77 -64 -27 -33 -15 -36 132 -36 122
0 145 2 145 15 0 8 -7 15 -15 15 -18 0 -18 2 -1 45 8 18 12 36 8 39 -11 12
-120 6 -129 -6z m67 -43 c0 -8 -7 -15 -15 -15 -8 0 -15 7 -15 15 0 8 7 15 15
15 8 0 15 -7 15 -15z M342 228 c-15 -15 -15 -51 0 -66 7 -7 25 -12 40 -12 36
0 56 36 39 69 -13 23 -59 29 -79 9z M198 134 c-4 -3 0 -21 8 -39 17 -43 17
-45 -1 -45 -8 0 -15 -7 -15 -15 0 -13 22 -15 138 -15 76 0 141 3 145 6 8 8
-32 73 -53 84 -26 14 -53 12 -47 -2 19 -51 19 -60 1 -56 -9 1 -22 17 -27 33
-5 17 -14 36 -20 43 -9 12 -118 18 -129 6z m90 -46 c-6 -18 -28 -21 -28 -4 0
9 7 16 16 16 9 0 14 -5 12 -12z"/>
</g>
</svg>

