<?xml version="1.0" standalone="no"?>
<!DOCTYPE svg PUBLIC "-//W3C//DTD SVG 20010904//EN"
 "http://www.w3.org/TR/2001/REC-SVG-20010904/DTD/svg10.dtd">
<svg version="1.0" xmlns="http://www.w3.org/2000/svg"
 width="48.000000pt" height="48.000000pt" viewBox="0 0 48.000000 48.000000"
 preserveAspectRatio="xMidYMid meet">
<metadata>
Created by potrace 1.16, written by Peter Selinger 2001-2019
</metadata>
<g transform="translate(0.000000,48.000000) scale(0.100000,-0.100000)"
fill="currentColor" stroke="currentColor" stroke-width="6" stroke-linejoin="round">
<path d="M0 438 c0 -21 5 -38 10 -38 6 0 10 -60 10 -160 0 -100 -4 -160 -10
-160 -5 0 -10 -18 -10 -40 l0 -40 40 0 c22 0 40 5 40 10 0 6 60 10 160 10 100
0 160 -4 160 -10 0 -5 18 -10 40 -10 l40 0 0 40 c0 22 -4 40 -10 40 -6 0 -10
60 -10 160 0 100 4 160 10 160 6 0 10 17 10 38 l0 37 -240 0 -240 0 0 -37z
m406 -32 c20 -21 20 -311 0 -332 -21 -20 -311 -20 -332 0 -19 20 -21 309 -1
331 18 21 312 21 333 1z M87 384 c-11 -11 -8 -52 5 -60 6 -4 16 0 23 9 20 27
25 20 25 -31 0 -53 5 -63 26 -55 9 3 14 22 14 56 0 46 1 49 14 31 18 -24 39
-7 34 27 -3 22 -8 24 -68 27 -36 2 -69 0 -73 -4z M255 380 c-13 -22 12 -31 76
-28 49 2 64 7 64 18 0 12 -15 16 -67 18 -41 2 -69 -1 -73 -8z M261 301 c-27
-17 1 -31 64 -31 63 0 91 14 64 31 -8 5 -36 9 -64 9 -27 0 -56 -4 -64 -9z M84
209 c-13 -22 23 -29 156 -29 133 0 169 7 156 29 -5 7 -58 11 -156 11 -98 0
-151 -4 -156 -11z M85 129 c-15 -23 16 -30 136 -27 102 3 124 6 124 18 0 12
-22 15 -127 18 -85 2 -129 -1 -133 -9z"/>
</g>
</svg>

