<?xml version="1.0" standalone="no"?>
<!DOCTYPE svg PUBLIC "-//W3C//DTD SVG 20010904//EN"
 "http://www.w3.org/TR/2001/REC-SVG-20010904/DTD/svg10.dtd">
<svg version="1.0" xmlns="http://www.w3.org/2000/svg"
 width="48.000000pt" height="48.000000pt" viewBox="0 0 48.000000 48.000000"
 preserveAspectRatio="xMidYMid meet">
<metadata>
Created by potrace 1.16, written by Peter Selinger 2001-2019
</metadata>
<g transform="translate(0.000000,48.000000) scale(0.100000,-0.100000)"
fill="currentColor" stroke="currentColor" stroke-width="6" stroke-linejoin="round">
<path d="M294 452 c-6 -4 -14 -17 -18 -29 -4 -11 -18 -24 -31 -27 -27 -7 -35
-42 -14 -63 8 -8 7 -16 -2 -30 -15 -25 -6 -53 18 -53 11 0 23 -12 30 -30 12
-32 33 -39 53 -15 10 12 15 12 35 -1 29 -19 55 -8 55 22 0 17 6 24 19 24 31 0
46 26 32 54 -10 19 -10 27 0 44 10 17 10 23 0 36 -8 9 -22 16 -32 16 -12 0
-19 7 -19 19 0 32 -26 46 -53 29 -19 -13 -25 -13 -42 -2 -11 7 -25 10 -31 6z
m103 -98 c15 -24 15 -29 2 -53 -27 -48 -109 -32 -109 22 0 56 76 77 107 31z
M77 279 c-9 -6 -17 -19 -17 -29 0 -13 -7 -20 -19 -20 -10 0 -24 -7 -32 -16
-10 -13 -10 -19 0 -36 10 -17 10 -25 0 -44 -14 -28 1 -54 32 -54 12 0 19 -7
19 -19 0 -10 7 -24 15 -31 12 -10 20 -9 39 3 21 14 25 14 40 -1 20 -20 49 -6
54 27 2 12 11 21 21 21 10 0 24 7 31 15 10 12 9 19 -3 38 -10 16 -12 28 -5 40
15 27 5 51 -22 57 -16 4 -26 14 -28 29 -5 30 -28 37 -52 16 -18 -17 -21 -17
-38 -2 -12 11 -22 13 -35 6z m95 -86 c39 -35 7 -98 -48 -91 -18 2 -34 13 -43
29 -13 24 -13 29 2 53 20 30 61 35 89 9z"/>
</g>
</svg>

