<?xml version="1.0" standalone="no"?>
<!DOCTYPE svg PUBLIC "-//W3C//DTD SVG 20010904//EN"
 "http://www.w3.org/TR/2001/REC-SVG-20010904/DTD/svg10.dtd">
<svg version="1.0" xmlns="http://www.w3.org/2000/svg"
 width="48.000000pt" height="48.000000pt" viewBox="0 0 48.000000 48.000000"
 preserveAspectRatio="xMidYMid meet">
<metadata>
Created by potrace 1.16, written by Peter Selinger 2001-2019
</metadata>
<g transform="translate(0.000000,48.000000) scale(0.100000,-0.100000)"
fill="currentColor" stroke="currentColor" stroke-width="6" stroke-linejoin="round">
<path d="M208 463 c-8 -10 -18 -26 -22 -36 -5 -16 -13 -18 -54 -12 -62 8 -76
-6 -67 -68 7 -42 5 -46 -21 -58 -56 -28 -57 -69 -3 -96 21 -11 24 -19 24 -70
l0 -58 59 0 c55 0 60 -2 68 -27 17 -51 79 -49 97 4 10 28 13 30 43 23 83 -19
102 0 83 83 -7 30 -5 33 23 43 54 19 55 79 1 98 -30 10 -31 12 -24 59 8 63 -6
76 -69 67 -44 -7 -46 -6 -56 21 -18 47 -55 58 -82 27z m68 -138 c49 -20 70
-71 49 -120 -32 -78 -138 -78 -170 0 -14 31 -14 39 -1 70 10 23 27 41 48 50
41 18 33 18 74 0z"/>
</g>
</svg>

