<?xml version="1.0" standalone="no"?>
<!DOCTYPE svg PUBLIC "-//W3C//DTD SVG 20010904//EN"
 "http://www.w3.org/TR/2001/REC-SVG-20010904/DTD/svg10.dtd">
<svg version="1.0" xmlns="http://www.w3.org/2000/svg"
 width="48.000000pt" height="48.000000pt" viewBox="0 0 48.000000 48.000000"
 preserveAspectRatio="xMidYMid meet">
<metadata>
Created by potrace 1.16, written by Peter Selinger 2001-2019
</metadata>
<g transform="translate(0.000000,48.000000) scale(0.100000,-0.100000)"
fill="currentColor" stroke="currentColor" stroke-width="6" stroke-linejoin="round">
<path d="M160 467 c-49 -16 -133 -102 -148 -153 -28 -94 -8 -169 63 -239 101
-102 229 -102 330 0 102 101 102 229 0 330 -70 71 -152 91 -245 62z m97 -75
c6 -4 17 -20 23 -36 9 -24 15 -27 38 -23 51 10 84 -33 47 -63 -8 -7 -15 -20
-15 -30 0 -10 7 -23 15 -30 37 -31 5 -76 -45 -65 -27 6 -32 4 -41 -23 -6 -17
-17 -33 -25 -36 -23 -9 -52 11 -56 36 -3 19 -8 23 -37 20 -54 -4 -82 38 -46
68 8 7 15 20 15 30 0 10 -7 23 -15 30 -37 30 -4 73 47 63 23 -4 29 -1 38 23
10 26 26 44 40 44 3 0 10 -4 17 -8z M200 280 c-11 -11 -20 -29 -20 -40 0 -26
34 -60 60 -60 26 0 60 34 60 60 0 11 -9 29 -20 40 -11 11 -29 20 -40 20 -11 0
-29 -9 -40 -20z m65 -40 c0 -18 -6 -26 -23 -28 -13 -2 -25 3 -28 12 -10 26 4
48 28 44 17 -2 23 -10 23 -28z"/>
</g>
</svg>

