<?xml version="1.0" standalone="no"?>
<!DOCTYPE svg PUBLIC "-//W3C//DTD SVG 20010904//EN"
 "http://www.w3.org/TR/2001/REC-SVG-20010904/DTD/svg10.dtd">
<svg version="1.0" xmlns="http://www.w3.org/2000/svg"
 width="48.000000pt" height="48.000000pt" viewBox="0 0 48.000000 48.000000"
 preserveAspectRatio="xMidYMid meet">
<metadata>
Created by potrace 1.16, written by Peter Selinger 2001-2019
</metadata>
<g transform="translate(0.000000,48.000000) scale(0.100000,-0.100000)"
fill="currentColor" stroke="currentColor" stroke-width="6" stroke-linejoin="round">
<path d="M172 448 c-7 -7 -12 -20 -12 -30 0 -14 -8 -18 -39 -18 -55 0 -87 -30
-82 -77 2 -21 39 -15 46 7 6 19 15 20 155 20 140 0 149 -1 155 -20 7 -22 44
-28 46 -7 5 47 -27 77 -81 77 -34 0 -38 3 -43 30 -6 25 -11 30 -36 30 -16 0
-31 -6 -34 -12 -4 -10 -7 -10 -18 0 -17 15 -41 16 -57 0z M112 308 c-7 -7 -12
-20 -12 -30 0 -11 -14 -23 -35 -33 -82 -34 -85 -168 -5 -210 42 -22 318 -22
360 0 80 42 77 176 -5 210 -21 10 -35 22 -35 33 0 36 -20 42 -140 42 -77 0
-120 -4 -128 -12z"/>
</g>
</svg>

