<?xml version="1.0" standalone="no"?>
<!DOCTYPE svg PUBLIC "-//W3C//DTD SVG 20010904//EN"
 "http://www.w3.org/TR/2001/REC-SVG-20010904/DTD/svg10.dtd">
<svg version="1.0" xmlns="http://www.w3.org/2000/svg"
 width="48.000000pt" height="48.000000pt" viewBox="0 0 48.000000 48.000000"
 preserveAspectRatio="xMidYMid meet">
<metadata>
Created by potrace 1.16, written by Peter Selinger 2001-2019
</metadata>
<g transform="translate(0.000000,48.000000) scale(0.100000,-0.100000)"
fill="currentColor" stroke="currentColor" stroke-width="6" stroke-linejoin="round">
<path d="M170 415 c-7 -8 -10 -25 -6 -38 5 -21 1 -25 -32 -35 -43 -13 -122
-76 -122 -98 0 -27 30 -27 58 -1 91 87 253 87 344 0 28 -26 58 -26 58 1 0 21
-79 85 -121 97 -32 10 -37 15 -35 41 1 39 -25 58 -55 40 -15 -10 -24 -11 -32
-3 -16 16 -42 14 -57 -4z M157 266 c-60 -22 -104 -62 -132 -120 -46 -95 -55
-91 215 -91 l235 0 -2 33 c-2 50 -51 122 -105 155 -57 35 -151 46 -211 23z"/>
</g>
</svg>

