<?xml version="1.0" standalone="no"?>
<!DOCTYPE svg PUBLIC "-//W3C//DTD SVG 20010904//EN"
 "http://www.w3.org/TR/2001/REC-SVG-20010904/DTD/svg10.dtd">
<svg version="1.0" xmlns="http://www.w3.org/2000/svg"
 width="48.000000pt" height="48.000000pt" viewBox="0 0 48.000000 48.000000"
 preserveAspectRatio="xMidYMid meet">
<metadata>
Created by potrace 1.16, written by Peter Selinger 2001-2019
</metadata>
<g transform="translate(0.000000,48.000000) scale(0.100000,-0.100000)"
fill="currentColor" stroke="currentColor" stroke-width="6" stroke-linejoin="round">
<path d="M132 468 c-7 -7 -12 -44 -12 -95 0 -76 2 -83 20 -83 18 0 20 7 20 75
l0 75 118 0 c164 0 162 2 162 -188 l0 -142 -74 0 c-70 0 -86 -7 -86 -36 0 -10
177 -3 188 8 8 8 12 60 12 168 l0 156 -38 37 -38 37 -130 0 c-88 0 -134 -4
-142 -12z M63 240 c-85 -51 -81 -179 6 -225 116 -60 239 71 171 182 -37 61
-116 81 -177 43z m79 -72 c2 -15 11 -24 26 -26 12 -2 22 -7 22 -12 0 -5 -10
-10 -22 -12 -15 -2 -24 -11 -26 -25 -4 -30 -20 -30 -24 -1 -2 15 -11 24 -25
26 -13 2 -23 7 -23 12 0 5 10 10 23 12 14 2 23 11 25 26 2 12 7 22 12 22 5 0
10 -10 12 -22z"/>
</g>
</svg>

