<?xml version="1.0" standalone="no"?>
<!DOCTYPE svg PUBLIC "-//W3C//DTD SVG 20010904//EN"
 "http://www.w3.org/TR/2001/REC-SVG-20010904/DTD/svg10.dtd">
<svg version="1.0" xmlns="http://www.w3.org/2000/svg"
 width="48.000000pt" height="48.000000pt" viewBox="0 0 48.000000 48.000000"
 preserveAspectRatio="xMidYMid meet">
<metadata>
Created by potrace 1.16, written by Peter Selinger 2001-2019
</metadata>
<g transform="translate(0.000000,48.000000) scale(0.100000,-0.100000)"
fill="currentColor" stroke="currentColor" stroke-width="6" stroke-linejoin="round">
<path d="M112 468 c-7 -7 -12 -20 -12 -30 0 -11 -7 -18 -18 -18 -38 0 -42 -18
-42 -210 0 -131 4 -190 12 -198 8 -8 58 -12 158 -12 151 0 170 5 170 42 0 11
7 18 18 18 37 0 42 19 42 175 l0 151 -48 47 -48 47 -110 0 c-72 0 -114 -4
-122 -12z m255 -60 l33 -32 0 -138 0 -138 -130 0 -130 0 0 170 0 170 97 0 c96
0 98 0 130 -32z m-267 -176 c0 -102 4 -152 12 -160 8 -8 49 -12 120 -12 65 0
108 -4 108 -10 0 -6 -50 -10 -130 -10 l-130 0 0 170 c0 107 4 170 10 170 6 0
10 -56 10 -148z"/>
</g>
</svg>

