<?xml version="1.0" standalone="no"?>
<!DOCTYPE svg PUBLIC "-//W3C//DTD SVG 20010904//EN"
 "http://www.w3.org/TR/2001/REC-SVG-20010904/DTD/svg10.dtd">
<svg version="1.0" xmlns="http://www.w3.org/2000/svg"
 width="48.000000pt" height="48.000000pt" viewBox="0 0 48.000000 48.000000"
 preserveAspectRatio="xMidYMid meet">
<metadata>
Created by potrace 1.16, written by Peter Selinger 2001-2019
</metadata>
<g transform="translate(0.000000,48.000000) scale(0.100000,-0.100000)"
fill="currentColor" stroke="currentColor" stroke-width="6" stroke-linejoin="round">
<path d="M112 458 c-7 -7 -12 -27 -12 -45 l0 -33 129 0 c167 0 174 -5 181
-116 5 -81 16 -97 44 -69 13 13 16 39 16 134 0 78 -4 121 -12 129 -17 17 -329
17 -346 0z M26 334 c-13 -12 -16 -39 -16 -123 0 -129 3 -133 96 -139 64 -4 82
-15 44 -25 -11 -3 -20 -13 -20 -22 0 -13 10 -15 68 -13 68 3 83 15 43 33 -36
17 -24 25 37 25 36 0 66 6 80 16 20 14 22 23 22 124 0 85 -3 112 -16 124 -23
23 -315 23 -338 0z m314 -99 l0 -75 -145 0 -145 0 0 75 0 75 145 0 145 0 0
-75z"/>
</g>
</svg>

