<?xml version="1.0" standalone="no"?>
<!DOCTYPE svg PUBLIC "-//W3C//DTD SVG 20010904//EN"
 "http://www.w3.org/TR/2001/REC-SVG-20010904/DTD/svg10.dtd">
<svg version="1.0" xmlns="http://www.w3.org/2000/svg"
 width="48.000000pt" height="48.000000pt" viewBox="0 0 48.000000 48.000000"
 preserveAspectRatio="xMidYMid meet">
<metadata>
Created by potrace 1.16, written by Peter Selinger 2001-2019
</metadata>
<g transform="translate(0.000000,48.000000) scale(0.100000,-0.100000)"
fill="currentColor" stroke="currentColor" stroke-width="6" stroke-linejoin="round">
<path d="M362 448 c-49 -83 -142 -256 -142 -266 0 -6 13 -18 29 -27 33 -17 27
-25 125 157 43 80 66 112 66 92 0 -4 -18 -40 -40 -80 -45 -82 -48 -94 -22 -94
24 0 106 152 97 180 -6 18 -70 70 -87 70 -3 0 -15 -15 -26 -32z M200 120 c0
-45 5 -48 40 -20 l25 20 -25 20 c-35 28 -40 25 -40 -20z M37 59 c-20 -17 -37
-35 -37 -40 0 -21 32 -20 55 1 24 23 25 23 45 5 18 -16 21 -16 43 -2 17 11 27
13 35 5 6 -6 15 -7 21 -4 19 12 12 35 -14 52 -23 15 -27 15 -43 1 -15 -13 -20
-14 -36 -1 -26 19 -26 19 -69 -17z"/>
</g>
</svg>

