<?xml version="1.0" standalone="no"?>
<!DOCTYPE svg PUBLIC "-//W3C//DTD SVG 20010904//EN"
 "http://www.w3.org/TR/2001/REC-SVG-20010904/DTD/svg10.dtd">
<svg version="1.0" xmlns="http://www.w3.org/2000/svg"
 width="48.000000pt" height="48.000000pt" viewBox="0 0 48.000000 48.000000"
 preserveAspectRatio="xMidYMid meet">
<metadata>
Created by potrace 1.16, written by Peter Selinger 2001-2019
</metadata>
<g transform="translate(0.000000,48.000000) scale(0.100000,-0.100000)"
fill="currentColor" stroke="currentColor" stroke-width="6" stroke-linejoin="round">
<path d="M138 460 c-7 -11 -18 -20 -25 -20 -8 0 -13 -13 -13 -30 l0 -30 70 0
70 0 0 30 c0 17 -4 30 -10 30 -5 0 -19 9 -30 20 -11 11 -27 20 -35 20 -8 0
-20 -9 -27 -20z M4 417 c-2 -7 -3 -96 -2 -197 l3 -185 85 0 c78 0 85 2 85 20
0 17 -8 21 -60 25 l-60 5 -3 139 c-2 86 1 143 8 150 5 5 10 20 10 33 0 19 -5
23 -30 23 -17 0 -33 -6 -36 -13z M270 406 c0 -14 5 -28 10 -31 6 -3 10 -20 10
-36 0 -26 3 -30 23 -27 18 2 23 10 25 46 4 50 -10 72 -44 72 -19 0 -24 -5 -24
-24z M222 268 c-17 -17 -17 -239 0 -256 16 -16 220 -16 236 0 8 8 12 48 12
113 0 98 -1 102 -28 128 -26 25 -34 27 -118 27 -57 0 -94 -4 -102 -12z m192
-41 c14 -10 16 -26 14 -97 l-3 -85 -85 0 -85 0 -3 84 c-2 46 -1 90 2 98 7 17
135 18 160 0z M293 188 c5 -17 59 -17 65 0 2 8 -8 12 -33 12 -25 0 -35 -4 -32
-12z M295 130 c-12 -19 10 -32 51 -28 27 2 39 8 39 18 0 19 -79 27 -90 10z"/>
</g>
</svg>

