<?xml version="1.0" standalone="no"?>
<!DOCTYPE svg PUBLIC "-//W3C//DTD SVG 20010904//EN"
 "http://www.w3.org/TR/2001/REC-SVG-20010904/DTD/svg10.dtd">
<svg version="1.0" xmlns="http://www.w3.org/2000/svg"
 width="48.000000pt" height="48.000000pt" viewBox="0 0 48.000000 48.000000"
 preserveAspectRatio="xMidYMid meet">
<metadata>
Created by potrace 1.16, written by Peter Selinger 2001-2019
</metadata>
<g transform="translate(0.000000,48.000000) scale(0.100000,-0.100000)"
fill="currentColor" stroke="currentColor" stroke-width="6" stroke-linejoin="round">
<path d="M15 444 c-34 -34 -14 -39 165 -39 179 0 199 5 165 39 -24 24 -306 24
-330 0z M7 374 c-4 -4 -7 -38 -7 -75 0 -98 2 -99 171 -99 l139 0 0 24 c0 14
12 38 26 55 18 22 24 40 22 63 l-3 33 -171 3 c-93 1 -173 -1 -177 -4z m133
-104 c0 -5 -18 -10 -40 -10 -22 0 -40 5 -40 10 0 6 18 10 40 10 22 0 40 -4 40
-10z M403 303 c-4 -10 -17 -28 -30 -40 -41 -39 -23 -87 45 -122 32 -17 28 -41
-7 -41 -60 0 -86 -33 -36 -46 14 -3 25 -12 25 -20 0 -23 30 -16 39 9 5 13 16
29 25 36 34 28 17 75 -36 102 -51 26 -48 52 6 59 43 6 60 28 27 37 -11 3 -23
14 -26 24 -8 24 -24 25 -32 2z"/>
</g>
</svg>

