<?xml version="1.0" standalone="no"?>
<!DOCTYPE svg PUBLIC "-//W3C//DTD SVG 20010904//EN"
 "http://www.w3.org/TR/2001/REC-SVG-20010904/DTD/svg10.dtd">
<svg version="1.0" xmlns="http://www.w3.org/2000/svg"
 width="48.000000pt" height="48.000000pt" viewBox="0 0 48.000000 48.000000"
 preserveAspectRatio="xMidYMid meet">
<metadata>
Created by potrace 1.16, written by Peter Selinger 2001-2019
</metadata>
<g transform="translate(0.000000,48.000000) scale(0.100000,-0.100000)"
fill="currentColor" stroke="currentColor" stroke-width="6" stroke-linejoin="round">
<path d="M12 398 c-17 -17 -17 -299 0 -316 17 -17 439 -17 456 0 17 17 17 299
0 316 -17 17 -439 17 -456 0z m158 -110 c0 -7 -9 -32 -20 -55 -13 -30 -25 -43
-40 -43 -14 0 -20 6 -20 23 0 13 -7 32 -15 43 -20 27 -19 34 10 34 18 0 25 -5
25 -20 0 -28 14 -25 28 5 12 26 32 34 32 13z m138 -5 c2 -7 -3 -13 -12 -13
-20 0 -20 -9 -1 -30 27 -30 -5 -68 -46 -55 -25 8 -24 25 1 25 24 0 26 13 5 30
-19 16 -19 25 1 45 18 18 45 17 52 -2z m-92 -39 c-7 -53 -13 -67 -28 -58 -6 4
-8 23 -4 47 8 46 13 57 28 57 7 0 9 -16 4 -46z m196 0 c4 -50 -5 -63 -28 -43
-12 10 -17 8 -29 -7 -25 -34 -29 9 -5 55 29 58 57 56 62 -5z"/>
</g>
</svg>

