<?xml version="1.0" standalone="no"?>
<!DOCTYPE svg PUBLIC "-//W3C//DTD SVG 20010904//EN"
 "http://www.w3.org/TR/2001/REC-SVG-20010904/DTD/svg10.dtd">
<svg version="1.0" xmlns="http://www.w3.org/2000/svg"
 width="48.000000pt" height="48.000000pt" viewBox="0 0 48.000000 48.000000"
 preserveAspectRatio="xMidYMid meet">
<metadata>
Created by potrace 1.16, written by Peter Selinger 2001-2019
</metadata>
<g transform="translate(0.000000,48.000000) scale(0.100000,-0.100000)"
fill="currentColor" stroke="currentColor" stroke-width="6" stroke-linejoin="round">
<path d="M20 460 c-18 -18 -20 -33 -20 -150 0 -165 5 -172 113 -168 56 2 72 6
72 18 0 11 -17 16 -70 20 l-70 5 -3 73 -3 72 181 0 180 0 0 -25 c0 -18 5 -25
20 -25 18 0 20 7 20 80 0 121 3 120 -220 120 -167 0 -181 -1 -200 -20z m378
-47 l3 -23 -180 0 c-169 0 -181 1 -181 18 0 10 3 22 7 26 4 3 84 5 177 4 169
-3 171 -3 174 -25z M85 250 c-12 -19 10 -32 51 -28 27 2 39 8 39 18 0 19 -79
27 -90 10z M283 240 c-85 -51 -81 -179 6 -225 116 -60 239 71 171 182 -37 61
-116 81 -177 43z m81 -25 c3 -8 12 -15 21 -15 29 0 15 -19 -17 -22 -43 -4 -45
-21 -6 -39 44 -19 49 -52 12 -86 -24 -22 -28 -23 -36 -9 -5 9 -16 16 -23 16
-29 0 -14 19 17 22 43 4 45 21 6 39 -42 18 -48 52 -16 84 28 28 34 29 42 10z"/>
</g>
</svg>

