<?xml version="1.0" standalone="no"?>
<!DOCTYPE svg PUBLIC "-//W3C//DTD SVG 20010904//EN"
 "http://www.w3.org/TR/2001/REC-SVG-20010904/DTD/svg10.dtd">
<svg version="1.0" xmlns="http://www.w3.org/2000/svg"
 width="48.000000pt" height="48.000000pt" viewBox="0 0 48.000000 48.000000"
 preserveAspectRatio="xMidYMid meet">
<metadata>
Created by potrace 1.16, written by Peter Selinger 2001-2019
</metadata>
<g transform="translate(0.000000,48.000000) scale(0.100000,-0.100000)"
fill="currentColor" stroke="currentColor" stroke-width="6" stroke-linejoin="round">
<path d="M10 466 c0 -8 5 -18 10 -21 6 -3 10 -35 10 -71 0 -65 22 -130 40
-119 4 3 11 23 15 45 7 44 23 50 50 20 22 -24 55 -26 55 -3 0 9 -11 31 -25 49
-14 18 -25 46 -25 61 0 41 -17 53 -77 53 -39 0 -53 -4 -53 -14z M208 383 c-24
-6 -23 -20 2 -35 11 -7 20 -18 20 -25 0 -7 5 -13 10 -13 6 0 10 7 10 15 0 8 7
15 15 15 8 0 15 -6 15 -14 0 -7 7 -19 15 -26 9 -7 15 -25 14 -39 -3 -45 1 -61
15 -61 7 0 19 -7 26 -15 36 -44 49 85 14 132 -40 53 -105 81 -156 66z M103
294 c-14 -35 -7 -104 14 -131 33 -46 69 -66 117 -67 55 -1 68 10 39 34 -13 10
-23 23 -23 29 0 6 -4 11 -10 11 -5 0 -10 -7 -10 -15 0 -8 -7 -15 -15 -15 -8 0
-15 7 -15 15 0 8 -4 15 -10 15 -5 0 -10 25 -10 55 0 45 -3 55 -17 55 -9 0 -25
7 -35 16 -16 16 -18 15 -25 -2z M210 271 c0 -16 20 -23 46 -17 36 9 29 26 -11
26 -19 0 -35 -4 -35 -9z M217 224 c-15 -16 -5 -24 29 -24 24 0 34 4 32 13 -5
13 -50 22 -61 11z M406 222 c-2 -4 -7 -24 -11 -45 -8 -41 -23 -47 -50 -17 -22
24 -55 26 -55 3 0 -9 11 -31 25 -49 14 -18 25 -46 25 -61 0 -41 17 -53 77 -53
39 0 53 4 53 14 0 8 -4 18 -10 21 -5 3 -10 35 -10 71 0 73 -27 144 -44 116z"/>
</g>
</svg>

