<?xml version="1.0" standalone="no"?>
<!DOCTYPE svg PUBLIC "-//W3C//DTD SVG 20010904//EN"
 "http://www.w3.org/TR/2001/REC-SVG-20010904/DTD/svg10.dtd">
<svg version="1.0" xmlns="http://www.w3.org/2000/svg"
 width="48.000000pt" height="48.000000pt" viewBox="0 0 48.000000 48.000000"
 preserveAspectRatio="xMidYMid meet">
<metadata>
Created by potrace 1.16, written by Peter Selinger 2001-2019
</metadata>
<g transform="translate(0.000000,48.000000) scale(0.100000,-0.100000)"
fill="currentColor" stroke="currentColor" stroke-width="6" stroke-linejoin="round">
<path d="M22 438 c-7 -7 -12 -21 -12 -33 0 -37 19 -45 115 -45 96 0 115 8 115
45 0 37 -19 45 -115 45 -57 0 -95 -4 -103 -12z M56 324 c-42 -41 -6 -74 82
-74 58 0 69 3 94 27 52 50 36 63 -82 63 -58 0 -83 -4 -94 -16z M319 290 c-44
-13 -68 -30 -85 -62 -46 -88 14 -190 111 -190 97 0 157 102 111 190 -24 46
-88 75 -137 62z m21 -40 c0 -5 6 -10 13 -10 28 -1 41 -20 43 -68 2 -58 0 -63
-45 -85 -32 -16 -35 -16 -47 1 -17 22 -18 126 -2 152 13 21 38 27 38 10z M320
195 c0 -9 9 -15 25 -15 16 0 25 6 25 15 0 9 -9 15 -25 15 -16 0 -25 -6 -25
-15z M320 135 c0 -9 9 -15 25 -15 16 0 25 6 25 15 0 9 -9 15 -25 15 -16 0 -25
-6 -25 -15z M16 214 c-20 -20 -20 -38 0 -59 13 -12 33 -15 93 -13 l76 3 3 43
3 42 -80 0 c-59 0 -84 -4 -95 -16z M46 104 c-9 -8 -16 -22 -16 -29 0 -34 30
-45 122 -45 49 0 88 3 86 8 -2 4 -14 24 -27 45 -23 36 -24 37 -86 37 -44 0
-68 -5 -79 -16z"/>
</g>
</svg>

