<?xml version="1.0" standalone="no"?>
<!DOCTYPE svg PUBLIC "-//W3C//DTD SVG 20010904//EN"
 "http://www.w3.org/TR/2001/REC-SVG-20010904/DTD/svg10.dtd">
<svg version="1.0" xmlns="http://www.w3.org/2000/svg"
 width="48.000000pt" height="48.000000pt" viewBox="0 0 48.000000 48.000000"
 preserveAspectRatio="xMidYMid meet">
<metadata>
Created by potrace 1.16, written by Peter Selinger 2001-2019
</metadata>
<g transform="translate(0.000000,48.000000) scale(0.100000,-0.100000)"
fill="currentColor" stroke="currentColor" stroke-width="6" stroke-linejoin="round">
<path d="M160 467 c-49 -16 -133 -102 -148 -153 -28 -94 -8 -169 63 -239 101
-102 229 -102 330 0 102 101 102 229 0 330 -70 71 -152 91 -245 62z m93 -97
c3 -11 14 -20 25 -20 25 0 44 -23 43 -52 -1 -13 -1 -49 -1 -80 0 -58 -16 -88
-45 -88 -8 0 -19 -8 -25 -18 -10 -16 -10 -16 -20 0 -6 10 -22 18 -35 18 l-25
0 0 110 0 110 26 0 c17 0 28 6 31 20 3 11 9 20 13 20 4 0 10 -9 13 -20z M194
317 c-9 -25 0 -62 16 -62 10 0 15 10 15 34 0 36 -21 54 -31 28z M250 290 c0
-25 4 -31 18 -28 11 2 17 12 17 28 0 16 -6 26 -17 28 -14 3 -18 -3 -18 -28z
M194 217 c-9 -25 0 -62 16 -62 10 0 15 10 15 34 0 36 -21 54 -31 28z M250 190
c0 -25 4 -31 18 -28 11 2 17 12 17 28 0 16 -6 26 -17 28 -14 3 -18 -3 -18 -28z"/>
</g>
</svg>

