<?xml version="1.0" standalone="no"?>
<!DOCTYPE svg PUBLIC "-//W3C//DTD SVG 20010904//EN"
 "http://www.w3.org/TR/2001/REC-SVG-20010904/DTD/svg10.dtd">
<svg version="1.0" xmlns="http://www.w3.org/2000/svg"
 width="48.000000pt" height="48.000000pt" viewBox="0 0 48.000000 48.000000"
 preserveAspectRatio="xMidYMid meet">
<metadata>
Created by potrace 1.16, written by Peter Selinger 2001-2019
</metadata>
<g transform="translate(0.000000,48.000000) scale(0.100000,-0.100000)"
fill="currentColor" stroke="currentColor" stroke-width="6" stroke-linejoin="round">
<path d="M213 461 c-4 -16 -15 -21 -52 -23 l-46 -3 0 -195 0 -195 46 -3 c37
-2 48 -7 52 -23 7 -25 27 -25 34 1 3 11 12 20 20 20 27 0 73 31 88 60 20 39
19 69 -5 108 -20 32 -20 32 0 65 24 38 25 68 5 107 -15 29 -61 60 -88 60 -8 0
-17 9 -20 20 -7 26 -27 26 -34 1z m-3 -131 l0 -70 -30 0 -30 0 0 70 0 70 30 0
30 0 0 -70z m97 48 c13 -12 23 -33 23 -47 0 -29 -36 -71 -62 -71 -16 0 -18 9
-18 70 0 78 13 89 57 48z m-97 -228 l0 -70 -30 0 -30 0 0 70 0 70 30 0 30 0 0
-70z m97 48 c13 -12 23 -33 23 -47 0 -29 -36 -71 -62 -71 -16 0 -18 9 -18 70
0 78 13 89 57 48z"/>
</g>
</svg>

