<?xml version="1.0" standalone="no"?>
<!DOCTYPE svg PUBLIC "-//W3C//DTD SVG 20010904//EN"
 "http://www.w3.org/TR/2001/REC-SVG-20010904/DTD/svg10.dtd">
<svg version="1.0" xmlns="http://www.w3.org/2000/svg"
 width="48.000000pt" height="48.000000pt" viewBox="0 0 48.000000 48.000000"
 preserveAspectRatio="xMidYMid meet">
<metadata>
Created by potrace 1.16, written by Peter Selinger 2001-2019
</metadata>
<g transform="translate(0.000000,48.000000) scale(0.100000,-0.100000)"
fill="currentColor" stroke="currentColor" stroke-width="6" stroke-linejoin="round">
<path d="M217 473 c-4 -3 -7 -17 -7 -29 0 -17 -7 -25 -25 -30 -63 -16 -87
-109 -41 -155 13 -13 52 -35 86 -48 64 -24 80 -42 63 -70 -7 -11 -30 -17 -79
-21 -66 -5 -69 -6 -69 -30 0 -21 5 -26 32 -28 26 -3 32 -8 35 -30 2 -21 8 -27
28 -27 20 0 26 6 28 27 2 18 12 30 33 38 40 17 59 47 59 91 0 48 -30 77 -110
108 -64 24 -80 42 -63 70 7 11 30 17 79 21 66 5 69 6 69 30 0 21 -5 26 -31 28
-26 3 -33 8 -38 33 -5 28 -32 40 -49 22z"/>
</g>
</svg>

