<?xml version="1.0" standalone="no"?>
<!DOCTYPE svg PUBLIC "-//W3C//DTD SVG 20010904//EN"
 "http://www.w3.org/TR/2001/REC-SVG-20010904/DTD/svg10.dtd">
<svg version="1.0" xmlns="http://www.w3.org/2000/svg"
 width="48.000000pt" height="48.000000pt" viewBox="0 0 48.000000 48.000000"
 preserveAspectRatio="xMidYMid meet">
<metadata>
Created by potrace 1.16, written by Peter Selinger 2001-2019
</metadata>
<g transform="translate(0.000000,48.000000) scale(0.100000,-0.100000)"
fill="currentColor" stroke="currentColor" stroke-width="6" stroke-linejoin="round">
<path d="M160 467 c-49 -16 -133 -102 -148 -153 -28 -94 -8 -169 63 -239 101
-102 229 -102 330 0 102 101 102 229 0 330 -70 71 -152 91 -245 62z m103 -76
c2 -11 15 -21 28 -23 16 -2 24 -10 24 -23 0 -17 -8 -21 -55 -25 -71 -7 -79
-29 -18 -55 61 -26 88 -53 88 -87 0 -27 -30 -68 -50 -68 -6 0 -15 -11 -20 -25
-12 -32 -28 -32 -40 0 -6 15 -17 25 -29 25 -11 0 -23 5 -26 10 -13 21 17 40
61 40 73 0 69 35 -7 60 -77 26 -93 90 -34 136 19 14 35 33 35 40 0 21 37 17
43 -5z"/>
</g>
</svg>

