<?xml version="1.0" standalone="no"?>
<!DOCTYPE svg PUBLIC "-//W3C//DTD SVG 20010904//EN"
 "http://www.w3.org/TR/2001/REC-SVG-20010904/DTD/svg10.dtd">
<svg version="1.0" xmlns="http://www.w3.org/2000/svg"
 width="48.000000pt" height="48.000000pt" viewBox="0 0 48.000000 48.000000"
 preserveAspectRatio="xMidYMid meet">
<metadata>
Created by potrace 1.16, written by Peter Selinger 2001-2019
</metadata>
<g transform="translate(0.000000,48.000000) scale(0.100000,-0.100000)"
fill="currentColor" stroke="currentColor" stroke-width="6" stroke-linejoin="round">
<path d="M168 439 c-43 -23 -75 -46 -72 -51 9 -14 82 -3 103 16 11 10 36 16
66 16 58 0 50 -17 -10 -22 -52 -4 -52 -22 0 -26 22 -2 44 -7 50 -12 24 -20 86
-22 130 -5 l45 17 0 55 0 55 -35 -22 -35 -22 -62 21 c-34 12 -71 21 -82 21
-12 0 -56 -19 -98 -41z M161 333 c-35 -36 -46 -70 -37 -119 8 -42 54 -74 107
-74 19 0 40 -5 47 -12 9 -9 18 -7 39 8 41 30 66 85 57 129 -6 32 -13 40 -51
56 -25 10 -59 19 -77 19 -18 0 -37 5 -43 11 -9 9 -19 4 -42 -18z m118 -32 c20
-13 4 -31 -27 -32 -27 -1 -27 -1 6 -15 56 -25 33 -93 -27 -77 -27 7 -22 25 10
34 l24 6 -26 11 c-34 13 -41 34 -23 61 16 22 40 27 63 12z M38 120 c-36 -19
-38 -23 -38 -70 l0 -49 35 20 35 21 62 -21 c34 -12 71 -21 81 -21 28 0 177 82
170 93 -8 14 -82 1 -102 -17 -11 -10 -36 -16 -66 -16 -58 0 -50 17 10 22 52 4
52 22 0 26 -22 2 -45 8 -51 13 -25 20 -98 20 -136 -1z"/>
</g>
</svg>

