<?xml version="1.0" standalone="no"?>
<!DOCTYPE svg PUBLIC "-//W3C//DTD SVG 20010904//EN"
 "http://www.w3.org/TR/2001/REC-SVG-20010904/DTD/svg10.dtd">
<svg version="1.0" xmlns="http://www.w3.org/2000/svg"
 width="48.000000pt" height="48.000000pt" viewBox="0 0 48.000000 48.000000"
 preserveAspectRatio="xMidYMid meet">
<metadata>
Created by potrace 1.16, written by Peter Selinger 2001-2019
</metadata>
<g transform="translate(0.000000,48.000000) scale(0.100000,-0.100000)"
fill="currentColor" stroke="currentColor" stroke-width="6" stroke-linejoin="round">
<path d="M53 399 c-29 -17 -53 -36 -53 -42 0 -15 101 -77 124 -77 9 0 16 8 16
20 0 19 7 20 101 20 102 0 139 9 139 35 0 26 -37 35 -139 35 -94 0 -101 1
-101 20 0 28 -26 25 -87 -11z M340 180 c0 -19 -7 -20 -101 -20 -102 0 -139 -9
-139 -35 0 -26 37 -35 139 -35 94 0 101 -1 101 -20 0 -12 7 -20 16 -20 24 0
124 59 124 73 0 15 -101 77 -124 77 -9 0 -16 -8 -16 -20z"/>
</g>
</svg>

