<?xml version="1.0" standalone="no"?>
<!DOCTYPE svg PUBLIC "-//W3C//DTD SVG 20010904//EN"
 "http://www.w3.org/TR/2001/REC-SVG-20010904/DTD/svg10.dtd">
<svg version="1.0" xmlns="http://www.w3.org/2000/svg"
 width="48.000000pt" height="48.000000pt" viewBox="0 0 48.000000 48.000000"
 preserveAspectRatio="xMidYMid meet">
<metadata>
Created by potrace 1.16, written by Peter Selinger 2001-2019
</metadata>
<g transform="translate(0.000000,48.000000) scale(0.100000,-0.100000)"
fill="currentColor" stroke="currentColor" stroke-width="6" stroke-linejoin="round">
<path d="M160 467 c-49 -16 -133 -102 -148 -153 -28 -94 -8 -169 63 -239 101
-102 229 -102 330 0 102 101 102 229 0 330 -70 71 -152 91 -245 62z m162 -63
l31 -16 -57 -56 -56 -57 -56 57 -57 56 29 16 c38 20 127 20 166 0z m-174 -220
l-56 -57 -16 31 c-9 17 -16 54 -16 82 0 28 7 65 16 82 l16 31 56 -57 57 -56
-57 -56z m270 100 c10 -47 4 -93 -17 -133 l-13 -24 -56 57 -57 56 55 55 c61
62 73 60 88 -11z m-119 -138 l54 -54 -31 -16 c-17 -9 -54 -16 -82 -16 -28 0
-65 7 -82 16 l-31 16 54 54 c29 30 56 54 59 54 3 0 30 -24 59 -54z"/>
</g>
</svg>

