<?xml version="1.0" standalone="no"?>
<!DOCTYPE svg PUBLIC "-//W3C//DTD SVG 20010904//EN"
 "http://www.w3.org/TR/2001/REC-SVG-20010904/DTD/svg10.dtd">
<svg version="1.0" xmlns="http://www.w3.org/2000/svg"
 width="48.000000pt" height="48.000000pt" viewBox="0 0 48.000000 48.000000"
 preserveAspectRatio="xMidYMid meet">
<metadata>
Created by potrace 1.16, written by Peter Selinger 2001-2019
</metadata>
<g transform="translate(0.000000,48.000000) scale(0.100000,-0.100000)"
fill="currentColor" stroke="currentColor" stroke-width="6" stroke-linejoin="round">
<path d="M160 467 c-49 -16 -133 -102 -148 -153 -28 -94 -8 -169 63 -239 101
-102 229 -102 330 0 102 101 102 229 0 330 -70 71 -152 91 -245 62z m42 -164
l38 -37 40 39 c31 30 43 36 52 27 9 -9 3 -21 -27 -52 l-39 -40 39 -40 c30 -31
36 -43 27 -52 -9 -9 -21 -3 -52 27 l-40 39 -40 -39 c-31 -30 -43 -36 -52 -27
-9 9 -3 21 27 52 l39 40 -38 39 c-21 22 -35 44 -32 50 11 17 17 14 58 -26z"/>
</g>
</svg>

