<?xml version="1.0" standalone="no"?>
<!DOCTYPE svg PUBLIC "-//W3C//DTD SVG 20010904//EN"
 "http://www.w3.org/TR/2001/REC-SVG-20010904/DTD/svg10.dtd">
<svg version="1.0" xmlns="http://www.w3.org/2000/svg"
 width="48.000000pt" height="48.000000pt" viewBox="0 0 48.000000 48.000000"
 preserveAspectRatio="xMidYMid meet">
<metadata>
Created by potrace 1.16, written by Peter Selinger 2001-2019
</metadata>
<g transform="translate(0.000000,48.000000) scale(0.100000,-0.100000)"
fill="currentColor" stroke="currentColor" stroke-width="6" stroke-linejoin="round">
<path d="M192 437 c-47 -48 -46 -50 16 -81 30 -15 34 -15 65 0 61 31 62 33 15
81 -23 23 -45 43 -48 43 -3 0 -25 -20 -48 -43z M35 371 c-7 -12 7 -42 30 -61
12 -10 19 -10 27 -2 9 9 7 19 -8 39 -23 31 -39 39 -49 24z M401 354 c-24 -31
-26 -40 -9 -50 13 -8 61 42 55 59 -7 21 -25 18 -46 -9z M130 260 l0 -100 40
-20 c23 -11 45 -18 50 -15 12 7 13 165 2 181 -4 6 -26 21 -49 33 l-43 21 0
-100z M305 338 c-22 -11 -43 -26 -47 -32 -11 -16 -10 -174 2 -181 5 -3 27 4
50 15 l40 20 0 100 c0 55 -1 100 -2 100 -2 -1 -21 -10 -43 -22z M5 250 c-12
-19 10 -32 46 -28 48 4 46 32 -3 36 -20 2 -39 -2 -43 -8z M395 250 c-12 -19
10 -32 46 -28 48 4 46 32 -3 36 -20 2 -39 -2 -43 -8z M51 154 c-24 -31 -26
-40 -9 -50 13 -8 61 42 55 59 -7 21 -25 18 -46 -9z M385 171 c-7 -12 7 -42 30
-61 12 -10 19 -10 27 -2 9 9 7 19 -8 39 -23 31 -39 39 -49 24z M148 93 c11
-16 37 -44 57 -63 l37 -35 54 59 c31 32 53 61 50 64 -4 3 -29 -5 -56 -18 l-51
-24 -45 22 c-59 29 -69 28 -46 -5z"/>
</g>
</svg>

