<?xml version="1.0" standalone="no"?>
<!DOCTYPE svg PUBLIC "-//W3C//DTD SVG 20010904//EN"
 "http://www.w3.org/TR/2001/REC-SVG-20010904/DTD/svg10.dtd">
<svg version="1.0" xmlns="http://www.w3.org/2000/svg"
 width="48.000000pt" height="48.000000pt" viewBox="0 0 48.000000 48.000000"
 preserveAspectRatio="xMidYMid meet">
<metadata>
Created by potrace 1.16, written by Peter Selinger 2001-2019
</metadata>
<g transform="translate(0.000000,48.000000) scale(0.100000,-0.100000)"
fill="currentColor" stroke="currentColor" stroke-width="6" stroke-linejoin="round">
<path d="M169 451 c-20 -20 -29 -39 -29 -61 0 -43 47 -90 90 -90 43 0 90 47
90 90 0 43 -47 90 -90 90 -22 0 -41 -9 -61 -29z m54 -24 c-12 -5 -25 -18 -30
-30 -7 -14 -12 -17 -17 -9 -9 16 40 65 56 56 8 -5 5 -10 -9 -17z M395 461 c-3
-11 -15 -23 -26 -26 -26 -9 -24 -18 12 -54 36 -36 45 -38 54 -11 3 11 9 20 13
20 4 0 13 4 21 9 11 7 6 17 -22 45 -42 42 -44 42 -52 17z M27 379 l-28 -29 29
-29 29 -29 27 29 28 29 -28 29 -29 29 -28 -29z M102 307 c-28 -30 -52 -89 -52
-130 0 -18 10 -53 22 -77 67 -132 249 -132 316 0 12 24 22 60 22 80 0 42 -29
108 -59 134 -22 20 -22 20 -43 -2 l-22 -22 29 -30 c25 -26 30 -40 30 -80 0
-43 -5 -54 -33 -82 -28 -28 -39 -33 -82 -33 -43 0 -54 5 -82 33 -28 28 -33 39
-33 82 0 40 5 54 29 79 29 30 29 31 11 51 -23 25 -27 25 -53 -3z"/>
</g>
</svg>

