<?xml version="1.0" standalone="no"?>
<!DOCTYPE svg PUBLIC "-//W3C//DTD SVG 20010904//EN"
 "http://www.w3.org/TR/2001/REC-SVG-20010904/DTD/svg10.dtd">
<svg version="1.0" xmlns="http://www.w3.org/2000/svg"
 width="48.000000pt" height="48.000000pt" viewBox="0 0 48.000000 48.000000"
 preserveAspectRatio="xMidYMid meet">
<metadata>
Created by potrace 1.16, written by Peter Selinger 2001-2019
</metadata>
<g transform="translate(0.000000,48.000000) scale(0.100000,-0.100000)"
fill="currentColor" stroke="currentColor" stroke-width="6" stroke-linejoin="round">
<path d="M114 453 c3 -10 10 -38 16 -63 l12 -45 29 55 c15 30 28 58 29 63 0 4
-21 7 -46 7 -38 0 -45 -3 -40 -17z M280 466 c0 -7 52 -116 55 -116 4 0 35 103
35 114 0 3 -20 6 -45 6 -25 0 -45 -2 -45 -4z M207 405 c-15 -31 -27 -60 -27
-65 0 -6 27 -10 60 -10 33 0 60 4 60 10 0 14 -53 120 -60 120 -3 0 -18 -25
-33 -55z M42 385 c-17 -24 -32 -47 -32 -50 0 -3 23 -5 50 -5 31 0 50 4 50 11
0 20 -23 89 -29 89 -3 -1 -21 -21 -39 -45z M381 393 c-17 -61 -16 -63 39 -63
28 0 50 2 50 5 0 10 -65 94 -72 95 -4 0 -12 -17 -17 -37z M17 286 c21 -35 168
-234 171 -231 2 2 -11 58 -29 124 l-33 121 -59 0 c-46 0 -56 -3 -50 -14z M160
294 c0 -18 75 -274 80 -274 6 0 80 253 80 273 0 4 -36 7 -80 7 -44 0 -80 -3
-80 -6z M321 179 c-18 -66 -31 -123 -28 -125 2 -2 20 19 39 48 20 29 59 86 88
126 l51 72 -58 0 -59 0 -33 -121z"/>
</g>
</svg>

