<?xml version="1.0" standalone="no"?>
<!DOCTYPE svg PUBLIC "-//W3C//DTD SVG 20010904//EN"
 "http://www.w3.org/TR/2001/REC-SVG-20010904/DTD/svg10.dtd">
<svg version="1.0" xmlns="http://www.w3.org/2000/svg"
 width="48.000000pt" height="48.000000pt" viewBox="0 0 48.000000 48.000000"
 preserveAspectRatio="xMidYMid meet">
<metadata>
Created by potrace 1.16, written by Peter Selinger 2001-2019
</metadata>
<g transform="translate(0.000000,48.000000) scale(0.100000,-0.100000)"
fill="currentColor" stroke="currentColor" stroke-width="6" stroke-linejoin="round">
<path d="M160 467 c-49 -16 -133 -102 -148 -153 -28 -94 -8 -169 63 -239 101
-102 229 -102 330 0 102 101 102 229 0 330 -70 71 -152 91 -245 62z m143 -81
c103 -43 128 -177 48 -257 -112 -113 -296 -12 -267 146 18 94 128 150 219 111z
M215 320 c-12 -23 -22 -30 -45 -30 -35 0 -38 -10 -10 -35 22 -20 25 -46 10
-75 -15 -28 5 -34 40 -13 29 17 31 17 60 0 35 -21 55 -15 40 13 -15 29 -12 55
10 75 29 26 25 35 -14 35 -29 0 -36 5 -45 30 -5 17 -15 30 -20 30 -6 0 -17
-13 -26 -30z"/>
</g>
</svg>

