<?xml version="1.0" standalone="no"?>
<!DOCTYPE svg PUBLIC "-//W3C//DTD SVG 20010904//EN"
 "http://www.w3.org/TR/2001/REC-SVG-20010904/DTD/svg10.dtd">
<svg version="1.0" xmlns="http://www.w3.org/2000/svg"
 width="48.000000pt" height="48.000000pt" viewBox="0 0 48.000000 48.000000"
 preserveAspectRatio="xMidYMid meet">
<metadata>
Created by potrace 1.16, written by Peter Selinger 2001-2019
</metadata>
<g transform="translate(0.000000,48.000000) scale(0.100000,-0.100000)"
fill="currentColor" stroke="currentColor" stroke-width="6" stroke-linejoin="round">
<path d="M245 431 c-9 -30 5 -51 35 -51 30 0 44 21 35 51 -4 13 -16 19 -35 19
-19 0 -31 -6 -35 -19z M96 416 c-3 -14 -19 -32 -35 -41 -16 -8 -32 -23 -34
-32 -4 -15 -3 -115 2 -145 2 -13 46 -9 59 4 17 17 15 34 -7 55 -38 37 -36 61
9 103 25 23 40 46 38 56 -5 28 -25 27 -32 0z M360 412 c0 -29 20 -54 53 -65
25 -9 21 -51 -8 -83 -28 -30 -31 -44 -13 -62 13 -13 57 -17 59 -4 0 4 2 40 4
80 4 73 4 73 -28 92 -18 11 -34 30 -37 42 -9 34 -30 34 -30 0z M165 321 c-9
-30 5 -51 35 -51 30 0 44 21 35 51 -4 13 -16 19 -35 19 -19 0 -31 -6 -35 -19z
M95 181 c-15 -47 30 -70 57 -28 20 30 12 47 -22 47 -19 0 -31 -6 -35 -19z
M317 188 c-6 -19 23 -58 43 -58 21 0 33 25 25 51 -7 22 -61 27 -68 7z M181
154 c-27 -34 -27 -64 0 -98 29 -37 89 -37 118 0 27 34 27 64 0 98 -29 37 -89
37 -118 0z m79 -49 c0 -8 -9 -15 -20 -15 -11 0 -20 7 -20 15 0 8 9 15 20 15
11 0 20 -7 20 -15z"/>
</g>
</svg>

