<?xml version="1.0" standalone="no"?>
<!DOCTYPE svg PUBLIC "-//W3C//DTD SVG 20010904//EN"
 "http://www.w3.org/TR/2001/REC-SVG-20010904/DTD/svg10.dtd">
<svg version="1.0" xmlns="http://www.w3.org/2000/svg"
 width="48.000000pt" height="48.000000pt" viewBox="0 0 48.000000 48.000000"
 preserveAspectRatio="xMidYMid meet">
<metadata>
Created by potrace 1.16, written by Peter Selinger 2001-2019
</metadata>
<g transform="translate(0.000000,48.000000) scale(0.100000,-0.100000)"
fill="currentColor" stroke="currentColor" stroke-width="6" stroke-linejoin="round">
<path d="M50 467 c-46 -23 -51 -48 -48 -239 4 -239 -13 -223 238 -223 253 0
235 -18 235 235 0 251 16 234 -223 238 -129 2 -184 -1 -202 -11z m160 -70 c0
-6 -4 -28 -10 -47 -13 -46 2 -92 43 -126 29 -25 36 -26 99 -20 79 7 85 -2 41
-55 -50 -59 -132 -75 -203 -39 -98 50 -122 185 -46 265 33 34 76 47 76 22z"/>
</g>
</svg>

