<?xml version="1.0" standalone="no"?>
<!DOCTYPE svg PUBLIC "-//W3C//DTD SVG 20010904//EN"
 "http://www.w3.org/TR/2001/REC-SVG-20010904/DTD/svg10.dtd">
<svg version="1.0" xmlns="http://www.w3.org/2000/svg"
 width="48.000000pt" height="48.000000pt" viewBox="0 0 48.000000 48.000000"
 preserveAspectRatio="xMidYMid meet">
<metadata>
Created by potrace 1.16, written by Peter Selinger 2001-2019
</metadata>
<g transform="translate(0.000000,48.000000) scale(0.100000,-0.100000)"
fill="currentColor" stroke="currentColor" stroke-width="6" stroke-linejoin="round">
<path d="M96 454 c-19 -18 -20 -44 -5 -96 16 -59 32 -47 24 17 -5 47 -4 56 11
62 22 8 44 -22 44 -62 0 -38 25 -75 51 -75 24 0 25 16 0 29 -12 7 -20 25 -23
56 -9 74 -62 110 -102 69z M314 444 c-15 -23 -16 -30 -3 -71 8 -24 19 -43 24
-41 10 3 10 14 4 73 -3 25 0 31 18 33 18 3 24 -4 32 -35 6 -21 11 -47 11 -59
0 -25 18 -44 41 -44 26 0 34 20 11 27 -15 3 -21 16 -26 52 -8 62 -29 91 -66
91 -21 0 -35 -8 -46 -26z M90 280 c0 -13 7 -20 20 -20 13 0 20 7 20 20 0 13
-7 20 -20 20 -13 0 -20 -7 -20 -20z M314 289 c-3 -6 0 -17 8 -25 13 -13 16
-13 27 0 7 8 10 20 6 26 -8 13 -32 13 -41 -1z M65 220 c29 -32 115 -23 115 12
0 4 -30 8 -67 8 -65 0 -66 0 -48 -20z M280 232 c0 -30 83 -45 108 -20 22 22
12 28 -48 28 -33 0 -60 -4 -60 -8z M16 195 c-9 -25 -7 -128 3 -144 8 -12 12
-12 25 -2 24 20 22 122 -3 145 -17 15 -19 15 -25 1z M186 191 c-23 -25 -22
-113 2 -134 10 -10 22 -14 25 -10 10 10 8 151 -2 157 -4 3 -16 -3 -25 -13z
M247 203 c-10 -9 -8 -163 1 -163 41 0 59 121 24 153 -10 10 -22 14 -25 10z
M406 188 c-29 -42 -11 -148 25 -148 5 0 9 38 9 85 0 88 -7 101 -34 63z M97
163 c-4 -3 -7 -24 -7 -45 0 -34 3 -38 25 -38 23 0 25 4 25 45 0 37 -3 45 -18
45 -10 0 -22 -3 -25 -7z M320 125 c0 -42 2 -46 23 -43 19 3 22 9 22 43 0 34
-3 40 -22 43 -21 3 -23 -1 -23 -43z M65 30 c-18 -20 -17 -20 50 -20 67 0 68 0
50 20 -11 12 -31 20 -50 20 -19 0 -39 -8 -50 -20z M292 38 c-23 -23 -12 -28
55 -28 65 0 66 0 48 20 -20 23 -83 28 -103 8z"/>
</g>
</svg>

