<?xml version="1.0" standalone="no"?>
<!DOCTYPE svg PUBLIC "-//W3C//DTD SVG 20010904//EN"
 "http://www.w3.org/TR/2001/REC-SVG-20010904/DTD/svg10.dtd">
<svg version="1.0" xmlns="http://www.w3.org/2000/svg"
 width="48.000000pt" height="48.000000pt" viewBox="0 0 48.000000 48.000000"
 preserveAspectRatio="xMidYMid meet">
<metadata>
Created by potrace 1.16, written by Peter Selinger 2001-2019
</metadata>
<g transform="translate(0.000000,48.000000) scale(0.100000,-0.100000)"
fill="currentColor" stroke="currentColor" stroke-width="6" stroke-linejoin="round">
<path d="M105 456 c-14 -14 -26 -42 -30 -70 -5 -31 -14 -50 -27 -57 -14 -7
-17 -14 -10 -21 17 -17 52 1 58 30 22 97 25 103 47 100 22 -3 25 -17 16 -62
-8 -38 20 -27 32 13 11 36 10 43 -5 60 -28 30 -55 33 -81 7z M325 470 c-40
-15 -49 -36 -36 -81 12 -40 40 -51 32 -13 -9 45 -6 59 16 62 22 3 25 -3 47
-100 6 -29 41 -47 58 -30 7 7 4 14 -10 21 -13 7 -23 26 -27 53 -12 73 -40 103
-80 88z M152 304 c4 -21 22 -23 26 -1 2 10 -3 17 -13 17 -10 0 -15 -6 -13 -16z
M302 304 c4 -21 22 -23 26 -1 2 10 -3 17 -13 17 -10 0 -15 -6 -13 -16z M152
244 c4 -21 22 -23 26 -1 2 10 -3 17 -13 17 -10 0 -15 -6 -13 -16z M302 244 c4
-21 22 -23 26 -1 2 10 -3 17 -13 17 -10 0 -15 -6 -13 -16z M152 184 c4 -21 22
-23 26 -1 2 10 -3 17 -13 17 -10 0 -15 -6 -13 -16z M302 184 c4 -21 22 -23 26
-1 2 10 -3 17 -13 17 -10 0 -15 -6 -13 -16z M141 124 c-39 -50 -36 -105 7
-116 52 -14 86 37 58 89 -26 51 -41 57 -65 27z M291 124 c-40 -51 -40 -98 1
-113 74 -27 103 65 38 124 -17 15 -19 14 -39 -11z"/>
</g>
</svg>

