<?xml version="1.0" standalone="no"?>
<!DOCTYPE svg PUBLIC "-//W3C//DTD SVG 20010904//EN"
 "http://www.w3.org/TR/2001/REC-SVG-20010904/DTD/svg10.dtd">
<svg version="1.0" xmlns="http://www.w3.org/2000/svg"
 width="48.000000pt" height="48.000000pt" viewBox="0 0 48.000000 48.000000"
 preserveAspectRatio="xMidYMid meet">
<metadata>
Created by potrace 1.16, written by Peter Selinger 2001-2019
</metadata>
<g transform="translate(0.000000,48.000000) scale(0.100000,-0.100000)"
fill="currentColor" stroke="currentColor" stroke-width="6" stroke-linejoin="round">
<path d="M92 464 c-16 -11 -22 -25 -21 -52 1 -56 13 -86 33 -90 17 -4 18 1 12
51 -5 38 -4 57 5 62 15 10 27 -11 35 -64 7 -48 36 -84 62 -79 24 5 27 34 3 41
-14 3 -21 17 -26 51 -8 51 -37 96 -64 96 -9 0 -27 -7 -39 -16z M295 455 c-29
-28 -29 -26 -11 -85 8 -26 20 -46 30 -48 19 -4 21 23 6 64 -7 19 -7 30 1 40
17 20 39 -1 39 -37 0 -43 17 -78 45 -91 20 -9 28 -9 38 1 9 9 6 16 -15 34 -18
16 -28 35 -31 67 -4 29 -13 51 -27 62 -30 24 -46 23 -75 -7z M82 278 c2 -15
10 -23 23 -23 30 0 27 39 -3 43 -20 3 -23 0 -20 -20z M287 286 c-7 -19 18 -40
39 -32 8 3 14 14 12 23 -4 22 -43 29 -51 9z M65 216 c-38 -58 -46 -150 -16
-187 13 -16 29 -23 54 -23 65 0 87 44 67 137 -18 88 -71 125 -105 73z M278
223 c-23 -27 -38 -80 -38 -134 0 -39 4 -51 26 -68 31 -24 43 -26 78 -10 35 16
47 58 36 122 -17 87 -66 131 -102 90z"/>
</g>
</svg>

