<?xml version="1.0" standalone="no"?>
<!DOCTYPE svg PUBLIC "-//W3C//DTD SVG 20010904//EN"
 "http://www.w3.org/TR/2001/REC-SVG-20010904/DTD/svg10.dtd">
<svg version="1.0" xmlns="http://www.w3.org/2000/svg"
 width="48.000000pt" height="48.000000pt" viewBox="0 0 48.000000 48.000000"
 preserveAspectRatio="xMidYMid meet">
<metadata>
Created by potrace 1.16, written by Peter Selinger 2001-2019
</metadata>
<g transform="translate(0.000000,48.000000) scale(0.100000,-0.100000)"
fill="currentColor" stroke="currentColor" stroke-width="6" stroke-linejoin="round">
<path d="M180 443 c-14 -3 -30 -9 -35 -13 -6 -5 -25 -8 -42 -8 -40 1 -81 -25
-94 -60 -6 -15 -9 -73 -7 -129 2 -81 7 -106 21 -120 16 -17 18 -16 39 5 17 17
20 24 10 34 -7 7 -12 22 -12 35 0 18 6 23 25 23 29 0 34 -14 37 -110 l3 -65
35 0 c35 0 35 0 38 48 l3 47 64 0 64 0 3 -47 c3 -48 3 -48 38 -48 l35 0 3 113
c2 104 11 135 26 96 3 -9 6 -38 6 -65 0 -42 3 -49 20 -49 18 0 20 7 20 59 0
43 -5 65 -20 84 -23 28 -93 72 -133 82 -22 6 -27 3 -32 -18 -10 -39 -38 -59
-77 -55 -18 2 -31 8 -28 13 5 10 10 12 42 14 31 2 57 86 35 114 -14 18 -51 27
-87 20z m-100 -123 c0 -11 -7 -20 -15 -20 -8 0 -15 9 -15 20 0 11 7 20 15 20
8 0 15 -9 15 -20z"/>
</g>
</svg>

