<?xml version="1.0" standalone="no"?>
<!DOCTYPE svg PUBLIC "-//W3C//DTD SVG 20010904//EN"
 "http://www.w3.org/TR/2001/REC-SVG-20010904/DTD/svg10.dtd">
<svg version="1.0" xmlns="http://www.w3.org/2000/svg"
 width="48.000000pt" height="48.000000pt" viewBox="0 0 48.000000 48.000000"
 preserveAspectRatio="xMidYMid meet">
<metadata>
Created by potrace 1.16, written by Peter Selinger 2001-2019
</metadata>
<g transform="translate(0.000000,48.000000) scale(0.100000,-0.100000)"
fill="currentColor" stroke="currentColor" stroke-width="6" stroke-linejoin="round">
<path d="M160 467 c-50 -16 -136 -103 -149 -152 -27 -98 -7 -172 62 -240 104
-101 231 -101 332 0 102 101 102 229 0 330 -70 71 -152 91 -245 62z m192 -128
c-1 -8 -23 -69 -49 -137 -52 -137 -67 -150 -98 -82 l-18 41 36 37 c64 66 32
91 -34 26 l-36 -35 -37 17 c-64 31 -48 50 89 104 122 49 152 55 147 29z"/>
</g>
</svg>

