<?xml version="1.0" standalone="no"?>
<!DOCTYPE svg PUBLIC "-//W3C//DTD SVG 20010904//EN"
 "http://www.w3.org/TR/2001/REC-SVG-20010904/DTD/svg10.dtd">
<svg version="1.0" xmlns="http://www.w3.org/2000/svg"
 width="48.000000pt" height="48.000000pt" viewBox="0 0 48.000000 48.000000"
 preserveAspectRatio="xMidYMid meet">
<metadata>
Created by potrace 1.16, written by Peter Selinger 2001-2019
</metadata>
<g transform="translate(0.000000,48.000000) scale(0.100000,-0.100000)"
fill="currentColor" stroke="currentColor" stroke-width="6" stroke-linejoin="round">
<path d="M16 414 c-24 -23 -24 -325 0 -348 23 -24 425 -24 448 0 24 23 24 325
0 348 -23 24 -425 24 -448 0z m114 -113 c0 -5 -12 -11 -27 -13 -33 -4 -43 -27
-14 -35 12 -3 21 -9 21 -13 0 -4 -9 -10 -21 -13 -29 -8 -19 -31 14 -35 42 -5
32 -24 -10 -20 l-38 3 -3 54 c-2 29 -1 60 2 67 6 16 76 20 76 5z m59 -8 c9
-17 11 -17 25 2 20 28 31 12 16 -25 -10 -24 -10 -36 0 -60 15 -36 4 -53 -16
-26 -14 20 -14 20 -28 0 -20 -27 -31 -10 -16 26 10 24 10 37 1 56 -6 14 -11
29 -11 34 0 16 18 11 29 -7z m141 8 c0 -6 -4 -13 -10 -16 -5 -3 -10 -24 -10
-45 0 -21 5 -42 10 -45 20 -12 9 -25 -20 -25 -29 0 -40 13 -20 25 6 3 10 24
10 45 0 21 -4 42 -10 45 -20 12 -9 25 20 25 17 0 30 -4 30 -9z m110 0 c0 -5
-7 -11 -15 -15 -11 -4 -15 -21 -15 -61 0 -30 -4 -55 -10 -55 -5 0 -10 25 -10
55 0 40 -4 57 -15 61 -28 11 -15 24 25 24 22 0 40 -4 40 -9z"/>
</g>
</svg>

