<?xml version="1.0" standalone="no"?>
<!DOCTYPE svg PUBLIC "-//W3C//DTD SVG 20010904//EN"
 "http://www.w3.org/TR/2001/REC-SVG-20010904/DTD/svg10.dtd">
<svg version="1.0" xmlns="http://www.w3.org/2000/svg"
 width="48.000000pt" height="48.000000pt" viewBox="0 0 48.000000 48.000000"
 preserveAspectRatio="xMidYMid meet">
<metadata>
Created by potrace 1.16, written by Peter Selinger 2001-2019
</metadata>
<g transform="translate(0.000000,48.000000) scale(0.100000,-0.100000)"
fill="currentColor" stroke="currentColor" stroke-width="6" stroke-linejoin="round">
<path d="M350 474 c-8 -1 -32 -5 -52 -9 -34 -5 -41 -13 -110 -125 -40 -66 -76
-120 -81 -120 -4 0 -12 12 -17 26 -11 28 -30 24 -30 -6 0 -17 113 -120 132
-120 5 0 8 9 8 20 0 38 37 95 75 115 20 11 54 41 75 67 34 44 37 52 33 95 -6
53 -11 61 -33 57z m-42 -94 c-8 -25 -152 -202 -156 -192 -4 12 138 202 151
202 5 0 7 -4 5 -10z M304 240 c-11 -4 -33 -22 -47 -40 -47 -56 -31 -146 33
-184 61 -35 148 -6 176 59 18 44 18 59 -3 102 -28 60 -98 88 -159 63z m72 -44
c21 -22 17 -36 -11 -36 -34 0 -31 -13 5 -27 37 -14 39 -40 6 -78 l-24 -27 -22
22 c-24 24 -18 36 20 42 25 4 25 4 -6 20 -42 23 -48 42 -21 72 26 30 33 31 53
12z M68 142 c-9 -15 -28 -40 -42 -55 -31 -34 -32 -41 -7 -66 22 -22 59 -18 69
8 3 9 18 31 34 49 15 18 28 37 28 42 0 8 -52 50 -62 50 -2 0 -11 -12 -20 -28z"/>
</g>
</svg>

