<?xml version="1.0" standalone="no"?>
<!DOCTYPE svg PUBLIC "-//W3C//DTD SVG 20010904//EN"
 "http://www.w3.org/TR/2001/REC-SVG-20010904/DTD/svg10.dtd">
<svg version="1.0" xmlns="http://www.w3.org/2000/svg"
 width="48.000000pt" height="48.000000pt" viewBox="0 0 48.000000 48.000000"
 preserveAspectRatio="xMidYMid meet">
<metadata>
Created by potrace 1.16, written by Peter Selinger 2001-2019
</metadata>
<g transform="translate(0.000000,48.000000) scale(0.100000,-0.100000)"
fill="currentColor" stroke="currentColor" stroke-width="6" stroke-linejoin="round">
<path d="M148 423 c-8 -10 -41 -63 -72 -119 -46 -82 -56 -109 -56 -147 0 -25
5 -49 10 -52 6 -4 31 5 55 20 36 20 56 45 100 119 70 120 76 137 61 167 -15
31 -75 39 -98 12z M220 220 c-27 -27 -40 -62 -40 -106 0 -34 -1 -34 -44 -34
-26 0 -48 -6 -55 -14 -19 -23 15 -35 74 -26 28 5 68 6 91 3 23 -3 51 0 63 7
14 7 27 8 34 2 20 -16 78 -22 98 -11 29 15 6 39 -37 39 -21 0 -34 5 -34 13 0
31 -23 36 -52 12 -44 -37 -66 -33 -34 6 33 38 42 73 27 105 -14 31 -62 33 -91
4z m60 -32 c0 -19 -38 -78 -50 -78 -15 0 -12 43 6 68 16 24 44 30 44 10z"/>
</g>
</svg>

