<?xml version="1.0" standalone="no"?>
<!DOCTYPE svg PUBLIC "-//W3C//DTD SVG 20010904//EN"
 "http://www.w3.org/TR/2001/REC-SVG-20010904/DTD/svg10.dtd">
<svg version="1.0" xmlns="http://www.w3.org/2000/svg"
 width="48.000000pt" height="48.000000pt" viewBox="0 0 48.000000 48.000000"
 preserveAspectRatio="xMidYMid meet">
<metadata>
Created by potrace 1.16, written by Peter Selinger 2001-2019
</metadata>
<g transform="translate(0.000000,48.000000) scale(0.100000,-0.100000)"
fill="currentColor" stroke="currentColor" stroke-width="6" stroke-linejoin="round">
<path d="M102 468 c-34 -34 1 -98 63 -115 24 -6 11 -9 -60 -13 -87 -5 -90 -6
-99 -32 -7 -18 -6 -35 2 -53 11 -24 14 -25 118 -25 l106 0 -4 94 c-2 77 -7
100 -24 123 -23 31 -80 43 -102 21z m78 -63 c0 -8 -8 -11 -20 -8 -20 5 -26 23
-13 36 8 9 33 -12 33 -28z M283 443 c-13 -20 -19 -52 -21 -120 l-4 -93 101 0
c99 0 102 1 113 25 8 18 9 35 2 53 -9 26 -13 27 -94 32 -68 4 -79 7 -55 13 62
17 84 66 47 100 -29 26 -69 21 -89 -10z m77 -16 c0 -8 -11 -19 -25 -25 -25
-12 -30 -6 -19 22 7 19 44 21 44 3z M47 193 c-11 -10 -8 -152 3 -174 9 -16 22
-19 95 -19 l85 0 0 100 0 100 -88 0 c-49 0 -92 -3 -95 -7z M260 100 l0 -100
80 0 c97 0 102 6 98 118 l-3 77 -87 3 -88 3 0 -101z"/>
</g>
</svg>

