<?xml version="1.0" standalone="no"?>
<!DOCTYPE svg PUBLIC "-//W3C//DTD SVG 20010904//EN"
 "http://www.w3.org/TR/2001/REC-SVG-20010904/DTD/svg10.dtd">
<svg version="1.0" xmlns="http://www.w3.org/2000/svg"
 width="48.000000pt" height="48.000000pt" viewBox="0 0 48.000000 48.000000"
 preserveAspectRatio="xMidYMid meet">
<metadata>
Created by potrace 1.16, written by Peter Selinger 2001-2019
</metadata>
<g transform="translate(0.000000,48.000000) scale(0.100000,-0.100000)"
fill="currentColor" stroke="currentColor" stroke-width="6" stroke-linejoin="round">
<path d="M227 454 c-4 -4 -7 -20 -7 -36 0 -22 5 -28 21 -28 17 0 20 5 17 32
-3 31 -17 45 -31 32z M70 377 c0 -22 34 -47 49 -38 10 7 11 13 2 30 -13 23
-51 29 -51 8z M359 369 c-16 -32 4 -48 31 -24 11 10 20 24 20 32 0 21 -38 15
-51 -8z M152 348 c-20 -20 -13 -55 14 -77 l27 -21 -41 0 c-31 0 -44 -5 -52
-20 -25 -47 9 -74 86 -68 38 3 39 4 42 46 2 23 7 42 12 42 5 0 10 -19 12 -42
3 -42 4 -43 42 -46 55 -5 83 4 89 30 10 37 -9 58 -54 58 l-40 0 27 23 c22 19
26 29 20 50 -8 32 -49 46 -79 28 -14 -9 -22 -10 -30 -2 -15 15 -60 14 -75 -1z
m56 -46 c2 -7 -2 -10 -12 -6 -9 3 -16 11 -16 16 0 13 23 5 28 -10z m92 9 c0
-5 -7 -11 -15 -15 -15 -5 -20 5 -8 17 9 10 23 9 23 -2z M6 232 c-2 -4 -1 -14
3 -21 12 -18 55 -10 59 12 3 13 -3 17 -27 17 -16 0 -32 -4 -35 -8z M412 223
c4 -22 47 -30 59 -12 12 20 1 29 -32 29 -24 0 -30 -4 -27 -17z M130 91 c0 -50
22 -73 64 -69 30 3 31 4 31 53 l0 50 -47 3 -48 3 0 -40z M252 78 c3 -51 4 -53
34 -56 42 -4 64 19 64 69 l0 39 -51 0 -50 0 3 -52z"/>
</g>
</svg>

