<?xml version="1.0" standalone="no"?>
<!DOCTYPE svg PUBLIC "-//W3C//DTD SVG 20010904//EN"
 "http://www.w3.org/TR/2001/REC-SVG-20010904/DTD/svg10.dtd">
<svg version="1.0" xmlns="http://www.w3.org/2000/svg"
 width="48.000000pt" height="48.000000pt" viewBox="0 0 48.000000 48.000000"
 preserveAspectRatio="xMidYMid meet">
<metadata>
Created by potrace 1.16, written by Peter Selinger 2001-2019
</metadata>
<g transform="translate(0.000000,48.000000) scale(0.100000,-0.100000)"
fill="currentColor" stroke="currentColor" stroke-width="6" stroke-linejoin="round">
<path d="M183 460 c-44 -26 -56 -90 -28 -152 6 -15 2 -18 -30 -18 -36 0 -36 0
-33 -37 3 -33 7 -38 31 -41 30 -4 31 -8 17 -67 -11 -46 -7 -51 41 -60 31 -6
37 -4 42 14 7 27 27 27 34 0 5 -18 11 -20 42 -14 48 9 53 15 41 55 -16 56 -13
68 18 72 23 3 27 8 30 41 3 37 3 37 -33 37 -32 0 -36 3 -30 18 28 62 16 126
-28 152 -41 25 -73 25 -114 0z m32 -61 c0 -7 -8 -15 -17 -17 -18 -3 -25 18
-11 32 10 10 28 1 28 -15z m83 -2 c2 -10 -3 -17 -12 -17 -18 0 -29 16 -21 31
9 14 29 6 33 -14z m-46 -152 c0 -5 -5 -11 -11 -13 -6 -2 -11 4 -11 13 0 9 5
15 11 13 6 -2 11 -8 11 -13z m0 -60 c0 -5 -5 -11 -11 -13 -6 -2 -11 4 -11 13
0 9 5 15 11 13 6 -2 11 -8 11 -13z M12 278 c-25 -25 -6 -68 30 -68 14 0 18 8
18 40 0 32 -4 40 -18 40 -10 0 -23 -5 -30 -12z M420 250 c0 -37 2 -41 21 -38
30 4 47 33 33 56 -6 9 -21 18 -33 20 -19 3 -21 -1 -21 -38z M124 59 c-9 -16 6
-48 26 -54 23 -7 60 10 60 28 0 15 -78 38 -86 26z M308 57 c-21 -5 -38 -13
-38 -17 0 -13 30 -40 45 -40 29 0 59 51 38 63 -5 2 -25 0 -45 -6z"/>
</g>
</svg>

