<?xml version="1.0" standalone="no"?>
<!DOCTYPE svg PUBLIC "-//W3C//DTD SVG 20010904//EN"
 "http://www.w3.org/TR/2001/REC-SVG-20010904/DTD/svg10.dtd">
<svg version="1.0" xmlns="http://www.w3.org/2000/svg"
 width="48.000000pt" height="48.000000pt" viewBox="0 0 48.000000 48.000000"
 preserveAspectRatio="xMidYMid meet">
<metadata>
Created by potrace 1.16, written by Peter Selinger 2001-2019
</metadata>
<g transform="translate(0.000000,48.000000) scale(0.100000,-0.100000)"
fill="currentColor" stroke="currentColor" stroke-width="6" stroke-linejoin="round">
<path d="M73 449 c-8 -19 -23 -34 -42 -42 -39 -14 -39 -25 -2 -38 17 -6 34
-22 41 -40 15 -34 37 -38 42 -6 2 13 15 28 35 37 41 19 42 34 4 50 -18 7 -34
24 -40 41 -13 37 -24 37 -38 -2z M167 343 c-12 -19 -37 -135 -32 -143 9 -15
195 -13 200 3 3 6 -3 41 -13 77 l-17 65 -67 3 c-36 2 -69 -1 -71 -5z M420 324
c0 -9 -9 -18 -20 -21 -24 -6 -27 -23 -4 -23 9 0 18 -9 21 -20 3 -11 9 -20 13
-20 4 0 10 9 13 20 3 11 12 20 21 20 9 0 16 5 16 10 0 6 -7 10 -16 10 -9 0
-18 9 -21 20 -6 24 -23 27 -23 4z M47 153 c-12 -19 -37 -135 -32 -143 9 -15
195 -13 200 3 3 6 -3 41 -13 77 l-17 65 -67 3 c-36 2 -69 -1 -71 -5z M287 153
c-12 -19 -37 -135 -32 -143 9 -15 195 -13 200 3 3 6 -3 41 -13 77 l-17 65 -67
3 c-36 2 -69 -1 -71 -5z"/>
</g>
</svg>

