<?xml version="1.0" standalone="no"?>
<!DOCTYPE svg PUBLIC "-//W3C//DTD SVG 20010904//EN"
 "http://www.w3.org/TR/2001/REC-SVG-20010904/DTD/svg10.dtd">
<svg version="1.0" xmlns="http://www.w3.org/2000/svg"
 width="48.000000pt" height="48.000000pt" viewBox="0 0 48.000000 48.000000"
 preserveAspectRatio="xMidYMid meet">
<metadata>
Created by potrace 1.16, written by Peter Selinger 2001-2019
</metadata>
<g transform="translate(0.000000,48.000000) scale(0.100000,-0.100000)"
fill="currentColor" stroke="currentColor" stroke-width="6" stroke-linejoin="round">
<path d="M195 466 c-20 -14 -19 -15 13 -46 29 -29 42 -60 26 -60 -4 0 -22 14
-41 30 -18 17 -45 30 -59 30 -57 0 -114 -55 -114 -111 0 -18 4 -20 23 -14 33
11 81 11 86 0 2 -5 -13 -13 -34 -16 -47 -8 -74 -41 -75 -92 0 -60 31 -107 71
-107 5 0 9 14 9 31 0 38 16 69 36 69 12 0 14 -5 8 -18 -4 -9 -9 -35 -11 -57
-4 -34 0 -44 25 -68 36 -35 97 -46 127 -23 20 14 19 15 -12 46 -30 29 -43 60
-27 60 4 0 22 -13 41 -30 18 -16 45 -30 59 -30 57 0 114 55 114 111 0 18 -4
20 -22 14 -13 -4 -40 -10 -62 -12 -53 -7 -44 19 9 28 49 8 75 39 75 91 0 61
-31 108 -71 108 -5 0 -9 -15 -9 -33 0 -38 -21 -73 -38 -63 -8 4 -7 17 4 41 16
40 8 69 -29 103 -32 30 -95 39 -122 18z"/>
</g>
</svg>

