<?xml version="1.0" standalone="no"?>
<!DOCTYPE svg PUBLIC "-//W3C//DTD SVG 20010904//EN"
 "http://www.w3.org/TR/2001/REC-SVG-20010904/DTD/svg10.dtd">
<svg version="1.0" xmlns="http://www.w3.org/2000/svg"
 width="48.000000pt" height="48.000000pt" viewBox="0 0 48.000000 48.000000"
 preserveAspectRatio="xMidYMid meet">
<metadata>
Created by potrace 1.16, written by Peter Selinger 2001-2019
</metadata>
<g transform="translate(0.000000,48.000000) scale(0.100000,-0.100000)"
fill="currentColor" stroke="currentColor" stroke-width="6" stroke-linejoin="round">
<path d="M185 465 c-49 -27 -74 -56 -111 -130 -73 -148 -34 -280 95 -323 91
-31 201 5 246 82 41 71 38 149 -12 245 -60 118 -143 166 -218 126z m43 -127
c9 -9 15 -9 24 0 7 7 27 12 44 12 57 0 93 -70 60 -116 -9 -11 -12 -29 -9 -43
8 -34 -10 -41 -107 -41 -97 0 -115 7 -107 41 3 14 0 32 -9 43 -33 46 3 116 60
116 17 0 37 -5 44 -12z m96 -242 c-18 -46 -150 -46 -168 0 -4 11 13 14 84 14
71 0 88 -3 84 -14z M171 286 c-9 -10 -8 -16 4 -26 21 -17 51 6 34 26 -6 8 -15
14 -19 14 -4 0 -13 -6 -19 -14z M271 286 c-9 -10 -8 -16 4 -26 21 -17 51 6 34
26 -6 8 -15 14 -19 14 -4 0 -13 -6 -19 -14z M190 205 c0 -31 92 -33 98 -2 3
14 -4 17 -47 17 -38 0 -51 -4 -51 -15z"/>
</g>
</svg>

