<?xml version="1.0" standalone="no"?>
<!DOCTYPE svg PUBLIC "-//W3C//DTD SVG 20010904//EN"
 "http://www.w3.org/TR/2001/REC-SVG-20010904/DTD/svg10.dtd">
<svg version="1.0" xmlns="http://www.w3.org/2000/svg"
 width="48.000000pt" height="48.000000pt" viewBox="0 0 48.000000 48.000000"
 preserveAspectRatio="xMidYMid meet">
<metadata>
Created by potrace 1.16, written by Peter Selinger 2001-2019
</metadata>
<g transform="translate(0.000000,48.000000) scale(0.100000,-0.100000)"
fill="currentColor" stroke="currentColor" stroke-width="6" stroke-linejoin="round">
<path d="M165 461 c-22 -10 -48 -27 -57 -37 -21 -24 -48 -87 -48 -113 0 -11
-13 -33 -30 -49 -46 -46 -36 -112 21 -143 39 -20 49 3 49 115 0 83 4 107 20
134 41 67 124 91 187 52 58 -35 67 -61 74 -200 3 -75 2 -130 -4 -137 -12 -17
-62 -17 -87 -1 -26 17 -55 0 -55 -32 0 -32 29 -49 55 -32 11 6 31 12 45 12 41
0 84 27 91 58 4 15 18 40 31 55 32 40 30 81 -7 119 -16 16 -30 39 -30 51 -1
30 -33 98 -56 119 -29 25 -89 48 -126 48 -18 0 -51 -9 -73 -19z M144 305 c-10
-25 4 -45 30 -45 25 0 39 20 30 45 -8 19 -53 19 -60 0z M277 306 c-11 -28 4
-47 32 -44 20 2 26 8 26 28 0 20 -6 26 -26 28 -17 2 -29 -3 -32 -12z M154 195
c-8 -21 23 -51 62 -61 51 -13 123 27 110 61 -6 17 -8 17 -29 -4 -14 -13 -36
-21 -57 -21 -21 0 -43 8 -57 21 -21 21 -23 21 -29 4z"/>
</g>
</svg>

