<?xml version="1.0" standalone="no"?>
<!DOCTYPE svg PUBLIC "-//W3C//DTD SVG 20010904//EN"
 "http://www.w3.org/TR/2001/REC-SVG-20010904/DTD/svg10.dtd">
<svg version="1.0" xmlns="http://www.w3.org/2000/svg"
 width="48.000000pt" height="48.000000pt" viewBox="0 0 48.000000 48.000000"
 preserveAspectRatio="xMidYMid meet">
<metadata>
Created by potrace 1.16, written by Peter Selinger 2001-2019
</metadata>
<g transform="translate(0.000000,48.000000) scale(0.100000,-0.100000)"
fill="currentColor" stroke="currentColor" stroke-width="6" stroke-linejoin="round">
<path d="M187 464 c-4 -4 -7 -30 -7 -57 0 -40 3 -50 20 -54 16 -4 20 -14 20
-49 0 -43 -1 -44 -34 -44 -46 0 -97 -37 -121 -87 -11 -23 -28 -44 -38 -46 -15
-5 -18 -14 -15 -59 l3 -53 55 0 55 0 3 53 c3 46 0 54 -16 59 -45 11 24 93 79
93 28 0 29 -2 29 -44 0 -36 -4 -45 -21 -49 -18 -5 -20 -12 -17 -59 l3 -53 55
0 55 0 3 53 c3 47 1 54 -17 59 -17 4 -21 13 -21 49 0 40 2 44 25 44 38 0 79
-25 93 -55 15 -33 16 -32 -9 -38 -18 -5 -20 -12 -17 -59 l3 -53 55 0 55 0 3
53 c3 45 0 54 -15 59 -10 2 -27 23 -38 46 -24 50 -75 87 -121 87 -33 0 -34 1
-34 44 0 36 4 45 21 49 18 5 20 12 17 59 l-3 53 -50 3 c-28 2 -54 0 -58 -4z"/>
</g>
</svg>

