<?xml version="1.0" standalone="no"?>
<!DOCTYPE svg PUBLIC "-//W3C//DTD SVG 20010904//EN"
 "http://www.w3.org/TR/2001/REC-SVG-20010904/DTD/svg10.dtd">
<svg version="1.0" xmlns="http://www.w3.org/2000/svg"
 width="48.000000pt" height="48.000000pt" viewBox="0 0 48.000000 48.000000"
 preserveAspectRatio="xMidYMid meet">
<metadata>
Created by potrace 1.16, written by Peter Selinger 2001-2019
</metadata>
<g transform="translate(0.000000,48.000000) scale(0.100000,-0.100000)"
fill="currentColor" stroke="currentColor" stroke-width="6" stroke-linejoin="round">
<path d="M116 361 c-114 -114 -130 -141 -86 -141 18 0 20 -9 22 -107 l3 -108
70 0 70 0 5 69 c6 76 24 101 58 80 12 -8 18 -29 22 -80 l5 -69 70 0 70 0 3
108 c2 98 4 107 22 107 33 0 33 21 2 53 -28 29 -31 39 -34 107 l-3 75 -48 3
c-28 2 -55 -2 -63 -9 -12 -10 -19 -8 -37 10 -13 11 -25 21 -28 21 -2 0 -58
-54 -123 -119z m165 33 c40 -39 59 -38 59 2 0 17 5 24 20 24 18 0 20 -7 20
-64 0 -45 4 -67 15 -76 11 -9 13 -16 5 -24 -5 -5 -10 -55 -10 -113 l0 -103
-35 0 -35 0 0 55 c0 67 -29 105 -80 105 -51 0 -80 -38 -80 -105 l0 -55 -35 0
-35 0 0 104 c0 66 -4 107 -11 112 -7 4 22 39 72 90 46 46 86 84 88 84 3 0 22
-16 42 -36z"/>
</g>
</svg>

