<?xml version="1.0" standalone="no"?>
<!DOCTYPE svg PUBLIC "-//W3C//DTD SVG 20010904//EN"
 "http://www.w3.org/TR/2001/REC-SVG-20010904/DTD/svg10.dtd">
<svg version="1.0" xmlns="http://www.w3.org/2000/svg"
 width="48.000000pt" height="48.000000pt" viewBox="0 0 48.000000 48.000000"
 preserveAspectRatio="xMidYMid meet">
<metadata>
Created by potrace 1.16, written by Peter Selinger 2001-2019
</metadata>
<g transform="translate(0.000000,48.000000) scale(0.100000,-0.100000)"
fill="currentColor" stroke="currentColor" stroke-width="6" stroke-linejoin="round">
<path d="M215 450 c-9 -17 -23 -30 -35 -30 -27 0 -35 -18 -16 -39 12 -13 14
-27 10 -51 -7 -32 -6 -33 17 -25 31 10 67 10 98 0 23 -8 24 -7 17 25 -4 24 -2
38 10 51 19 22 11 39 -19 39 -16 0 -26 9 -34 30 -6 17 -16 30 -22 30 -6 0 -17
-13 -26 -30z M65 410 c-9 -17 -23 -30 -35 -30 -27 0 -35 -18 -16 -39 8 -9 14
-30 13 -46 -2 -25 1 -29 18 -26 11 2 31 3 45 3 14 0 34 -1 45 -3 14 -3 19 1
16 11 -2 8 -6 29 -8 45 -6 40 -41 115 -53 115 -5 0 -16 -13 -25 -30z M365 408
c-7 -18 -17 -36 -21 -40 -4 -4 -8 -22 -9 -40 0 -18 -3 -40 -6 -48 -3 -10 2
-14 16 -11 11 2 31 3 45 3 14 0 34 -1 45 -3 17 -3 20 1 18 26 -1 16 5 37 13
46 19 21 11 39 -16 39 -12 0 -26 13 -35 30 -20 39 -33 38 -50 -2z M192 187
c-26 -28 -28 -64 -5 -89 16 -18 16 -20 -15 -44 -56 -45 -45 -54 68 -54 113 0
124 9 68 54 -31 24 -31 26 -15 44 24 26 21 65 -6 90 -30 28 -68 28 -95 -1z"/>
</g>
</svg>

