<?xml version="1.0" standalone="no"?>
<!DOCTYPE svg PUBLIC "-//W3C//DTD SVG 20010904//EN"
 "http://www.w3.org/TR/2001/REC-SVG-20010904/DTD/svg10.dtd">
<svg version="1.0" xmlns="http://www.w3.org/2000/svg"
 width="48.000000pt" height="48.000000pt" viewBox="0 0 48.000000 48.000000"
 preserveAspectRatio="xMidYMid meet">
<metadata>
Created by potrace 1.16, written by Peter Selinger 2001-2019
</metadata>
<g transform="translate(0.000000,48.000000) scale(0.100000,-0.100000)"
fill="currentColor" stroke="currentColor" stroke-width="6" stroke-linejoin="round">
<path d="M200 460 c-24 -24 -25 -38 -4 -68 29 -42 104 -17 104 35 0 20 -38 53
-60 53 -11 0 -29 -9 -40 -20z M169 311 c-16 -16 -29 -39 -29 -50 0 -20 5 -21
100 -21 95 0 100 1 100 21 0 11 -13 34 -29 50 -41 41 -101 41 -142 0z M64 196
c-3 -8 -4 -27 -2 -43 4 -34 32 -38 36 -5 3 20 9 22 62 22 53 0 59 -2 62 -22 2
-13 10 -23 18 -23 8 0 16 10 18 23 3 20 9 22 62 22 53 0 59 -2 62 -22 2 -13
10 -23 18 -23 11 0 15 11 15 40 l0 40 -173 3 c-143 2 -173 0 -178 -12z M46 84
c-31 -30 -9 -84 34 -84 24 0 50 26 50 50 0 10 -7 26 -16 34 -8 9 -24 16 -34
16 -10 0 -26 -7 -34 -16z M206 84 c-31 -30 -9 -84 34 -84 24 0 50 26 50 50 0
24 -26 50 -50 50 -10 0 -26 -7 -34 -16z M366 84 c-31 -30 -9 -84 34 -84 24 0
50 26 50 50 0 24 -26 50 -50 50 -10 0 -26 -7 -34 -16z"/>
</g>
</svg>

