<?xml version="1.0" standalone="no"?>
<!DOCTYPE svg PUBLIC "-//W3C//DTD SVG 20010904//EN"
 "http://www.w3.org/TR/2001/REC-SVG-20010904/DTD/svg10.dtd">
<svg version="1.0" xmlns="http://www.w3.org/2000/svg"
 width="48.000000pt" height="48.000000pt" viewBox="0 0 48.000000 48.000000"
 preserveAspectRatio="xMidYMid meet">
<metadata>
Created by potrace 1.16, written by Peter Selinger 2001-2019
</metadata>
<g transform="translate(0.000000,48.000000) scale(0.100000,-0.100000)"
fill="currentColor" stroke="currentColor" stroke-width="6" stroke-linejoin="round">
<path d="M84 465 c-3 -8 4 -43 16 -79 15 -47 25 -63 36 -59 19 7 18 18 -7 91
-21 61 -34 76 -45 47z M233 443 c-7 -3 -13 -17 -13 -31 0 -16 -8 -32 -20 -40
-28 -17 -25 -29 10 -37 16 -4 32 -10 35 -15 7 -12 65 12 65 27 0 6 -9 18 -21
26 -11 8 -20 21 -19 28 5 35 -10 51 -37 42z M136 299 c-14 -11 -26 -29 -26
-40 0 -17 8 -19 75 -19 67 0 75 2 75 19 0 24 -45 61 -75 61 -12 0 -34 -9 -49
-21z M282 302 c-9 -7 -10 -15 -3 -35 9 -24 16 -27 56 -27 38 0 45 3 45 19 0
37 -64 64 -98 43z M90 200 c0 -30 58 -88 101 -101 33 -11 39 -16 39 -41 0 -24
-4 -28 -30 -28 -20 0 -30 -5 -30 -15 0 -12 15 -15 75 -15 60 0 75 3 75 15 0
10 -10 15 -30 15 -26 0 -30 4 -30 28 0 25 6 30 39 41 43 13 101 71 101 101 0
19 -8 20 -155 20 -147 0 -155 -1 -155 -20z"/>
</g>
</svg>

