<?xml version="1.0" standalone="no"?>
<!DOCTYPE svg PUBLIC "-//W3C//DTD SVG 20010904//EN"
 "http://www.w3.org/TR/2001/REC-SVG-20010904/DTD/svg10.dtd">
<svg version="1.0" xmlns="http://www.w3.org/2000/svg"
 width="48.000000pt" height="48.000000pt" viewBox="0 0 48.000000 48.000000"
 preserveAspectRatio="xMidYMid meet">
<metadata>
Created by potrace 1.16, written by Peter Selinger 2001-2019
</metadata>
<g transform="translate(0.000000,48.000000) scale(0.100000,-0.100000)"
fill="currentColor" stroke="currentColor" stroke-width="6" stroke-linejoin="round">
<path d="M130 454 c-73 -31 -120 -102 -120 -179 0 -58 19 -102 61 -142 42 -40
77 -53 138 -53 39 0 52 5 74 28 35 36 27 43 -26 24 -109 -39 -223 55 -202 166
15 80 97 140 174 127 52 -9 108 -57 122 -106 9 -28 18 -39 32 -39 17 0 19 5
14 37 -18 109 -162 183 -267 137z M153 386 c-87 -39 -93 -166 -11 -216 61 -37
148 -15 148 37 0 15 10 37 21 50 20 21 21 25 8 59 -26 67 -101 99 -166 70z
M332 238 c-10 -13 -15 -34 -13 -55 0 -7 12 -20 26 -29 23 -15 27 -15 50 0 27
18 34 63 13 84 -16 16 -63 15 -76 0z M299 81 c-16 -16 -29 -39 -29 -50 0 -20
5 -21 100 -21 95 0 100 1 100 21 0 11 -13 34 -29 50 -41 41 -101 41 -142 0z"/>
</g>
</svg>

