<?xml version="1.0" standalone="no"?>
<!DOCTYPE svg PUBLIC "-//W3C//DTD SVG 20010904//EN"
 "http://www.w3.org/TR/2001/REC-SVG-20010904/DTD/svg10.dtd">
<svg version="1.0" xmlns="http://www.w3.org/2000/svg"
 width="48.000000pt" height="48.000000pt" viewBox="0 0 48.000000 48.000000"
 preserveAspectRatio="xMidYMid meet">
<metadata>
Created by potrace 1.16, written by Peter Selinger 2001-2019
</metadata>
<g transform="translate(0.000000,48.000000) scale(0.100000,-0.100000)"
fill="currentColor" stroke="currentColor" stroke-width="6" stroke-linejoin="round">
<path d="M71 461 c-23 -23 -26 -37 -12 -46 6 -3 1 -20 -10 -39 -25 -43 -7 -59
23 -21 27 34 34 26 11 -13 -24 -41 -7 -54 22 -17 13 16 27 26 31 22 4 -4 -2
-17 -14 -30 -12 -13 -22 -26 -22 -30 0 -15 31 -6 47 13 10 11 27 20 38 20 54
0 61 63 13 115 -43 46 -96 57 -127 26z m59 -26 c0 -8 -9 -15 -20 -15 -11 0
-20 7 -20 15 0 8 9 15 20 15 11 0 20 -7 20 -15z M305 294 c-9 -9 -15 -26 -14
-38 2 -11 -2 -31 -9 -43 -26 -48 -7 -72 22 -28 9 14 21 25 27 25 6 0 1 -13
-11 -30 -30 -42 -15 -59 21 -24 29 28 42 19 14 -10 -8 -8 -15 -19 -15 -25 0
-20 29 -11 46 13 9 15 21 23 30 19 18 -7 54 24 54 46 0 27 -38 79 -69 96 -39
20 -75 19 -96 -1z m55 -30 c0 -14 -21 -19 -33 -7 -9 9 13 34 24 27 5 -3 9 -12
9 -20z M44 174 c-12 -18 -14 -28 -6 -36 8 -8 6 -18 -8 -36 -11 -14 -20 -29
-20 -33 0 -17 22 -9 40 14 10 12 22 19 26 15 4 -5 0 -16 -9 -26 -17 -19 -23
-42 -10 -42 4 0 20 12 35 27 32 30 39 14 8 -17 -11 -11 -20 -24 -20 -30 0 -19
29 -10 48 15 12 15 26 23 35 19 21 -8 47 23 47 54 0 80 -126 138 -166 76z m62
-5 c10 -17 -13 -36 -27 -22 -12 12 -4 33 11 33 5 0 12 -5 16 -11z"/>
</g>
</svg>

