<?xml version="1.0" standalone="no"?>
<!DOCTYPE svg PUBLIC "-//W3C//DTD SVG 20010904//EN"
 "http://www.w3.org/TR/2001/REC-SVG-20010904/DTD/svg10.dtd">
<svg version="1.0" xmlns="http://www.w3.org/2000/svg"
 width="48.000000pt" height="48.000000pt" viewBox="0 0 48.000000 48.000000"
 preserveAspectRatio="xMidYMid meet">
<metadata>
Created by potrace 1.16, written by Peter Selinger 2001-2019
</metadata>
<g transform="translate(0.000000,48.000000) scale(0.100000,-0.100000)"
fill="currentColor" stroke="currentColor" stroke-width="6" stroke-linejoin="round">
<path d="M281 466 c-29 -16 -50 -52 -51 -86 0 -14 -9 -31 -20 -38 -16 -10 -20
-23 -20 -65 0 -45 4 -57 28 -80 25 -24 36 -27 95 -27 54 0 71 -4 87 -20 11
-11 20 -24 20 -30 0 -15 36 -12 49 4 8 9 11 48 9 112 -3 92 -5 100 -25 109
-14 6 -23 19 -23 32 0 77 -82 126 -149 89z m89 -46 c11 -11 20 -31 20 -45 0
-24 -3 -25 -60 -25 -57 0 -60 1 -60 25 0 30 32 65 60 65 11 0 29 -9 40 -20z
m-15 -140 c10 -16 -6 -80 -20 -80 -14 0 -30 64 -20 80 3 6 12 10 20 10 8 0 17
-4 20 -10z M54 202 c-60 -38 -69 -125 -18 -173 36 -34 112 -34 148 0 14 14 26
30 26 38 0 20 16 16 33 -10 l16 -22 17 24 17 24 17 -22 16 -23 33 31 c54 51
41 65 -62 69 -63 2 -87 6 -87 16 0 23 -47 58 -87 62 -27 4 -47 -1 -69 -14z
m56 -92 c0 -13 -7 -20 -20 -20 -13 0 -20 7 -20 20 0 13 7 20 20 20 13 0 20 -7
20 -20z"/>
</g>
</svg>

