<?xml version="1.0" standalone="no"?>
<!DOCTYPE svg PUBLIC "-//W3C//DTD SVG 20010904//EN"
 "http://www.w3.org/TR/2001/REC-SVG-20010904/DTD/svg10.dtd">
<svg version="1.0" xmlns="http://www.w3.org/2000/svg"
 width="48.000000pt" height="48.000000pt" viewBox="0 0 48.000000 48.000000"
 preserveAspectRatio="xMidYMid meet">
<metadata>
Created by potrace 1.16, written by Peter Selinger 2001-2019
</metadata>
<g transform="translate(0.000000,48.000000) scale(0.100000,-0.100000)"
fill="currentColor" stroke="currentColor" stroke-width="6" stroke-linejoin="round">
<path d="M65 468 c-3 -8 -4 -115 -3 -238 l3 -225 175 0 175 0 0 235 0 235
-173 3 c-134 2 -174 0 -177 -10z m310 -208 l0 -175 -135 0 -135 0 -3 165 c-1
90 0 170 3 177 3 11 35 13 137 11 l133 -3 0 -175z M165 380 c-14 -22 12 -31
81 -28 53 2 69 6 69 18 0 12 -16 16 -72 18 -45 2 -74 -1 -78 -8z M165 310
c-14 -22 12 -31 81 -28 53 2 69 6 69 18 0 12 -16 16 -72 18 -45 2 -74 -1 -78
-8z M165 240 c-14 -22 12 -31 81 -28 53 2 69 6 69 18 0 12 -16 16 -72 18 -45
2 -74 -1 -78 -8z M165 170 c-13 -21 11 -31 66 -28 40 2 54 7 54 18 0 19 -109
28 -120 10z"/>
</g>
</svg>

