<?xml version="1.0" standalone="no"?>
<!DOCTYPE svg PUBLIC "-//W3C//DTD SVG 20010904//EN"
 "http://www.w3.org/TR/2001/REC-SVG-20010904/DTD/svg10.dtd">
<svg version="1.0" xmlns="http://www.w3.org/2000/svg"
 width="48.000000pt" height="48.000000pt" viewBox="0 0 48.000000 48.000000"
 preserveAspectRatio="xMidYMid meet">
<metadata>
Created by potrace 1.16, written by Peter Selinger 2001-2019
</metadata>
<g transform="translate(0.000000,48.000000) scale(0.100000,-0.100000)"
fill="currentColor" stroke="currentColor" stroke-width="6" stroke-linejoin="round">
<path d="M54 454 c-24 -36 -9 -76 34 -89 17 -5 32 -14 32 -21 0 -20 34 -53 70
-68 33 -13 40 -13 79 5 28 12 46 28 53 47 7 19 22 32 42 38 41 12 56 52 32 88
-18 28 -45 33 -79 14 -30 -16 -166 -17 -179 0 -19 22 -66 14 -84 -14z m136
-74 c0 -5 -7 -10 -15 -10 -8 0 -15 5 -15 10 0 6 7 10 15 10 8 0 15 -4 15 -10z
m100 0 c0 -5 -7 -10 -15 -10 -8 0 -15 5 -15 10 0 6 7 10 15 10 8 0 15 -4 15
-10z m-45 -50 c0 -29 -32 -41 -41 -16 -9 24 4 48 23 44 12 -2 18 -12 18 -28z
M395 335 c-16 -24 -35 -45 -42 -45 -7 0 -29 -11 -49 -25 -61 -41 -149 -29
-189 27 l-16 23 -25 -30 c-62 -73 -79 -152 -46 -215 29 -55 70 -70 193 -70
110 0 129 6 129 45 0 29 -19 45 -52 45 -37 0 -43 19 -21 66 24 50 48 59 28 10
-19 -45 -19 -66 1 -66 9 0 23 20 35 48 11 27 29 52 42 57 16 7 22 19 22 40 0
40 11 55 41 55 15 0 24 6 24 15 0 8 -8 15 -17 15 -13 0 -14 3 -5 12 18 18 15
38 -5 38 -10 0 -31 -20 -48 -45z"/>
</g>
</svg>

