<?xml version="1.0" standalone="no"?>
<!DOCTYPE svg PUBLIC "-//W3C//DTD SVG 20010904//EN"
 "http://www.w3.org/TR/2001/REC-SVG-20010904/DTD/svg10.dtd">
<svg version="1.0" xmlns="http://www.w3.org/2000/svg"
 width="48.000000pt" height="48.000000pt" viewBox="0 0 48.000000 48.000000"
 preserveAspectRatio="xMidYMid meet">
<metadata>
Created by potrace 1.16, written by Peter Selinger 2001-2019
</metadata>
<g transform="translate(0.000000,48.000000) scale(0.100000,-0.100000)"
fill="currentColor" stroke="currentColor" stroke-width="6" stroke-linejoin="round">
<path d="M204 466 c-3 -9 -4 -23 0 -31 4 -10 -6 -20 -31 -30 -44 -18 -40 -19
-46 6 -4 16 -12 20 -39 17 -29 -3 -33 -6 -33 -33 0 -20 7 -33 21 -40 18 -9 19
-13 8 -40 -9 -23 -20 -31 -45 -35 -26 -4 -35 -10 -37 -28 -5 -33 17 -55 48
-49 22 5 28 1 37 -23 10 -26 9 -29 -11 -32 -13 -2 -22 -11 -24 -26 -7 -47 44
-70 70 -33 8 11 23 19 33 18 16 -2 20 5 21 41 2 40 1 42 -23 40 -18 -2 -28 3
-34 20 -7 19 -5 22 16 22 18 0 25 5 25 20 0 14 -7 20 -24 20 -19 0 -23 4 -19
20 8 30 22 34 44 14 15 -13 22 -15 31 -6 9 9 7 16 -5 30 -22 24 -21 31 6 41
19 7 23 5 27 -18 3 -14 12 -26 20 -26 8 0 17 12 20 26 4 23 8 25 28 18 26 -10
27 -17 5 -41 -12 -14 -14 -21 -5 -30 9 -9 16 -7 31 6 22 20 36 16 44 -14 4
-16 0 -20 -19 -20 -17 0 -24 -6 -24 -20 0 -15 7 -20 25 -20 21 0 23 -3 16 -22
-6 -17 -16 -22 -33 -20 -23 2 -25 -1 -26 -44 0 -42 1 -45 22 -40 15 4 25 -1
34 -14 24 -39 77 -15 70 32 -2 15 -11 24 -24 26 -20 3 -21 6 -11 32 9 24 15
28 37 23 31 -6 53 16 48 49 -2 18 -11 24 -37 28 -25 4 -36 12 -45 35 -11 27
-10 31 8 40 14 7 21 20 21 40 0 27 -4 30 -33 33 -27 3 -35 -1 -39 -17 -6 -25
-3 -24 -44 -7 -26 11 -33 20 -34 42 0 25 -4 29 -33 32 -22 2 -34 -2 -38 -12z
M225 218 c-2 -7 -14 -50 -25 -95 l-22 -82 -86 -3 c-69 -2 -87 -6 -87 -18 0
-13 33 -15 235 -15 202 0 235 2 235 15 0 12 -18 16 -86 18 l-87 3 -16 62 c-29
104 -37 127 -47 127 -5 0 -11 -6 -14 -12z"/>
</g>
</svg>

