<?xml version="1.0" standalone="no"?>
<!DOCTYPE svg PUBLIC "-//W3C//DTD SVG 20010904//EN"
 "http://www.w3.org/TR/2001/REC-SVG-20010904/DTD/svg10.dtd">
<svg version="1.0" xmlns="http://www.w3.org/2000/svg"
 width="48.000000pt" height="48.000000pt" viewBox="0 0 48.000000 48.000000"
 preserveAspectRatio="xMidYMid meet">
<metadata>
Created by potrace 1.16, written by Peter Selinger 2001-2019
</metadata>
<g transform="translate(0.000000,48.000000) scale(0.100000,-0.100000)"
fill="currentColor" stroke="currentColor" stroke-width="6" stroke-linejoin="round">
<path d="M135 461 c-7 -23 3 -51 20 -51 7 0 16 7 19 16 9 23 -2 54 -19 54 -8
0 -16 -8 -20 -19z M44 429 c-3 -6 3 -21 15 -32 16 -16 23 -19 33 -9 9 9 7 16
-7 32 -20 23 -31 25 -41 9z M225 420 c-14 -16 -16 -23 -7 -32 10 -10 17 -7 33
9 12 11 18 26 15 32 -10 16 -21 14 -41 -9z M134 390 c-48 -18 -62 -77 -26
-112 26 -26 68 -26 94 0 50 49 -3 136 -68 112z M13 343 c-19 -7 -16 -31 6 -38
39 -12 72 25 35 39 -18 7 -23 7 -41 -1z M253 343 c-19 -7 -16 -31 6 -38 39
-12 72 25 35 39 -18 7 -23 7 -41 -1z M55 250 c-14 -16 -16 -23 -7 -32 10 -10
17 -7 33 9 12 11 18 26 15 32 -10 16 -21 14 -41 -9z M161 148 c-131 -147 -135
-143 114 -143 199 0 200 0 200 22 0 27 -179 223 -204 223 -10 0 -59 -46 -110
-102z m129 -27 c11 -37 20 -71 20 -75 0 -3 -40 -6 -90 -6 -50 0 -90 3 -90 6 0
10 121 144 131 144 4 0 17 -31 29 -69z M135 221 c-7 -23 3 -51 20 -51 17 0 27
28 20 51 -8 24 -32 24 -40 0z"/>
</g>
</svg>

