<?xml version="1.0" standalone="no"?>
<!DOCTYPE svg PUBLIC "-//W3C//DTD SVG 20010904//EN"
 "http://www.w3.org/TR/2001/REC-SVG-20010904/DTD/svg10.dtd">
<svg version="1.0" xmlns="http://www.w3.org/2000/svg"
 width="48.000000pt" height="48.000000pt" viewBox="0 0 48.000000 48.000000"
 preserveAspectRatio="xMidYMid meet">
<metadata>
Created by potrace 1.16, written by Peter Selinger 2001-2019
</metadata>
<g transform="translate(0.000000,48.000000) scale(0.100000,-0.100000)"
fill="currentColor" stroke="currentColor" stroke-width="6" stroke-linejoin="round">
<path d="M357 445 c-93 -38 -95 -39 -99 -13 -5 36 -32 28 -38 -10 -5 -32 -10
-35 -95 -68 -50 -19 -94 -39 -98 -43 -5 -5 -1 -15 7 -24 14 -14 13 -21 -10
-73 -28 -63 -26 -92 6 -124 27 -27 93 -27 120 0 34 34 34 62 1 135 -17 37 -31
71 -31 75 0 8 73 40 90 40 6 0 10 -57 10 -144 l0 -145 -42 -3 c-30 -2 -43 -8
-43 -18 0 -12 18 -15 105 -15 87 0 105 3 105 15 0 10 -13 16 -42 18 l-43 3 0
157 0 158 45 16 c25 10 45 15 45 13 0 -3 -11 -30 -25 -61 -31 -70 -31 -86 -1
-121 34 -39 98 -39 132 0 31 36 30 50 -8 137 -23 52 -29 75 -20 78 16 5 16 42
0 42 -7 -1 -39 -12 -71 -25z m56 -115 l15 -40 -38 0 -38 0 15 40 c9 22 19 40
23 40 4 0 14 -18 23 -40z m-300 -117 c14 -36 14 -38 -4 -41 -10 -2 -28 -2 -38
0 -18 3 -18 5 -4 41 8 20 19 37 23 37 4 0 15 -17 23 -37z"/>
</g>
</svg>

