<?xml version="1.0" standalone="no"?>
<!DOCTYPE svg PUBLIC "-//W3C//DTD SVG 20010904//EN"
 "http://www.w3.org/TR/2001/REC-SVG-20010904/DTD/svg10.dtd">
<svg version="1.0" xmlns="http://www.w3.org/2000/svg"
 width="48.000000pt" height="48.000000pt" viewBox="0 0 48.000000 48.000000"
 preserveAspectRatio="xMidYMid meet">
<metadata>
Created by potrace 1.16, written by Peter Selinger 2001-2019
</metadata>
<g transform="translate(0.000000,48.000000) scale(0.100000,-0.100000)"
fill="currentColor" stroke="currentColor" stroke-width="6" stroke-linejoin="round">
<path d="M195 450 c-23 -24 -37 -30 -70 -30 -52 0 -65 -13 -65 -65 0 -33 -6
-47 -30 -70 -17 -16 -30 -36 -30 -45 0 -9 14 -29 30 -45 24 -23 30 -37 30 -70
0 -52 13 -65 65 -65 33 0 47 -6 70 -30 36 -38 54 -38 90 0 23 24 37 30 70 30
52 0 65 13 65 65 0 33 6 47 30 70 17 16 30 36 30 45 0 9 -13 29 -30 45 -24 23
-30 37 -30 70 0 52 -13 65 -65 65 -33 0 -47 6 -70 30 -16 17 -36 30 -45 30 -9
0 -29 -13 -45 -30z m80 -40 c22 -23 38 -30 67 -30 37 0 38 -1 38 -37 0 -28 8
-45 32 -70 l32 -33 -32 -33 c-24 -25 -32 -42 -32 -70 0 -36 -1 -37 -37 -37
-28 0 -45 -8 -70 -32 l-33 -32 -33 32 c-25 24 -42 32 -70 32 -36 0 -37 1 -37
37 0 28 -8 45 -32 70 l-32 33 32 33 c24 25 32 42 32 70 0 36 1 37 38 37 29 0
45 7 67 30 16 17 32 30 35 30 3 0 19 -13 35 -30z M188 339 c-23 -13 -23 -24 2
-49 11 -11 20 -33 20 -50 0 -17 -9 -39 -20 -50 -25 -25 -25 -37 -1 -50 68 -36
154 20 154 100 0 80 -90 137 -155 99z m99 -51 c29 -27 29 -65 1 -95 -35 -38
-43 -29 -43 47 0 39 4 70 9 70 6 0 20 -10 33 -22z"/>
</g>
</svg>

