<?xml version="1.0" standalone="no"?>
<!DOCTYPE svg PUBLIC "-//W3C//DTD SVG 20010904//EN"
 "http://www.w3.org/TR/2001/REC-SVG-20010904/DTD/svg10.dtd">
<svg version="1.0" xmlns="http://www.w3.org/2000/svg"
 width="48.000000pt" height="48.000000pt" viewBox="0 0 48.000000 48.000000"
 preserveAspectRatio="xMidYMid meet">
<metadata>
Created by potrace 1.16, written by Peter Selinger 2001-2019
</metadata>
<g transform="translate(0.000000,48.000000) scale(0.100000,-0.100000)"
fill="currentColor" stroke="currentColor" stroke-width="6" stroke-linejoin="round">
<path d="M227 474 c-4 -4 -7 -31 -7 -61 0 -47 2 -53 20 -53 19 0 21 5 18 57
-3 52 -14 73 -31 57z M104 369 c-3 -6 5 -23 20 -37 20 -20 28 -24 38 -14 9 9
6 17 -12 37 -26 28 -35 31 -46 14z M330 355 c-18 -20 -21 -28 -12 -37 10 -10
18 -6 38 14 15 14 23 31 20 37 -11 17 -20 14 -46 -14z M187 292 c-23 -25 -22
-85 1 -105 25 -23 85 -22 105 1 23 25 22 85 -1 105 -25 23 -85 22 -105 -1z M5
250 c-12 -20 7 -30 61 -30 47 0 54 2 54 20 0 18 -7 20 -54 20 -30 0 -58 -4
-61 -10z M360 240 c0 -19 5 -21 58 -18 43 2 57 7 57 18 0 11 -14 16 -57 18
-53 3 -58 1 -58 -18z M120 145 c-18 -20 -21 -28 -12 -37 10 -10 18 -6 38 14
15 14 23 31 20 37 -11 17 -20 14 -46 -14z M314 159 c-3 -6 5 -23 20 -37 20
-20 28 -24 38 -14 9 9 6 17 -12 37 -26 28 -35 31 -46 14z M222 63 c2 -44 7
-58 18 -58 11 0 16 14 18 58 3 52 1 57 -18 57 -19 0 -21 -5 -18 -57z"/>
</g>
</svg>

