<?xml version="1.0" standalone="no"?>
<!DOCTYPE svg PUBLIC "-//W3C//DTD SVG 20010904//EN"
 "http://www.w3.org/TR/2001/REC-SVG-20010904/DTD/svg10.dtd">
<svg version="1.0" xmlns="http://www.w3.org/2000/svg"
 width="48.000000pt" height="48.000000pt" viewBox="0 0 48.000000 48.000000"
 preserveAspectRatio="xMidYMid meet">
<metadata>
Created by potrace 1.16, written by Peter Selinger 2001-2019
</metadata>
<g transform="translate(0.000000,48.000000) scale(0.100000,-0.100000)"
fill="currentColor" stroke="currentColor" stroke-width="6" stroke-linejoin="round">
<path d="M63 461 c-61 -38 -81 -117 -43 -178 30 -49 66 -63 166 -63 80 0 89 2
110 25 28 30 53 32 88 4 l26 -20 29 29 c55 55 49 150 -12 196 -25 19 -44 21
-180 24 -137 2 -155 1 -184 -17z m57 -87 c0 -37 4 -47 20 -51 30 -8 24 -25 -7
-21 -27 3 -28 6 -31 61 -2 35 1 57 8 57 5 0 10 -21 10 -46z m90 -14 c0 -33 -4
-60 -10 -60 -6 0 -10 27 -10 60 0 33 4 60 10 60 6 0 10 -27 10 -60z m90 48 c0
-6 -7 -20 -17 -30 -15 -17 -15 -19 0 -36 25 -28 21 -41 -13 -40 -30 1 -30 2
-30 58 0 56 0 57 30 58 17 0 30 -4 30 -10z m90 3 c0 -5 -9 -11 -21 -14 -23 -6
-17 -27 7 -27 8 0 14 -4 14 -10 0 -5 -6 -10 -14 -10 -24 0 -30 -21 -7 -27 31
-8 26 -25 -6 -21 -25 3 -28 7 -31 47 -2 24 -1 50 2 57 6 15 56 20 56 5z M317
234 c-4 -4 -7 -40 -7 -81 0 -67 -9 -89 -25 -63 -10 16 -45 12 -45 -6 0 -8 12
-31 26 -50 l26 -34 89 0 89 0 0 40 c0 49 -27 80 -70 80 -28 0 -29 1 -32 58 -3
49 -6 57 -23 60 -12 2 -24 0 -28 -4z"/>
</g>
</svg>

