<?xml version="1.0" standalone="no"?>
<!DOCTYPE svg PUBLIC "-//W3C//DTD SVG 20010904//EN"
 "http://www.w3.org/TR/2001/REC-SVG-20010904/DTD/svg10.dtd">
<svg version="1.0" xmlns="http://www.w3.org/2000/svg"
 width="48.000000pt" height="48.000000pt" viewBox="0 0 48.000000 48.000000"
 preserveAspectRatio="xMidYMid meet">
<metadata>
Created by potrace 1.16, written by Peter Selinger 2001-2019
</metadata>
<g transform="translate(0.000000,48.000000) scale(0.100000,-0.100000)"
fill="currentColor" stroke="currentColor" stroke-width="6" stroke-linejoin="round">
<path d="M160 467 c-49 -16 -133 -102 -148 -153 -28 -94 -8 -169 63 -239 101
-102 229 -102 330 0 102 101 102 229 0 330 -70 71 -152 91 -245 62z m122 -134
c-3 -38 -1 -43 22 -49 14 -3 32 -4 39 -1 8 3 20 1 27 -3 11 -7 10 -19 -5 -70
-10 -34 -26 -65 -36 -71 -31 -16 -106 -10 -154 13 -44 21 -45 23 -45 69 0 44
2 48 27 51 20 2 37 17 63 55 43 64 66 66 62 6z"/>
</g>
</svg>

