<?xml version="1.0" standalone="no"?>
<!DOCTYPE svg PUBLIC "-//W3C//DTD SVG 20010904//EN"
 "http://www.w3.org/TR/2001/REC-SVG-20010904/DTD/svg10.dtd">
<svg version="1.0" xmlns="http://www.w3.org/2000/svg"
 width="48.000000pt" height="48.000000pt" viewBox="0 0 48.000000 48.000000"
 preserveAspectRatio="xMidYMid meet">
<metadata>
Created by potrace 1.16, written by Peter Selinger 2001-2019
</metadata>
<g transform="translate(0.000000,48.000000) scale(0.100000,-0.100000)"
fill="currentColor" stroke="currentColor" stroke-width="6" stroke-linejoin="round">
<path d="M226 438 c-9 -12 -16 -33 -16 -47 0 -30 -35 -88 -63 -103 -12 -6 -49
-12 -82 -12 l-60 -1 0 -125 0 -125 44 -3 c28 -2 49 2 60 12 13 11 26 12 68 5
79 -15 224 -8 233 11 4 8 12 25 18 37 7 13 12 32 12 42 0 11 5 23 10 26 6 3
10 19 10 35 0 16 4 32 10 35 16 10 11 51 -8 68 -13 12 -37 17 -84 17 l-66 0 2
56 c1 47 -3 59 -23 75 -30 25 -46 24 -65 -3z m49 -47 c3 -10 0 -36 -8 -58 -7
-21 -12 -44 -9 -51 2 -8 33 -12 93 -12 58 0 89 -4 89 -11 0 -6 -9 -13 -20 -16
-21 -6 -27 -28 -10 -38 17 -10 11 -25 -10 -25 -21 0 -28 -24 -10 -35 17 -10
11 -25 -10 -25 -23 0 -26 -19 -7 -39 10 -11 -8 -12 -103 -8 -63 3 -123 8 -132
12 -15 6 -18 20 -18 75 0 59 3 69 20 75 34 11 100 95 106 137 7 41 19 49 29
19z m-205 -316 c0 -8 -4 -15 -10 -15 -5 0 -10 7 -10 15 0 8 5 15 10 15 6 0 10
-7 10 -15z"/>
</g>
</svg>

