<?xml version="1.0" standalone="no"?>
<!DOCTYPE svg PUBLIC "-//W3C//DTD SVG 20010904//EN"
 "http://www.w3.org/TR/2001/REC-SVG-20010904/DTD/svg10.dtd">
<svg version="1.0" xmlns="http://www.w3.org/2000/svg"
 width="48.000000pt" height="48.000000pt" viewBox="0 0 48.000000 48.000000"
 preserveAspectRatio="xMidYMid meet">
<metadata>
Created by potrace 1.16, written by Peter Selinger 2001-2019
</metadata>
<g transform="translate(0.000000,48.000000) scale(0.100000,-0.100000)"
fill="currentColor" stroke="currentColor" stroke-width="6" stroke-linejoin="round">
<path d="M29 451 l-29 -29 0 -182 0 -182 29 -29 29 -29 182 0 182 0 29 29 29
29 0 182 0 182 -29 29 -29 29 -182 0 -182 0 -29 -29z m318 -77 c15 -12 38 -36
51 -54 66 -97 -31 -214 -173 -208 -42 1 -70 -4 -93 -16 -41 -21 -49 -16 -33
22 11 26 9 34 -13 67 -32 47 -33 92 -3 136 38 57 90 80 169 77 49 -3 75 -9 95
-24z M325 300 c-4 -6 -15 -8 -26 -5 -13 4 -21 1 -26 -11 -5 -15 -7 -15 -17 -1
-7 9 -25 14 -46 13 -34 -2 -35 -2 -35 -46 0 -43 1 -44 33 -46 21 -1 36 4 39
13 4 11 10 10 26 -7 15 -17 21 -19 28 -9 6 10 10 10 23 0 16 -13 56 -6 56 10
0 5 -4 9 -9 9 -12 0 -9 53 4 63 6 4 5 11 -5 17 -20 13 -37 13 -45 0z M97 294
c-12 -12 -8 -79 5 -92 15 -15 45 -15 54 0 4 6 0 16 -9 22 -8 7 -17 25 -19 41
-3 28 -18 42 -31 29z"/>
</g>
</svg>

