<?xml version="1.0" standalone="no"?>
<!DOCTYPE svg PUBLIC "-//W3C//DTD SVG 20010904//EN"
 "http://www.w3.org/TR/2001/REC-SVG-20010904/DTD/svg10.dtd">
<svg version="1.0" xmlns="http://www.w3.org/2000/svg"
 width="48.000000pt" height="48.000000pt" viewBox="0 0 48.000000 48.000000"
 preserveAspectRatio="xMidYMid meet">
<metadata>
Created by potrace 1.16, written by Peter Selinger 2001-2019
</metadata>
<g transform="translate(0.000000,48.000000) scale(0.100000,-0.100000)"
fill="currentColor" stroke="currentColor" stroke-width="6" stroke-linejoin="round">
<path d="M25 440 c4 -13 1 -22 -9 -26 -22 -8 -20 -21 5 -29 16 -5 18 -9 8 -21
-17 -21 -2 -31 24 -15 15 10 22 10 25 2 6 -18 34 -13 30 7 -2 9 3 23 12 30 13
11 13 13 0 25 -9 6 -14 20 -12 30 4 20 -24 24 -31 5 -4 -10 -7 -10 -18 0 -21
20 -41 15 -34 -8z M185 409 c-15 -24 17 -29 151 -27 116 3 139 6 139 18 0 12
-24 15 -142 18 -96 2 -144 -1 -148 -9z M25 280 c4 -13 1 -22 -9 -26 -22 -8
-20 -21 5 -29 16 -5 18 -9 8 -21 -17 -21 -2 -31 24 -15 15 10 22 10 25 2 6
-18 34 -13 30 7 -2 9 3 23 12 30 13 11 13 13 0 25 -9 6 -14 20 -12 30 4 20
-24 24 -31 5 -4 -10 -7 -10 -18 0 -21 20 -41 15 -34 -8z M185 249 c-15 -24 17
-29 151 -27 116 3 139 6 139 18 0 12 -24 15 -142 18 -96 2 -144 -1 -148 -9z
M25 121 c4 -13 0 -23 -12 -30 -17 -11 -17 -11 0 -22 12 -7 16 -17 12 -30 -7
-22 13 -26 34 -7 11 10 14 11 18 1 7 -20 35 -16 31 4 -2 10 3 24 12 31 13 11
13 13 0 25 -9 6 -14 20 -12 30 4 20 -24 24 -31 5 -4 -10 -7 -10 -18 0 -21 19
-41 15 -34 -7z M185 89 c-15 -24 17 -29 151 -27 116 3 139 6 139 18 0 12 -24
15 -142 18 -96 2 -144 -1 -148 -9z"/>
</g>
</svg>

