<?xml version="1.0" standalone="no"?>
<!DOCTYPE svg PUBLIC "-//W3C//DTD SVG 20010904//EN"
 "http://www.w3.org/TR/2001/REC-SVG-20010904/DTD/svg10.dtd">
<svg version="1.0" xmlns="http://www.w3.org/2000/svg"
 width="48.000000pt" height="48.000000pt" viewBox="0 0 48.000000 48.000000"
 preserveAspectRatio="xMidYMid meet">
<metadata>
Created by potrace 1.16, written by Peter Selinger 2001-2019
</metadata>
<g transform="translate(0.000000,48.000000) scale(0.100000,-0.100000)"
fill="currentColor" stroke="currentColor" stroke-width="6" stroke-linejoin="round">
<path d="M4 437 c-3 -9 -4 -30 -2 -49 3 -32 4 -33 48 -33 l45 0 0 45 0 45 -43
3 c-30 2 -44 -1 -48 -11z M155 409 c-16 -24 17 -29 166 -27 129 3 154 5 154
18 0 13 -25 15 -157 18 -107 2 -159 -1 -163 -9z M4 277 c-3 -9 -4 -30 -2 -49
3 -32 4 -33 48 -33 l45 0 0 45 0 45 -43 3 c-30 2 -44 -1 -48 -11z M155 249
c-16 -24 17 -29 166 -27 129 3 154 5 154 18 0 13 -25 15 -157 18 -107 2 -159
-1 -163 -9z M4 117 c-3 -9 -4 -30 -2 -49 3 -32 4 -33 48 -33 l45 0 0 45 0 45
-43 3 c-30 2 -44 -1 -48 -11z M155 89 c-16 -24 17 -29 166 -27 129 3 154 5
154 18 0 13 -25 15 -157 18 -107 2 -159 -1 -163 -9z"/>
</g>
</svg>

