<?xml version="1.0" standalone="no"?>
<!DOCTYPE svg PUBLIC "-//W3C//DTD SVG 20010904//EN"
 "http://www.w3.org/TR/2001/REC-SVG-20010904/DTD/svg10.dtd">
<svg version="1.0" xmlns="http://www.w3.org/2000/svg"
 width="48.000000pt" height="48.000000pt" viewBox="0 0 48.000000 48.000000"
 preserveAspectRatio="xMidYMid meet">
<metadata>
Created by potrace 1.16, written by Peter Selinger 2001-2019
</metadata>
<g transform="translate(0.000000,48.000000) scale(0.100000,-0.100000)"
fill="currentColor" stroke="currentColor" stroke-width="6" stroke-linejoin="round">
<path d="M214 457 c-3 -8 -4 -34 -2 -58 3 -39 6 -44 28 -44 24 0 25 3 25 55 0
49 -2 55 -23 58 -12 2 -24 -3 -28 -11z M82 398 c-18 -18 -15 -32 17 -62 54
-52 97 -9 45 45 -30 32 -44 35 -62 17z M336 381 c-31 -32 -32 -64 -1 -69 26
-4 78 49 73 75 -5 29 -41 27 -72 -6z M14 256 c-13 -35 3 -47 58 -44 49 3 53 5
53 28 0 23 -4 25 -53 28 -40 2 -54 -1 -58 -12z M354 256 c-13 -35 3 -47 58
-44 49 3 53 5 53 28 0 23 -4 25 -53 28 -40 2 -54 -1 -58 -12z M96 141 c-30
-32 -31 -64 -3 -69 36 -7 87 58 66 84 -17 21 -32 17 -63 -15z M322 158 c-17
-17 -15 -22 14 -57 32 -39 74 -43 74 -8 0 23 -47 77 -66 77 -6 0 -15 -5 -22
-12z M214 117 c-3 -8 -4 -34 -2 -58 3 -39 6 -44 28 -44 24 0 25 3 25 55 0 49
-2 55 -23 58 -12 2 -24 -3 -28 -11z"/>
</g>
</svg>

