<?xml version="1.0" standalone="no"?>
<!DOCTYPE svg PUBLIC "-//W3C//DTD SVG 20010904//EN"
 "http://www.w3.org/TR/2001/REC-SVG-20010904/DTD/svg10.dtd">
<svg version="1.0" xmlns="http://www.w3.org/2000/svg"
 width="48.000000pt" height="48.000000pt" viewBox="0 0 48.000000 48.000000"
 preserveAspectRatio="xMidYMid meet">
<metadata>
Created by potrace 1.16, written by Peter Selinger 2001-2019
</metadata>
<g transform="translate(0.000000,48.000000) scale(0.100000,-0.100000)"
fill="currentColor" stroke="currentColor" stroke-width="6" stroke-linejoin="round">
<path d="M173 460 c-43 -26 -61 -55 -68 -116 -5 -38 -12 -52 -29 -60 -20 -8
-21 -17 -24 -133 -2 -82 1 -128 9 -137 9 -11 48 -14 178 -14 172 0 191 4 191
42 0 14 -11 18 -57 20 l-58 3 0 80 0 80 58 3 c54 3 58 5 55 25 -2 12 -13 26
-25 31 -16 8 -23 22 -28 62 -3 29 -15 65 -27 79 -43 55 -118 70 -175 35z m122
-55 c19 -18 25 -35 25 -70 l0 -45 -80 0 -80 0 0 45 c0 57 32 95 80 95 19 0 40
-9 55 -25z M335 190 c-12 -19 6 -30 51 -30 37 0 44 3 44 20 0 17 -7 20 -44 20
-25 0 -48 -4 -51 -10z M335 120 c-12 -19 6 -30 51 -30 37 0 44 3 44 20 0 17
-7 20 -44 20 -25 0 -48 -4 -51 -10z"/>
</g>
</svg>

