<?xml version="1.0" standalone="no"?>
<!DOCTYPE svg PUBLIC "-//W3C//DTD SVG 20010904//EN"
 "http://www.w3.org/TR/2001/REC-SVG-20010904/DTD/svg10.dtd">
<svg version="1.0" xmlns="http://www.w3.org/2000/svg"
 width="48.000000pt" height="48.000000pt" viewBox="0 0 48.000000 48.000000"
 preserveAspectRatio="xMidYMid meet">
<metadata>
Created by potrace 1.16, written by Peter Selinger 2001-2019
</metadata>
<g transform="translate(0.000000,48.000000) scale(0.100000,-0.100000)"
fill="currentColor" stroke="currentColor" stroke-width="6" stroke-linejoin="round">
<path d="M175 462 c-41 -25 -56 -45 -65 -86 -6 -26 -4 -39 6 -47 18 -15 44 5
44 33 0 10 11 30 25 43 53 53 135 15 135 -63 l0 -39 -38 10 c-117 31 -220 -68
-197 -190 9 -49 69 -109 118 -118 112 -21 210 67 193 173 -3 20 -10 77 -16
126 -5 49 -17 100 -25 113 -39 59 -123 80 -180 45z m99 -264 c7 -12 7 -23 -2
-40 -6 -13 -12 -34 -14 -48 -4 -36 -32 -32 -36 5 -2 17 -8 34 -13 40 -13 13
-11 39 3 53 17 17 48 11 62 -10z"/>
</g>
</svg>

