<?xml version="1.0" standalone="no"?>
<!DOCTYPE svg PUBLIC "-//W3C//DTD SVG 20010904//EN"
 "http://www.w3.org/TR/2001/REC-SVG-20010904/DTD/svg10.dtd">
<svg version="1.0" xmlns="http://www.w3.org/2000/svg"
 width="48.000000pt" height="48.000000pt" viewBox="0 0 48.000000 48.000000"
 preserveAspectRatio="xMidYMid meet">
<metadata>
Created by potrace 1.16, written by Peter Selinger 2001-2019
</metadata>
<g transform="translate(0.000000,48.000000) scale(0.100000,-0.100000)"
fill="currentColor" stroke="currentColor" stroke-width="6" stroke-linejoin="round">
<path d="M173 460 c-43 -26 -61 -55 -68 -116 -5 -38 -12 -52 -29 -60 -20 -8
-21 -17 -24 -133 -2 -82 1 -128 9 -137 17 -20 341 -20 358 0 8 9 11 55 9 137
-3 116 -4 125 -25 133 -16 8 -23 22 -28 62 -3 29 -15 65 -27 79 -43 55 -118
70 -175 35z m122 -55 c19 -18 25 -35 25 -70 l0 -45 -80 0 -80 0 0 45 c0 57 32
95 80 95 19 0 40 -9 55 -25z m-21 -217 c7 -12 7 -23 -2 -40 -6 -13 -12 -34
-14 -48 -4 -36 -32 -32 -36 5 -2 17 -8 34 -13 40 -13 13 -11 39 3 53 17 17 48
11 62 -10z"/>
</g>
</svg>

