<?xml version="1.0" standalone="no"?>
<!DOCTYPE svg PUBLIC "-//W3C//DTD SVG 20010904//EN"
 "http://www.w3.org/TR/2001/REC-SVG-20010904/DTD/svg10.dtd">
<svg version="1.0" xmlns="http://www.w3.org/2000/svg"
 width="48.000000pt" height="48.000000pt" viewBox="0 0 48.000000 48.000000"
 preserveAspectRatio="xMidYMid meet">
<metadata>
Created by potrace 1.16, written by Peter Selinger 2001-2019
</metadata>
<g transform="translate(0.000000,48.000000) scale(0.100000,-0.100000)"
fill="currentColor" stroke="currentColor" stroke-width="6" stroke-linejoin="round">
<path d="M174 461 c-57 -35 -83 -94 -47 -108 11 -4 21 0 27 12 39 68 97 84
141 40 19 -18 25 -35 25 -70 l0 -45 -123 0 c-82 0 -127 -4 -135 -12 -17 -17
-17 -249 0 -266 18 -18 342 -17 357 2 8 9 11 55 9 137 -3 116 -4 125 -25 133
-16 8 -23 22 -28 62 -3 29 -15 65 -27 79 -43 55 -118 70 -174 36z m100 -273
c7 -12 7 -23 -2 -40 -6 -13 -12 -34 -14 -48 -4 -36 -32 -32 -36 5 -2 17 -8 34
-13 40 -13 13 -11 39 3 53 17 17 48 11 62 -10z"/>
</g>
</svg>

