<?xml version="1.0" standalone="no"?>
<!DOCTYPE svg PUBLIC "-//W3C//DTD SVG 20010904//EN"
 "http://www.w3.org/TR/2001/REC-SVG-20010904/DTD/svg10.dtd">
<svg version="1.0" xmlns="http://www.w3.org/2000/svg"
 width="48.000000pt" height="48.000000pt" viewBox="0 0 48.000000 48.000000"
 preserveAspectRatio="xMidYMid meet">
<metadata>
Created by potrace 1.16, written by Peter Selinger 2001-2019
</metadata>
<g transform="translate(0.000000,48.000000) scale(0.100000,-0.100000)"
fill="currentColor" stroke="currentColor" stroke-width="6" stroke-linejoin="round">
<path d="M140 457 l-85 -22 0 -195 0 -195 95 -23 c85 -21 95 -22 106 -8 8 12
30 16 87 16 59 0 76 3 81 16 8 20 8 368 0 388 -5 13 -22 16 -84 16 -60 0 -79
3 -84 15 -7 19 -11 18 -116 -8z m240 -217 l0 -170 -60 0 -60 0 0 170 0 170 60
0 60 0 0 -170z m-185 -10 c0 -16 -6 -26 -18 -28 -19 -4 -32 20 -23 44 9 25 41
13 41 -16z"/>
</g>
</svg>

