<?xml version="1.0" standalone="no"?>
<!DOCTYPE svg PUBLIC "-//W3C//DTD SVG 20010904//EN"
 "http://www.w3.org/TR/2001/REC-SVG-20010904/DTD/svg10.dtd">
<svg version="1.0" xmlns="http://www.w3.org/2000/svg"
 width="48.000000pt" height="48.000000pt" viewBox="0 0 48.000000 48.000000"
 preserveAspectRatio="xMidYMid meet">
<metadata>
Created by potrace 1.16, written by Peter Selinger 2001-2019
</metadata>
<g transform="translate(0.000000,48.000000) scale(0.100000,-0.100000)"
fill="currentColor" stroke="currentColor" stroke-width="6" stroke-linejoin="round">
<path d="M165 475 c-5 -2 -45 -11 -88 -20 l-77 -17 0 -198 0 -198 78 -17 c42
-9 87 -19 100 -22 15 -4 22 -1 22 11 0 12 15 16 83 18 l82 3 0 34 c0 39 -23
55 -32 22 -5 -19 -13 -21 -69 -21 l-64 0 0 170 0 170 64 0 c59 0 65 -2 68 -22
2 -13 10 -23 18 -23 11 0 15 11 15 40 l0 40 -82 3 c-65 2 -83 6 -83 17 0 14
-13 18 -35 10z m-20 -245 c0 -18 -6 -26 -23 -28 -24 -4 -38 18 -28 44 3 9 15
14 28 12 17 -2 23 -10 23 -28z M283 275 c-29 -20 -53 -40 -53 -45 0 -5 25 -26
55 -46 57 -38 85 -39 85 -5 0 17 8 20 53 23 48 3 52 5 52 28 0 23 -4 25 -52
28 -45 3 -52 6 -55 25 -5 33 -28 31 -85 -8z"/>
</g>
</svg>

