<?xml version="1.0" standalone="no"?>
<!DOCTYPE svg PUBLIC "-//W3C//DTD SVG 20010904//EN"
 "http://www.w3.org/TR/2001/REC-SVG-20010904/DTD/svg10.dtd">
<svg version="1.0" xmlns="http://www.w3.org/2000/svg"
 width="48.000000pt" height="48.000000pt" viewBox="0 0 48.000000 48.000000"
 preserveAspectRatio="xMidYMid meet">
<metadata>
Created by potrace 1.16, written by Peter Selinger 2001-2019
</metadata>
<g transform="translate(0.000000,48.000000) scale(0.100000,-0.100000)"
fill="currentColor" stroke="currentColor" stroke-width="6" stroke-linejoin="round">
<path d="M160 467 c-44 -14 -143 -110 -138 -135 5 -28 25 -20 56 24 39 53 92
79 162 79 99 0 166 -52 191 -148 24 -89 -20 -185 -104 -226 -87 -42 -192 -16
-249 63 -32 44 -51 52 -56 22 -6 -27 93 -118 144 -134 94 -28 169 -8 239 63
71 70 91 145 63 239 -16 55 -99 138 -154 154 -49 14 -106 14 -154 -1z M200
315 l0 -44 -97 -3 c-97 -3 -98 -3 -98 -28 0 -25 1 -25 98 -28 l97 -3 0 -44 c0
-34 4 -45 16 -45 17 0 154 107 154 121 0 14 -136 119 -154 119 -12 0 -16 -10
-16 -45z"/>
</g>
</svg>

