<?xml version="1.0" standalone="no"?>
<!DOCTYPE svg PUBLIC "-//W3C//DTD SVG 20010904//EN"
 "http://www.w3.org/TR/2001/REC-SVG-20010904/DTD/svg10.dtd">
<svg version="1.0" xmlns="http://www.w3.org/2000/svg"
 width="48.000000pt" height="48.000000pt" viewBox="0 0 48.000000 48.000000"
 preserveAspectRatio="xMidYMid meet">
<metadata>
Created by potrace 1.16, written by Peter Selinger 2001-2019
</metadata>
<g transform="translate(0.000000,48.000000) scale(0.100000,-0.100000)"
fill="currentColor" stroke="currentColor" stroke-width="6" stroke-linejoin="round">
<path d="M218 445 c-7 -16 -19 -25 -34 -25 -33 0 -39 -18 -15 -44 18 -20 20
-27 10 -55 -15 -41 -8 -47 31 -25 30 18 32 18 61 1 40 -22 53 -13 34 24 -15
28 -15 30 11 53 31 26 25 46 -12 46 -16 0 -28 8 -36 25 -6 14 -17 25 -25 25
-7 0 -19 -11 -25 -25z M82 431 c-11 -20 -25 -31 -39 -31 -33 0 -38 -19 -13
-45 21 -22 21 -27 10 -55 -16 -39 -9 -45 30 -25 17 9 39 13 49 10 27 -8 40 61
15 80 -11 8 -17 24 -16 48 2 48 -14 56 -36 18z M366 451 c-4 -6 -4 -21 -1 -33
4 -16 -1 -33 -14 -50 -17 -22 -19 -31 -10 -56 6 -19 16 -29 24 -26 7 3 28 -2
45 -11 39 -20 46 -14 30 25 -11 28 -11 33 10 55 25 27 20 45 -15 45 -14 0 -26
7 -30 19 -8 26 -31 45 -39 32z M204 260 c-62 -25 -82 -107 -39 -158 61 -73
175 -33 175 60 0 49 -22 83 -62 97 -36 13 -45 13 -74 1z m59 -97 c43 -6 48
-25 12 -49 -38 -25 -95 4 -95 48 0 17 4 19 23 13 12 -4 39 -9 60 -12z M171 37
c-44 -22 -28 -32 58 -35 106 -4 125 2 92 29 -27 22 -112 26 -150 6z"/>
</g>
</svg>

