<?xml version="1.0" standalone="no"?>
<!DOCTYPE svg PUBLIC "-//W3C//DTD SVG 20010904//EN"
 "http://www.w3.org/TR/2001/REC-SVG-20010904/DTD/svg10.dtd">
<svg version="1.0" xmlns="http://www.w3.org/2000/svg"
 width="48.000000pt" height="48.000000pt" viewBox="0 0 48.000000 48.000000"
 preserveAspectRatio="xMidYMid meet">
<metadata>
Created by potrace 1.16, written by Peter Selinger 2001-2019
</metadata>
<g transform="translate(0.000000,48.000000) scale(0.100000,-0.100000)"
fill="currentColor" stroke="currentColor" stroke-width="6" stroke-linejoin="round">
<path d="M132 433 c-66 -37 -96 -71 -97 -109 -1 -12 -9 -34 -18 -48 -9 -14
-17 -29 -17 -35 0 -20 34 -20 66 0 l34 21 31 -27 c39 -32 54 -28 54 15 0 18 5
35 12 37 25 9 90 -18 122 -51 32 -33 33 -35 17 -57 -17 -25 -22 -69 -7 -69 4
0 20 9 35 21 24 19 27 19 48 5 28 -20 58 -21 58 -2 0 7 -11 29 -24 48 -13 20
-27 54 -31 76 -8 51 -47 111 -91 141 -23 16 -34 32 -34 47 0 22 -4 24 -47 24
-36 -1 -64 -10 -111 -37z m6 -84 c-2 -6 -8 -10 -13 -10 -5 0 -11 4 -13 10 -2
6 4 11 13 11 9 0 15 -5 13 -11z M76 75 c-8 -9 -29 -21 -46 -26 -16 -6 -30 -17
-30 -25 0 -17 43 -19 72 -3 15 8 26 8 43 -1 14 -8 40 -10 66 -6 55 8 63 8 118
0 26 -4 52 -2 66 6 17 9 28 9 43 1 28 -15 72 -14 72 2 0 6 -23 23 -51 35 -46
22 -52 22 -68 8 -24 -22 -68 -20 -99 4 l-25 20 -22 -20 c-27 -26 -65 -26 -98
0 -23 18 -27 19 -41 5z"/>
</g>
</svg>

