<?xml version="1.0" standalone="no"?>
<!DOCTYPE svg PUBLIC "-//W3C//DTD SVG 20010904//EN"
 "http://www.w3.org/TR/2001/REC-SVG-20010904/DTD/svg10.dtd">
<svg version="1.0" xmlns="http://www.w3.org/2000/svg"
 width="48.000000pt" height="48.000000pt" viewBox="0 0 48.000000 48.000000"
 preserveAspectRatio="xMidYMid meet">
<metadata>
Created by potrace 1.16, written by Peter Selinger 2001-2019
</metadata>
<g transform="translate(0.000000,48.000000) scale(0.100000,-0.100000)"
fill="currentColor" stroke="currentColor" stroke-width="6" stroke-linejoin="round">
<path d="M12 468 c-17 -17 -17 -439 0 -456 17 -17 439 -17 456 0 17 17 17 439
0 456 -17 17 -439 17 -456 0z m428 -228 l0 -200 -200 0 -200 0 0 200 0 200
200 0 200 0 0 -200z M200 340 c-19 -37 -24 -40 -61 -40 -55 0 -61 -22 -19 -65
l33 -34 -17 -40 c-29 -63 -6 -77 64 -41 l40 20 40 -20 c70 -36 93 -22 64 41
l-17 40 33 34 c42 43 36 65 -19 65 -37 0 -42 3 -61 40 -13 26 -27 40 -40 40
-13 0 -27 -14 -40 -40z"/>
</g>
</svg>

