<?xml version="1.0" standalone="no"?>
<!DOCTYPE svg PUBLIC "-//W3C//DTD SVG 20010904//EN"
 "http://www.w3.org/TR/2001/REC-SVG-20010904/DTD/svg10.dtd">
<svg version="1.0" xmlns="http://www.w3.org/2000/svg"
 width="48.000000pt" height="48.000000pt" viewBox="0 0 48.000000 48.000000"
 preserveAspectRatio="xMidYMid meet">
<metadata>
Created by potrace 1.16, written by Peter Selinger 2001-2019
</metadata>
<g transform="translate(0.000000,48.000000) scale(0.100000,-0.100000)"
fill="currentColor" stroke="currentColor" stroke-width="6" stroke-linejoin="round">
<path d="M157 434 c-4 -4 -7 -15 -7 -25 0 -16 7 -17 70 -12 l70 6 0 -37 c0
-20 -4 -36 -10 -36 -5 0 -10 -9 -10 -20 0 -11 5 -20 10 -20 6 0 10 -13 10 -30
0 -16 -4 -30 -10 -30 -5 0 -10 -9 -10 -20 0 -11 5 -20 10 -20 6 0 10 -15 10
-32 0 -28 -6 -36 -36 -51 -19 -9 -51 -17 -70 -17 -31 0 -35 -3 -32 -22 3 -23
5 -23 163 -23 l160 0 0 195 0 195 -156 3 c-85 1 -158 -1 -162 -4z m283 -69 l0
-35 -50 0 -50 0 0 35 0 35 50 0 50 0 0 -35z m0 -105 c0 -29 -1 -30 -50 -30
-49 0 -50 1 -50 30 0 29 1 30 50 30 49 0 50 -1 50 -30z m0 -105 l0 -35 -50 0
-50 0 0 35 0 35 50 0 50 0 0 -35z M4 347 c-2 -7 -3 -60 -2 -118 l3 -104 115 0
115 0 0 115 0 115 -113 3 c-87 2 -114 0 -118 -11z m102 -54 c13 -17 15 -17 28
0 7 9 21 17 30 17 16 0 15 -4 -4 -35 l-22 -35 22 -35 c19 -31 20 -35 4 -35 -9
0 -23 8 -30 18 -13 16 -15 16 -28 0 -7 -10 -21 -18 -30 -18 -16 0 -15 4 4 35
l22 35 -22 35 c-19 31 -20 35 -4 35 9 0 23 -8 30 -17z"/>
</g>
</svg>

