<?xml version="1.0" standalone="no"?>
<!DOCTYPE svg PUBLIC "-//W3C//DTD SVG 20010904//EN"
 "http://www.w3.org/TR/2001/REC-SVG-20010904/DTD/svg10.dtd">
<svg version="1.0" xmlns="http://www.w3.org/2000/svg"
 width="48.000000pt" height="48.000000pt" viewBox="0 0 48.000000 48.000000"
 preserveAspectRatio="xMidYMid meet">
<metadata>
Created by potrace 1.16, written by Peter Selinger 2001-2019
</metadata>
<g transform="translate(0.000000,48.000000) scale(0.100000,-0.100000)"
fill="currentColor" stroke="currentColor" stroke-width="6" stroke-linejoin="round">
<path d="M16 427 c-14 -10 -16 -25 -14 -82 3 -66 4 -70 31 -79 32 -12 55 5 59
44 2 19 -2 26 -19 28 -13 2 -23 10 -23 18 0 12 32 14 190 14 162 0 190 -2 190
-15 0 -8 -9 -15 -19 -15 -28 0 -31 -10 -16 -48 15 -33 33 -39 66 -22 16 9 19
22 19 80 0 58 -3 71 -19 80 -30 15 -423 13 -445 -3z M141 317 c-18 -23 -43
-137 -45 -206 l-1 -66 145 0 145 0 -1 66 c-2 69 -27 183 -45 206 -16 18 -182
18 -198 0z m122 -47 c22 -26 22 -28 -10 -32 -38 -4 -38 -20 0 -38 42 -20 47
-53 13 -86 l-25 -25 -20 20 c-27 27 -26 29 6 33 38 4 39 22 1 39 -42 18 -48
52 -16 84 29 29 30 29 51 5z"/>
</g>
</svg>

