<?xml version="1.0" standalone="no"?>
<!DOCTYPE svg PUBLIC "-//W3C//DTD SVG 20010904//EN"
 "http://www.w3.org/TR/2001/REC-SVG-20010904/DTD/svg10.dtd">
<svg version="1.0" xmlns="http://www.w3.org/2000/svg"
 width="48.000000pt" height="48.000000pt" viewBox="0 0 48.000000 48.000000"
 preserveAspectRatio="xMidYMid meet">
<metadata>
Created by potrace 1.16, written by Peter Selinger 2001-2019
</metadata>
<g transform="translate(0.000000,48.000000) scale(0.100000,-0.100000)"
fill="currentColor" stroke="currentColor" stroke-width="6" stroke-linejoin="round">
<path d="M20 450 c-18 -18 -20 -33 -20 -170 0 -157 7 -190 44 -209 29 -15 229
-61 266 -61 43 0 50 23 50 160 0 154 1 153 -168 199 -72 20 -121 39 -119 45 2
6 13 9 23 7 10 -2 88 -5 172 -8 122 -4 152 -8 152 -19 0 -11 -15 -14 -61 -14
l-62 0 37 -25 c20 -14 48 -25 61 -25 16 0 25 -6 25 -15 0 -8 -7 -15 -15 -15
-13 0 -15 -15 -13 -92 3 -93 3 -93 28 -90 51 5 60 31 60 178 0 185 16 174
-240 174 -187 0 -201 -1 -220 -20z m280 -255 c23 -28 -9 -72 -45 -59 -36 14
-24 74 15 74 10 0 23 -7 30 -15z"/>
</g>
</svg>

