<?xml version="1.0" standalone="no"?>
<!DOCTYPE svg PUBLIC "-//W3C//DTD SVG 20010904//EN"
 "http://www.w3.org/TR/2001/REC-SVG-20010904/DTD/svg10.dtd">
<svg version="1.0" xmlns="http://www.w3.org/2000/svg"
 width="48.000000pt" height="48.000000pt" viewBox="0 0 48.000000 48.000000"
 preserveAspectRatio="xMidYMid meet">
<metadata>
Created by potrace 1.16, written by Peter Selinger 2001-2019
</metadata>
<g transform="translate(0.000000,48.000000) scale(0.100000,-0.100000)"
fill="currentColor" stroke="currentColor" stroke-width="6" stroke-linejoin="round">
<path d="M220 430 c-8 -5 -25 -10 -36 -10 -31 0 -39 -29 -16 -60 16 -21 27
-25 72 -25 45 0 56 4 72 25 23 32 15 60 -17 60 -13 0 -27 5 -30 10 -8 13 -26
13 -45 0z M45 340 c-12 -20 15 -50 45 -50 19 0 33 7 40 20 16 29 4 40 -40 40
-21 0 -42 -4 -45 -10z M345 340 c-12 -20 15 -50 45 -50 19 0 33 7 40 20 16 29
4 40 -40 40 -21 0 -42 -4 -45 -10z M151 275 c-86 -98 -49 -219 73 -232 78 -9
156 48 156 115 0 34 -27 93 -57 125 -23 23 -35 27 -84 27 -53 0 -59 -3 -88
-35z m122 -51 c29 -11 19 -24 -18 -24 -44 0 -46 -18 -2 -22 42 -4 49 -38 14
-61 -21 -13 -30 -14 -51 -4 -36 17 -32 27 9 27 44 0 46 18 3 22 -42 4 -50 34
-17 59 13 10 29 16 34 14 6 -3 18 -8 28 -11z M38 253 c-48 -55 -51 -112 -9
-154 34 -33 88 -42 76 -11 -29 70 -29 96 0 165 6 14 2 17 -22 17 -17 0 -37 -8
-45 -17z M375 253 c26 -65 28 -144 4 -159 -14 -9 0 -24 22 -24 34 0 79 53 79
93 0 51 -38 101 -79 105 -29 3 -33 1 -26 -15z"/>
</g>
</svg>

