<?xml version="1.0" standalone="no"?>
<!DOCTYPE svg PUBLIC "-//W3C//DTD SVG 20010904//EN"
 "http://www.w3.org/TR/2001/REC-SVG-20010904/DTD/svg10.dtd">
<svg version="1.0" xmlns="http://www.w3.org/2000/svg"
 width="48.000000pt" height="48.000000pt" viewBox="0 0 48.000000 48.000000"
 preserveAspectRatio="xMidYMid meet">
<metadata>
Created by potrace 1.16, written by Peter Selinger 2001-2019
</metadata>
<g transform="translate(0.000000,48.000000) scale(0.100000,-0.100000)"
fill="currentColor" stroke="currentColor" stroke-width="6" stroke-linejoin="round">
<path d="M62 457 c-28 -30 -28 -68 1 -95 30 -28 68 -28 95 1 28 30 28 68 -1
95 -30 28 -68 28 -95 -1z M232 457 c-28 -30 -28 -68 1 -95 30 -28 68 -28 95 1
28 30 28 68 -1 95 -30 28 -68 28 -95 -1z M59 304 c-29 -19 -59 -63 -59 -88 0
-14 15 -16 103 -16 101 0 104 1 117 25 13 24 12 28 -17 56 -38 39 -104 49
-144 23z M243 304 c-11 -29 11 -35 68 -20 53 14 54 14 26 25 -41 16 -87 14
-94 -5z M283 240 c-85 -51 -81 -179 6 -225 116 -60 239 71 171 182 -37 61
-116 81 -177 43z m85 -58 c3 -27 8 -31 35 -34 43 -4 43 -32 0 -36 -28 -3 -32
-7 -35 -35 -2 -20 -8 -32 -18 -32 -10 0 -16 12 -18 32 -3 28 -7 32 -35 35 -44
4 -43 32 1 36 28 3 32 7 32 31 0 52 33 55 38 3z"/>
</g>
</svg>

