<?xml version="1.0" standalone="no"?>
<!DOCTYPE svg PUBLIC "-//W3C//DTD SVG 20010904//EN"
 "http://www.w3.org/TR/2001/REC-SVG-20010904/DTD/svg10.dtd">
<svg version="1.0" xmlns="http://www.w3.org/2000/svg"
 width="48.000000pt" height="48.000000pt" viewBox="0 0 48.000000 48.000000"
 preserveAspectRatio="xMidYMid meet">
<metadata>
Created by potrace 1.16, written by Peter Selinger 2001-2019
</metadata>
<g transform="translate(0.000000,48.000000) scale(0.100000,-0.100000)"
fill="currentColor" stroke="currentColor" stroke-width="6" stroke-linejoin="round">
<path d="M210 466 c-28 -35 11 -93 48 -70 35 22 22 84 -18 84 -10 0 -23 -7
-30 -14z M186 359 c-48 -38 -35 -49 59 -49 82 0 85 1 75 19 -27 51 -89 65
-134 30z M227 264 c-4 -4 -7 -19 -7 -34 0 -15 -10 -36 -25 -50 -14 -13 -25
-29 -25 -36 0 -24 22 -26 46 -3 l24 22 24 -22 c24 -23 46 -21 46 3 0 7 -11 23
-24 35 -14 13 -26 37 -28 54 -3 30 -18 44 -31 31z M56 154 c-9 -8 -16 -22 -16
-29 0 -18 27 -45 45 -45 19 0 45 28 45 49 0 38 -45 54 -74 25z M362 158 c-25
-25 -2 -78 33 -78 18 0 45 27 45 45 0 35 -53 58 -78 33z M45 58 c-22 -12 -45
-37 -45 -50 0 -4 39 -8 86 -8 74 0 85 2 80 16 -3 9 -6 17 -6 20 0 8 -60 34
-77 34 -10 0 -27 -6 -38 -12z M335 45 c-40 -39 -32 -45 60 -45 47 0 85 3 85 8
-1 13 -24 38 -47 50 -35 19 -72 14 -98 -13z"/>
</g>
</svg>

