<?xml version="1.0" standalone="no"?>
<!DOCTYPE svg PUBLIC "-//W3C//DTD SVG 20010904//EN"
 "http://www.w3.org/TR/2001/REC-SVG-20010904/DTD/svg10.dtd">
<svg version="1.0" xmlns="http://www.w3.org/2000/svg"
 width="48.000000pt" height="48.000000pt" viewBox="0 0 48.000000 48.000000"
 preserveAspectRatio="xMidYMid meet">
<metadata>
Created by potrace 1.16, written by Peter Selinger 2001-2019
</metadata>
<g transform="translate(0.000000,48.000000) scale(0.100000,-0.100000)"
fill="currentColor" stroke="currentColor" stroke-width="6" stroke-linejoin="round">
<path d="M62 457 c-28 -30 -28 -68 1 -95 30 -28 68 -28 95 1 28 30 28 68 -1
95 -30 28 -68 28 -95 -1z M232 457 c-28 -30 -28 -68 1 -95 30 -28 68 -28 95 1
28 30 28 68 -1 95 -30 28 -68 28 -95 -1z M58 304 c-28 -15 -58 -61 -58 -89 0
-12 17 -15 103 -15 94 0 103 2 116 21 39 63 -83 126 -161 83z M253 313 c-15
-5 -17 -29 -4 -37 5 -4 33 0 63 8 53 14 53 14 25 25 -29 11 -63 13 -84 4z
M283 240 c-85 -51 -81 -179 6 -225 116 -60 239 71 171 182 -37 61 -116 81
-177 43z m103 -31 c9 -15 -100 -124 -115 -115 -22 14 -12 67 18 97 30 30 83
40 97 18z m52 -77 c3 -25 -4 -39 -27 -62 -30 -31 -83 -41 -97 -19 -7 13 95
121 111 116 5 -2 11 -18 13 -35z"/>
</g>
</svg>

