<?xml version="1.0" standalone="no"?>
<!DOCTYPE svg PUBLIC "-//W3C//DTD SVG 20010904//EN"
 "http://www.w3.org/TR/2001/REC-SVG-20010904/DTD/svg10.dtd">
<svg version="1.0" xmlns="http://www.w3.org/2000/svg"
 width="48.000000pt" height="48.000000pt" viewBox="0 0 48.000000 48.000000"
 preserveAspectRatio="xMidYMid meet">
<metadata>
Created by potrace 1.16, written by Peter Selinger 2001-2019
</metadata>
<g transform="translate(0.000000,48.000000) scale(0.100000,-0.100000)"
fill="currentColor" stroke="currentColor" stroke-width="6" stroke-linejoin="round">
<path d="M207 464 c-4 -4 -7 -20 -7 -35 0 -31 26 -45 61 -34 16 5 19 14 17 38
-3 27 -7 32 -33 35 -17 2 -34 0 -38 -4z M192 349 c-12 -11 -20 -24 -17 -30 8
-12 122 -12 130 0 9 16 -36 51 -65 51 -14 0 -36 -9 -48 -21z M126 245 c-21
-32 -20 -45 3 -45 18 0 51 38 51 60 0 20 -38 10 -54 -15z M220 235 c0 -28 4
-35 20 -35 16 0 20 7 20 35 0 28 -4 35 -20 35 -16 0 -20 -7 -20 -35z M300 260
c0 -22 33 -60 51 -60 23 0 24 13 3 45 -16 25 -54 35 -54 15z M37 154 c-4 -4
-7 -20 -7 -36 0 -32 18 -43 56 -34 21 6 25 11 22 39 -3 28 -7 32 -33 35 -17 2
-34 0 -38 -4z M207 154 c-4 -4 -7 -20 -7 -35 0 -31 26 -45 61 -34 16 5 19 14
17 38 -3 27 -7 32 -33 35 -17 2 -34 0 -38 -4z M377 154 c-4 -4 -7 -20 -7 -35
0 -31 26 -45 61 -34 16 5 19 14 17 38 -3 27 -7 32 -33 35 -17 2 -34 0 -38 -4z
M22 37 c-12 -13 -19 -27 -15 -30 8 -9 118 -9 126 0 13 12 -36 53 -63 53 -15 0
-36 -10 -48 -23z M192 37 c-12 -13 -19 -27 -15 -30 8 -9 118 -9 126 0 13 12
-36 53 -63 53 -15 0 -36 -10 -48 -23z M362 37 c-12 -13 -19 -27 -15 -30 8 -9
118 -9 126 0 13 12 -36 53 -63 53 -15 0 -36 -10 -48 -23z"/>
</g>
</svg>

