<?xml version="1.0" standalone="no"?>
<!DOCTYPE svg PUBLIC "-//W3C//DTD SVG 20010904//EN"
 "http://www.w3.org/TR/2001/REC-SVG-20010904/DTD/svg10.dtd">
<svg version="1.0" xmlns="http://www.w3.org/2000/svg"
 width="48.000000pt" height="48.000000pt" viewBox="0 0 48.000000 48.000000"
 preserveAspectRatio="xMidYMid meet">
<metadata>
Created by potrace 1.16, written by Peter Selinger 2001-2019
</metadata>
<g transform="translate(0.000000,48.000000) scale(0.100000,-0.100000)"
fill="currentColor" stroke="currentColor" stroke-width="6" stroke-linejoin="round">
<path d="M62 457 c-28 -30 -28 -68 1 -95 30 -28 68 -28 95 1 28 30 28 68 -1
95 -30 28 -68 28 -95 -1z M232 457 c-28 -30 -28 -68 1 -95 30 -28 68 -28 95 1
28 30 28 68 -1 95 -30 28 -68 28 -95 -1z M58 304 c-28 -15 -58 -61 -58 -89 0
-12 17 -15 103 -15 94 0 103 2 116 21 39 63 -83 126 -161 83z M243 304 c-11
-29 11 -35 68 -20 53 14 54 14 26 25 -41 16 -87 14 -94 -5z M283 240 c-85 -51
-81 -179 6 -225 116 -60 239 71 171 182 -37 61 -116 81 -177 43z m44 -62 l23
-21 25 23 c19 18 28 21 37 12 9 -9 6 -18 -12 -37 l-23 -25 23 -25 c18 -19 21
-28 12 -37 -9 -9 -18 -6 -37 12 l-25 23 -25 -23 c-19 -18 -28 -21 -37 -12 -9
9 -6 18 12 37 l23 25 -22 24 c-13 14 -20 29 -16 35 9 16 16 14 42 -11z"/>
</g>
</svg>

