<?xml version="1.0" standalone="no"?>
<!DOCTYPE svg PUBLIC "-//W3C//DTD SVG 20010904//EN"
 "http://www.w3.org/TR/2001/REC-SVG-20010904/DTD/svg10.dtd">
<svg version="1.0" xmlns="http://www.w3.org/2000/svg"
 width="48.000000pt" height="48.000000pt" viewBox="0 0 48.000000 48.000000"
 preserveAspectRatio="xMidYMid meet">
<metadata>
Created by potrace 1.16, written by Peter Selinger 2001-2019
</metadata>
<g transform="translate(0.000000,48.000000) scale(0.100000,-0.100000)"
fill="currentColor" stroke="currentColor" stroke-width="6" stroke-linejoin="round">
<path d="M197 462 c-23 -26 -22 -79 2 -94 18 -11 18 -13 -10 -39 -24 -22 -29
-35 -29 -73 0 -30 5 -48 15 -54 9 -4 19 -28 23 -52 7 -43 9 -45 42 -45 33 0
35 2 42 45 4 24 14 48 23 52 10 6 15 24 15 54 0 38 -5 51 -29 73 -28 26 -28
28 -10 39 25 16 26 73 1 95 -24 22 -65 21 -85 -1z M36 424 c-20 -20 -21 -58
-1 -74 13 -11 12 -16 -10 -42 -30 -35 -32 -73 -6 -88 13 -7 21 -23 23 -48 3
-32 6 -37 28 -37 21 0 26 6 34 43 6 23 16 42 23 42 25 0 16 69 -13 95 -15 14
-22 25 -15 25 6 0 16 11 23 25 23 52 -46 100 -86 59z M364 415 c-14 -21 -15
-31 -6 -50 7 -14 17 -25 23 -25 7 0 0 -11 -15 -25 -29 -26 -38 -95 -13 -95 7
0 17 -19 23 -42 8 -37 13 -43 34 -43 22 0 25 5 28 37 2 25 10 41 23 48 26 15
24 53 -6 88 -22 26 -23 31 -10 42 20 16 19 54 -1 74 -24 24 -61 20 -80 -9z
M323 103 c-7 -19 14 -33 49 -33 15 0 29 -4 32 -9 11 -18 -175 -27 -282 -15
-55 7 -72 24 -23 24 39 0 61 9 61 26 0 20 -77 18 -120 -4 -46 -22 -44 -42 5
-67 35 -17 60 -20 195 -20 135 0 160 3 194 20 22 11 42 25 44 32 5 18 -41 43
-98 52 -42 7 -53 5 -57 -6z"/>
</g>
</svg>

