<?xml version="1.0" standalone="no"?>
<!DOCTYPE svg PUBLIC "-//W3C//DTD SVG 20010904//EN"
 "http://www.w3.org/TR/2001/REC-SVG-20010904/DTD/svg10.dtd">
<svg version="1.0" xmlns="http://www.w3.org/2000/svg"
 width="48.000000pt" height="48.000000pt" viewBox="0 0 48.000000 48.000000"
 preserveAspectRatio="xMidYMid meet">
<metadata>
Created by potrace 1.16, written by Peter Selinger 2001-2019
</metadata>
<g transform="translate(0.000000,48.000000) scale(0.100000,-0.100000)"
fill="currentColor" stroke="currentColor" stroke-width="6" stroke-linejoin="round">
<path d="M160 467 c-49 -16 -133 -102 -148 -153 -28 -94 -8 -169 63 -239 101
-102 229 -102 330 0 102 101 102 229 0 330 -70 71 -152 91 -245 62z m140 -152
c42 -43 51 -58 42 -67 -9 -9 -18 -6 -40 15 -15 15 -31 27 -35 27 -3 0 -8 -42
-9 -92 -2 -75 -6 -93 -18 -93 -12 0 -16 18 -18 93 -1 50 -6 92 -9 92 -4 0 -20
-12 -35 -27 -22 -21 -31 -24 -40 -15 -9 9 0 24 42 67 30 30 57 55 60 55 3 0
30 -25 60 -55z"/>
</g>
</svg>

