<?xml version="1.0" standalone="no"?>
<!DOCTYPE svg PUBLIC "-//W3C//DTD SVG 20010904//EN"
 "http://www.w3.org/TR/2001/REC-SVG-20010904/DTD/svg10.dtd">
<svg version="1.0" xmlns="http://www.w3.org/2000/svg"
 width="48.000000pt" height="48.000000pt" viewBox="0 0 48.000000 48.000000"
 preserveAspectRatio="xMidYMid meet">
<metadata>
Created by potrace 1.16, written by Peter Selinger 2001-2019
</metadata>
<g transform="translate(0.000000,48.000000) scale(0.100000,-0.100000)"
fill="currentColor" stroke="currentColor" stroke-width="6" stroke-linejoin="round">
<path d="M14 415 c-4 -8 -4 -22 0 -30 5 -13 37 -15 228 -13 l223 3 0 25 0 25
-223 3 c-191 2 -223 0 -228 -13z M14 255 c-4 -8 -4 -22 0 -30 5 -13 37 -15
228 -13 l223 3 0 25 0 25 -223 3 c-191 2 -223 0 -228 -13z M14 95 c-4 -8 -4
-22 0 -30 5 -13 37 -15 228 -13 l223 3 0 25 0 25 -223 3 c-191 2 -223 0 -228
-13z"/>
</g>
</svg>

