<?xml version="1.0" standalone="no"?>
<!DOCTYPE svg PUBLIC "-//W3C//DTD SVG 20010904//EN"
 "http://www.w3.org/TR/2001/REC-SVG-20010904/DTD/svg10.dtd">
<svg version="1.0" xmlns="http://www.w3.org/2000/svg"
 width="48.000000pt" height="48.000000pt" viewBox="0 0 48.000000 48.000000"
 preserveAspectRatio="xMidYMid meet">
<metadata>
Created by potrace 1.16, written by Peter Selinger 2001-2019
</metadata>
<g transform="translate(0.000000,48.000000) scale(0.100000,-0.100000)"
fill="currentColor" stroke="currentColor" stroke-width="6" stroke-linejoin="round">
<path d="M160 467 c-49 -16 -133 -102 -148 -153 -28 -94 -8 -169 63 -239 101
-102 229 -102 330 0 102 101 102 229 0 330 -70 71 -152 91 -245 62z m190 -61
c59 -39 85 -89 85 -166 0 -78 -26 -127 -88 -168 -56 -37 -153 -39 -210 -3 -76
47 -111 140 -88 229 14 51 75 117 123 131 53 16 135 6 178 -23z M135 300 l-39
-40 41 -41 c41 -42 63 -45 63 -8 0 18 6 20 62 17 67 -3 87 -21 43 -38 -20 -7
-26 -16 -23 -33 5 -33 51 -35 83 -3 33 33 33 79 0 111 -21 22 -33 25 -94 25
-64 0 -70 2 -73 22 -5 34 -21 31 -63 -12z"/>
</g>
</svg>

