<?xml version="1.0" standalone="no"?>
<!DOCTYPE svg PUBLIC "-//W3C//DTD SVG 20010904//EN"
 "http://www.w3.org/TR/2001/REC-SVG-20010904/DTD/svg10.dtd">
<svg version="1.0" xmlns="http://www.w3.org/2000/svg"
 width="48.000000pt" height="48.000000pt" viewBox="0 0 48.000000 48.000000"
 preserveAspectRatio="xMidYMid meet">
<metadata>
Created by potrace 1.16, written by Peter Selinger 2001-2019
</metadata>
<g transform="translate(0.000000,48.000000) scale(0.100000,-0.100000)"
fill="currentColor" stroke="currentColor" stroke-width="6" stroke-linejoin="round">
<path d="M64 406 c-3 -8 -4 -25 -2 -38 l3 -23 175 0 175 0 0 35 0 35 -173 3
c-143 2 -173 0 -178 -12z M64 266 c-3 -8 -4 -25 -2 -38 l3 -23 175 0 175 0 0
35 0 35 -173 3 c-143 2 -173 0 -178 -12z M64 126 c-3 -8 -4 -25 -2 -38 l3 -23
175 0 175 0 0 35 0 35 -173 3 c-143 2 -173 0 -178 -12z"/>
</g>
</svg>

