<?xml version="1.0" standalone="no"?>
<!DOCTYPE svg PUBLIC "-//W3C//DTD SVG 20010904//EN"
 "http://www.w3.org/TR/2001/REC-SVG-20010904/DTD/svg10.dtd">
<svg version="1.0" xmlns="http://www.w3.org/2000/svg"
 width="48.000000pt" height="48.000000pt" viewBox="0 0 48.000000 48.000000"
 preserveAspectRatio="xMidYMid meet">
<metadata>
Created by potrace 1.16, written by Peter Selinger 2001-2019
</metadata>
<g transform="translate(0.000000,48.000000) scale(0.100000,-0.100000)"
fill="currentColor" stroke="currentColor" stroke-width="6" stroke-linejoin="round">
<path d="M160 467 c-49 -16 -133 -102 -148 -153 -28 -94 -8 -169 63 -239 101
-102 229 -102 330 0 102 101 102 229 0 330 -70 71 -152 91 -245 62z m98 -185
c1 -51 6 -92 9 -92 4 0 20 12 35 27 22 21 31 24 40 15 10 -10 0 -25 -45 -70
l-57 -57 -57 57 c-45 45 -55 60 -45 70 9 9 18 6 40 -15 15 -15 31 -27 35 -27
4 0 7 40 7 88 0 49 3 92 7 96 19 19 28 -8 31 -92z"/>
</g>
</svg>

