<?xml version="1.0" standalone="no"?>
<!DOCTYPE svg PUBLIC "-//W3C//DTD SVG 20010904//EN"
 "http://www.w3.org/TR/2001/REC-SVG-20010904/DTD/svg10.dtd">
<svg version="1.0" xmlns="http://www.w3.org/2000/svg"
 width="48.000000pt" height="48.000000pt" viewBox="0 0 48.000000 48.000000"
 preserveAspectRatio="xMidYMid meet">
<metadata>
Created by potrace 1.16, written by Peter Selinger 2001-2019
</metadata>
<g transform="translate(0.000000,48.000000) scale(0.100000,-0.100000)"
fill="currentColor" stroke="currentColor" stroke-width="6" stroke-linejoin="round">
<path d="M160 467 c-49 -16 -133 -102 -148 -153 -28 -94 -8 -169 63 -239 101
-102 229 -102 330 0 102 101 102 229 0 330 -70 71 -152 91 -245 62z m192 -164
c21 -20 38 -42 38 -47 0 -11 -70 -86 -81 -86 -4 0 -9 9 -12 20 -4 17 -14 20
-71 20 -53 0 -68 -3 -73 -16 -4 -10 1 -22 10 -29 22 -16 22 -25 0 -25 -42 1
-78 55 -68 101 10 45 39 59 123 59 65 0 74 2 79 20 7 27 11 26 55 -17z"/>
</g>
</svg>

