<?xml version="1.0" standalone="no"?>
<!DOCTYPE svg PUBLIC "-//W3C//DTD SVG 20010904//EN"
 "http://www.w3.org/TR/2001/REC-SVG-20010904/DTD/svg10.dtd">
<svg version="1.0" xmlns="http://www.w3.org/2000/svg"
 width="48.000000pt" height="48.000000pt" viewBox="0 0 48.000000 48.000000"
 preserveAspectRatio="xMidYMid meet">
<metadata>
Created by potrace 1.16, written by Peter Selinger 2001-2019
</metadata>
<g transform="translate(0.000000,48.000000) scale(0.100000,-0.100000)"
fill="currentColor" stroke="currentColor" stroke-width="6" stroke-linejoin="round">
<path d="M160 467 c-49 -16 -133 -102 -148 -153 -28 -94 -8 -169 63 -239 101
-102 229 -102 330 0 102 101 102 229 0 330 -70 71 -152 91 -245 62z m23 -147
c5 -18 14 -20 81 -20 83 0 109 -14 122 -64 8 -33 -21 -84 -52 -92 -32 -8 -43
2 -19 20 11 8 16 20 12 30 -5 13 -20 16 -73 16 -57 0 -67 -3 -71 -20 -3 -11
-8 -20 -11 -20 -10 0 -82 74 -82 84 0 11 70 86 81 86 4 0 9 -9 12 -20z"/>
</g>
</svg>

