<?xml version="1.0" standalone="no"?>
<!DOCTYPE svg PUBLIC "-//W3C//DTD SVG 20010904//EN"
 "http://www.w3.org/TR/2001/REC-SVG-20010904/DTD/svg10.dtd">
<svg version="1.0" xmlns="http://www.w3.org/2000/svg"
 width="48.000000pt" height="48.000000pt" viewBox="0 0 48.000000 48.000000"
 preserveAspectRatio="xMidYMid meet">
<metadata>
Created by potrace 1.16, written by Peter Selinger 2001-2019
</metadata>
<g transform="translate(0.000000,48.000000) scale(0.100000,-0.100000)"
fill="currentColor" stroke="currentColor" stroke-width="6" stroke-linejoin="round">
<path d="M153 468 c-6 -7 -16 -30 -23 -52 l-12 -38 61 -62 61 -61 61 61 61 62
-12 38 c-20 61 -25 64 -110 64 -50 0 -81 -4 -87 -12z M17 352 c-13 -14 -17
-38 -17 -96 l0 -78 48 -45 c26 -24 57 -51 70 -60 33 -23 27 -32 -25 -35 -35
-2 -48 -7 -48 -18 0 -13 28 -15 195 -15 167 0 195 2 195 15 0 11 -15 16 -53
20 l-53 5 76 68 75 68 0 78 c0 63 -4 81 -18 94 -36 32 -63 21 -140 -56 l-73
-74 18 -31 c21 -38 10 -67 -27 -67 -37 0 -48 29 -27 67 l18 31 -73 74 c-78 78
-109 90 -141 55z"/>
</g>
</svg>

