<?xml version="1.0" standalone="no"?>
<!DOCTYPE svg PUBLIC "-//W3C//DTD SVG 20010904//EN"
 "http://www.w3.org/TR/2001/REC-SVG-20010904/DTD/svg10.dtd">
<svg version="1.0" xmlns="http://www.w3.org/2000/svg"
 width="48.000000pt" height="48.000000pt" viewBox="0 0 48.000000 48.000000"
 preserveAspectRatio="xMidYMid meet">
<metadata>
Created by potrace 1.16, written by Peter Selinger 2001-2019
</metadata>
<g transform="translate(0.000000,48.000000) scale(0.100000,-0.100000)"
fill="currentColor" stroke="currentColor" stroke-width="6" stroke-linejoin="round">
<path d="M152 468 c-5 -7 -13 -24 -17 -38 -12 -40 -35 -60 -70 -60 -51 0 -65
-24 -65 -114 l0 -78 47 -45 c27 -24 58 -51 71 -60 33 -23 27 -32 -25 -35 -35
-2 -48 -7 -48 -18 0 -13 28 -15 195 -15 167 0 195 2 195 15 0 11 -15 16 -53
20 l-53 5 76 68 75 68 0 78 c0 88 -14 111 -67 111 -33 0 -56 21 -68 60 -13 45
-24 50 -105 50 -50 0 -81 -4 -88 -12z m-4 -160 c-2 -13 -10 -23 -18 -23 -8 0
-16 10 -18 23 -3 17 2 22 18 22 16 0 21 -5 18 -22z m225 8 c7 -17 -18 -40 -33
-31 -5 3 -10 15 -10 26 0 23 35 27 43 5z m-176 -62 c8 -22 -18 -37 -36 -20 -7
8 -10 19 -7 25 10 16 36 13 43 -5z m131 -5 c4 -19 -19 -31 -38 -19 -18 11 -4
42 17 38 10 -2 19 -10 21 -19z m-62 -64 c22 -41 11 -70 -26 -70 -37 0 -48 29
-26 70 11 19 22 35 26 35 4 0 15 -16 26 -35z"/>
</g>
</svg>

