<?xml version="1.0" standalone="no"?>
<!DOCTYPE svg PUBLIC "-//W3C//DTD SVG 20010904//EN"
 "http://www.w3.org/TR/2001/REC-SVG-20010904/DTD/svg10.dtd">
<svg version="1.0" xmlns="http://www.w3.org/2000/svg"
 width="48.000000pt" height="48.000000pt" viewBox="0 0 48.000000 48.000000"
 preserveAspectRatio="xMidYMid meet">
<metadata>
Created by potrace 1.16, written by Peter Selinger 2001-2019
</metadata>
<g transform="translate(0.000000,48.000000) scale(0.100000,-0.100000)"
fill="currentColor" stroke="currentColor" stroke-width="6" stroke-linejoin="round">
<path d="M153 468 c-6 -7 -15 -29 -22 -48 -11 -32 -10 -37 10 -52 52 -43 146
-43 198 0 20 15 21 20 10 52 -19 57 -25 60 -109 60 -50 0 -81 -4 -87 -12z M17
352 c-13 -14 -17 -38 -17 -96 l0 -78 48 -45 c26 -24 57 -51 70 -60 33 -23 27
-32 -25 -35 -35 -2 -48 -7 -48 -18 0 -13 28 -15 195 -15 167 0 195 2 195 15 0
11 -15 16 -53 20 l-53 5 76 68 75 68 0 78 c0 87 -14 111 -63 111 -21 0 -27 -5
-27 -20 0 -34 -37 -96 -77 -129 -44 -37 -83 -40 -131 -11 -38 23 -92 104 -92
137 0 19 -5 23 -28 23 -16 0 -36 -8 -45 -18z m161 -184 c-2 -13 -10 -23 -18
-23 -8 0 -16 10 -18 23 -3 17 2 22 18 22 16 0 21 -5 18 -22z m160 0 c-2 -13
-10 -23 -18 -23 -8 0 -16 10 -18 23 -3 17 2 22 18 22 16 0 21 -5 18 -22z m-80
-26 c3 -17 -2 -22 -17 -22 -14 0 -21 6 -21 18 0 38 33 41 38 4z M139 301 c24
-46 69 -81 104 -81 33 0 73 34 98 81 l20 40 -33 -17 c-43 -23 -133 -23 -176 0
l-33 17 20 -40z"/>
</g>
</svg>

