<?xml version="1.0" standalone="no"?>
<!DOCTYPE svg PUBLIC "-//W3C//DTD SVG 20010904//EN"
 "http://www.w3.org/TR/2001/REC-SVG-20010904/DTD/svg10.dtd">
<svg version="1.0" xmlns="http://www.w3.org/2000/svg"
 width="48.000000pt" height="48.000000pt" viewBox="0 0 48.000000 48.000000"
 preserveAspectRatio="xMidYMid meet">
<metadata>
Created by potrace 1.16, written by Peter Selinger 2001-2019
</metadata>
<g transform="translate(0.000000,48.000000) scale(0.100000,-0.100000)"
fill="currentColor" stroke="currentColor" stroke-width="6" stroke-linejoin="round">
<path d="M212 454 c-122 -60 -167 -204 -104 -325 48 -92 158 -146 251 -123 48
12 50 34 4 59 -20 11 -50 37 -67 58 -29 36 -31 45 -31 117 0 72 2 81 31 117
17 21 47 47 67 58 43 23 47 42 11 55 -45 18 -107 11 -162 -16z m69 -49 c-43
-50 -63 -101 -63 -165 0 -64 20 -115 63 -165 35 -40 24 -46 -39 -20 -162 68
-164 299 -2 369 19 8 43 15 54 16 15 0 13 -6 -13 -35z"/>
</g>
</svg>

