<?xml version="1.0" standalone="no"?>
<!DOCTYPE svg PUBLIC "-//W3C//DTD SVG 20010904//EN"
 "http://www.w3.org/TR/2001/REC-SVG-20010904/DTD/svg10.dtd">
<svg version="1.0" xmlns="http://www.w3.org/2000/svg"
 width="48.000000pt" height="48.000000pt" viewBox="0 0 48.000000 48.000000"
 preserveAspectRatio="xMidYMid meet">
<metadata>
Created by potrace 1.16, written by Peter Selinger 2001-2019
</metadata>
<g transform="translate(0.000000,48.000000) scale(0.100000,-0.100000)"
fill="currentColor" stroke="currentColor" stroke-width="6" stroke-linejoin="round">
<path d="M103 470 c-34 -14 -27 -32 25 -65 69 -44 94 -93 90 -177 -3 -57 -8
-73 -34 -105 -17 -21 -47 -47 -67 -58 -46 -25 -44 -47 4 -59 94 -23 203 30
252 124 79 151 -24 338 -191 347 -31 1 -67 -2 -79 -7z m135 -45 c163 -69 163
-301 0 -370 -63 -26 -74 -20 -39 20 43 50 63 101 63 165 0 64 -20 115 -63 165
-35 40 -24 46 39 20z"/>
</g>
</svg>

