<?xml version="1.0" standalone="no"?>
<!DOCTYPE svg PUBLIC "-//W3C//DTD SVG 20010904//EN"
 "http://www.w3.org/TR/2001/REC-SVG-20010904/DTD/svg10.dtd">
<svg version="1.0" xmlns="http://www.w3.org/2000/svg"
 width="48.000000pt" height="48.000000pt" viewBox="0 0 48.000000 48.000000"
 preserveAspectRatio="xMidYMid meet">
<metadata>
Created by potrace 1.16, written by Peter Selinger 2001-2019
</metadata>
<g transform="translate(0.000000,48.000000) scale(0.100000,-0.100000)"
fill="currentColor" stroke="currentColor" stroke-width="6" stroke-linejoin="round">
<path d="M87 474 c-4 -4 -7 -16 -7 -26 0 -13 -8 -18 -28 -18 -15 0 -33 -5 -40
-12 -17 -17 -17 -299 0 -316 7 -7 44 -12 95 -12 76 0 83 2 83 20 0 18 -7 20
-75 20 l-75 0 0 130 c0 114 2 130 16 130 9 0 23 -8 30 -17 13 -17 15 -17 28 0
7 9 19 17 26 17 7 0 19 -8 26 -17 13 -17 15 -17 28 0 7 9 19 17 26 17 7 0 19
-8 26 -17 13 -17 15 -17 28 0 24 31 36 20 36 -33 0 -43 3 -50 20 -50 18 0 20
7 20 58 0 62 -11 82 -46 82 -16 0 -24 7 -26 23 -2 12 -10 22 -18 22 -8 0 -16
-10 -18 -22 -2 -15 -10 -23 -22 -23 -12 0 -20 8 -22 23 -2 12 -10 22 -18 22
-8 0 -16 -10 -18 -22 -4 -30 -39 -31 -44 -1 -3 22 -19 33 -31 22z M283 240
c-85 -51 -81 -179 6 -225 116 -60 239 71 171 182 -37 61 -116 81 -177 43z
m101 -28 c7 -11 -108 -125 -117 -116 -17 18 -6 67 22 95 29 28 83 40 95 21z
m54 -80 c3 -25 -4 -39 -27 -62 -30 -31 -83 -41 -97 -19 -7 13 95 121 111 116
5 -2 11 -18 13 -35z"/>
</g>
</svg>

