<?xml version="1.0" standalone="no"?>
<!DOCTYPE svg PUBLIC "-//W3C//DTD SVG 20010904//EN"
 "http://www.w3.org/TR/2001/REC-SVG-20010904/DTD/svg10.dtd">
<svg version="1.0" xmlns="http://www.w3.org/2000/svg"
 width="48.000000pt" height="48.000000pt" viewBox="0 0 48.000000 48.000000"
 preserveAspectRatio="xMidYMid meet">
<metadata>
Created by potrace 1.16, written by Peter Selinger 2001-2019
</metadata>
<g transform="translate(0.000000,48.000000) scale(0.100000,-0.100000)"
fill="currentColor" stroke="currentColor" stroke-width="6" stroke-linejoin="round">
<path d="M193 469 c-104 -19 -185 -120 -185 -230 0 -141 133 -254 271 -229
125 23 213 148 191 270 -23 126 -150 212 -277 189z m65 -211 c2 -67 5 -77 23
-81 41 -11 14 -32 -41 -32 -55 0 -82 21 -41 32 30 8 31 78 1 86 -25 7 -26 27
-1 34 11 3 22 14 24 25 3 11 12 18 19 16 9 -3 14 -29 16 -80z"/>
</g>
</svg>

