<?xml version="1.0" standalone="no"?>
<!DOCTYPE svg PUBLIC "-//W3C//DTD SVG 20010904//EN"
 "http://www.w3.org/TR/2001/REC-SVG-20010904/DTD/svg10.dtd">
<svg version="1.0" xmlns="http://www.w3.org/2000/svg"
 width="48.000000pt" height="48.000000pt" viewBox="0 0 48.000000 48.000000"
 preserveAspectRatio="xMidYMid meet">
<metadata>
Created by potrace 1.16, written by Peter Selinger 2001-2019
</metadata>
<g transform="translate(0.000000,48.000000) scale(0.100000,-0.100000)"
fill="currentColor" stroke="currentColor" stroke-width="6" stroke-linejoin="round">
<path d="M193 469 c-104 -19 -185 -120 -185 -230 0 -141 133 -254 271 -229
125 23 213 148 191 270 -23 126 -150 212 -277 189z m87 -149 c34 -34 21 -79
-30 -105 -40 -21 -38 -33 8 -37 25 -2 37 -8 37 -18 0 -12 -13 -15 -55 -15 -55
0 -55 0 -58 32 -3 32 -2 34 58 82 20 15 22 22 13 32 -10 10 -16 9 -32 -5 -21
-19 -41 -14 -41 9 0 17 38 45 62 45 10 0 27 -9 38 -20z"/>
</g>
</svg>

