<?xml version="1.0" standalone="no"?>
<!DOCTYPE svg PUBLIC "-//W3C//DTD SVG 20010904//EN"
 "http://www.w3.org/TR/2001/REC-SVG-20010904/DTD/svg10.dtd">
<svg version="1.0" xmlns="http://www.w3.org/2000/svg"
 width="48.000000pt" height="48.000000pt" viewBox="0 0 48.000000 48.000000"
 preserveAspectRatio="xMidYMid meet">
<metadata>
Created by potrace 1.16, written by Peter Selinger 2001-2019
</metadata>
<g transform="translate(0.000000,48.000000) scale(0.100000,-0.100000)"
fill="currentColor" stroke="currentColor" stroke-width="6" stroke-linejoin="round">
<path d="M193 469 c-104 -19 -185 -120 -185 -230 0 -141 133 -254 271 -229
125 23 213 148 191 270 -23 126 -150 212 -277 189z m101 -138 c3 -5 -1 -26
-10 -47 -9 -22 -19 -61 -23 -89 -4 -35 -10 -50 -21 -50 -17 0 -20 66 -6 123 7
30 6 32 -18 32 -27 0 -41 14 -31 30 8 12 102 13 109 1z"/>
</g>
</svg>

