<?xml version="1.0" standalone="no"?>
<!DOCTYPE svg PUBLIC "-//W3C//DTD SVG 20010904//EN"
 "http://www.w3.org/TR/2001/REC-SVG-20010904/DTD/svg10.dtd">
<svg version="1.0" xmlns="http://www.w3.org/2000/svg"
 width="48.000000pt" height="48.000000pt" viewBox="0 0 48.000000 48.000000"
 preserveAspectRatio="xMidYMid meet">
<metadata>
Created by potrace 1.16, written by Peter Selinger 2001-2019
</metadata>
<g transform="translate(0.000000,48.000000) scale(0.100000,-0.100000)"
fill="currentColor" stroke="currentColor" stroke-width="6" stroke-linejoin="round">
<path d="M193 469 c-104 -19 -185 -120 -185 -230 0 -141 133 -254 271 -229
125 23 213 148 191 270 -23 126 -150 212 -277 189z m97 -149 c0 -16 -7 -20
-35 -20 -44 0 -45 -13 -3 -25 57 -17 65 -103 13 -127 -44 -20 -106 25 -77 54
9 9 17 7 32 -7 23 -21 44 -9 38 21 -3 15 -11 18 -41 16 -33 -3 -37 0 -37 21 0
14 3 39 6 56 6 30 9 31 55 31 42 0 49 -3 49 -20z"/>
</g>
</svg>

