<?xml version="1.0" standalone="no"?>
<!DOCTYPE svg PUBLIC "-//W3C//DTD SVG 20010904//EN"
 "http://www.w3.org/TR/2001/REC-SVG-20010904/DTD/svg10.dtd">
<svg version="1.0" xmlns="http://www.w3.org/2000/svg"
 width="48.000000pt" height="48.000000pt" viewBox="0 0 48.000000 48.000000"
 preserveAspectRatio="xMidYMid meet">
<metadata>
Created by potrace 1.16, written by Peter Selinger 2001-2019
</metadata>
<g transform="translate(0.000000,48.000000) scale(0.100000,-0.100000)"
fill="currentColor" stroke="currentColor" stroke-width="6" stroke-linejoin="round">
<path d="M193 469 c-104 -19 -185 -120 -185 -230 0 -141 133 -254 271 -229
125 23 213 148 191 270 -23 126 -150 212 -277 189z m87 -149 c16 -16 20 -33
20 -80 0 -65 -21 -100 -60 -100 -39 0 -60 35 -60 100 0 65 21 100 60 100 11 0
29 -9 40 -20z M224 287 c-11 -29 0 -102 16 -102 19 0 22 106 3 112 -7 3 -16
-2 -19 -10z"/>
</g>
</svg>

