<?xml version="1.0" standalone="no"?>
<!DOCTYPE svg PUBLIC "-//W3C//DTD SVG 20010904//EN"
 "http://www.w3.org/TR/2001/REC-SVG-20010904/DTD/svg10.dtd">
<svg version="1.0" xmlns="http://www.w3.org/2000/svg"
 width="48.000000pt" height="48.000000pt" viewBox="0 0 48.000000 48.000000"
 preserveAspectRatio="xMidYMid meet">
<metadata>
Created by potrace 1.16, written by Peter Selinger 2001-2019
</metadata>
<g transform="translate(0.000000,48.000000) scale(0.100000,-0.100000)"
fill="currentColor" stroke="currentColor" stroke-width="6" stroke-linejoin="round">
<path d="M315 436 c-17 -7 -56 -42 -86 -76 l-56 -63 -42 16 c-55 22 -87 21
-111 -3 -44 -44 -12 -123 50 -123 35 0 63 25 58 53 -4 20 -38 26 -38 7 0 -21
-26 -29 -40 -12 -18 22 -8 50 20 53 29 3 88 -30 97 -55 4 -11 0 -21 -12 -27
-64 -37 -83 -92 -47 -137 24 -28 79 -31 98 -4 18 24 18 40 -2 59 -23 24 -37
19 -31 -10 4 -21 1 -25 -17 -22 -15 2 -21 10 -21 28 0 18 10 30 40 47 22 12
43 23 47 23 11 0 98 -91 98 -102 0 -6 -9 -12 -20 -15 -23 -6 -27 -31 -6 -39
44 -17 80 48 51 92 -9 14 -14 29 -10 32 10 10 87 -21 99 -40 14 -23 -2 -37
-18 -15 -19 25 -36 21 -36 -8 0 -51 84 -59 96 -9 10 41 -10 69 -71 98 -61 28
-66 44 -19 59 40 13 81 53 87 85 8 43 -17 91 -57 107 -43 18 -62 18 -101 1z
m-70 -146 c0 -22 -29 -18 -33 3 -3 14 1 18 15 15 10 -2 18 -10 18 -18z m53
-37 c-4 -22 -22 -20 -26 1 -2 10 3 16 13 16 10 0 15 -7 13 -17z"/>
</g>
</svg>

