<?xml version="1.0" standalone="no"?>
<!DOCTYPE svg PUBLIC "-//W3C//DTD SVG 20010904//EN"
 "http://www.w3.org/TR/2001/REC-SVG-20010904/DTD/svg10.dtd">
<svg version="1.0" xmlns="http://www.w3.org/2000/svg"
 width="48.000000pt" height="48.000000pt" viewBox="0 0 48.000000 48.000000"
 preserveAspectRatio="xMidYMid meet">
<metadata>
Created by potrace 1.16, written by Peter Selinger 2001-2019
</metadata>
<g transform="translate(0.000000,48.000000) scale(0.100000,-0.100000)"
fill="currentColor" stroke="currentColor" stroke-width="6" stroke-linejoin="round">
<path d="M92 468 c-7 -7 -12 -40 -12 -80 0 -61 2 -68 20 -68 18 0 20 7 20 60
l0 60 110 0 110 0 0 -38 c0 -48 14 -62 62 -62 l38 0 0 -150 0 -150 -160 0
c-100 0 -160 4 -160 10 0 6 -9 10 -20 10 -23 0 -27 -29 -8 -48 17 -17 359 -17
376 0 8 8 12 63 12 182 l0 169 -58 59 -59 58 -129 0 c-88 0 -134 -4 -142 -12z
M4 287 c-2 -7 -3 -56 -2 -108 l3 -94 175 0 175 0 0 105 0 105 -173 3 c-137 2
-173 0 -178 -11z m65 -44 c9 -17 11 -17 25 2 20 28 31 12 16 -25 -10 -24 -10
-36 0 -60 15 -36 4 -53 -16 -26 -14 20 -14 20 -28 0 -20 -27 -31 -10 -16 26
10 24 10 37 1 56 -6 14 -11 29 -11 34 0 16 18 11 29 -7z m93 -40 c3 -55 4 -58
31 -61 42 -5 32 -24 -10 -20 l-38 3 -3 68 c-2 40 1 67 7 67 6 0 11 -26 13 -57z
m158 47 c0 -5 -11 -10 -24 -10 -38 0 -40 -17 -6 -42 23 -16 30 -29 28 -48 -3
-21 -9 -25 -40 -28 -22 -2 -38 1 -38 7 0 6 11 11 24 11 38 0 40 17 6 41 -28
21 -39 56 -23 72 10 11 73 8 73 -3z"/>
</g>
</svg>

