<?xml version="1.0" standalone="no"?>
<!DOCTYPE svg PUBLIC "-//W3C//DTD SVG 20010904//EN"
 "http://www.w3.org/TR/2001/REC-SVG-20010904/DTD/svg10.dtd">
<svg version="1.0" xmlns="http://www.w3.org/2000/svg"
 width="48.000000pt" height="48.000000pt" viewBox="0 0 48.000000 48.000000"
 preserveAspectRatio="xMidYMid meet">
<metadata>
Created by potrace 1.16, written by Peter Selinger 2001-2019
</metadata>
<g transform="translate(0.000000,48.000000) scale(0.100000,-0.100000)"
fill="currentColor" stroke="currentColor" stroke-width="6" stroke-linejoin="round">
<path d="M92 468 c-7 -7 -12 -40 -12 -80 0 -61 2 -68 20 -68 18 0 20 7 20 60
l0 60 110 0 110 0 0 -38 c0 -48 14 -62 62 -62 l38 0 0 -150 0 -150 -160 0
c-100 0 -160 4 -160 10 0 6 -9 10 -20 10 -23 0 -27 -29 -8 -48 17 -17 359 -17
376 0 8 8 12 63 12 182 l0 169 -58 59 -59 58 -129 0 c-88 0 -134 -4 -142 -12z
M4 287 c-2 -7 -3 -56 -2 -108 l3 -94 175 0 175 0 0 105 0 105 -173 3 c-137 2
-173 0 -178 -11z m110 -49 c14 -23 -3 -52 -33 -56 -16 -3 -21 -10 -21 -33 0
-16 -4 -29 -10 -29 -6 0 -10 30 -10 71 l0 70 31 -3 c18 -2 37 -11 43 -20z m85
-4 c12 -15 21 -34 21 -44 0 -26 -39 -70 -61 -70 -17 0 -19 8 -19 70 0 62 2 70
19 70 11 0 29 -12 40 -26z m121 17 c0 -5 -12 -11 -27 -13 -34 -4 -46 -38 -14
-38 12 0 21 -4 21 -10 0 -5 -9 -10 -20 -10 -16 0 -20 -7 -20 -30 0 -16 -4 -30
-10 -30 -11 0 -14 123 -3 133 10 11 73 8 73 -2z M60 220 c0 -15 5 -20 18 -18
9 2 17 10 17 18 0 8 -8 16 -17 18 -13 2 -18 -3 -18 -18z M160 190 c0 -43 13
-50 34 -17 8 12 8 22 0 34 -21 33 -34 26 -34 -17z"/>
</g>
</svg>

