<?xml version="1.0" standalone="no"?>
<!DOCTYPE svg PUBLIC "-//W3C//DTD SVG 20010904//EN"
 "http://www.w3.org/TR/2001/REC-SVG-20010904/DTD/svg10.dtd">
<svg version="1.0" xmlns="http://www.w3.org/2000/svg"
 width="48.000000pt" height="48.000000pt" viewBox="0 0 48.000000 48.000000"
 preserveAspectRatio="xMidYMid meet">
<metadata>
Created by potrace 1.16, written by Peter Selinger 2001-2019
</metadata>
<g transform="translate(0.000000,48.000000) scale(0.100000,-0.100000)"
fill="currentColor" stroke="currentColor" stroke-width="6" stroke-linejoin="round">
<path d="M52 468 c-17 -17 -17 -439 0 -456 17 -17 359 -17 376 0 8 8 12 60 12
170 l0 158 -54 0 c-71 0 -86 15 -86 86 l0 54 -118 0 c-78 0 -122 -4 -130 -12z
m107 -254 c12 -15 21 -34 21 -44 0 -26 -39 -70 -61 -70 -17 0 -19 8 -19 70 0
62 2 70 19 70 11 0 29 -12 40 -26z m110 12 c18 -22 10 -107 -11 -120 -30 -19
-53 4 -56 58 -3 51 9 76 38 76 10 0 23 -6 29 -14z m111 5 c0 -5 -11 -12 -25
-15 -33 -8 -44 -50 -20 -76 10 -11 24 -20 32 -20 7 0 13 -4 13 -10 0 -5 -9
-10 -19 -10 -22 0 -61 44 -61 70 0 26 39 70 61 70 10 0 19 -4 19 -9z M120 170
c0 -43 13 -50 34 -17 8 12 8 22 0 34 -21 33 -34 26 -34 -17z M224 207 c-10
-28 0 -82 16 -82 11 0 15 12 15 44 0 44 -19 68 -31 38z M320 420 c0 -58 6 -63
71 -58 l44 3 -49 53 c-27 28 -53 52 -57 52 -5 0 -9 -23 -9 -50z"/>
</g>
</svg>

