<?xml version="1.0" standalone="no"?>
<!DOCTYPE svg PUBLIC "-//W3C//DTD SVG 20010904//EN"
 "http://www.w3.org/TR/2001/REC-SVG-20010904/DTD/svg10.dtd">
<svg version="1.0" xmlns="http://www.w3.org/2000/svg"
 width="48.000000pt" height="48.000000pt" viewBox="0 0 48.000000 48.000000"
 preserveAspectRatio="xMidYMid meet">
<metadata>
Created by potrace 1.16, written by Peter Selinger 2001-2019
</metadata>
<g transform="translate(0.000000,48.000000) scale(0.100000,-0.100000)"
fill="currentColor" stroke="currentColor" stroke-width="6" stroke-linejoin="round">
<path d="M92 468 c-7 -7 -12 -40 -12 -80 0 -61 2 -68 20 -68 18 0 20 7 20 60
l0 60 110 0 110 0 0 -38 c0 -48 14 -62 62 -62 l38 0 0 -150 0 -150 -160 0
c-100 0 -160 4 -160 10 0 6 -9 10 -20 10 -23 0 -27 -29 -8 -48 17 -17 359 -17
376 0 8 8 12 63 12 182 l0 169 -58 59 -59 58 -129 0 c-88 0 -134 -4 -142 -12z
M4 287 c-2 -7 -3 -56 -2 -108 l3 -94 175 0 175 0 0 105 0 105 -173 3 c-137 2
-173 0 -178 -11z m95 -53 c12 -15 21 -34 21 -44 0 -26 -39 -70 -61 -70 -17 0
-19 8 -19 70 0 62 2 70 19 70 11 0 29 -12 40 -26z m116 -38 c0 -45 -4 -61 -17
-70 -31 -19 -53 4 -56 59 -4 66 2 77 40 73 l33 -3 0 -59z m105 55 c0 -5 -11
-12 -25 -15 -33 -8 -44 -50 -20 -76 10 -11 24 -20 32 -20 7 0 13 -4 13 -10 0
-18 -46 -11 -65 10 -38 42 -11 120 42 120 12 0 23 -4 23 -9z M60 190 c0 -43
13 -52 30 -20 8 14 8 26 0 40 -17 32 -30 23 -30 -20z M167 234 c-4 -4 -7 -25
-7 -46 0 -32 3 -38 21 -38 18 0 20 5 17 42 -3 39 -16 57 -31 42z"/>
</g>
</svg>

