<?xml version="1.0" standalone="no"?>
<!DOCTYPE svg PUBLIC "-//W3C//DTD SVG 20010904//EN"
 "http://www.w3.org/TR/2001/REC-SVG-20010904/DTD/svg10.dtd">
<svg version="1.0" xmlns="http://www.w3.org/2000/svg"
 width="48.000000pt" height="48.000000pt" viewBox="0 0 48.000000 48.000000"
 preserveAspectRatio="xMidYMid meet">
<metadata>
Created by potrace 1.16, written by Peter Selinger 2001-2019
</metadata>
<g transform="translate(0.000000,48.000000) scale(0.100000,-0.100000)"
fill="currentColor" stroke="currentColor" stroke-width="6" stroke-linejoin="round">
<path d="M285 414 c-11 -3 -40 -10 -65 -17 -25 -6 -49 -10 -55 -8 -69 24 -135
21 -135 -6 0 -8 11 -29 24 -46 l25 -32 -29 -60 c-29 -63 -54 -160 -44 -176 3
-5 44 -9 92 -9 l87 0 32 37 33 38 25 -28 c14 -16 32 -26 40 -23 12 4 35 64 35
93 0 6 22 27 48 46 51 36 85 92 80 130 -2 14 -16 28 -38 39 -37 18 -121 30
-155 22z m44 -63 c12 -8 12 -12 2 -24 -15 -19 -61 -31 -73 -19 -27 27 35 65
71 43z m99 -63 c-9 -13 -30 -31 -47 -41 -30 -18 -31 -18 -31 2 0 13 15 28 43
44 49 27 56 26 35 -5z m-230 -160 c-15 -23 -58 -38 -58 -20 0 8 55 41 69 42 2
0 -3 -10 -11 -22z"/>
</g>
</svg>

