<?xml version="1.0" standalone="no"?>
<!DOCTYPE svg PUBLIC "-//W3C//DTD SVG 20010904//EN"
 "http://www.w3.org/TR/2001/REC-SVG-20010904/DTD/svg10.dtd">
<svg version="1.0" xmlns="http://www.w3.org/2000/svg"
 width="48.000000pt" height="48.000000pt" viewBox="0 0 48.000000 48.000000"
 preserveAspectRatio="xMidYMid meet">
<metadata>
Created by potrace 1.16, written by Peter Selinger 2001-2019
</metadata>
<g transform="translate(0.000000,48.000000) scale(0.100000,-0.100000)"
fill="currentColor" stroke="currentColor" stroke-width="6" stroke-linejoin="round">
<path d="M336 459 l-28 -22 64 -64 63 -64 23 26 c31 37 29 80 -7 116 -36 35
-77 38 -115 8z M159 283 c-124 -127 -125 -128 -143 -201 -10 -40 -16 -75 -13
-79 10 -9 158 35 178 53 13 12 19 31 19 62 0 90 76 167 160 161 21 -2 41 -1
44 2 3 3 -23 33 -57 67 l-63 62 -125 -127z M269 211 c-32 -32 -39 -46 -39 -77
0 -114 132 -173 211 -95 78 79 19 211 -95 211 -31 0 -45 -7 -77 -39z m117 -12
c9 -15 -90 -114 -105 -105 -20 13 -12 62 15 90 28 27 77 35 90 15z m49 -88
c-10 -48 -62 -80 -106 -66 -20 7 -16 12 37 66 47 48 60 56 67 44 5 -9 6 -29 2
-44z"/>
</g>
</svg>

