<?xml version="1.0" standalone="no"?>
<!DOCTYPE svg PUBLIC "-//W3C//DTD SVG 20010904//EN"
 "http://www.w3.org/TR/2001/REC-SVG-20010904/DTD/svg10.dtd">
<svg version="1.0" xmlns="http://www.w3.org/2000/svg"
 width="48.000000pt" height="48.000000pt" viewBox="0 0 48.000000 48.000000"
 preserveAspectRatio="xMidYMid meet">
<metadata>
Created by potrace 1.16, written by Peter Selinger 2001-2019
</metadata>
<g transform="translate(0.000000,48.000000) scale(0.100000,-0.100000)"
fill="currentColor" stroke="currentColor" stroke-width="6" stroke-linejoin="round">
<path d="M336 459 l-28 -22 64 -64 63 -64 23 26 c31 37 29 80 -7 116 -36 35
-77 38 -115 8z M159 283 c-124 -127 -125 -128 -143 -201 -10 -40 -16 -75 -13
-79 11 -11 160 36 183 58 16 15 24 34 24 56 0 81 73 153 154 153 19 0 37 4 40
8 3 5 -23 36 -57 70 l-63 62 -125 -127z M315 231 c-45 -20 -70 -60 -70 -112 0
-42 5 -53 33 -81 47 -48 117 -48 164 0 28 28 33 39 33 82 0 42 -5 54 -31 81
-33 33 -92 46 -129 30z m57 -68 c2 -22 9 -29 31 -31 35 -4 35 -20 0 -24 -22
-2 -29 -9 -31 -31 -4 -35 -20 -35 -24 1 -2 21 -9 28 -30 30 -16 2 -28 7 -28
12 0 5 12 10 28 12 21 2 28 9 30 31 2 15 7 27 12 27 5 0 10 -12 12 -27z"/>
</g>
</svg>

