<?xml version="1.0" standalone="no"?>
<!DOCTYPE svg PUBLIC "-//W3C//DTD SVG 20010904//EN"
 "http://www.w3.org/TR/2001/REC-SVG-20010904/DTD/svg10.dtd">
<svg version="1.0" xmlns="http://www.w3.org/2000/svg"
 width="48.000000pt" height="48.000000pt" viewBox="0 0 48.000000 48.000000"
 preserveAspectRatio="xMidYMid meet">
<metadata>
Created by potrace 1.16, written by Peter Selinger 2001-2019
</metadata>
<g transform="translate(0.000000,48.000000) scale(0.100000,-0.100000)"
fill="currentColor" stroke="currentColor" stroke-width="6" stroke-linejoin="round">
<path d="M40 453 c1 -22 125 -123 150 -123 9 0 37 7 61 15 l43 16 40 -41 c32
-31 38 -42 28 -52 -22 -22 -13 -29 36 -26 45 3 47 4 50 36 5 48 -4 68 -23 52
-13 -10 -23 -5 -65 34 -27 25 -55 46 -63 46 -7 0 -35 -7 -60 -16 l-47 -16 -54
46 c-56 48 -96 60 -96 29z M25 318 c-3 -8 -4 -68 -3 -134 l3 -119 35 0 35 0 0
130 0 130 -33 3 c-20 2 -34 -2 -37 -10z M264 217 c-3 -8 -4 -45 -2 -83 l3 -69
35 0 35 0 0 80 0 80 -33 3 c-21 2 -34 -2 -38 -11z M144 177 c-3 -8 -4 -36 -2
-63 3 -49 3 -49 38 -49 l35 0 0 60 0 60 -33 3 c-21 2 -34 -2 -38 -11z M384
116 c-13 -33 0 -51 36 -51 32 0 35 2 35 30 0 27 -4 30 -33 33 -22 2 -34 -2
-38 -12z M13 43 c-18 -7 -16 -30 3 -37 20 -8 428 -8 448 0 21 8 21 30 0 38
-19 7 -433 7 -451 -1z"/>
</g>
</svg>

