<?xml version="1.0" standalone="no"?>
<!DOCTYPE svg PUBLIC "-//W3C//DTD SVG 20010904//EN"
 "http://www.w3.org/TR/2001/REC-SVG-20010904/DTD/svg10.dtd">
<svg version="1.0" xmlns="http://www.w3.org/2000/svg"
 width="48.000000pt" height="48.000000pt" viewBox="0 0 48.000000 48.000000"
 preserveAspectRatio="xMidYMid meet">
<metadata>
Created by potrace 1.16, written by Peter Selinger 2001-2019
</metadata>
<g transform="translate(0.000000,48.000000) scale(0.100000,-0.100000)"
fill="currentColor" stroke="currentColor" stroke-width="6" stroke-linejoin="round">
<path d="M47 474 c-4 -4 -7 -11 -7 -16 0 -4 65 -51 144 -104 101 -67 146 -103
148 -118 2 -17 11 -22 51 -24 54 -4 58 5 26 57 -15 25 -25 32 -41 28 -15 -4
-58 20 -155 84 -145 97 -155 103 -166 93z M25 318 c-3 -8 -4 -68 -3 -134 l3
-119 35 0 35 0 0 130 0 130 -33 3 c-20 2 -34 -2 -37 -10z M144 237 c-2 -7 -4
-49 -2 -93 l3 -79 35 0 35 0 0 90 0 90 -33 3 c-21 2 -34 -2 -38 -11z M264 167
c-3 -8 -4 -34 -2 -58 3 -43 4 -44 38 -44 l35 0 0 55 c0 55 0 55 -33 58 -21 2
-34 -2 -38 -11z M384 106 c-12 -30 4 -47 38 -44 28 2 33 7 33 28 0 21 -5 26
-33 28 -22 2 -34 -2 -38 -12z M5 29 c-16 -25 20 -29 241 -27 196 3 229 5 229
18 0 13 -34 15 -232 18 -161 2 -234 -1 -238 -9z"/>
</g>
</svg>

