<?xml version="1.0" standalone="no"?>
<!DOCTYPE svg PUBLIC "-//W3C//DTD SVG 20010904//EN"
 "http://www.w3.org/TR/2001/REC-SVG-20010904/DTD/svg10.dtd">
<svg version="1.0" xmlns="http://www.w3.org/2000/svg"
 width="48.000000pt" height="48.000000pt" viewBox="0 0 48.000000 48.000000"
 preserveAspectRatio="xMidYMid meet">
<metadata>
Created by potrace 1.16, written by Peter Selinger 2001-2019
</metadata>
<g transform="translate(0.000000,48.000000) scale(0.100000,-0.100000)"
fill="currentColor" stroke="currentColor" stroke-width="6" stroke-linejoin="round">
<path d="M348 474 c-4 -3 -2 -15 5 -25 10 -16 6 -24 -25 -56 -36 -36 -38 -36
-76 -25 -69 21 -91 16 -151 -35 -66 -56 -71 -62 -64 -80 9 -22 29 -15 88 34
58 46 58 46 102 35 69 -19 86 -15 128 28 31 32 45 40 63 35 22 -5 23 -3 20 42
l-3 48 -40 3 c-23 2 -44 0 -47 -4z M385 318 c-3 -8 -4 -68 -3 -134 l3 -119 35
0 35 0 0 130 0 130 -33 3 c-20 2 -34 -2 -37 -10z M144 217 c-3 -8 -4 -45 -2
-83 l3 -69 35 0 35 0 0 80 0 80 -33 3 c-21 2 -34 -2 -38 -11z M264 177 c-3 -8
-4 -36 -2 -63 3 -49 3 -49 38 -49 l35 0 0 60 0 60 -33 3 c-21 2 -34 -2 -38
-11z M24 116 c-13 -33 0 -51 36 -51 32 0 35 2 35 30 0 27 -4 30 -33 33 -22 2
-34 -2 -38 -12z M13 43 c-18 -7 -16 -30 3 -37 20 -8 428 -8 448 0 21 8 21 30
0 38 -19 7 -433 7 -451 -1z"/>
</g>
</svg>

