<?xml version="1.0" standalone="no"?>
<!DOCTYPE svg PUBLIC "-//W3C//DTD SVG 20010904//EN"
 "http://www.w3.org/TR/2001/REC-SVG-20010904/DTD/svg10.dtd">
<svg version="1.0" xmlns="http://www.w3.org/2000/svg"
 width="48.000000pt" height="48.000000pt" viewBox="0 0 48.000000 48.000000"
 preserveAspectRatio="xMidYMid meet">
<metadata>
Created by potrace 1.16, written by Peter Selinger 2001-2019
</metadata>
<g transform="translate(0.000000,48.000000) scale(0.100000,-0.100000)"
fill="currentColor" stroke="currentColor" stroke-width="6" stroke-linejoin="round">
<path d="M64 459 c-17 -19 -19 -38 -19 -219 0 -259 -15 -240 199 -240 89 0
168 5 176 10 23 15 22 363 -1 382 -9 7 -20 26 -24 43 -3 16 -12 33 -18 37 -7
4 -75 8 -153 8 -131 0 -142 -2 -160 -21z m286 -39 c0 -19 -7 -20 -130 -20
-123 0 -130 1 -130 20 0 19 7 20 130 20 123 0 130 -1 130 -20z m-151 -124 c15
-16 21 -31 17 -43 -8 -26 63 -96 84 -83 18 11 60 -25 60 -51 0 -17 -27 -39
-48 -39 -19 0 -111 79 -146 126 -37 48 -45 81 -24 102 18 18 32 15 57 -12z"/>
</g>
</svg>

