<?xml version="1.0" standalone="no"?>
<!DOCTYPE svg PUBLIC "-//W3C//DTD SVG 20010904//EN"
 "http://www.w3.org/TR/2001/REC-SVG-20010904/DTD/svg10.dtd">
<svg version="1.0" xmlns="http://www.w3.org/2000/svg"
 width="48.000000pt" height="48.000000pt" viewBox="0 0 48.000000 48.000000"
 preserveAspectRatio="xMidYMid meet">
<metadata>
Created by potrace 1.16, written by Peter Selinger 2001-2019
</metadata>
<g transform="translate(0.000000,48.000000) scale(0.100000,-0.100000)"
fill="currentColor" stroke="currentColor" stroke-width="6" stroke-linejoin="round">
<path d="M44 436 c-48 -48 -45 -78 15 -157 100 -132 260 -269 313 -269 36 0
98 57 98 89 0 25 -62 97 -90 104 -10 3 -30 -1 -45 -9 -25 -13 -28 -11 -90 50
-63 62 -65 64 -51 90 19 37 11 59 -35 101 -49 44 -72 44 -115 1z"/>
</g>
</svg>

