<?xml version="1.0" standalone="no"?>
<!DOCTYPE svg PUBLIC "-//W3C//DTD SVG 20010904//EN"
 "http://www.w3.org/TR/2001/REC-SVG-20010904/DTD/svg10.dtd">
<svg version="1.0" xmlns="http://www.w3.org/2000/svg"
 width="48.000000pt" height="48.000000pt" viewBox="0 0 48.000000 48.000000"
 preserveAspectRatio="xMidYMid meet">
<metadata>
Created by potrace 1.16, written by Peter Selinger 2001-2019
</metadata>
<g transform="translate(0.000000,48.000000) scale(0.100000,-0.100000)"
fill="currentColor" stroke="currentColor" stroke-width="6" stroke-linejoin="round">
<path d="M224 467 c-9 -25 0 -62 16 -62 10 0 15 10 15 34 0 36 -21 54 -31 28z
M72 408 c-9 -9 -7 -17 10 -35 24 -25 48 -30 48 -10 0 8 -10 23 -23 35 -18 17
-26 19 -35 10z M372 397 c-12 -13 -22 -29 -22 -35 0 -20 25 -14 49 11 18 20
19 26 8 35 -11 9 -19 7 -35 -11z M173 350 c-61 -37 -81 -116 -43 -177 50 -83
170 -83 220 0 70 114 -63 247 -177 177z m67 -110 c0 -75 -3 -90 -16 -90 -28 0
-74 56 -74 90 0 34 46 90 74 90 13 0 16 -15 16 -90z M5 250 c-11 -18 10 -32
41 -28 40 4 38 32 -3 36 -17 2 -34 -2 -38 -8z M405 250 c-11 -18 10 -32 41
-28 40 4 38 32 -3 36 -17 2 -34 -2 -38 -8z M82 107 c-17 -18 -19 -26 -10 -35
9 -9 17 -7 35 10 25 24 30 48 10 48 -8 0 -23 -10 -35 -23z M350 117 c0 -8 10
-23 23 -35 18 -17 26 -19 35 -10 9 9 7 17 -10 35 -24 25 -48 30 -48 10z M224
56 c-8 -22 3 -49 19 -43 6 2 12 14 12 27 0 27 -22 39 -31 16z"/>
</g>
</svg>

