<?xml version="1.0" standalone="no"?>
<!DOCTYPE svg PUBLIC "-//W3C//DTD SVG 20010904//EN"
 "http://www.w3.org/TR/2001/REC-SVG-20010904/DTD/svg10.dtd">
<svg version="1.0" xmlns="http://www.w3.org/2000/svg"
 width="48.000000pt" height="48.000000pt" viewBox="0 0 48.000000 48.000000"
 preserveAspectRatio="xMidYMid meet">
<metadata>
Created by potrace 1.16, written by Peter Selinger 2001-2019
</metadata>
<g transform="translate(0.000000,48.000000) scale(0.100000,-0.100000)"
fill="currentColor" stroke="currentColor" stroke-width="6" stroke-linejoin="round">
<path d="M20 460 c-19 -19 -20 -33 -20 -220 0 -187 1 -201 20 -220 19 -19 33
-20 220 -20 187 0 201 1 220 20 19 19 20 33 20 220 0 187 -1 201 -20 220 -19
19 -33 20 -220 20 -187 0 -201 -1 -220 -20z m415 -220 l0 -195 -195 0 -195 0
-3 185 c-1 101 0 190 3 197 3 11 46 13 197 11 l193 -3 0 -195z M142 383 c-10
-10 -27 -23 -38 -29 -10 -6 -20 -19 -22 -28 -6 -30 18 -46 69 -46 78 0 115 54
69 100 -25 25 -54 26 -78 3z M270 170 c-18 -27 -35 -50 -38 -50 -3 0 -17 14
-32 31 -19 23 -31 30 -45 25 -25 -8 -79 -82 -70 -96 8 -13 312 -13 320 -1 3 6
-9 39 -27 75 -41 84 -62 87 -108 16z"/>
</g>
</svg>

