<?xml version="1.0" standalone="no"?>
<!DOCTYPE svg PUBLIC "-//W3C//DTD SVG 20010904//EN"
 "http://www.w3.org/TR/2001/REC-SVG-20010904/DTD/svg10.dtd">
<svg version="1.0" xmlns="http://www.w3.org/2000/svg"
 width="48.000000pt" height="48.000000pt" viewBox="0 0 48.000000 48.000000"
 preserveAspectRatio="xMidYMid meet">
<metadata>
Created by potrace 1.16, written by Peter Selinger 2001-2019
</metadata>
<g transform="translate(0.000000,48.000000) scale(0.100000,-0.100000)"
fill="currentColor" stroke="currentColor" stroke-width="6" stroke-linejoin="round">
<path d="M20 460 c-19 -19 -20 -33 -20 -220 0 -187 1 -201 20 -220 19 -19 33
-20 220 -20 187 0 201 1 220 20 19 19 20 33 20 220 0 187 -1 201 -20 220 -19
19 -33 20 -220 20 -187 0 -201 -1 -220 -20z m415 -220 l0 -195 -195 0 -195 0
-3 185 c-1 101 0 190 3 197 3 11 46 13 197 11 l193 -3 0 -195z M265 401 c-7
-12 12 -24 25 -16 11 7 4 25 -10 25 -5 0 -11 -4 -15 -9z M190 365 c0 -8 7 -15
15 -15 8 0 15 7 15 15 0 8 -7 15 -15 15 -8 0 -15 -7 -15 -15z M340 365 c0 -8
7 -15 15 -15 8 0 15 7 15 15 0 8 -7 15 -15 15 -8 0 -15 -7 -15 -15z M240 330
c-11 -11 -20 -29 -20 -40 0 -26 34 -60 60 -60 26 0 60 34 60 60 0 11 -9 29
-20 40 -11 11 -29 20 -40 20 -11 0 -29 -9 -40 -20z M165 300 c-4 -6 -3 -16 3
-22 6 -6 12 -6 17 2 4 6 3 16 -3 22 -6 6 -12 6 -17 -2z M375 300 c-4 -6 -3
-16 3 -22 6 -6 12 -6 17 2 4 6 3 16 -3 22 -6 6 -12 6 -17 -2z M340 215 c0 -8
7 -15 15 -15 8 0 15 7 15 15 0 8 -7 15 -15 15 -8 0 -15 -7 -15 -15z M102 175
c-31 -14 -33 -17 -30 -57 l3 -43 108 -3 c119 -3 122 -1 87 56 -21 34 -72 62
-112 62 -13 -1 -38 -7 -56 -15z M287 154 c-3 -4 0 -16 8 -28 8 -11 15 -28 15
-38 0 -15 9 -18 45 -18 46 0 53 8 39 45 -12 29 -88 57 -107 39z"/>
</g>
</svg>

