<?xml version="1.0" standalone="no"?>
<!DOCTYPE svg PUBLIC "-//W3C//DTD SVG 20010904//EN"
 "http://www.w3.org/TR/2001/REC-SVG-20010904/DTD/svg10.dtd">
<svg version="1.0" xmlns="http://www.w3.org/2000/svg"
 width="48.000000pt" height="48.000000pt" viewBox="0 0 48.000000 48.000000"
 preserveAspectRatio="xMidYMid meet">
<metadata>
Created by potrace 1.16, written by Peter Selinger 2001-2019
</metadata>
<g transform="translate(0.000000,48.000000) scale(0.100000,-0.100000)"
fill="currentColor" stroke="currentColor" stroke-width="6" stroke-linejoin="round">
<path d="M274 410 c-42 -65 -48 -70 -80 -70 -40 0 -94 -25 -94 -43 0 -23 185
-198 202 -192 21 8 38 49 38 89 0 30 7 38 70 80 39 25 70 52 70 59 0 16 -132
147 -148 147 -7 0 -33 -31 -58 -70z m59 -21 c-21 -36 -43 -57 -43 -41 0 20 42
82 51 76 5 -3 1 -19 -8 -35z M66 111 c-69 -70 -78 -93 -40 -108 22 -8 156 125
152 152 -6 41 -41 28 -112 -44z"/>
</g>
</svg>

