<?xml version="1.0" standalone="no"?>
<!DOCTYPE svg PUBLIC "-//W3C//DTD SVG 20010904//EN"
 "http://www.w3.org/TR/2001/REC-SVG-20010904/DTD/svg10.dtd">
<svg version="1.0" xmlns="http://www.w3.org/2000/svg"
 width="48.000000pt" height="48.000000pt" viewBox="0 0 48.000000 48.000000"
 preserveAspectRatio="xMidYMid meet">
<metadata>
Created by potrace 1.16, written by Peter Selinger 2001-2019
</metadata>
<g transform="translate(0.000000,48.000000) scale(0.100000,-0.100000)"
fill="currentColor" stroke="currentColor" stroke-width="6" stroke-linejoin="round">
<path d="M212 448 c-15 -15 -16 -54 -2 -63 6 -3 -3 -18 -20 -32 -51 -42 -41
-53 50 -53 89 0 96 7 54 51 -21 22 -24 31 -15 46 21 40 -36 82 -67 51z M50
255 c-7 -9 -10 -27 -7 -44 5 -22 0 -34 -19 -51 -40 -38 -32 -50 35 -50 55 0
59 2 65 26 4 14 2 32 -4 39 -8 10 -8 20 -1 33 22 41 -40 82 -69 47z M366 248
c-11 -15 -12 -26 -5 -40 7 -13 7 -23 -1 -33 -6 -7 -8 -25 -4 -39 6 -24 10 -26
65 -26 67 0 73 9 33 51 -21 22 -24 31 -15 46 7 15 6 25 -5 41 -19 28 -49 28
-68 0z M165 238 c-25 -113 -42 -204 -38 -210 2 -5 53 -8 114 -8 127 0 121 -8
94 122 -27 131 -16 118 -95 118 -64 0 -70 -2 -75 -22z m119 -130 c11 -44 8
-48 -44 -48 -52 0 -55 4 -44 48 5 18 13 22 44 22 31 0 39 -4 44 -22z"/>
</g>
</svg>

