<?xml version="1.0" standalone="no"?>
<!DOCTYPE svg PUBLIC "-//W3C//DTD SVG 20010904//EN"
 "http://www.w3.org/TR/2001/REC-SVG-20010904/DTD/svg10.dtd">
<svg version="1.0" xmlns="http://www.w3.org/2000/svg"
 width="48.000000pt" height="48.000000pt" viewBox="0 0 48.000000 48.000000"
 preserveAspectRatio="xMidYMid meet">
<metadata>
Created by potrace 1.16, written by Peter Selinger 2001-2019
</metadata>
<g transform="translate(0.000000,48.000000) scale(0.100000,-0.100000)"
fill="currentColor" stroke="currentColor" stroke-width="6" stroke-linejoin="round">
<path d="M66 464 c-9 -8 -16 -24 -16 -34 0 -12 -8 -20 -22 -22 -18 -2 -23 -10
-23 -33 l0 -30 165 0 165 0 0 30 c0 23 -5 31 -22 33 -16 2 -23 10 -23 26 0 51
-48 61 -92 19 l-28 -27 -28 27 c-32 31 -54 34 -76 11z m44 -34 c0 -5 -4 -10
-10 -10 -5 0 -10 5 -10 10 0 6 5 10 10 10 6 0 10 -4 10 -10z m140 0 c0 -5 -4
-10 -10 -10 -5 0 -10 5 -10 10 0 6 5 10 10 10 6 0 10 -4 10 -10z M22 308 c-6
-6 -12 -34 -12 -60 0 -68 24 -90 93 -86 l52 3 0 75 0 75 -60 3 c-38 2 -65 -2
-73 -10z M184 306 c-3 -7 -4 -42 -2 -77 2 -49 7 -64 18 -64 9 0 17 14 21 39 7
44 21 56 67 56 36 0 52 21 32 45 -17 20 -128 21 -136 1z M257 223 c-4 -3 -7
-29 -7 -57 0 -48 3 -53 57 -108 32 -32 64 -58 73 -58 20 0 100 81 100 101 0 8
-26 40 -58 72 -55 54 -60 57 -108 57 -28 0 -54 -3 -57 -7z m140 -75 l43 -42
-32 -33 -32 -33 -43 42 c-33 33 -43 50 -43 75 0 30 2 33 32 33 24 0 43 -10 75
-42z M330 137 c0 -16 32 -47 48 -47 18 0 14 25 -6 43 -22 20 -42 22 -42 4z"/>
</g>
</svg>

