<?xml version="1.0" standalone="no"?>
<!DOCTYPE svg PUBLIC "-//W3C//DTD SVG 20010904//EN"
 "http://www.w3.org/TR/2001/REC-SVG-20010904/DTD/svg10.dtd">
<svg version="1.0" xmlns="http://www.w3.org/2000/svg"
 width="48.000000pt" height="48.000000pt" viewBox="0 0 48.000000 48.000000"
 preserveAspectRatio="xMidYMid meet">
<metadata>
Created by potrace 1.16, written by Peter Selinger 2001-2019
</metadata>
<g transform="translate(0.000000,48.000000) scale(0.100000,-0.100000)"
fill="currentColor" stroke="currentColor" stroke-width="6" stroke-linejoin="round">
<path d="M82 397 c-13 -14 -22 -36 -22 -54 0 -22 -6 -32 -19 -36 -20 -5 -31
-65 -35 -188 l-1 -54 119 -3 c66 -1 124 2 129 7 5 5 4 52 -3 121 -11 95 -16
113 -31 117 -14 4 -19 15 -19 37 0 66 -75 99 -118 53z m76 -54 c3 -31 1 -33
-27 -33 -27 0 -31 3 -31 28 0 35 8 44 35 40 15 -2 21 -12 23 -35z M324 329
c-3 -6 8 -25 25 -42 l31 -32 32 33 c25 24 30 34 20 44 -9 9 -16 7 -32 -7 -19
-17 -21 -17 -38 -2 -22 20 -28 21 -38 6z M284 236 c-3 -8 -4 -25 -2 -38 3 -20
9 -23 43 -23 39 0 40 1 40 35 0 33 -2 35 -38 38 -26 2 -39 -1 -43 -12z M394
236 c-3 -8 -4 -25 -2 -38 3 -20 9 -23 43 -23 39 0 40 1 40 35 0 33 -2 35 -38
38 -26 2 -39 -1 -43 -12z M284 136 c-3 -8 -4 -27 -2 -43 3 -26 7 -28 43 -28
l40 0 0 40 c0 39 -1 40 -38 43 -26 2 -39 -1 -43 -12z M394 136 c-3 -8 -4 -27
-2 -43 3 -26 7 -28 43 -28 l40 0 0 40 c0 39 -1 40 -38 43 -26 2 -39 -1 -43
-12z"/>
</g>
</svg>

