<?xml version="1.0" standalone="no"?>
<!DOCTYPE svg PUBLIC "-//W3C//DTD SVG 20010904//EN"
 "http://www.w3.org/TR/2001/REC-SVG-20010904/DTD/svg10.dtd">
<svg version="1.0" xmlns="http://www.w3.org/2000/svg"
 width="48.000000pt" height="48.000000pt" viewBox="0 0 48.000000 48.000000"
 preserveAspectRatio="xMidYMid meet">
<metadata>
Created by potrace 1.16, written by Peter Selinger 2001-2019
</metadata>
<g transform="translate(0.000000,48.000000) scale(0.100000,-0.100000)"
fill="currentColor" stroke="currentColor" stroke-width="6" stroke-linejoin="round">
<path d="M155 435 c-14 -13 -25 -33 -25 -45 0 -17 -6 -20 -49 -20 -70 0 -83
-16 -79 -99 l3 -66 94 -3 c56 -2 98 1 105 8 13 13 59 13 72 0 7 -7 49 -10 105
-8 l94 3 3 66 c4 83 -9 99 -79 99 -43 0 -49 3 -49 20 0 12 -11 32 -25 45 -20
21 -34 25 -85 25 -51 0 -65 -4 -85 -25z m143 -27 c23 -23 12 -28 -58 -28 -38
0 -70 4 -70 8 0 19 27 32 70 32 25 0 51 -5 58 -12z M220 160 c0 -23 4 -30 20
-30 16 0 20 7 20 30 0 23 -4 30 -20 30 -16 0 -20 -7 -20 -30z M26 139 c-10
-52 -7 -87 10 -103 23 -24 385 -24 408 0 17 16 20 51 10 103 l-6 31 -75 0
c-61 0 -75 -3 -79 -17 -12 -39 -22 -48 -54 -48 -32 0 -42 9 -54 48 -4 14 -18
17 -79 17 l-74 0 -7 -31z"/>
</g>
</svg>

