<?xml version="1.0" standalone="no"?>
<!DOCTYPE svg PUBLIC "-//W3C//DTD SVG 20010904//EN"
 "http://www.w3.org/TR/2001/REC-SVG-20010904/DTD/svg10.dtd">
<svg version="1.0" xmlns="http://www.w3.org/2000/svg"
 width="48.000000pt" height="48.000000pt" viewBox="0 0 48.000000 48.000000"
 preserveAspectRatio="xMidYMid meet">
<metadata>
Created by potrace 1.16, written by Peter Selinger 2001-2019
</metadata>
<g transform="translate(0.000000,48.000000) scale(0.100000,-0.100000)"
fill="currentColor" stroke="currentColor" stroke-width="6" stroke-linejoin="round">
<path d="M41 466 c-22 -26 24 -152 75 -207 l25 -26 -21 -47 c-11 -26 -20 -58
-20 -70 0 -22 37 -66 56 -66 5 0 14 -10 19 -22 9 -20 18 -23 65 -23 46 0 56 3
64 21 5 11 22 28 37 37 32 18 46 58 31 90 -31 68 -31 69 9 127 46 68 76 164
59 185 -18 22 -32 19 -76 -19 -35 -30 -94 -127 -94 -155 0 -6 -13 -11 -30 -11
-16 0 -30 5 -30 11 0 28 -59 125 -94 155 -44 37 -58 41 -75 20z m177 -295 c-2
-9 -11 -17 -21 -19 -21 -4 -35 27 -17 38 19 12 42 0 38 -19z m90 0 c-2 -9 -11
-17 -21 -19 -21 -4 -35 27 -17 38 19 12 42 0 38 -19z m-28 -59 c0 -5 -9 -17
-20 -27 -19 -17 -21 -17 -40 0 -29 27 -25 35 20 35 22 0 40 -4 40 -8z"/>
</g>
</svg>

