<?xml version="1.0" standalone="no"?>
<!DOCTYPE svg PUBLIC "-//W3C//DTD SVG 20010904//EN"
 "http://www.w3.org/TR/2001/REC-SVG-20010904/DTD/svg10.dtd">
<svg version="1.0" xmlns="http://www.w3.org/2000/svg"
 width="48.000000pt" height="48.000000pt" viewBox="0 0 48.000000 48.000000"
 preserveAspectRatio="xMidYMid meet">
<metadata>
Created by potrace 1.16, written by Peter Selinger 2001-2019
</metadata>
<g transform="translate(0.000000,48.000000) scale(0.100000,-0.100000)"
fill="currentColor" stroke="currentColor" stroke-width="6" stroke-linejoin="round">
<path d="M167 425 c-9 -8 -21 -31 -27 -50 -10 -32 -15 -35 -48 -35 -45 0 -55
-6 -76 -47 -20 -39 -23 -222 -4 -241 17 -17 439 -17 456 0 19 19 16 202 -4
241 -21 41 -31 47 -76 47 -33 0 -38 3 -48 35 -18 55 -34 65 -100 65 -39 0 -64
-5 -73 -15z m123 -29 c0 -2 3 -11 6 -20 5 -14 -3 -16 -55 -16 -34 0 -61 2 -61
4 0 26 16 36 61 36 27 0 49 -2 49 -4z m-160 -111 c0 -11 -11 -15 -40 -15 -31
0 -38 3 -34 15 8 21 74 21 74 0z m130 -30 c0 -25 5 -45 10 -45 6 0 10 -7 10
-15 0 -10 -11 -15 -35 -15 -35 0 -47 16 -20 26 8 4 15 15 15 25 0 10 -7 19
-15 19 -18 0 -20 21 -3 38 25 25 38 13 38 -33z m164 30 c4 -12 -3 -15 -34 -15
-29 0 -40 4 -40 15 0 10 10 15 34 15 21 0 36 -6 40 -15z m-300 -88 c8 -13 7
-24 -6 -47 -15 -26 -15 -30 -2 -30 27 0 9 -25 -20 -28 -45 -6 -52 12 -21 52
15 20 24 40 20 44 -4 4 -10 1 -12 -5 -6 -17 -33 -17 -33 0 0 37 53 47 74 14z
m294 -33 c2 -36 -1 -54 -12 -64 -18 -14 -44 -7 -52 15 -9 22 3 30 21 15 18
-15 20 0 3 19 -10 11 -10 14 0 18 21 8 13 25 -8 18 -14 -4 -20 -2 -20 8 0 21
12 28 40 25 23 -3 25 -8 28 -54z"/>
</g>
</svg>

