<?xml version="1.0" standalone="no"?>
<!DOCTYPE svg PUBLIC "-//W3C//DTD SVG 20010904//EN"
 "http://www.w3.org/TR/2001/REC-SVG-20010904/DTD/svg10.dtd">
<svg version="1.0" xmlns="http://www.w3.org/2000/svg"
 width="48.000000pt" height="48.000000pt" viewBox="0 0 48.000000 48.000000"
 preserveAspectRatio="xMidYMid meet">
<metadata>
Created by potrace 1.16, written by Peter Selinger 2001-2019
</metadata>
<g transform="translate(0.000000,48.000000) scale(0.100000,-0.100000)"
fill="currentColor" stroke="currentColor" stroke-width="6" stroke-linejoin="round">
<path d="M218 455 c-7 -16 -19 -25 -35 -25 -26 0 -31 -21 -8 -40 11 -9 14 -22
9 -46 -7 -37 3 -43 36 -22 16 10 24 10 40 0 33 -21 43 -15 36 22 -5 24 -2 37
9 46 23 19 18 40 -10 40 -18 0 -28 7 -35 25 -5 14 -14 25 -20 25 -6 0 -16 -11
-22 -25z M50 370 c-6 -11 -20 -20 -30 -20 -23 0 -26 -22 -6 -39 7 -6 11 -22 8
-36 -5 -27 15 -34 36 -13 9 9 15 9 24 0 22 -22 41 -14 35 15 -3 18 0 31 11 39
18 13 8 34 -17 34 -10 0 -21 9 -24 20 -3 11 -10 20 -16 20 -6 0 -15 -9 -21
-20z M393 370 c-3 -11 -14 -20 -24 -20 -25 0 -35 -21 -17 -34 11 -8 14 -21 11
-39 -6 -29 13 -37 35 -15 9 9 15 9 24 0 20 -20 40 -14 36 12 -1 13 3 30 10 39
15 18 8 37 -13 37 -8 0 -19 9 -25 20 -6 11 -15 20 -21 20 -6 0 -13 -9 -16 -20z
M165 241 c-56 -16 -86 -31 -92 -47 -6 -16 23 -124 34 -124 3 0 18 11 34 25 55
45 143 45 198 0 16 -14 31 -25 34 -25 3 0 14 27 25 59 23 67 20 73 -43 100
-37 16 -150 23 -190 12z M23 93 c-29 -5 -29 -14 -2 -31 15 -10 19 -20 15 -38
-6 -21 -3 -24 19 -24 14 0 40 8 58 17 l32 17 -30 6 c-19 3 -34 15 -43 33 -7
15 -16 26 -20 26 -4 -1 -17 -4 -29 -6z M408 73 c-9 -18 -24 -30 -43 -33 l-30
-6 32 -17 c18 -9 44 -17 58 -17 22 0 25 3 19 24 -4 18 0 28 17 40 26 18 25 21
-13 30 -23 5 -29 2 -40 -21z"/>
</g>
</svg>

