<?xml version="1.0" standalone="no"?>
<!DOCTYPE svg PUBLIC "-//W3C//DTD SVG 20010904//EN"
 "http://www.w3.org/TR/2001/REC-SVG-20010904/DTD/svg10.dtd">
<svg version="1.0" xmlns="http://www.w3.org/2000/svg"
 width="48.000000pt" height="48.000000pt" viewBox="0 0 48.000000 48.000000"
 preserveAspectRatio="xMidYMid meet">
<metadata>
Created by potrace 1.16, written by Peter Selinger 2001-2019
</metadata>
<g transform="translate(0.000000,48.000000) scale(0.100000,-0.100000)"
fill="currentColor" stroke="currentColor" stroke-width="6" stroke-linejoin="round">
<path d="M157 424 c-4 -4 -7 -90 -7 -191 l0 -183 90 0 90 0 -2 188 -3 187 -80
3 c-45 1 -84 0 -88 -4z m93 -88 c0 -19 5 -38 10 -41 20 -12 9 -25 -20 -25 -34
0 -35 2 -18 30 10 16 10 24 0 40 -16 27 -15 30 8 30 16 0 20 -7 20 -34z M4
277 c-2 -7 -3 -60 -2 -118 l3 -104 57 -3 58 -3 0 121 0 120 -55 0 c-37 0 -57
-4 -61 -13z M360 130 l0 -81 58 3 57 3 0 75 0 75 -57 3 -58 3 0 -81z"/>
</g>
</svg>

