<?xml version="1.0" standalone="no"?>
<!DOCTYPE svg PUBLIC "-//W3C//DTD SVG 20010904//EN"
 "http://www.w3.org/TR/2001/REC-SVG-20010904/DTD/svg10.dtd">
<svg version="1.0" xmlns="http://www.w3.org/2000/svg"
 width="48.000000pt" height="48.000000pt" viewBox="0 0 48.000000 48.000000"
 preserveAspectRatio="xMidYMid meet">
<metadata>
Created by potrace 1.16, written by Peter Selinger 2001-2019
</metadata>
<g transform="translate(0.000000,48.000000) scale(0.100000,-0.100000)"
fill="currentColor" stroke="currentColor" stroke-width="6" stroke-linejoin="round">
<path d="M223 468 c-4 -7 -13 -22 -18 -33 -6 -10 -21 -22 -35 -25 -29 -7 -39
-37 -16 -46 13 -5 15 -14 10 -41 -8 -44 9 -57 48 -37 24 13 32 13 56 0 39 -20
55 -8 47 36 -5 27 -3 37 9 41 26 10 18 37 -15 51 -17 7 -36 23 -42 36 -14 28
-32 36 -44 18z m27 -52 c0 -8 9 -21 21 -29 13 -10 17 -17 9 -22 -6 -4 -8 -14
-5 -24 4 -13 -2 -16 -35 -16 -33 0 -39 3 -35 16 3 10 1 20 -5 24 -8 5 -4 12 9
22 12 8 21 21 21 29 0 8 5 14 10 14 6 0 10 -6 10 -14z M30 235 c-26 -32 13
-81 48 -59 22 14 27 41 12 59 -16 19 -44 19 -60 0z M175 237 c-3 -7 -4 -62 -3
-123 l3 -109 65 0 65 0 0 120 0 120 -63 3 c-45 2 -64 -1 -67 -11z M390 175
c-15 -18 -10 -45 13 -59 34 -22 73 27 47 59 -16 19 -44 19 -60 0z M4 107 c-3
-8 -4 -34 -2 -58 l3 -44 55 0 55 0 0 55 0 55 -53 3 c-38 2 -54 -1 -58 -11z
M364 46 c-13 -35 3 -47 58 -44 49 3 53 5 53 28 0 23 -4 25 -53 28 -40 2 -54
-1 -58 -12z"/>
</g>
</svg>

