<?xml version="1.0" standalone="no"?>
<!DOCTYPE svg PUBLIC "-//W3C//DTD SVG 20010904//EN"
 "http://www.w3.org/TR/2001/REC-SVG-20010904/DTD/svg10.dtd">
<svg version="1.0" xmlns="http://www.w3.org/2000/svg"
 width="48.000000pt" height="48.000000pt" viewBox="0 0 48.000000 48.000000"
 preserveAspectRatio="xMidYMid meet">
<metadata>
Created by potrace 1.16, written by Peter Selinger 2001-2019
</metadata>
<g transform="translate(0.000000,48.000000) scale(0.100000,-0.100000)"
fill="currentColor" stroke="currentColor" stroke-width="6" stroke-linejoin="round">
<path d="M202 438 c-16 -16 -15 -63 2 -81 13 -12 11 -17 -16 -37 -42 -31 -25
-42 58 -38 76 3 93 21 42 46 -27 13 -27 13 -8 32 11 11 20 28 20 38 0 41 -69
69 -98 40z M37 332 c-24 -26 -21 -68 5 -86 16 -12 18 -16 7 -16 -19 0 -52 -34
-42 -43 10 -11 131 -8 138 3 3 5 -8 18 -24 28 -30 18 -30 19 -11 35 25 21 26
59 2 80 -24 22 -55 21 -75 -1z M367 332 c-23 -25 -21 -58 3 -79 19 -16 19 -17
-12 -36 -25 -15 -28 -21 -17 -28 16 -10 122 -12 132 -2 10 9 -23 43 -42 43
-11 0 -9 4 7 16 42 29 18 104 -35 104 -11 0 -27 -8 -36 -18z M173 253 c-8 -3
-13 -23 -13 -49 l0 -44 -64 0 c-93 0 -96 -2 -96 -70 0 -44 4 -59 16 -64 20 -8
428 -8 448 0 12 5 16 20 16 64 0 68 -3 70 -96 70 l-64 0 0 44 c0 31 -5 46 -16
50 -18 7 -113 7 -131 -1z"/>
</g>
</svg>

