<?xml version="1.0" standalone="no"?>
<!DOCTYPE svg PUBLIC "-//W3C//DTD SVG 20010904//EN"
 "http://www.w3.org/TR/2001/REC-SVG-20010904/DTD/svg10.dtd">
<svg version="1.0" xmlns="http://www.w3.org/2000/svg"
 width="48.000000pt" height="48.000000pt" viewBox="0 0 48.000000 48.000000"
 preserveAspectRatio="xMidYMid meet">
<metadata>
Created by potrace 1.16, written by Peter Selinger 2001-2019
</metadata>
<g transform="translate(0.000000,48.000000) scale(0.100000,-0.100000)"
fill="currentColor" stroke="currentColor" stroke-width="6" stroke-linejoin="round">
<path d="M215 380 c-12 -23 -22 -30 -45 -30 -35 0 -38 -15 -9 -46 20 -21 20
-26 9 -54 -17 -40 -7 -47 35 -27 33 16 37 16 70 0 42 -20 52 -13 35 27 -11 28
-11 33 9 54 29 31 26 46 -9 46 -23 0 -33 7 -45 30 -9 17 -20 30 -25 30 -5 0
-16 -13 -25 -30z M60 200 c-6 -12 -21 -20 -35 -20 -29 0 -32 -12 -9 -31 11 -9
14 -23 10 -47 -5 -32 -3 -34 17 -27 28 9 46 9 74 0 21 -7 22 -5 17 24 -5 22
-2 37 10 50 18 19 12 31 -15 31 -10 0 -23 9 -29 20 -6 11 -15 20 -20 20 -5 0
-14 -9 -20 -20z M380 200 c-6 -12 -21 -20 -35 -20 -30 0 -32 -11 -6 -34 16
-15 18 -23 10 -43 -12 -33 -5 -39 27 -25 17 8 31 9 44 2 32 -17 39 -12 33 23
-3 23 0 37 11 46 23 19 20 31 -9 31 -14 0 -29 8 -35 20 -6 11 -15 20 -20 20
-5 0 -14 -9 -20 -20z"/>
</g>
</svg>

