<?xml version="1.0" standalone="no"?>
<!DOCTYPE svg PUBLIC "-//W3C//DTD SVG 20010904//EN"
 "http://www.w3.org/TR/2001/REC-SVG-20010904/DTD/svg10.dtd">
<svg version="1.0" xmlns="http://www.w3.org/2000/svg"
 width="48.000000pt" height="48.000000pt" viewBox="0 0 48.000000 48.000000"
 preserveAspectRatio="xMidYMid meet">
<metadata>
Created by potrace 1.16, written by Peter Selinger 2001-2019
</metadata>
<g transform="translate(0.000000,48.000000) scale(0.100000,-0.100000)"
fill="currentColor" stroke="currentColor" stroke-width="6" stroke-linejoin="round">
<path d="M223 468 c-6 -7 -12 -22 -15 -33 -2 -14 -12 -21 -36 -23 -41 -4 -52
-28 -23 -48 17 -13 20 -22 15 -53 -8 -49 9 -60 47 -32 l29 22 29 -22 c38 -28
55 -17 47 30 -5 29 -2 39 16 52 29 23 17 49 -22 49 -20 0 -32 6 -36 18 -15 46
-34 62 -51 40z M93 208 c-6 -7 -13 -22 -15 -33 -2 -14 -13 -21 -38 -25 -41 -6
-52 -33 -21 -50 18 -9 20 -17 15 -49 -8 -49 8 -60 47 -32 l29 22 29 -22 c38
-28 55 -17 47 30 -5 29 -2 39 16 52 29 23 17 49 -22 49 -20 0 -32 6 -36 18
-15 46 -34 62 -51 40z M341 180 c-8 -25 -16 -30 -41 -30 -39 0 -51 -26 -22
-49 18 -13 21 -23 16 -52 -8 -47 9 -58 47 -30 l29 22 29 -22 c38 -28 55 -17
47 30 -5 29 -2 39 16 52 29 23 17 49 -22 49 -25 0 -33 5 -41 30 -7 18 -18 30
-29 30 -11 0 -22 -12 -29 -30z"/>
</g>
</svg>

