<?xml version="1.0" standalone="no"?>
<!DOCTYPE svg PUBLIC "-//W3C//DTD SVG 20010904//EN"
 "http://www.w3.org/TR/2001/REC-SVG-20010904/DTD/svg10.dtd">
<svg version="1.0" xmlns="http://www.w3.org/2000/svg"
 width="48.000000pt" height="48.000000pt" viewBox="0 0 48.000000 48.000000"
 preserveAspectRatio="xMidYMid meet">
<metadata>
Created by potrace 1.16, written by Peter Selinger 2001-2019
</metadata>
<g transform="translate(0.000000,48.000000) scale(0.100000,-0.100000)"
fill="currentColor" stroke="currentColor" stroke-width="6" stroke-linejoin="round">
<path d="M214 459 c-14 -15 -28 -20 -58 -17 -37 3 -41 1 -49 -28 -7 -23 -18
-34 -41 -41 -29 -8 -31 -12 -28 -47 3 -29 -2 -44 -19 -62 l-22 -24 22 -24 c17
-18 22 -33 19 -62 -3 -35 -1 -39 28 -47 23 -7 34 -18 41 -41 8 -29 12 -31 47
-28 29 3 44 -2 62 -19 l24 -22 24 22 c18 17 33 22 62 19 35 -3 39 -1 47 28 7
23 18 34 41 41 29 8 31 12 28 47 -3 29 2 44 19 62 l22 24 -22 24 c-17 18 -22
33 -19 62 3 35 1 39 -28 47 -23 7 -34 18 -41 41 -8 29 -12 31 -49 28 -30 -3
-44 2 -58 17 -11 12 -22 21 -26 21 -4 0 -15 -9 -26 -21z m49 -144 c15 -31 21
-35 54 -35 l37 0 -29 -30 c-27 -29 -28 -32 -16 -66 7 -19 11 -38 8 -40 -2 -3
-21 5 -41 17 l-36 21 -36 -21 c-20 -12 -39 -20 -41 -17 -3 2 1 21 8 40 12 34
11 37 -16 66 l-29 30 37 0 c33 0 39 4 54 35 9 19 20 35 23 35 3 0 14 -16 23
-35z"/>
</g>
</svg>

