<?xml version="1.0" standalone="no"?>
<!DOCTYPE svg PUBLIC "-//W3C//DTD SVG 20010904//EN"
 "http://www.w3.org/TR/2001/REC-SVG-20010904/DTD/svg10.dtd">
<svg version="1.0" xmlns="http://www.w3.org/2000/svg"
 width="48.000000pt" height="48.000000pt" viewBox="0 0 48.000000 48.000000"
 preserveAspectRatio="xMidYMid meet">
<metadata>
Created by potrace 1.16, written by Peter Selinger 2001-2019
</metadata>
<g transform="translate(0.000000,48.000000) scale(0.100000,-0.100000)"
fill="currentColor" stroke="currentColor" stroke-width="6" stroke-linejoin="round">
<path d="M212 453 c-5 -10 -17 -42 -26 -70 l-18 -53 -59 0 c-64 0 -99 -12 -99
-35 0 -7 26 -36 57 -64 l57 -50 -23 -71 c-36 -112 -13 -129 79 -60 30 22 60
38 67 36 7 -3 38 -24 69 -47 51 -39 56 -41 71 -26 15 15 15 22 -7 93 l-24 76
49 44 c28 24 53 43 58 44 4 0 7 11 7 24 0 28 -21 36 -101 36 l-57 0 -23 68
c-19 52 -29 68 -46 70 -13 2 -25 -4 -31 -15z"/>
</g>
</svg>

