<?xml version="1.0" standalone="no"?>
<!DOCTYPE svg PUBLIC "-//W3C//DTD SVG 20010904//EN"
 "http://www.w3.org/TR/2001/REC-SVG-20010904/DTD/svg10.dtd">
<svg version="1.0" xmlns="http://www.w3.org/2000/svg"
 width="48.000000pt" height="48.000000pt" viewBox="0 0 48.000000 48.000000"
 preserveAspectRatio="xMidYMid meet">
<metadata>
Created by potrace 1.16, written by Peter Selinger 2001-2019
</metadata>
<g transform="translate(0.000000,48.000000) scale(0.100000,-0.100000)"
fill="currentColor" stroke="currentColor" stroke-width="6" stroke-linejoin="round">
<path d="M214 453 c-3 -10 -16 -43 -28 -73 l-22 -55 -74 -5 c-97 -7 -100 -20
-21 -89 l60 -52 -25 -71 c-18 -53 -21 -74 -13 -85 17 -19 24 -17 89 29 l60 42
60 -42 c65 -46 72 -48 89 -29 8 11 5 32 -13 85 l-25 72 60 52 c79 68 76 82
-21 88 l-75 5 -26 70 c-21 54 -32 71 -49 73 -14 2 -23 -3 -26 -15z m51 -115
l21 -53 57 -5 57 -5 -44 -35 c-50 -39 -53 -48 -31 -110 8 -24 14 -45 12 -47
-2 -2 -22 10 -45 27 -23 16 -46 30 -52 30 -6 0 -29 -14 -52 -30 -23 -17 -43
-29 -45 -27 -2 2 4 23 12 47 21 60 20 66 -27 108 l-41 37 54 5 54 5 20 52 c11
29 22 53 25 53 3 0 14 -24 25 -52z"/>
</g>
</svg>

