<?xml version="1.0" standalone="no"?>
<!DOCTYPE svg PUBLIC "-//W3C//DTD SVG 20010904//EN"
 "http://www.w3.org/TR/2001/REC-SVG-20010904/DTD/svg10.dtd">
<svg version="1.0" xmlns="http://www.w3.org/2000/svg"
 width="48.000000pt" height="48.000000pt" viewBox="0 0 48.000000 48.000000"
 preserveAspectRatio="xMidYMid meet">
<metadata>
Created by potrace 1.16, written by Peter Selinger 2001-2019
</metadata>
<g transform="translate(0.000000,48.000000) scale(0.100000,-0.100000)"
fill="currentColor" stroke="currentColor" stroke-width="6" stroke-linejoin="round">
<path d="M160 467 c-49 -16 -133 -102 -148 -153 -28 -94 -8 -169 63 -239 101
-102 229 -102 330 0 102 101 102 229 0 330 -70 71 -152 91 -245 62z m106 -132
c16 -44 18 -45 60 -45 24 0 44 -3 44 -7 0 -3 -15 -19 -32 -34 l-33 -27 17 -45
c9 -25 14 -48 11 -51 -3 -3 -25 6 -49 20 l-44 26 -46 -26 c-26 -15 -49 -24
-52 -21 -3 3 2 21 11 40 23 49 22 61 -13 87 -41 30 -38 38 14 38 42 0 44 1 60
45 10 25 21 45 26 45 5 0 16 -20 26 -45z"/>
</g>
</svg>

