<?xml version="1.0" standalone="no"?>
<!DOCTYPE svg PUBLIC "-//W3C//DTD SVG 20010904//EN"
 "http://www.w3.org/TR/2001/REC-SVG-20010904/DTD/svg10.dtd">
<svg version="1.0" xmlns="http://www.w3.org/2000/svg"
 width="48.000000pt" height="48.000000pt" viewBox="0 0 48.000000 48.000000"
 preserveAspectRatio="xMidYMid meet">
<metadata>
Created by potrace 1.16, written by Peter Selinger 2001-2019
</metadata>
<g transform="translate(0.000000,48.000000) scale(0.100000,-0.100000)"
fill="currentColor" stroke="currentColor" stroke-width="6" stroke-linejoin="round">
<path d="M200 350 c-16 -32 -27 -40 -57 -46 -39 -7 -63 -20 -63 -35 0 -5 14
-24 31 -44 27 -30 31 -41 26 -73 -4 -20 -2 -44 3 -52 8 -13 13 -13 42 -1 42
18 74 18 116 0 29 -12 34 -12 42 1 5 8 7 32 3 52 -5 32 -1 43 26 73 17 20 31
39 31 43 0 15 -24 32 -46 32 -38 0 -54 11 -75 51 -26 52 -52 52 -79 -1z"/>
</g>
</svg>

