<?xml version="1.0" standalone="no"?>
<!DOCTYPE svg PUBLIC "-//W3C//DTD SVG 20010904//EN"
 "http://www.w3.org/TR/2001/REC-SVG-20010904/DTD/svg10.dtd">
<svg version="1.0" xmlns="http://www.w3.org/2000/svg"
 width="48.000000pt" height="48.000000pt" viewBox="0 0 48.000000 48.000000"
 preserveAspectRatio="xMidYMid meet">
<metadata>
Created by potrace 1.16, written by Peter Selinger 2001-2019
</metadata>
<g transform="translate(0.000000,48.000000) scale(0.100000,-0.100000)"
fill="currentColor" stroke="currentColor" stroke-width="6" stroke-linejoin="round">
<path d="M254 472 c-35 -24 -20 -82 21 -82 16 0 25 -6 25 -15 0 -10 -10 -15
-34 -15 -24 0 -39 -7 -50 -21 -14 -21 -15 -19 -18 37 -3 53 -5 59 -23 55 -26
-4 -64 -4 -90 0 -18 4 -21 -3 -26 -71 -3 -41 -16 -106 -28 -145 -12 -38 -24
-78 -27 -87 -5 -17 11 -18 235 -18 133 0 241 1 241 3 0 1 -11 38 -25 82 -14
44 -25 94 -25 111 0 39 -16 54 -57 54 -23 0 -33 5 -33 15 0 9 9 15 25 15 28 0
48 30 38 57 -10 28 -23 33 -83 33 -30 0 -60 -4 -66 -8z m-94 -142 c0 -49 -1
-50 -30 -50 -29 0 -30 1 -30 50 0 49 1 50 30 50 29 0 30 -1 30 -50z m230 -30
c0 -18 -7 -20 -70 -20 -63 0 -70 2 -70 20 0 18 7 20 70 20 63 0 70 -2 70 -20z
m-225 -120 c0 -18 -33 -26 -47 -12 -6 6 -7 15 -3 22 10 16 50 8 50 -10z m100
0 c0 -18 -33 -26 -47 -12 -6 6 -7 15 -3 22 10 16 50 8 50 -10z m110 0 c0 -18
-33 -26 -47 -12 -6 6 -7 15 -3 22 10 16 50 8 50 -10z M0 57 c0 -18 5 -38 12
-45 17 -17 439 -17 456 0 7 7 12 27 12 45 l0 33 -240 0 -240 0 0 -33z m280
-12 c0 -11 -11 -15 -40 -15 -29 0 -40 4 -40 15 0 11 11 15 40 15 29 0 40 -4
40 -15z"/>
</g>
</svg>

