<?xml version="1.0" standalone="no"?>
<!DOCTYPE svg PUBLIC "-//W3C//DTD SVG 20010904//EN"
 "http://www.w3.org/TR/2001/REC-SVG-20010904/DTD/svg10.dtd">
<svg version="1.0" xmlns="http://www.w3.org/2000/svg"
 width="48.000000pt" height="48.000000pt" viewBox="0 0 48.000000 48.000000"
 preserveAspectRatio="xMidYMid meet">
<metadata>
Created by potrace 1.16, written by Peter Selinger 2001-2019
</metadata>
<g transform="translate(0.000000,48.000000) scale(0.100000,-0.100000)"
fill="currentColor" stroke="currentColor" stroke-width="6" stroke-linejoin="round">
<path d="M76 463 c-8 -8 -8 -438 0 -446 4 -3 15 -2 25 4 13 6 25 6 39 -3 16
-10 24 -10 40 0 16 10 24 10 40 0 16 -10 24 -10 40 0 16 10 24 10 40 0 16 -10
24 -10 40 0 14 9 26 9 39 3 10 -6 21 -7 25 -4 8 8 8 438 0 446 -4 3 -15 2 -25
-4 -13 -6 -25 -6 -39 3 -16 10 -24 10 -40 0 -16 -10 -24 -10 -40 0 -16 10 -24
10 -40 0 -16 -10 -24 -10 -40 0 -16 10 -24 10 -40 0 -14 -9 -26 -9 -39 -3 -10
6 -21 7 -25 4z m273 -154 c15 -35 10 -45 -17 -30 -13 7 -22 7 -30 -1 -19 -19
-14 -28 23 -44 22 -9 37 -23 41 -38 7 -28 -11 -66 -30 -66 -8 0 -16 -7 -20
-15 -8 -23 -20 -18 -35 16 -15 35 -10 45 17 30 13 -7 22 -7 30 1 19 19 14 28
-23 44 -22 9 -37 23 -41 38 -7 28 11 66 30 66 8 0 16 7 20 15 8 23 20 18 35
-16z m-129 -9 c0 -5 -20 -10 -45 -10 -25 0 -45 5 -45 10 0 6 20 10 45 10 25 0
45 -4 45 -10z m0 -80 c0 -5 -20 -10 -45 -10 -25 0 -45 5 -45 10 0 6 20 10 45
10 25 0 45 -4 45 -10z m-10 -80 c0 -5 -18 -10 -40 -10 -22 0 -40 5 -40 10 0 6
18 10 40 10 22 0 40 -4 40 -10z"/>
</g>
</svg>

