<?xml version="1.0" standalone="no"?>
<!DOCTYPE svg PUBLIC "-//W3C//DTD SVG 20010904//EN"
 "http://www.w3.org/TR/2001/REC-SVG-20010904/DTD/svg10.dtd">
<svg version="1.0" xmlns="http://www.w3.org/2000/svg"
 width="48.000000pt" height="48.000000pt" viewBox="0 0 48.000000 48.000000"
 preserveAspectRatio="xMidYMid meet">
<metadata>
Created by potrace 1.16, written by Peter Selinger 2001-2019
</metadata>
<g transform="translate(0.000000,48.000000) scale(0.100000,-0.100000)"
fill="currentColor" stroke="currentColor" stroke-width="6" stroke-linejoin="round">
<path d="M76 463 c-8 -8 -8 -438 0 -446 4 -3 15 -2 25 4 13 6 25 6 39 -3 16
-10 24 -10 40 0 16 10 24 10 40 0 16 -10 24 -10 40 0 16 10 24 10 40 0 16 -10
24 -10 40 0 14 9 26 9 39 3 10 -6 21 -7 25 -4 8 8 8 438 0 446 -4 3 -15 2 -25
-4 -13 -6 -25 -6 -39 3 -16 10 -24 10 -40 0 -16 -10 -24 -10 -40 0 -16 10 -24
10 -40 0 -16 -10 -24 -10 -40 0 -16 10 -24 10 -40 0 -14 -9 -26 -9 -39 -3 -10
6 -21 7 -25 4z m154 -163 c0 -5 -22 -10 -50 -10 -27 0 -50 5 -50 10 0 6 23 10
50 10 28 0 50 -4 50 -10z m120 0 c0 -5 -9 -10 -20 -10 -11 0 -20 5 -20 10 0 6
9 10 20 10 11 0 20 -4 20 -10z m-100 -80 c0 -6 -27 -10 -60 -10 -33 0 -60 4
-60 10 0 6 27 10 60 10 33 0 60 -4 60 -10z m100 0 c0 -5 -9 -10 -20 -10 -11 0
-20 5 -20 10 0 6 9 10 20 10 11 0 20 -4 20 -10z m-140 -80 c0 -5 -18 -10 -40
-10 -22 0 -40 5 -40 10 0 6 18 10 40 10 22 0 40 -4 40 -10z m140 0 c0 -5 -9
-10 -20 -10 -11 0 -20 5 -20 10 0 6 9 10 20 10 11 0 20 -4 20 -10z"/>
</g>
</svg>

