<?xml version="1.0" standalone="no"?>
<!DOCTYPE svg PUBLIC "-//W3C//DTD SVG 20010904//EN"
 "http://www.w3.org/TR/2001/REC-SVG-20010904/DTD/svg10.dtd">
<svg version="1.0" xmlns="http://www.w3.org/2000/svg"
 width="48.000000pt" height="48.000000pt" viewBox="0 0 48.000000 48.000000"
 preserveAspectRatio="xMidYMid meet">
<metadata>
Created by potrace 1.16, written by Peter Selinger 2001-2019
</metadata>
<g transform="translate(0.000000,48.000000) scale(0.100000,-0.100000)"
fill="currentColor" stroke="currentColor" stroke-width="6" stroke-linejoin="round">
<path d="M200 473 c-33 -13 -61 -49 -66 -85 -6 -33 -10 -38 -33 -38 -59 0 -62
-9 -59 -185 l3 -160 195 0 195 0 3 160 c3 176 0 185 -59 185 -23 0 -27 5 -33
38 -3 21 -16 48 -30 61 -24 23 -87 36 -116 24z m87 -55 c13 -12 23 -32 23 -45
0 -22 -3 -23 -70 -23 -65 0 -70 1 -70 22 0 30 38 68 69 68 13 0 35 -10 48 -22z
m-17 -158 c6 -11 17 -20 25 -20 17 0 19 -18 6 -39 -6 -9 -18 -11 -36 -7 -20 5
-24 10 -16 19 5 7 6 19 2 26 -6 9 -14 5 -29 -16 -27 -37 -40 -22 -19 22 19 40
50 47 67 15z m-76 -92 c9 -33 8 -35 -14 -41 -31 -8 -24 -27 10 -27 20 0 30 -5
30 -15 0 -11 -11 -15 -39 -15 -48 0 -67 19 -51 50 6 12 9 28 6 36 -4 9 3 18
17 24 32 13 34 12 41 -12z m149 -37 c22 -37 11 -61 -28 -61 -13 0 -25 -6 -28
-12 -3 -9 -11 -7 -26 8 l-22 20 22 20 c16 14 23 15 26 7 3 -7 12 -13 20 -13
10 0 13 5 8 18 -4 9 -10 25 -13 36 -8 30 20 14 41 -23z"/>
</g>
</svg>

