<?xml version="1.0" standalone="no"?>
<!DOCTYPE svg PUBLIC "-//W3C//DTD SVG 20010904//EN"
 "http://www.w3.org/TR/2001/REC-SVG-20010904/DTD/svg10.dtd">
<svg version="1.0" xmlns="http://www.w3.org/2000/svg"
 width="48.000000pt" height="48.000000pt" viewBox="0 0 48.000000 48.000000"
 preserveAspectRatio="xMidYMid meet">
<metadata>
Created by potrace 1.16, written by Peter Selinger 2001-2019
</metadata>
<g transform="translate(0.000000,48.000000) scale(0.100000,-0.100000)"
fill="currentColor" stroke="currentColor" stroke-width="6" stroke-linejoin="round">
<path d="M160 467 c-53 -17 -133 -102 -149 -158 -15 -54 -12 -84 8 -84 9 0 19
19 26 51 6 28 21 65 33 82 63 87 192 106 282 41 38 -28 40 -31 26 -51 -20 -28
-5 -48 34 -48 51 0 60 9 60 56 0 46 -20 68 -42 46 -8 -8 -22 -2 -49 22 -62 53
-147 69 -229 43z M223 384 c-3 -9 -17 -27 -29 -40 -45 -44 -18 -117 46 -126
19 -2 25 -9 25 -28 0 -37 -41 -41 -55 -5 -6 15 -16 25 -23 23 -22 -8 -19 -47
6 -72 13 -13 27 -31 30 -40 8 -21 26 -21 34 0 3 9 17 27 29 40 45 44 18 117
-46 126 -19 2 -25 9 -25 28 0 37 41 41 55 5 6 -15 16 -25 23 -23 22 8 19 47
-6 72 -13 13 -27 31 -30 40 -4 9 -11 16 -17 16 -6 0 -13 -7 -17 -16z M447 253
c-2 -4 -8 -26 -11 -48 -26 -145 -195 -212 -316 -124 -38 28 -40 31 -26 51 20
28 5 48 -34 48 -51 0 -60 -9 -60 -56 0 -46 20 -68 42 -46 8 8 22 2 49 -22 96
-82 221 -74 315 19 50 50 81 118 72 160 -3 20 -23 31 -31 18z"/>
</g>
</svg>

