<?xml version="1.0" standalone="no"?>
<!DOCTYPE svg PUBLIC "-//W3C//DTD SVG 20010904//EN"
 "http://www.w3.org/TR/2001/REC-SVG-20010904/DTD/svg10.dtd">
<svg version="1.0" xmlns="http://www.w3.org/2000/svg"
 width="48.000000pt" height="48.000000pt" viewBox="0 0 48.000000 48.000000"
 preserveAspectRatio="xMidYMid meet">
<metadata>
Created by potrace 1.16, written by Peter Selinger 2001-2019
</metadata>
<g transform="translate(0.000000,48.000000) scale(0.100000,-0.100000)"
fill="currentColor" stroke="currentColor" stroke-width="6" stroke-linejoin="round">
<path d="M160 467 c-49 -16 -133 -102 -148 -153 -28 -94 -8 -169 63 -239 101
-102 229 -102 330 0 102 101 102 229 0 330 -70 71 -152 91 -245 62z m60 -97
c0 -38 -3 -70 -7 -70 -10 0 -93 82 -93 93 0 7 76 46 93 47 4 0 7 -31 7 -70z
m85 60 c7 0 23 -9 36 -19 l24 -20 -45 -45 c-24 -25 -48 -46 -52 -46 -4 0 -8
32 -8 71 0 61 2 70 16 65 9 -3 22 -6 29 -6z m-167 -113 c23 -23 42 -46 42 -50
0 -4 -32 -7 -70 -7 l-70 0 6 28 c7 31 31 72 42 72 4 0 27 -19 50 -43z m275 16
c37 -72 36 -73 -42 -73 -39 0 -71 3 -71 7 0 10 82 93 92 93 4 0 14 -12 21 -27z
m-233 -121 c0 -4 -21 -28 -46 -52 l-45 -45 -20 24 c-10 13 -19 29 -19 36 0 7
-3 20 -6 29 -5 14 4 16 65 16 39 0 71 -4 71 -8z m254 -14 c-10 -34 -34 -78
-41 -78 -10 0 -93 82 -93 92 0 4 32 8 71 8 68 0 70 -1 63 -22z m-214 -89 c0
-68 -1 -70 -22 -63 -34 10 -78 34 -78 41 0 10 82 93 92 93 4 0 8 -32 8 -71z
m98 28 c23 -23 42 -46 42 -50 0 -7 -44 -31 -77 -41 -22 -7 -23 -5 -23 63 0 39
4 71 8 71 4 0 27 -19 50 -43z"/>
</g>
</svg>

