<?xml version="1.0" standalone="no"?>
<!DOCTYPE svg PUBLIC "-//W3C//DTD SVG 20010904//EN"
 "http://www.w3.org/TR/2001/REC-SVG-20010904/DTD/svg10.dtd">
<svg version="1.0" xmlns="http://www.w3.org/2000/svg"
 width="48.000000pt" height="48.000000pt" viewBox="0 0 48.000000 48.000000"
 preserveAspectRatio="xMidYMid meet">
<metadata>
Created by potrace 1.16, written by Peter Selinger 2001-2019
</metadata>
<g transform="translate(0.000000,48.000000) scale(0.100000,-0.100000)"
fill="currentColor" stroke="currentColor" stroke-width="6" stroke-linejoin="round">
<path d="M160 467 c-49 -16 -133 -102 -148 -153 -28 -94 -8 -169 63 -239 101
-102 229 -102 330 0 102 101 102 229 0 330 -70 71 -152 91 -245 62z m148 -52
c160 -67 160 -283 0 -350 -92 -38 -195 5 -239 100 -44 94 -2 201 96 246 49 23
94 24 143 4z M141 336 c-10 -12 -5 -23 25 -56 l37 -41 -39 -40 c-36 -37 -37
-40 -21 -56 16 -16 19 -15 57 22 l40 39 40 -39 c38 -37 41 -38 57 -22 16 16
15 19 -22 57 l-39 40 39 40 c36 37 38 41 23 56 -14 15 -19 13 -57 -21 l-41
-37 -40 36 c-46 41 -44 41 -59 22z"/>
</g>
</svg>

