<?xml version="1.0" standalone="no"?>
<!DOCTYPE svg PUBLIC "-//W3C//DTD SVG 20010904//EN"
 "http://www.w3.org/TR/2001/REC-SVG-20010904/DTD/svg10.dtd">
<svg version="1.0" xmlns="http://www.w3.org/2000/svg"
 width="48.000000pt" height="48.000000pt" viewBox="0 0 48.000000 48.000000"
 preserveAspectRatio="xMidYMid meet">
<metadata>
Created by potrace 1.16, written by Peter Selinger 2001-2019
</metadata>
<g transform="translate(0.000000,48.000000) scale(0.100000,-0.100000)"
fill="currentColor" stroke="currentColor" stroke-width="6" stroke-linejoin="round">
<path d="M67 412 c-20 -21 -37 -48 -37 -60 0 -12 19 -43 41 -67 l42 -45 -42
-45 c-23 -25 -41 -54 -41 -68 0 -28 68 -97 96 -97 11 0 38 18 59 40 21 22 43
40 48 40 6 0 29 -18 53 -40 25 -23 54 -40 67 -40 29 0 97 68 97 98 0 12 -19
43 -41 67 l-42 45 42 45 c23 25 41 54 41 68 0 29 -68 97 -98 97 -12 0 -43 -19
-67 -41 l-45 -42 -45 42 c-56 51 -80 52 -128 3z m173 -112 c6 0 35 22 64 50
l52 49 22 -21 21 -22 -49 -52 c-28 -29 -50 -59 -50 -66 0 -8 22 -36 50 -63
l50 -49 -22 -23 -21 -23 -53 50 c-29 28 -58 50 -64 50 -6 0 -35 -22 -64 -50
l-52 -49 -22 21 -21 22 49 52 c28 29 50 59 50 66 0 8 -22 36 -50 63 l-50 49
22 23 21 23 53 -50 c29 -28 58 -50 64 -50z"/>
</g>
</svg>

