<?xml version="1.0" standalone="no"?>
<!DOCTYPE svg PUBLIC "-//W3C//DTD SVG 20010904//EN"
 "http://www.w3.org/TR/2001/REC-SVG-20010904/DTD/svg10.dtd">
<svg version="1.0" xmlns="http://www.w3.org/2000/svg"
 width="48.000000pt" height="48.000000pt" viewBox="0 0 48.000000 48.000000"
 preserveAspectRatio="xMidYMid meet">
<metadata>
Created by potrace 1.16, written by Peter Selinger 2001-2019
</metadata>
<g transform="translate(0.000000,48.000000) scale(0.100000,-0.100000)"
fill="currentColor" stroke="currentColor" stroke-width="6" stroke-linejoin="round">
<path d="M5 467 c-3 -7 -4 -114 -3 -237 l3 -225 235 0 235 0 0 235 0 235 -233
3 c-183 2 -234 0 -237 -11z m197 -164 l38 -37 38 37 c65 64 89 40 25 -25 l-37
-38 42 -43 c33 -34 39 -46 30 -55 -9 -9 -21 -3 -54 29 l-42 41 -46 -42 c-38
-35 -47 -40 -52 -25 -5 11 6 29 32 56 l38 39 -37 38 c-64 65 -40 89 25 25z"/>
</g>
</svg>

