<?xml version="1.0" standalone="no"?>
<!DOCTYPE svg PUBLIC "-//W3C//DTD SVG 20010904//EN"
 "http://www.w3.org/TR/2001/REC-SVG-20010904/DTD/svg10.dtd">
<svg version="1.0" xmlns="http://www.w3.org/2000/svg"
 width="48.000000pt" height="48.000000pt" viewBox="0 0 48.000000 48.000000"
 preserveAspectRatio="xMidYMid meet">
<metadata>
Created by potrace 1.16, written by Peter Selinger 2001-2019
</metadata>
<g transform="translate(0.000000,48.000000) scale(0.100000,-0.100000)"
fill="currentColor" stroke="currentColor" stroke-width="6" stroke-linejoin="round">
<path d="M47 432 c-15 -15 -27 -34 -27 -42 0 -8 30 -45 67 -82 l67 -68 -67
-68 c-37 -37 -67 -74 -67 -82 0 -19 50 -70 69 -70 9 0 46 30 83 67 l68 67 68
-67 c37 -37 74 -67 83 -67 19 0 69 51 69 70 0 8 -30 45 -67 82 l-67 68 67 68
c37 37 67 74 67 83 0 19 -51 69 -70 69 -8 0 -45 -30 -82 -67 l-68 -67 -68 67
c-37 37 -74 67 -83 67 -8 0 -27 -13 -42 -28z"/>
</g>
</svg>

