<?xml version="1.0" standalone="no"?>
<!DOCTYPE svg PUBLIC "-//W3C//DTD SVG 20010904//EN"
 "http://www.w3.org/TR/2001/REC-SVG-20010904/DTD/svg10.dtd">
<svg version="1.0" xmlns="http://www.w3.org/2000/svg"
 width="48.000000pt" height="48.000000pt" viewBox="0 0 48.000000 48.000000"
 preserveAspectRatio="xMidYMid meet">
<metadata>
Created by potrace 1.16, written by Peter Selinger 2001-2019
</metadata>
<g transform="translate(0.000000,48.000000) scale(0.100000,-0.100000)"
fill="currentColor" stroke="currentColor" stroke-width="6" stroke-linejoin="round">
<path d="M5 467 c-3 -7 -4 -114 -3 -237 l3 -225 235 0 235 0 0 235 0 235 -233
3 c-183 2 -234 0 -237 -11z m187 -154 l48 -47 50 49 c39 38 52 47 62 37 10
-10 1 -23 -37 -62 l-49 -50 49 -50 c38 -39 47 -52 37 -62 -10 -10 -23 -1 -62
37 l-50 49 -50 -49 c-39 -38 -52 -47 -62 -37 -10 10 -1 23 37 62 l49 50 -48
49 c-27 27 -45 54 -42 60 11 17 17 14 68 -36z"/>
</g>
</svg>

