<?xml version="1.0" standalone="no"?>
<!DOCTYPE svg PUBLIC "-//W3C//DTD SVG 20010904//EN"
 "http://www.w3.org/TR/2001/REC-SVG-20010904/DTD/svg10.dtd">
<svg version="1.0" xmlns="http://www.w3.org/2000/svg"
 width="48.000000pt" height="48.000000pt" viewBox="0 0 48.000000 48.000000"
 preserveAspectRatio="xMidYMid meet">
<metadata>
Created by potrace 1.16, written by Peter Selinger 2001-2019
</metadata>
<g transform="translate(0.000000,48.000000) scale(0.100000,-0.100000)"
fill="currentColor" stroke="currentColor" stroke-width="6" stroke-linejoin="round">
<path d="M22 368 c-17 -17 -17 -239 0 -256 8 -8 59 -12 163 -12 l151 0 69 70
69 70 -69 70 -69 70 -151 0 c-104 0 -155 -4 -163 -12z m133 -78 l18 -20 23 21
c36 34 61 4 27 -33 -15 -17 -15 -19 0 -36 34 -37 9 -67 -27 -33 l-23 21 -18
-20 c-10 -11 -24 -20 -32 -20 -18 0 -16 30 4 52 15 17 15 19 0 36 -20 22 -22
52 -4 52 8 0 22 -9 32 -20z"/>
</g>
</svg>

