<?xml version="1.0" standalone="no"?>
<!DOCTYPE svg PUBLIC "-//W3C//DTD SVG 20010904//EN"
 "http://www.w3.org/TR/2001/REC-SVG-20010904/DTD/svg10.dtd">
<svg version="1.0" xmlns="http://www.w3.org/2000/svg"
 width="48.000000pt" height="48.000000pt" viewBox="0 0 48.000000 48.000000"
 preserveAspectRatio="xMidYMid meet">
<metadata>
Created by potrace 1.16, written by Peter Selinger 2001-2019
</metadata>
<g transform="translate(0.000000,48.000000) scale(0.100000,-0.100000)"
fill="currentColor" stroke="currentColor" stroke-width="6" stroke-linejoin="round">
<path d="M112 456 c-9 -20 -7 -27 9 -42 26 -23 24 -29 -12 -44 -72 -30 -104
-118 -71 -194 18 -40 68 -86 95 -86 14 0 -6 52 -29 75 -31 31 -39 68 -24 106
19 45 51 62 102 55 52 -7 90 -8 96 -1 9 9 -29 43 -55 50 l-26 6 23 24 c20 21
22 28 12 50 -10 22 -18 25 -60 25 -42 0 -50 -3 -60 -24z M346 371 c-13 -14
-14 -24 -6 -45 5 -15 10 -28 10 -29 0 -2 -17 -1 -37 1 -79 7 -153 -64 -153
-145 0 -133 145 -199 245 -112 60 53 68 156 15 204 -27 25 -25 32 10 40 24 5
30 12 30 34 0 22 -8 31 -45 49 -55 26 -48 26 -69 3z m21 -143 c24 -20 42 -70
36 -101 -7 -34 -56 -77 -89 -77 -33 0 -81 25 -94 49 -13 25 -13 77 0 101 25
46 107 61 147 28z M261 191 c-21 -29 -29 -81 -13 -81 19 0 72 74 72 99 0 22
-39 10 -59 -18z"/>
</g>
</svg>

