<?xml version="1.0" standalone="no"?>
<!DOCTYPE svg PUBLIC "-//W3C//DTD SVG 20010904//EN"
 "http://www.w3.org/TR/2001/REC-SVG-20010904/DTD/svg10.dtd">
<svg version="1.0" xmlns="http://www.w3.org/2000/svg"
 width="48.000000pt" height="48.000000pt" viewBox="0 0 48.000000 48.000000"
 preserveAspectRatio="xMidYMid meet">
<metadata>
Created by potrace 1.16, written by Peter Selinger 2001-2019
</metadata>
<g transform="translate(0.000000,48.000000) scale(0.100000,-0.100000)"
fill="currentColor" stroke="currentColor" stroke-width="6" stroke-linejoin="round">
<path d="M182 463 c-112 -55 -103 -220 15 -269 28 -12 33 -19 33 -49 0 -19 -3
-35 -7 -35 -12 1 -37 24 -49 45 -15 27 -71 45 -107 34 -17 -5 -32 -10 -34 -13
-6 -5 46 -88 61 -98 17 -12 33 -9 51 8 15 16 18 15 43 -3 15 -11 31 -34 37
-51 5 -18 14 -32 20 -32 6 0 28 20 48 45 32 38 40 43 56 33 51 -31 110 36 96
109 -5 27 -10 33 -23 28 -9 -4 -30 -12 -47 -17 -39 -14 -65 -37 -65 -58 0 -9
-9 -25 -20 -35 -20 -18 -20 -17 -20 31 1 48 2 50 43 69 24 12 50 34 61 54 71
124 -63 268 -192 204z m82 -28 c3 -8 12 -15 21 -15 8 0 15 -6 15 -14 0 -10
-13 -16 -37 -18 -51 -4 -51 -21 -1 -44 55 -24 61 -54 21 -95 -27 -28 -53 -38
-53 -20 0 5 -9 11 -21 14 -33 9 -17 32 24 35 48 4 47 23 -3 44 -33 14 -40 21
-40 44 0 16 11 39 28 55 31 33 38 35 46 14z"/>
</g>
</svg>

