<?xml version="1.0" standalone="no"?>
<!DOCTYPE svg PUBLIC "-//W3C//DTD SVG 20010904//EN"
 "http://www.w3.org/TR/2001/REC-SVG-20010904/DTD/svg10.dtd">
<svg version="1.0" xmlns="http://www.w3.org/2000/svg"
 width="48.000000pt" height="48.000000pt" viewBox="0 0 48.000000 48.000000"
 preserveAspectRatio="xMidYMid meet">
<metadata>
Created by potrace 1.16, written by Peter Selinger 2001-2019
</metadata>
<g transform="translate(0.000000,48.000000) scale(0.100000,-0.100000)"
fill="currentColor" stroke="currentColor" stroke-width="6" stroke-linejoin="round">
<path d="M137 417 c-155 -89 -151 -92 103 -92 252 0 256 3 112 93 -54 34 -101
62 -103 62 -2 0 -53 -28 -112 -63z M55 280 c-8 -13 3 -30 21 -30 10 0 14 -14
14 -54 0 -46 -3 -54 -21 -59 -12 -3 -19 -12 -17 -19 6 -18 150 -18 156 0 2 7
-5 16 -17 19 -18 5 -21 13 -21 58 0 45 3 53 21 58 12 3 19 12 17 19 -6 16
-143 24 -153 8z M275 280 c-8 -13 3 -30 21 -30 10 0 14 -14 14 -54 0 -46 -3
-54 -21 -59 -12 -3 -19 -12 -17 -19 6 -18 150 -18 156 0 2 7 -5 16 -17 19 -18
5 -21 13 -21 58 0 45 3 53 21 58 12 3 19 12 17 19 -6 16 -143 24 -153 8z M20
35 l0 -35 220 0 220 0 0 35 0 35 -220 0 -220 0 0 -35z"/>
</g>
</svg>

