<?xml version="1.0" standalone="no"?>
<!DOCTYPE svg PUBLIC "-//W3C//DTD SVG 20010904//EN"
 "http://www.w3.org/TR/2001/REC-SVG-20010904/DTD/svg10.dtd">
<svg version="1.0" xmlns="http://www.w3.org/2000/svg"
 width="48.000000pt" height="48.000000pt" viewBox="0 0 48.000000 48.000000"
 preserveAspectRatio="xMidYMid meet">
<metadata>
Created by potrace 1.16, written by Peter Selinger 2001-2019
</metadata>
<g transform="translate(0.000000,48.000000) scale(0.100000,-0.100000)"
fill="currentColor" stroke="currentColor" stroke-width="6" stroke-linejoin="round">
<path d="M16 464 c-22 -22 -24 -385 -2 -406 8 -8 15 -23 17 -33 6 -27 29 -31
36 -6 5 20 11 21 173 21 162 0 168 -1 173 -21 7 -25 30 -21 36 6 2 10 9 25 17
33 22 21 20 384 -2 406 -23 24 -425 24 -448 0z m287 -58 c103 -43 128 -177 48
-257 -65 -65 -157 -65 -222 0 -124 123 13 325 174 257z M186 367 c-17 -12 -17
-14 -1 -27 25 -21 92 -20 111 1 14 16 14 18 -5 28 -27 15 -83 14 -105 -2z
M130 306 c-13 -34 -13 -58 0 -92 10 -25 12 -26 28 -11 23 21 23 91 -1 114 -15
15 -17 15 -27 -11z M320 314 c-22 -25 -21 -90 1 -110 18 -16 19 -15 30 12 11
30 6 91 -9 106 -5 5 -15 2 -22 -8z M216 284 c-9 -8 -16 -19 -16 -24 0 -11 29
-40 40 -40 11 0 40 29 40 40 0 5 -7 16 -16 24 -8 9 -19 16 -24 16 -5 0 -16 -7
-24 -16z M183 178 c-15 -16 -14 -18 11 -28 34 -13 58 -13 92 0 26 10 26 12 11
27 -23 24 -93 24 -114 1z"/>
</g>
</svg>

