<?xml version="1.0" standalone="no"?>
<!DOCTYPE svg PUBLIC "-//W3C//DTD SVG 20010904//EN"
 "http://www.w3.org/TR/2001/REC-SVG-20010904/DTD/svg10.dtd">
<svg version="1.0" xmlns="http://www.w3.org/2000/svg"
 width="48.000000pt" height="48.000000pt" viewBox="0 0 48.000000 48.000000"
 preserveAspectRatio="xMidYMid meet">
<metadata>
Created by potrace 1.16, written by Peter Selinger 2001-2019
</metadata>
<g transform="translate(0.000000,48.000000) scale(0.100000,-0.100000)"
fill="currentColor" stroke="currentColor" stroke-width="6" stroke-linejoin="round">
<path d="M105 470 c-3 -5 -19 -10 -36 -10 -34 0 -38 -17 -13 -55 14 -22 24
-25 70 -25 50 0 56 2 74 32 21 35 18 52 -9 43 -9 -3 -26 2 -37 10 -22 17 -40
19 -49 5z M380 472 c0 -4 5 -13 12 -20 10 -10 -3 -27 -56 -81 -65 -66 -76 -91
-38 -91 9 0 45 28 79 62 49 49 65 60 75 50 22 -22 28 -13 28 38 l0 50 -50 0
c-27 0 -50 -4 -50 -8z M35 311 c-51 -76 -40 -150 28 -191 41 -25 83 -25 124 0
68 41 79 115 28 191 -25 39 -26 39 -90 39 -64 0 -65 0 -90 -39z m119 -6 c23
-17 13 -32 -24 -37 l-25 -3 30 -15 c37 -19 45 -55 16 -81 -24 -23 -28 -23 -47
-5 -21 22 -17 36 11 36 33 0 31 11 -5 32 -34 20 -37 35 -12 66 20 25 30 27 56
7z M252 158 c-16 -16 -16 -130 0 -146 16 -16 200 -16 216 0 16 16 16 130 0
146 -16 16 -200 16 -216 0z m188 -73 l0 -45 -80 0 -80 0 0 45 0 45 80 0 80 0
0 -45z M337 97 c-3 -8 -2 -20 3 -27 11 -18 42 -4 38 17 -4 22 -34 29 -41 10z"/>
</g>
</svg>

