<?xml version="1.0" standalone="no"?>
<!DOCTYPE svg PUBLIC "-//W3C//DTD SVG 20010904//EN"
 "http://www.w3.org/TR/2001/REC-SVG-20010904/DTD/svg10.dtd">
<svg version="1.0" xmlns="http://www.w3.org/2000/svg"
 width="48.000000pt" height="48.000000pt" viewBox="0 0 48.000000 48.000000"
 preserveAspectRatio="xMidYMid meet">
<metadata>
Created by potrace 1.16, written by Peter Selinger 2001-2019
</metadata>
<g transform="translate(0.000000,48.000000) scale(0.100000,-0.100000)"
fill="currentColor" stroke="currentColor" stroke-width="6" stroke-linejoin="round">
<path d="M137 409 c-59 -39 -106 -76 -104 -83 3 -8 66 -12 211 -14 191 -2 207
-1 204 15 -3 15 -181 153 -197 153 -3 0 -55 -32 -114 -71z M44 268 c-4 -6 0
-16 9 -23 23 -16 23 -84 0 -100 -26 -19 -6 -35 47 -35 53 0 73 16 47 35 -23
16 -23 84 0 100 9 7 13 17 9 23 -9 15 -103 15 -112 0z M184 268 c-4 -6 0 -16
9 -23 23 -16 23 -84 0 -100 -26 -19 -6 -35 47 -35 53 0 73 16 47 35 -23 16
-23 84 0 100 26 19 6 35 -47 35 -27 0 -52 -5 -56 -12z M334 268 c-4 -6 0 -16
9 -23 23 -16 23 -84 0 -100 -26 -19 -6 -35 47 -35 53 0 73 16 47 35 -23 16
-23 84 0 100 26 19 6 35 -47 35 -27 0 -52 -5 -56 -12z M21 46 c-12 -18 -21
-36 -21 -40 0 -3 108 -6 240 -6 132 0 240 3 240 6 0 4 -9 22 -21 40 l-21 34
-198 0 -198 0 -21 -34z"/>
</g>
</svg>

