<?xml version="1.0" standalone="no"?>
<!DOCTYPE svg PUBLIC "-//W3C//DTD SVG 20010904//EN"
 "http://www.w3.org/TR/2001/REC-SVG-20010904/DTD/svg10.dtd">
<svg version="1.0" xmlns="http://www.w3.org/2000/svg"
 width="48.000000pt" height="48.000000pt" viewBox="0 0 48.000000 48.000000"
 preserveAspectRatio="xMidYMid meet">
<metadata>
Created by potrace 1.16, written by Peter Selinger 2001-2019
</metadata>
<g transform="translate(0.000000,48.000000) scale(0.100000,-0.100000)"
fill="currentColor" stroke="currentColor" stroke-width="6" stroke-linejoin="round">
<path d="M304 465 c-10 -8 -37 -15 -60 -15 -79 0 -160 -43 -189 -100 -8 -16
-15 -31 -15 -33 0 -3 36 -6 79 -9 44 -3 87 -10 95 -18 12 -9 16 -33 16 -98 l0
-85 39 7 c37 6 40 4 50 -24 11 -32 31 -39 50 -16 8 10 9 21 1 41 -10 25 -7 32
22 62 17 18 39 33 49 33 43 0 53 77 12 95 -13 5 -23 15 -23 22 0 7 -16 31 -36
53 -30 33 -34 43 -24 55 30 36 -24 62 -66 30z m-46 -77 c-3 -7 -20 -16 -39
-20 -19 -4 -47 -10 -64 -13 l-30 -6 28 25 c20 19 39 26 68 26 28 0 39 -4 37
-12z m118 -69 c10 -17 -13 -36 -27 -22 -12 12 -4 33 11 33 5 0 12 -5 16 -11z
M21 269 c-56 -22 43 -48 133 -35 49 8 62 29 24 40 -35 9 -130 6 -157 -5z M0
192 c0 -27 33 -42 94 -42 80 0 106 9 106 39 l0 26 -100 0 c-97 0 -100 -1 -100
-23z M0 112 c0 -27 33 -42 94 -42 80 0 106 9 106 39 l0 26 -100 0 c-97 0 -100
-1 -100 -23z M0 37 c0 -23 39 -37 103 -37 74 0 97 8 97 34 0 20 -5 21 -100 21
-89 0 -100 -2 -100 -18z"/>
</g>
</svg>

