<?xml version="1.0" standalone="no"?>
<!DOCTYPE svg PUBLIC "-//W3C//DTD SVG 20010904//EN"
 "http://www.w3.org/TR/2001/REC-SVG-20010904/DTD/svg10.dtd">
<svg version="1.0" xmlns="http://www.w3.org/2000/svg"
 width="48.000000pt" height="48.000000pt" viewBox="0 0 48.000000 48.000000"
 preserveAspectRatio="xMidYMid meet">
<metadata>
Created by potrace 1.16, written by Peter Selinger 2001-2019
</metadata>
<g transform="translate(0.000000,48.000000) scale(0.100000,-0.100000)"
fill="currentColor" stroke="currentColor" stroke-width="6" stroke-linejoin="round">
<path d="M293 465 c-96 -42 -95 -183 2 -229 120 -57 237 98 148 196 -42 47
-94 58 -150 33z m78 -36 c23 -23 19 -33 -13 -34 -35 0 -31 -20 7 -38 43 -21
45 -43 5 -80 -25 -24 -31 -26 -36 -13 -3 9 -13 16 -21 16 -28 0 -6 25 25 28
37 4 42 18 10 28 -25 7 -58 33 -58 45 0 7 51 69 57 69 2 0 12 -9 24 -21z M85
350 c-4 -6 -1 -17 5 -25 10 -12 6 -22 -19 -50 -17 -20 -31 -40 -31 -45 0 -6
-6 -10 -14 -10 -18 0 -30 -33 -21 -60 3 -11 14 -20 24 -20 32 0 66 -48 66 -93
0 -50 22 -57 43 -14 12 25 18 27 68 27 46 0 54 -3 54 -19 0 -23 25 -45 41 -36
7 5 9 21 5 43 -4 29 0 41 24 69 43 48 39 68 -13 82 -57 14 -89 40 -112 90 -10
23 -24 41 -30 41 -7 0 -18 7 -25 15 -14 17 -56 20 -65 5z m30 -128 c0 -18 -20
-15 -23 4 -3 10 1 15 10 12 7 -3 13 -10 13 -16z"/>
</g>
</svg>

