<?xml version="1.0" standalone="no"?>
<!DOCTYPE svg PUBLIC "-//W3C//DTD SVG 20010904//EN"
 "http://www.w3.org/TR/2001/REC-SVG-20010904/DTD/svg10.dtd">
<svg version="1.0" xmlns="http://www.w3.org/2000/svg"
 width="48.000000pt" height="48.000000pt" viewBox="0 0 48.000000 48.000000"
 preserveAspectRatio="xMidYMid meet">
<metadata>
Created by potrace 1.16, written by Peter Selinger 2001-2019
</metadata>
<g transform="translate(0.000000,48.000000) scale(0.100000,-0.100000)"
fill="currentColor" stroke="currentColor" stroke-width="6" stroke-linejoin="round">
<path d="M22 417 c-20 -22 -22 -33 -22 -161 0 -133 1 -138 25 -162 14 -14 25
-31 25 -39 0 -23 41 -18 47 5 5 18 14 20 85 20 71 0 80 -2 85 -20 7 -27 41
-25 52 3 16 42 32 48 91 32 29 -8 57 -12 62 -9 4 3 8 84 8 180 0 194 4 184
-73 158 -42 -14 -48 -14 -69 0 -18 13 -51 16 -158 16 -130 0 -138 -1 -158 -23z
m296 -160 l3 -138 -138 3 -138 3 -3 124 c-1 69 0 131 2 138 4 11 35 13 138 11
l133 -3 3 -138z M101 362 c-6 -12 -18 -22 -26 -22 -22 0 -18 -18 5 -25 11 -3
20 -13 20 -21 0 -20 5 -18 35 11 29 29 30 35 12 35 -8 0 -18 10 -24 22 l-10
23 -12 -23z M142 278 c-7 -7 -12 -20 -12 -30 0 -15 9 -18 55 -18 30 0 55 2 55
4 0 3 -4 16 -10 30 -8 21 -16 26 -43 26 -18 0 -38 -5 -45 -12z M80 184 c-6
-14 -10 -27 -10 -30 0 -2 23 -4 50 -4 29 0 50 5 50 11 0 51 -73 70 -90 23z
M200 184 c-6 -14 -10 -27 -10 -30 0 -2 23 -4 50 -4 36 0 50 4 50 14 0 33 -13
46 -46 46 -28 0 -36 -5 -44 -26z"/>
</g>
</svg>

