<?xml version="1.0" standalone="no"?>
<!DOCTYPE svg PUBLIC "-//W3C//DTD SVG 20010904//EN"
 "http://www.w3.org/TR/2001/REC-SVG-20010904/DTD/svg10.dtd">
<svg version="1.0" xmlns="http://www.w3.org/2000/svg"
 width="48.000000pt" height="48.000000pt" viewBox="0 0 48.000000 48.000000"
 preserveAspectRatio="xMidYMid meet">
<metadata>
Created by potrace 1.16, written by Peter Selinger 2001-2019
</metadata>
<g transform="translate(0.000000,48.000000) scale(0.100000,-0.100000)"
fill="currentColor" stroke="currentColor" stroke-width="6" stroke-linejoin="round">
<path d="M102 447 c-7 -8 -6 -18 4 -31 12 -17 10 -23 -21 -58 -19 -21 -35 -44
-35 -51 0 -7 -10 -17 -22 -22 -18 -8 -23 -18 -23 -50 0 -35 3 -40 26 -45 14
-3 40 -21 57 -41 27 -30 30 -40 25 -76 -9 -65 37 -70 50 -5 5 26 7 27 77 27
70 0 72 -1 77 -27 13 -64 59 -60 49 4 -6 36 -3 44 29 79 19 21 35 45 35 53 0
8 11 28 25 44 36 43 32 82 -6 61 -13 -6 -19 -6 -19 0 0 17 -61 81 -93 97 -16
9 -53 17 -82 19 -29 2 -66 10 -83 19 -37 19 -56 20 -70 3z m208 -82 c17 -9 30
-22 30 -30 0 -18 -1 -18 -36 0 -16 8 -41 15 -56 15 -18 0 -28 5 -28 15 0 20
52 20 90 0z m-174 -66 c10 -17 -13 -36 -27 -22 -12 12 -4 33 11 33 5 0 12 -5
16 -11z"/>
</g>
</svg>

