<?xml version="1.0" standalone="no"?>
<!DOCTYPE svg PUBLIC "-//W3C//DTD SVG 20010904//EN"
 "http://www.w3.org/TR/2001/REC-SVG-20010904/DTD/svg10.dtd">
<svg version="1.0" xmlns="http://www.w3.org/2000/svg"
 width="48.000000pt" height="48.000000pt" viewBox="0 0 48.000000 48.000000"
 preserveAspectRatio="xMidYMid meet">
<metadata>
Created by potrace 1.16, written by Peter Selinger 2001-2019
</metadata>
<g transform="translate(0.000000,48.000000) scale(0.100000,-0.100000)"
fill="currentColor" stroke="currentColor" stroke-width="6" stroke-linejoin="round">
<path d="M202 464 c-12 -8 -29 -29 -38 -46 -11 -22 -21 -29 -35 -25 -34 9 -85
-11 -98 -39 -9 -21 -8 -33 8 -70 20 -44 20 -44 0 -88 -31 -71 -3 -111 78 -108
26 1 35 -5 52 -33 26 -45 62 -62 96 -47 14 7 35 27 46 47 17 28 26 34 52 33
48 -2 73 9 86 38 9 21 8 33 -8 70 -20 44 -20 44 0 88 16 37 17 49 8 70 -13 28
-64 48 -98 39 -14 -4 -24 3 -35 25 -18 34 -52 62 -76 62 -9 0 -26 -7 -38 -16z
m63 -44 c24 -27 13 -50 -25 -50 -38 0 -49 23 -25 50 10 11 21 20 25 20 4 0 15
-9 25 -20z m-125 -88 c0 -10 -11 -29 -24 -41 l-24 -23 -15 28 c-19 39 -12 54
29 54 26 0 34 -4 34 -18z m270 -5 c0 -13 -6 -31 -13 -41 -13 -18 -15 -17 -35
9 -32 40 -28 55 13 55 30 0 35 -3 35 -23z m-134 -28 c29 -18 34 -26 34 -59 0
-33 -5 -41 -35 -60 -35 -22 -36 -22 -68 -3 -27 16 -33 26 -35 60 -3 36 0 43
30 62 40 25 34 25 74 0z m-136 -155 c0 -18 -66 -20 -73 -1 -2 6 2 25 11 42
l15 29 23 -28 c13 -15 24 -34 24 -42z m263 39 c19 -38 11 -53 -29 -53 -25 0
-34 4 -34 17 0 14 36 63 46 63 2 0 10 -12 17 -27z m-126 -89 c3 -9 -3 -25 -16
-37 l-21 -21 -21 21 c-13 12 -19 28 -16 37 8 21 66 21 74 0z M218 269 c-42
-24 -1 -82 42 -59 25 14 26 46 1 60 -23 12 -22 12 -43 -1z"/>
</g>
</svg>

