<?xml version="1.0" standalone="no"?>
<!DOCTYPE svg PUBLIC "-//W3C//DTD SVG 20010904//EN"
 "http://www.w3.org/TR/2001/REC-SVG-20010904/DTD/svg10.dtd">
<svg version="1.0" xmlns="http://www.w3.org/2000/svg"
 width="48.000000pt" height="48.000000pt" viewBox="0 0 48.000000 48.000000"
 preserveAspectRatio="xMidYMid meet">
<metadata>
Created by potrace 1.16, written by Peter Selinger 2001-2019
</metadata>
<g transform="translate(0.000000,48.000000) scale(0.100000,-0.100000)"
fill="currentColor" stroke="currentColor" stroke-width="6" stroke-linejoin="round">
<path d="M125 461 c-106 -49 -154 -173 -106 -276 48 -104 165 -151 272 -109
l40 17 48 -47 c48 -47 68 -55 89 -34 21 21 13 41 -34 89 l-47 48 17 40 c69
175 -110 350 -279 272z m148 -35 c44 -18 95 -78 103 -121 11 -60 -4 -106 -50
-151 -72 -72 -160 -72 -232 0 -67 67 -72 154 -11 223 53 60 122 78 190 49z
M145 329 c-4 -6 3 -21 16 -35 l22 -24 -23 -25 c-18 -19 -21 -28 -12 -37 9 -9
18 -6 37 12 l25 23 25 -23 c19 -18 28 -21 37 -12 9 9 6 18 -12 37 l-23 25 23
25 c18 19 21 28 12 37 -9 9 -18 6 -37 -12 l-25 -23 -23 21 c-26 25 -33 27 -42
11z"/>
</g>
</svg>

