<?xml version="1.0" standalone="no"?>
<!DOCTYPE svg PUBLIC "-//W3C//DTD SVG 20010904//EN"
 "http://www.w3.org/TR/2001/REC-SVG-20010904/DTD/svg10.dtd">
<svg version="1.0" xmlns="http://www.w3.org/2000/svg"
 width="48.000000pt" height="48.000000pt" viewBox="0 0 48.000000 48.000000"
 preserveAspectRatio="xMidYMid meet">
<metadata>
Created by potrace 1.16, written by Peter Selinger 2001-2019
</metadata>
<g transform="translate(0.000000,48.000000) scale(0.100000,-0.100000)"
fill="currentColor" stroke="currentColor" stroke-width="6" stroke-linejoin="round">
<path d="M160 467 c-49 -16 -133 -102 -148 -153 -28 -94 -8 -169 63 -239 101
-102 229 -102 330 0 102 101 102 229 0 330 -70 71 -152 91 -245 62z m190 -61
c59 -39 85 -89 85 -166 0 -78 -26 -127 -88 -168 -56 -37 -153 -39 -210 -3 -76
47 -111 140 -88 229 14 51 75 117 123 131 53 16 135 6 178 -23z M160 333 c-20
-18 -33 -41 -37 -65 -5 -33 -2 -41 30 -73 36 -36 68 -43 112 -25 15 6 27 1 51
-22 40 -37 58 -19 21 20 -22 23 -25 33 -20 70 7 51 -9 88 -49 108 -41 21 -74
17 -108 -13z m104 -24 c32 -25 34 -64 4 -96 -29 -31 -71 -30 -97 3 -27 35 -26
59 4 89 30 30 54 31 89 4z"/>
</g>
</svg>

