<?xml version="1.0" standalone="no"?>
<!DOCTYPE svg PUBLIC "-//W3C//DTD SVG 20010904//EN"
 "http://www.w3.org/TR/2001/REC-SVG-20010904/DTD/svg10.dtd">
<svg version="1.0" xmlns="http://www.w3.org/2000/svg"
 width="48.000000pt" height="48.000000pt" viewBox="0 0 48.000000 48.000000"
 preserveAspectRatio="xMidYMid meet">
<metadata>
Created by potrace 1.16, written by Peter Selinger 2001-2019
</metadata>
<g transform="translate(0.000000,48.000000) scale(0.100000,-0.100000)"
fill="currentColor" stroke="currentColor" stroke-width="6" stroke-linejoin="round">
<path d="M63 340 c-61 -37 -81 -116 -43 -177 26 -43 68 -63 135 -63 48 0 55 2
55 20 0 18 -7 20 -56 20 -48 0 -59 4 -85 29 -20 20 -29 39 -29 61 0 22 9 41
29 61 l29 29 132 0 132 0 26 -29 c15 -16 37 -42 49 -58 l22 -28 1 28 c0 40
-26 85 -63 107 -28 17 -51 20 -167 20 -116 0 -139 -3 -167 -20z M280 213 c-20
-18 -33 -41 -37 -65 -5 -33 -2 -41 30 -73 36 -36 68 -43 112 -25 15 6 27 1 51
-22 40 -37 58 -19 21 20 -22 23 -25 33 -20 70 7 51 -9 88 -49 108 -41 21 -74
17 -108 -13z m104 -24 c32 -25 34 -64 4 -96 -29 -31 -71 -30 -97 3 -27 35 -26
59 4 89 30 30 54 31 89 4z"/>
</g>
</svg>

