<?xml version="1.0" standalone="no"?>
<!DOCTYPE svg PUBLIC "-//W3C//DTD SVG 20010904//EN"
 "http://www.w3.org/TR/2001/REC-SVG-20010904/DTD/svg10.dtd">
<svg version="1.0" xmlns="http://www.w3.org/2000/svg"
 width="48.000000pt" height="48.000000pt" viewBox="0 0 48.000000 48.000000"
 preserveAspectRatio="xMidYMid meet">
<metadata>
Created by potrace 1.16, written by Peter Selinger 2001-2019
</metadata>
<g transform="translate(0.000000,48.000000) scale(0.100000,-0.100000)"
fill="currentColor" stroke="currentColor" stroke-width="6" stroke-linejoin="round">
<path d="M335 462 c-52 -10 -77 -70 -50 -121 16 -32 49 -46 90 -39 17 4 31 -2
46 -18 24 -26 59 -32 59 -11 0 8 -11 24 -25 37 -20 19 -24 30 -19 59 10 60
-40 105 -101 93z m55 -57 c10 -12 10 -21 2 -40 -19 -40 -82 -29 -82 15 0 37
55 55 80 25z M17 439 c-25 -15 -24 -95 2 -109 21 -11 179 -14 205 -4 9 3 16
12 16 19 0 20 -24 25 -116 25 -68 0 -84 3 -84 15 0 12 16 15 84 15 46 0 91 3
100 6 21 8 21 30 0 38 -26 10 -188 6 -207 -5z M4 255 c-4 -9 -2 -21 4 -27 16
-16 47 -5 47 17 0 26 -42 34 -51 10z M93 263 c-18 -7 -16 -30 3 -37 9 -3 53
-6 99 -6 46 0 90 3 99 6 21 8 21 30 0 38 -19 7 -183 7 -201 -1z M4 155 c-4 -9
-2 -21 4 -27 16 -16 47 -5 47 17 0 26 -42 34 -51 10z M93 163 c-18 -7 -16 -30
3 -37 9 -3 53 -6 99 -6 46 0 90 3 99 6 21 8 21 30 0 38 -19 7 -183 7 -201 -1z
M4 55 c-4 -9 -2 -21 4 -27 16 -16 47 -5 47 17 0 26 -42 34 -51 10z M93 63
c-18 -7 -16 -30 3 -37 20 -8 178 -8 198 0 21 8 21 30 0 38 -19 7 -183 7 -201
-1z"/>
</g>
</svg>

