<?xml version="1.0" standalone="no"?>
<!DOCTYPE svg PUBLIC "-//W3C//DTD SVG 20010904//EN"
 "http://www.w3.org/TR/2001/REC-SVG-20010904/DTD/svg10.dtd">
<svg version="1.0" xmlns="http://www.w3.org/2000/svg"
 width="48.000000pt" height="48.000000pt" viewBox="0 0 48.000000 48.000000"
 preserveAspectRatio="xMidYMid meet">
<metadata>
Created by potrace 1.16, written by Peter Selinger 2001-2019
</metadata>
<g transform="translate(0.000000,48.000000) scale(0.100000,-0.100000)"
fill="currentColor" stroke="currentColor" stroke-width="6" stroke-linejoin="round">
<path d="M37 440 c-42 -33 -44 -75 -7 -149 28 -57 33 -62 47 -48 12 12 13 19
3 36 -10 19 -7 27 19 57 44 50 39 130 -5 93 -13 -11 -15 -10 -12 6 5 26 -15
29 -45 5z M400 439 c0 -18 -3 -19 -15 -9 -44 36 -48 -45 -4 -94 26 -30 29 -38
19 -57 -10 -17 -9 -24 3 -36 14 -14 19 -9 46 47 39 77 39 104 2 141 -35 34
-51 37 -51 8z M180 386 c-10 -13 -10 -19 0 -32 12 -14 15 -14 29 0 14 15 14
17 0 32 -14 14 -17 14 -29 0z M270 386 c-10 -13 -10 -19 0 -32 12 -14 15 -14
29 0 14 15 14 17 0 32 -14 14 -17 14 -29 0z M126 270 c-26 -27 -53 -50 -61
-50 -8 0 -27 -11 -42 -24 -22 -19 -25 -27 -16 -37 9 -9 17 -8 37 5 44 28 56
18 20 -18 -19 -19 -34 -41 -34 -49 0 -30 23 -29 47 2 32 41 63 44 32 2 -22
-30 -23 -76 0 -76 7 0 19 16 25 35 9 27 16 34 31 31 26 -4 124 -4 150 0 15 3
22 -4 31 -31 6 -19 18 -35 25 -35 21 0 22 39 4 75 -9 18 -15 34 -12 36 4 5 32
-22 51 -50 14 -21 36 -14 36 11 0 8 -15 30 -34 49 -25 25 -30 34 -17 34 9 0
26 -7 37 -15 45 -34 63 -1 18 34 -15 12 -33 21 -40 21 -7 0 -34 23 -60 50
l-47 50 -67 0 -67 0 -47 -50z"/>
</g>
</svg>

