<?xml version="1.0" standalone="no"?>
<!DOCTYPE svg PUBLIC "-//W3C//DTD SVG 20010904//EN"
 "http://www.w3.org/TR/2001/REC-SVG-20010904/DTD/svg10.dtd">
<svg version="1.0" xmlns="http://www.w3.org/2000/svg"
 width="48.000000pt" height="48.000000pt" viewBox="0 0 48.000000 48.000000"
 preserveAspectRatio="xMidYMid meet">
<metadata>
Created by potrace 1.16, written by Peter Selinger 2001-2019
</metadata>
<g transform="translate(0.000000,48.000000) scale(0.100000,-0.100000)"
fill="currentColor" stroke="currentColor" stroke-width="6" stroke-linejoin="round">
<path d="M410 446 c-14 -7 -40 -14 -58 -14 -53 -1 -84 -42 -31 -42 10 0 37
-16 59 -36 44 -40 53 -39 56 9 1 18 5 47 9 65 8 35 3 38 -35 18z M221 353
c-50 -26 -51 -43 -4 -43 50 0 112 -36 142 -83 28 -43 43 -37 43 17 0 90 -101
151 -181 109z M154 278 c-85 -18 -140 -108 -123 -202 11 -61 27 -68 151 -64
89 3 112 7 135 24 53 39 59 114 15 173 -44 59 -107 83 -178 69z"/>
</g>
</svg>

