<?xml version="1.0" standalone="no"?>
<!DOCTYPE svg PUBLIC "-//W3C//DTD SVG 20010904//EN"
 "http://www.w3.org/TR/2001/REC-SVG-20010904/DTD/svg10.dtd">
<svg version="1.0" xmlns="http://www.w3.org/2000/svg"
 width="48.000000pt" height="48.000000pt" viewBox="0 0 48.000000 48.000000"
 preserveAspectRatio="xMidYMid meet">
<metadata>
Created by potrace 1.16, written by Peter Selinger 2001-2019
</metadata>
<g transform="translate(0.000000,48.000000) scale(0.100000,-0.100000)"
fill="currentColor" stroke="currentColor" stroke-width="6" stroke-linejoin="round">
<path d="M42 468 c-16 -20 -42 -88 -42 -110 0 -28 46 -70 73 -66 19 3 23 11
28 68 3 36 10 77 14 93 7 26 5 27 -28 27 -19 0 -39 -6 -45 -12z M136 412 c-10
-38 -16 -80 -14 -93 4 -32 47 -53 82 -39 27 10 27 10 24 102 l-3 93 -35 3 -36
3 -18 -69z M257 473 c-4 -3 -7 -46 -7 -95 0 -84 1 -89 24 -99 32 -15 80 7 84
40 2 13 -4 55 -14 92 -17 67 -19 69 -49 69 -18 0 -35 -3 -38 -7z M365 453 c4
-15 11 -57 14 -93 5 -57 9 -65 28 -68 29 -4 73 39 73 70 -1 13 -11 43 -23 68
-20 40 -26 45 -61 48 -38 3 -38 3 -31 -25z M50 233 c-74 -27 -62 -143 15 -143
32 0 33 26 1 34 -46 11 -40 69 8 78 24 5 25 3 28 -51 l3 -56 44 -3 c32 -2 42
0 39 10 -3 7 -17 14 -31 16 -25 3 -27 6 -27 56 0 57 -6 71 -26 55 -8 -7 -14
-7 -19 1 -7 11 -12 11 -35 3z M210 220 c-22 -22 -27 -78 -10 -111 14 -26 66
-26 80 0 5 11 10 31 10 46 l0 26 22 -21 c12 -11 25 -20 30 -20 21 0 5 -19 -19
-22 -45 -5 -40 -28 6 -28 36 0 41 3 47 27 6 21 2 31 -19 49 -33 28 -33 32 -5
36 13 2 24 11 26 21 5 24 -53 23 -74 -2 -16 -18 -17 -18 -35 0 -24 24 -34 24
-59 -1z m40 -60 c0 -22 -4 -40 -10 -40 -5 0 -10 18 -10 40 0 22 5 40 10 40 6
0 10 -18 10 -40z M407 228 c-15 -11 -18 -25 -15 -73 l3 -60 44 -3 c32 -2 42 0
39 10 -3 7 -17 14 -31 16 -32 4 -35 18 -7 27 11 3 20 11 20 17 0 5 -9 12 -20
15 -29 8 -25 21 8 25 34 4 36 32 2 36 -14 2 -33 -3 -43 -10z M55 29 c-16 -25
18 -29 191 -27 151 3 179 5 179 18 0 13 -28 15 -182 18 -125 2 -184 -1 -188
-9z"/>
</g>
</svg>

