<?xml version="1.0" standalone="no"?>
<!DOCTYPE svg PUBLIC "-//W3C//DTD SVG 20010904//EN"
 "http://www.w3.org/TR/2001/REC-SVG-20010904/DTD/svg10.dtd">
<svg version="1.0" xmlns="http://www.w3.org/2000/svg"
 width="48.000000pt" height="48.000000pt" viewBox="0 0 48.000000 48.000000"
 preserveAspectRatio="xMidYMid meet">
<metadata>
Created by potrace 1.16, written by Peter Selinger 2001-2019
</metadata>
<g transform="translate(0.000000,48.000000) scale(0.100000,-0.100000)"
fill="currentColor" stroke="currentColor" stroke-width="6" stroke-linejoin="round">
<path d="M42 468 c-17 -21 -42 -89 -42 -113 0 -29 46 -67 74 -63 18 3 22 12
27 68 3 36 10 77 14 93 7 26 5 27 -28 27 -19 0 -39 -6 -45 -12z M136 412 c-10
-38 -16 -80 -14 -93 4 -32 47 -53 82 -39 27 10 27 10 24 102 l-3 93 -35 3 -36
3 -18 -69z M257 473 c-4 -3 -7 -46 -7 -95 0 -84 1 -89 24 -99 32 -15 80 7 84
40 2 13 -4 55 -14 92 -17 67 -19 69 -49 69 -18 0 -35 -3 -38 -7z M365 453 c4
-15 11 -57 14 -93 5 -57 9 -65 28 -68 29 -4 73 39 73 70 -1 13 -11 43 -23 68
-20 40 -26 45 -61 48 -38 3 -38 3 -31 -25z M134 226 c-3 -7 -4 -42 -2 -77 2
-49 7 -64 18 -64 9 0 16 11 18 26 2 16 12 31 28 37 31 15 34 66 5 82 -27 14
-61 13 -67 -4z m56 -36 c0 -5 -4 -10 -10 -10 -5 0 -10 5 -10 10 0 6 5 10 10
10 6 0 10 -4 10 -10z M266 224 c-21 -21 -21 -107 0 -128 8 -9 29 -16 45 -16
22 0 29 5 29 20 0 15 -7 20 -25 20 -14 0 -25 5 -25 10 0 6 7 10 15 10 8 0 15
9 15 20 0 11 -7 20 -15 20 -8 0 -15 5 -15 10 0 6 11 10 25 10 18 0 25 5 25 20
0 15 -7 20 -29 20 -16 0 -37 -7 -45 -16z M374 226 c-3 -7 -4 -42 -2 -77 2 -48
7 -64 18 -64 8 0 17 11 20 24 l5 24 13 -27 c22 -48 37 -26 37 55 0 58 -3 74
-15 74 -8 0 -17 -11 -20 -24 l-5 -24 -12 27 c-14 28 -31 34 -39 12z M20 211
c-27 -52 -2 -131 42 -131 40 0 64 82 38 131 -14 26 -66 26 -80 0z m50 -51 c0
-22 -4 -40 -10 -40 -5 0 -10 18 -10 40 0 22 5 40 10 40 6 0 10 -18 10 -40z
M55 29 c-16 -25 18 -29 191 -27 151 3 179 5 179 18 0 13 -28 15 -182 18 -125
2 -184 -1 -188 -9z"/>
</g>
</svg>

