<?xml version="1.0" standalone="no"?>
<!DOCTYPE svg PUBLIC "-//W3C//DTD SVG 20010904//EN"
 "http://www.w3.org/TR/2001/REC-SVG-20010904/DTD/svg10.dtd">
<svg version="1.0" xmlns="http://www.w3.org/2000/svg"
 width="48.000000pt" height="48.000000pt" viewBox="0 0 48.000000 48.000000"
 preserveAspectRatio="xMidYMid meet">
<metadata>
Created by potrace 1.16, written by Peter Selinger 2001-2019
</metadata>
<g transform="translate(0.000000,48.000000) scale(0.100000,-0.100000)"
fill="currentColor" stroke="currentColor" stroke-width="6" stroke-linejoin="round">
<path d="M172 391 c-36 -58 -37 -59 -89 -63 -82 -7 -84 -11 -81 -157 3 -123 4
-126 28 -138 35 -18 385 -18 420 0 24 12 25 15 28 138 3 146 1 150 -81 157
-52 4 -53 5 -89 63 -32 51 -41 59 -68 59 -27 0 -36 -8 -68 -59z m105 -24 l23
-37 -61 0 c-47 0 -59 3 -52 13 5 6 17 25 27 40 21 35 33 32 63 -16z m-176
-127 c28 -16 28 -115 -1 -130 -14 -8 -26 -8 -40 0 -27 15 -29 114 -2 129 21
13 20 13 43 1z m100 0 c31 -17 25 -60 -11 -73 -23 -9 -30 -17 -30 -39 0 -15
-4 -28 -10 -28 -6 0 -10 32 -10 75 0 69 2 75 21 75 11 0 29 -5 40 -10z m119
-5 c0 -10 -10 -15 -30 -15 -20 0 -30 -5 -30 -15 0 -8 9 -15 20 -15 11 0 20 -7
20 -15 0 -8 -9 -15 -20 -15 -11 0 -20 -7 -20 -15 0 -10 10 -15 30 -15 20 0 30
-5 30 -15 0 -16 -35 -20 -64 -9 -20 8 -23 129 -3 137 28 12 67 7 67 -8z m50
-15 c7 -16 16 -30 21 -30 5 0 9 14 9 30 0 17 5 30 10 30 6 0 10 -32 10 -75 0
-80 -10 -94 -30 -45 -7 17 -16 30 -21 30 -5 0 -9 -13 -9 -30 0 -16 -4 -30 -10
-30 -6 0 -10 32 -10 75 0 80 10 94 30 45z M64 207 c-10 -27 0 -72 16 -72 11 0
15 11 15 39 0 40 -20 61 -31 33z M160 205 c0 -10 7 -15 18 -13 21 4 19 22 -2
26 -10 2 -16 -3 -16 -13z"/>
</g>
</svg>

