<?xml version="1.0" standalone="no"?>
<!DOCTYPE svg PUBLIC "-//W3C//DTD SVG 20010904//EN"
 "http://www.w3.org/TR/2001/REC-SVG-20010904/DTD/svg10.dtd">
<svg version="1.0" xmlns="http://www.w3.org/2000/svg"
 width="48.000000pt" height="48.000000pt" viewBox="0 0 48.000000 48.000000"
 preserveAspectRatio="xMidYMid meet">
<metadata>
Created by potrace 1.16, written by Peter Selinger 2001-2019
</metadata>
<g transform="translate(0.000000,48.000000) scale(0.100000,-0.100000)"
fill="currentColor" stroke="currentColor" stroke-width="6" stroke-linejoin="round">
<path d="M172 391 c-36 -58 -37 -59 -89 -63 -68 -6 -83 -19 -83 -75 l0 -44 26
20 c31 25 54 27 54 6 0 -8 -9 -15 -20 -15 -28 0 -46 -40 -31 -69 7 -11 21 -21
31 -21 11 0 20 -7 20 -15 0 -21 -23 -19 -54 6 l-27 21 3 -48 c4 -70 15 -74
238 -74 204 0 233 7 238 53 3 23 0 27 -22 27 -50 0 -56 8 -56 75 0 67 6 75 56
75 22 0 25 4 22 27 -4 34 -37 53 -93 53 -38 0 -42 3 -77 60 -32 52 -41 60 -68
60 -27 0 -36 -8 -68 -59z m105 -24 l23 -37 -61 0 c-47 0 -59 3 -52 13 5 6 17
25 27 40 21 35 33 32 63 -16z m-157 -177 l0 -60 30 0 c20 0 30 -5 30 -15 0 -9
-9 -15 -24 -15 -51 0 -56 8 -56 81 0 39 4 69 10 69 6 0 10 -27 10 -60z m141
50 c28 -16 28 -115 -1 -130 -14 -8 -26 -8 -40 0 -27 15 -29 114 -2 129 21 13
20 13 43 1z m119 -5 c0 -10 -10 -15 -30 -15 -16 0 -30 -4 -30 -8 0 -5 14 -18
30 -30 48 -36 35 -82 -22 -82 -18 0 -28 5 -28 15 0 10 10 15 30 15 17 0 30 4
30 8 0 5 -13 18 -30 30 -48 36 -35 82 22 82 18 0 28 -5 28 -15z M224 207 c-10
-27 0 -72 16 -72 11 0 15 11 15 39 0 40 -20 61 -31 33z M420 205 c0 -8 9 -15
20 -15 11 0 20 -7 20 -15 0 -8 -9 -15 -20 -15 -11 0 -20 -7 -20 -15 0 -10 10
-15 30 -15 29 0 30 2 30 45 0 43 -1 45 -30 45 -20 0 -30 -5 -30 -15z"/>
</g>
</svg>

