<?xml version="1.0" standalone="no"?>
<!DOCTYPE svg PUBLIC "-//W3C//DTD SVG 20010904//EN"
 "http://www.w3.org/TR/2001/REC-SVG-20010904/DTD/svg10.dtd">
<svg version="1.0" xmlns="http://www.w3.org/2000/svg"
 width="48.000000pt" height="48.000000pt" viewBox="0 0 48.000000 48.000000"
 preserveAspectRatio="xMidYMid meet">
<metadata>
Created by potrace 1.16, written by Peter Selinger 2001-2019
</metadata>
<g transform="translate(0.000000,48.000000) scale(0.100000,-0.100000)"
fill="currentColor" stroke="currentColor" stroke-width="6" stroke-linejoin="round">
<path d="M82 437 c-15 -28 -33 -47 -53 -54 -21 -8 -30 -17 -27 -30 3 -16 19
-18 194 -21 163 -2 193 0 197 12 7 17 -17 46 -38 46 -7 0 -25 20 -39 45 -15
25 -31 45 -37 45 -18 0 -21 -30 -5 -55 9 -13 16 -27 16 -30 0 -3 -40 -5 -90
-5 -49 0 -90 2 -90 5 0 4 7 19 15 36 9 16 13 34 10 39 -12 20 -31 9 -53 -33z
M40 292 c0 -25 24 -129 33 -139 6 -8 35 -13 77 -13 l69 0 23 42 c13 23 38 49
58 59 98 50 83 59 -100 59 -88 0 -160 -4 -160 -8z m170 -67 c0 -19 -4 -35 -10
-35 -5 0 -10 16 -10 35 0 19 5 35 10 35 6 0 10 -16 10 -35z m-74 0 c6 -23 0
-45 -10 -34 -10 12 -15 59 -6 59 5 0 12 -11 16 -25z M294 186 c-27 -27 -34
-42 -34 -74 0 -82 82 -134 156 -98 104 49 67 206 -48 206 -32 0 -47 -7 -74
-34z m63 -37 c8 -8 17 -7 31 2 27 17 40 4 19 -19 -15 -17 -15 -19 0 -35 14
-13 15 -19 5 -29 -10 -10 -16 -9 -29 5 -16 15 -18 15 -35 0 -23 -21 -36 -8
-19 19 9 14 10 23 2 31 -15 15 -14 37 2 37 7 0 18 -5 24 -11z"/>
</g>
</svg>

