<?xml version="1.0" standalone="no"?>
<!DOCTYPE svg PUBLIC "-//W3C//DTD SVG 20010904//EN"
 "http://www.w3.org/TR/2001/REC-SVG-20010904/DTD/svg10.dtd">
<svg version="1.0" xmlns="http://www.w3.org/2000/svg"
 width="48.000000pt" height="48.000000pt" viewBox="0 0 48.000000 48.000000"
 preserveAspectRatio="xMidYMid meet">
<metadata>
Created by potrace 1.16, written by Peter Selinger 2001-2019
</metadata>
<g transform="translate(0.000000,48.000000) scale(0.100000,-0.100000)"
fill="currentColor" stroke="currentColor" stroke-width="6" stroke-linejoin="round">
<path d="M42 468 c-17 -21 -42 -89 -42 -113 0 -29 46 -67 74 -63 18 3 22 12
27 68 3 36 10 77 14 93 7 26 5 27 -28 27 -19 0 -39 -6 -45 -12z M136 412 c-10
-38 -16 -80 -14 -93 4 -32 47 -53 82 -39 27 10 27 10 24 102 l-3 93 -35 3 -36
3 -18 -69z M257 473 c-4 -3 -7 -46 -7 -95 0 -84 1 -89 24 -99 32 -15 80 7 84
40 2 13 -4 55 -14 92 -17 67 -19 69 -49 69 -18 0 -35 -3 -38 -7z M365 453 c4
-15 11 -57 14 -93 5 -57 9 -65 28 -68 29 -4 73 39 73 70 -1 13 -11 43 -23 68
-20 40 -26 45 -61 48 -38 3 -38 3 -31 -25z M26 221 c-22 -24 -14 -53 19 -71
33 -17 32 -28 -2 -32 -39 -4 -37 -32 3 -36 61 -6 83 59 29 88 -33 17 -32 28 3
32 38 4 36 32 -4 36 -20 2 -36 -4 -48 -17z M156 221 c-23 -25 -19 -136 4 -136
9 0 16 11 18 28 4 35 20 35 24 0 2 -17 9 -28 18 -28 23 0 27 111 4 136 -9 11
-25 19 -34 19 -9 0 -25 -8 -34 -19z m44 -31 c0 -5 -4 -10 -10 -10 -5 0 -10 5
-10 10 0 6 5 10 10 10 6 0 10 -4 10 -10z M277 234 c-4 -4 -7 -33 -7 -65 0 -69
17 -92 64 -87 39 4 43 32 4 36 -25 3 -27 7 -30 59 -3 52 -14 73 -31 57z M396
225 c-22 -22 -22 -108 0 -130 21 -20 79 -17 79 5 0 9 -11 16 -27 18 -33 4 -37
17 -8 25 11 3 20 10 20 17 0 7 -9 14 -20 17 -29 8 -25 21 8 25 16 2 27 9 27
18 0 22 -58 25 -79 5z M55 29 c-16 -25 18 -29 191 -27 151 3 179 5 179 18 0
13 -28 15 -182 18 -125 2 -184 -1 -188 -9z"/>
</g>
</svg>

