<?xml version="1.0" standalone="no"?>
<!DOCTYPE svg PUBLIC "-//W3C//DTD SVG 20010904//EN"
 "http://www.w3.org/TR/2001/REC-SVG-20010904/DTD/svg10.dtd">
<svg version="1.0" xmlns="http://www.w3.org/2000/svg"
 width="48.000000pt" height="48.000000pt" viewBox="0 0 48.000000 48.000000"
 preserveAspectRatio="xMidYMid meet">
<metadata>
Created by potrace 1.16, written by Peter Selinger 2001-2019
</metadata>
<g transform="translate(0.000000,48.000000) scale(0.100000,-0.100000)"
fill="currentColor" stroke="currentColor" stroke-width="6" stroke-linejoin="round">
<path d="M21 409 c-11 -29 -21 -62 -21 -75 0 -30 27 -56 54 -52 17 2 22 12 27
53 4 28 12 63 18 78 16 42 14 47 -23 47 -31 0 -35 -4 -55 -51z M133 423 c-41
-97 -24 -163 42 -163 48 0 56 17 53 112 l-3 83 -38 3 c-35 3 -39 1 -54 -35z
M257 453 c-12 -12 -8 -168 5 -181 19 -19 73 -14 93 8 21 23 17 82 -9 143 -14
32 -21 37 -49 37 -19 0 -37 -3 -40 -7z M370 451 c0 -5 5 -22 11 -38 6 -15 14
-50 18 -78 5 -41 10 -51 27 -53 27 -4 54 22 54 52 0 13 -10 46 -21 75 -20 47
-24 51 -55 51 -19 0 -34 -4 -34 -9z M63 253 c-22 -4 -23 -9 -23 -107 0 -66 4
-106 12 -114 17 -17 359 -17 376 0 8 8 12 48 12 114 l0 102 -31 6 c-20 4 -39
0 -54 -10 -18 -11 -36 -14 -62 -10 -46 8 -57 8 -110 0 -30 -4 -48 -1 -65 10
-12 9 -25 15 -28 15 -3 -1 -15 -4 -27 -6z m167 -113 l0 -40 -60 0 -60 0 0 40
0 40 60 0 60 0 0 -40z m150 -20 l0 -60 -40 0 -40 0 0 60 0 60 40 0 40 0 0 -60z"/>
</g>
</svg>

