<?xml version="1.0" standalone="no"?>
<!DOCTYPE svg PUBLIC "-//W3C//DTD SVG 20010904//EN"
 "http://www.w3.org/TR/2001/REC-SVG-20010904/DTD/svg10.dtd">
<svg version="1.0" xmlns="http://www.w3.org/2000/svg"
 width="48.000000pt" height="48.000000pt" viewBox="0 0 48.000000 48.000000"
 preserveAspectRatio="xMidYMid meet">
<metadata>
Created by potrace 1.16, written by Peter Selinger 2001-2019
</metadata>
<g transform="translate(0.000000,48.000000) scale(0.100000,-0.100000)"
fill="currentColor" stroke="currentColor" stroke-width="6" stroke-linejoin="round">
<path d="M82 437 c-15 -28 -33 -47 -53 -54 -21 -8 -30 -17 -27 -30 3 -16 19
-18 194 -21 163 -2 193 0 197 12 7 17 -17 46 -38 46 -7 0 -25 20 -39 45 -15
25 -31 45 -37 45 -18 0 -21 -30 -5 -55 9 -13 16 -27 16 -30 0 -3 -40 -5 -90
-5 -49 0 -90 2 -90 5 0 4 7 19 15 36 9 16 13 34 10 39 -12 20 -31 9 -53 -33z
M40 292 c0 -25 24 -129 33 -139 6 -8 35 -13 76 -13 l67 0 13 35 c13 38 51 72
90 82 25 6 41 20 41 36 0 4 -72 7 -160 7 -88 0 -160 -4 -160 -8z m170 -67 c0
-19 -4 -35 -10 -35 -5 0 -10 16 -10 35 0 19 5 35 10 35 6 0 10 -16 10 -35z
m-74 0 c6 -23 0 -45 -10 -34 -10 12 -15 59 -6 59 5 0 12 -11 16 -25z M308 214
c-53 -28 -72 -98 -43 -154 40 -78 160 -78 200 0 53 103 -55 210 -157 154z m72
-59 c0 -20 5 -25 26 -25 31 0 28 -23 -4 -28 -12 -2 -22 -12 -24 -24 -5 -32
-28 -35 -28 -4 0 21 -5 26 -25 26 -16 0 -25 6 -25 15 0 9 9 15 25 15 20 0 25
5 25 25 0 16 6 25 15 25 9 0 15 -9 15 -25z"/>
</g>
</svg>

