<?xml version="1.0" standalone="no"?>
<!DOCTYPE svg PUBLIC "-//W3C//DTD SVG 20010904//EN"
 "http://www.w3.org/TR/2001/REC-SVG-20010904/DTD/svg10.dtd">
<svg version="1.0" xmlns="http://www.w3.org/2000/svg"
 width="48.000000pt" height="48.000000pt" viewBox="0 0 48.000000 48.000000"
 preserveAspectRatio="xMidYMid meet">
<metadata>
Created by potrace 1.16, written by Peter Selinger 2001-2019
</metadata>
<g transform="translate(0.000000,48.000000) scale(0.100000,-0.100000)"
fill="currentColor" stroke="currentColor" stroke-width="6" stroke-linejoin="round">
<path d="M82 437 c-15 -28 -33 -47 -53 -54 -21 -8 -30 -17 -27 -30 3 -16 19
-18 194 -21 163 -2 193 0 197 12 7 17 -17 46 -38 46 -7 0 -25 20 -39 45 -15
25 -31 45 -37 45 -18 0 -21 -30 -5 -55 9 -13 16 -27 16 -30 0 -3 -40 -5 -90
-5 -49 0 -90 2 -90 5 0 4 7 19 15 36 9 16 13 34 10 39 -12 20 -31 9 -53 -33z
M40 292 c0 -25 24 -129 33 -139 6 -8 34 -13 73 -13 l64 0 20 39 c20 39 51 67
103 89 58 25 28 32 -133 32 -88 0 -160 -4 -160 -8z m99 -84 c1 -10 -3 -18 -8
-18 -11 0 -21 51 -13 64 6 11 20 -20 21 -46z m71 17 c0 -19 -4 -35 -10 -35 -5
0 -10 16 -10 35 0 19 5 35 10 35 6 0 10 -16 10 -35z M308 214 c-53 -28 -72
-98 -43 -154 40 -78 160 -78 200 0 53 103 -55 210 -157 154z m86 -32 c7 -11
-88 -104 -97 -96 -15 15 -6 56 18 79 23 24 69 34 79 17z m46 -68 c0 -46 -76
-95 -104 -67 -8 9 85 104 96 97 4 -3 8 -16 8 -30z"/>
</g>
</svg>

