<?xml version="1.0" standalone="no"?>
<!DOCTYPE svg PUBLIC "-//W3C//DTD SVG 20010904//EN"
 "http://www.w3.org/TR/2001/REC-SVG-20010904/DTD/svg10.dtd">
<svg version="1.0" xmlns="http://www.w3.org/2000/svg"
 width="48.000000pt" height="48.000000pt" viewBox="0 0 48.000000 48.000000"
 preserveAspectRatio="xMidYMid meet">
<metadata>
Created by potrace 1.16, written by Peter Selinger 2001-2019
</metadata>
<g transform="translate(0.000000,48.000000) scale(0.100000,-0.100000)"
fill="currentColor" stroke="currentColor" stroke-width="6" stroke-linejoin="round">
<path d="M297 460 c-14 -11 -32 -20 -40 -20 -26 0 -30 -21 -8 -41 12 -11 21
-26 21 -34 0 -7 12 -23 27 -34 14 -12 24 -23 22 -24 -2 -2 -16 -8 -31 -15 -35
-15 -65 -59 -50 -74 8 -8 15 -8 26 1 12 11 15 7 18 -26 l3 -38 65 0 65 0 6 35
c6 35 14 29 21 -15 2 -11 10 -20 18 -20 11 0 15 10 14 37 -1 45 -26 85 -62
100 -15 7 -28 13 -30 14 -2 1 8 13 22 27 76 76 -23 193 -107 127z m93 -74 c0
-19 -26 -38 -46 -34 -9 2 -23 13 -32 26 -14 22 -14 22 32 22 32 0 46 -4 46
-14z m-12 -138 c-2 -17 -10 -23 -28 -23 -18 0 -26 6 -28 23 -3 19 1 22 28 22
27 0 31 -3 28 -22z M37 364 c-12 -13 -8 -44 7 -50 12 -4 11 -9 -5 -25 -16 -16
-19 -31 -17 -82 l3 -62 89 -3 c49 -2 93 1 97 5 8 8 -12 120 -25 141 -4 7 -26
12 -49 12 -36 0 -39 1 -23 13 10 7 17 22 15 33 -3 14 -14 20 -44 22 -23 2 -44
0 -48 -4z m103 -124 c0 -5 -13 -10 -30 -10 -16 0 -30 5 -30 10 0 6 14 10 30
10 17 0 30 -4 30 -10z M12 108 c-7 -7 -12 -34 -12 -60 l0 -48 238 2 237 3 3
43 c5 72 7 72 -237 72 -155 0 -220 -3 -229 -12z"/>
</g>
</svg>

