<?xml version="1.0" standalone="no"?>
<!DOCTYPE svg PUBLIC "-//W3C//DTD SVG 20010904//EN"
 "http://www.w3.org/TR/2001/REC-SVG-20010904/DTD/svg10.dtd">
<svg version="1.0" xmlns="http://www.w3.org/2000/svg"
 width="48.000000pt" height="48.000000pt" viewBox="0 0 48.000000 48.000000"
 preserveAspectRatio="xMidYMid meet">
<metadata>
Created by potrace 1.16, written by Peter Selinger 2001-2019
</metadata>
<g transform="translate(0.000000,48.000000) scale(0.100000,-0.100000)"
fill="currentColor" stroke="currentColor" stroke-width="6" stroke-linejoin="round">
<path d="M82 437 c-15 -28 -33 -47 -53 -54 -21 -8 -30 -17 -27 -30 3 -16 19
-18 194 -21 163 -2 193 0 197 12 7 17 -17 46 -38 46 -7 0 -25 20 -39 45 -15
25 -31 45 -37 45 -18 0 -21 -30 -5 -55 9 -13 16 -27 16 -30 0 -3 -40 -5 -90
-5 -49 0 -90 2 -90 5 0 4 7 19 15 36 9 16 13 34 10 39 -12 20 -31 9 -53 -33z
M40 292 c0 -25 24 -129 33 -139 6 -8 35 -13 78 -13 l68 0 17 35 c16 34 61 75
82 75 13 0 42 28 42 41 0 5 -68 9 -160 9 -88 0 -160 -4 -160 -8z m170 -67 c0
-19 -4 -35 -10 -35 -5 0 -10 16 -10 35 0 19 5 35 10 35 6 0 10 -16 10 -35z
m-74 0 c6 -23 0 -45 -10 -34 -10 12 -15 59 -6 59 5 0 12 -11 16 -25z M325 211
c-40 -18 -60 -51 -60 -102 0 -40 5 -54 28 -76 23 -23 36 -28 77 -28 70 0 105
35 105 105 0 40 -5 55 -26 76 -28 28 -89 40 -124 25z m105 -68 c0 -4 -12 -24
-27 -45 -20 -30 -32 -38 -51 -36 -27 3 -51 32 -39 45 4 4 17 2 27 -5 17 -10
22 -8 42 18 20 27 48 41 48 23z"/>
</g>
</svg>

