<?xml version="1.0" standalone="no"?>
<!DOCTYPE svg PUBLIC "-//W3C//DTD SVG 20010904//EN"
 "http://www.w3.org/TR/2001/REC-SVG-20010904/DTD/svg10.dtd">
<svg version="1.0" xmlns="http://www.w3.org/2000/svg"
 width="48.000000pt" height="48.000000pt" viewBox="0 0 48.000000 48.000000"
 preserveAspectRatio="xMidYMid meet">
<metadata>
Created by potrace 1.16, written by Peter Selinger 2001-2019
</metadata>
<g transform="translate(0.000000,48.000000) scale(0.100000,-0.100000)"
fill="currentColor" stroke="currentColor" stroke-width="6" stroke-linejoin="round">
<path d="M5 470 c-10 -17 5 -30 35 -30 28 0 28 -1 59 -132 36 -159 36 -158 27
-180 -4 -9 -6 -27 -4 -40 2 -19 9 -23 38 -23 31 0 35 3 38 27 2 15 -4 38 -12
50 -23 33 -20 38 24 38 33 0 40 3 40 20 0 17 -7 20 -44 20 -43 0 -44 0 -55 44
-6 25 -11 50 -11 55 0 7 47 11 136 11 l136 0 -7 -40 c-6 -35 -4 -40 13 -40 14
0 23 11 32 45 20 72 15 74 -168 77 l-156 3 -11 40 c-5 22 -14 46 -18 53 -10
14 -83 16 -92 2z M315 231 c-45 -20 -70 -60 -70 -112 0 -42 5 -53 33 -81 47
-48 117 -48 164 0 28 28 33 39 33 82 0 42 -5 54 -31 81 -33 33 -92 46 -129 30z
m79 -39 c7 -11 -98 -115 -107 -106 -16 16 -6 66 18 89 24 25 78 34 89 17z m46
-73 c0 -39 -39 -79 -78 -79 -16 0 -32 3 -36 7 -9 9 95 114 106 107 4 -3 8 -19
8 -35z"/>
</g>
</svg>

