<?xml version="1.0" standalone="no"?>
<!DOCTYPE svg PUBLIC "-//W3C//DTD SVG 20010904//EN"
 "http://www.w3.org/TR/2001/REC-SVG-20010904/DTD/svg10.dtd">
<svg version="1.0" xmlns="http://www.w3.org/2000/svg"
 width="48.000000pt" height="48.000000pt" viewBox="0 0 48.000000 48.000000"
 preserveAspectRatio="xMidYMid meet">
<metadata>
Created by potrace 1.16, written by Peter Selinger 2001-2019
</metadata>
<g transform="translate(0.000000,48.000000) scale(0.100000,-0.100000)"
fill="currentColor" stroke="currentColor" stroke-width="6" stroke-linejoin="round">
<path d="M130 460 c-11 -11 -20 -29 -20 -40 0 -15 -7 -20 -29 -20 -16 0 -33
-6 -40 -13 -6 -8 -18 -91 -27 -186 -13 -135 -13 -175 -4 -186 18 -22 442 -22
460 0 9 11 10 52 0 187 -6 95 -16 178 -22 185 -6 7 -23 13 -39 13 -22 0 -29 5
-29 20 0 37 -35 60 -90 60 -55 0 -90 -23 -90 -60 0 -15 -7 -20 -25 -20 -31 0
-33 22 -3 42 12 8 18 19 14 26 -11 18 -34 14 -56 -8z m208 -42 c3 -15 -4 -18
-47 -18 -36 0 -51 4 -51 13 0 23 12 28 55 25 29 -2 41 -8 43 -20z m-194 -145
c4 -49 9 -121 12 -161 l5 -72 -61 0 c-33 0 -60 3 -60 8 0 4 7 70 15 147 8 77
15 146 15 153 0 7 14 12 34 12 l34 0 6 -87z"/>
</g>
</svg>

