<?xml version="1.0" standalone="no"?>
<!DOCTYPE svg PUBLIC "-//W3C//DTD SVG 20010904//EN"
 "http://www.w3.org/TR/2001/REC-SVG-20010904/DTD/svg10.dtd">
<svg version="1.0" xmlns="http://www.w3.org/2000/svg"
 width="48.000000pt" height="48.000000pt" viewBox="0 0 48.000000 48.000000"
 preserveAspectRatio="xMidYMid meet">
<metadata>
Created by potrace 1.16, written by Peter Selinger 2001-2019
</metadata>
<g transform="translate(0.000000,48.000000) scale(0.100000,-0.100000)"
fill="currentColor" stroke="currentColor" stroke-width="6" stroke-linejoin="round">
<path d="M400 453 c-20 -8 -30 -24 -30 -50 0 -23 -1 -23 -154 -23 -85 0 -166
-4 -180 -10 -37 -14 -40 -46 -12 -136 21 -64 31 -83 51 -92 15 -7 77 -12 149
-12 153 0 162 5 172 98 6 59 6 62 -15 62 -23 0 -26 -5 -36 -62 l-6 -38 -124 0
-123 0 -18 53 c-9 28 -19 58 -22 65 -3 9 31 12 151 12 178 0 205 6 213 50 4
20 13 30 24 30 10 0 23 7 30 15 25 30 -23 56 -70 38z M112 104 c-28 -19 -28
-49 0 -68 19 -13 25 -14 43 -2 11 7 20 24 20 36 0 12 -9 29 -20 36 -18 12 -24
11 -43 -2z M294 96 c-3 -8 -4 -25 -2 -38 2 -19 9 -23 38 -23 33 0 35 2 35 35
0 32 -3 35 -33 38 -21 2 -34 -2 -38 -12z"/>
</g>
</svg>

