<?xml version="1.0" standalone="no"?>
<!DOCTYPE svg PUBLIC "-//W3C//DTD SVG 20010904//EN"
 "http://www.w3.org/TR/2001/REC-SVG-20010904/DTD/svg10.dtd">
<svg version="1.0" xmlns="http://www.w3.org/2000/svg"
 width="48.000000pt" height="48.000000pt" viewBox="0 0 48.000000 48.000000"
 preserveAspectRatio="xMidYMid meet">
<metadata>
Created by potrace 1.16, written by Peter Selinger 2001-2019
</metadata>
<g transform="translate(0.000000,48.000000) scale(0.100000,-0.100000)"
fill="currentColor" stroke="currentColor" stroke-width="6" stroke-linejoin="round">
<path d="M12 468 c-7 -7 -12 -42 -12 -85 0 -66 2 -73 20 -73 18 0 20 7 20 65
l0 65 65 0 c58 0 65 2 65 20 0 18 -7 20 -73 20 -43 0 -78 -5 -85 -12z M310
460 c0 -18 7 -20 65 -20 l65 0 0 -65 c0 -58 2 -65 20 -65 18 0 20 7 20 73 0
43 -5 78 -12 85 -7 7 -42 12 -85 12 -66 0 -73 -2 -73 -20z M192 367 c-12 -13
-22 -35 -22 -48 0 -32 39 -69 72 -69 29 0 68 41 68 70 0 10 -9 29 -21 44 -26
33 -68 34 -97 3z M178 223 c-32 -20 -62 -71 -57 -98 4 -19 13 -20 119 -20 129
0 135 4 105 68 -29 62 -109 86 -167 50z M0 97 c0 -43 5 -78 12 -85 7 -7 42
-12 85 -12 66 0 73 2 73 20 0 18 -7 20 -65 20 l-65 0 0 65 c0 58 -2 65 -20 65
-18 0 -20 -7 -20 -73z M440 105 l0 -65 -65 0 c-58 0 -65 -2 -65 -20 0 -18 7
-20 73 -20 43 0 78 5 85 12 7 7 12 42 12 85 0 66 -2 73 -20 73 -18 0 -20 -7
-20 -65z"/>
</g>
</svg>

