<?xml version="1.0" standalone="no"?>
<!DOCTYPE svg PUBLIC "-//W3C//DTD SVG 20010904//EN"
 "http://www.w3.org/TR/2001/REC-SVG-20010904/DTD/svg10.dtd">
<svg version="1.0" xmlns="http://www.w3.org/2000/svg"
 width="48.000000pt" height="48.000000pt" viewBox="0 0 48.000000 48.000000"
 preserveAspectRatio="xMidYMid meet">
<metadata>
Created by potrace 1.16, written by Peter Selinger 2001-2019
</metadata>
<g transform="translate(0.000000,48.000000) scale(0.100000,-0.100000)"
fill="currentColor" stroke="currentColor" stroke-width="6" stroke-linejoin="round">
<path d="M12 418 c-8 -8 -12 -62 -12 -179 0 -189 1 -192 72 -187 36 2 44 7 46
26 2 12 10 22 17 22 7 0 15 -10 17 -22 3 -22 7 -23 88 -23 81 0 85 1 88 22 4
30 30 30 34 1 2 -19 10 -24 46 -26 71 -5 72 -2 72 187 0 117 -4 171 -12 179
-17 17 -439 17 -456 0z m428 -178 c0 -131 -2 -150 -16 -150 -9 0 -25 11 -36
25 -25 32 -61 32 -86 0 -28 -36 -96 -36 -124 0 -25 32 -61 32 -86 0 -11 -14
-27 -25 -36 -25 -14 0 -16 19 -16 150 l0 150 200 0 200 0 0 -150z M132 331
c-16 -10 -20 -46 -9 -78 6 -16 3 -23 -13 -28 -23 -7 -44 -40 -35 -55 8 -13
162 -13 170 0 9 15 -12 48 -36 55 -13 4 -18 12 -15 22 16 42 16 61 1 77 -18
18 -42 20 -63 7z M295 320 c-13 -21 11 -31 61 -28 36 2 49 7 49 18 0 19 -99
27 -110 10z M295 260 c-12 -19 6 -30 48 -30 52 0 80 15 57 30 -20 13 -97 13
-105 0z M295 200 c-16 -26 33 -41 65 -20 13 9 13 11 0 20 -20 13 -57 13 -65 0z"/>
</g>
</svg>

