<?xml version="1.0" standalone="no"?>
<!DOCTYPE svg PUBLIC "-//W3C//DTD SVG 20010904//EN"
 "http://www.w3.org/TR/2001/REC-SVG-20010904/DTD/svg10.dtd">
<svg version="1.0" xmlns="http://www.w3.org/2000/svg"
 width="48.000000pt" height="48.000000pt" viewBox="0 0 48.000000 48.000000"
 preserveAspectRatio="xMidYMid meet">
<metadata>
Created by potrace 1.16, written by Peter Selinger 2001-2019
</metadata>
<g transform="translate(0.000000,48.000000) scale(0.100000,-0.100000)"
fill="currentColor" stroke="currentColor" stroke-width="6" stroke-linejoin="round">
<path d="M175 395 c-19 -18 -25 -35 -25 -65 0 -56 34 -90 90 -90 56 0 90 34
90 90 0 30 -6 47 -25 65 -18 19 -35 25 -65 25 -30 0 -47 -6 -65 -25z M197 205
c-50 -17 -83 -49 -98 -92 -20 -62 -16 -64 143 -61 l143 3 -2 34 c-4 83 -104
145 -186 116z"/>
</g>
</svg>

