<?xml version="1.0" standalone="no"?>
<!DOCTYPE svg PUBLIC "-//W3C//DTD SVG 20010904//EN"
 "http://www.w3.org/TR/2001/REC-SVG-20010904/DTD/svg10.dtd">
<svg version="1.0" xmlns="http://www.w3.org/2000/svg"
 width="48.000000pt" height="48.000000pt" viewBox="0 0 48.000000 48.000000"
 preserveAspectRatio="xMidYMid meet">
<metadata>
Created by potrace 1.16, written by Peter Selinger 2001-2019
</metadata>
<g transform="translate(0.000000,48.000000) scale(0.100000,-0.100000)"
fill="currentColor" stroke="currentColor" stroke-width="6" stroke-linejoin="round">
<path d="M56 448 c-36 -51 -7 -108 54 -108 61 0 90 57 54 108 -11 16 -25 22
-54 22 -29 0 -43 -6 -54 -22z M38 281 c-30 -27 -33 -34 -33 -93 0 -57 2 -63
21 -66 18 -3 23 -13 30 -60 l9 -57 45 0 45 0 8 50 c4 28 10 57 14 65 44 106
44 132 -3 169 -40 31 -96 28 -136 -8z M315 259 c-17 -5 -44 -22 -60 -39 -26
-27 -30 -39 -30 -85 0 -46 4 -58 29 -84 57 -59 135 -59 192 0 25 26 29 38 29
84 0 43 -5 58 -25 80 -41 44 -85 58 -135 44z m57 -71 c3 -29 7 -33 36 -36 19
-2 32 -9 32 -17 0 -8 -13 -15 -32 -17 -29 -3 -33 -7 -36 -35 -2 -24 -8 -33
-22 -33 -14 0 -20 9 -22 33 -3 28 -7 32 -35 35 -20 2 -33 9 -33 17 0 8 13 15
33 17 28 3 32 7 35 36 2 23 8 32 22 32 14 0 20 -9 22 -32z"/>
</g>
</svg>

