<?xml version="1.0" standalone="no"?>
<!DOCTYPE svg PUBLIC "-//W3C//DTD SVG 20010904//EN"
 "http://www.w3.org/TR/2001/REC-SVG-20010904/DTD/svg10.dtd">
<svg version="1.0" xmlns="http://www.w3.org/2000/svg"
 width="48.000000pt" height="48.000000pt" viewBox="0 0 48.000000 48.000000"
 preserveAspectRatio="xMidYMid meet">
<metadata>
Created by potrace 1.16, written by Peter Selinger 2001-2019
</metadata>
<g transform="translate(0.000000,48.000000) scale(0.100000,-0.100000)"
fill="currentColor" stroke="currentColor" stroke-width="6" stroke-linejoin="round">
<path d="M160 467 c-49 -16 -133 -102 -148 -153 -28 -94 -8 -169 63 -239 101
-102 229 -102 330 0 102 101 102 229 0 330 -70 71 -152 91 -245 62z m148 -52
c160 -67 160 -283 0 -350 -92 -38 -195 5 -239 100 -44 94 -2 201 96 246 49 23
94 24 143 4z M185 355 c-50 -49 -15 -135 55 -135 19 0 40 9 55 25 50 49 15
135 -55 135 -19 0 -40 -9 -55 -25z M153 167 c-21 -20 -33 -39 -29 -45 9 -15
222 -17 231 -2 4 6 -9 26 -28 45 -31 31 -41 35 -86 35 -44 0 -56 -5 -88 -33z"/>
</g>
</svg>

