<?xml version="1.0" standalone="no"?>
<!DOCTYPE svg PUBLIC "-//W3C//DTD SVG 20010904//EN"
 "http://www.w3.org/TR/2001/REC-SVG-20010904/DTD/svg10.dtd">
<svg version="1.0" xmlns="http://www.w3.org/2000/svg"
 width="48.000000pt" height="48.000000pt" viewBox="0 0 48.000000 48.000000"
 preserveAspectRatio="xMidYMid meet">
<metadata>
Created by potrace 1.16, written by Peter Selinger 2001-2019
</metadata>
<g transform="translate(0.000000,48.000000) scale(0.100000,-0.100000)"
fill="currentColor" stroke="currentColor" stroke-width="6" stroke-linejoin="round">
<path d="M160 467 c-49 -16 -133 -102 -148 -153 -28 -94 -8 -169 63 -239 101
-102 229 -102 330 0 102 101 102 229 0 330 -70 71 -152 91 -245 62z m148 -52
c160 -67 160 -283 0 -350 -92 -38 -195 5 -239 100 -44 94 -2 201 96 246 49 23
94 24 143 4z M206 387 c-24 -17 -24 -67 0 -84 38 -28 87 -5 87 42 0 30 -25 55
-53 55 -9 0 -24 -6 -34 -13z M179 241 c-36 -36 -41 -91 -9 -91 15 0 20 -7 20
-25 0 -17 8 -29 25 -37 36 -16 75 3 75 37 0 18 5 25 20 25 16 0 20 7 20 31 0
42 -47 89 -90 89 -22 0 -41 -9 -61 -29z"/>
</g>
</svg>

