<?xml version="1.0" standalone="no"?>
<!DOCTYPE svg PUBLIC "-//W3C//DTD SVG 20010904//EN"
 "http://www.w3.org/TR/2001/REC-SVG-20010904/DTD/svg10.dtd">
<svg version="1.0" xmlns="http://www.w3.org/2000/svg"
 width="48.000000pt" height="48.000000pt" viewBox="0 0 48.000000 48.000000"
 preserveAspectRatio="xMidYMid meet">
<metadata>
Created by potrace 1.16, written by Peter Selinger 2001-2019
</metadata>
<g transform="translate(0.000000,48.000000) scale(0.100000,-0.100000)"
fill="currentColor" stroke="currentColor" stroke-width="6" stroke-linejoin="round">
<path d="M79 452 c-44 -39 -44 -95 0 -134 41 -37 81 -37 122 0 44 39 44 95 0
134 -41 37 -81 37 -122 0z M74 252 c-36 -23 -74 -68 -74 -88 0 -11 21 -14 93
-14 l92 0 21 45 c25 55 17 66 -54 72 -35 3 -55 -1 -78 -15z M283 240 c-85 -51
-81 -179 6 -225 116 -60 239 71 171 182 -37 61 -116 81 -177 43z m103 -31 c9
-15 -100 -124 -115 -115 -22 14 -12 67 18 97 30 30 83 40 97 18z m52 -77 c3
-25 -4 -39 -27 -62 -30 -31 -83 -41 -97 -19 -7 13 95 121 111 116 5 -2 11 -18
13 -35z"/>
</g>
</svg>

