<?xml version="1.0" standalone="no"?>
<!DOCTYPE svg PUBLIC "-//W3C//DTD SVG 20010904//EN"
 "http://www.w3.org/TR/2001/REC-SVG-20010904/DTD/svg10.dtd">
<svg version="1.0" xmlns="http://www.w3.org/2000/svg"
 width="48.000000pt" height="48.000000pt" viewBox="0 0 48.000000 48.000000"
 preserveAspectRatio="xMidYMid meet">
<metadata>
Created by potrace 1.16, written by Peter Selinger 2001-2019
</metadata>
<g transform="translate(0.000000,48.000000) scale(0.100000,-0.100000)"
fill="currentColor" stroke="currentColor" stroke-width="6" stroke-linejoin="round">
<path d="M4 467 c-2 -7 -3 -114 -2 -237 3 -225 3 -225 26 -228 l22 -3 0 240
c0 236 0 241 -20 241 -11 0 -23 -6 -26 -13z M70 240 l0 -240 159 0 c96 0 162
4 166 10 3 5 15 10 26 10 10 0 28 9 39 20 19 19 20 33 20 200 0 167 -1 181
-20 200 -11 11 -29 20 -39 20 -11 0 -23 5 -26 10 -4 6 -70 10 -166 10 l-159 0
0 -240z m368 147 c3 -22 -1 -27 -17 -27 -17 0 -21 6 -21 31 0 24 4 30 18 27
10 -2 18 -14 20 -31z m-168 -57 c11 -11 20 -29 20 -40 0 -26 -34 -60 -60 -60
-26 0 -60 34 -60 60 0 11 9 29 20 40 11 11 29 20 40 20 11 0 29 -9 40 -20z
m170 -40 c0 -23 -4 -30 -20 -30 -16 0 -20 7 -20 30 0 23 4 30 20 30 16 0 20
-7 20 -30z m-144 -104 c19 -19 34 -43 34 -55 0 -20 -5 -21 -100 -21 -81 0
-100 3 -100 15 0 27 21 61 48 78 43 27 80 21 118 -17z m144 4 c0 -23 -4 -30
-20 -30 -16 0 -20 7 -20 30 0 23 4 30 20 30 16 0 20 -7 20 -30z m-2 -97 c-2
-17 -10 -29 -20 -31 -14 -3 -18 3 -18 27 0 25 4 31 21 31 16 0 20 -5 17 -27z"/>
</g>
</svg>

