<?xml version="1.0" standalone="no"?>
<!DOCTYPE svg PUBLIC "-//W3C//DTD SVG 20010904//EN"
 "http://www.w3.org/TR/2001/REC-SVG-20010904/DTD/svg10.dtd">
<svg version="1.0" xmlns="http://www.w3.org/2000/svg"
 width="48.000000pt" height="48.000000pt" viewBox="0 0 48.000000 48.000000"
 preserveAspectRatio="xMidYMid meet">
<metadata>
Created by potrace 1.16, written by Peter Selinger 2001-2019
</metadata>
<g transform="translate(0.000000,48.000000) scale(0.100000,-0.100000)"
fill="currentColor" stroke="currentColor" stroke-width="6" stroke-linejoin="round">
<path d="M199 459 c-16 -16 -19 -30 -17 -72 l3 -52 55 0 55 0 3 52 c2 42 -1
56 -17 72 -12 12 -30 21 -41 21 -11 0 -29 -9 -41 -21z m57 -20 c10 -17 -13
-36 -27 -22 -12 12 -4 33 11 33 5 0 12 -5 16 -11z M62 408 c-17 -17 -17 -379
0 -396 17 -17 339 -17 356 0 17 17 17 379 0 396 -7 7 -29 12 -50 12 -31 0 -38
-4 -38 -20 0 -16 7 -20 30 -20 l30 0 0 -130 c0 -122 -1 -130 -19 -130 -34 0
-93 41 -86 59 29 70 10 121 -45 121 -55 0 -74 -51 -45 -121 7 -18 -52 -59 -86
-59 -18 0 -19 8 -19 130 l0 130 30 0 c23 0 30 4 30 20 0 16 -7 20 -38 20 -21
0 -43 -5 -50 -12z m328 -353 c0 -13 -23 -15 -150 -15 -127 0 -150 2 -150 15 0
13 23 15 150 15 127 0 150 -2 150 -15z"/>
</g>
</svg>

