<?xml version="1.0" standalone="no"?>
<!DOCTYPE svg PUBLIC "-//W3C//DTD SVG 20010904//EN"
 "http://www.w3.org/TR/2001/REC-SVG-20010904/DTD/svg10.dtd">
<svg version="1.0" xmlns="http://www.w3.org/2000/svg"
 width="48.000000pt" height="48.000000pt" viewBox="0 0 48.000000 48.000000"
 preserveAspectRatio="xMidYMid meet">
<metadata>
Created by potrace 1.16, written by Peter Selinger 2001-2019
</metadata>
<g transform="translate(0.000000,48.000000) scale(0.100000,-0.100000)"
fill="currentColor" stroke="currentColor" stroke-width="6" stroke-linejoin="round">
<path d="M187 442 c-10 -10 -17 -35 -17 -55 0 -40 -17 -51 -22 -14 -3 20 -8
22 -66 22 -45 0 -66 -5 -72 -15 -13 -20 -13 -331 0 -350 14 -22 446 -22 460 0
13 20 13 330 0 350 -7 11 -28 15 -82 15 -68 0 -73 -2 -76 -22 -5 -38 -22 -26
-22 15 0 64 -64 97 -103 54z m59 -23 c10 -17 -13 -36 -27 -22 -12 12 -4 33 11
33 5 0 12 -5 16 -11z m194 -249 l0 -110 -200 0 -200 0 0 110 0 110 200 0 200
0 0 -110z M125 221 c-9 -30 5 -51 35 -51 30 0 44 21 35 51 -4 13 -16 19 -35
19 -19 0 -31 -6 -35 -19z M280 195 c0 -12 13 -15 60 -15 47 0 60 3 60 15 0 12
-13 15 -60 15 -47 0 -60 -3 -60 -15z M280 135 c0 -11 12 -15 45 -15 33 0 45 4
45 15 0 11 -12 15 -45 15 -33 0 -45 -4 -45 -15z M106 118 c-20 -28 -7 -38 54
-38 63 0 78 12 51 39 -29 29 -85 28 -105 -1z"/>
</g>
</svg>

