<?xml version="1.0" standalone="no"?>
<!DOCTYPE svg PUBLIC "-//W3C//DTD SVG 20010904//EN"
 "http://www.w3.org/TR/2001/REC-SVG-20010904/DTD/svg10.dtd">
<svg version="1.0" xmlns="http://www.w3.org/2000/svg"
 width="48.000000pt" height="48.000000pt" viewBox="0 0 48.000000 48.000000"
 preserveAspectRatio="xMidYMid meet">
<metadata>
Created by potrace 1.16, written by Peter Selinger 2001-2019
</metadata>
<g transform="translate(0.000000,48.000000) scale(0.100000,-0.100000)"
fill="currentColor" stroke="currentColor" stroke-width="6" stroke-linejoin="round">
<path d="M64 459 c-17 -19 -19 -38 -19 -219 0 -259 -15 -240 199 -240 89 0
168 5 176 10 23 14 22 366 -1 383 -9 7 -19 25 -23 42 -4 16 -13 33 -19 37 -7
4 -75 8 -153 8 -131 0 -142 -2 -160 -21z m286 -39 c0 -19 -7 -20 -130 -20
-123 0 -130 1 -130 20 0 19 7 20 130 20 123 0 130 -1 130 -20z m-68 -107 c36
-32 12 -103 -35 -103 -49 0 -75 64 -40 102 20 22 51 23 75 1z m35 -158 c13
-14 23 -35 23 -46 0 -17 -8 -19 -95 -19 -90 0 -95 1 -95 21 0 11 14 34 30 51
28 27 36 30 73 25 28 -4 49 -14 64 -32z"/>
</g>
</svg>

