<?xml version="1.0" standalone="no"?>
<!DOCTYPE svg PUBLIC "-//W3C//DTD SVG 20010904//EN"
 "http://www.w3.org/TR/2001/REC-SVG-20010904/DTD/svg10.dtd">
<svg version="1.0" xmlns="http://www.w3.org/2000/svg"
 width="48.000000pt" height="48.000000pt" viewBox="0 0 48.000000 48.000000"
 preserveAspectRatio="xMidYMid meet">
<metadata>
Created by potrace 1.16, written by Peter Selinger 2001-2019
</metadata>
<g transform="translate(0.000000,48.000000) scale(0.100000,-0.100000)"
fill="currentColor" stroke="currentColor" stroke-width="6" stroke-linejoin="round">
<path d="M11 416 c-8 -9 -11 -56 -9 -147 l3 -134 28 -3 c22 -3 27 -8 27 -31 0
-15 5 -32 12 -39 18 -18 97 -15 104 3 4 8 12 15 19 15 7 0 15 -7 19 -15 8 -21
104 -21 112 0 4 8 12 15 19 15 7 0 15 -7 19 -15 7 -18 86 -21 104 -3 17 17 17
279 0 296 -7 7 -24 12 -39 12 -23 0 -28 5 -31 28 l-3 27 -186 3 c-150 2 -188
0 -198 -12z m429 -206 c0 -116 -1 -120 -21 -120 -12 0 -27 7 -34 16 -6 9 -24
17 -40 17 -16 0 -34 -8 -40 -17 -16 -21 -54 -21 -70 0 -6 9 -24 17 -40 17 -16
0 -34 -8 -40 -17 -7 -9 -22 -16 -34 -16 -20 0 -21 4 -21 120 l0 120 170 0 170
0 0 -120z M160 291 c-25 -47 36 -83 64 -38 8 12 8 22 0 35 -16 25 -51 27 -64
3z M300 265 c0 -12 13 -15 55 -15 42 0 55 3 55 15 0 12 -13 15 -55 15 -42 0
-55 -3 -55 -15z M300 205 c0 -10 11 -15 35 -15 24 0 35 5 35 15 0 10 -11 15
-35 15 -24 0 -35 -5 -35 -15z M152 194 c-42 -29 -28 -44 43 -44 69 0 78 7 45
40 -24 24 -57 26 -88 4z"/>
</g>
</svg>

