<?xml version="1.0" standalone="no"?>
<!DOCTYPE svg PUBLIC "-//W3C//DTD SVG 20010904//EN"
 "http://www.w3.org/TR/2001/REC-SVG-20010904/DTD/svg10.dtd">
<svg version="1.0" xmlns="http://www.w3.org/2000/svg"
 width="48.000000pt" height="48.000000pt" viewBox="0 0 48.000000 48.000000"
 preserveAspectRatio="xMidYMid meet">
<metadata>
Created by potrace 1.16, written by Peter Selinger 2001-2019
</metadata>
<g transform="translate(0.000000,48.000000) scale(0.100000,-0.100000)"
fill="currentColor" stroke="currentColor" stroke-width="6" stroke-linejoin="round">
<path d="M72 468 c-13 -13 -17 -153 -6 -182 4 -10 18 -16 40 -16 34 0 34 -1
34 -45 0 -25 3 -45 6 -45 3 0 27 17 53 39 43 36 51 38 130 44 51 4 88 12 93
19 13 21 10 172 -4 186 -17 17 -329 17 -346 0z M26 145 c-33 -33 -8 -85 40
-85 39 0 28 -18 -14 -22 -25 -2 -37 -8 -37 -18 0 -22 78 -26 99 -5 33 33 8 85
-40 85 -39 0 -28 18 14 22 25 2 37 8 37 18 0 22 -78 26 -99 5z M174 143 c-21
-21 -16 -138 6 -138 11 0 16 14 18 58 2 31 7 57 12 57 5 0 10 -26 12 -57 2
-44 7 -58 18 -58 11 0 16 14 18 58 2 31 7 57 12 57 5 0 10 -26 12 -57 2 -44 7
-58 18 -58 22 0 27 117 6 138 -20 20 -112 20 -132 0z M366 145 c-33 -33 -8
-85 40 -85 39 0 28 -18 -13 -22 -26 -2 -38 -8 -38 -18 0 -22 78 -26 99 -5 33
33 8 85 -40 85 -39 0 -28 18 14 22 25 2 37 8 37 18 0 22 -78 26 -99 5z"/>
</g>
</svg>

