<?xml version="1.0" standalone="no"?>
<!DOCTYPE svg PUBLIC "-//W3C//DTD SVG 20010904//EN"
 "http://www.w3.org/TR/2001/REC-SVG-20010904/DTD/svg10.dtd">
<svg version="1.0" xmlns="http://www.w3.org/2000/svg"
 width="48.000000pt" height="48.000000pt" viewBox="0 0 48.000000 48.000000"
 preserveAspectRatio="xMidYMid meet">
<metadata>
Created by potrace 1.16, written by Peter Selinger 2001-2019
</metadata>
<g transform="translate(0.000000,48.000000) scale(0.100000,-0.100000)"
fill="currentColor" stroke="currentColor" stroke-width="6" stroke-linejoin="round">
<path d="M12 468 c-17 -17 -17 -349 0 -366 7 -7 27 -12 45 -12 32 0 33 -1 33
-45 0 -25 5 -45 11 -45 6 0 37 20 69 45 l58 45 114 0 c75 0 118 4 126 12 17
17 17 349 0 366 -17 17 -439 17 -456 0z m118 -117 c0 -6 -15 -11 -32 -13 -43
-4 -44 -31 -3 -38 27 -5 30 -9 30 -40 0 -35 0 -35 -47 -38 -53 -3 -67 15 -15
20 42 4 43 31 2 38 -30 5 -44 33 -31 66 6 16 96 20 96 5z m178 -63 c2 -41 -1
-68 -7 -68 -5 0 -11 24 -13 53 -2 38 -7 52 -18 52 -11 0 -16 -14 -18 -52 -2
-29 -7 -53 -12 -53 -5 0 -10 24 -12 53 -2 38 -7 52 -18 52 -11 0 -16 -14 -18
-52 -2 -29 -7 -53 -13 -53 -10 0 -13 123 -2 134 4 4 34 6 68 4 l60 -3 3 -67z
m142 63 c0 -6 -15 -11 -32 -13 -43 -4 -44 -31 -3 -38 27 -5 30 -9 30 -40 0
-35 0 -35 -47 -38 -53 -3 -67 15 -15 20 42 4 43 31 2 38 -30 5 -44 33 -31 66
6 16 96 20 96 5z"/>
</g>
</svg>

