<?xml version="1.0" standalone="no"?>
<!DOCTYPE svg PUBLIC "-//W3C//DTD SVG 20010904//EN"
 "http://www.w3.org/TR/2001/REC-SVG-20010904/DTD/svg10.dtd">
<svg version="1.0" xmlns="http://www.w3.org/2000/svg"
 width="48.000000pt" height="48.000000pt" viewBox="0 0 48.000000 48.000000"
 preserveAspectRatio="xMidYMid meet">
<metadata>
Created by potrace 1.16, written by Peter Selinger 2001-2019
</metadata>
<g transform="translate(0.000000,48.000000) scale(0.100000,-0.100000)"
fill="currentColor" stroke="currentColor" stroke-width="6" stroke-linejoin="round">
<path d="M372 458 c-18 -18 -15 -24 25 -64 28 -28 40 -34 52 -27 26 17 24 43
-5 74 -30 31 -53 36 -72 17z M310 384 c-19 -13 -55 -31 -81 -39 -52 -18 -106
-69 -134 -129 -9 -19 -32 -44 -51 -55 -19 -11 -34 -28 -34 -39 0 -23 90 -112
113 -112 10 0 27 15 38 34 11 19 36 42 55 51 61 29 111 82 129 135 9 27 27 65
41 85 20 30 21 37 9 42 -18 6 -52 -21 -61 -49 -6 -19 -7 -19 -25 -2 -19 17
-18 18 16 41 33 22 45 46 28 56 -5 3 -24 -6 -43 -19z m-70 -128 c0 -21 -21
-31 -30 -15 -5 7 -6 17 -4 21 9 14 34 9 34 -6z m-24 -87 c10 -17 -13 -36 -27
-22 -12 12 -4 33 11 33 5 0 12 -5 16 -11z m-86 -44 c0 -8 -9 -15 -20 -15 -11
0 -20 7 -20 15 0 8 9 15 20 15 11 0 20 -7 20 -15z"/>
</g>
</svg>

