<?xml version="1.0" standalone="no"?>
<!DOCTYPE svg PUBLIC "-//W3C//DTD SVG 20010904//EN"
 "http://www.w3.org/TR/2001/REC-SVG-20010904/DTD/svg10.dtd">
<svg version="1.0" xmlns="http://www.w3.org/2000/svg"
 width="48.000000pt" height="48.000000pt" viewBox="0 0 48.000000 48.000000"
 preserveAspectRatio="xMidYMid meet">
<metadata>
Created by potrace 1.16, written by Peter Selinger 2001-2019
</metadata>
<g transform="translate(0.000000,48.000000) scale(0.100000,-0.100000)"
fill="currentColor" stroke="currentColor" stroke-width="6" stroke-linejoin="round">
<path d="M187 474 c-4 -4 -7 -20 -7 -36 0 -28 1 -28 61 -28 l60 0 -3 33 c-3
31 -5 32 -53 35 -28 2 -54 0 -58 -4z M180 337 c0 -36 -8 -53 -46 -103 l-46
-59 5 -67 c9 -109 8 -108 147 -108 139 0 138 -1 147 108 l5 67 -46 59 c-38 50
-46 67 -46 103 l0 43 -60 0 -60 0 0 -43z"/>
</g>
</svg>

