<?xml version="1.0" standalone="no"?>
<!DOCTYPE svg PUBLIC "-//W3C//DTD SVG 20010904//EN"
 "http://www.w3.org/TR/2001/REC-SVG-20010904/DTD/svg10.dtd">
<svg version="1.0" xmlns="http://www.w3.org/2000/svg"
 width="48.000000pt" height="48.000000pt" viewBox="0 0 48.000000 48.000000"
 preserveAspectRatio="xMidYMid meet">
<metadata>
Created by potrace 1.16, written by Peter Selinger 2001-2019
</metadata>
<g transform="translate(0.000000,48.000000) scale(0.100000,-0.100000)"
fill="currentColor" stroke="currentColor" stroke-width="6" stroke-linejoin="round">
<path d="M134 465 c-3 -8 -4 -39 -2 -70 2 -36 -1 -55 -8 -55 -17 0 -32 21 -36
50 -1 14 -11 26 -20 28 -14 3 -18 -4 -18 -30 0 -44 23 -75 60 -83 34 -7 41
-25 10 -25 -23 0 -110 -76 -110 -96 0 -30 25 -25 61 15 43 46 73 57 39 14 -20
-25 -21 -35 -15 -107 8 -92 12 -106 32 -106 14 0 15 12 9 85 -7 81 -6 87 19
118 19 26 24 41 19 65 -4 17 -2 45 4 61 7 19 7 33 1 36 -5 4 -9 31 -9 61 0 42
-3 54 -15 54 -9 0 -18 -7 -21 -15z M310 426 c0 -30 -4 -57 -9 -61 -6 -3 -6
-17 1 -36 6 -16 8 -44 4 -61 -5 -24 0 -39 19 -64 24 -31 25 -37 19 -118 -6
-74 -5 -86 8 -86 21 0 25 13 33 108 7 78 7 81 -18 106 -18 18 -22 26 -11 26 8
0 32 -19 53 -41 36 -40 61 -45 61 -15 0 20 -87 96 -110 96 -31 0 -24 18 10 25
37 8 60 39 60 83 0 26 -4 33 -17 30 -10 -2 -20 -14 -21 -28 -4 -29 -19 -50
-36 -50 -7 0 -11 24 -11 67 0 56 -3 68 -17 71 -15 3 -18 -5 -18 -52z M196 403
c-10 -25 -7 -33 14 -33 11 0 20 7 20 15 0 8 5 15 10 15 6 0 10 -7 10 -15 0 -8
9 -15 20 -15 20 0 26 16 12 36 -11 16 -80 14 -86 -3z M211 341 c-21 -21 -26
-46 -16 -73 3 -8 21 -13 48 -12 l42 2 -1 41 c-1 46 -1 46 -31 55 -15 5 -28 1
-42 -13z M207 229 c-26 -15 -49 -74 -41 -107 4 -15 16 -37 27 -49 59 -66 150
24 113 111 -21 50 -60 68 -99 45z"/>
</g>
</svg>

