<?xml version="1.0" standalone="no"?>
<!DOCTYPE svg PUBLIC "-//W3C//DTD SVG 20010904//EN"
 "http://www.w3.org/TR/2001/REC-SVG-20010904/DTD/svg10.dtd">
<svg version="1.0" xmlns="http://www.w3.org/2000/svg"
 width="48.000000pt" height="48.000000pt" viewBox="0 0 48.000000 48.000000"
 preserveAspectRatio="xMidYMid meet">
<metadata>
Created by potrace 1.16, written by Peter Selinger 2001-2019
</metadata>
<g transform="translate(0.000000,48.000000) scale(0.100000,-0.100000)"
fill="currentColor" stroke="currentColor" stroke-width="6" stroke-linejoin="round">
<path d="M27 452 c-19 -21 -22 -53 -6 -69 8 -8 7 -16 -2 -31 -10 -15 -10 -27
-2 -44 7 -16 7 -30 0 -46 -7 -15 -7 -29 0 -45 7 -15 7 -29 0 -45 -8 -17 -7
-29 2 -44 9 -15 10 -23 2 -31 -17 -17 -13 -52 7 -70 20 -19 57 -23 67 -7 3 6
15 5 30 -2 17 -8 32 -8 48 -1 15 7 29 7 45 0 17 -8 29 -7 44 2 15 9 23 10 31
2 15 -15 50 -14 65 1 9 9 15 9 24 0 7 -7 22 -12 33 -12 42 0 72 59 44 87 -8 8
-7 16 2 31 10 15 10 27 2 44 -7 16 -7 30 0 46 7 15 7 29 0 45 -7 15 -7 29 0
45 8 17 7 29 -2 44 -9 15 -10 23 -2 31 17 17 13 52 -7 70 -21 19 -53 22 -69 6
-8 -8 -16 -7 -31 2 -15 10 -27 10 -44 2 -16 -7 -30 -7 -46 0 -15 7 -29 7 -45
0 -15 -7 -29 -7 -45 0 -17 8 -29 8 -44 -2 -15 -9 -23 -10 -31 -2 -17 17 -52
13 -70 -7z m348 -212 l0 -135 -135 0 -135 0 -3 124 c-1 69 0 131 2 138 4 11
35 13 138 11 l133 -3 0 -135z M150 325 c-15 -18 -10 -45 13 -59 34 -22 73 27
47 59 -16 19 -44 19 -60 0z M271 230 c-22 -39 -43 -50 -56 -30 -10 17 -21 11
-33 -15 -7 -14 -12 -28 -12 -30 0 -7 166 -6 172 1 8 8 -26 107 -38 111 -6 2
-20 -15 -33 -37z"/>
</g>
</svg>

