<?xml version="1.0" standalone="no"?>
<!DOCTYPE svg PUBLIC "-//W3C//DTD SVG 20010904//EN"
 "http://www.w3.org/TR/2001/REC-SVG-20010904/DTD/svg10.dtd">
<svg version="1.0" xmlns="http://www.w3.org/2000/svg"
 width="48.000000pt" height="48.000000pt" viewBox="0 0 48.000000 48.000000"
 preserveAspectRatio="xMidYMid meet">
<metadata>
Created by potrace 1.16, written by Peter Selinger 2001-2019
</metadata>
<g transform="translate(0.000000,48.000000) scale(0.100000,-0.100000)"
fill="currentColor" stroke="currentColor" stroke-width="6" stroke-linejoin="round">
<path d="M20 310 c-11 -7 -15 -27 -15 -70 0 -43 4 -63 15 -70 20 -13 420 -13
440 0 11 7 15 27 15 70 0 43 -4 63 -15 70 -8 5 -107 10 -220 10 -113 0 -212
-5 -220 -10z m400 -70 l0 -30 -180 0 -180 0 0 30 0 30 180 0 180 0 0 -30z"/>
</g>
</svg>

