<?xml version="1.0" standalone="no"?>
<!DOCTYPE svg PUBLIC "-//W3C//DTD SVG 20010904//EN"
 "http://www.w3.org/TR/2001/REC-SVG-20010904/DTD/svg10.dtd">
<svg version="1.0" xmlns="http://www.w3.org/2000/svg"
 width="48.000000pt" height="48.000000pt" viewBox="0 0 48.000000 48.000000"
 preserveAspectRatio="xMidYMid meet">
<metadata>
Created by potrace 1.16, written by Peter Selinger 2001-2019
</metadata>
<g transform="translate(0.000000,48.000000) scale(0.100000,-0.100000)"
fill="currentColor" stroke="currentColor" stroke-width="6" stroke-linejoin="round">
<path d="M22 358 c-16 -16 -16 -220 0 -236 8 -8 60 -12 166 -12 l154 0 66 64
67 65 -66 65 -66 66 -154 0 c-107 0 -159 -4 -167 -12z m228 -118 c0 -18 -7
-20 -85 -20 -78 0 -85 2 -85 20 0 18 7 20 85 20 78 0 85 -2 85 -20z"/>
</g>
</svg>

