<?xml version="1.0" standalone="no"?>
<!DOCTYPE svg PUBLIC "-//W3C//DTD SVG 20010904//EN"
 "http://www.w3.org/TR/2001/REC-SVG-20010904/DTD/svg10.dtd">
<svg version="1.0" xmlns="http://www.w3.org/2000/svg"
 width="48.000000pt" height="48.000000pt" viewBox="0 0 48.000000 48.000000"
 preserveAspectRatio="xMidYMid meet">
<metadata>
Created by potrace 1.16, written by Peter Selinger 2001-2019
</metadata>
<g transform="translate(0.000000,48.000000) scale(0.100000,-0.100000)"
fill="currentColor" stroke="currentColor" stroke-width="6" stroke-linejoin="round">
<path d="M145 446 c-60 -28 -87 -56 -114 -116 -36 -79 -19 -183 42 -249 33
-36 115 -71 167 -71 52 0 134 35 167 71 34 37 63 110 63 159 0 52 -35 134 -71
167 -37 34 -110 63 -159 63 -27 0 -65 -10 -95 -24z m220 -206 l0 -25 -123 -3
c-102 -2 -123 0 -128 13 -3 8 -3 22 0 30 5 13 26 15 128 13 l123 -3 0 -25z"/>
</g>
</svg>

