<?xml version="1.0" standalone="no"?>
<!DOCTYPE svg PUBLIC "-//W3C//DTD SVG 20010904//EN"
 "http://www.w3.org/TR/2001/REC-SVG-20010904/DTD/svg10.dtd">
<svg version="1.0" xmlns="http://www.w3.org/2000/svg"
 width="48.000000pt" height="48.000000pt" viewBox="0 0 48.000000 48.000000"
 preserveAspectRatio="xMidYMid meet">
<metadata>
Created by potrace 1.16, written by Peter Selinger 2001-2019
</metadata>
<g transform="translate(0.000000,48.000000) scale(0.100000,-0.100000)"
fill="currentColor" stroke="currentColor" stroke-width="6" stroke-linejoin="round">
<path d="M168 446 c-105 -28 -163 -110 -156 -221 3 -51 10 -73 34 -107 61 -87
188 -117 277 -65 54 32 81 62 74 82 -9 21 -30 19 -53 -6 -45 -50 -134 -64
-200 -33 -73 35 -106 140 -69 218 48 102 204 119 274 30 25 -31 27 -44 7 -44
-31 0 -27 -23 10 -61 21 -21 41 -39 45 -39 8 0 59 88 59 101 0 5 -11 9 -24 9
-16 0 -27 7 -31 20 -10 33 -55 80 -94 99 -51 25 -98 31 -153 17z"/>
</g>
</svg>

