<?xml version="1.0" standalone="no"?>
<!DOCTYPE svg PUBLIC "-//W3C//DTD SVG 20010904//EN"
 "http://www.w3.org/TR/2001/REC-SVG-20010904/DTD/svg10.dtd">
<svg version="1.0" xmlns="http://www.w3.org/2000/svg"
 width="48.000000pt" height="48.000000pt" viewBox="0 0 48.000000 48.000000"
 preserveAspectRatio="xMidYMid meet">
<metadata>
Created by potrace 1.16, written by Peter Selinger 2001-2019
</metadata>
<g transform="translate(0.000000,48.000000) scale(0.100000,-0.100000)"
fill="currentColor" stroke="currentColor" stroke-width="6" stroke-linejoin="round">
<path d="M220 450 c-69 -13 -138 -67 -155 -120 -4 -13 -15 -20 -31 -20 -13 0
-24 -2 -24 -5 0 -13 51 -105 58 -105 4 0 25 18 46 39 37 38 41 61 10 61 -18 0
-18 10 1 37 46 65 159 85 226 39 50 -34 72 -85 67 -151 -8 -91 -68 -145 -163
-145 -51 0 -77 10 -117 48 -28 25 -58 25 -58 -2 0 -18 55 -65 100 -84 56 -23
151 -12 202 23 63 45 90 104 86 187 -3 55 -9 75 -33 110 -47 66 -137 103 -215
88z"/>
</g>
</svg>

