<?xml version="1.0" standalone="no"?>
<!DOCTYPE svg PUBLIC "-//W3C//DTD SVG 20010904//EN"
 "http://www.w3.org/TR/2001/REC-SVG-20010904/DTD/svg10.dtd">
<svg version="1.0" xmlns="http://www.w3.org/2000/svg"
 width="48.000000pt" height="48.000000pt" viewBox="0 0 48.000000 48.000000"
 preserveAspectRatio="xMidYMid meet">
<metadata>
Created by potrace 1.16, written by Peter Selinger 2001-2019
</metadata>
<g transform="translate(0.000000,48.000000) scale(0.100000,-0.100000)"
fill="currentColor" stroke="currentColor" stroke-width="6" stroke-linejoin="round">
<path d="M235 453 c-81 -17 -142 -59 -165 -113 -9 -21 -19 -30 -36 -30 -13 0
-24 -2 -24 -5 0 -13 51 -105 58 -105 4 0 25 18 46 39 37 38 41 61 10 61 -20 0
-18 13 7 44 30 38 71 56 130 56 123 0 197 -122 143 -237 -20 -41 -78 -83 -115
-83 -15 0 -32 -7 -39 -15 -38 -46 67 -45 133 1 22 16 51 49 65 74 20 38 23 56
20 112 -3 55 -9 75 -33 110 -43 60 -138 103 -200 91z"/>
</g>
</svg>

