<?xml version="1.0" standalone="no"?>
<!DOCTYPE svg PUBLIC "-//W3C//DTD SVG 20010904//EN"
 "http://www.w3.org/TR/2001/REC-SVG-20010904/DTD/svg10.dtd">
<svg version="1.0" xmlns="http://www.w3.org/2000/svg"
 width="48.000000pt" height="48.000000pt" viewBox="0 0 48.000000 48.000000"
 preserveAspectRatio="xMidYMid meet">
<metadata>
Created by potrace 1.16, written by Peter Selinger 2001-2019
</metadata>
<g transform="translate(0.000000,48.000000) scale(0.100000,-0.100000)"
fill="currentColor" stroke="currentColor" stroke-width="6" stroke-linejoin="round">
<path d="M155 414 c-43 -23 -82 -62 -95 -94 -6 -16 -21 -31 -32 -33 -20 -6
-20 -7 7 -54 15 -26 30 -50 32 -52 5 -6 83 71 83 81 0 4 -6 8 -12 8 -7 0 -19
4 -27 9 -11 7 -10 14 8 40 47 66 138 81 206 35 66 -45 92 -6 29 43 -30 23 -49
28 -103 30 -47 2 -75 -1 -96 -13z M367 262 c-20 -21 -37 -41 -37 -44 0 -3 11
-9 25 -12 33 -8 32 -18 -8 -59 -55 -59 -149 -67 -201 -18 -28 26 -56 27 -56 3
0 -33 56 -74 118 -86 75 -14 183 44 211 113 7 16 22 31 33 34 19 5 19 7 -8 56
-15 28 -30 51 -34 51 -3 0 -23 -17 -43 -38z"/>
</g>
</svg>

