<?xml version="1.0" standalone="no"?>
<!DOCTYPE svg PUBLIC "-//W3C//DTD SVG 20010904//EN"
 "http://www.w3.org/TR/2001/REC-SVG-20010904/DTD/svg10.dtd">
<svg version="1.0" xmlns="http://www.w3.org/2000/svg"
 width="48.000000pt" height="48.000000pt" viewBox="0 0 48.000000 48.000000"
 preserveAspectRatio="xMidYMid meet">
<metadata>
Created by potrace 1.16, written by Peter Selinger 2001-2019
</metadata>
<g transform="translate(0.000000,48.000000) scale(0.100000,-0.100000)"
fill="currentColor" stroke="currentColor" stroke-width="6" stroke-linejoin="round">
<path d="M5 419 c-16 -25 20 -29 241 -27 196 3 229 5 229 18 0 13 -34 15 -232
18 -161 2 -234 -1 -238 -9z M46 314 c-8 -20 -8 -128 0 -148 10 -25 34 -19 34
9 0 14 4 25 8 25 5 0 14 -11 20 -25 6 -14 18 -25 27 -25 12 0 15 16 15 90 0
73 -3 90 -15 90 -8 0 -18 -14 -23 -32 l-8 -32 -13 32 c-14 34 -35 42 -45 16z
M196 308 c-9 -12 -16 -43 -16 -68 0 -63 21 -90 71 -90 32 0 39 3 39 20 0 16
-7 20 -35 20 -40 0 -50 26 -12 32 12 2 22 10 22 18 0 8 -10 16 -22 18 -38 6
-28 32 12 32 28 0 35 4 35 20 0 30 -73 29 -94 -2z M315 318 c-2 -7 -1 -47 3
-88 5 -58 11 -75 24 -78 10 -2 19 6 23 19 l8 23 18 -23 c32 -39 47 -21 51 61
2 40 2 79 0 86 -7 21 -26 8 -37 -26 -12 -43 -42 -43 -53 0 -8 34 -29 48 -37
26z M5 79 c-16 -25 20 -29 241 -27 196 3 229 5 229 18 0 13 -34 15 -232 18
-161 2 -234 -1 -238 -9z"/>
</g>
</svg>

