<?xml version="1.0" standalone="no"?>
<!DOCTYPE svg PUBLIC "-//W3C//DTD SVG 20010904//EN"
 "http://www.w3.org/TR/2001/REC-SVG-20010904/DTD/svg10.dtd">
<svg version="1.0" xmlns="http://www.w3.org/2000/svg"
 width="48.000000pt" height="48.000000pt" viewBox="0 0 48.000000 48.000000"
 preserveAspectRatio="xMidYMid meet">
<metadata>
Created by potrace 1.16, written by Peter Selinger 2001-2019
</metadata>
<g transform="translate(0.000000,48.000000) scale(0.100000,-0.100000)"
fill="currentColor" stroke="currentColor" stroke-width="6" stroke-linejoin="round">
<path d="M160 467 c-49 -16 -133 -102 -148 -153 -28 -94 -8 -169 63 -239 101
-102 229 -102 330 0 102 101 102 229 0 330 -70 71 -152 91 -245 62z m-30 -166
c0 -5 -9 -11 -20 -14 -24 -6 -28 -47 -5 -47 8 0 15 -5 15 -10 0 -6 -7 -13 -15
-16 -8 -4 -15 -15 -15 -25 0 -10 -7 -19 -15 -19 -12 0 -15 14 -15 63 0 35 3
67 7 70 10 10 63 8 63 -2z m94 -13 c7 -12 6 -23 -3 -41 -10 -18 -10 -30 -2
-45 6 -11 11 -23 11 -26 0 -11 -28 -6 -34 7 -5 10 -7 10 -12 0 -3 -7 -12 -13
-20 -13 -11 0 -14 16 -14 71 l0 70 31 -3 c18 -2 37 -11 43 -20z m106 13 c0 -5
-10 -11 -22 -13 -33 -4 -37 -45 -6 -50 30 -4 30 -22 0 -26 -26 -4 -20 -22 9
-22 10 0 19 -5 19 -11 0 -6 -16 -9 -37 -7 l-38 3 -3 54 c-2 29 -1 60 2 67 6
16 76 20 76 5z m90 1 c0 -4 -10 -12 -22 -17 -30 -13 -30 -39 0 -43 12 -2 22
-8 22 -13 0 -5 -10 -14 -22 -19 l-23 -9 23 -7 c34 -10 26 -26 -10 -22 -32 3
-33 4 -36 57 -2 29 -1 60 2 67 6 14 66 20 66 6z M180 270 c0 -5 5 -10 10 -10
6 0 10 5 10 10 0 6 -4 10 -10 10 -5 0 -10 -4 -10 -10z"/>
</g>
</svg>

