<?xml version="1.0" standalone="no"?>
<!DOCTYPE svg PUBLIC "-//W3C//DTD SVG 20010904//EN"
 "http://www.w3.org/TR/2001/REC-SVG-20010904/DTD/svg10.dtd">
<svg version="1.0" xmlns="http://www.w3.org/2000/svg"
 width="48.000000pt" height="48.000000pt" viewBox="0 0 48.000000 48.000000"
 preserveAspectRatio="xMidYMid meet">
<metadata>
Created by potrace 1.16, written by Peter Selinger 2001-2019
</metadata>
<g transform="translate(0.000000,48.000000) scale(0.100000,-0.100000)"
fill="currentColor" stroke="currentColor" stroke-width="6" stroke-linejoin="round">
<path d="M160 467 c-49 -16 -133 -102 -148 -153 -28 -94 -8 -169 63 -239 101
-102 229 -102 330 0 102 101 102 229 0 330 -70 71 -152 91 -245 62z m-41 -194
l20 -38 1 38 c0 26 4 37 15 37 12 0 15 -16 15 -80 0 -91 -14 -104 -45 -42
l-20 37 -3 -37 c-2 -25 -8 -38 -18 -38 -11 0 -14 17 -14 80 0 92 16 106 49 43z
m171 28 c0 -6 -15 -11 -32 -13 -39 -4 -52 -36 -19 -45 12 -3 21 -9 21 -13 0
-4 -9 -10 -21 -13 -33 -9 -20 -41 19 -45 51 -5 37 -23 -15 -20 l-48 3 -3 64
c-2 35 -1 70 2 77 6 16 96 20 96 5z m48 -28 c3 -25 7 -31 27 -29 18 1 25 8 30
34 4 19 12 32 21 32 12 0 14 -7 10 -27 -3 -16 -8 -52 -11 -80 -7 -54 -26 -71
-40 -35 -6 16 -7 16 -16 0 -26 -46 -49 8 -49 115 0 39 24 30 28 -10z"/>
</g>
</svg>

