<?xml version="1.0" standalone="no"?>
<!DOCTYPE svg PUBLIC "-//W3C//DTD SVG 20010904//EN"
 "http://www.w3.org/TR/2001/REC-SVG-20010904/DTD/svg10.dtd">
<svg version="1.0" xmlns="http://www.w3.org/2000/svg"
 width="48.000000pt" height="48.000000pt" viewBox="0 0 48.000000 48.000000"
 preserveAspectRatio="xMidYMid meet">
<metadata>
Created by potrace 1.16, written by Peter Selinger 2001-2019
</metadata>
<g transform="translate(0.000000,48.000000) scale(0.100000,-0.100000)"
fill="currentColor" stroke="currentColor" stroke-width="6" stroke-linejoin="round">
<path d="M16 384 c-23 -23 -23 -265 0 -288 23 -24 425 -24 448 0 23 23 23 265
0 288 -23 24 -425 24 -448 0z m104 -78 c0 -8 -10 -16 -22 -18 -31 -4 -39 -48
-9 -48 27 0 27 -20 1 -27 -13 -4 -20 -14 -20 -30 0 -15 -5 -23 -12 -21 -21 7
-23 122 -3 142 20 20 65 21 65 2z m94 -2 c20 -19 20 -48 1 -64 -13 -11 -13
-15 0 -40 17 -33 2 -53 -19 -25 -12 16 -13 16 -19 1 -15 -39 -27 -12 -27 64 0
78 1 80 24 80 14 0 32 -7 40 -16z m116 1 c0 -9 -9 -15 -25 -15 -20 0 -25 -5
-25 -25 0 -20 5 -25 25 -25 16 0 25 -6 25 -15 0 -9 -9 -15 -25 -15 -14 0 -25
-4 -25 -10 0 -5 11 -10 25 -10 16 0 25 -6 25 -15 0 -10 -10 -15 -30 -15 -36 0
-50 23 -50 80 0 57 14 80 50 80 20 0 30 -5 30 -15z m101 0 c0 -5 -10 -12 -23
-15 -31 -8 -31 -42 0 -50 30 -7 33 -24 5 -28 -28 -4 -31 -22 -4 -22 11 0 23
-5 26 -10 9 -14 -20 -23 -50 -16 -24 6 -25 10 -25 75 0 46 4 71 13 75 19 8 58
2 58 -9z M180 274 c0 -8 5 -12 10 -9 6 4 8 11 5 16 -9 14 -15 11 -15 -7z"/>
</g>
</svg>

