<?xml version="1.0" standalone="no"?>
<!DOCTYPE svg PUBLIC "-//W3C//DTD SVG 20010904//EN"
 "http://www.w3.org/TR/2001/REC-SVG-20010904/DTD/svg10.dtd">
<svg version="1.0" xmlns="http://www.w3.org/2000/svg"
 width="48.000000pt" height="48.000000pt" viewBox="0 0 48.000000 48.000000"
 preserveAspectRatio="xMidYMid meet">
<metadata>
Created by potrace 1.16, written by Peter Selinger 2001-2019
</metadata>
<g transform="translate(0.000000,48.000000) scale(0.100000,-0.100000)"
fill="currentColor" stroke="currentColor" stroke-width="6" stroke-linejoin="round">
<path d="M128 352 c-91 -90 -128 -135 -128 -151 0 -16 26 -50 77 -102 60 -62
83 -79 105 -79 34 0 38 26 6 39 -13 5 -52 39 -88 75 l-65 66 120 120 120 120
73 0 73 0 -3 -84 c-2 -70 0 -86 14 -95 23 -14 28 4 28 108 0 54 -5 92 -12 99
-8 8 -45 12 -102 12 l-90 0 -128 -128z M320 375 c-11 -13 -11 -19 3 -32 21
-21 49 -9 45 19 -4 28 -30 35 -48 13z M283 240 c-85 -51 -81 -179 6 -225 116
-60 239 71 171 182 -37 61 -116 81 -177 43z m87 -30 c26 -26 25 -28 -7 -32
-38 -4 -39 -22 -1 -39 43 -19 49 -52 14 -84 -26 -24 -27 -24 -46 -5 -26 26
-25 28 7 32 38 4 39 22 1 39 -42 18 -48 52 -16 84 29 29 25 28 48 5z"/>
</g>
</svg>

