<?xml version="1.0" standalone="no"?>
<!DOCTYPE svg PUBLIC "-//W3C//DTD SVG 20010904//EN"
 "http://www.w3.org/TR/2001/REC-SVG-20010904/DTD/svg10.dtd">
<svg version="1.0" xmlns="http://www.w3.org/2000/svg"
 width="48.000000pt" height="48.000000pt" viewBox="0 0 48.000000 48.000000"
 preserveAspectRatio="xMidYMid meet">
<metadata>
Created by potrace 1.16, written by Peter Selinger 2001-2019
</metadata>
<g transform="translate(0.000000,48.000000) scale(0.100000,-0.100000)"
fill="currentColor" stroke="currentColor" stroke-width="6" stroke-linejoin="round">
<path d="M296 470 c-16 -5 -42 -21 -57 -36 -31 -30 -39 -74 -14 -74 8 0 15 4
15 9 0 4 12 20 26 35 37 36 104 37 139 1 36 -35 35 -102 -1 -139 -15 -14 -36
-26 -46 -26 -17 0 -19 5 -13 39 9 55 -17 71 -103 62 -62 -7 -63 -8 -143 -86
-44 -44 -85 -88 -90 -98 -8 -14 1 -29 48 -78 88 -93 81 -93 179 2 85 84 96 99
69 99 -9 0 -34 9 -56 21 -34 17 -40 24 -37 47 2 20 9 28 27 30 26 4 55 -17 34
-25 -7 -3 -13 -13 -13 -23 0 -20 27 -30 87 -30 82 0 145 88 123 171 -10 37
-68 99 -93 99 -7 0 -21 2 -32 5 -11 2 -33 0 -49 -5z m-144 -317 c20 -18 24
-43 6 -43 -16 0 -48 31 -48 47 0 18 20 16 42 -4z"/>
</g>
</svg>

