<?xml version="1.0" standalone="no"?>
<!DOCTYPE svg PUBLIC "-//W3C//DTD SVG 20010904//EN"
 "http://www.w3.org/TR/2001/REC-SVG-20010904/DTD/svg10.dtd">
<svg version="1.0" xmlns="http://www.w3.org/2000/svg"
 width="48.000000pt" height="48.000000pt" viewBox="0 0 48.000000 48.000000"
 preserveAspectRatio="xMidYMid meet">
<metadata>
Created by potrace 1.16, written by Peter Selinger 2001-2019
</metadata>
<g transform="translate(0.000000,48.000000) scale(0.100000,-0.100000)"
fill="currentColor" stroke="currentColor" stroke-width="6" stroke-linejoin="round">
<path d="M123 357 c-68 -68 -123 -131 -123 -141 0 -23 97 -125 127 -132 32 -8
59 18 67 64 3 20 15 51 25 69 21 34 86 73 121 73 38 0 59 38 60 106 0 34 -5
65 -12 72 -7 7 -40 12 -77 12 l-65 0 -123 -123z m201 31 c8 -13 8 -23 0 -35
-16 -26 -51 -28 -64 -4 -25 47 36 83 64 39z M283 240 c-85 -51 -81 -179 6
-225 116 -60 239 71 171 182 -37 61 -116 81 -177 43z m87 -30 c26 -26 25 -28
-7 -32 -38 -4 -39 -22 -1 -39 43 -19 49 -52 14 -84 -26 -24 -27 -24 -46 -5
-26 26 -25 28 7 32 38 4 39 22 1 39 -42 18 -48 52 -16 84 29 29 25 28 48 5z"/>
</g>
</svg>

