<?xml version="1.0" standalone="no"?>
<!DOCTYPE svg PUBLIC "-//W3C//DTD SVG 20010904//EN"
 "http://www.w3.org/TR/2001/REC-SVG-20010904/DTD/svg10.dtd">
<svg version="1.0" xmlns="http://www.w3.org/2000/svg"
 width="48.000000pt" height="48.000000pt" viewBox="0 0 48.000000 48.000000"
 preserveAspectRatio="xMidYMid meet">
<metadata>
Created by potrace 1.16, written by Peter Selinger 2001-2019
</metadata>
<g transform="translate(0.000000,48.000000) scale(0.100000,-0.100000)"
fill="currentColor" stroke="currentColor" stroke-width="6" stroke-linejoin="round">
<path d="M207 462 c-10 -10 -17 -24 -17 -30 0 -7 -9 -12 -20 -12 -16 0 -20 -7
-20 -35 l0 -35 90 0 90 0 0 35 c0 28 -4 35 -20 35 -11 0 -20 6 -20 14 0 16
-37 46 -56 46 -6 0 -18 -8 -27 -18z m43 -27 c0 -8 -4 -15 -10 -15 -5 0 -10 7
-10 15 0 8 5 15 10 15 6 0 10 -7 10 -15z M62 408 c-8 -8 -12 -67 -12 -200 0
-175 1 -188 19 -198 26 -13 316 -13 342 0 18 10 19 23 19 198 0 199 -3 212
-47 212 -16 0 -23 -6 -23 -20 0 -11 7 -20 15 -20 13 0 15 -23 13 -167 l-3
-168 -145 0 -145 0 -3 168 c-2 144 0 167 13 167 8 0 15 9 15 20 0 23 -38 28
-58 8z M164 266 c-40 -40 -45 -83 -14 -133 41 -67 149 -63 185 7 27 53 -7 72
-37 20 -21 -37 -60 -48 -93 -26 -52 34 -42 109 17 124 45 11 51 42 8 42 -23 0
-42 -10 -66 -34z M285 240 c-30 -31 -44 -38 -62 -34 -29 8 -31 -16 -3 -41 20
-18 22 -18 75 35 31 30 54 59 52 64 -7 21 -24 14 -62 -24z"/>
</g>
</svg>

