<?xml version="1.0" standalone="no"?>
<!DOCTYPE svg PUBLIC "-//W3C//DTD SVG 20010904//EN"
 "http://www.w3.org/TR/2001/REC-SVG-20010904/DTD/svg10.dtd">
<svg version="1.0" xmlns="http://www.w3.org/2000/svg"
 width="48.000000pt" height="48.000000pt" viewBox="0 0 48.000000 48.000000"
 preserveAspectRatio="xMidYMid meet">
<metadata>
Created by potrace 1.16, written by Peter Selinger 2001-2019
</metadata>
<g transform="translate(0.000000,48.000000) scale(0.100000,-0.100000)"
fill="currentColor" stroke="currentColor" stroke-width="6" stroke-linejoin="round">
<path d="M190 460 c-14 -14 -36 -20 -82 -22 l-63 -3 0 -215 0 -215 195 0 195
0 0 215 0 215 -63 3 c-46 2 -68 8 -82 22 -11 11 -33 20 -50 20 -16 0 -39 -9
-50 -20z m190 -202 l0 -123 -35 -37 -34 -38 -105 0 -106 0 0 160 0 160 140 0
140 0 0 -122z M296 304 c-9 -8 -30 -35 -47 -59 l-32 -44 -30 25 c-27 23 -32
24 -46 10 -14 -14 -12 -19 19 -51 50 -52 70 -47 130 31 27 37 50 73 50 79 0
20 -28 26 -44 9z"/>
</g>
</svg>

