<?xml version="1.0" standalone="no"?>
<!DOCTYPE svg PUBLIC "-//W3C//DTD SVG 20010904//EN"
 "http://www.w3.org/TR/2001/REC-SVG-20010904/DTD/svg10.dtd">
<svg version="1.0" xmlns="http://www.w3.org/2000/svg"
 width="48.000000pt" height="48.000000pt" viewBox="0 0 48.000000 48.000000"
 preserveAspectRatio="xMidYMid meet">
<metadata>
Created by potrace 1.16, written by Peter Selinger 2001-2019
</metadata>
<g transform="translate(0.000000,48.000000) scale(0.100000,-0.100000)"
fill="currentColor" stroke="currentColor" stroke-width="6" stroke-linejoin="round">
<path d="M156 464 c-9 -8 -16 -19 -16 -24 0 -4 -9 -10 -21 -13 -16 -4 -20 -12
-17 -39 l3 -33 85 0 85 0 3 33 c3 27 -1 35 -17 39 -12 3 -21 9 -21 13 0 15
-31 40 -50 40 -10 0 -26 -7 -34 -16z m44 -29 c0 -8 -4 -15 -10 -15 -5 0 -10 7
-10 15 0 8 5 15 10 15 6 0 10 -7 10 -15z M30 423 c-8 -3 -18 -11 -22 -17 -13
-20 -9 -381 4 -394 8 -8 51 -12 127 -12 113 0 114 0 96 20 -16 17 -31 20 -107
20 l-88 0 0 166 c0 144 2 168 17 179 9 7 14 19 10 29 -7 17 -12 18 -37 9z
M313 414 c-4 -10 0 -22 10 -29 11 -8 17 -27 17 -54 0 -34 3 -41 20 -41 17 0
20 7 20 53 0 59 -6 71 -38 81 -16 5 -24 3 -29 -10z M95 300 c-13 -22 12 -31
76 -28 49 2 64 7 64 18 0 12 -15 16 -67 18 -41 2 -69 -1 -73 -8z M283 240
c-85 -51 -81 -179 6 -225 116 -60 239 71 171 182 -37 61 -116 81 -177 43z
m127 -110 c0 -6 -27 -10 -60 -10 -33 0 -60 4 -60 10 0 6 27 10 60 10 33 0 60
-4 60 -10z M95 230 c-11 -18 10 -32 41 -28 40 4 38 32 -3 36 -17 2 -34 -2 -38
-8z M95 160 c-16 -26 33 -41 65 -20 13 9 13 11 0 20 -20 13 -57 13 -65 0z"/>
</g>
</svg>

