<?xml version="1.0" standalone="no"?>
<!DOCTYPE svg PUBLIC "-//W3C//DTD SVG 20010904//EN"
 "http://www.w3.org/TR/2001/REC-SVG-20010904/DTD/svg10.dtd">
<svg version="1.0" xmlns="http://www.w3.org/2000/svg"
 width="48.000000pt" height="48.000000pt" viewBox="0 0 48.000000 48.000000"
 preserveAspectRatio="xMidYMid meet">
<metadata>
Created by potrace 1.16, written by Peter Selinger 2001-2019
</metadata>
<g transform="translate(0.000000,48.000000) scale(0.100000,-0.100000)"
fill="currentColor" stroke="currentColor" stroke-width="6" stroke-linejoin="round">
<path d="M133 461 c-14 -14 -39 -21 -74 -23 l-54 -3 0 -195 0 -195 103 -3 c56
-1 102 -1 102 2 0 3 -4 16 -10 30 -9 24 -14 26 -75 26 l-65 0 0 140 0 140 120
0 120 0 0 -51 c0 -43 3 -50 16 -45 9 3 22 6 30 6 12 0 14 14 12 73 l-3 72 -53
3 c-36 2 -59 9 -73 23 -24 24 -69 24 -96 0z M115 320 c-13 -21 12 -31 71 -28
44 2 59 7 59 18 0 19 -119 28 -130 10z M115 250 c-12 -19 7 -30 54 -30 43 0
71 12 71 32 0 12 -118 10 -125 -2z M283 240 c-85 -51 -81 -179 6 -225 116 -60
239 71 171 182 -37 61 -116 81 -177 43z m79 -72 c2 -15 11 -24 26 -26 12 -2
22 -7 22 -12 0 -5 -10 -10 -22 -12 -15 -2 -24 -11 -26 -25 -4 -30 -20 -30 -24
-1 -2 15 -11 24 -25 26 -13 2 -23 7 -23 12 0 5 10 10 23 12 14 2 23 11 25 26
2 12 7 22 12 22 5 0 10 -10 12 -22z M115 180 c-11 -18 5 -30 40 -30 30 0 52
19 38 34 -10 10 -71 7 -78 -4z"/>
</g>
</svg>

