<?xml version="1.0" standalone="no"?>
<!DOCTYPE svg PUBLIC "-//W3C//DTD SVG 20010904//EN"
 "http://www.w3.org/TR/2001/REC-SVG-20010904/DTD/svg10.dtd">
<svg version="1.0" xmlns="http://www.w3.org/2000/svg"
 width="48.000000pt" height="48.000000pt" viewBox="0 0 48.000000 48.000000"
 preserveAspectRatio="xMidYMid meet">
<metadata>
Created by potrace 1.16, written by Peter Selinger 2001-2019
</metadata>
<g transform="translate(0.000000,48.000000) scale(0.100000,-0.100000)"
fill="currentColor" stroke="currentColor" stroke-width="6" stroke-linejoin="round">
<path d="M199 459 c-15 -15 -19 -30 -17 -62 l3 -42 55 0 55 0 3 42 c3 47 -22
83 -58 83 -11 0 -29 -9 -41 -21z m51 -34 c0 -8 -4 -15 -10 -15 -5 0 -10 7 -10
15 0 8 5 15 10 15 6 0 10 -7 10 -15z M62 408 c-17 -17 -17 -379 0 -396 17 -17
339 -17 356 0 17 17 17 379 0 396 -7 7 -29 12 -50 12 -31 0 -38 -4 -38 -20 0
-16 7 -20 30 -20 l30 0 0 -133 0 -133 -38 -37 -38 -37 -112 0 -112 0 0 170 0
170 30 0 c23 0 30 4 30 20 0 16 -7 20 -38 20 -21 0 -43 -5 -50 -12z M140 285
c0 -12 18 -15 100 -15 82 0 100 3 100 15 0 12 -18 15 -100 15 -82 0 -100 -3
-100 -15z M140 215 c0 -12 18 -15 100 -15 82 0 100 3 100 15 0 12 -18 15 -100
15 -82 0 -100 -3 -100 -15z M140 145 c0 -11 12 -15 50 -15 38 0 50 4 50 15 0
11 -12 15 -50 15 -38 0 -50 -4 -50 -15z"/>
</g>
</svg>

