<?xml version="1.0" standalone="no"?>
<!DOCTYPE svg PUBLIC "-//W3C//DTD SVG 20010904//EN"
 "http://www.w3.org/TR/2001/REC-SVG-20010904/DTD/svg10.dtd">
<svg version="1.0" xmlns="http://www.w3.org/2000/svg"
 width="48.000000pt" height="48.000000pt" viewBox="0 0 48.000000 48.000000"
 preserveAspectRatio="xMidYMid meet">
<metadata>
Created by potrace 1.16, written by Peter Selinger 2001-2019
</metadata>
<g transform="translate(0.000000,48.000000) scale(0.100000,-0.100000)"
fill="currentColor" stroke="currentColor" stroke-width="6" stroke-linejoin="round">
<path d="M131 461 c-14 -14 -37 -21 -73 -23 l-53 -3 0 -195 0 -195 103 -3 c56
-1 102 -1 102 2 0 3 -4 16 -10 30 -9 24 -14 26 -75 26 l-65 0 0 140 0 140 120
0 120 0 0 -51 c0 -43 3 -50 16 -45 9 3 22 6 30 6 12 0 14 14 12 73 l-3 72 -53
3 c-36 2 -59 9 -73 23 -10 10 -32 19 -49 19 -16 0 -39 -9 -49 -19z M115 320
c-13 -21 12 -31 71 -28 44 2 59 7 59 18 0 19 -119 28 -130 10z M115 250 c-12
-19 7 -30 54 -30 43 0 71 12 71 32 0 12 -118 10 -125 -2z M283 240 c-85 -51
-81 -179 6 -225 116 -60 239 71 171 182 -37 61 -116 81 -177 43z m87 -30 c26
-26 25 -28 -7 -32 -38 -4 -39 -22 -1 -39 44 -19 49 -52 13 -85 l-27 -25 -19
20 c-25 26 -24 29 8 33 38 4 39 22 1 39 -42 18 -48 51 -16 84 13 14 24 25 26
25 1 0 11 -9 22 -20z M117 183 c-14 -14 -6 -22 29 -29 35 -6 60 8 48 28 -6 10
-68 11 -77 1z"/>
</g>
</svg>

