<?xml version="1.0" standalone="no"?>
<!DOCTYPE svg PUBLIC "-//W3C//DTD SVG 20010904//EN"
 "http://www.w3.org/TR/2001/REC-SVG-20010904/DTD/svg10.dtd">
<svg version="1.0" xmlns="http://www.w3.org/2000/svg"
 width="48.000000pt" height="48.000000pt" viewBox="0 0 48.000000 48.000000"
 preserveAspectRatio="xMidYMid meet">
<metadata>
Created by potrace 1.16, written by Peter Selinger 2001-2019
</metadata>
<g transform="translate(0.000000,48.000000) scale(0.100000,-0.100000)"
fill="currentColor" stroke="currentColor" stroke-width="6" stroke-linejoin="round">
<path d="M133 461 c-14 -14 -39 -21 -74 -23 l-54 -3 0 -195 0 -195 113 -3 c61
-1 112 0 112 3 0 3 -7 17 -16 30 -15 23 -23 25 -85 25 l-69 0 0 140 0 140 120
0 120 0 0 -45 c0 -43 1 -45 30 -45 l31 0 -3 73 -3 72 -53 3 c-36 2 -59 9 -73
23 -24 24 -69 24 -96 0z M115 320 c-13 -21 12 -31 71 -28 44 2 59 7 59 18 0
19 -119 28 -130 10z M115 250 c-12 -19 6 -30 49 -30 39 0 66 13 66 32 0 12
-108 10 -115 -2z M278 245 c-31 -17 -58 -63 -58 -97 0 -67 73 -119 141 -101
35 9 40 8 68 -21 24 -24 33 -28 43 -18 9 9 5 19 -20 45 -23 24 -29 36 -22 47
5 8 10 32 10 52 0 78 -93 132 -162 93z m99 -47 c29 -27 29 -65 1 -95 -28 -30
-63 -29 -93 2 -30 30 -31 54 -4 89 25 32 64 34 96 4z M114 179 c-10 -17 11
-31 42 -27 18 2 30 10 32 21 3 13 -4 17 -32 17 -19 0 -38 -5 -42 -11z"/>
</g>
</svg>

