<?xml version="1.0" standalone="no"?>
<!DOCTYPE svg PUBLIC "-//W3C//DTD SVG 20010904//EN"
 "http://www.w3.org/TR/2001/REC-SVG-20010904/DTD/svg10.dtd">
<svg version="1.0" xmlns="http://www.w3.org/2000/svg"
 width="48.000000pt" height="48.000000pt" viewBox="0 0 48.000000 48.000000"
 preserveAspectRatio="xMidYMid meet">
<metadata>
Created by potrace 1.16, written by Peter Selinger 2001-2019
</metadata>
<g transform="translate(0.000000,48.000000) scale(0.100000,-0.100000)"
fill="currentColor" stroke="currentColor" stroke-width="6" stroke-linejoin="round">
<path d="M133 461 c-14 -14 -39 -21 -74 -23 l-54 -3 0 -195 0 -195 96 -3 97
-3 4 31 5 30 -74 0 -73 0 0 140 0 140 120 0 120 0 0 -92 0 -92 30 29 c30 29
31 31 28 120 l-3 90 -53 3 c-36 2 -59 9 -73 23 -24 24 -69 24 -96 0z M115 320
c-13 -21 12 -31 71 -28 44 2 59 7 59 18 0 19 -119 28 -130 10z M115 250 c-13
-21 12 -31 71 -28 44 2 59 7 59 18 0 19 -119 28 -130 10z M331 185 l-76 -74
37 -38 38 -38 70 70 c78 78 92 106 65 135 -30 33 -54 23 -134 -55z M115 180
c-12 -19 10 -32 51 -28 27 2 39 8 39 18 0 19 -79 27 -90 10z M226 45 c-4 -20
-5 -39 -2 -42 3 -3 21 -1 41 3 l36 9 -34 33 -34 33 -7 -36z"/>
</g>
</svg>

