<?xml version="1.0" standalone="no"?>
<!DOCTYPE svg PUBLIC "-//W3C//DTD SVG 20010904//EN"
 "http://www.w3.org/TR/2001/REC-SVG-20010904/DTD/svg10.dtd">
<svg version="1.0" xmlns="http://www.w3.org/2000/svg"
 width="48.000000pt" height="48.000000pt" viewBox="0 0 48.000000 48.000000"
 preserveAspectRatio="xMidYMid meet">
<metadata>
Created by potrace 1.16, written by Peter Selinger 2001-2019
</metadata>
<g transform="translate(0.000000,48.000000) scale(0.100000,-0.100000)"
fill="currentColor" stroke="currentColor" stroke-width="6" stroke-linejoin="round">
<path d="M12 468 c-8 -8 -12 -55 -12 -144 0 -161 2 -164 99 -164 62 0 91 10
91 32 0 4 -34 8 -75 8 l-75 0 0 120 0 120 170 0 169 0 3 -92 c3 -79 6 -93 21
-96 15 -3 17 7 17 93 0 144 14 135 -208 135 -133 0 -192 -4 -200 -12z M107
403 c-26 -26 12 -80 47 -67 21 8 30 42 16 59 -13 15 -51 20 -63 8z M237 404
c-4 -4 -7 -13 -7 -21 0 -9 16 -13 56 -13 47 0 55 3 52 18 -2 13 -15 18 -48 20
-25 2 -49 0 -53 -4z M237 334 c-4 -4 -7 -13 -7 -21 0 -9 16 -13 56 -13 47 0
55 3 52 18 -2 13 -15 18 -48 20 -25 2 -49 0 -53 -4z M89 299 c-31 -31 -19 -44
46 -47 70 -4 83 6 55 41 -26 33 -71 36 -101 6z M272 224 c-18 -10 -45 -32 -59
-51 l-26 -34 20 -27 c70 -95 186 -95 257 0 l20 28 -20 27 c-49 66 -128 89
-192 57z m108 -44 c24 -24 25 -48 4 -78 -23 -34 -84 -28 -102 10 -30 64 48
118 98 68z M314 149 c-3 -6 0 -17 7 -25 18 -17 44 -2 36 20 -7 18 -33 21 -43
5z"/>
</g>
</svg>

