<?xml version="1.0" standalone="no"?>
<!DOCTYPE svg PUBLIC "-//W3C//DTD SVG 20010904//EN"
 "http://www.w3.org/TR/2001/REC-SVG-20010904/DTD/svg10.dtd">
<svg version="1.0" xmlns="http://www.w3.org/2000/svg"
 width="48.000000pt" height="48.000000pt" viewBox="0 0 48.000000 48.000000"
 preserveAspectRatio="xMidYMid meet">
<metadata>
Created by potrace 1.16, written by Peter Selinger 2001-2019
</metadata>
<g transform="translate(0.000000,48.000000) scale(0.100000,-0.100000)"
fill="currentColor" stroke="currentColor" stroke-width="6" stroke-linejoin="round">
<path d="M12 468 c-8 -8 -12 -55 -12 -144 0 -166 -1 -164 120 -164 85 0 100 5
100 36 0 2 -40 4 -90 4 l-90 0 0 120 0 120 170 0 170 0 0 -74 c0 -70 7 -86 36
-86 9 0 3 163 -6 181 -10 18 -23 19 -198 19 -133 0 -192 -4 -200 -12z M107
403 c-26 -26 12 -80 47 -67 21 8 30 42 16 59 -13 15 -51 20 -63 8z M237 404
c-4 -4 -7 -13 -7 -21 0 -9 16 -13 56 -13 47 0 55 3 52 18 -2 13 -15 18 -48 20
-25 2 -49 0 -53 -4z M237 334 c-4 -4 -7 -13 -7 -21 0 -9 16 -13 56 -13 47 0
55 3 52 18 -2 13 -15 18 -48 20 -25 2 -49 0 -53 -4z M89 299 c-31 -31 -19 -44
46 -47 70 -4 83 6 55 41 -26 33 -71 36 -101 6z M315 251 c-45 -20 -70 -60 -70
-112 0 -42 5 -53 33 -81 47 -48 117 -48 164 0 28 28 33 39 33 82 0 42 -5 54
-31 81 -33 33 -92 46 -129 30z m109 -70 c8 -13 -62 -101 -81 -101 -21 0 -53
29 -53 47 0 17 15 17 30 -2 18 -22 24 -19 55 25 28 40 39 47 49 31z"/>
</g>
</svg>

