<?xml version="1.0" standalone="no"?>
<!DOCTYPE svg PUBLIC "-//W3C//DTD SVG 20010904//EN"
 "http://www.w3.org/TR/2001/REC-SVG-20010904/DTD/svg10.dtd">
<svg version="1.0" xmlns="http://www.w3.org/2000/svg"
 width="48.000000pt" height="48.000000pt" viewBox="0 0 48.000000 48.000000"
 preserveAspectRatio="xMidYMid meet">
<metadata>
Created by potrace 1.16, written by Peter Selinger 2001-2019
</metadata>
<g transform="translate(0.000000,48.000000) scale(0.100000,-0.100000)"
fill="currentColor" stroke="currentColor" stroke-width="6" stroke-linejoin="round">
<path d="M35 468 c-11 -6 -23 -16 -27 -22 -10 -14 -10 -398 0 -412 16 -25 55
-34 142 -34 87 0 126 9 142 34 4 6 8 32 8 59 0 40 -3 47 -20 47 -15 0 -20 -7
-20 -25 l0 -25 -110 0 -110 0 0 170 0 170 106 0 c97 0 106 -2 111 -20 8 -28
43 -26 43 3 -1 52 -35 67 -152 67 -51 0 -102 -6 -113 -12z M96 318 c-23 -32
-20 -94 4 -118 42 -42 100 -9 100 58 0 50 -23 82 -60 82 -18 0 -34 -8 -44 -22z
m62 -55 c-3 -43 -31 -54 -36 -15 -5 32 4 52 23 52 13 0 15 -9 13 -37z M220
324 c0 -9 9 -18 20 -21 17 -4 20 -14 20 -57 0 -29 3 -56 7 -59 15 -16 33 18
33 63 0 33 5 50 15 54 8 3 15 12 15 21 0 12 -12 15 -55 15 -44 0 -55 -3 -55
-16z M366 324 c-12 -32 -6 -121 9 -134 12 -10 17 -7 26 14 7 14 20 26 30 26
25 0 49 27 49 55 0 13 -7 31 -16 39 -21 21 -90 21 -98 0z m74 -39 c0 -8 -7
-15 -15 -15 -8 0 -15 7 -15 15 0 8 7 15 15 15 8 0 15 -7 15 -15z"/>
</g>
</svg>

