<?xml version="1.0" standalone="no"?>
<!DOCTYPE svg PUBLIC "-//W3C//DTD SVG 20010904//EN"
 "http://www.w3.org/TR/2001/REC-SVG-20010904/DTD/svg10.dtd">
<svg version="1.0" xmlns="http://www.w3.org/2000/svg"
 width="48.000000pt" height="48.000000pt" viewBox="0 0 48.000000 48.000000"
 preserveAspectRatio="xMidYMid meet">
<metadata>
Created by potrace 1.16, written by Peter Selinger 2001-2019
</metadata>
<g transform="translate(0.000000,48.000000) scale(0.100000,-0.100000)"
fill="currentColor" stroke="currentColor" stroke-width="6" stroke-linejoin="round">
<path d="M116 458 c-11 -16 -16 -46 -16 -98 0 -89 15 -120 61 -120 27 0 29 -3
29 -35 0 -19 4 -35 8 -35 5 0 27 16 49 35 40 34 44 35 121 35 107 0 112 5 112
120 0 124 6 120 -190 120 -153 0 -159 -1 -174 -22z m96 -55 c34 -30 16 -103
-25 -103 -33 0 -47 19 -47 62 0 52 36 74 72 41z m116 0 c2 -7 -3 -13 -12 -13
-12 0 -16 -11 -16 -45 0 -33 -4 -45 -15 -45 -11 0 -15 12 -15 44 0 31 -5 46
-16 50 -8 3 -12 11 -9 16 9 15 77 8 83 -7z m107 -7 c19 -29 10 -54 -21 -62
-13 -3 -24 -12 -24 -20 0 -8 -7 -14 -15 -14 -12 0 -15 13 -15 60 0 60 0 60 30
60 20 0 34 -8 45 -24z M170 361 c0 -21 5 -31 16 -31 11 0 14 8 12 27 -4 39
-28 42 -28 4z M390 375 c0 -9 5 -15 11 -13 6 2 11 8 11 13 0 5 -5 11 -11 13
-6 2 -11 -4 -11 -13z M23 355 c-22 -16 -23 -22 -23 -170 0 -188 -2 -185 111
-185 111 0 119 6 119 85 0 53 -3 63 -15 59 -9 -4 -15 -19 -15 -40 l0 -34 -85
0 -85 0 0 129 c0 127 0 130 23 133 25 3 30 31 7 36 -8 1 -25 -5 -37 -13z"/>
</g>
</svg>

