<?xml version="1.0" standalone="no"?>
<!DOCTYPE svg PUBLIC "-//W3C//DTD SVG 20010904//EN"
 "http://www.w3.org/TR/2001/REC-SVG-20010904/DTD/svg10.dtd">
<svg version="1.0" xmlns="http://www.w3.org/2000/svg"
 width="48.000000pt" height="48.000000pt" viewBox="0 0 48.000000 48.000000"
 preserveAspectRatio="xMidYMid meet">
<metadata>
Created by potrace 1.16, written by Peter Selinger 2001-2019
</metadata>
<g transform="translate(0.000000,48.000000) scale(0.100000,-0.100000)"
fill="currentColor" stroke="currentColor" stroke-width="6" stroke-linejoin="round">
<path d="M294 445 c-9 -14 -25 -25 -36 -25 -35 0 -58 -19 -58 -48 0 -16 5 -33
11 -39 8 -8 8 -17 0 -31 -26 -48 -9 -82 40 -82 11 0 32 -13 46 -30 31 -37 46
-38 73 -2 12 15 35 29 52 32 43 7 56 31 40 72 -8 21 -8 36 -2 42 6 6 10 22 10
38 0 29 -23 48 -58 48 -11 0 -27 11 -36 25 -10 15 -26 25 -41 25 -15 0 -31
-10 -41 -25z m66 -31 c0 -8 -10 -14 -25 -14 -27 0 -33 18 -13 38 14 14 38 -2
38 -24z m-90 -37 c0 -14 -19 -37 -31 -37 -10 0 -20 30 -13 41 8 14 44 11 44
-4z m177 -2 c1 -5 -1 -16 -6 -24 -8 -12 -12 -12 -25 -2 -24 20 -20 43 6 39 12
-2 23 -7 25 -13z m-67 -57 c0 -36 -36 -56 -69 -39 -29 16 -29 64 2 78 34 16
67 -3 67 -39z m-112 -51 c4 -20 -25 -34 -40 -19 -15 15 -1 44 19 40 10 -2 19
-11 21 -21z m177 -2 c0 -13 -8 -21 -22 -23 -17 -3 -23 2 -23 16 0 10 3 22 7
26 13 13 38 1 38 -19z m-87 -54 c-2 -9 -11 -17 -21 -19 -21 -4 -35 27 -17 38
19 12 42 0 38 -19z M320 315 c0 -8 7 -15 15 -15 8 0 15 7 15 15 0 8 -7 15 -15
15 -8 0 -15 -7 -15 -15z M7 173 c-10 -10 -8 -51 2 -58 24 -14 80 33 65 56 -6
10 -57 12 -67 2z M85 136 c-12 -18 -34 -35 -53 -41 -53 -15 -39 -32 55 -64 99
-33 162 -26 148 18 -5 17 -14 21 -51 21 -24 0 -44 5 -44 10 0 6 4 10 9 10 17
0 20 41 3 47 -9 3 -24 12 -32 18 -13 11 -18 8 -35 -19z M188 128 c-9 -23 3
-38 28 -38 28 0 44 28 23 41 -20 13 -46 11 -51 -3z M343 133 c-24 -5 -29 -19
-14 -42 13 -20 64 2 59 26 -3 19 -13 22 -45 16z M262 89 c-18 -28 -7 -62 16
-49 43 24 45 27 33 49 -15 27 -33 27 -49 0z"/>
</g>
</svg>

