<?xml version="1.0" standalone="no"?>
<!DOCTYPE svg PUBLIC "-//W3C//DTD SVG 20010904//EN"
 "http://www.w3.org/TR/2001/REC-SVG-20010904/DTD/svg10.dtd">
<svg version="1.0" xmlns="http://www.w3.org/2000/svg"
 width="48.000000pt" height="48.000000pt" viewBox="0 0 48.000000 48.000000"
 preserveAspectRatio="xMidYMid meet">
<metadata>
Created by potrace 1.16, written by Peter Selinger 2001-2019
</metadata>
<g transform="translate(0.000000,48.000000) scale(0.100000,-0.100000)"
fill="currentColor" stroke="currentColor" stroke-width="6" stroke-linejoin="round">
<path d="M12 468 c-18 -18 -17 -272 2 -287 9 -8 55 -11 137 -9 109 3 124 5
127 21 3 15 -8 17 -117 17 l-121 0 0 115 0 115 165 0 165 0 0 -70 c0 -63 2
-70 20 -70 18 0 20 7 20 78 0 47 -5 83 -12 90 -17 17 -369 17 -386 0z M104
396 c-10 -27 1 -51 26 -54 31 -5 53 23 39 49 -12 22 -57 25 -65 5z M225 400
c-13 -21 11 -31 61 -28 36 2 49 7 49 18 0 19 -99 27 -110 10z M225 330 c-13
-21 11 -31 61 -28 36 2 49 7 49 18 0 19 -99 27 -110 10z M120 322 c-23 -7 -50
-34 -50 -49 0 -9 17 -13 65 -13 48 0 65 4 65 13 0 27 -52 58 -80 49z M332 247
c-12 -13 -22 -36 -22 -53 0 -16 -7 -38 -15 -48 -17 -23 -20 -98 -5 -127 9 -16
22 -19 88 -19 47 0 83 5 90 12 14 14 17 134 3 142 -4 3 -11 23 -15 45 -11 68
-80 95 -124 48z m76 -19 c7 -7 12 -25 12 -40 0 -26 -3 -28 -40 -28 -37 0 -40
2 -40 28 0 31 16 52 40 52 9 0 21 -5 28 -12z m16 -116 c3 -5 -10 -23 -28 -41
-32 -31 -33 -31 -50 -12 -20 22 -13 49 8 32 10 -8 18 -5 31 9 20 22 31 25 39
12z"/>
</g>
</svg>

