<?xml version="1.0" standalone="no"?>
<!DOCTYPE svg PUBLIC "-//W3C//DTD SVG 20010904//EN"
 "http://www.w3.org/TR/2001/REC-SVG-20010904/DTD/svg10.dtd">
<svg version="1.0" xmlns="http://www.w3.org/2000/svg"
 width="48.000000pt" height="48.000000pt" viewBox="0 0 48.000000 48.000000"
 preserveAspectRatio="xMidYMid meet">
<metadata>
Created by potrace 1.16, written by Peter Selinger 2001-2019
</metadata>
<g transform="translate(0.000000,48.000000) scale(0.100000,-0.100000)"
fill="currentColor" stroke="currentColor" stroke-width="6" stroke-linejoin="round">
<path d="M40 465 c0 -13 26 -15 170 -15 l170 0 0 -65 c0 -51 3 -65 15 -65 12
0 15 14 15 68 0 40 -5 73 -12 80 -8 8 -64 12 -185 12 -147 0 -173 -2 -173 -15z
M12 408 c-17 -17 -17 -269 0 -286 8 -8 50 -12 125 -12 94 0 113 3 113 15 0 12
-19 15 -110 15 l-110 0 0 125 0 125 145 0 145 0 0 -50 c0 -40 3 -48 15 -44 19
7 21 94 3 112 -17 17 -309 17 -326 0z M153 343 c-21 -8 -16 -61 6 -68 30 -9
51 5 51 35 0 33 -24 47 -57 33z M353 270 c-27 -11 -43 -40 -43 -77 0 -15 -7
-37 -15 -47 -17 -23 -20 -98 -5 -127 9 -16 22 -19 88 -19 47 0 83 5 90 12 15
15 16 134 2 143 -5 3 -10 19 -10 35 0 32 -34 76 -65 83 -11 3 -30 2 -42 -3z
m55 -42 c7 -7 12 -25 12 -40 0 -26 -3 -28 -40 -28 -37 0 -40 2 -40 28 0 31 16
52 40 52 9 0 21 -5 28 -12z m16 -116 c3 -5 -10 -23 -28 -41 -32 -31 -33 -31
-50 -12 -20 22 -13 49 8 32 10 -8 18 -5 31 9 20 22 31 25 39 12z M145 248
c-23 -13 -35 -28 -35 -45 0 -9 20 -13 65 -13 45 0 65 4 65 13 0 18 -12 32 -37
46 -26 14 -33 13 -58 -1z"/>
</g>
</svg>

