<?xml version="1.0" standalone="no"?>
<!DOCTYPE svg PUBLIC "-//W3C//DTD SVG 20010904//EN"
 "http://www.w3.org/TR/2001/REC-SVG-20010904/DTD/svg10.dtd">
<svg version="1.0" xmlns="http://www.w3.org/2000/svg"
 width="48.000000pt" height="48.000000pt" viewBox="0 0 48.000000 48.000000"
 preserveAspectRatio="xMidYMid meet">
<metadata>
Created by potrace 1.16, written by Peter Selinger 2001-2019
</metadata>
<g transform="translate(0.000000,48.000000) scale(0.100000,-0.100000)"
fill="currentColor" stroke="currentColor" stroke-width="6" stroke-linejoin="round">
<path d="M160 460 c-8 -5 -34 -7 -58 -4 -60 9 -92 -14 -92 -64 0 -21 5 -43 11
-49 7 -7 5 -27 -6 -68 -30 -103 -5 -182 73 -236 30 -20 50 -25 131 -28 120 -4
158 7 209 63 49 54 60 99 42 176 -13 59 -14 72 -4 137 5 36 3 43 -18 57 -14 9
-45 16 -74 16 -27 0 -83 2 -124 5 -44 3 -81 1 -90 -5z m60 -48 c0 -11 -12 -22
-31 -29 -37 -14 -34 -39 4 -36 20 1 27 -4 29 -20 4 -29 32 -28 36 1 3 18 9 22
29 20 38 -4 41 21 4 35 -19 7 -31 18 -31 29 0 22 22 23 62 2 25 -13 36 -14 50
-5 24 15 43 14 58 -4 10 -13 10 -19 -5 -35 -17 -19 -17 -32 1 -104 5 -22 1
-28 -30 -43 -35 -16 -46 -36 -26 -48 5 -3 23 1 40 10 29 15 30 15 30 -5 0 -13
-12 -26 -35 -37 -36 -17 -43 -31 -24 -50 37 -37 -195 -62 -261 -28 -29 15 -40
35 -20 35 23 0 8 27 -22 41 -21 9 -34 22 -36 37 -3 21 -1 22 17 13 27 -15 61
-14 61 2 0 7 -16 21 -36 30 -30 15 -35 22 -30 40 15 54 18 95 7 101 -16 11
-13 46 5 53 8 3 26 0 38 -7 19 -10 29 -9 52 4 39 21 64 20 64 -2z M125 280
c-9 -15 4 -30 26 -30 12 0 19 7 19 20 0 21 -33 29 -45 10z M305 280 c-9 -15 4
-30 26 -30 12 0 19 7 19 20 0 21 -33 29 -45 10z M180 203 c0 -7 9 -18 20 -25
32 -20 23 -30 -20 -23 -32 5 -40 4 -40 -8 0 -28 30 -40 100 -40 70 0 100 12
100 40 0 12 -8 13 -40 8 -43 -7 -52 3 -20 23 39 24 24 39 -40 39 -43 0 -60 -4
-60 -14z"/>
</g>
</svg>

