<?xml version="1.0" standalone="no"?>
<!DOCTYPE svg PUBLIC "-//W3C//DTD SVG 20010904//EN"
 "http://www.w3.org/TR/2001/REC-SVG-20010904/DTD/svg10.dtd">
<svg version="1.0" xmlns="http://www.w3.org/2000/svg"
 width="48.000000pt" height="48.000000pt" viewBox="0 0 48.000000 48.000000"
 preserveAspectRatio="xMidYMid meet">
<metadata>
Created by potrace 1.16, written by Peter Selinger 2001-2019
</metadata>
<g transform="translate(0.000000,48.000000) scale(0.100000,-0.100000)"
fill="currentColor" stroke="currentColor" stroke-width="6" stroke-linejoin="round">
<path d="M160 467 c-49 -16 -133 -102 -148 -153 -28 -94 -8 -169 63 -239 101
-102 229 -102 330 0 102 101 102 229 0 330 -70 71 -152 91 -245 62z m190 -61
c59 -39 85 -89 85 -166 0 -78 -26 -127 -88 -168 -56 -37 -153 -39 -210 -3 -76
47 -111 140 -88 229 14 51 75 117 123 131 53 16 135 6 178 -23z M221 396 c-9
-10 -8 -16 4 -26 21 -17 51 6 34 26 -6 8 -15 14 -19 14 -4 0 -13 -6 -19 -14z
M164 309 c-3 -6 11 -29 32 -50 l39 -40 80 3 c63 2 80 6 80 18 0 12 -16 16 -76
18 -69 3 -78 5 -104 32 -31 32 -40 36 -51 19z M80 256 c-10 -13 -10 -19 0 -32
12 -14 15 -14 29 0 14 15 14 17 0 32 -14 14 -17 14 -29 0z M221 106 c-17 -20
13 -43 34 -26 12 10 13 16 4 26 -6 8 -15 14 -19 14 -4 0 -13 -6 -19 -14z"/>
</g>
</svg>

