<?xml version="1.0" standalone="no"?>
<!DOCTYPE svg PUBLIC "-//W3C//DTD SVG 20010904//EN"
 "http://www.w3.org/TR/2001/REC-SVG-20010904/DTD/svg10.dtd">
<svg version="1.0" xmlns="http://www.w3.org/2000/svg"
 width="48.000000pt" height="48.000000pt" viewBox="0 0 48.000000 48.000000"
 preserveAspectRatio="xMidYMid meet">
<metadata>
Created by potrace 1.16, written by Peter Selinger 2001-2019
</metadata>
<g transform="translate(0.000000,48.000000) scale(0.100000,-0.100000)"
fill="currentColor" stroke="currentColor" stroke-width="6" stroke-linejoin="round">
<path d="M188 385 c-15 -8 -32 -31 -39 -50 -12 -33 -14 -34 -73 -37 l-61 -3 0
-50 0 -50 83 -3 c67 -2 83 0 88 13 9 21 99 21 108 0 5 -13 21 -15 88 -13 l83
3 0 50 0 50 -61 3 c-59 3 -61 4 -73 38 -20 57 -86 79 -143 49z m95 -57 l22
-23 -32 -3 c-18 -2 -48 -2 -65 0 l-33 3 23 23 c12 12 31 22 42 22 11 0 30 -10
43 -22z M227 194 c-4 -4 -7 -20 -7 -36 0 -22 5 -28 21 -28 17 0 20 5 17 32 -3
31 -17 45 -31 32z M14 157 c-3 -8 -4 -45 -2 -83 l3 -69 225 0 225 0 0 80 0 80
-83 3 c-72 2 -83 1 -88 -15 -12 -39 -22 -48 -54 -48 -32 0 -42 9 -54 48 -5 14
-18 17 -86 17 -58 0 -82 -4 -86 -13z"/>
</g>
</svg>

