<?xml version="1.0" standalone="no"?>
<!DOCTYPE svg PUBLIC "-//W3C//DTD SVG 20010904//EN"
 "http://www.w3.org/TR/2001/REC-SVG-20010904/DTD/svg10.dtd">
<svg version="1.0" xmlns="http://www.w3.org/2000/svg"
 width="48.000000pt" height="48.000000pt" viewBox="0 0 48.000000 48.000000"
 preserveAspectRatio="xMidYMid meet">
<metadata>
Created by potrace 1.16, written by Peter Selinger 2001-2019
</metadata>
<g transform="translate(0.000000,48.000000) scale(0.100000,-0.100000)"
fill="currentColor" stroke="currentColor" stroke-width="6" stroke-linejoin="round">
<path d="M224 466 c-9 -23 0 -51 16 -51 10 0 15 10 15 29 0 32 -21 47 -31 22z
M35 410 c-10 -16 14 -50 35 -50 25 0 26 22 2 43 -21 20 -28 21 -37 7z M407
402 c-23 -25 -21 -42 3 -42 21 0 45 34 35 50 -9 15 -20 12 -38 -8z M185 361
c-11 -5 -29 -18 -39 -30 -11 -11 -27 -21 -36 -21 -26 0 -70 -39 -70 -61 0 -18
9 -19 200 -19 191 0 200 1 200 19 0 22 -44 61 -68 61 -9 0 -28 12 -43 26 -30
29 -106 42 -144 25z M0 116 c0 -102 11 -119 74 -114 l41 3 0 95 0 95 -57 3
-58 3 0 -85z M144 187 c-3 -8 -4 -52 -2 -98 l3 -84 95 0 95 0 0 95 c0 91 -1
95 -22 98 -19 3 -23 -1 -23 -22 0 -29 -24 -56 -50 -56 -26 0 -50 27 -50 56 0
17 -5 24 -20 24 -11 0 -23 -6 -26 -13z M364 187 c-3 -8 -4 -52 -2 -98 l3 -84
41 -3 c63 -5 74 12 74 114 l0 84 -55 0 c-37 0 -57 -4 -61 -13z M224 179 c-10
-17 13 -36 27 -22 12 12 4 33 -11 33 -5 0 -12 -5 -16 -11z"/>
</g>
</svg>

