<?xml version="1.0" standalone="no"?>
<!DOCTYPE svg PUBLIC "-//W3C//DTD SVG 20010904//EN"
 "http://www.w3.org/TR/2001/REC-SVG-20010904/DTD/svg10.dtd">
<svg version="1.0" xmlns="http://www.w3.org/2000/svg"
 width="48.000000pt" height="48.000000pt" viewBox="0 0 48.000000 48.000000"
 preserveAspectRatio="xMidYMid meet">
<metadata>
Created by potrace 1.16, written by Peter Selinger 2001-2019
</metadata>
<g transform="translate(0.000000,48.000000) scale(0.100000,-0.100000)"
fill="currentColor" stroke="currentColor" stroke-width="6" stroke-linejoin="round">
<path d="M175 377 c-22 -8 -51 -19 -64 -26 -40 -22 -111 -93 -111 -111 0 -24
82 -98 138 -123 62 -28 142 -28 204 0 56 25 138 99 138 123 0 22 -76 92 -130
120 -52 27 -124 34 -175 17z m126 -76 c39 -40 39 -82 0 -122 -20 -20 -39 -29
-61 -29 -43 0 -90 47 -90 90 0 43 47 90 90 90 22 0 41 -9 61 -29z M210 265
c-15 -18 -10 -45 13 -59 34 -22 73 27 47 59 -16 19 -44 19 -60 0z"/>
</g>
</svg>

