<?xml version="1.0" standalone="no"?>
<!DOCTYPE svg PUBLIC "-//W3C//DTD SVG 20010904//EN"
 "http://www.w3.org/TR/2001/REC-SVG-20010904/DTD/svg10.dtd">
<svg version="1.0" xmlns="http://www.w3.org/2000/svg"
 width="48.000000pt" height="48.000000pt" viewBox="0 0 48.000000 48.000000"
 preserveAspectRatio="xMidYMid meet">
<metadata>
Created by potrace 1.16, written by Peter Selinger 2001-2019
</metadata>
<g transform="translate(0.000000,48.000000) scale(0.100000,-0.100000)"
fill="currentColor" stroke="currentColor" stroke-width="6" stroke-linejoin="round">
<path d="M230 245 c-161 -162 -202 -207 -192 -217 10 -10 22 -2 60 34 l47 46
72 -5 c64 -5 79 -3 125 20 29 14 70 41 91 60 51 48 50 76 -8 124 l-45 37 40
41 c40 41 50 65 27 65 -7 0 -104 -92 -217 -205z m100 -4 c0 -55 -61 -102 -112
-85 -18 5 -14 12 38 65 31 32 61 56 66 53 4 -3 8 -18 8 -33z M195 381 c-44
-11 -94 -39 -142 -78 -57 -45 -58 -79 -6 -122 l37 -31 33 32 c22 22 33 41 33
61 0 39 49 87 88 87 26 0 72 33 61 44 -9 10 -76 14 -104 7z"/>
</g>
</svg>

