<?xml version="1.0" standalone="no"?>
<!DOCTYPE svg PUBLIC "-//W3C//DTD SVG 20010904//EN"
 "http://www.w3.org/TR/2001/REC-SVG-20010904/DTD/svg10.dtd">
<svg version="1.0" xmlns="http://www.w3.org/2000/svg"
 width="48.000000pt" height="48.000000pt" viewBox="0 0 48.000000 48.000000"
 preserveAspectRatio="xMidYMid meet">
<metadata>
Created by potrace 1.16, written by Peter Selinger 2001-2019
</metadata>
<g transform="translate(0.000000,48.000000) scale(0.100000,-0.100000)"
fill="currentColor" stroke="currentColor" stroke-width="6" stroke-linejoin="round">
<path d="M145 446 c-60 -28 -87 -56 -114 -116 -36 -79 -19 -183 42 -249 33
-36 115 -71 167 -71 52 0 134 35 167 71 34 37 63 110 63 159 0 52 -35 134 -71
167 -37 34 -110 63 -159 63 -27 0 -65 -10 -95 -24z m-21 -181 c4 -25 11 -45
16 -45 5 0 12 20 16 45 9 60 24 57 24 -4 0 -34 -6 -56 -20 -72 l-20 -24 -20
24 c-14 16 -20 38 -20 72 0 61 15 64 24 4z m146 36 c0 -6 -4 -13 -10 -16 -5
-3 -10 -24 -10 -45 0 -21 5 -42 10 -45 20 -12 9 -25 -20 -25 -29 0 -40 13 -20
25 6 3 10 24 10 45 0 21 -4 42 -10 45 -20 12 -9 25 20 25 17 0 30 -4 30 -9z
m105 -31 c0 -28 -4 -35 -25 -40 -18 -4 -26 -14 -28 -33 -7 -55 -22 -25 -22 44
l0 70 38 -3 c35 -3 37 -5 37 -38z M327 283 c-12 -11 -8 -23 8 -23 8 0 15 7 15
15 0 16 -12 20 -23 8z"/>
</g>
</svg>

