<?xml version="1.0" standalone="no"?>
<!DOCTYPE svg PUBLIC "-//W3C//DTD SVG 20010904//EN"
 "http://www.w3.org/TR/2001/REC-SVG-20010904/DTD/svg10.dtd">
<svg version="1.0" xmlns="http://www.w3.org/2000/svg"
 width="48.000000pt" height="48.000000pt" viewBox="0 0 48.000000 48.000000"
 preserveAspectRatio="xMidYMid meet">
<metadata>
Created by potrace 1.16, written by Peter Selinger 2001-2019
</metadata>
<g transform="translate(0.000000,48.000000) scale(0.100000,-0.100000)"
fill="currentColor" stroke="currentColor" stroke-width="6" stroke-linejoin="round">
<path d="M40 377 c-25 -12 -25 -14 -25 -137 0 -158 -12 -150 225 -150 237 0
225 -8 225 150 0 123 0 125 -25 137 -35 18 -365 18 -400 0z m74 -112 c4 -25
11 -45 16 -45 5 0 12 20 16 45 8 58 24 58 24 0 0 -46 -22 -105 -40 -105 -18 0
-40 59 -40 105 0 58 16 58 24 0z m156 31 c0 -8 -4 -18 -10 -21 -5 -3 -10 -21
-10 -40 0 -19 5 -37 10 -40 22 -14 10 -35 -20 -35 -30 0 -42 21 -20 35 6 3 10
21 10 40 0 19 -4 37 -10 40 -22 14 -10 35 20 35 19 0 30 -5 30 -14z m110 0
c19 -23 8 -59 -22 -74 -19 -9 -28 -21 -28 -38 0 -13 -4 -24 -10 -24 -6 0 -10
32 -10 75 l0 75 29 0 c16 0 34 -7 41 -14z M337 274 c-8 -8 1 -24 14 -24 5 0 9
7 9 15 0 15 -12 20 -23 9z"/>
</g>
</svg>

