<?xml version="1.0" standalone="no"?>
<!DOCTYPE svg PUBLIC "-//W3C//DTD SVG 20010904//EN"
 "http://www.w3.org/TR/2001/REC-SVG-20010904/DTD/svg10.dtd">
<svg version="1.0" xmlns="http://www.w3.org/2000/svg"
 width="48.000000pt" height="48.000000pt" viewBox="0 0 48.000000 48.000000"
 preserveAspectRatio="xMidYMid meet">
<metadata>
Created by potrace 1.16, written by Peter Selinger 2001-2019
</metadata>
<g transform="translate(0.000000,48.000000) scale(0.100000,-0.100000)"
fill="currentColor" stroke="currentColor" stroke-width="6" stroke-linejoin="round">
<path d="M160 467 c-49 -16 -133 -102 -148 -153 -28 -94 -8 -169 63 -239 101
-102 229 -102 330 0 102 101 102 229 0 330 -70 71 -152 91 -245 62z m152 -198
c32 -52 58 -100 58 -106 0 -10 -32 -13 -130 -13 -89 0 -130 4 -130 11 0 10 90
167 113 197 17 21 29 9 89 -89z M191 251 c-22 -38 -41 -72 -41 -75 0 -3 40 -6
90 -6 50 0 90 3 90 6 0 12 -83 144 -90 144 -4 0 -26 -31 -49 -69z"/>
</g>
</svg>

