<?xml version="1.0" standalone="no"?>
<!DOCTYPE svg PUBLIC "-//W3C//DTD SVG 20010904//EN"
 "http://www.w3.org/TR/2001/REC-SVG-20010904/DTD/svg10.dtd">
<svg version="1.0" xmlns="http://www.w3.org/2000/svg"
 width="48.000000pt" height="48.000000pt" viewBox="0 0 48.000000 48.000000"
 preserveAspectRatio="xMidYMid meet">
<metadata>
Created by potrace 1.16, written by Peter Selinger 2001-2019
</metadata>
<g transform="translate(0.000000,48.000000) scale(0.100000,-0.100000)"
fill="currentColor" stroke="currentColor" stroke-width="6" stroke-linejoin="round">
<path d="M160 467 c-49 -16 -133 -102 -148 -153 -28 -94 -8 -169 63 -239 101
-102 229 -102 330 0 102 101 102 229 0 330 -70 71 -152 91 -245 62z m170 -56
c19 -10 48 -35 64 -55 25 -30 31 -48 34 -100 4 -64 -9 -107 -47 -150 -57 -65
-189 -76 -257 -20 -58 47 -76 87 -72 166 3 57 8 73 34 104 16 20 45 45 64 55
46 25 134 25 180 0z M205 400 c-108 -24 -163 -151 -106 -244 87 -141 303 -81
303 84 0 105 -96 183 -197 160z m45 -40 c0 -6 12 -15 26 -20 33 -13 22 -30
-21 -30 -20 0 -35 -6 -39 -15 -6 -18 19 -45 43 -45 25 0 41 -20 41 -51 0 -27
-22 -59 -41 -59 -5 0 -9 -7 -9 -15 0 -8 -4 -15 -10 -15 -5 0 -10 5 -10 10 0 6
-12 15 -26 20 -33 13 -22 30 21 30 20 0 35 6 39 15 6 18 -19 45 -43 45 -25 0
-41 20 -41 51 0 27 22 59 41 59 5 0 9 7 9 15 0 8 5 15 10 15 6 0 10 -5 10 -10z"/>
</g>
</svg>

