<?xml version="1.0" standalone="no"?>
<!DOCTYPE svg PUBLIC "-//W3C//DTD SVG 20010904//EN"
 "http://www.w3.org/TR/2001/REC-SVG-20010904/DTD/svg10.dtd">
<svg version="1.0" xmlns="http://www.w3.org/2000/svg"
 width="48.000000pt" height="48.000000pt" viewBox="0 0 48.000000 48.000000"
 preserveAspectRatio="xMidYMid meet">
<metadata>
Created by potrace 1.16, written by Peter Selinger 2001-2019
</metadata>
<g transform="translate(0.000000,48.000000) scale(0.100000,-0.100000)"
fill="currentColor" stroke="currentColor" stroke-width="6" stroke-linejoin="round">
<path d="M160 467 c-49 -16 -133 -102 -148 -153 -28 -94 -8 -169 63 -239 101
-102 229 -102 330 0 102 101 102 229 0 330 -70 71 -152 91 -245 62z m54 -178
l26 -20 26 20 c32 25 81 27 106 4 23 -20 24 -80 1 -105 -22 -24 -74 -23 -107
3 l-26 20 -26 -20 c-32 -25 -81 -27 -106 -4 -23 20 -24 80 -1 105 22 24 74 23
107 -3z M124 266 c-3 -8 -4 -25 -2 -38 4 -31 46 -36 79 -8 l24 20 -24 20 c-27
23 -69 26 -77 6z M279 260 l-24 -20 24 -20 c14 -12 35 -20 50 -18 22 3 26 8
26 38 0 30 -4 35 -26 38 -15 2 -36 -6 -50 -18z"/>
</g>
</svg>

