<?xml version="1.0" standalone="no"?>
<!DOCTYPE svg PUBLIC "-//W3C//DTD SVG 20010904//EN"
 "http://www.w3.org/TR/2001/REC-SVG-20010904/DTD/svg10.dtd">
<svg version="1.0" xmlns="http://www.w3.org/2000/svg"
 width="48.000000pt" height="48.000000pt" viewBox="0 0 48.000000 48.000000"
 preserveAspectRatio="xMidYMid meet">
<metadata>
Created by potrace 1.16, written by Peter Selinger 2001-2019
</metadata>
<g transform="translate(0.000000,48.000000) scale(0.100000,-0.100000)"
fill="currentColor" stroke="currentColor" stroke-width="6" stroke-linejoin="round">
<path d="M193 444 c-32 -16 -63 -66 -63 -101 0 -10 8 -31 18 -48 19 -30 19
-30 -7 -76 -14 -25 -34 -50 -46 -55 -24 -11 -31 -39 -15 -59 20 -24 49 -18 61
13 6 15 25 55 42 90 26 52 29 66 19 80 -30 42 -35 61 -24 87 16 34 56 49 90
33 20 -10 30 -24 36 -55 10 -45 30 -57 41 -24 9 30 -4 66 -34 95 -35 33 -77
41 -118 20z M212 378 c-18 -18 -14 -46 8 -58 11 -6 34 -35 51 -65 37 -66 43
-70 91 -66 41 3 78 -25 78 -58 0 -32 -39 -71 -70 -71 -16 0 -32 5 -35 10 -9
15 -45 12 -45 -4 0 -37 79 -57 128 -32 97 50 64 196 -44 196 -40 0 -44 3 -70
48 -15 26 -27 56 -26 67 3 38 -39 60 -66 33z M35 206 c-57 -57 -36 -148 41
-175 35 -12 44 -12 76 3 22 10 43 30 50 47 12 28 16 29 75 29 34 0 65 -5 68
-10 9 -15 41 -12 55 5 25 31 -25 84 -53 56 -6 -6 -44 -11 -85 -11 l-73 0 -14
-35 c-25 -58 -70 -71 -110 -30 -33 32 -31 61 5 95 17 15 30 33 30 39 0 20 -40
12 -65 -13z"/>
</g>
</svg>

