<?xml version="1.0" standalone="no"?>
<!DOCTYPE svg PUBLIC "-//W3C//DTD SVG 20010904//EN"
 "http://www.w3.org/TR/2001/REC-SVG-20010904/DTD/svg10.dtd">
<svg version="1.0" xmlns="http://www.w3.org/2000/svg"
 width="48.000000pt" height="48.000000pt" viewBox="0 0 48.000000 48.000000"
 preserveAspectRatio="xMidYMid meet">
<metadata>
Created by potrace 1.16, written by Peter Selinger 2001-2019
</metadata>
<g transform="translate(0.000000,48.000000) scale(0.100000,-0.100000)"
fill="currentColor" stroke="currentColor" stroke-width="6" stroke-linejoin="round">
<path d="M65 456 c-28 -28 -30 -59 -5 -64 8 -1 20 8 25 20 6 13 19 23 30 23
18 0 21 -8 25 -80 4 -66 8 -80 23 -83 15 -3 17 5 17 70 0 73 9 98 37 98 8 0
18 -11 23 -25 5 -14 16 -25 25 -25 22 0 19 46 -6 71 -16 16 -28 20 -52 15 -40
-8 -44 -8 -84 0 -26 5 -37 1 -58 -20z M417 432 c-10 -10 -17 -24 -17 -30 0 -7
-13 -12 -28 -12 -33 0 -65 -30 -60 -57 2 -13 15 -19 42 -23 45 -6 67 -30 48
-53 -9 -11 -49 -15 -170 -19 -113 -4 -168 -10 -194 -21 -21 -9 -38 -20 -37
-24 0 -4 14 -37 32 -73 42 -85 78 -110 159 -110 51 0 59 2 56 18 -2 13 -16 18
-60 22 -60 5 -89 24 -114 72 -20 39 -3 37 81 -8 37 -19 74 -33 81 -30 9 3 24
-10 39 -33 23 -37 59 -60 72 -47 3 3 0 19 -7 35 -14 36 -5 58 16 40 12 -10 21
-6 45 17 60 56 73 96 77 232 l4 122 -24 0 c-14 0 -32 -8 -41 -18z m-201 -253
c10 -17 -13 -36 -27 -22 -12 12 -4 33 11 33 5 0 12 -5 16 -11z"/>
</g>
</svg>

