<?xml version="1.0" standalone="no"?>
<!DOCTYPE svg PUBLIC "-//W3C//DTD SVG 20010904//EN"
 "http://www.w3.org/TR/2001/REC-SVG-20010904/DTD/svg10.dtd">
<svg version="1.0" xmlns="http://www.w3.org/2000/svg"
 width="48.000000pt" height="48.000000pt" viewBox="0 0 48.000000 48.000000"
 preserveAspectRatio="xMidYMid meet">
<metadata>
Created by potrace 1.16, written by Peter Selinger 2001-2019
</metadata>
<g transform="translate(0.000000,48.000000) scale(0.100000,-0.100000)"
fill="currentColor" stroke="currentColor" stroke-width="6" stroke-linejoin="round">
<path d="M56 389 c-26 -31 -33 -54 -18 -63 11 -7 25 4 51 41 21 31 21 53 1 53
-4 0 -20 -14 -34 -31z M377 413 c-13 -12 -7 -28 24 -61 49 -52 70 -19 23 37
-26 32 -35 36 -47 24z M172 373 c-73 -36 -105 -143 -63 -211 80 -127 281 -75
281 73 0 112 -118 187 -218 138z M6 284 c-9 -23 -7 -77 3 -93 24 -37 38 8 32
99 -1 16 -28 12 -35 -6z M439 290 c-5 -71 0 -105 14 -108 11 -2 19 6 23 22 9
37 -4 96 -21 96 -8 0 -15 -4 -16 -10z M30 134 c0 -26 40 -74 61 -74 26 0 24
15 -8 56 -30 36 -53 44 -53 18z M396 116 c-14 -19 -26 -39 -26 -45 0 -22 39
-10 59 18 44 61 12 86 -33 27z"/>
</g>
</svg>

