<?xml version="1.0" standalone="no"?>
<!DOCTYPE svg PUBLIC "-//W3C//DTD SVG 20010904//EN"
 "http://www.w3.org/TR/2001/REC-SVG-20010904/DTD/svg10.dtd">
<svg version="1.0" xmlns="http://www.w3.org/2000/svg"
 width="48.000000pt" height="48.000000pt" viewBox="0 0 48.000000 48.000000"
 preserveAspectRatio="xMidYMid meet">
<metadata>
Created by potrace 1.16, written by Peter Selinger 2001-2019
</metadata>
<g transform="translate(0.000000,48.000000) scale(0.100000,-0.100000)"
fill="currentColor" stroke="currentColor" stroke-width="6" stroke-linejoin="round">
<path d="M67 474 c-4 -4 7 -22 24 -41 54 -62 14 -101 -45 -44 -35 34 -46 32
-46 -6 0 -60 38 -94 121 -107 30 -5 39 -2 62 22 29 30 30 59 5 125 -16 41 -97
75 -121 51z M331 466 c-29 -16 -50 -52 -51 -86 0 -33 -145 -180 -177 -180 -56
0 -103 -48 -103 -104 0 -35 14 -39 40 -11 29 31 80 35 80 7 0 -10 -13 -31 -30
-47 -32 -31 -31 -45 5 -45 57 0 105 47 105 102 0 31 146 178 177 178 55 0 103
48 103 103 0 38 -11 40 -46 6 -59 -57 -99 -18 -45 44 17 19 28 37 24 41 -11
10 -57 6 -82 -8z M297 182 c-22 -23 -26 -34 -21 -63 14 -81 48 -119 107 -119
38 0 40 11 6 46 -57 59 -18 99 44 45 37 -33 47 -31 47 6 0 60 -38 94 -121 107
-30 5 -39 2 -62 -22z"/>
</g>
</svg>

