<?xml version="1.0" standalone="no"?>
<!DOCTYPE svg PUBLIC "-//W3C//DTD SVG 20010904//EN"
 "http://www.w3.org/TR/2001/REC-SVG-20010904/DTD/svg10.dtd">
<svg version="1.0" xmlns="http://www.w3.org/2000/svg"
 width="48.000000pt" height="48.000000pt" viewBox="0 0 48.000000 48.000000"
 preserveAspectRatio="xMidYMid meet">
<metadata>
Created by potrace 1.16, written by Peter Selinger 2001-2019
</metadata>
<g transform="translate(0.000000,48.000000) scale(0.100000,-0.100000)"
fill="currentColor" stroke="currentColor" stroke-width="6" stroke-linejoin="round">
<path d="M142 469 c-19 -5 -53 -30 -77 -53 -86 -86 -86 -207 -1 -292 62 -62
146 -80 227 -48 l40 17 48 -47 c48 -47 68 -55 89 -34 21 21 13 41 -34 89 l-45
46 17 52 c31 96 -2 191 -85 247 -44 29 -126 40 -179 23z m131 -43 c44 -18 95
-78 103 -121 11 -60 -4 -106 -50 -151 -72 -72 -160 -72 -232 0 -67 67 -72 154
-11 223 53 60 122 78 190 49z M197 354 c-4 -4 -7 -20 -7 -35 0 -24 -4 -28 -32
-31 -44 -4 -45 -32 -1 -36 28 -3 32 -7 35 -35 2 -20 8 -32 18 -32 10 0 16 12
18 32 3 28 7 32 35 35 20 2 32 8 32 18 0 10 -12 16 -32 18 -27 3 -32 7 -35 34
-3 31 -17 45 -31 32z"/>
</g>
</svg>

